%TF.GenerationSoftware,KiCad,Pcbnew,6.0.4-6f826c9f35~116~ubuntu20.04.1*%
%TF.CreationDate,2022-08-19T08:18:37+00:00*%
%TF.ProjectId,DATALOGGER01A,44415441-4c4f-4474-9745-523031412e6b,rev?*%
%TF.SameCoordinates,Original*%
%TF.FileFunction,Soldermask,Top*%
%TF.FilePolarity,Negative*%
%FSLAX46Y46*%
G04 Gerber Fmt 4.6, Leading zero omitted, Abs format (unit mm)*
G04 Created by KiCad (PCBNEW 6.0.4-6f826c9f35~116~ubuntu20.04.1) date 2022-08-19 08:18:37*
%MOMM*%
%LPD*%
G01*
G04 APERTURE LIST*
%ADD10R,1.524000X1.524000*%
%ADD11C,4.500000*%
%ADD12C,2.500000*%
%ADD13C,6.000000*%
%ADD14R,1.800000X1.800000*%
%ADD15C,1.800000*%
%ADD16C,1.501140*%
%ADD17C,3.000000*%
%ADD18C,1.600000*%
%ADD19C,1.100000*%
G04 APERTURE END LIST*
D10*
%TO.C,J26*%
X55245000Y92710000D03*
X55245000Y95250000D03*
%TD*%
D11*
%TO.C,BT1*%
X53995000Y71120000D03*
X18395000Y71120000D03*
D12*
X69945000Y71120000D03*
X2445000Y71120000D03*
%TD*%
D10*
%TO.C,J24*%
X50165000Y92710000D03*
X50165000Y95250000D03*
%TD*%
%TO.C,J4*%
X76200000Y46355000D03*
X73660000Y46355000D03*
%TD*%
%TO.C,J22*%
X47625000Y92710000D03*
X47625000Y95250000D03*
%TD*%
%TO.C,J20*%
X73660000Y57785000D03*
X76200000Y57785000D03*
%TD*%
%TO.C,J17*%
X73660000Y65405000D03*
X76200000Y65405000D03*
%TD*%
%TO.C,J19*%
X73660000Y60325000D03*
X76200000Y60325000D03*
%TD*%
%TO.C,J18*%
X73660000Y62865000D03*
X76200000Y62865000D03*
%TD*%
%TO.C,J1*%
X76200000Y43815000D03*
X73660000Y43815000D03*
%TD*%
%TO.C,J2*%
X76200000Y51435000D03*
X73660000Y51435000D03*
%TD*%
%TO.C,J5*%
X76200000Y53975000D03*
X73660000Y53975000D03*
%TD*%
%TO.C,J6*%
X73660000Y21590000D03*
X73660000Y24130000D03*
X76200000Y21590000D03*
X76200000Y24130000D03*
X78740000Y21590000D03*
X78740000Y24130000D03*
%TD*%
%TO.C,J8*%
X76200000Y81280000D03*
X73660000Y81280000D03*
%TD*%
%TO.C,J9*%
X40005000Y92710000D03*
X40005000Y95250000D03*
%TD*%
%TO.C,J10*%
X76200000Y29210000D03*
X73660000Y29210000D03*
X76200000Y31750000D03*
X73660000Y31750000D03*
X76200000Y34290000D03*
X73660000Y34290000D03*
%TD*%
%TO.C,J11*%
X19685000Y8890000D03*
X19685000Y6350000D03*
%TD*%
%TO.C,J21*%
X73660000Y37465000D03*
X76200000Y37465000D03*
%TD*%
%TO.C,J23*%
X45085000Y92710000D03*
X45085000Y95250000D03*
%TD*%
%TO.C,J25*%
X52705000Y92710000D03*
X52705000Y95250000D03*
%TD*%
%TO.C,J27*%
X65405000Y92710000D03*
X65405000Y95250000D03*
%TD*%
%TO.C,J28*%
X67945000Y92710000D03*
X67945000Y95250000D03*
%TD*%
%TO.C,J29*%
X62865000Y92710000D03*
X62865000Y95250000D03*
%TD*%
%TO.C,J30*%
X73660000Y40005000D03*
X76200000Y40005000D03*
%TD*%
%TO.C,J31*%
X76200000Y85090000D03*
X73660000Y85090000D03*
X76200000Y87630000D03*
X73660000Y87630000D03*
X76200000Y90170000D03*
X73660000Y90170000D03*
%TD*%
D13*
%TO.C,M3*%
X5080000Y96520000D03*
%TD*%
%TO.C,M2*%
X5080000Y5080000D03*
%TD*%
%TO.C,M4*%
X76200000Y96200000D03*
%TD*%
D10*
%TO.C,J32*%
X76200000Y16510000D03*
X76200000Y19050000D03*
%TD*%
%TO.C,J33*%
X73660000Y11430000D03*
X73660000Y13970000D03*
X76200000Y11430000D03*
X76200000Y13970000D03*
X78740000Y11430000D03*
X78740000Y13970000D03*
%TD*%
D11*
%TO.C,BT2*%
X18395000Y33020000D03*
X53995000Y33020000D03*
D12*
X69945000Y33020000D03*
X2445000Y33020000D03*
%TD*%
D14*
%TO.C,D3*%
X12065000Y5080000D03*
D15*
X14605000Y5080000D03*
%TD*%
D10*
%TO.C,J3*%
X76200000Y48895000D03*
X73660000Y48895000D03*
%TD*%
D16*
%TO.C,Y1*%
X74930000Y76100940D03*
X74930000Y71219060D03*
%TD*%
D10*
%TO.C,J12*%
X12700000Y92710000D03*
X12700000Y95250000D03*
%TD*%
%TO.C,J16*%
X22860000Y92710000D03*
X22860000Y95250000D03*
%TD*%
%TO.C,J15*%
X20320000Y92710000D03*
X20320000Y95250000D03*
%TD*%
%TO.C,J14*%
X17780000Y92710000D03*
X17780000Y95250000D03*
%TD*%
%TO.C,J13*%
X15240000Y92710000D03*
X15240000Y95250000D03*
%TD*%
D17*
%TO.C,SW1*%
X58165000Y11816000D03*
X62865000Y11816000D03*
X67565000Y11816000D03*
X56260000Y2286000D03*
X69470000Y2286000D03*
%TD*%
D18*
%TO.C,J7*%
X27330000Y34575000D03*
D19*
X48330000Y34575000D03*
%TD*%
D18*
%TO.C,J34*%
X27330000Y23145000D03*
D19*
X48330000Y23145000D03*
%TD*%
M02*
