%TF.GenerationSoftware,KiCad,Pcbnew,6.0.4-6f826c9f35~116~ubuntu20.04.1*%
%TF.CreationDate,2022-08-19T08:18:37+00:00*%
%TF.ProjectId,DATALOGGER01A,44415441-4c4f-4474-9745-523031412e6b,rev?*%
%TF.SameCoordinates,Original*%
%TF.FileFunction,Legend,Bot*%
%TF.FilePolarity,Positive*%
%FSLAX46Y46*%
G04 Gerber Fmt 4.6, Leading zero omitted, Abs format (unit mm)*
G04 Created by KiCad (PCBNEW 6.0.4-6f826c9f35~116~ubuntu20.04.1) date 2022-08-19 08:18:37*
%MOMM*%
%LPD*%
G01*
G04 APERTURE LIST*
%ADD10C,0.109220*%
%ADD11C,0.150000*%
%ADD12C,0.304800*%
%ADD13C,0.099060*%
%ADD14C,0.127000*%
%ADD15C,0.120000*%
G04 APERTURE END LIST*
D10*
%TO.C,C18*%
X64631207Y46359173D02*
X64655034Y46383001D01*
X64678862Y46454484D01*
X64678862Y46502139D01*
X64655034Y46573622D01*
X64607379Y46621277D01*
X64559724Y46645105D01*
X64464413Y46668932D01*
X64392930Y46668932D01*
X64297620Y46645105D01*
X64249965Y46621277D01*
X64202310Y46573622D01*
X64178482Y46502139D01*
X64178482Y46454484D01*
X64202310Y46383001D01*
X64226137Y46359173D01*
X64678862Y45882621D02*
X64678862Y46168552D01*
X64678862Y46025587D02*
X64178482Y46025587D01*
X64249965Y46073242D01*
X64297620Y46120897D01*
X64321448Y46168552D01*
X64392930Y45596690D02*
X64369103Y45644345D01*
X64345275Y45668172D01*
X64297620Y45692000D01*
X64273792Y45692000D01*
X64226137Y45668172D01*
X64202310Y45644345D01*
X64178482Y45596690D01*
X64178482Y45501379D01*
X64202310Y45453724D01*
X64226137Y45429896D01*
X64273792Y45406069D01*
X64297620Y45406069D01*
X64345275Y45429896D01*
X64369103Y45453724D01*
X64392930Y45501379D01*
X64392930Y45596690D01*
X64416758Y45644345D01*
X64440586Y45668172D01*
X64488241Y45692000D01*
X64583551Y45692000D01*
X64631207Y45668172D01*
X64655034Y45644345D01*
X64678862Y45596690D01*
X64678862Y45501379D01*
X64655034Y45453724D01*
X64631207Y45429896D01*
X64583551Y45406069D01*
X64488241Y45406069D01*
X64440586Y45429896D01*
X64416758Y45453724D01*
X64392930Y45501379D01*
X65377362Y46684898D02*
X65377362Y46970830D01*
X65377362Y46827864D02*
X64876982Y46827864D01*
X64948465Y46875519D01*
X64996120Y46923174D01*
X65019948Y46970830D01*
X64876982Y46375139D02*
X64876982Y46327484D01*
X64900810Y46279829D01*
X64924637Y46256001D01*
X64972292Y46232173D01*
X65067603Y46208346D01*
X65186741Y46208346D01*
X65282051Y46232173D01*
X65329707Y46256001D01*
X65353534Y46279829D01*
X65377362Y46327484D01*
X65377362Y46375139D01*
X65353534Y46422794D01*
X65329707Y46446622D01*
X65282051Y46470450D01*
X65186741Y46494277D01*
X65067603Y46494277D01*
X64972292Y46470450D01*
X64924637Y46446622D01*
X64900810Y46422794D01*
X64876982Y46375139D01*
X64876982Y45898587D02*
X64876982Y45850931D01*
X64900810Y45803276D01*
X64924637Y45779449D01*
X64972292Y45755621D01*
X65067603Y45731793D01*
X65186741Y45731793D01*
X65282051Y45755621D01*
X65329707Y45779449D01*
X65353534Y45803276D01*
X65377362Y45850931D01*
X65377362Y45898587D01*
X65353534Y45946242D01*
X65329707Y45970070D01*
X65282051Y45993897D01*
X65186741Y46017725D01*
X65067603Y46017725D01*
X64972292Y45993897D01*
X64924637Y45970070D01*
X64900810Y45946242D01*
X64876982Y45898587D01*
X65043775Y45517345D02*
X65377362Y45517345D01*
X65091430Y45517345D02*
X65067603Y45493517D01*
X65043775Y45445862D01*
X65043775Y45374379D01*
X65067603Y45326724D01*
X65115258Y45302896D01*
X65377362Y45302896D01*
X65115258Y44897827D02*
X65115258Y45064620D01*
X65377362Y45064620D02*
X64876982Y45064620D01*
X64876982Y44826344D01*
%TO.C,R1*%
X30388862Y41358397D02*
X30150586Y41525190D01*
X30388862Y41644329D02*
X29888482Y41644329D01*
X29888482Y41453708D01*
X29912310Y41406052D01*
X29936137Y41382225D01*
X29983792Y41358397D01*
X30055275Y41358397D01*
X30102930Y41382225D01*
X30126758Y41406052D01*
X30150586Y41453708D01*
X30150586Y41644329D01*
X30388862Y40881845D02*
X30388862Y41167776D01*
X30388862Y41024810D02*
X29888482Y41024810D01*
X29959965Y41072466D01*
X30007620Y41120121D01*
X30031448Y41167776D01*
X29690362Y41735587D02*
X29690362Y42021519D01*
X29690362Y41878553D02*
X29189982Y41878553D01*
X29261465Y41926208D01*
X29309120Y41973863D01*
X29332948Y42021519D01*
X29189982Y41425828D02*
X29189982Y41378173D01*
X29213810Y41330518D01*
X29237637Y41306690D01*
X29285292Y41282862D01*
X29380603Y41259035D01*
X29499741Y41259035D01*
X29595051Y41282862D01*
X29642707Y41306690D01*
X29666534Y41330518D01*
X29690362Y41378173D01*
X29690362Y41425828D01*
X29666534Y41473483D01*
X29642707Y41497311D01*
X29595051Y41521139D01*
X29499741Y41544966D01*
X29380603Y41544966D01*
X29285292Y41521139D01*
X29237637Y41497311D01*
X29213810Y41473483D01*
X29189982Y41425828D01*
X29189982Y40949276D02*
X29189982Y40901620D01*
X29213810Y40853965D01*
X29237637Y40830138D01*
X29285292Y40806310D01*
X29380603Y40782482D01*
X29499741Y40782482D01*
X29595051Y40806310D01*
X29642707Y40830138D01*
X29666534Y40853965D01*
X29690362Y40901620D01*
X29690362Y40949276D01*
X29666534Y40996931D01*
X29642707Y41020759D01*
X29595051Y41044586D01*
X29499741Y41068414D01*
X29380603Y41068414D01*
X29285292Y41044586D01*
X29237637Y41020759D01*
X29213810Y40996931D01*
X29189982Y40949276D01*
%TO.C,C7*%
X62091207Y37230897D02*
X62115034Y37254725D01*
X62138862Y37326208D01*
X62138862Y37373863D01*
X62115034Y37445346D01*
X62067379Y37493001D01*
X62019724Y37516829D01*
X61924413Y37540656D01*
X61852930Y37540656D01*
X61757620Y37516829D01*
X61709965Y37493001D01*
X61662310Y37445346D01*
X61638482Y37373863D01*
X61638482Y37326208D01*
X61662310Y37254725D01*
X61686137Y37230897D01*
X61638482Y37064104D02*
X61638482Y36730517D01*
X62138862Y36944966D01*
X61440362Y37572346D02*
X61440362Y37858277D01*
X61440362Y37715311D02*
X60939982Y37715311D01*
X61011465Y37762967D01*
X61059120Y37810622D01*
X61082948Y37858277D01*
X61106775Y37143449D02*
X61440362Y37143449D01*
X61106775Y37357897D02*
X61368879Y37357897D01*
X61416534Y37334070D01*
X61440362Y37286414D01*
X61440362Y37214931D01*
X61416534Y37167276D01*
X61392707Y37143449D01*
X61178258Y36738379D02*
X61178258Y36905172D01*
X61440362Y36905172D02*
X60939982Y36905172D01*
X60939982Y36666896D01*
%TO.C,R4*%
X45628862Y41358397D02*
X45390586Y41525190D01*
X45628862Y41644329D02*
X45128482Y41644329D01*
X45128482Y41453708D01*
X45152310Y41406052D01*
X45176137Y41382225D01*
X45223792Y41358397D01*
X45295275Y41358397D01*
X45342930Y41382225D01*
X45366758Y41406052D01*
X45390586Y41453708D01*
X45390586Y41644329D01*
X45295275Y40929500D02*
X45628862Y40929500D01*
X45104654Y41048638D02*
X45462069Y41167776D01*
X45462069Y40858017D01*
X44930362Y41735587D02*
X44930362Y42021519D01*
X44930362Y41878553D02*
X44429982Y41878553D01*
X44501465Y41926208D01*
X44549120Y41973863D01*
X44572948Y42021519D01*
X44429982Y41425828D02*
X44429982Y41378173D01*
X44453810Y41330518D01*
X44477637Y41306690D01*
X44525292Y41282862D01*
X44620603Y41259035D01*
X44739741Y41259035D01*
X44835051Y41282862D01*
X44882707Y41306690D01*
X44906534Y41330518D01*
X44930362Y41378173D01*
X44930362Y41425828D01*
X44906534Y41473483D01*
X44882707Y41497311D01*
X44835051Y41521139D01*
X44739741Y41544966D01*
X44620603Y41544966D01*
X44525292Y41521139D01*
X44477637Y41497311D01*
X44453810Y41473483D01*
X44429982Y41425828D01*
X44429982Y40949276D02*
X44429982Y40901620D01*
X44453810Y40853965D01*
X44477637Y40830138D01*
X44525292Y40806310D01*
X44620603Y40782482D01*
X44739741Y40782482D01*
X44835051Y40806310D01*
X44882707Y40830138D01*
X44906534Y40853965D01*
X44930362Y40901620D01*
X44930362Y40949276D01*
X44906534Y40996931D01*
X44882707Y41020759D01*
X44835051Y41044586D01*
X44739741Y41068414D01*
X44620603Y41068414D01*
X44525292Y41044586D01*
X44477637Y41020759D01*
X44453810Y40996931D01*
X44429982Y40949276D01*
%TO.C,C8*%
X77966207Y71203397D02*
X77990034Y71227225D01*
X78013862Y71298708D01*
X78013862Y71346363D01*
X77990034Y71417846D01*
X77942379Y71465501D01*
X77894724Y71489329D01*
X77799413Y71513156D01*
X77727930Y71513156D01*
X77632620Y71489329D01*
X77584965Y71465501D01*
X77537310Y71417846D01*
X77513482Y71346363D01*
X77513482Y71298708D01*
X77537310Y71227225D01*
X77561137Y71203397D01*
X77727930Y70917466D02*
X77704103Y70965121D01*
X77680275Y70988949D01*
X77632620Y71012776D01*
X77608792Y71012776D01*
X77561137Y70988949D01*
X77537310Y70965121D01*
X77513482Y70917466D01*
X77513482Y70822155D01*
X77537310Y70774500D01*
X77561137Y70750672D01*
X77608792Y70726845D01*
X77632620Y70726845D01*
X77680275Y70750672D01*
X77704103Y70774500D01*
X77727930Y70822155D01*
X77727930Y70917466D01*
X77751758Y70965121D01*
X77775586Y70988949D01*
X77823241Y71012776D01*
X77918551Y71012776D01*
X77966207Y70988949D01*
X77990034Y70965121D01*
X78013862Y70917466D01*
X78013862Y70822155D01*
X77990034Y70774500D01*
X77966207Y70750672D01*
X77918551Y70726845D01*
X77823241Y70726845D01*
X77775586Y70750672D01*
X77751758Y70774500D01*
X77727930Y70822155D01*
X77315362Y72021398D02*
X77315362Y72307330D01*
X77315362Y72164364D02*
X76814982Y72164364D01*
X76886465Y72212019D01*
X76934120Y72259674D01*
X76957948Y72307330D01*
X76814982Y71711639D02*
X76814982Y71663984D01*
X76838810Y71616329D01*
X76862637Y71592501D01*
X76910292Y71568673D01*
X77005603Y71544846D01*
X77124741Y71544846D01*
X77220051Y71568673D01*
X77267707Y71592501D01*
X77291534Y71616329D01*
X77315362Y71663984D01*
X77315362Y71711639D01*
X77291534Y71759294D01*
X77267707Y71783122D01*
X77220051Y71806950D01*
X77124741Y71830777D01*
X77005603Y71830777D01*
X76910292Y71806950D01*
X76862637Y71783122D01*
X76838810Y71759294D01*
X76814982Y71711639D01*
X76814982Y71235087D02*
X76814982Y71187431D01*
X76838810Y71139776D01*
X76862637Y71115949D01*
X76910292Y71092121D01*
X77005603Y71068293D01*
X77124741Y71068293D01*
X77220051Y71092121D01*
X77267707Y71115949D01*
X77291534Y71139776D01*
X77315362Y71187431D01*
X77315362Y71235087D01*
X77291534Y71282742D01*
X77267707Y71306570D01*
X77220051Y71330397D01*
X77124741Y71354225D01*
X77005603Y71354225D01*
X76910292Y71330397D01*
X76862637Y71306570D01*
X76838810Y71282742D01*
X76814982Y71235087D01*
X76981775Y70853845D02*
X77315362Y70853845D01*
X77029430Y70853845D02*
X77005603Y70830017D01*
X76981775Y70782362D01*
X76981775Y70710879D01*
X77005603Y70663224D01*
X77053258Y70639396D01*
X77315362Y70639396D01*
X77053258Y70234327D02*
X77053258Y70401120D01*
X77315362Y70401120D02*
X76814982Y70401120D01*
X76814982Y70162844D01*
%TO.C,C5*%
X77331207Y75013397D02*
X77355034Y75037225D01*
X77378862Y75108708D01*
X77378862Y75156363D01*
X77355034Y75227846D01*
X77307379Y75275501D01*
X77259724Y75299329D01*
X77164413Y75323156D01*
X77092930Y75323156D01*
X76997620Y75299329D01*
X76949965Y75275501D01*
X76902310Y75227846D01*
X76878482Y75156363D01*
X76878482Y75108708D01*
X76902310Y75037225D01*
X76926137Y75013397D01*
X76878482Y74560672D02*
X76878482Y74798949D01*
X77116758Y74822776D01*
X77092930Y74798949D01*
X77069103Y74751293D01*
X77069103Y74632155D01*
X77092930Y74584500D01*
X77116758Y74560672D01*
X77164413Y74536845D01*
X77283551Y74536845D01*
X77331207Y74560672D01*
X77355034Y74584500D01*
X77378862Y74632155D01*
X77378862Y74751293D01*
X77355034Y74798949D01*
X77331207Y74822776D01*
X78077362Y75577398D02*
X78077362Y75863330D01*
X78077362Y75720364D02*
X77576982Y75720364D01*
X77648465Y75768019D01*
X77696120Y75815674D01*
X77719948Y75863330D01*
X77576982Y75267639D02*
X77576982Y75219984D01*
X77600810Y75172329D01*
X77624637Y75148501D01*
X77672292Y75124673D01*
X77767603Y75100846D01*
X77886741Y75100846D01*
X77982051Y75124673D01*
X78029707Y75148501D01*
X78053534Y75172329D01*
X78077362Y75219984D01*
X78077362Y75267639D01*
X78053534Y75315294D01*
X78029707Y75339122D01*
X77982051Y75362950D01*
X77886741Y75386777D01*
X77767603Y75386777D01*
X77672292Y75362950D01*
X77624637Y75339122D01*
X77600810Y75315294D01*
X77576982Y75267639D01*
X77576982Y74791087D02*
X77576982Y74743431D01*
X77600810Y74695776D01*
X77624637Y74671949D01*
X77672292Y74648121D01*
X77767603Y74624293D01*
X77886741Y74624293D01*
X77982051Y74648121D01*
X78029707Y74671949D01*
X78053534Y74695776D01*
X78077362Y74743431D01*
X78077362Y74791087D01*
X78053534Y74838742D01*
X78029707Y74862570D01*
X77982051Y74886397D01*
X77886741Y74910225D01*
X77767603Y74910225D01*
X77672292Y74886397D01*
X77624637Y74862570D01*
X77600810Y74838742D01*
X77576982Y74791087D01*
X77743775Y74409845D02*
X78077362Y74409845D01*
X77791430Y74409845D02*
X77767603Y74386017D01*
X77743775Y74338362D01*
X77743775Y74266879D01*
X77767603Y74219224D01*
X77815258Y74195396D01*
X78077362Y74195396D01*
X77815258Y73790327D02*
X77815258Y73957120D01*
X78077362Y73957120D02*
X77576982Y73957120D01*
X77576982Y73718844D01*
%TO.C,C16*%
X70981207Y84141673D02*
X71005034Y84165501D01*
X71028862Y84236984D01*
X71028862Y84284639D01*
X71005034Y84356122D01*
X70957379Y84403777D01*
X70909724Y84427605D01*
X70814413Y84451432D01*
X70742930Y84451432D01*
X70647620Y84427605D01*
X70599965Y84403777D01*
X70552310Y84356122D01*
X70528482Y84284639D01*
X70528482Y84236984D01*
X70552310Y84165501D01*
X70576137Y84141673D01*
X71028862Y83665121D02*
X71028862Y83951052D01*
X71028862Y83808087D02*
X70528482Y83808087D01*
X70599965Y83855742D01*
X70647620Y83903397D01*
X70671448Y83951052D01*
X70528482Y83236224D02*
X70528482Y83331534D01*
X70552310Y83379190D01*
X70576137Y83403017D01*
X70647620Y83450672D01*
X70742930Y83474500D01*
X70933551Y83474500D01*
X70981207Y83450672D01*
X71005034Y83426845D01*
X71028862Y83379190D01*
X71028862Y83283879D01*
X71005034Y83236224D01*
X70981207Y83212396D01*
X70933551Y83188569D01*
X70814413Y83188569D01*
X70766758Y83212396D01*
X70742930Y83236224D01*
X70719103Y83283879D01*
X70719103Y83379190D01*
X70742930Y83426845D01*
X70766758Y83450672D01*
X70814413Y83474500D01*
X71393775Y84062329D02*
X71727362Y84062329D01*
X71203154Y84181467D02*
X71560569Y84300605D01*
X71560569Y83990846D01*
X71393775Y83585776D02*
X71727362Y83585776D01*
X71393775Y83800225D02*
X71655879Y83800225D01*
X71703534Y83776397D01*
X71727362Y83728742D01*
X71727362Y83657259D01*
X71703534Y83609604D01*
X71679707Y83585776D01*
X71226982Y83395155D02*
X71226982Y83061569D01*
X71727362Y83276017D01*
%TO.C,C17*%
X42406207Y82871673D02*
X42430034Y82895501D01*
X42453862Y82966984D01*
X42453862Y83014639D01*
X42430034Y83086122D01*
X42382379Y83133777D01*
X42334724Y83157605D01*
X42239413Y83181432D01*
X42167930Y83181432D01*
X42072620Y83157605D01*
X42024965Y83133777D01*
X41977310Y83086122D01*
X41953482Y83014639D01*
X41953482Y82966984D01*
X41977310Y82895501D01*
X42001137Y82871673D01*
X42453862Y82395121D02*
X42453862Y82681052D01*
X42453862Y82538087D02*
X41953482Y82538087D01*
X42024965Y82585742D01*
X42072620Y82633397D01*
X42096448Y82681052D01*
X41953482Y82228328D02*
X41953482Y81894741D01*
X42453862Y82109190D01*
X43152362Y83197398D02*
X43152362Y83483330D01*
X43152362Y83340364D02*
X42651982Y83340364D01*
X42723465Y83388019D01*
X42771120Y83435674D01*
X42794948Y83483330D01*
X42651982Y82887639D02*
X42651982Y82839984D01*
X42675810Y82792329D01*
X42699637Y82768501D01*
X42747292Y82744673D01*
X42842603Y82720846D01*
X42961741Y82720846D01*
X43057051Y82744673D01*
X43104707Y82768501D01*
X43128534Y82792329D01*
X43152362Y82839984D01*
X43152362Y82887639D01*
X43128534Y82935294D01*
X43104707Y82959122D01*
X43057051Y82982950D01*
X42961741Y83006777D01*
X42842603Y83006777D01*
X42747292Y82982950D01*
X42699637Y82959122D01*
X42675810Y82935294D01*
X42651982Y82887639D01*
X42651982Y82411087D02*
X42651982Y82363431D01*
X42675810Y82315776D01*
X42699637Y82291949D01*
X42747292Y82268121D01*
X42842603Y82244293D01*
X42961741Y82244293D01*
X43057051Y82268121D01*
X43104707Y82291949D01*
X43128534Y82315776D01*
X43152362Y82363431D01*
X43152362Y82411087D01*
X43128534Y82458742D01*
X43104707Y82482570D01*
X43057051Y82506397D01*
X42961741Y82530225D01*
X42842603Y82530225D01*
X42747292Y82506397D01*
X42699637Y82482570D01*
X42675810Y82458742D01*
X42651982Y82411087D01*
X42818775Y82029845D02*
X43152362Y82029845D01*
X42866430Y82029845D02*
X42842603Y82006017D01*
X42818775Y81958362D01*
X42818775Y81886879D01*
X42842603Y81839224D01*
X42890258Y81815396D01*
X43152362Y81815396D01*
X42890258Y81410327D02*
X42890258Y81577120D01*
X43152362Y81577120D02*
X42651982Y81577120D01*
X42651982Y81338844D01*
%TO.C,R8*%
X68488862Y80093397D02*
X68250586Y80260190D01*
X68488862Y80379329D02*
X67988482Y80379329D01*
X67988482Y80188708D01*
X68012310Y80141052D01*
X68036137Y80117225D01*
X68083792Y80093397D01*
X68155275Y80093397D01*
X68202930Y80117225D01*
X68226758Y80141052D01*
X68250586Y80188708D01*
X68250586Y80379329D01*
X68202930Y79807466D02*
X68179103Y79855121D01*
X68155275Y79878949D01*
X68107620Y79902776D01*
X68083792Y79902776D01*
X68036137Y79878949D01*
X68012310Y79855121D01*
X67988482Y79807466D01*
X67988482Y79712155D01*
X68012310Y79664500D01*
X68036137Y79640672D01*
X68083792Y79616845D01*
X68107620Y79616845D01*
X68155275Y79640672D01*
X68179103Y79664500D01*
X68202930Y79712155D01*
X68202930Y79807466D01*
X68226758Y79855121D01*
X68250586Y79878949D01*
X68298241Y79902776D01*
X68393551Y79902776D01*
X68441207Y79878949D01*
X68465034Y79855121D01*
X68488862Y79807466D01*
X68488862Y79712155D01*
X68465034Y79664500D01*
X68441207Y79640672D01*
X68393551Y79616845D01*
X68298241Y79616845D01*
X68250586Y79640672D01*
X68226758Y79664500D01*
X68202930Y79712155D01*
X68996741Y80073621D02*
X68996741Y79692380D01*
%TO.C,R9*%
X68488862Y83903397D02*
X68250586Y84070190D01*
X68488862Y84189329D02*
X67988482Y84189329D01*
X67988482Y83998708D01*
X68012310Y83951052D01*
X68036137Y83927225D01*
X68083792Y83903397D01*
X68155275Y83903397D01*
X68202930Y83927225D01*
X68226758Y83951052D01*
X68250586Y83998708D01*
X68250586Y84189329D01*
X68488862Y83665121D02*
X68488862Y83569810D01*
X68465034Y83522155D01*
X68441207Y83498328D01*
X68369724Y83450672D01*
X68274413Y83426845D01*
X68083792Y83426845D01*
X68036137Y83450672D01*
X68012310Y83474500D01*
X67988482Y83522155D01*
X67988482Y83617466D01*
X68012310Y83665121D01*
X68036137Y83688949D01*
X68083792Y83712776D01*
X68202930Y83712776D01*
X68250586Y83688949D01*
X68274413Y83665121D01*
X68298241Y83617466D01*
X68298241Y83522155D01*
X68274413Y83474500D01*
X68250586Y83450672D01*
X68202930Y83426845D01*
X69187362Y83990846D02*
X69187362Y84276777D01*
X69187362Y84133811D02*
X68686982Y84133811D01*
X68758465Y84181467D01*
X68806120Y84229122D01*
X68829948Y84276777D01*
X68686982Y83681087D02*
X68686982Y83633431D01*
X68710810Y83585776D01*
X68734637Y83561949D01*
X68782292Y83538121D01*
X68877603Y83514293D01*
X68996741Y83514293D01*
X69092051Y83538121D01*
X69139707Y83561949D01*
X69163534Y83585776D01*
X69187362Y83633431D01*
X69187362Y83681087D01*
X69163534Y83728742D01*
X69139707Y83752570D01*
X69092051Y83776397D01*
X68996741Y83800225D01*
X68877603Y83800225D01*
X68782292Y83776397D01*
X68734637Y83752570D01*
X68710810Y83728742D01*
X68686982Y83681087D01*
X69187362Y83299845D02*
X68686982Y83299845D01*
X68996741Y83252190D02*
X69187362Y83109224D01*
X68853775Y83109224D02*
X69044396Y83299845D01*
D11*
%TO.C,U4*%
X63626904Y48162620D02*
X63626904Y47353096D01*
X63579285Y47257858D01*
X63531666Y47210239D01*
X63436428Y47162620D01*
X63245952Y47162620D01*
X63150714Y47210239D01*
X63103095Y47257858D01*
X63055476Y47353096D01*
X63055476Y48162620D01*
X62150714Y47829286D02*
X62150714Y47162620D01*
X62388809Y48210239D02*
X62626904Y47495953D01*
X62007857Y47495953D01*
D10*
%TO.C,C1*%
X29706207Y78188397D02*
X29730034Y78212225D01*
X29753862Y78283708D01*
X29753862Y78331363D01*
X29730034Y78402846D01*
X29682379Y78450501D01*
X29634724Y78474329D01*
X29539413Y78498156D01*
X29467930Y78498156D01*
X29372620Y78474329D01*
X29324965Y78450501D01*
X29277310Y78402846D01*
X29253482Y78331363D01*
X29253482Y78283708D01*
X29277310Y78212225D01*
X29301137Y78188397D01*
X29753862Y77711845D02*
X29753862Y77997776D01*
X29753862Y77854810D02*
X29253482Y77854810D01*
X29324965Y77902466D01*
X29372620Y77950121D01*
X29396448Y77997776D01*
X29055362Y79006398D02*
X29055362Y79292330D01*
X29055362Y79149364D02*
X28554982Y79149364D01*
X28626465Y79197019D01*
X28674120Y79244674D01*
X28697948Y79292330D01*
X28554982Y78696639D02*
X28554982Y78648984D01*
X28578810Y78601329D01*
X28602637Y78577501D01*
X28650292Y78553673D01*
X28745603Y78529846D01*
X28864741Y78529846D01*
X28960051Y78553673D01*
X29007707Y78577501D01*
X29031534Y78601329D01*
X29055362Y78648984D01*
X29055362Y78696639D01*
X29031534Y78744294D01*
X29007707Y78768122D01*
X28960051Y78791950D01*
X28864741Y78815777D01*
X28745603Y78815777D01*
X28650292Y78791950D01*
X28602637Y78768122D01*
X28578810Y78744294D01*
X28554982Y78696639D01*
X28554982Y78220087D02*
X28554982Y78172431D01*
X28578810Y78124776D01*
X28602637Y78100949D01*
X28650292Y78077121D01*
X28745603Y78053293D01*
X28864741Y78053293D01*
X28960051Y78077121D01*
X29007707Y78100949D01*
X29031534Y78124776D01*
X29055362Y78172431D01*
X29055362Y78220087D01*
X29031534Y78267742D01*
X29007707Y78291570D01*
X28960051Y78315397D01*
X28864741Y78339225D01*
X28745603Y78339225D01*
X28650292Y78315397D01*
X28602637Y78291570D01*
X28578810Y78267742D01*
X28554982Y78220087D01*
X28721775Y77838845D02*
X29055362Y77838845D01*
X28769430Y77838845D02*
X28745603Y77815017D01*
X28721775Y77767362D01*
X28721775Y77695879D01*
X28745603Y77648224D01*
X28793258Y77624396D01*
X29055362Y77624396D01*
X28793258Y77219327D02*
X28793258Y77386120D01*
X29055362Y77386120D02*
X28554982Y77386120D01*
X28554982Y77147844D01*
%TO.C,C2*%
X32246207Y78188397D02*
X32270034Y78212225D01*
X32293862Y78283708D01*
X32293862Y78331363D01*
X32270034Y78402846D01*
X32222379Y78450501D01*
X32174724Y78474329D01*
X32079413Y78498156D01*
X32007930Y78498156D01*
X31912620Y78474329D01*
X31864965Y78450501D01*
X31817310Y78402846D01*
X31793482Y78331363D01*
X31793482Y78283708D01*
X31817310Y78212225D01*
X31841137Y78188397D01*
X31841137Y77997776D02*
X31817310Y77973949D01*
X31793482Y77926293D01*
X31793482Y77807155D01*
X31817310Y77759500D01*
X31841137Y77735672D01*
X31888792Y77711845D01*
X31936448Y77711845D01*
X32007930Y77735672D01*
X32293862Y78021604D01*
X32293862Y77711845D01*
X31595362Y79006398D02*
X31595362Y79292330D01*
X31595362Y79149364D02*
X31094982Y79149364D01*
X31166465Y79197019D01*
X31214120Y79244674D01*
X31237948Y79292330D01*
X31094982Y78696639D02*
X31094982Y78648984D01*
X31118810Y78601329D01*
X31142637Y78577501D01*
X31190292Y78553673D01*
X31285603Y78529846D01*
X31404741Y78529846D01*
X31500051Y78553673D01*
X31547707Y78577501D01*
X31571534Y78601329D01*
X31595362Y78648984D01*
X31595362Y78696639D01*
X31571534Y78744294D01*
X31547707Y78768122D01*
X31500051Y78791950D01*
X31404741Y78815777D01*
X31285603Y78815777D01*
X31190292Y78791950D01*
X31142637Y78768122D01*
X31118810Y78744294D01*
X31094982Y78696639D01*
X31094982Y78220087D02*
X31094982Y78172431D01*
X31118810Y78124776D01*
X31142637Y78100949D01*
X31190292Y78077121D01*
X31285603Y78053293D01*
X31404741Y78053293D01*
X31500051Y78077121D01*
X31547707Y78100949D01*
X31571534Y78124776D01*
X31595362Y78172431D01*
X31595362Y78220087D01*
X31571534Y78267742D01*
X31547707Y78291570D01*
X31500051Y78315397D01*
X31404741Y78339225D01*
X31285603Y78339225D01*
X31190292Y78315397D01*
X31142637Y78291570D01*
X31118810Y78267742D01*
X31094982Y78220087D01*
X31261775Y77838845D02*
X31595362Y77838845D01*
X31309430Y77838845D02*
X31285603Y77815017D01*
X31261775Y77767362D01*
X31261775Y77695879D01*
X31285603Y77648224D01*
X31333258Y77624396D01*
X31595362Y77624396D01*
X31333258Y77219327D02*
X31333258Y77386120D01*
X31595362Y77386120D02*
X31094982Y77386120D01*
X31094982Y77147844D01*
%TO.C,C3*%
X34786207Y78188397D02*
X34810034Y78212225D01*
X34833862Y78283708D01*
X34833862Y78331363D01*
X34810034Y78402846D01*
X34762379Y78450501D01*
X34714724Y78474329D01*
X34619413Y78498156D01*
X34547930Y78498156D01*
X34452620Y78474329D01*
X34404965Y78450501D01*
X34357310Y78402846D01*
X34333482Y78331363D01*
X34333482Y78283708D01*
X34357310Y78212225D01*
X34381137Y78188397D01*
X34333482Y78021604D02*
X34333482Y77711845D01*
X34524103Y77878638D01*
X34524103Y77807155D01*
X34547930Y77759500D01*
X34571758Y77735672D01*
X34619413Y77711845D01*
X34738551Y77711845D01*
X34786207Y77735672D01*
X34810034Y77759500D01*
X34833862Y77807155D01*
X34833862Y77950121D01*
X34810034Y77997776D01*
X34786207Y78021604D01*
X34135362Y79006398D02*
X34135362Y79292330D01*
X34135362Y79149364D02*
X33634982Y79149364D01*
X33706465Y79197019D01*
X33754120Y79244674D01*
X33777948Y79292330D01*
X33634982Y78696639D02*
X33634982Y78648984D01*
X33658810Y78601329D01*
X33682637Y78577501D01*
X33730292Y78553673D01*
X33825603Y78529846D01*
X33944741Y78529846D01*
X34040051Y78553673D01*
X34087707Y78577501D01*
X34111534Y78601329D01*
X34135362Y78648984D01*
X34135362Y78696639D01*
X34111534Y78744294D01*
X34087707Y78768122D01*
X34040051Y78791950D01*
X33944741Y78815777D01*
X33825603Y78815777D01*
X33730292Y78791950D01*
X33682637Y78768122D01*
X33658810Y78744294D01*
X33634982Y78696639D01*
X33634982Y78220087D02*
X33634982Y78172431D01*
X33658810Y78124776D01*
X33682637Y78100949D01*
X33730292Y78077121D01*
X33825603Y78053293D01*
X33944741Y78053293D01*
X34040051Y78077121D01*
X34087707Y78100949D01*
X34111534Y78124776D01*
X34135362Y78172431D01*
X34135362Y78220087D01*
X34111534Y78267742D01*
X34087707Y78291570D01*
X34040051Y78315397D01*
X33944741Y78339225D01*
X33825603Y78339225D01*
X33730292Y78315397D01*
X33682637Y78291570D01*
X33658810Y78267742D01*
X33634982Y78220087D01*
X33801775Y77838845D02*
X34135362Y77838845D01*
X33849430Y77838845D02*
X33825603Y77815017D01*
X33801775Y77767362D01*
X33801775Y77695879D01*
X33825603Y77648224D01*
X33873258Y77624396D01*
X34135362Y77624396D01*
X33873258Y77219327D02*
X33873258Y77386120D01*
X34135362Y77386120D02*
X33634982Y77386120D01*
X33634982Y77147844D01*
%TO.C,C4*%
X36913396Y87768793D02*
X36937224Y87744966D01*
X37008707Y87721138D01*
X37056362Y87721138D01*
X37127845Y87744966D01*
X37175500Y87792621D01*
X37199328Y87840276D01*
X37223155Y87935587D01*
X37223155Y88007070D01*
X37199328Y88102380D01*
X37175500Y88150035D01*
X37127845Y88197690D01*
X37056362Y88221518D01*
X37008707Y88221518D01*
X36937224Y88197690D01*
X36913396Y88173863D01*
X36484499Y88054725D02*
X36484499Y87721138D01*
X36603637Y88245346D02*
X36722775Y87887931D01*
X36413016Y87887931D01*
X37731397Y88419638D02*
X38017329Y88419638D01*
X37874363Y88419638D02*
X37874363Y88920018D01*
X37922018Y88848535D01*
X37969673Y88800880D01*
X38017329Y88777052D01*
X37421638Y88920018D02*
X37373983Y88920018D01*
X37326328Y88896190D01*
X37302500Y88872363D01*
X37278672Y88824708D01*
X37254845Y88729397D01*
X37254845Y88610259D01*
X37278672Y88514949D01*
X37302500Y88467293D01*
X37326328Y88443466D01*
X37373983Y88419638D01*
X37421638Y88419638D01*
X37469293Y88443466D01*
X37493121Y88467293D01*
X37516949Y88514949D01*
X37540776Y88610259D01*
X37540776Y88729397D01*
X37516949Y88824708D01*
X37493121Y88872363D01*
X37469293Y88896190D01*
X37421638Y88920018D01*
X36945086Y88920018D02*
X36897430Y88920018D01*
X36849775Y88896190D01*
X36825948Y88872363D01*
X36802120Y88824708D01*
X36778292Y88729397D01*
X36778292Y88610259D01*
X36802120Y88514949D01*
X36825948Y88467293D01*
X36849775Y88443466D01*
X36897430Y88419638D01*
X36945086Y88419638D01*
X36992741Y88443466D01*
X37016569Y88467293D01*
X37040396Y88514949D01*
X37064224Y88610259D01*
X37064224Y88729397D01*
X37040396Y88824708D01*
X37016569Y88872363D01*
X36992741Y88896190D01*
X36945086Y88920018D01*
X36563844Y88753225D02*
X36563844Y88419638D01*
X36563844Y88705570D02*
X36540016Y88729397D01*
X36492361Y88753225D01*
X36420878Y88753225D01*
X36373223Y88729397D01*
X36349395Y88681742D01*
X36349395Y88419638D01*
X35944326Y88681742D02*
X36111119Y88681742D01*
X36111119Y88419638D02*
X36111119Y88920018D01*
X35872843Y88920018D01*
%TO.C,C6*%
X43041207Y78823397D02*
X43065034Y78847225D01*
X43088862Y78918708D01*
X43088862Y78966363D01*
X43065034Y79037846D01*
X43017379Y79085501D01*
X42969724Y79109329D01*
X42874413Y79133156D01*
X42802930Y79133156D01*
X42707620Y79109329D01*
X42659965Y79085501D01*
X42612310Y79037846D01*
X42588482Y78966363D01*
X42588482Y78918708D01*
X42612310Y78847225D01*
X42636137Y78823397D01*
X42588482Y78394500D02*
X42588482Y78489810D01*
X42612310Y78537466D01*
X42636137Y78561293D01*
X42707620Y78608949D01*
X42802930Y78632776D01*
X42993551Y78632776D01*
X43041207Y78608949D01*
X43065034Y78585121D01*
X43088862Y78537466D01*
X43088862Y78442155D01*
X43065034Y78394500D01*
X43041207Y78370672D01*
X42993551Y78346845D01*
X42874413Y78346845D01*
X42826758Y78370672D01*
X42802930Y78394500D01*
X42779103Y78442155D01*
X42779103Y78537466D01*
X42802930Y78585121D01*
X42826758Y78608949D01*
X42874413Y78632776D01*
X42390362Y79641398D02*
X42390362Y79927330D01*
X42390362Y79784364D02*
X41889982Y79784364D01*
X41961465Y79832019D01*
X42009120Y79879674D01*
X42032948Y79927330D01*
X41889982Y79331639D02*
X41889982Y79283984D01*
X41913810Y79236329D01*
X41937637Y79212501D01*
X41985292Y79188673D01*
X42080603Y79164846D01*
X42199741Y79164846D01*
X42295051Y79188673D01*
X42342707Y79212501D01*
X42366534Y79236329D01*
X42390362Y79283984D01*
X42390362Y79331639D01*
X42366534Y79379294D01*
X42342707Y79403122D01*
X42295051Y79426950D01*
X42199741Y79450777D01*
X42080603Y79450777D01*
X41985292Y79426950D01*
X41937637Y79403122D01*
X41913810Y79379294D01*
X41889982Y79331639D01*
X41889982Y78855087D02*
X41889982Y78807431D01*
X41913810Y78759776D01*
X41937637Y78735949D01*
X41985292Y78712121D01*
X42080603Y78688293D01*
X42199741Y78688293D01*
X42295051Y78712121D01*
X42342707Y78735949D01*
X42366534Y78759776D01*
X42390362Y78807431D01*
X42390362Y78855087D01*
X42366534Y78902742D01*
X42342707Y78926570D01*
X42295051Y78950397D01*
X42199741Y78974225D01*
X42080603Y78974225D01*
X41985292Y78950397D01*
X41937637Y78926570D01*
X41913810Y78902742D01*
X41889982Y78855087D01*
X42056775Y78473845D02*
X42390362Y78473845D01*
X42104430Y78473845D02*
X42080603Y78450017D01*
X42056775Y78402362D01*
X42056775Y78330879D01*
X42080603Y78283224D01*
X42128258Y78259396D01*
X42390362Y78259396D01*
X42128258Y77854327D02*
X42128258Y78021120D01*
X42390362Y78021120D02*
X41889982Y78021120D01*
X41889982Y77782844D01*
D12*
%TO.C,C9*%
X53884285Y20574000D02*
X53956857Y20646572D01*
X54029428Y20864286D01*
X54029428Y21009429D01*
X53956857Y21227143D01*
X53811714Y21372286D01*
X53666571Y21444858D01*
X53376285Y21517429D01*
X53158571Y21517429D01*
X52868285Y21444858D01*
X52723142Y21372286D01*
X52578000Y21227143D01*
X52505428Y21009429D01*
X52505428Y20864286D01*
X52578000Y20646572D01*
X52650571Y20574000D01*
X54029428Y19848286D02*
X54029428Y19558000D01*
X53956857Y19412858D01*
X53884285Y19340286D01*
X53666571Y19195143D01*
X53376285Y19122572D01*
X52795714Y19122572D01*
X52650571Y19195143D01*
X52578000Y19267715D01*
X52505428Y19412858D01*
X52505428Y19703143D01*
X52578000Y19848286D01*
X52650571Y19920858D01*
X52795714Y19993429D01*
X53158571Y19993429D01*
X53303714Y19920858D01*
X53376285Y19848286D01*
X53448857Y19703143D01*
X53448857Y19412858D01*
X53376285Y19267715D01*
X53303714Y19195143D01*
X53158571Y19122572D01*
X55999017Y15901852D02*
X55999017Y14740709D01*
X56579588Y15321280D02*
X55418445Y15321280D01*
D11*
%TO.C,C10*%
X57507142Y19057858D02*
X57554761Y19105477D01*
X57602380Y19248334D01*
X57602380Y19343572D01*
X57554761Y19486429D01*
X57459523Y19581667D01*
X57364285Y19629286D01*
X57173809Y19676905D01*
X57030952Y19676905D01*
X56840476Y19629286D01*
X56745238Y19581667D01*
X56650000Y19486429D01*
X56602380Y19343572D01*
X56602380Y19248334D01*
X56650000Y19105477D01*
X56697619Y19057858D01*
X57602380Y18105477D02*
X57602380Y18676905D01*
X57602380Y18391191D02*
X56602380Y18391191D01*
X56745238Y18486429D01*
X56840476Y18581667D01*
X56888095Y18676905D01*
X56602380Y17486429D02*
X56602380Y17391191D01*
X56650000Y17295953D01*
X56697619Y17248334D01*
X56792857Y17200715D01*
X56983333Y17153096D01*
X57221428Y17153096D01*
X57411904Y17200715D01*
X57507142Y17248334D01*
X57554761Y17295953D01*
X57602380Y17391191D01*
X57602380Y17486429D01*
X57554761Y17581667D01*
X57507142Y17629286D01*
X57411904Y17676905D01*
X57221428Y17724524D01*
X56983333Y17724524D01*
X56792857Y17676905D01*
X56697619Y17629286D01*
X56650000Y17581667D01*
X56602380Y17486429D01*
D10*
%TO.C,C11*%
X36516672Y43318793D02*
X36540500Y43294966D01*
X36611983Y43271138D01*
X36659638Y43271138D01*
X36731121Y43294966D01*
X36778776Y43342621D01*
X36802604Y43390276D01*
X36826431Y43485587D01*
X36826431Y43557070D01*
X36802604Y43652380D01*
X36778776Y43700035D01*
X36731121Y43747690D01*
X36659638Y43771518D01*
X36611983Y43771518D01*
X36540500Y43747690D01*
X36516672Y43723863D01*
X36040120Y43271138D02*
X36326051Y43271138D01*
X36183086Y43271138D02*
X36183086Y43771518D01*
X36230741Y43700035D01*
X36278396Y43652380D01*
X36326051Y43628552D01*
X35563568Y43271138D02*
X35849499Y43271138D01*
X35706533Y43271138D02*
X35706533Y43771518D01*
X35754189Y43700035D01*
X35801844Y43652380D01*
X35849499Y43628552D01*
X36604121Y42572638D02*
X36890052Y42572638D01*
X36747087Y42572638D02*
X36747087Y43073018D01*
X36794742Y43001535D01*
X36842397Y42953880D01*
X36890052Y42930052D01*
X36294362Y43073018D02*
X36246707Y43073018D01*
X36199051Y43049190D01*
X36175224Y43025363D01*
X36151396Y42977708D01*
X36127569Y42882397D01*
X36127569Y42763259D01*
X36151396Y42667949D01*
X36175224Y42620293D01*
X36199051Y42596466D01*
X36246707Y42572638D01*
X36294362Y42572638D01*
X36342017Y42596466D01*
X36365845Y42620293D01*
X36389672Y42667949D01*
X36413500Y42763259D01*
X36413500Y42882397D01*
X36389672Y42977708D01*
X36365845Y43025363D01*
X36342017Y43049190D01*
X36294362Y43073018D01*
X35698671Y42906225D02*
X35698671Y42572638D01*
X35913120Y42906225D02*
X35913120Y42644121D01*
X35889292Y42596466D01*
X35841637Y42572638D01*
X35770154Y42572638D01*
X35722499Y42596466D01*
X35698671Y42620293D01*
X35293602Y42834742D02*
X35460395Y42834742D01*
X35460395Y42572638D02*
X35460395Y43073018D01*
X35222119Y43073018D01*
%TO.C,C12*%
X66361672Y37603793D02*
X66385500Y37579966D01*
X66456983Y37556138D01*
X66504638Y37556138D01*
X66576121Y37579966D01*
X66623776Y37627621D01*
X66647604Y37675276D01*
X66671431Y37770587D01*
X66671431Y37842070D01*
X66647604Y37937380D01*
X66623776Y37985035D01*
X66576121Y38032690D01*
X66504638Y38056518D01*
X66456983Y38056518D01*
X66385500Y38032690D01*
X66361672Y38008863D01*
X65885120Y37556138D02*
X66171051Y37556138D01*
X66028086Y37556138D02*
X66028086Y38056518D01*
X66075741Y37985035D01*
X66123396Y37937380D01*
X66171051Y37913552D01*
X65694499Y38008863D02*
X65670671Y38032690D01*
X65623016Y38056518D01*
X65503878Y38056518D01*
X65456223Y38032690D01*
X65432395Y38008863D01*
X65408568Y37961208D01*
X65408568Y37913552D01*
X65432395Y37842070D01*
X65718327Y37556138D01*
X65408568Y37556138D01*
X66210845Y36857638D02*
X66496776Y36857638D01*
X66353810Y36857638D02*
X66353810Y37358018D01*
X66401466Y37286535D01*
X66449121Y37238880D01*
X66496776Y37215052D01*
X65996396Y37191225D02*
X65996396Y36857638D01*
X65996396Y37143570D02*
X65972569Y37167397D01*
X65924913Y37191225D01*
X65853430Y37191225D01*
X65805775Y37167397D01*
X65781948Y37119742D01*
X65781948Y36857638D01*
X65376878Y37119742D02*
X65543671Y37119742D01*
X65543671Y36857638D02*
X65543671Y37358018D01*
X65305395Y37358018D01*
%TO.C,C13*%
X60011672Y22363793D02*
X60035500Y22339966D01*
X60106983Y22316138D01*
X60154638Y22316138D01*
X60226121Y22339966D01*
X60273776Y22387621D01*
X60297604Y22435276D01*
X60321431Y22530587D01*
X60321431Y22602070D01*
X60297604Y22697380D01*
X60273776Y22745035D01*
X60226121Y22792690D01*
X60154638Y22816518D01*
X60106983Y22816518D01*
X60035500Y22792690D01*
X60011672Y22768863D01*
X59535120Y22316138D02*
X59821051Y22316138D01*
X59678086Y22316138D02*
X59678086Y22816518D01*
X59725741Y22745035D01*
X59773396Y22697380D01*
X59821051Y22673552D01*
X59368327Y22816518D02*
X59058568Y22816518D01*
X59225361Y22625897D01*
X59153878Y22625897D01*
X59106223Y22602070D01*
X59082395Y22578242D01*
X59058568Y22530587D01*
X59058568Y22411449D01*
X59082395Y22363793D01*
X59106223Y22339966D01*
X59153878Y22316138D01*
X59296844Y22316138D01*
X59344499Y22339966D01*
X59368327Y22363793D01*
X60591397Y23014638D02*
X60877329Y23014638D01*
X60734363Y23014638D02*
X60734363Y23515018D01*
X60782018Y23443535D01*
X60829673Y23395880D01*
X60877329Y23372052D01*
X60281638Y23515018D02*
X60233983Y23515018D01*
X60186328Y23491190D01*
X60162500Y23467363D01*
X60138672Y23419708D01*
X60114845Y23324397D01*
X60114845Y23205259D01*
X60138672Y23109949D01*
X60162500Y23062293D01*
X60186328Y23038466D01*
X60233983Y23014638D01*
X60281638Y23014638D01*
X60329293Y23038466D01*
X60353121Y23062293D01*
X60376949Y23109949D01*
X60400776Y23205259D01*
X60400776Y23324397D01*
X60376949Y23419708D01*
X60353121Y23467363D01*
X60329293Y23491190D01*
X60281638Y23515018D01*
X59805086Y23515018D02*
X59757430Y23515018D01*
X59709775Y23491190D01*
X59685948Y23467363D01*
X59662120Y23419708D01*
X59638292Y23324397D01*
X59638292Y23205259D01*
X59662120Y23109949D01*
X59685948Y23062293D01*
X59709775Y23038466D01*
X59757430Y23014638D01*
X59805086Y23014638D01*
X59852741Y23038466D01*
X59876569Y23062293D01*
X59900396Y23109949D01*
X59924224Y23205259D01*
X59924224Y23324397D01*
X59900396Y23419708D01*
X59876569Y23467363D01*
X59852741Y23491190D01*
X59805086Y23515018D01*
X59423844Y23348225D02*
X59423844Y23014638D01*
X59423844Y23300570D02*
X59400016Y23324397D01*
X59352361Y23348225D01*
X59280878Y23348225D01*
X59233223Y23324397D01*
X59209395Y23276742D01*
X59209395Y23014638D01*
X58804326Y23276742D02*
X58971119Y23276742D01*
X58971119Y23014638D02*
X58971119Y23515018D01*
X58732843Y23515018D01*
%TO.C,C14*%
X39866207Y82871673D02*
X39890034Y82895501D01*
X39913862Y82966984D01*
X39913862Y83014639D01*
X39890034Y83086122D01*
X39842379Y83133777D01*
X39794724Y83157605D01*
X39699413Y83181432D01*
X39627930Y83181432D01*
X39532620Y83157605D01*
X39484965Y83133777D01*
X39437310Y83086122D01*
X39413482Y83014639D01*
X39413482Y82966984D01*
X39437310Y82895501D01*
X39461137Y82871673D01*
X39913862Y82395121D02*
X39913862Y82681052D01*
X39913862Y82538087D02*
X39413482Y82538087D01*
X39484965Y82585742D01*
X39532620Y82633397D01*
X39556448Y82681052D01*
X39580275Y81966224D02*
X39913862Y81966224D01*
X39389654Y82085362D02*
X39747069Y82204500D01*
X39747069Y81894741D01*
X40612362Y82959122D02*
X40612362Y83245053D01*
X40612362Y83102088D02*
X40111982Y83102088D01*
X40183465Y83149743D01*
X40231120Y83197398D01*
X40254948Y83245053D01*
X40111982Y82649363D02*
X40111982Y82601708D01*
X40135810Y82554052D01*
X40159637Y82530225D01*
X40207292Y82506397D01*
X40302603Y82482570D01*
X40421741Y82482570D01*
X40517051Y82506397D01*
X40564707Y82530225D01*
X40588534Y82554052D01*
X40612362Y82601708D01*
X40612362Y82649363D01*
X40588534Y82697018D01*
X40564707Y82720846D01*
X40517051Y82744673D01*
X40421741Y82768501D01*
X40302603Y82768501D01*
X40207292Y82744673D01*
X40159637Y82720846D01*
X40135810Y82697018D01*
X40111982Y82649363D01*
X40278775Y82053672D02*
X40612362Y82053672D01*
X40278775Y82268121D02*
X40540879Y82268121D01*
X40588534Y82244293D01*
X40612362Y82196638D01*
X40612362Y82125155D01*
X40588534Y82077500D01*
X40564707Y82053672D01*
X40350258Y81648603D02*
X40350258Y81815396D01*
X40612362Y81815396D02*
X40111982Y81815396D01*
X40111982Y81577120D01*
%TO.C,C15*%
X36516672Y40778793D02*
X36540500Y40754966D01*
X36611983Y40731138D01*
X36659638Y40731138D01*
X36731121Y40754966D01*
X36778776Y40802621D01*
X36802604Y40850276D01*
X36826431Y40945587D01*
X36826431Y41017070D01*
X36802604Y41112380D01*
X36778776Y41160035D01*
X36731121Y41207690D01*
X36659638Y41231518D01*
X36611983Y41231518D01*
X36540500Y41207690D01*
X36516672Y41183863D01*
X36040120Y40731138D02*
X36326051Y40731138D01*
X36183086Y40731138D02*
X36183086Y41231518D01*
X36230741Y41160035D01*
X36278396Y41112380D01*
X36326051Y41088552D01*
X35587395Y41231518D02*
X35825671Y41231518D01*
X35849499Y40993242D01*
X35825671Y41017070D01*
X35778016Y41040897D01*
X35658878Y41040897D01*
X35611223Y41017070D01*
X35587395Y40993242D01*
X35563568Y40945587D01*
X35563568Y40826449D01*
X35587395Y40778793D01*
X35611223Y40754966D01*
X35658878Y40731138D01*
X35778016Y40731138D01*
X35825671Y40754966D01*
X35849499Y40778793D01*
X36842397Y40032638D02*
X37128329Y40032638D01*
X36985363Y40032638D02*
X36985363Y40533018D01*
X37033018Y40461535D01*
X37080673Y40413880D01*
X37128329Y40390052D01*
X36532638Y40533018D02*
X36484983Y40533018D01*
X36437328Y40509190D01*
X36413500Y40485363D01*
X36389672Y40437708D01*
X36365845Y40342397D01*
X36365845Y40223259D01*
X36389672Y40127949D01*
X36413500Y40080293D01*
X36437328Y40056466D01*
X36484983Y40032638D01*
X36532638Y40032638D01*
X36580293Y40056466D01*
X36604121Y40080293D01*
X36627949Y40127949D01*
X36651776Y40223259D01*
X36651776Y40342397D01*
X36627949Y40437708D01*
X36604121Y40485363D01*
X36580293Y40509190D01*
X36532638Y40533018D01*
X36056086Y40533018D02*
X36008430Y40533018D01*
X35960775Y40509190D01*
X35936948Y40485363D01*
X35913120Y40437708D01*
X35889292Y40342397D01*
X35889292Y40223259D01*
X35913120Y40127949D01*
X35936948Y40080293D01*
X35960775Y40056466D01*
X36008430Y40032638D01*
X36056086Y40032638D01*
X36103741Y40056466D01*
X36127569Y40080293D01*
X36151396Y40127949D01*
X36175224Y40223259D01*
X36175224Y40342397D01*
X36151396Y40437708D01*
X36127569Y40485363D01*
X36103741Y40509190D01*
X36056086Y40533018D01*
X35674844Y40366225D02*
X35674844Y40032638D01*
X35674844Y40318570D02*
X35651016Y40342397D01*
X35603361Y40366225D01*
X35531878Y40366225D01*
X35484223Y40342397D01*
X35460395Y40294742D01*
X35460395Y40032638D01*
X35055326Y40294742D02*
X35222119Y40294742D01*
X35222119Y40032638D02*
X35222119Y40533018D01*
X34983843Y40533018D01*
D12*
%TO.C,D2*%
X62284428Y19539858D02*
X60760428Y19539858D01*
X60760428Y19177000D01*
X60833000Y18959286D01*
X60978142Y18814143D01*
X61123285Y18741572D01*
X61413571Y18669000D01*
X61631285Y18669000D01*
X61921571Y18741572D01*
X62066714Y18814143D01*
X62211857Y18959286D01*
X62284428Y19177000D01*
X62284428Y19539858D01*
X60905571Y18088429D02*
X60833000Y18015858D01*
X60760428Y17870715D01*
X60760428Y17507858D01*
X60833000Y17362715D01*
X60905571Y17290143D01*
X61050714Y17217572D01*
X61195857Y17217572D01*
X61413571Y17290143D01*
X62284428Y18161000D01*
X62284428Y17217572D01*
D13*
X63520622Y15546312D02*
X63020242Y15546312D01*
X63520622Y15260381D02*
X63234690Y15474830D01*
X63020242Y15260381D02*
X63306173Y15546312D01*
X63278596Y21833599D02*
X63278596Y21595322D01*
X63421562Y21881254D02*
X62921182Y21714460D01*
X63421562Y21547667D01*
D12*
%TO.C,F1*%
X67863000Y16618858D02*
X68371000Y16618858D01*
X68371000Y15820572D02*
X68371000Y17344572D01*
X67645285Y17344572D01*
X66266428Y15820572D02*
X67137285Y15820572D01*
X66701857Y15820572D02*
X66701857Y17344572D01*
X66847000Y17126858D01*
X66992142Y16981715D01*
X67137285Y16909143D01*
D11*
%TO.C,J7*%
X36528333Y32297620D02*
X36528333Y31583334D01*
X36575952Y31440477D01*
X36671190Y31345239D01*
X36814047Y31297620D01*
X36909285Y31297620D01*
X36147380Y32297620D02*
X35480714Y32297620D01*
X35909285Y31297620D01*
D10*
%TO.C,R2*%
X32928862Y41358397D02*
X32690586Y41525190D01*
X32928862Y41644329D02*
X32428482Y41644329D01*
X32428482Y41453708D01*
X32452310Y41406052D01*
X32476137Y41382225D01*
X32523792Y41358397D01*
X32595275Y41358397D01*
X32642930Y41382225D01*
X32666758Y41406052D01*
X32690586Y41453708D01*
X32690586Y41644329D01*
X32476137Y41167776D02*
X32452310Y41143949D01*
X32428482Y41096293D01*
X32428482Y40977155D01*
X32452310Y40929500D01*
X32476137Y40905672D01*
X32523792Y40881845D01*
X32571448Y40881845D01*
X32642930Y40905672D01*
X32928862Y41191604D01*
X32928862Y40881845D01*
X32230362Y41735587D02*
X32230362Y42021519D01*
X32230362Y41878553D02*
X31729982Y41878553D01*
X31801465Y41926208D01*
X31849120Y41973863D01*
X31872948Y42021519D01*
X31729982Y41425828D02*
X31729982Y41378173D01*
X31753810Y41330518D01*
X31777637Y41306690D01*
X31825292Y41282862D01*
X31920603Y41259035D01*
X32039741Y41259035D01*
X32135051Y41282862D01*
X32182707Y41306690D01*
X32206534Y41330518D01*
X32230362Y41378173D01*
X32230362Y41425828D01*
X32206534Y41473483D01*
X32182707Y41497311D01*
X32135051Y41521139D01*
X32039741Y41544966D01*
X31920603Y41544966D01*
X31825292Y41521139D01*
X31777637Y41497311D01*
X31753810Y41473483D01*
X31729982Y41425828D01*
X31729982Y40949276D02*
X31729982Y40901620D01*
X31753810Y40853965D01*
X31777637Y40830138D01*
X31825292Y40806310D01*
X31920603Y40782482D01*
X32039741Y40782482D01*
X32135051Y40806310D01*
X32182707Y40830138D01*
X32206534Y40853965D01*
X32230362Y40901620D01*
X32230362Y40949276D01*
X32206534Y40996931D01*
X32182707Y41020759D01*
X32135051Y41044586D01*
X32039741Y41068414D01*
X31920603Y41068414D01*
X31825292Y41044586D01*
X31777637Y41020759D01*
X31753810Y40996931D01*
X31729982Y40949276D01*
%TO.C,R3*%
X40548862Y41358397D02*
X40310586Y41525190D01*
X40548862Y41644329D02*
X40048482Y41644329D01*
X40048482Y41453708D01*
X40072310Y41406052D01*
X40096137Y41382225D01*
X40143792Y41358397D01*
X40215275Y41358397D01*
X40262930Y41382225D01*
X40286758Y41406052D01*
X40310586Y41453708D01*
X40310586Y41644329D01*
X40048482Y41191604D02*
X40048482Y40881845D01*
X40239103Y41048638D01*
X40239103Y40977155D01*
X40262930Y40929500D01*
X40286758Y40905672D01*
X40334413Y40881845D01*
X40453551Y40881845D01*
X40501207Y40905672D01*
X40525034Y40929500D01*
X40548862Y40977155D01*
X40548862Y41120121D01*
X40525034Y41167776D01*
X40501207Y41191604D01*
X39850362Y41735587D02*
X39850362Y42021519D01*
X39850362Y41878553D02*
X39349982Y41878553D01*
X39421465Y41926208D01*
X39469120Y41973863D01*
X39492948Y42021519D01*
X39349982Y41425828D02*
X39349982Y41378173D01*
X39373810Y41330518D01*
X39397637Y41306690D01*
X39445292Y41282862D01*
X39540603Y41259035D01*
X39659741Y41259035D01*
X39755051Y41282862D01*
X39802707Y41306690D01*
X39826534Y41330518D01*
X39850362Y41378173D01*
X39850362Y41425828D01*
X39826534Y41473483D01*
X39802707Y41497311D01*
X39755051Y41521139D01*
X39659741Y41544966D01*
X39540603Y41544966D01*
X39445292Y41521139D01*
X39397637Y41497311D01*
X39373810Y41473483D01*
X39349982Y41425828D01*
X39349982Y40949276D02*
X39349982Y40901620D01*
X39373810Y40853965D01*
X39397637Y40830138D01*
X39445292Y40806310D01*
X39540603Y40782482D01*
X39659741Y40782482D01*
X39755051Y40806310D01*
X39802707Y40830138D01*
X39826534Y40853965D01*
X39850362Y40901620D01*
X39850362Y40949276D01*
X39826534Y40996931D01*
X39802707Y41020759D01*
X39755051Y41044586D01*
X39659741Y41068414D01*
X39540603Y41068414D01*
X39445292Y41044586D01*
X39397637Y41020759D01*
X39373810Y40996931D01*
X39349982Y40949276D01*
%TO.C,R5*%
X32611362Y85173397D02*
X32373086Y85340190D01*
X32611362Y85459329D02*
X32110982Y85459329D01*
X32110982Y85268708D01*
X32134810Y85221052D01*
X32158637Y85197225D01*
X32206292Y85173397D01*
X32277775Y85173397D01*
X32325430Y85197225D01*
X32349258Y85221052D01*
X32373086Y85268708D01*
X32373086Y85459329D01*
X32110982Y84720672D02*
X32110982Y84958949D01*
X32349258Y84982776D01*
X32325430Y84958949D01*
X32301603Y84911293D01*
X32301603Y84792155D01*
X32325430Y84744500D01*
X32349258Y84720672D01*
X32396913Y84696845D01*
X32516051Y84696845D01*
X32563707Y84720672D01*
X32587534Y84744500D01*
X32611362Y84792155D01*
X32611362Y84911293D01*
X32587534Y84958949D01*
X32563707Y84982776D01*
X32976275Y85308501D02*
X33309862Y85308501D01*
X32785654Y85427639D02*
X33143069Y85546777D01*
X33143069Y85237018D01*
X33309862Y85046397D02*
X32809482Y85046397D01*
X33119241Y84998742D02*
X33309862Y84855776D01*
X32976275Y84855776D02*
X33166896Y85046397D01*
X32809482Y84688983D02*
X32809482Y84355396D01*
X33309862Y84569845D01*
%TO.C,R6*%
X69758862Y46755897D02*
X69520586Y46922690D01*
X69758862Y47041829D02*
X69258482Y47041829D01*
X69258482Y46851208D01*
X69282310Y46803552D01*
X69306137Y46779725D01*
X69353792Y46755897D01*
X69425275Y46755897D01*
X69472930Y46779725D01*
X69496758Y46803552D01*
X69520586Y46851208D01*
X69520586Y47041829D01*
X69258482Y46327000D02*
X69258482Y46422310D01*
X69282310Y46469966D01*
X69306137Y46493793D01*
X69377620Y46541449D01*
X69472930Y46565276D01*
X69663551Y46565276D01*
X69711207Y46541449D01*
X69735034Y46517621D01*
X69758862Y46469966D01*
X69758862Y46374655D01*
X69735034Y46327000D01*
X69711207Y46303172D01*
X69663551Y46279345D01*
X69544413Y46279345D01*
X69496758Y46303172D01*
X69472930Y46327000D01*
X69449103Y46374655D01*
X69449103Y46469966D01*
X69472930Y46517621D01*
X69496758Y46541449D01*
X69544413Y46565276D01*
X69060362Y47097346D02*
X69060362Y47383277D01*
X69060362Y47240311D02*
X68559982Y47240311D01*
X68631465Y47287967D01*
X68679120Y47335622D01*
X68702948Y47383277D01*
X68559982Y46787587D02*
X68559982Y46739931D01*
X68583810Y46692276D01*
X68607637Y46668449D01*
X68655292Y46644621D01*
X68750603Y46620793D01*
X68869741Y46620793D01*
X68965051Y46644621D01*
X69012707Y46668449D01*
X69036534Y46692276D01*
X69060362Y46739931D01*
X69060362Y46787587D01*
X69036534Y46835242D01*
X69012707Y46859070D01*
X68965051Y46882897D01*
X68869741Y46906725D01*
X68750603Y46906725D01*
X68655292Y46882897D01*
X68607637Y46859070D01*
X68583810Y46835242D01*
X68559982Y46787587D01*
X69060362Y46406345D02*
X68559982Y46406345D01*
X68869741Y46358690D02*
X69060362Y46215724D01*
X68726775Y46215724D02*
X68917396Y46406345D01*
%TO.C,R7*%
X69123862Y50565897D02*
X68885586Y50732690D01*
X69123862Y50851829D02*
X68623482Y50851829D01*
X68623482Y50661208D01*
X68647310Y50613552D01*
X68671137Y50589725D01*
X68718792Y50565897D01*
X68790275Y50565897D01*
X68837930Y50589725D01*
X68861758Y50613552D01*
X68885586Y50661208D01*
X68885586Y50851829D01*
X68623482Y50399104D02*
X68623482Y50065517D01*
X69123862Y50279966D01*
X69822362Y50653346D02*
X69822362Y50939277D01*
X69822362Y50796311D02*
X69321982Y50796311D01*
X69393465Y50843967D01*
X69441120Y50891622D01*
X69464948Y50939277D01*
X69321982Y50343587D02*
X69321982Y50295931D01*
X69345810Y50248276D01*
X69369637Y50224449D01*
X69417292Y50200621D01*
X69512603Y50176793D01*
X69631741Y50176793D01*
X69727051Y50200621D01*
X69774707Y50224449D01*
X69798534Y50248276D01*
X69822362Y50295931D01*
X69822362Y50343587D01*
X69798534Y50391242D01*
X69774707Y50415070D01*
X69727051Y50438897D01*
X69631741Y50462725D01*
X69512603Y50462725D01*
X69417292Y50438897D01*
X69369637Y50415070D01*
X69345810Y50391242D01*
X69321982Y50343587D01*
X69822362Y49962345D02*
X69321982Y49962345D01*
X69631741Y49914690D02*
X69822362Y49771724D01*
X69488775Y49771724D02*
X69679396Y49962345D01*
D11*
%TO.C,U2*%
X66166904Y35472620D02*
X66166904Y34663096D01*
X66119285Y34567858D01*
X66071666Y34520239D01*
X65976428Y34472620D01*
X65785952Y34472620D01*
X65690714Y34520239D01*
X65643095Y34567858D01*
X65595476Y34663096D01*
X65595476Y35472620D01*
X65166904Y35377381D02*
X65119285Y35425000D01*
X65024047Y35472620D01*
X64785952Y35472620D01*
X64690714Y35425000D01*
X64643095Y35377381D01*
X64595476Y35282143D01*
X64595476Y35186905D01*
X64643095Y35044048D01*
X65214523Y34472620D01*
X64595476Y34472620D01*
%TO.C,U3*%
X57276904Y83097620D02*
X57276904Y82288096D01*
X57229285Y82192858D01*
X57181666Y82145239D01*
X57086428Y82097620D01*
X56895952Y82097620D01*
X56800714Y82145239D01*
X56753095Y82192858D01*
X56705476Y82288096D01*
X56705476Y83097620D01*
X56324523Y83097620D02*
X55705476Y83097620D01*
X56038809Y82716667D01*
X55895952Y82716667D01*
X55800714Y82669048D01*
X55753095Y82621429D01*
X55705476Y82526191D01*
X55705476Y82288096D01*
X55753095Y82192858D01*
X55800714Y82145239D01*
X55895952Y82097620D01*
X56181666Y82097620D01*
X56276904Y82145239D01*
X56324523Y82192858D01*
%TO.C,Y2*%
X57138890Y49518191D02*
X57615080Y49518191D01*
X56615080Y49851524D02*
X57138890Y49518191D01*
X56615080Y49184858D01*
X56710319Y48899143D02*
X56662700Y48851524D01*
X56615080Y48756286D01*
X56615080Y48518191D01*
X56662700Y48422953D01*
X56710319Y48375334D01*
X56805557Y48327715D01*
X56900795Y48327715D01*
X57043652Y48375334D01*
X57615080Y48946762D01*
X57615080Y48327715D01*
%TO.C,U1*%
X35647380Y86486905D02*
X36456904Y86486905D01*
X36552142Y86439286D01*
X36599761Y86391667D01*
X36647380Y86296429D01*
X36647380Y86105953D01*
X36599761Y86010715D01*
X36552142Y85963096D01*
X36456904Y85915477D01*
X35647380Y85915477D01*
X36647380Y84915477D02*
X36647380Y85486905D01*
X36647380Y85201191D02*
X35647380Y85201191D01*
X35790238Y85296429D01*
X35885476Y85391667D01*
X35933095Y85486905D01*
D10*
%TO.C,R10*%
X16418862Y11116673D02*
X16180586Y11283467D01*
X16418862Y11402605D02*
X15918482Y11402605D01*
X15918482Y11211984D01*
X15942310Y11164329D01*
X15966137Y11140501D01*
X16013792Y11116673D01*
X16085275Y11116673D01*
X16132930Y11140501D01*
X16156758Y11164329D01*
X16180586Y11211984D01*
X16180586Y11402605D01*
X16418862Y10640121D02*
X16418862Y10926052D01*
X16418862Y10783087D02*
X15918482Y10783087D01*
X15989965Y10830742D01*
X16037620Y10878397D01*
X16061448Y10926052D01*
X15918482Y10330362D02*
X15918482Y10282707D01*
X15942310Y10235051D01*
X15966137Y10211224D01*
X16013792Y10187396D01*
X16109103Y10163569D01*
X16228241Y10163569D01*
X16323551Y10187396D01*
X16371207Y10211224D01*
X16395034Y10235051D01*
X16418862Y10282707D01*
X16418862Y10330362D01*
X16395034Y10378017D01*
X16371207Y10401845D01*
X16323551Y10425672D01*
X16228241Y10449500D01*
X16109103Y10449500D01*
X16013792Y10425672D01*
X15966137Y10401845D01*
X15942310Y10378017D01*
X15918482Y10330362D01*
X15267637Y11505777D02*
X15243810Y11481950D01*
X15219982Y11434294D01*
X15219982Y11315156D01*
X15243810Y11267501D01*
X15267637Y11243673D01*
X15315292Y11219846D01*
X15362948Y11219846D01*
X15434430Y11243673D01*
X15720362Y11529605D01*
X15720362Y11219846D01*
X15720362Y11005397D02*
X15219982Y11005397D01*
X15529741Y10957742D02*
X15720362Y10814776D01*
X15386775Y10814776D02*
X15577396Y11005397D01*
X15267637Y10624155D02*
X15243810Y10600328D01*
X15219982Y10552672D01*
X15219982Y10433534D01*
X15243810Y10385879D01*
X15267637Y10362051D01*
X15315292Y10338224D01*
X15362948Y10338224D01*
X15434430Y10362051D01*
X15720362Y10647983D01*
X15720362Y10338224D01*
D12*
%TO.C,F2*%
X69106142Y29083000D02*
X69106142Y29591000D01*
X69904428Y29591000D02*
X68380428Y29591000D01*
X68380428Y28865286D01*
X68525571Y28357286D02*
X68453000Y28284715D01*
X68380428Y28139572D01*
X68380428Y27776715D01*
X68453000Y27631572D01*
X68525571Y27559000D01*
X68670714Y27486429D01*
X68815857Y27486429D01*
X69033571Y27559000D01*
X69904428Y28429858D01*
X69904428Y27486429D01*
D11*
%TO.C,BT3*%
X38250714Y52911429D02*
X38107857Y52863810D01*
X38060238Y52816191D01*
X38012619Y52720953D01*
X38012619Y52578096D01*
X38060238Y52482858D01*
X38107857Y52435239D01*
X38203095Y52387620D01*
X38584047Y52387620D01*
X38584047Y53387620D01*
X38250714Y53387620D01*
X38155476Y53340000D01*
X38107857Y53292381D01*
X38060238Y53197143D01*
X38060238Y53101905D01*
X38107857Y53006667D01*
X38155476Y52959048D01*
X38250714Y52911429D01*
X38584047Y52911429D01*
X37726904Y53387620D02*
X37155476Y53387620D01*
X37441190Y52387620D02*
X37441190Y53387620D01*
X36917380Y53387620D02*
X36298333Y53387620D01*
X36631666Y53006667D01*
X36488809Y53006667D01*
X36393571Y52959048D01*
X36345952Y52911429D01*
X36298333Y52816191D01*
X36298333Y52578096D01*
X36345952Y52482858D01*
X36393571Y52435239D01*
X36488809Y52387620D01*
X36774523Y52387620D01*
X36869761Y52435239D01*
X36917380Y52482858D01*
X48666304Y53349543D02*
X47142495Y53349543D01*
X47904400Y52587639D02*
X47904400Y54111448D01*
%TO.C,U5*%
X29297380Y86486905D02*
X30106904Y86486905D01*
X30202142Y86439286D01*
X30249761Y86391667D01*
X30297380Y86296429D01*
X30297380Y86105953D01*
X30249761Y86010715D01*
X30202142Y85963096D01*
X30106904Y85915477D01*
X29297380Y85915477D01*
X29297380Y84963096D02*
X29297380Y85439286D01*
X29773571Y85486905D01*
X29725952Y85439286D01*
X29678333Y85344048D01*
X29678333Y85105953D01*
X29725952Y85010715D01*
X29773571Y84963096D01*
X29868809Y84915477D01*
X30106904Y84915477D01*
X30202142Y84963096D01*
X30249761Y85010715D01*
X30297380Y85105953D01*
X30297380Y85344048D01*
X30249761Y85439286D01*
X30202142Y85486905D01*
D14*
%TO.C,L1*%
X38735000Y75855286D02*
X39097857Y75855286D01*
X39097857Y76617286D01*
X38081857Y75855286D02*
X38517285Y75855286D01*
X38299571Y75855286D02*
X38299571Y76617286D01*
X38372142Y76508429D01*
X38444714Y76435858D01*
X38517285Y76399572D01*
D10*
%TO.C,C19*%
X57154172Y89673793D02*
X57178000Y89649966D01*
X57249483Y89626138D01*
X57297138Y89626138D01*
X57368621Y89649966D01*
X57416276Y89697621D01*
X57440104Y89745276D01*
X57463931Y89840587D01*
X57463931Y89912070D01*
X57440104Y90007380D01*
X57416276Y90055035D01*
X57368621Y90102690D01*
X57297138Y90126518D01*
X57249483Y90126518D01*
X57178000Y90102690D01*
X57154172Y90078863D01*
X56677620Y89626138D02*
X56963551Y89626138D01*
X56820586Y89626138D02*
X56820586Y90126518D01*
X56868241Y90055035D01*
X56915896Y90007380D01*
X56963551Y89983552D01*
X56439344Y89626138D02*
X56344033Y89626138D01*
X56296378Y89649966D01*
X56272550Y89673793D01*
X56224895Y89745276D01*
X56201068Y89840587D01*
X56201068Y90031208D01*
X56224895Y90078863D01*
X56248723Y90102690D01*
X56296378Y90126518D01*
X56391689Y90126518D01*
X56439344Y90102690D01*
X56463171Y90078863D01*
X56486999Y90031208D01*
X56486999Y89912070D01*
X56463171Y89864414D01*
X56439344Y89840587D01*
X56391689Y89816759D01*
X56296378Y89816759D01*
X56248723Y89840587D01*
X56224895Y89864414D01*
X56201068Y89912070D01*
X57733897Y90324638D02*
X58019829Y90324638D01*
X57876863Y90324638D02*
X57876863Y90825018D01*
X57924518Y90753535D01*
X57972173Y90705880D01*
X58019829Y90682052D01*
X57424138Y90825018D02*
X57376483Y90825018D01*
X57328828Y90801190D01*
X57305000Y90777363D01*
X57281172Y90729708D01*
X57257345Y90634397D01*
X57257345Y90515259D01*
X57281172Y90419949D01*
X57305000Y90372293D01*
X57328828Y90348466D01*
X57376483Y90324638D01*
X57424138Y90324638D01*
X57471793Y90348466D01*
X57495621Y90372293D01*
X57519449Y90419949D01*
X57543276Y90515259D01*
X57543276Y90634397D01*
X57519449Y90729708D01*
X57495621Y90777363D01*
X57471793Y90801190D01*
X57424138Y90825018D01*
X56947586Y90825018D02*
X56899930Y90825018D01*
X56852275Y90801190D01*
X56828448Y90777363D01*
X56804620Y90729708D01*
X56780792Y90634397D01*
X56780792Y90515259D01*
X56804620Y90419949D01*
X56828448Y90372293D01*
X56852275Y90348466D01*
X56899930Y90324638D01*
X56947586Y90324638D01*
X56995241Y90348466D01*
X57019069Y90372293D01*
X57042896Y90419949D01*
X57066724Y90515259D01*
X57066724Y90634397D01*
X57042896Y90729708D01*
X57019069Y90777363D01*
X56995241Y90801190D01*
X56947586Y90825018D01*
X56566344Y90658225D02*
X56566344Y90324638D01*
X56566344Y90610570D02*
X56542516Y90634397D01*
X56494861Y90658225D01*
X56423378Y90658225D01*
X56375723Y90634397D01*
X56351895Y90586742D01*
X56351895Y90324638D01*
X55946826Y90586742D02*
X56113619Y90586742D01*
X56113619Y90324638D02*
X56113619Y90825018D01*
X55875343Y90825018D01*
%TO.C,C20*%
X60646672Y72528793D02*
X60670500Y72504966D01*
X60741983Y72481138D01*
X60789638Y72481138D01*
X60861121Y72504966D01*
X60908776Y72552621D01*
X60932604Y72600276D01*
X60956431Y72695587D01*
X60956431Y72767070D01*
X60932604Y72862380D01*
X60908776Y72910035D01*
X60861121Y72957690D01*
X60789638Y72981518D01*
X60741983Y72981518D01*
X60670500Y72957690D01*
X60646672Y72933863D01*
X60456051Y72933863D02*
X60432224Y72957690D01*
X60384569Y72981518D01*
X60265430Y72981518D01*
X60217775Y72957690D01*
X60193948Y72933863D01*
X60170120Y72886208D01*
X60170120Y72838552D01*
X60193948Y72767070D01*
X60479879Y72481138D01*
X60170120Y72481138D01*
X59860361Y72981518D02*
X59812706Y72981518D01*
X59765050Y72957690D01*
X59741223Y72933863D01*
X59717395Y72886208D01*
X59693568Y72790897D01*
X59693568Y72671759D01*
X59717395Y72576449D01*
X59741223Y72528793D01*
X59765050Y72504966D01*
X59812706Y72481138D01*
X59860361Y72481138D01*
X59908016Y72504966D01*
X59931844Y72528793D01*
X59955671Y72576449D01*
X59979499Y72671759D01*
X59979499Y72790897D01*
X59955671Y72886208D01*
X59931844Y72933863D01*
X59908016Y72957690D01*
X59860361Y72981518D01*
X61226397Y73179638D02*
X61512329Y73179638D01*
X61369363Y73179638D02*
X61369363Y73680018D01*
X61417018Y73608535D01*
X61464673Y73560880D01*
X61512329Y73537052D01*
X60916638Y73680018D02*
X60868983Y73680018D01*
X60821328Y73656190D01*
X60797500Y73632363D01*
X60773672Y73584708D01*
X60749845Y73489397D01*
X60749845Y73370259D01*
X60773672Y73274949D01*
X60797500Y73227293D01*
X60821328Y73203466D01*
X60868983Y73179638D01*
X60916638Y73179638D01*
X60964293Y73203466D01*
X60988121Y73227293D01*
X61011949Y73274949D01*
X61035776Y73370259D01*
X61035776Y73489397D01*
X61011949Y73584708D01*
X60988121Y73632363D01*
X60964293Y73656190D01*
X60916638Y73680018D01*
X60440086Y73680018D02*
X60392430Y73680018D01*
X60344775Y73656190D01*
X60320948Y73632363D01*
X60297120Y73584708D01*
X60273292Y73489397D01*
X60273292Y73370259D01*
X60297120Y73274949D01*
X60320948Y73227293D01*
X60344775Y73203466D01*
X60392430Y73179638D01*
X60440086Y73179638D01*
X60487741Y73203466D01*
X60511569Y73227293D01*
X60535396Y73274949D01*
X60559224Y73370259D01*
X60559224Y73489397D01*
X60535396Y73584708D01*
X60511569Y73632363D01*
X60487741Y73656190D01*
X60440086Y73680018D01*
X60058844Y73513225D02*
X60058844Y73179638D01*
X60058844Y73465570D02*
X60035016Y73489397D01*
X59987361Y73513225D01*
X59915878Y73513225D01*
X59868223Y73489397D01*
X59844395Y73441742D01*
X59844395Y73179638D01*
X59439326Y73441742D02*
X59606119Y73441742D01*
X59606119Y73179638D02*
X59606119Y73680018D01*
X59367843Y73680018D01*
%TO.C,C21*%
X65901207Y82554173D02*
X65925034Y82578001D01*
X65948862Y82649484D01*
X65948862Y82697139D01*
X65925034Y82768622D01*
X65877379Y82816277D01*
X65829724Y82840105D01*
X65734413Y82863932D01*
X65662930Y82863932D01*
X65567620Y82840105D01*
X65519965Y82816277D01*
X65472310Y82768622D01*
X65448482Y82697139D01*
X65448482Y82649484D01*
X65472310Y82578001D01*
X65496137Y82554173D01*
X65496137Y82363552D02*
X65472310Y82339725D01*
X65448482Y82292070D01*
X65448482Y82172931D01*
X65472310Y82125276D01*
X65496137Y82101449D01*
X65543792Y82077621D01*
X65591448Y82077621D01*
X65662930Y82101449D01*
X65948862Y82387380D01*
X65948862Y82077621D01*
X65948862Y81601069D02*
X65948862Y81887000D01*
X65948862Y81744034D02*
X65448482Y81744034D01*
X65519965Y81791690D01*
X65567620Y81839345D01*
X65591448Y81887000D01*
X66647362Y82879898D02*
X66647362Y83165830D01*
X66647362Y83022864D02*
X66146982Y83022864D01*
X66218465Y83070519D01*
X66266120Y83118174D01*
X66289948Y83165830D01*
X66146982Y82570139D02*
X66146982Y82522484D01*
X66170810Y82474829D01*
X66194637Y82451001D01*
X66242292Y82427173D01*
X66337603Y82403346D01*
X66456741Y82403346D01*
X66552051Y82427173D01*
X66599707Y82451001D01*
X66623534Y82474829D01*
X66647362Y82522484D01*
X66647362Y82570139D01*
X66623534Y82617794D01*
X66599707Y82641622D01*
X66552051Y82665450D01*
X66456741Y82689277D01*
X66337603Y82689277D01*
X66242292Y82665450D01*
X66194637Y82641622D01*
X66170810Y82617794D01*
X66146982Y82570139D01*
X66146982Y82093587D02*
X66146982Y82045931D01*
X66170810Y81998276D01*
X66194637Y81974449D01*
X66242292Y81950621D01*
X66337603Y81926793D01*
X66456741Y81926793D01*
X66552051Y81950621D01*
X66599707Y81974449D01*
X66623534Y81998276D01*
X66647362Y82045931D01*
X66647362Y82093587D01*
X66623534Y82141242D01*
X66599707Y82165070D01*
X66552051Y82188897D01*
X66456741Y82212725D01*
X66337603Y82212725D01*
X66242292Y82188897D01*
X66194637Y82165070D01*
X66170810Y82141242D01*
X66146982Y82093587D01*
X66313775Y81712345D02*
X66647362Y81712345D01*
X66361430Y81712345D02*
X66337603Y81688517D01*
X66313775Y81640862D01*
X66313775Y81569379D01*
X66337603Y81521724D01*
X66385258Y81497896D01*
X66647362Y81497896D01*
X66385258Y81092827D02*
X66385258Y81259620D01*
X66647362Y81259620D02*
X66146982Y81259620D01*
X66146982Y81021344D01*
D11*
%TO.C,J34*%
X36369523Y15787620D02*
X36369523Y15073334D01*
X36417142Y14930477D01*
X36512380Y14835239D01*
X36655238Y14787620D01*
X36750476Y14787620D01*
X35988571Y15787620D02*
X35369523Y15787620D01*
X35702857Y15406667D01*
X35560000Y15406667D01*
X35464761Y15359048D01*
X35417142Y15311429D01*
X35369523Y15216191D01*
X35369523Y14978096D01*
X35417142Y14882858D01*
X35464761Y14835239D01*
X35560000Y14787620D01*
X35845714Y14787620D01*
X35940952Y14835239D01*
X35988571Y14882858D01*
X34512380Y15454286D02*
X34512380Y14787620D01*
X34750476Y15835239D02*
X34988571Y15120953D01*
X34369523Y15120953D01*
%TO.C,C22*%
X60682142Y64142858D02*
X60729761Y64190477D01*
X60777380Y64333334D01*
X60777380Y64428572D01*
X60729761Y64571429D01*
X60634523Y64666667D01*
X60539285Y64714286D01*
X60348809Y64761905D01*
X60205952Y64761905D01*
X60015476Y64714286D01*
X59920238Y64666667D01*
X59825000Y64571429D01*
X59777380Y64428572D01*
X59777380Y64333334D01*
X59825000Y64190477D01*
X59872619Y64142858D01*
X59872619Y63761905D02*
X59825000Y63714286D01*
X59777380Y63619048D01*
X59777380Y63380953D01*
X59825000Y63285715D01*
X59872619Y63238096D01*
X59967857Y63190477D01*
X60063095Y63190477D01*
X60205952Y63238096D01*
X60777380Y63809524D01*
X60777380Y63190477D01*
X59872619Y62809524D02*
X59825000Y62761905D01*
X59777380Y62666667D01*
X59777380Y62428572D01*
X59825000Y62333334D01*
X59872619Y62285715D01*
X59967857Y62238096D01*
X60063095Y62238096D01*
X60205952Y62285715D01*
X60777380Y62857143D01*
X60777380Y62238096D01*
%TO.C,R11*%
X66492380Y60967858D02*
X66016190Y61301191D01*
X66492380Y61539286D02*
X65492380Y61539286D01*
X65492380Y61158334D01*
X65540000Y61063096D01*
X65587619Y61015477D01*
X65682857Y60967858D01*
X65825714Y60967858D01*
X65920952Y61015477D01*
X65968571Y61063096D01*
X66016190Y61158334D01*
X66016190Y61539286D01*
X66492380Y60015477D02*
X66492380Y60586905D01*
X66492380Y60301191D02*
X65492380Y60301191D01*
X65635238Y60396429D01*
X65730476Y60491667D01*
X65778095Y60586905D01*
X66492380Y59063096D02*
X66492380Y59634524D01*
X66492380Y59348810D02*
X65492380Y59348810D01*
X65635238Y59444048D01*
X65730476Y59539286D01*
X65778095Y59634524D01*
%TO.C,R12*%
X68397380Y60967858D02*
X67921190Y61301191D01*
X68397380Y61539286D02*
X67397380Y61539286D01*
X67397380Y61158334D01*
X67445000Y61063096D01*
X67492619Y61015477D01*
X67587857Y60967858D01*
X67730714Y60967858D01*
X67825952Y61015477D01*
X67873571Y61063096D01*
X67921190Y61158334D01*
X67921190Y61539286D01*
X68397380Y60015477D02*
X68397380Y60586905D01*
X68397380Y60301191D02*
X67397380Y60301191D01*
X67540238Y60396429D01*
X67635476Y60491667D01*
X67683095Y60586905D01*
X67492619Y59634524D02*
X67445000Y59586905D01*
X67397380Y59491667D01*
X67397380Y59253572D01*
X67445000Y59158334D01*
X67492619Y59110715D01*
X67587857Y59063096D01*
X67683095Y59063096D01*
X67825952Y59110715D01*
X68397380Y59682143D01*
X68397380Y59063096D01*
%TO.C,R15*%
X63317380Y63507858D02*
X62841190Y63841191D01*
X63317380Y64079286D02*
X62317380Y64079286D01*
X62317380Y63698334D01*
X62365000Y63603096D01*
X62412619Y63555477D01*
X62507857Y63507858D01*
X62650714Y63507858D01*
X62745952Y63555477D01*
X62793571Y63603096D01*
X62841190Y63698334D01*
X62841190Y64079286D01*
X63317380Y62555477D02*
X63317380Y63126905D01*
X63317380Y62841191D02*
X62317380Y62841191D01*
X62460238Y62936429D01*
X62555476Y63031667D01*
X62603095Y63126905D01*
X62317380Y61650715D02*
X62317380Y62126905D01*
X62793571Y62174524D01*
X62745952Y62126905D01*
X62698333Y62031667D01*
X62698333Y61793572D01*
X62745952Y61698334D01*
X62793571Y61650715D01*
X62888809Y61603096D01*
X63126904Y61603096D01*
X63222142Y61650715D01*
X63269761Y61698334D01*
X63317380Y61793572D01*
X63317380Y62031667D01*
X63269761Y62126905D01*
X63222142Y62174524D01*
%TO.C,R16*%
X62872857Y59237620D02*
X63206190Y59713810D01*
X63444285Y59237620D02*
X63444285Y60237620D01*
X63063333Y60237620D01*
X62968095Y60190000D01*
X62920476Y60142381D01*
X62872857Y60047143D01*
X62872857Y59904286D01*
X62920476Y59809048D01*
X62968095Y59761429D01*
X63063333Y59713810D01*
X63444285Y59713810D01*
X61920476Y59237620D02*
X62491904Y59237620D01*
X62206190Y59237620D02*
X62206190Y60237620D01*
X62301428Y60094762D01*
X62396666Y59999524D01*
X62491904Y59951905D01*
X61063333Y60237620D02*
X61253809Y60237620D01*
X61349047Y60190000D01*
X61396666Y60142381D01*
X61491904Y59999524D01*
X61539523Y59809048D01*
X61539523Y59428096D01*
X61491904Y59332858D01*
X61444285Y59285239D01*
X61349047Y59237620D01*
X61158571Y59237620D01*
X61063333Y59285239D01*
X61015714Y59332858D01*
X60968095Y59428096D01*
X60968095Y59666191D01*
X61015714Y59761429D01*
X61063333Y59809048D01*
X61158571Y59856667D01*
X61349047Y59856667D01*
X61444285Y59809048D01*
X61491904Y59761429D01*
X61539523Y59666191D01*
%TO.C,U6*%
X65531904Y56427620D02*
X65531904Y55618096D01*
X65484285Y55522858D01*
X65436666Y55475239D01*
X65341428Y55427620D01*
X65150952Y55427620D01*
X65055714Y55475239D01*
X65008095Y55522858D01*
X64960476Y55618096D01*
X64960476Y56427620D01*
X64055714Y56427620D02*
X64246190Y56427620D01*
X64341428Y56380000D01*
X64389047Y56332381D01*
X64484285Y56189524D01*
X64531904Y55999048D01*
X64531904Y55618096D01*
X64484285Y55522858D01*
X64436666Y55475239D01*
X64341428Y55427620D01*
X64150952Y55427620D01*
X64055714Y55475239D01*
X64008095Y55522858D01*
X63960476Y55618096D01*
X63960476Y55856191D01*
X64008095Y55951429D01*
X64055714Y55999048D01*
X64150952Y56046667D01*
X64341428Y56046667D01*
X64436666Y55999048D01*
X64484285Y55951429D01*
X64531904Y55856191D01*
%TO.C,C18*%
X64008000Y44513500D02*
X65532000Y44513500D01*
X64008000Y47561500D02*
X64008000Y46545500D01*
X65532000Y44513500D02*
X65532000Y45529500D01*
X65532000Y46545500D02*
X65532000Y47561500D01*
X65532000Y47561500D02*
X64008000Y47561500D01*
X64008000Y45529500D02*
X64008000Y44513500D01*
X65659000Y47688500D02*
G75*
G03*
X65659000Y47688500I-127000J0D01*
G01*
%TO.C,R1*%
X29083000Y39751000D02*
X30607000Y39751000D01*
X30607000Y41783000D02*
X30607000Y42799000D01*
X30607000Y39751000D02*
X30607000Y40767000D01*
X29083000Y42799000D02*
X29083000Y41783000D01*
X29083000Y40767000D02*
X29083000Y39751000D01*
X30607000Y42799000D02*
X29083000Y42799000D01*
X29210000Y39624000D02*
G75*
G03*
X29210000Y39624000I-127000J0D01*
G01*
%TO.C,C7*%
X60833000Y38671500D02*
X60833000Y37655500D01*
X60833000Y35623500D02*
X62357000Y35623500D01*
X62357000Y37655500D02*
X62357000Y38671500D01*
X62357000Y38671500D02*
X60833000Y38671500D01*
X60833000Y36639500D02*
X60833000Y35623500D01*
X62357000Y35623500D02*
X62357000Y36639500D01*
X60960000Y35496500D02*
G75*
G03*
X60960000Y35496500I-127000J0D01*
G01*
%TO.C,R4*%
X44323000Y39751000D02*
X45847000Y39751000D01*
X45847000Y42799000D02*
X44323000Y42799000D01*
X45847000Y39751000D02*
X45847000Y40767000D01*
X44323000Y40767000D02*
X44323000Y39751000D01*
X44323000Y42799000D02*
X44323000Y41783000D01*
X45847000Y41783000D02*
X45847000Y42799000D01*
X44450000Y39624000D02*
G75*
G03*
X44450000Y39624000I-127000J0D01*
G01*
%TO.C,C8*%
X78232000Y71628000D02*
X78232000Y72644000D01*
X78232000Y69596000D02*
X78232000Y70612000D01*
X76708000Y72644000D02*
X76708000Y71628000D01*
X76708000Y69596000D02*
X78232000Y69596000D01*
X78232000Y72644000D02*
X76708000Y72644000D01*
X76708000Y70612000D02*
X76708000Y69596000D01*
X76835000Y69469000D02*
G75*
G03*
X76835000Y69469000I-127000J0D01*
G01*
%TO.C,C5*%
X78232000Y73406000D02*
X78232000Y74422000D01*
X76708000Y74422000D02*
X76708000Y73406000D01*
X76708000Y73406000D02*
X78232000Y73406000D01*
X78232000Y76454000D02*
X76708000Y76454000D01*
X76708000Y76454000D02*
X76708000Y75438000D01*
X78232000Y75438000D02*
X78232000Y76454000D01*
X78359000Y76581000D02*
G75*
G03*
X78359000Y76581000I-127000J0D01*
G01*
%TO.C,C16*%
X71882000Y85344000D02*
X70358000Y85344000D01*
X71882000Y82296000D02*
X71882000Y83312000D01*
X70358000Y83312000D02*
X70358000Y82296000D01*
X70358000Y82296000D02*
X71882000Y82296000D01*
X70358000Y85344000D02*
X70358000Y84328000D01*
X71882000Y84328000D02*
X71882000Y85344000D01*
X72009000Y85471000D02*
G75*
G03*
X72009000Y85471000I-127000J0D01*
G01*
%TO.C,C17*%
X41783000Y81026000D02*
X43307000Y81026000D01*
X41783000Y84074000D02*
X41783000Y83058000D01*
X43307000Y84074000D02*
X41783000Y84074000D01*
X43307000Y83058000D02*
X43307000Y84074000D01*
X41783000Y82042000D02*
X41783000Y81026000D01*
X43307000Y81026000D02*
X43307000Y82042000D01*
X43434000Y84201000D02*
G75*
G03*
X43434000Y84201000I-127000J0D01*
G01*
%TO.C,R8*%
X67818000Y81534000D02*
X67818000Y80518000D01*
X67818000Y78486000D02*
X69342000Y78486000D01*
X67818000Y79502000D02*
X67818000Y78486000D01*
X69342000Y81534000D02*
X67818000Y81534000D01*
X69342000Y78486000D02*
X69342000Y79502000D01*
X69342000Y80518000D02*
X69342000Y81534000D01*
X69469000Y81661000D02*
G75*
G03*
X69469000Y81661000I-127000J0D01*
G01*
%TO.C,R9*%
X67818000Y83312000D02*
X67818000Y82296000D01*
X69342000Y84328000D02*
X69342000Y85344000D01*
X69342000Y85344000D02*
X67818000Y85344000D01*
X67818000Y82296000D02*
X69342000Y82296000D01*
X67818000Y85344000D02*
X67818000Y84328000D01*
X69342000Y82296000D02*
X69342000Y83312000D01*
X69469000Y85471000D02*
G75*
G03*
X69469000Y85471000I-127000J0D01*
G01*
%TO.C,U4*%
X64490000Y48540000D02*
X64490000Y48815000D01*
X61240000Y48540000D02*
X61240000Y48715000D01*
X61240000Y51790000D02*
X61240000Y51515000D01*
X61240000Y48540000D02*
X64490000Y48540000D01*
X64490000Y51790000D02*
X64490000Y51515000D01*
X61240000Y48715000D02*
X60165000Y48715000D01*
X61240000Y51790000D02*
X64490000Y51790000D01*
X62115000Y49165000D02*
G75*
G03*
X62115000Y49165000I-250000J0D01*
G01*
%TO.C,C1*%
X29972000Y79629000D02*
X28448000Y79629000D01*
X28448000Y76581000D02*
X29972000Y76581000D01*
X29972000Y76581000D02*
X29972000Y77597000D01*
X28448000Y79629000D02*
X28448000Y78613000D01*
X28448000Y77597000D02*
X28448000Y76581000D01*
X29972000Y78613000D02*
X29972000Y79629000D01*
X28575000Y76454000D02*
G75*
G03*
X28575000Y76454000I-127000J0D01*
G01*
%TO.C,C2*%
X30988000Y77597000D02*
X30988000Y76581000D01*
X30988000Y76581000D02*
X32512000Y76581000D01*
X30988000Y79629000D02*
X30988000Y78613000D01*
X32512000Y79629000D02*
X30988000Y79629000D01*
X32512000Y76581000D02*
X32512000Y77597000D01*
X32512000Y78613000D02*
X32512000Y79629000D01*
X31115000Y76454000D02*
G75*
G03*
X31115000Y76454000I-127000J0D01*
G01*
%TO.C,C3*%
X35052000Y79629000D02*
X33528000Y79629000D01*
X33528000Y76581000D02*
X35052000Y76581000D01*
X33528000Y77597000D02*
X33528000Y76581000D01*
X35052000Y76581000D02*
X35052000Y77597000D01*
X33528000Y79629000D02*
X33528000Y78613000D01*
X35052000Y78613000D02*
X35052000Y79629000D01*
X33655000Y76454000D02*
G75*
G03*
X33655000Y76454000I-127000J0D01*
G01*
%TO.C,C4*%
X38354000Y87503000D02*
X38354000Y89027000D01*
X37338000Y87503000D02*
X38354000Y87503000D01*
X38354000Y89027000D02*
X37338000Y89027000D01*
X35306000Y87503000D02*
X36322000Y87503000D01*
X36322000Y89027000D02*
X35306000Y89027000D01*
X35306000Y89027000D02*
X35306000Y87503000D01*
X35306000Y89027000D02*
G75*
G03*
X35306000Y89027000I-127000J0D01*
G01*
%TO.C,C6*%
X43307000Y79248000D02*
X43307000Y80264000D01*
X41783000Y80264000D02*
X41783000Y79248000D01*
X43307000Y77216000D02*
X43307000Y78232000D01*
X43307000Y80264000D02*
X41783000Y80264000D01*
X41783000Y78232000D02*
X41783000Y77216000D01*
X41783000Y77216000D02*
X43307000Y77216000D01*
X41910000Y77089000D02*
G75*
G03*
X41910000Y77089000I-127000J0D01*
G01*
%TO.C,C9*%
X55039260Y23319740D02*
X55039260Y17320260D01*
X55892700Y14719300D02*
X55892700Y15918180D01*
X51640740Y23319740D02*
X51640740Y17320260D01*
X55039260Y16019780D02*
X51640740Y16019780D01*
X56393080Y15318740D02*
X55293260Y15318740D01*
%TO.C,C10*%
X57912000Y16383000D02*
X57912000Y20447000D01*
X56388000Y16383000D02*
X57912000Y16383000D01*
X57912000Y20447000D02*
X56388000Y20447000D01*
X56388000Y20447000D02*
X56388000Y16383000D01*
X57912000Y16383000D02*
X57785000Y16383000D01*
%TO.C,C11*%
X34671000Y43942000D02*
X34671000Y42418000D01*
X37719000Y42418000D02*
X37719000Y43942000D01*
X36703000Y42418000D02*
X37719000Y42418000D01*
X35687000Y43942000D02*
X34671000Y43942000D01*
X37719000Y43942000D02*
X36703000Y43942000D01*
X34671000Y42418000D02*
X35687000Y42418000D01*
X37973000Y42418000D02*
G75*
G03*
X37973000Y42418000I-127000J0D01*
G01*
%TO.C,C12*%
X67564000Y36703000D02*
X67564000Y38227000D01*
X64516000Y36703000D02*
X65532000Y36703000D01*
X64516000Y38227000D02*
X64516000Y36703000D01*
X66548000Y36703000D02*
X67564000Y36703000D01*
X67564000Y38227000D02*
X66548000Y38227000D01*
X65532000Y38227000D02*
X64516000Y38227000D01*
X67818000Y36703000D02*
G75*
G03*
X67818000Y36703000I-127000J0D01*
G01*
%TO.C,C13*%
X58166000Y23622000D02*
X58166000Y22098000D01*
X61214000Y23622000D02*
X60198000Y23622000D01*
X61214000Y22098000D02*
X61214000Y23622000D01*
X58166000Y22098000D02*
X59182000Y22098000D01*
X60198000Y22098000D02*
X61214000Y22098000D01*
X59182000Y23622000D02*
X58166000Y23622000D01*
X58166000Y23622000D02*
G75*
G03*
X58166000Y23622000I-127000J0D01*
G01*
%TO.C,C14*%
X39243000Y84074000D02*
X39243000Y83058000D01*
X40767000Y84074000D02*
X39243000Y84074000D01*
X39243000Y81026000D02*
X40767000Y81026000D01*
X40767000Y81026000D02*
X40767000Y82042000D01*
X39243000Y82042000D02*
X39243000Y81026000D01*
X40767000Y83058000D02*
X40767000Y84074000D01*
X40894000Y84201000D02*
G75*
G03*
X40894000Y84201000I-127000J0D01*
G01*
%TO.C,C15*%
X34671000Y41402000D02*
X34671000Y39878000D01*
X34671000Y39878000D02*
X35687000Y39878000D01*
X36703000Y39878000D02*
X37719000Y39878000D01*
X37719000Y39878000D02*
X37719000Y41402000D01*
X35687000Y41402000D02*
X34671000Y41402000D01*
X37719000Y41402000D02*
X36703000Y41402000D01*
X37973000Y39878000D02*
G75*
G03*
X37973000Y39878000I-127000J0D01*
G01*
%TO.C,D2*%
X59844940Y20665440D02*
X60195460Y20665440D01*
X59844940Y16164560D02*
X60195460Y16164560D01*
X63345060Y20665440D02*
X63345060Y16164560D01*
X63345060Y20665440D02*
X62994540Y20665440D01*
X63345060Y16164560D02*
X62994540Y16164560D01*
X63345060Y16614140D02*
X62994540Y16614140D01*
X59844940Y20665440D02*
X59844940Y16164560D01*
X59844940Y16614140D02*
X60195460Y16614140D01*
%TO.C,F1*%
X66167000Y18288000D02*
X68453000Y18288000D01*
X66167000Y14732000D02*
X68453000Y14732000D01*
D15*
%TO.C,J7*%
X23360000Y29175000D02*
X23360000Y15875000D01*
X25660000Y33775000D02*
X25660000Y31475000D01*
X23360000Y11855000D02*
X23360000Y12275000D01*
X50200000Y11855000D02*
X23360000Y11855000D01*
X29130000Y37095000D02*
X28330000Y37095000D01*
X50200000Y33775000D02*
X50200000Y15875000D01*
X31630000Y37095000D02*
X30830000Y37095000D01*
X34030000Y37095000D02*
X33330000Y37095000D01*
X25660000Y31475000D02*
X23360000Y29175000D01*
X41630000Y37095000D02*
X40830000Y37095000D01*
X26630000Y37095000D02*
X26430000Y37095000D01*
X39130000Y37095000D02*
X38330000Y37095000D01*
X44030000Y37095000D02*
X43330000Y37095000D01*
X36630000Y37095000D02*
X35830000Y37095000D01*
X50200000Y12275000D02*
X50200000Y11855000D01*
D11*
%TO.C,R2*%
X33147000Y42799000D02*
X31623000Y42799000D01*
X33147000Y39751000D02*
X33147000Y40767000D01*
X31623000Y40767000D02*
X31623000Y39751000D01*
X31623000Y42799000D02*
X31623000Y41783000D01*
X31623000Y39751000D02*
X33147000Y39751000D01*
X33147000Y41783000D02*
X33147000Y42799000D01*
X31750000Y39624000D02*
G75*
G03*
X31750000Y39624000I-127000J0D01*
G01*
%TO.C,R3*%
X40767000Y39751000D02*
X40767000Y40767000D01*
X40767000Y42799000D02*
X39243000Y42799000D01*
X39243000Y39751000D02*
X40767000Y39751000D01*
X40767000Y41783000D02*
X40767000Y42799000D01*
X39243000Y42799000D02*
X39243000Y41783000D01*
X39243000Y40767000D02*
X39243000Y39751000D01*
X39370000Y39624000D02*
G75*
G03*
X39370000Y39624000I-127000J0D01*
G01*
%TO.C,R5*%
X31940500Y83566000D02*
X33464500Y83566000D01*
X33464500Y86614000D02*
X31940500Y86614000D01*
X33464500Y85598000D02*
X33464500Y86614000D01*
X33464500Y83566000D02*
X33464500Y84582000D01*
X31940500Y84582000D02*
X31940500Y83566000D01*
X31940500Y86614000D02*
X31940500Y85598000D01*
X33591500Y86741000D02*
G75*
G03*
X33591500Y86741000I-127000J0D01*
G01*
%TO.C,R6*%
X69977000Y47180500D02*
X69977000Y48196500D01*
X69977000Y48196500D02*
X68453000Y48196500D01*
X68453000Y48196500D02*
X68453000Y47180500D01*
X68453000Y46164500D02*
X68453000Y45148500D01*
X69977000Y45148500D02*
X69977000Y46164500D01*
X68453000Y45148500D02*
X69977000Y45148500D01*
X68580000Y45021500D02*
G75*
G03*
X68580000Y45021500I-127000J0D01*
G01*
%TO.C,R7*%
X68453000Y48958500D02*
X69977000Y48958500D01*
X68453000Y49974500D02*
X68453000Y48958500D01*
X69977000Y48958500D02*
X69977000Y49974500D01*
X69977000Y52006500D02*
X68453000Y52006500D01*
X68453000Y52006500D02*
X68453000Y50990500D01*
X69977000Y50990500D02*
X69977000Y52006500D01*
X70104000Y52133500D02*
G75*
G03*
X70104000Y52133500I-127000J0D01*
G01*
D15*
%TO.C,U2*%
X63905000Y33805000D02*
X65905000Y33805000D01*
X65905000Y36045000D02*
X64905000Y36045000D01*
D11*
%TO.C,U3*%
X51340000Y76740000D02*
X52015000Y76740000D01*
X61690000Y87090000D02*
X61015000Y87090000D01*
X61690000Y87090000D02*
X61690000Y86515000D01*
X61690000Y86515000D02*
X62965000Y86515000D01*
X61690000Y76740000D02*
X61015000Y76740000D01*
X61690000Y76740000D02*
X61690000Y77415000D01*
X51340000Y76740000D02*
X51340000Y77415000D01*
X51340000Y87090000D02*
X51340000Y86415000D01*
X51340000Y87090000D02*
X52015000Y87090000D01*
%TO.C,Y2*%
X57900000Y47315000D02*
X57900000Y50515000D01*
X56400000Y50515000D02*
X56400000Y47315000D01*
X56400000Y50515000D02*
X57900000Y50515000D01*
X57900000Y47315000D02*
X56400000Y47315000D01*
D15*
%TO.C,U1*%
X37272500Y86987500D02*
X35812500Y86987500D01*
X37272500Y86987500D02*
X37272500Y86057500D01*
X37272500Y83827500D02*
X37272500Y84757500D01*
X37272500Y83827500D02*
X35112500Y83827500D01*
D11*
%TO.C,R10*%
X15113000Y10287000D02*
X15113000Y9271000D01*
X16637000Y12319000D02*
X15113000Y12319000D01*
X15113000Y12319000D02*
X15113000Y11303000D01*
X16637000Y9271000D02*
X16637000Y10287000D01*
X15113000Y9271000D02*
X16637000Y9271000D01*
X16637000Y11303000D02*
X16637000Y12319000D01*
X15240000Y9144000D02*
G75*
G03*
X15240000Y9144000I-127000J0D01*
G01*
%TO.C,F2*%
X67437000Y27432000D02*
X67437000Y29718000D01*
X70993000Y27432000D02*
X70993000Y29718000D01*
%TO.C,BT3*%
X23465000Y45340000D02*
X51465000Y45340000D01*
X51465000Y61340000D02*
X23465000Y61340000D01*
X23465000Y61340000D02*
X23465000Y45340000D01*
X51465000Y45340000D02*
X51465000Y61340000D01*
D15*
%TO.C,U5*%
X28497500Y83827500D02*
X29957500Y83827500D01*
X28497500Y86987500D02*
X28497500Y86057500D01*
X28497500Y83827500D02*
X28497500Y84757500D01*
X28497500Y86987500D02*
X30657500Y86987500D01*
D11*
%TO.C,L1*%
X36449000Y78232000D02*
X37973000Y78232000D01*
X36449000Y75438000D02*
X36449000Y78232000D01*
X39497000Y78232000D02*
X41021000Y78232000D01*
X41021000Y75438000D02*
X39497000Y75438000D01*
X37973000Y75438000D02*
X36449000Y75438000D01*
X41021000Y78232000D02*
X41021000Y75438000D01*
X36501605Y78359000D02*
G75*
G03*
X36501605Y78359000I-179605J0D01*
G01*
%TO.C,C19*%
X58356500Y90932000D02*
X57340500Y90932000D01*
X57340500Y89408000D02*
X58356500Y89408000D01*
X58356500Y89408000D02*
X58356500Y90932000D01*
X56324500Y90932000D02*
X55308500Y90932000D01*
X55308500Y90932000D02*
X55308500Y89408000D01*
X55308500Y89408000D02*
X56324500Y89408000D01*
X55308500Y90932000D02*
G75*
G03*
X55308500Y90932000I-127000J0D01*
G01*
%TO.C,C20*%
X61849000Y72263000D02*
X61849000Y73787000D01*
X59817000Y73787000D02*
X58801000Y73787000D01*
X60833000Y72263000D02*
X61849000Y72263000D01*
X61849000Y73787000D02*
X60833000Y73787000D01*
X58801000Y72263000D02*
X59817000Y72263000D01*
X58801000Y73787000D02*
X58801000Y72263000D01*
X58801000Y73787000D02*
G75*
G03*
X58801000Y73787000I-127000J0D01*
G01*
%TO.C,C21*%
X66802000Y83756500D02*
X65278000Y83756500D01*
X65278000Y80708500D02*
X66802000Y80708500D01*
X65278000Y81724500D02*
X65278000Y80708500D01*
X66802000Y80708500D02*
X66802000Y81724500D01*
X66802000Y82740500D02*
X66802000Y83756500D01*
X65278000Y83756500D02*
X65278000Y82740500D01*
X66929000Y83883500D02*
G75*
G03*
X66929000Y83883500I-127000J0D01*
G01*
D15*
%TO.C,J34*%
X50200000Y845000D02*
X50200000Y425000D01*
X25660000Y20045000D02*
X23360000Y17745000D01*
X36630000Y25665000D02*
X35830000Y25665000D01*
X23360000Y17745000D02*
X23360000Y4445000D01*
X44030000Y25665000D02*
X43330000Y25665000D01*
X31630000Y25665000D02*
X30830000Y25665000D01*
X29130000Y25665000D02*
X28330000Y25665000D01*
X23360000Y425000D02*
X23360000Y845000D01*
X50200000Y22345000D02*
X50200000Y4445000D01*
X25660000Y22345000D02*
X25660000Y20045000D01*
X41630000Y25665000D02*
X40830000Y25665000D01*
X34030000Y25665000D02*
X33330000Y25665000D01*
X50200000Y425000D02*
X23360000Y425000D01*
X39130000Y25665000D02*
X38330000Y25665000D01*
X26630000Y25665000D02*
X26430000Y25665000D01*
D11*
%TO.C,U6*%
X66845000Y53305000D02*
X62695000Y53305000D01*
X66845000Y58405000D02*
X68245000Y58405000D01*
X66845000Y58455000D02*
X66845000Y58405000D01*
X62695000Y58455000D02*
X62695000Y58310000D01*
X62695000Y53305000D02*
X62695000Y53450000D01*
X66845000Y58455000D02*
X62695000Y58455000D01*
X66845000Y53305000D02*
X66845000Y53450000D01*
%TD*%
M02*
