%TF.GenerationSoftware,KiCad,Pcbnew,6.0.4-6f826c9f35~116~ubuntu20.04.1*%
%TF.CreationDate,2022-04-06T13:06:25+00:00*%
%TF.ProjectId,DATALOGGER01A,44415441-4c4f-4474-9745-523031412e6b,REV*%
%TF.SameCoordinates,Original*%
%TF.FileFunction,Legend,Bot*%
%TF.FilePolarity,Positive*%
%FSLAX46Y46*%
G04 Gerber Fmt 4.6, Leading zero omitted, Abs format (unit mm)*
G04 Created by KiCad (PCBNEW 6.0.4-6f826c9f35~116~ubuntu20.04.1) date 2022-04-06 13:06:25*
%MOMM*%
%LPD*%
G01*
G04 APERTURE LIST*
%ADD10C,0.109220*%
%ADD11C,0.150000*%
%ADD12C,0.304800*%
%ADD13C,0.099060*%
%ADD14C,0.127000*%
%ADD15C,0.120000*%
G04 APERTURE END LIST*
D10*
%TO.C,C18*%
X64631207Y46359172D02*
X64655034Y46383000D01*
X64678862Y46454483D01*
X64678862Y46502138D01*
X64655034Y46573621D01*
X64607379Y46621276D01*
X64559724Y46645104D01*
X64464413Y46668931D01*
X64392930Y46668931D01*
X64297620Y46645104D01*
X64249965Y46621276D01*
X64202310Y46573621D01*
X64178482Y46502138D01*
X64178482Y46454483D01*
X64202310Y46383000D01*
X64226137Y46359172D01*
X64678862Y45882620D02*
X64678862Y46168551D01*
X64678862Y46025586D02*
X64178482Y46025586D01*
X64249965Y46073241D01*
X64297620Y46120896D01*
X64321448Y46168551D01*
X64392930Y45596689D02*
X64369103Y45644344D01*
X64345275Y45668171D01*
X64297620Y45691999D01*
X64273792Y45691999D01*
X64226137Y45668171D01*
X64202310Y45644344D01*
X64178482Y45596689D01*
X64178482Y45501378D01*
X64202310Y45453723D01*
X64226137Y45429895D01*
X64273792Y45406068D01*
X64297620Y45406068D01*
X64345275Y45429895D01*
X64369103Y45453723D01*
X64392930Y45501378D01*
X64392930Y45596689D01*
X64416758Y45644344D01*
X64440586Y45668171D01*
X64488241Y45691999D01*
X64583551Y45691999D01*
X64631207Y45668171D01*
X64655034Y45644344D01*
X64678862Y45596689D01*
X64678862Y45501378D01*
X64655034Y45453723D01*
X64631207Y45429895D01*
X64583551Y45406068D01*
X64488241Y45406068D01*
X64440586Y45429895D01*
X64416758Y45453723D01*
X64392930Y45501378D01*
X65377362Y46684897D02*
X65377362Y46970829D01*
X65377362Y46827863D02*
X64876982Y46827863D01*
X64948465Y46875518D01*
X64996120Y46923173D01*
X65019948Y46970829D01*
X64876982Y46375138D02*
X64876982Y46327483D01*
X64900810Y46279828D01*
X64924637Y46256000D01*
X64972292Y46232172D01*
X65067603Y46208345D01*
X65186741Y46208345D01*
X65282051Y46232172D01*
X65329707Y46256000D01*
X65353534Y46279828D01*
X65377362Y46327483D01*
X65377362Y46375138D01*
X65353534Y46422793D01*
X65329707Y46446621D01*
X65282051Y46470449D01*
X65186741Y46494276D01*
X65067603Y46494276D01*
X64972292Y46470449D01*
X64924637Y46446621D01*
X64900810Y46422793D01*
X64876982Y46375138D01*
X64876982Y45898586D02*
X64876982Y45850930D01*
X64900810Y45803275D01*
X64924637Y45779448D01*
X64972292Y45755620D01*
X65067603Y45731792D01*
X65186741Y45731792D01*
X65282051Y45755620D01*
X65329707Y45779448D01*
X65353534Y45803275D01*
X65377362Y45850930D01*
X65377362Y45898586D01*
X65353534Y45946241D01*
X65329707Y45970069D01*
X65282051Y45993896D01*
X65186741Y46017724D01*
X65067603Y46017724D01*
X64972292Y45993896D01*
X64924637Y45970069D01*
X64900810Y45946241D01*
X64876982Y45898586D01*
X65043775Y45517344D02*
X65377362Y45517344D01*
X65091430Y45517344D02*
X65067603Y45493516D01*
X65043775Y45445861D01*
X65043775Y45374378D01*
X65067603Y45326723D01*
X65115258Y45302895D01*
X65377362Y45302895D01*
X65115258Y44897826D02*
X65115258Y45064619D01*
X65377362Y45064619D02*
X64876982Y45064619D01*
X64876982Y44826343D01*
%TO.C,R1*%
X30388862Y41358396D02*
X30150586Y41525190D01*
X30388862Y41644328D02*
X29888482Y41644328D01*
X29888482Y41453707D01*
X29912310Y41406051D01*
X29936137Y41382224D01*
X29983792Y41358396D01*
X30055275Y41358396D01*
X30102930Y41382224D01*
X30126758Y41406051D01*
X30150586Y41453707D01*
X30150586Y41644328D01*
X30388862Y40881844D02*
X30388862Y41167775D01*
X30388862Y41024810D02*
X29888482Y41024810D01*
X29959965Y41072465D01*
X30007620Y41120120D01*
X30031448Y41167775D01*
X29690362Y41735586D02*
X29690362Y42021518D01*
X29690362Y41878552D02*
X29189982Y41878552D01*
X29261465Y41926207D01*
X29309120Y41973862D01*
X29332948Y42021518D01*
X29189982Y41425827D02*
X29189982Y41378172D01*
X29213810Y41330517D01*
X29237637Y41306689D01*
X29285292Y41282861D01*
X29380603Y41259034D01*
X29499741Y41259034D01*
X29595051Y41282861D01*
X29642707Y41306689D01*
X29666534Y41330517D01*
X29690362Y41378172D01*
X29690362Y41425827D01*
X29666534Y41473482D01*
X29642707Y41497310D01*
X29595051Y41521138D01*
X29499741Y41544965D01*
X29380603Y41544965D01*
X29285292Y41521138D01*
X29237637Y41497310D01*
X29213810Y41473482D01*
X29189982Y41425827D01*
X29189982Y40949275D02*
X29189982Y40901620D01*
X29213810Y40853964D01*
X29237637Y40830137D01*
X29285292Y40806309D01*
X29380603Y40782481D01*
X29499741Y40782481D01*
X29595051Y40806309D01*
X29642707Y40830137D01*
X29666534Y40853964D01*
X29690362Y40901620D01*
X29690362Y40949275D01*
X29666534Y40996930D01*
X29642707Y41020758D01*
X29595051Y41044585D01*
X29499741Y41068413D01*
X29380603Y41068413D01*
X29285292Y41044585D01*
X29237637Y41020758D01*
X29213810Y40996930D01*
X29189982Y40949275D01*
%TO.C,C7*%
X62091207Y37230896D02*
X62115034Y37254724D01*
X62138862Y37326207D01*
X62138862Y37373862D01*
X62115034Y37445345D01*
X62067379Y37493000D01*
X62019724Y37516828D01*
X61924413Y37540655D01*
X61852930Y37540655D01*
X61757620Y37516828D01*
X61709965Y37493000D01*
X61662310Y37445345D01*
X61638482Y37373862D01*
X61638482Y37326207D01*
X61662310Y37254724D01*
X61686137Y37230896D01*
X61638482Y37064103D02*
X61638482Y36730516D01*
X62138862Y36944965D01*
X61440362Y37572345D02*
X61440362Y37858276D01*
X61440362Y37715310D02*
X60939982Y37715310D01*
X61011465Y37762966D01*
X61059120Y37810621D01*
X61082948Y37858276D01*
X61106775Y37143448D02*
X61440362Y37143448D01*
X61106775Y37357896D02*
X61368879Y37357896D01*
X61416534Y37334069D01*
X61440362Y37286413D01*
X61440362Y37214930D01*
X61416534Y37167275D01*
X61392707Y37143448D01*
X61178258Y36738378D02*
X61178258Y36905171D01*
X61440362Y36905171D02*
X60939982Y36905171D01*
X60939982Y36666895D01*
%TO.C,R4*%
X45628862Y41358396D02*
X45390586Y41525190D01*
X45628862Y41644328D02*
X45128482Y41644328D01*
X45128482Y41453707D01*
X45152310Y41406051D01*
X45176137Y41382224D01*
X45223792Y41358396D01*
X45295275Y41358396D01*
X45342930Y41382224D01*
X45366758Y41406051D01*
X45390586Y41453707D01*
X45390586Y41644328D01*
X45295275Y40929499D02*
X45628862Y40929499D01*
X45104654Y41048637D02*
X45462069Y41167775D01*
X45462069Y40858016D01*
X44930362Y41735586D02*
X44930362Y42021518D01*
X44930362Y41878552D02*
X44429982Y41878552D01*
X44501465Y41926207D01*
X44549120Y41973862D01*
X44572948Y42021518D01*
X44429982Y41425827D02*
X44429982Y41378172D01*
X44453810Y41330517D01*
X44477637Y41306689D01*
X44525292Y41282861D01*
X44620603Y41259034D01*
X44739741Y41259034D01*
X44835051Y41282861D01*
X44882707Y41306689D01*
X44906534Y41330517D01*
X44930362Y41378172D01*
X44930362Y41425827D01*
X44906534Y41473482D01*
X44882707Y41497310D01*
X44835051Y41521138D01*
X44739741Y41544965D01*
X44620603Y41544965D01*
X44525292Y41521138D01*
X44477637Y41497310D01*
X44453810Y41473482D01*
X44429982Y41425827D01*
X44429982Y40949275D02*
X44429982Y40901620D01*
X44453810Y40853964D01*
X44477637Y40830137D01*
X44525292Y40806309D01*
X44620603Y40782481D01*
X44739741Y40782481D01*
X44835051Y40806309D01*
X44882707Y40830137D01*
X44906534Y40853964D01*
X44930362Y40901620D01*
X44930362Y40949275D01*
X44906534Y40996930D01*
X44882707Y41020758D01*
X44835051Y41044585D01*
X44739741Y41068413D01*
X44620603Y41068413D01*
X44525292Y41044585D01*
X44477637Y41020758D01*
X44453810Y40996930D01*
X44429982Y40949275D01*
%TO.C,C8*%
X77966207Y71203396D02*
X77990034Y71227224D01*
X78013862Y71298707D01*
X78013862Y71346362D01*
X77990034Y71417845D01*
X77942379Y71465500D01*
X77894724Y71489328D01*
X77799413Y71513155D01*
X77727930Y71513155D01*
X77632620Y71489328D01*
X77584965Y71465500D01*
X77537310Y71417845D01*
X77513482Y71346362D01*
X77513482Y71298707D01*
X77537310Y71227224D01*
X77561137Y71203396D01*
X77727930Y70917465D02*
X77704103Y70965120D01*
X77680275Y70988948D01*
X77632620Y71012775D01*
X77608792Y71012775D01*
X77561137Y70988948D01*
X77537310Y70965120D01*
X77513482Y70917465D01*
X77513482Y70822154D01*
X77537310Y70774499D01*
X77561137Y70750671D01*
X77608792Y70726844D01*
X77632620Y70726844D01*
X77680275Y70750671D01*
X77704103Y70774499D01*
X77727930Y70822154D01*
X77727930Y70917465D01*
X77751758Y70965120D01*
X77775586Y70988948D01*
X77823241Y71012775D01*
X77918551Y71012775D01*
X77966207Y70988948D01*
X77990034Y70965120D01*
X78013862Y70917465D01*
X78013862Y70822154D01*
X77990034Y70774499D01*
X77966207Y70750671D01*
X77918551Y70726844D01*
X77823241Y70726844D01*
X77775586Y70750671D01*
X77751758Y70774499D01*
X77727930Y70822154D01*
X77315362Y72021397D02*
X77315362Y72307329D01*
X77315362Y72164363D02*
X76814982Y72164363D01*
X76886465Y72212018D01*
X76934120Y72259673D01*
X76957948Y72307329D01*
X76814982Y71711638D02*
X76814982Y71663983D01*
X76838810Y71616328D01*
X76862637Y71592500D01*
X76910292Y71568672D01*
X77005603Y71544845D01*
X77124741Y71544845D01*
X77220051Y71568672D01*
X77267707Y71592500D01*
X77291534Y71616328D01*
X77315362Y71663983D01*
X77315362Y71711638D01*
X77291534Y71759293D01*
X77267707Y71783121D01*
X77220051Y71806949D01*
X77124741Y71830776D01*
X77005603Y71830776D01*
X76910292Y71806949D01*
X76862637Y71783121D01*
X76838810Y71759293D01*
X76814982Y71711638D01*
X76814982Y71235086D02*
X76814982Y71187430D01*
X76838810Y71139775D01*
X76862637Y71115948D01*
X76910292Y71092120D01*
X77005603Y71068292D01*
X77124741Y71068292D01*
X77220051Y71092120D01*
X77267707Y71115948D01*
X77291534Y71139775D01*
X77315362Y71187430D01*
X77315362Y71235086D01*
X77291534Y71282741D01*
X77267707Y71306569D01*
X77220051Y71330396D01*
X77124741Y71354224D01*
X77005603Y71354224D01*
X76910292Y71330396D01*
X76862637Y71306569D01*
X76838810Y71282741D01*
X76814982Y71235086D01*
X76981775Y70853844D02*
X77315362Y70853844D01*
X77029430Y70853844D02*
X77005603Y70830016D01*
X76981775Y70782361D01*
X76981775Y70710878D01*
X77005603Y70663223D01*
X77053258Y70639395D01*
X77315362Y70639395D01*
X77053258Y70234326D02*
X77053258Y70401119D01*
X77315362Y70401119D02*
X76814982Y70401119D01*
X76814982Y70162843D01*
%TO.C,C5*%
X77331207Y75013396D02*
X77355034Y75037224D01*
X77378862Y75108707D01*
X77378862Y75156362D01*
X77355034Y75227845D01*
X77307379Y75275500D01*
X77259724Y75299328D01*
X77164413Y75323155D01*
X77092930Y75323155D01*
X76997620Y75299328D01*
X76949965Y75275500D01*
X76902310Y75227845D01*
X76878482Y75156362D01*
X76878482Y75108707D01*
X76902310Y75037224D01*
X76926137Y75013396D01*
X76878482Y74560671D02*
X76878482Y74798948D01*
X77116758Y74822775D01*
X77092930Y74798948D01*
X77069103Y74751292D01*
X77069103Y74632154D01*
X77092930Y74584499D01*
X77116758Y74560671D01*
X77164413Y74536844D01*
X77283551Y74536844D01*
X77331207Y74560671D01*
X77355034Y74584499D01*
X77378862Y74632154D01*
X77378862Y74751292D01*
X77355034Y74798948D01*
X77331207Y74822775D01*
X78077362Y75577397D02*
X78077362Y75863329D01*
X78077362Y75720363D02*
X77576982Y75720363D01*
X77648465Y75768018D01*
X77696120Y75815673D01*
X77719948Y75863329D01*
X77576982Y75267638D02*
X77576982Y75219983D01*
X77600810Y75172328D01*
X77624637Y75148500D01*
X77672292Y75124672D01*
X77767603Y75100845D01*
X77886741Y75100845D01*
X77982051Y75124672D01*
X78029707Y75148500D01*
X78053534Y75172328D01*
X78077362Y75219983D01*
X78077362Y75267638D01*
X78053534Y75315293D01*
X78029707Y75339121D01*
X77982051Y75362949D01*
X77886741Y75386776D01*
X77767603Y75386776D01*
X77672292Y75362949D01*
X77624637Y75339121D01*
X77600810Y75315293D01*
X77576982Y75267638D01*
X77576982Y74791086D02*
X77576982Y74743430D01*
X77600810Y74695775D01*
X77624637Y74671948D01*
X77672292Y74648120D01*
X77767603Y74624292D01*
X77886741Y74624292D01*
X77982051Y74648120D01*
X78029707Y74671948D01*
X78053534Y74695775D01*
X78077362Y74743430D01*
X78077362Y74791086D01*
X78053534Y74838741D01*
X78029707Y74862569D01*
X77982051Y74886396D01*
X77886741Y74910224D01*
X77767603Y74910224D01*
X77672292Y74886396D01*
X77624637Y74862569D01*
X77600810Y74838741D01*
X77576982Y74791086D01*
X77743775Y74409844D02*
X78077362Y74409844D01*
X77791430Y74409844D02*
X77767603Y74386016D01*
X77743775Y74338361D01*
X77743775Y74266878D01*
X77767603Y74219223D01*
X77815258Y74195395D01*
X78077362Y74195395D01*
X77815258Y73790326D02*
X77815258Y73957119D01*
X78077362Y73957119D02*
X77576982Y73957119D01*
X77576982Y73718843D01*
%TO.C,C16*%
X70981207Y84141672D02*
X71005034Y84165500D01*
X71028862Y84236983D01*
X71028862Y84284638D01*
X71005034Y84356121D01*
X70957379Y84403776D01*
X70909724Y84427604D01*
X70814413Y84451431D01*
X70742930Y84451431D01*
X70647620Y84427604D01*
X70599965Y84403776D01*
X70552310Y84356121D01*
X70528482Y84284638D01*
X70528482Y84236983D01*
X70552310Y84165500D01*
X70576137Y84141672D01*
X71028862Y83665120D02*
X71028862Y83951051D01*
X71028862Y83808086D02*
X70528482Y83808086D01*
X70599965Y83855741D01*
X70647620Y83903396D01*
X70671448Y83951051D01*
X70528482Y83236223D02*
X70528482Y83331533D01*
X70552310Y83379189D01*
X70576137Y83403016D01*
X70647620Y83450671D01*
X70742930Y83474499D01*
X70933551Y83474499D01*
X70981207Y83450671D01*
X71005034Y83426844D01*
X71028862Y83379189D01*
X71028862Y83283878D01*
X71005034Y83236223D01*
X70981207Y83212395D01*
X70933551Y83188568D01*
X70814413Y83188568D01*
X70766758Y83212395D01*
X70742930Y83236223D01*
X70719103Y83283878D01*
X70719103Y83379189D01*
X70742930Y83426844D01*
X70766758Y83450671D01*
X70814413Y83474499D01*
X71393775Y84062328D02*
X71727362Y84062328D01*
X71203154Y84181466D02*
X71560569Y84300604D01*
X71560569Y83990845D01*
X71393775Y83585775D02*
X71727362Y83585775D01*
X71393775Y83800224D02*
X71655879Y83800224D01*
X71703534Y83776396D01*
X71727362Y83728741D01*
X71727362Y83657258D01*
X71703534Y83609603D01*
X71679707Y83585775D01*
X71226982Y83395154D02*
X71226982Y83061568D01*
X71727362Y83276016D01*
%TO.C,C17*%
X42406207Y82871672D02*
X42430034Y82895500D01*
X42453862Y82966983D01*
X42453862Y83014638D01*
X42430034Y83086121D01*
X42382379Y83133776D01*
X42334724Y83157604D01*
X42239413Y83181431D01*
X42167930Y83181431D01*
X42072620Y83157604D01*
X42024965Y83133776D01*
X41977310Y83086121D01*
X41953482Y83014638D01*
X41953482Y82966983D01*
X41977310Y82895500D01*
X42001137Y82871672D01*
X42453862Y82395120D02*
X42453862Y82681051D01*
X42453862Y82538086D02*
X41953482Y82538086D01*
X42024965Y82585741D01*
X42072620Y82633396D01*
X42096448Y82681051D01*
X41953482Y82228327D02*
X41953482Y81894740D01*
X42453862Y82109189D01*
X43152362Y83197397D02*
X43152362Y83483329D01*
X43152362Y83340363D02*
X42651982Y83340363D01*
X42723465Y83388018D01*
X42771120Y83435673D01*
X42794948Y83483329D01*
X42651982Y82887638D02*
X42651982Y82839983D01*
X42675810Y82792328D01*
X42699637Y82768500D01*
X42747292Y82744672D01*
X42842603Y82720845D01*
X42961741Y82720845D01*
X43057051Y82744672D01*
X43104707Y82768500D01*
X43128534Y82792328D01*
X43152362Y82839983D01*
X43152362Y82887638D01*
X43128534Y82935293D01*
X43104707Y82959121D01*
X43057051Y82982949D01*
X42961741Y83006776D01*
X42842603Y83006776D01*
X42747292Y82982949D01*
X42699637Y82959121D01*
X42675810Y82935293D01*
X42651982Y82887638D01*
X42651982Y82411086D02*
X42651982Y82363430D01*
X42675810Y82315775D01*
X42699637Y82291948D01*
X42747292Y82268120D01*
X42842603Y82244292D01*
X42961741Y82244292D01*
X43057051Y82268120D01*
X43104707Y82291948D01*
X43128534Y82315775D01*
X43152362Y82363430D01*
X43152362Y82411086D01*
X43128534Y82458741D01*
X43104707Y82482569D01*
X43057051Y82506396D01*
X42961741Y82530224D01*
X42842603Y82530224D01*
X42747292Y82506396D01*
X42699637Y82482569D01*
X42675810Y82458741D01*
X42651982Y82411086D01*
X42818775Y82029844D02*
X43152362Y82029844D01*
X42866430Y82029844D02*
X42842603Y82006016D01*
X42818775Y81958361D01*
X42818775Y81886878D01*
X42842603Y81839223D01*
X42890258Y81815395D01*
X43152362Y81815395D01*
X42890258Y81410326D02*
X42890258Y81577119D01*
X43152362Y81577119D02*
X42651982Y81577119D01*
X42651982Y81338843D01*
%TO.C,R8*%
X68488862Y80093396D02*
X68250586Y80260190D01*
X68488862Y80379328D02*
X67988482Y80379328D01*
X67988482Y80188707D01*
X68012310Y80141051D01*
X68036137Y80117224D01*
X68083792Y80093396D01*
X68155275Y80093396D01*
X68202930Y80117224D01*
X68226758Y80141051D01*
X68250586Y80188707D01*
X68250586Y80379328D01*
X68202930Y79807465D02*
X68179103Y79855120D01*
X68155275Y79878948D01*
X68107620Y79902775D01*
X68083792Y79902775D01*
X68036137Y79878948D01*
X68012310Y79855120D01*
X67988482Y79807465D01*
X67988482Y79712154D01*
X68012310Y79664499D01*
X68036137Y79640671D01*
X68083792Y79616844D01*
X68107620Y79616844D01*
X68155275Y79640671D01*
X68179103Y79664499D01*
X68202930Y79712154D01*
X68202930Y79807465D01*
X68226758Y79855120D01*
X68250586Y79878948D01*
X68298241Y79902775D01*
X68393551Y79902775D01*
X68441207Y79878948D01*
X68465034Y79855120D01*
X68488862Y79807465D01*
X68488862Y79712154D01*
X68465034Y79664499D01*
X68441207Y79640671D01*
X68393551Y79616844D01*
X68298241Y79616844D01*
X68250586Y79640671D01*
X68226758Y79664499D01*
X68202930Y79712154D01*
X68996741Y80073620D02*
X68996741Y79692379D01*
%TO.C,R9*%
X68488862Y83903396D02*
X68250586Y84070190D01*
X68488862Y84189328D02*
X67988482Y84189328D01*
X67988482Y83998707D01*
X68012310Y83951051D01*
X68036137Y83927224D01*
X68083792Y83903396D01*
X68155275Y83903396D01*
X68202930Y83927224D01*
X68226758Y83951051D01*
X68250586Y83998707D01*
X68250586Y84189328D01*
X68488862Y83665120D02*
X68488862Y83569810D01*
X68465034Y83522154D01*
X68441207Y83498327D01*
X68369724Y83450671D01*
X68274413Y83426844D01*
X68083792Y83426844D01*
X68036137Y83450671D01*
X68012310Y83474499D01*
X67988482Y83522154D01*
X67988482Y83617465D01*
X68012310Y83665120D01*
X68036137Y83688948D01*
X68083792Y83712775D01*
X68202930Y83712775D01*
X68250586Y83688948D01*
X68274413Y83665120D01*
X68298241Y83617465D01*
X68298241Y83522154D01*
X68274413Y83474499D01*
X68250586Y83450671D01*
X68202930Y83426844D01*
X69187362Y83990845D02*
X69187362Y84276776D01*
X69187362Y84133810D02*
X68686982Y84133810D01*
X68758465Y84181466D01*
X68806120Y84229121D01*
X68829948Y84276776D01*
X68686982Y83681086D02*
X68686982Y83633430D01*
X68710810Y83585775D01*
X68734637Y83561948D01*
X68782292Y83538120D01*
X68877603Y83514292D01*
X68996741Y83514292D01*
X69092051Y83538120D01*
X69139707Y83561948D01*
X69163534Y83585775D01*
X69187362Y83633430D01*
X69187362Y83681086D01*
X69163534Y83728741D01*
X69139707Y83752569D01*
X69092051Y83776396D01*
X68996741Y83800224D01*
X68877603Y83800224D01*
X68782292Y83776396D01*
X68734637Y83752569D01*
X68710810Y83728741D01*
X68686982Y83681086D01*
X69187362Y83299844D02*
X68686982Y83299844D01*
X68996741Y83252189D02*
X69187362Y83109223D01*
X68853775Y83109223D02*
X69044396Y83299844D01*
D11*
%TO.C,U4*%
X63626904Y48162619D02*
X63626904Y47353095D01*
X63579285Y47257857D01*
X63531666Y47210238D01*
X63436428Y47162619D01*
X63245952Y47162619D01*
X63150714Y47210238D01*
X63103095Y47257857D01*
X63055476Y47353095D01*
X63055476Y48162619D01*
X62150714Y47829285D02*
X62150714Y47162619D01*
X62388809Y48210238D02*
X62626904Y47495952D01*
X62007857Y47495952D01*
D10*
%TO.C,C1*%
X29706207Y78188396D02*
X29730034Y78212224D01*
X29753862Y78283707D01*
X29753862Y78331362D01*
X29730034Y78402845D01*
X29682379Y78450500D01*
X29634724Y78474328D01*
X29539413Y78498155D01*
X29467930Y78498155D01*
X29372620Y78474328D01*
X29324965Y78450500D01*
X29277310Y78402845D01*
X29253482Y78331362D01*
X29253482Y78283707D01*
X29277310Y78212224D01*
X29301137Y78188396D01*
X29753862Y77711844D02*
X29753862Y77997775D01*
X29753862Y77854810D02*
X29253482Y77854810D01*
X29324965Y77902465D01*
X29372620Y77950120D01*
X29396448Y77997775D01*
X29055362Y79006397D02*
X29055362Y79292329D01*
X29055362Y79149363D02*
X28554982Y79149363D01*
X28626465Y79197018D01*
X28674120Y79244673D01*
X28697948Y79292329D01*
X28554982Y78696638D02*
X28554982Y78648983D01*
X28578810Y78601328D01*
X28602637Y78577500D01*
X28650292Y78553672D01*
X28745603Y78529845D01*
X28864741Y78529845D01*
X28960051Y78553672D01*
X29007707Y78577500D01*
X29031534Y78601328D01*
X29055362Y78648983D01*
X29055362Y78696638D01*
X29031534Y78744293D01*
X29007707Y78768121D01*
X28960051Y78791949D01*
X28864741Y78815776D01*
X28745603Y78815776D01*
X28650292Y78791949D01*
X28602637Y78768121D01*
X28578810Y78744293D01*
X28554982Y78696638D01*
X28554982Y78220086D02*
X28554982Y78172430D01*
X28578810Y78124775D01*
X28602637Y78100948D01*
X28650292Y78077120D01*
X28745603Y78053292D01*
X28864741Y78053292D01*
X28960051Y78077120D01*
X29007707Y78100948D01*
X29031534Y78124775D01*
X29055362Y78172430D01*
X29055362Y78220086D01*
X29031534Y78267741D01*
X29007707Y78291569D01*
X28960051Y78315396D01*
X28864741Y78339224D01*
X28745603Y78339224D01*
X28650292Y78315396D01*
X28602637Y78291569D01*
X28578810Y78267741D01*
X28554982Y78220086D01*
X28721775Y77838844D02*
X29055362Y77838844D01*
X28769430Y77838844D02*
X28745603Y77815016D01*
X28721775Y77767361D01*
X28721775Y77695878D01*
X28745603Y77648223D01*
X28793258Y77624395D01*
X29055362Y77624395D01*
X28793258Y77219326D02*
X28793258Y77386119D01*
X29055362Y77386119D02*
X28554982Y77386119D01*
X28554982Y77147843D01*
%TO.C,C2*%
X32246207Y78188396D02*
X32270034Y78212224D01*
X32293862Y78283707D01*
X32293862Y78331362D01*
X32270034Y78402845D01*
X32222379Y78450500D01*
X32174724Y78474328D01*
X32079413Y78498155D01*
X32007930Y78498155D01*
X31912620Y78474328D01*
X31864965Y78450500D01*
X31817310Y78402845D01*
X31793482Y78331362D01*
X31793482Y78283707D01*
X31817310Y78212224D01*
X31841137Y78188396D01*
X31841137Y77997775D02*
X31817310Y77973948D01*
X31793482Y77926292D01*
X31793482Y77807154D01*
X31817310Y77759499D01*
X31841137Y77735671D01*
X31888792Y77711844D01*
X31936448Y77711844D01*
X32007930Y77735671D01*
X32293862Y78021603D01*
X32293862Y77711844D01*
X31595362Y79006397D02*
X31595362Y79292329D01*
X31595362Y79149363D02*
X31094982Y79149363D01*
X31166465Y79197018D01*
X31214120Y79244673D01*
X31237948Y79292329D01*
X31094982Y78696638D02*
X31094982Y78648983D01*
X31118810Y78601328D01*
X31142637Y78577500D01*
X31190292Y78553672D01*
X31285603Y78529845D01*
X31404741Y78529845D01*
X31500051Y78553672D01*
X31547707Y78577500D01*
X31571534Y78601328D01*
X31595362Y78648983D01*
X31595362Y78696638D01*
X31571534Y78744293D01*
X31547707Y78768121D01*
X31500051Y78791949D01*
X31404741Y78815776D01*
X31285603Y78815776D01*
X31190292Y78791949D01*
X31142637Y78768121D01*
X31118810Y78744293D01*
X31094982Y78696638D01*
X31094982Y78220086D02*
X31094982Y78172430D01*
X31118810Y78124775D01*
X31142637Y78100948D01*
X31190292Y78077120D01*
X31285603Y78053292D01*
X31404741Y78053292D01*
X31500051Y78077120D01*
X31547707Y78100948D01*
X31571534Y78124775D01*
X31595362Y78172430D01*
X31595362Y78220086D01*
X31571534Y78267741D01*
X31547707Y78291569D01*
X31500051Y78315396D01*
X31404741Y78339224D01*
X31285603Y78339224D01*
X31190292Y78315396D01*
X31142637Y78291569D01*
X31118810Y78267741D01*
X31094982Y78220086D01*
X31261775Y77838844D02*
X31595362Y77838844D01*
X31309430Y77838844D02*
X31285603Y77815016D01*
X31261775Y77767361D01*
X31261775Y77695878D01*
X31285603Y77648223D01*
X31333258Y77624395D01*
X31595362Y77624395D01*
X31333258Y77219326D02*
X31333258Y77386119D01*
X31595362Y77386119D02*
X31094982Y77386119D01*
X31094982Y77147843D01*
%TO.C,C3*%
X34786207Y78188396D02*
X34810034Y78212224D01*
X34833862Y78283707D01*
X34833862Y78331362D01*
X34810034Y78402845D01*
X34762379Y78450500D01*
X34714724Y78474328D01*
X34619413Y78498155D01*
X34547930Y78498155D01*
X34452620Y78474328D01*
X34404965Y78450500D01*
X34357310Y78402845D01*
X34333482Y78331362D01*
X34333482Y78283707D01*
X34357310Y78212224D01*
X34381137Y78188396D01*
X34333482Y78021603D02*
X34333482Y77711844D01*
X34524103Y77878637D01*
X34524103Y77807154D01*
X34547930Y77759499D01*
X34571758Y77735671D01*
X34619413Y77711844D01*
X34738551Y77711844D01*
X34786207Y77735671D01*
X34810034Y77759499D01*
X34833862Y77807154D01*
X34833862Y77950120D01*
X34810034Y77997775D01*
X34786207Y78021603D01*
X34135362Y79006397D02*
X34135362Y79292329D01*
X34135362Y79149363D02*
X33634982Y79149363D01*
X33706465Y79197018D01*
X33754120Y79244673D01*
X33777948Y79292329D01*
X33634982Y78696638D02*
X33634982Y78648983D01*
X33658810Y78601328D01*
X33682637Y78577500D01*
X33730292Y78553672D01*
X33825603Y78529845D01*
X33944741Y78529845D01*
X34040051Y78553672D01*
X34087707Y78577500D01*
X34111534Y78601328D01*
X34135362Y78648983D01*
X34135362Y78696638D01*
X34111534Y78744293D01*
X34087707Y78768121D01*
X34040051Y78791949D01*
X33944741Y78815776D01*
X33825603Y78815776D01*
X33730292Y78791949D01*
X33682637Y78768121D01*
X33658810Y78744293D01*
X33634982Y78696638D01*
X33634982Y78220086D02*
X33634982Y78172430D01*
X33658810Y78124775D01*
X33682637Y78100948D01*
X33730292Y78077120D01*
X33825603Y78053292D01*
X33944741Y78053292D01*
X34040051Y78077120D01*
X34087707Y78100948D01*
X34111534Y78124775D01*
X34135362Y78172430D01*
X34135362Y78220086D01*
X34111534Y78267741D01*
X34087707Y78291569D01*
X34040051Y78315396D01*
X33944741Y78339224D01*
X33825603Y78339224D01*
X33730292Y78315396D01*
X33682637Y78291569D01*
X33658810Y78267741D01*
X33634982Y78220086D01*
X33801775Y77838844D02*
X34135362Y77838844D01*
X33849430Y77838844D02*
X33825603Y77815016D01*
X33801775Y77767361D01*
X33801775Y77695878D01*
X33825603Y77648223D01*
X33873258Y77624395D01*
X34135362Y77624395D01*
X33873258Y77219326D02*
X33873258Y77386119D01*
X34135362Y77386119D02*
X33634982Y77386119D01*
X33634982Y77147843D01*
%TO.C,C4*%
X36913396Y87768792D02*
X36937224Y87744965D01*
X37008707Y87721137D01*
X37056362Y87721137D01*
X37127845Y87744965D01*
X37175500Y87792620D01*
X37199328Y87840275D01*
X37223155Y87935586D01*
X37223155Y88007069D01*
X37199328Y88102379D01*
X37175500Y88150034D01*
X37127845Y88197690D01*
X37056362Y88221517D01*
X37008707Y88221517D01*
X36937224Y88197690D01*
X36913396Y88173862D01*
X36484499Y88054724D02*
X36484499Y87721137D01*
X36603637Y88245345D02*
X36722775Y87887930D01*
X36413016Y87887930D01*
X37731397Y88419637D02*
X38017329Y88419637D01*
X37874363Y88419637D02*
X37874363Y88920017D01*
X37922018Y88848534D01*
X37969673Y88800879D01*
X38017329Y88777051D01*
X37421638Y88920017D02*
X37373983Y88920017D01*
X37326328Y88896190D01*
X37302500Y88872362D01*
X37278672Y88824707D01*
X37254845Y88729396D01*
X37254845Y88610258D01*
X37278672Y88514948D01*
X37302500Y88467292D01*
X37326328Y88443465D01*
X37373983Y88419637D01*
X37421638Y88419637D01*
X37469293Y88443465D01*
X37493121Y88467292D01*
X37516949Y88514948D01*
X37540776Y88610258D01*
X37540776Y88729396D01*
X37516949Y88824707D01*
X37493121Y88872362D01*
X37469293Y88896190D01*
X37421638Y88920017D01*
X36945086Y88920017D02*
X36897430Y88920017D01*
X36849775Y88896190D01*
X36825948Y88872362D01*
X36802120Y88824707D01*
X36778292Y88729396D01*
X36778292Y88610258D01*
X36802120Y88514948D01*
X36825948Y88467292D01*
X36849775Y88443465D01*
X36897430Y88419637D01*
X36945086Y88419637D01*
X36992741Y88443465D01*
X37016569Y88467292D01*
X37040396Y88514948D01*
X37064224Y88610258D01*
X37064224Y88729396D01*
X37040396Y88824707D01*
X37016569Y88872362D01*
X36992741Y88896190D01*
X36945086Y88920017D01*
X36563844Y88753224D02*
X36563844Y88419637D01*
X36563844Y88705569D02*
X36540016Y88729396D01*
X36492361Y88753224D01*
X36420878Y88753224D01*
X36373223Y88729396D01*
X36349395Y88681741D01*
X36349395Y88419637D01*
X35944326Y88681741D02*
X36111119Y88681741D01*
X36111119Y88419637D02*
X36111119Y88920017D01*
X35872843Y88920017D01*
%TO.C,C6*%
X43041207Y78823396D02*
X43065034Y78847224D01*
X43088862Y78918707D01*
X43088862Y78966362D01*
X43065034Y79037845D01*
X43017379Y79085500D01*
X42969724Y79109328D01*
X42874413Y79133155D01*
X42802930Y79133155D01*
X42707620Y79109328D01*
X42659965Y79085500D01*
X42612310Y79037845D01*
X42588482Y78966362D01*
X42588482Y78918707D01*
X42612310Y78847224D01*
X42636137Y78823396D01*
X42588482Y78394499D02*
X42588482Y78489810D01*
X42612310Y78537465D01*
X42636137Y78561292D01*
X42707620Y78608948D01*
X42802930Y78632775D01*
X42993551Y78632775D01*
X43041207Y78608948D01*
X43065034Y78585120D01*
X43088862Y78537465D01*
X43088862Y78442154D01*
X43065034Y78394499D01*
X43041207Y78370671D01*
X42993551Y78346844D01*
X42874413Y78346844D01*
X42826758Y78370671D01*
X42802930Y78394499D01*
X42779103Y78442154D01*
X42779103Y78537465D01*
X42802930Y78585120D01*
X42826758Y78608948D01*
X42874413Y78632775D01*
X42390362Y79641397D02*
X42390362Y79927329D01*
X42390362Y79784363D02*
X41889982Y79784363D01*
X41961465Y79832018D01*
X42009120Y79879673D01*
X42032948Y79927329D01*
X41889982Y79331638D02*
X41889982Y79283983D01*
X41913810Y79236328D01*
X41937637Y79212500D01*
X41985292Y79188672D01*
X42080603Y79164845D01*
X42199741Y79164845D01*
X42295051Y79188672D01*
X42342707Y79212500D01*
X42366534Y79236328D01*
X42390362Y79283983D01*
X42390362Y79331638D01*
X42366534Y79379293D01*
X42342707Y79403121D01*
X42295051Y79426949D01*
X42199741Y79450776D01*
X42080603Y79450776D01*
X41985292Y79426949D01*
X41937637Y79403121D01*
X41913810Y79379293D01*
X41889982Y79331638D01*
X41889982Y78855086D02*
X41889982Y78807430D01*
X41913810Y78759775D01*
X41937637Y78735948D01*
X41985292Y78712120D01*
X42080603Y78688292D01*
X42199741Y78688292D01*
X42295051Y78712120D01*
X42342707Y78735948D01*
X42366534Y78759775D01*
X42390362Y78807430D01*
X42390362Y78855086D01*
X42366534Y78902741D01*
X42342707Y78926569D01*
X42295051Y78950396D01*
X42199741Y78974224D01*
X42080603Y78974224D01*
X41985292Y78950396D01*
X41937637Y78926569D01*
X41913810Y78902741D01*
X41889982Y78855086D01*
X42056775Y78473844D02*
X42390362Y78473844D01*
X42104430Y78473844D02*
X42080603Y78450016D01*
X42056775Y78402361D01*
X42056775Y78330878D01*
X42080603Y78283223D01*
X42128258Y78259395D01*
X42390362Y78259395D01*
X42128258Y77854326D02*
X42128258Y78021119D01*
X42390362Y78021119D02*
X41889982Y78021119D01*
X41889982Y77782843D01*
D12*
%TO.C,C9*%
X53884285Y20574000D02*
X53956857Y20646571D01*
X54029428Y20864285D01*
X54029428Y21009428D01*
X53956857Y21227142D01*
X53811714Y21372285D01*
X53666571Y21444857D01*
X53376285Y21517428D01*
X53158571Y21517428D01*
X52868285Y21444857D01*
X52723142Y21372285D01*
X52578000Y21227142D01*
X52505428Y21009428D01*
X52505428Y20864285D01*
X52578000Y20646571D01*
X52650571Y20574000D01*
X54029428Y19848285D02*
X54029428Y19558000D01*
X53956857Y19412857D01*
X53884285Y19340285D01*
X53666571Y19195142D01*
X53376285Y19122571D01*
X52795714Y19122571D01*
X52650571Y19195142D01*
X52578000Y19267714D01*
X52505428Y19412857D01*
X52505428Y19703142D01*
X52578000Y19848285D01*
X52650571Y19920857D01*
X52795714Y19993428D01*
X53158571Y19993428D01*
X53303714Y19920857D01*
X53376285Y19848285D01*
X53448857Y19703142D01*
X53448857Y19412857D01*
X53376285Y19267714D01*
X53303714Y19195142D01*
X53158571Y19122571D01*
X55999017Y15901851D02*
X55999017Y14740708D01*
X56579588Y15321280D02*
X55418445Y15321280D01*
D11*
%TO.C,C10*%
X57507142Y19057857D02*
X57554761Y19105476D01*
X57602380Y19248333D01*
X57602380Y19343571D01*
X57554761Y19486428D01*
X57459523Y19581666D01*
X57364285Y19629285D01*
X57173809Y19676904D01*
X57030952Y19676904D01*
X56840476Y19629285D01*
X56745238Y19581666D01*
X56650000Y19486428D01*
X56602380Y19343571D01*
X56602380Y19248333D01*
X56650000Y19105476D01*
X56697619Y19057857D01*
X57602380Y18105476D02*
X57602380Y18676904D01*
X57602380Y18391190D02*
X56602380Y18391190D01*
X56745238Y18486428D01*
X56840476Y18581666D01*
X56888095Y18676904D01*
X56602380Y17486428D02*
X56602380Y17391190D01*
X56650000Y17295952D01*
X56697619Y17248333D01*
X56792857Y17200714D01*
X56983333Y17153095D01*
X57221428Y17153095D01*
X57411904Y17200714D01*
X57507142Y17248333D01*
X57554761Y17295952D01*
X57602380Y17391190D01*
X57602380Y17486428D01*
X57554761Y17581666D01*
X57507142Y17629285D01*
X57411904Y17676904D01*
X57221428Y17724523D01*
X56983333Y17724523D01*
X56792857Y17676904D01*
X56697619Y17629285D01*
X56650000Y17581666D01*
X56602380Y17486428D01*
D10*
%TO.C,C11*%
X36516672Y43318792D02*
X36540500Y43294965D01*
X36611983Y43271137D01*
X36659638Y43271137D01*
X36731121Y43294965D01*
X36778776Y43342620D01*
X36802604Y43390275D01*
X36826431Y43485586D01*
X36826431Y43557069D01*
X36802604Y43652379D01*
X36778776Y43700034D01*
X36731121Y43747690D01*
X36659638Y43771517D01*
X36611983Y43771517D01*
X36540500Y43747690D01*
X36516672Y43723862D01*
X36040120Y43271137D02*
X36326051Y43271137D01*
X36183086Y43271137D02*
X36183086Y43771517D01*
X36230741Y43700034D01*
X36278396Y43652379D01*
X36326051Y43628551D01*
X35563568Y43271137D02*
X35849499Y43271137D01*
X35706533Y43271137D02*
X35706533Y43771517D01*
X35754189Y43700034D01*
X35801844Y43652379D01*
X35849499Y43628551D01*
X36604121Y42572637D02*
X36890052Y42572637D01*
X36747087Y42572637D02*
X36747087Y43073017D01*
X36794742Y43001534D01*
X36842397Y42953879D01*
X36890052Y42930051D01*
X36294362Y43073017D02*
X36246707Y43073017D01*
X36199051Y43049190D01*
X36175224Y43025362D01*
X36151396Y42977707D01*
X36127569Y42882396D01*
X36127569Y42763258D01*
X36151396Y42667948D01*
X36175224Y42620292D01*
X36199051Y42596465D01*
X36246707Y42572637D01*
X36294362Y42572637D01*
X36342017Y42596465D01*
X36365845Y42620292D01*
X36389672Y42667948D01*
X36413500Y42763258D01*
X36413500Y42882396D01*
X36389672Y42977707D01*
X36365845Y43025362D01*
X36342017Y43049190D01*
X36294362Y43073017D01*
X35698671Y42906224D02*
X35698671Y42572637D01*
X35913120Y42906224D02*
X35913120Y42644120D01*
X35889292Y42596465D01*
X35841637Y42572637D01*
X35770154Y42572637D01*
X35722499Y42596465D01*
X35698671Y42620292D01*
X35293602Y42834741D02*
X35460395Y42834741D01*
X35460395Y42572637D02*
X35460395Y43073017D01*
X35222119Y43073017D01*
%TO.C,C12*%
X66361672Y37603792D02*
X66385500Y37579965D01*
X66456983Y37556137D01*
X66504638Y37556137D01*
X66576121Y37579965D01*
X66623776Y37627620D01*
X66647604Y37675275D01*
X66671431Y37770586D01*
X66671431Y37842069D01*
X66647604Y37937379D01*
X66623776Y37985034D01*
X66576121Y38032690D01*
X66504638Y38056517D01*
X66456983Y38056517D01*
X66385500Y38032690D01*
X66361672Y38008862D01*
X65885120Y37556137D02*
X66171051Y37556137D01*
X66028086Y37556137D02*
X66028086Y38056517D01*
X66075741Y37985034D01*
X66123396Y37937379D01*
X66171051Y37913551D01*
X65694499Y38008862D02*
X65670671Y38032690D01*
X65623016Y38056517D01*
X65503878Y38056517D01*
X65456223Y38032690D01*
X65432395Y38008862D01*
X65408568Y37961207D01*
X65408568Y37913551D01*
X65432395Y37842069D01*
X65718327Y37556137D01*
X65408568Y37556137D01*
X66210845Y36857637D02*
X66496776Y36857637D01*
X66353810Y36857637D02*
X66353810Y37358017D01*
X66401466Y37286534D01*
X66449121Y37238879D01*
X66496776Y37215051D01*
X65996396Y37191224D02*
X65996396Y36857637D01*
X65996396Y37143569D02*
X65972569Y37167396D01*
X65924913Y37191224D01*
X65853430Y37191224D01*
X65805775Y37167396D01*
X65781948Y37119741D01*
X65781948Y36857637D01*
X65376878Y37119741D02*
X65543671Y37119741D01*
X65543671Y36857637D02*
X65543671Y37358017D01*
X65305395Y37358017D01*
%TO.C,C13*%
X60011672Y22363792D02*
X60035500Y22339965D01*
X60106983Y22316137D01*
X60154638Y22316137D01*
X60226121Y22339965D01*
X60273776Y22387620D01*
X60297604Y22435275D01*
X60321431Y22530586D01*
X60321431Y22602069D01*
X60297604Y22697379D01*
X60273776Y22745034D01*
X60226121Y22792690D01*
X60154638Y22816517D01*
X60106983Y22816517D01*
X60035500Y22792690D01*
X60011672Y22768862D01*
X59535120Y22316137D02*
X59821051Y22316137D01*
X59678086Y22316137D02*
X59678086Y22816517D01*
X59725741Y22745034D01*
X59773396Y22697379D01*
X59821051Y22673551D01*
X59368327Y22816517D02*
X59058568Y22816517D01*
X59225361Y22625896D01*
X59153878Y22625896D01*
X59106223Y22602069D01*
X59082395Y22578241D01*
X59058568Y22530586D01*
X59058568Y22411448D01*
X59082395Y22363792D01*
X59106223Y22339965D01*
X59153878Y22316137D01*
X59296844Y22316137D01*
X59344499Y22339965D01*
X59368327Y22363792D01*
X60591397Y23014637D02*
X60877329Y23014637D01*
X60734363Y23014637D02*
X60734363Y23515017D01*
X60782018Y23443534D01*
X60829673Y23395879D01*
X60877329Y23372051D01*
X60281638Y23515017D02*
X60233983Y23515017D01*
X60186328Y23491190D01*
X60162500Y23467362D01*
X60138672Y23419707D01*
X60114845Y23324396D01*
X60114845Y23205258D01*
X60138672Y23109948D01*
X60162500Y23062292D01*
X60186328Y23038465D01*
X60233983Y23014637D01*
X60281638Y23014637D01*
X60329293Y23038465D01*
X60353121Y23062292D01*
X60376949Y23109948D01*
X60400776Y23205258D01*
X60400776Y23324396D01*
X60376949Y23419707D01*
X60353121Y23467362D01*
X60329293Y23491190D01*
X60281638Y23515017D01*
X59805086Y23515017D02*
X59757430Y23515017D01*
X59709775Y23491190D01*
X59685948Y23467362D01*
X59662120Y23419707D01*
X59638292Y23324396D01*
X59638292Y23205258D01*
X59662120Y23109948D01*
X59685948Y23062292D01*
X59709775Y23038465D01*
X59757430Y23014637D01*
X59805086Y23014637D01*
X59852741Y23038465D01*
X59876569Y23062292D01*
X59900396Y23109948D01*
X59924224Y23205258D01*
X59924224Y23324396D01*
X59900396Y23419707D01*
X59876569Y23467362D01*
X59852741Y23491190D01*
X59805086Y23515017D01*
X59423844Y23348224D02*
X59423844Y23014637D01*
X59423844Y23300569D02*
X59400016Y23324396D01*
X59352361Y23348224D01*
X59280878Y23348224D01*
X59233223Y23324396D01*
X59209395Y23276741D01*
X59209395Y23014637D01*
X58804326Y23276741D02*
X58971119Y23276741D01*
X58971119Y23014637D02*
X58971119Y23515017D01*
X58732843Y23515017D01*
%TO.C,C14*%
X39866207Y82871672D02*
X39890034Y82895500D01*
X39913862Y82966983D01*
X39913862Y83014638D01*
X39890034Y83086121D01*
X39842379Y83133776D01*
X39794724Y83157604D01*
X39699413Y83181431D01*
X39627930Y83181431D01*
X39532620Y83157604D01*
X39484965Y83133776D01*
X39437310Y83086121D01*
X39413482Y83014638D01*
X39413482Y82966983D01*
X39437310Y82895500D01*
X39461137Y82871672D01*
X39913862Y82395120D02*
X39913862Y82681051D01*
X39913862Y82538086D02*
X39413482Y82538086D01*
X39484965Y82585741D01*
X39532620Y82633396D01*
X39556448Y82681051D01*
X39580275Y81966223D02*
X39913862Y81966223D01*
X39389654Y82085361D02*
X39747069Y82204499D01*
X39747069Y81894740D01*
X40612362Y82959121D02*
X40612362Y83245052D01*
X40612362Y83102087D02*
X40111982Y83102087D01*
X40183465Y83149742D01*
X40231120Y83197397D01*
X40254948Y83245052D01*
X40111982Y82649362D02*
X40111982Y82601707D01*
X40135810Y82554051D01*
X40159637Y82530224D01*
X40207292Y82506396D01*
X40302603Y82482569D01*
X40421741Y82482569D01*
X40517051Y82506396D01*
X40564707Y82530224D01*
X40588534Y82554051D01*
X40612362Y82601707D01*
X40612362Y82649362D01*
X40588534Y82697017D01*
X40564707Y82720845D01*
X40517051Y82744672D01*
X40421741Y82768500D01*
X40302603Y82768500D01*
X40207292Y82744672D01*
X40159637Y82720845D01*
X40135810Y82697017D01*
X40111982Y82649362D01*
X40278775Y82053671D02*
X40612362Y82053671D01*
X40278775Y82268120D02*
X40540879Y82268120D01*
X40588534Y82244292D01*
X40612362Y82196637D01*
X40612362Y82125154D01*
X40588534Y82077499D01*
X40564707Y82053671D01*
X40350258Y81648602D02*
X40350258Y81815395D01*
X40612362Y81815395D02*
X40111982Y81815395D01*
X40111982Y81577119D01*
%TO.C,C15*%
X36516672Y40778792D02*
X36540500Y40754965D01*
X36611983Y40731137D01*
X36659638Y40731137D01*
X36731121Y40754965D01*
X36778776Y40802620D01*
X36802604Y40850275D01*
X36826431Y40945586D01*
X36826431Y41017069D01*
X36802604Y41112379D01*
X36778776Y41160034D01*
X36731121Y41207690D01*
X36659638Y41231517D01*
X36611983Y41231517D01*
X36540500Y41207690D01*
X36516672Y41183862D01*
X36040120Y40731137D02*
X36326051Y40731137D01*
X36183086Y40731137D02*
X36183086Y41231517D01*
X36230741Y41160034D01*
X36278396Y41112379D01*
X36326051Y41088551D01*
X35587395Y41231517D02*
X35825671Y41231517D01*
X35849499Y40993241D01*
X35825671Y41017069D01*
X35778016Y41040896D01*
X35658878Y41040896D01*
X35611223Y41017069D01*
X35587395Y40993241D01*
X35563568Y40945586D01*
X35563568Y40826448D01*
X35587395Y40778792D01*
X35611223Y40754965D01*
X35658878Y40731137D01*
X35778016Y40731137D01*
X35825671Y40754965D01*
X35849499Y40778792D01*
X36842397Y40032637D02*
X37128329Y40032637D01*
X36985363Y40032637D02*
X36985363Y40533017D01*
X37033018Y40461534D01*
X37080673Y40413879D01*
X37128329Y40390051D01*
X36532638Y40533017D02*
X36484983Y40533017D01*
X36437328Y40509190D01*
X36413500Y40485362D01*
X36389672Y40437707D01*
X36365845Y40342396D01*
X36365845Y40223258D01*
X36389672Y40127948D01*
X36413500Y40080292D01*
X36437328Y40056465D01*
X36484983Y40032637D01*
X36532638Y40032637D01*
X36580293Y40056465D01*
X36604121Y40080292D01*
X36627949Y40127948D01*
X36651776Y40223258D01*
X36651776Y40342396D01*
X36627949Y40437707D01*
X36604121Y40485362D01*
X36580293Y40509190D01*
X36532638Y40533017D01*
X36056086Y40533017D02*
X36008430Y40533017D01*
X35960775Y40509190D01*
X35936948Y40485362D01*
X35913120Y40437707D01*
X35889292Y40342396D01*
X35889292Y40223258D01*
X35913120Y40127948D01*
X35936948Y40080292D01*
X35960775Y40056465D01*
X36008430Y40032637D01*
X36056086Y40032637D01*
X36103741Y40056465D01*
X36127569Y40080292D01*
X36151396Y40127948D01*
X36175224Y40223258D01*
X36175224Y40342396D01*
X36151396Y40437707D01*
X36127569Y40485362D01*
X36103741Y40509190D01*
X36056086Y40533017D01*
X35674844Y40366224D02*
X35674844Y40032637D01*
X35674844Y40318569D02*
X35651016Y40342396D01*
X35603361Y40366224D01*
X35531878Y40366224D01*
X35484223Y40342396D01*
X35460395Y40294741D01*
X35460395Y40032637D01*
X35055326Y40294741D02*
X35222119Y40294741D01*
X35222119Y40032637D02*
X35222119Y40533017D01*
X34983843Y40533017D01*
D12*
%TO.C,D2*%
X62284428Y19539857D02*
X60760428Y19539857D01*
X60760428Y19177000D01*
X60833000Y18959285D01*
X60978142Y18814142D01*
X61123285Y18741571D01*
X61413571Y18669000D01*
X61631285Y18669000D01*
X61921571Y18741571D01*
X62066714Y18814142D01*
X62211857Y18959285D01*
X62284428Y19177000D01*
X62284428Y19539857D01*
X60905571Y18088428D02*
X60833000Y18015857D01*
X60760428Y17870714D01*
X60760428Y17507857D01*
X60833000Y17362714D01*
X60905571Y17290142D01*
X61050714Y17217571D01*
X61195857Y17217571D01*
X61413571Y17290142D01*
X62284428Y18161000D01*
X62284428Y17217571D01*
D13*
X63520622Y15546311D02*
X63020242Y15546311D01*
X63520622Y15260380D02*
X63234690Y15474829D01*
X63020242Y15260380D02*
X63306173Y15546311D01*
X63278596Y21833598D02*
X63278596Y21595321D01*
X63421562Y21881253D02*
X62921182Y21714460D01*
X63421562Y21547666D01*
D12*
%TO.C,F1*%
X67863000Y16618857D02*
X68371000Y16618857D01*
X68371000Y15820571D02*
X68371000Y17344571D01*
X67645285Y17344571D01*
X66266428Y15820571D02*
X67137285Y15820571D01*
X66701857Y15820571D02*
X66701857Y17344571D01*
X66847000Y17126857D01*
X66992142Y16981714D01*
X67137285Y16909142D01*
D11*
%TO.C,J7*%
X36528333Y32297619D02*
X36528333Y31583333D01*
X36575952Y31440476D01*
X36671190Y31345238D01*
X36814047Y31297619D01*
X36909285Y31297619D01*
X36147380Y32297619D02*
X35480714Y32297619D01*
X35909285Y31297619D01*
D10*
%TO.C,R2*%
X32928862Y41358396D02*
X32690586Y41525190D01*
X32928862Y41644328D02*
X32428482Y41644328D01*
X32428482Y41453707D01*
X32452310Y41406051D01*
X32476137Y41382224D01*
X32523792Y41358396D01*
X32595275Y41358396D01*
X32642930Y41382224D01*
X32666758Y41406051D01*
X32690586Y41453707D01*
X32690586Y41644328D01*
X32476137Y41167775D02*
X32452310Y41143948D01*
X32428482Y41096292D01*
X32428482Y40977154D01*
X32452310Y40929499D01*
X32476137Y40905671D01*
X32523792Y40881844D01*
X32571448Y40881844D01*
X32642930Y40905671D01*
X32928862Y41191603D01*
X32928862Y40881844D01*
X32230362Y41735586D02*
X32230362Y42021518D01*
X32230362Y41878552D02*
X31729982Y41878552D01*
X31801465Y41926207D01*
X31849120Y41973862D01*
X31872948Y42021518D01*
X31729982Y41425827D02*
X31729982Y41378172D01*
X31753810Y41330517D01*
X31777637Y41306689D01*
X31825292Y41282861D01*
X31920603Y41259034D01*
X32039741Y41259034D01*
X32135051Y41282861D01*
X32182707Y41306689D01*
X32206534Y41330517D01*
X32230362Y41378172D01*
X32230362Y41425827D01*
X32206534Y41473482D01*
X32182707Y41497310D01*
X32135051Y41521138D01*
X32039741Y41544965D01*
X31920603Y41544965D01*
X31825292Y41521138D01*
X31777637Y41497310D01*
X31753810Y41473482D01*
X31729982Y41425827D01*
X31729982Y40949275D02*
X31729982Y40901620D01*
X31753810Y40853964D01*
X31777637Y40830137D01*
X31825292Y40806309D01*
X31920603Y40782481D01*
X32039741Y40782481D01*
X32135051Y40806309D01*
X32182707Y40830137D01*
X32206534Y40853964D01*
X32230362Y40901620D01*
X32230362Y40949275D01*
X32206534Y40996930D01*
X32182707Y41020758D01*
X32135051Y41044585D01*
X32039741Y41068413D01*
X31920603Y41068413D01*
X31825292Y41044585D01*
X31777637Y41020758D01*
X31753810Y40996930D01*
X31729982Y40949275D01*
%TO.C,R3*%
X40548862Y41358396D02*
X40310586Y41525190D01*
X40548862Y41644328D02*
X40048482Y41644328D01*
X40048482Y41453707D01*
X40072310Y41406051D01*
X40096137Y41382224D01*
X40143792Y41358396D01*
X40215275Y41358396D01*
X40262930Y41382224D01*
X40286758Y41406051D01*
X40310586Y41453707D01*
X40310586Y41644328D01*
X40048482Y41191603D02*
X40048482Y40881844D01*
X40239103Y41048637D01*
X40239103Y40977154D01*
X40262930Y40929499D01*
X40286758Y40905671D01*
X40334413Y40881844D01*
X40453551Y40881844D01*
X40501207Y40905671D01*
X40525034Y40929499D01*
X40548862Y40977154D01*
X40548862Y41120120D01*
X40525034Y41167775D01*
X40501207Y41191603D01*
X39850362Y41735586D02*
X39850362Y42021518D01*
X39850362Y41878552D02*
X39349982Y41878552D01*
X39421465Y41926207D01*
X39469120Y41973862D01*
X39492948Y42021518D01*
X39349982Y41425827D02*
X39349982Y41378172D01*
X39373810Y41330517D01*
X39397637Y41306689D01*
X39445292Y41282861D01*
X39540603Y41259034D01*
X39659741Y41259034D01*
X39755051Y41282861D01*
X39802707Y41306689D01*
X39826534Y41330517D01*
X39850362Y41378172D01*
X39850362Y41425827D01*
X39826534Y41473482D01*
X39802707Y41497310D01*
X39755051Y41521138D01*
X39659741Y41544965D01*
X39540603Y41544965D01*
X39445292Y41521138D01*
X39397637Y41497310D01*
X39373810Y41473482D01*
X39349982Y41425827D01*
X39349982Y40949275D02*
X39349982Y40901620D01*
X39373810Y40853964D01*
X39397637Y40830137D01*
X39445292Y40806309D01*
X39540603Y40782481D01*
X39659741Y40782481D01*
X39755051Y40806309D01*
X39802707Y40830137D01*
X39826534Y40853964D01*
X39850362Y40901620D01*
X39850362Y40949275D01*
X39826534Y40996930D01*
X39802707Y41020758D01*
X39755051Y41044585D01*
X39659741Y41068413D01*
X39540603Y41068413D01*
X39445292Y41044585D01*
X39397637Y41020758D01*
X39373810Y40996930D01*
X39349982Y40949275D01*
%TO.C,R5*%
X32611362Y85173396D02*
X32373086Y85340190D01*
X32611362Y85459328D02*
X32110982Y85459328D01*
X32110982Y85268707D01*
X32134810Y85221051D01*
X32158637Y85197224D01*
X32206292Y85173396D01*
X32277775Y85173396D01*
X32325430Y85197224D01*
X32349258Y85221051D01*
X32373086Y85268707D01*
X32373086Y85459328D01*
X32110982Y84720671D02*
X32110982Y84958948D01*
X32349258Y84982775D01*
X32325430Y84958948D01*
X32301603Y84911292D01*
X32301603Y84792154D01*
X32325430Y84744499D01*
X32349258Y84720671D01*
X32396913Y84696844D01*
X32516051Y84696844D01*
X32563707Y84720671D01*
X32587534Y84744499D01*
X32611362Y84792154D01*
X32611362Y84911292D01*
X32587534Y84958948D01*
X32563707Y84982775D01*
X32976275Y85308500D02*
X33309862Y85308500D01*
X32785654Y85427638D02*
X33143069Y85546776D01*
X33143069Y85237017D01*
X33309862Y85046396D02*
X32809482Y85046396D01*
X33119241Y84998741D02*
X33309862Y84855775D01*
X32976275Y84855775D02*
X33166896Y85046396D01*
X32809482Y84688982D02*
X32809482Y84355395D01*
X33309862Y84569844D01*
%TO.C,R6*%
X69758862Y46755896D02*
X69520586Y46922690D01*
X69758862Y47041828D02*
X69258482Y47041828D01*
X69258482Y46851207D01*
X69282310Y46803551D01*
X69306137Y46779724D01*
X69353792Y46755896D01*
X69425275Y46755896D01*
X69472930Y46779724D01*
X69496758Y46803551D01*
X69520586Y46851207D01*
X69520586Y47041828D01*
X69258482Y46326999D02*
X69258482Y46422310D01*
X69282310Y46469965D01*
X69306137Y46493792D01*
X69377620Y46541448D01*
X69472930Y46565275D01*
X69663551Y46565275D01*
X69711207Y46541448D01*
X69735034Y46517620D01*
X69758862Y46469965D01*
X69758862Y46374654D01*
X69735034Y46326999D01*
X69711207Y46303171D01*
X69663551Y46279344D01*
X69544413Y46279344D01*
X69496758Y46303171D01*
X69472930Y46326999D01*
X69449103Y46374654D01*
X69449103Y46469965D01*
X69472930Y46517620D01*
X69496758Y46541448D01*
X69544413Y46565275D01*
X69060362Y47097345D02*
X69060362Y47383276D01*
X69060362Y47240310D02*
X68559982Y47240310D01*
X68631465Y47287966D01*
X68679120Y47335621D01*
X68702948Y47383276D01*
X68559982Y46787586D02*
X68559982Y46739930D01*
X68583810Y46692275D01*
X68607637Y46668448D01*
X68655292Y46644620D01*
X68750603Y46620792D01*
X68869741Y46620792D01*
X68965051Y46644620D01*
X69012707Y46668448D01*
X69036534Y46692275D01*
X69060362Y46739930D01*
X69060362Y46787586D01*
X69036534Y46835241D01*
X69012707Y46859069D01*
X68965051Y46882896D01*
X68869741Y46906724D01*
X68750603Y46906724D01*
X68655292Y46882896D01*
X68607637Y46859069D01*
X68583810Y46835241D01*
X68559982Y46787586D01*
X69060362Y46406344D02*
X68559982Y46406344D01*
X68869741Y46358689D02*
X69060362Y46215723D01*
X68726775Y46215723D02*
X68917396Y46406344D01*
%TO.C,R7*%
X69123862Y50565896D02*
X68885586Y50732690D01*
X69123862Y50851828D02*
X68623482Y50851828D01*
X68623482Y50661207D01*
X68647310Y50613551D01*
X68671137Y50589724D01*
X68718792Y50565896D01*
X68790275Y50565896D01*
X68837930Y50589724D01*
X68861758Y50613551D01*
X68885586Y50661207D01*
X68885586Y50851828D01*
X68623482Y50399103D02*
X68623482Y50065516D01*
X69123862Y50279965D01*
X69822362Y50653345D02*
X69822362Y50939276D01*
X69822362Y50796310D02*
X69321982Y50796310D01*
X69393465Y50843966D01*
X69441120Y50891621D01*
X69464948Y50939276D01*
X69321982Y50343586D02*
X69321982Y50295930D01*
X69345810Y50248275D01*
X69369637Y50224448D01*
X69417292Y50200620D01*
X69512603Y50176792D01*
X69631741Y50176792D01*
X69727051Y50200620D01*
X69774707Y50224448D01*
X69798534Y50248275D01*
X69822362Y50295930D01*
X69822362Y50343586D01*
X69798534Y50391241D01*
X69774707Y50415069D01*
X69727051Y50438896D01*
X69631741Y50462724D01*
X69512603Y50462724D01*
X69417292Y50438896D01*
X69369637Y50415069D01*
X69345810Y50391241D01*
X69321982Y50343586D01*
X69822362Y49962344D02*
X69321982Y49962344D01*
X69631741Y49914689D02*
X69822362Y49771723D01*
X69488775Y49771723D02*
X69679396Y49962344D01*
D11*
%TO.C,U2*%
X66166904Y35472619D02*
X66166904Y34663095D01*
X66119285Y34567857D01*
X66071666Y34520238D01*
X65976428Y34472619D01*
X65785952Y34472619D01*
X65690714Y34520238D01*
X65643095Y34567857D01*
X65595476Y34663095D01*
X65595476Y35472619D01*
X65166904Y35377380D02*
X65119285Y35425000D01*
X65024047Y35472619D01*
X64785952Y35472619D01*
X64690714Y35425000D01*
X64643095Y35377380D01*
X64595476Y35282142D01*
X64595476Y35186904D01*
X64643095Y35044047D01*
X65214523Y34472619D01*
X64595476Y34472619D01*
%TO.C,U3*%
X57276904Y83097619D02*
X57276904Y82288095D01*
X57229285Y82192857D01*
X57181666Y82145238D01*
X57086428Y82097619D01*
X56895952Y82097619D01*
X56800714Y82145238D01*
X56753095Y82192857D01*
X56705476Y82288095D01*
X56705476Y83097619D01*
X56324523Y83097619D02*
X55705476Y83097619D01*
X56038809Y82716666D01*
X55895952Y82716666D01*
X55800714Y82669047D01*
X55753095Y82621428D01*
X55705476Y82526190D01*
X55705476Y82288095D01*
X55753095Y82192857D01*
X55800714Y82145238D01*
X55895952Y82097619D01*
X56181666Y82097619D01*
X56276904Y82145238D01*
X56324523Y82192857D01*
%TO.C,Y2*%
X57138890Y49518190D02*
X57615080Y49518190D01*
X56615080Y49851523D02*
X57138890Y49518190D01*
X56615080Y49184857D01*
X56710319Y48899142D02*
X56662700Y48851523D01*
X56615080Y48756285D01*
X56615080Y48518190D01*
X56662700Y48422952D01*
X56710319Y48375333D01*
X56805557Y48327714D01*
X56900795Y48327714D01*
X57043652Y48375333D01*
X57615080Y48946761D01*
X57615080Y48327714D01*
%TO.C,U1*%
X35647380Y86486904D02*
X36456904Y86486904D01*
X36552142Y86439285D01*
X36599761Y86391666D01*
X36647380Y86296428D01*
X36647380Y86105952D01*
X36599761Y86010714D01*
X36552142Y85963095D01*
X36456904Y85915476D01*
X35647380Y85915476D01*
X36647380Y84915476D02*
X36647380Y85486904D01*
X36647380Y85201190D02*
X35647380Y85201190D01*
X35790238Y85296428D01*
X35885476Y85391666D01*
X35933095Y85486904D01*
D10*
%TO.C,R10*%
X16418862Y11116672D02*
X16180586Y11283466D01*
X16418862Y11402604D02*
X15918482Y11402604D01*
X15918482Y11211983D01*
X15942310Y11164328D01*
X15966137Y11140500D01*
X16013792Y11116672D01*
X16085275Y11116672D01*
X16132930Y11140500D01*
X16156758Y11164328D01*
X16180586Y11211983D01*
X16180586Y11402604D01*
X16418862Y10640120D02*
X16418862Y10926051D01*
X16418862Y10783086D02*
X15918482Y10783086D01*
X15989965Y10830741D01*
X16037620Y10878396D01*
X16061448Y10926051D01*
X15918482Y10330361D02*
X15918482Y10282706D01*
X15942310Y10235050D01*
X15966137Y10211223D01*
X16013792Y10187395D01*
X16109103Y10163568D01*
X16228241Y10163568D01*
X16323551Y10187395D01*
X16371207Y10211223D01*
X16395034Y10235050D01*
X16418862Y10282706D01*
X16418862Y10330361D01*
X16395034Y10378016D01*
X16371207Y10401844D01*
X16323551Y10425671D01*
X16228241Y10449499D01*
X16109103Y10449499D01*
X16013792Y10425671D01*
X15966137Y10401844D01*
X15942310Y10378016D01*
X15918482Y10330361D01*
X15267637Y11505776D02*
X15243810Y11481949D01*
X15219982Y11434293D01*
X15219982Y11315155D01*
X15243810Y11267500D01*
X15267637Y11243672D01*
X15315292Y11219845D01*
X15362948Y11219845D01*
X15434430Y11243672D01*
X15720362Y11529604D01*
X15720362Y11219845D01*
X15720362Y11005396D02*
X15219982Y11005396D01*
X15529741Y10957741D02*
X15720362Y10814775D01*
X15386775Y10814775D02*
X15577396Y11005396D01*
X15267637Y10624154D02*
X15243810Y10600327D01*
X15219982Y10552671D01*
X15219982Y10433533D01*
X15243810Y10385878D01*
X15267637Y10362050D01*
X15315292Y10338223D01*
X15362948Y10338223D01*
X15434430Y10362050D01*
X15720362Y10647982D01*
X15720362Y10338223D01*
D12*
%TO.C,F2*%
X69106142Y29083000D02*
X69106142Y29591000D01*
X69904428Y29591000D02*
X68380428Y29591000D01*
X68380428Y28865285D01*
X68525571Y28357285D02*
X68453000Y28284714D01*
X68380428Y28139571D01*
X68380428Y27776714D01*
X68453000Y27631571D01*
X68525571Y27559000D01*
X68670714Y27486428D01*
X68815857Y27486428D01*
X69033571Y27559000D01*
X69904428Y28429857D01*
X69904428Y27486428D01*
D11*
%TO.C,BT3*%
X38250714Y52911428D02*
X38107857Y52863809D01*
X38060238Y52816190D01*
X38012619Y52720952D01*
X38012619Y52578095D01*
X38060238Y52482857D01*
X38107857Y52435238D01*
X38203095Y52387619D01*
X38584047Y52387619D01*
X38584047Y53387619D01*
X38250714Y53387619D01*
X38155476Y53340000D01*
X38107857Y53292380D01*
X38060238Y53197142D01*
X38060238Y53101904D01*
X38107857Y53006666D01*
X38155476Y52959047D01*
X38250714Y52911428D01*
X38584047Y52911428D01*
X37726904Y53387619D02*
X37155476Y53387619D01*
X37441190Y52387619D02*
X37441190Y53387619D01*
X36917380Y53387619D02*
X36298333Y53387619D01*
X36631666Y53006666D01*
X36488809Y53006666D01*
X36393571Y52959047D01*
X36345952Y52911428D01*
X36298333Y52816190D01*
X36298333Y52578095D01*
X36345952Y52482857D01*
X36393571Y52435238D01*
X36488809Y52387619D01*
X36774523Y52387619D01*
X36869761Y52435238D01*
X36917380Y52482857D01*
X48666304Y53349542D02*
X47142495Y53349542D01*
X47904400Y52587638D02*
X47904400Y54111447D01*
%TO.C,U5*%
X29297380Y86486904D02*
X30106904Y86486904D01*
X30202142Y86439285D01*
X30249761Y86391666D01*
X30297380Y86296428D01*
X30297380Y86105952D01*
X30249761Y86010714D01*
X30202142Y85963095D01*
X30106904Y85915476D01*
X29297380Y85915476D01*
X29297380Y84963095D02*
X29297380Y85439285D01*
X29773571Y85486904D01*
X29725952Y85439285D01*
X29678333Y85344047D01*
X29678333Y85105952D01*
X29725952Y85010714D01*
X29773571Y84963095D01*
X29868809Y84915476D01*
X30106904Y84915476D01*
X30202142Y84963095D01*
X30249761Y85010714D01*
X30297380Y85105952D01*
X30297380Y85344047D01*
X30249761Y85439285D01*
X30202142Y85486904D01*
D14*
%TO.C,L1*%
X38735000Y75855285D02*
X39097857Y75855285D01*
X39097857Y76617285D01*
X38081857Y75855285D02*
X38517285Y75855285D01*
X38299571Y75855285D02*
X38299571Y76617285D01*
X38372142Y76508428D01*
X38444714Y76435857D01*
X38517285Y76399571D01*
D10*
%TO.C,C19*%
X57154172Y89673792D02*
X57178000Y89649965D01*
X57249483Y89626137D01*
X57297138Y89626137D01*
X57368621Y89649965D01*
X57416276Y89697620D01*
X57440104Y89745275D01*
X57463931Y89840586D01*
X57463931Y89912069D01*
X57440104Y90007379D01*
X57416276Y90055034D01*
X57368621Y90102690D01*
X57297138Y90126517D01*
X57249483Y90126517D01*
X57178000Y90102690D01*
X57154172Y90078862D01*
X56677620Y89626137D02*
X56963551Y89626137D01*
X56820586Y89626137D02*
X56820586Y90126517D01*
X56868241Y90055034D01*
X56915896Y90007379D01*
X56963551Y89983551D01*
X56439344Y89626137D02*
X56344033Y89626137D01*
X56296378Y89649965D01*
X56272550Y89673792D01*
X56224895Y89745275D01*
X56201068Y89840586D01*
X56201068Y90031207D01*
X56224895Y90078862D01*
X56248723Y90102690D01*
X56296378Y90126517D01*
X56391689Y90126517D01*
X56439344Y90102690D01*
X56463171Y90078862D01*
X56486999Y90031207D01*
X56486999Y89912069D01*
X56463171Y89864413D01*
X56439344Y89840586D01*
X56391689Y89816758D01*
X56296378Y89816758D01*
X56248723Y89840586D01*
X56224895Y89864413D01*
X56201068Y89912069D01*
X57733897Y90324637D02*
X58019829Y90324637D01*
X57876863Y90324637D02*
X57876863Y90825017D01*
X57924518Y90753534D01*
X57972173Y90705879D01*
X58019829Y90682051D01*
X57424138Y90825017D02*
X57376483Y90825017D01*
X57328828Y90801190D01*
X57305000Y90777362D01*
X57281172Y90729707D01*
X57257345Y90634396D01*
X57257345Y90515258D01*
X57281172Y90419948D01*
X57305000Y90372292D01*
X57328828Y90348465D01*
X57376483Y90324637D01*
X57424138Y90324637D01*
X57471793Y90348465D01*
X57495621Y90372292D01*
X57519449Y90419948D01*
X57543276Y90515258D01*
X57543276Y90634396D01*
X57519449Y90729707D01*
X57495621Y90777362D01*
X57471793Y90801190D01*
X57424138Y90825017D01*
X56947586Y90825017D02*
X56899930Y90825017D01*
X56852275Y90801190D01*
X56828448Y90777362D01*
X56804620Y90729707D01*
X56780792Y90634396D01*
X56780792Y90515258D01*
X56804620Y90419948D01*
X56828448Y90372292D01*
X56852275Y90348465D01*
X56899930Y90324637D01*
X56947586Y90324637D01*
X56995241Y90348465D01*
X57019069Y90372292D01*
X57042896Y90419948D01*
X57066724Y90515258D01*
X57066724Y90634396D01*
X57042896Y90729707D01*
X57019069Y90777362D01*
X56995241Y90801190D01*
X56947586Y90825017D01*
X56566344Y90658224D02*
X56566344Y90324637D01*
X56566344Y90610569D02*
X56542516Y90634396D01*
X56494861Y90658224D01*
X56423378Y90658224D01*
X56375723Y90634396D01*
X56351895Y90586741D01*
X56351895Y90324637D01*
X55946826Y90586741D02*
X56113619Y90586741D01*
X56113619Y90324637D02*
X56113619Y90825017D01*
X55875343Y90825017D01*
%TO.C,C20*%
X60646672Y72528792D02*
X60670500Y72504965D01*
X60741983Y72481137D01*
X60789638Y72481137D01*
X60861121Y72504965D01*
X60908776Y72552620D01*
X60932604Y72600275D01*
X60956431Y72695586D01*
X60956431Y72767069D01*
X60932604Y72862379D01*
X60908776Y72910034D01*
X60861121Y72957690D01*
X60789638Y72981517D01*
X60741983Y72981517D01*
X60670500Y72957690D01*
X60646672Y72933862D01*
X60456051Y72933862D02*
X60432224Y72957690D01*
X60384569Y72981517D01*
X60265430Y72981517D01*
X60217775Y72957690D01*
X60193948Y72933862D01*
X60170120Y72886207D01*
X60170120Y72838551D01*
X60193948Y72767069D01*
X60479879Y72481137D01*
X60170120Y72481137D01*
X59860361Y72981517D02*
X59812706Y72981517D01*
X59765050Y72957690D01*
X59741223Y72933862D01*
X59717395Y72886207D01*
X59693568Y72790896D01*
X59693568Y72671758D01*
X59717395Y72576448D01*
X59741223Y72528792D01*
X59765050Y72504965D01*
X59812706Y72481137D01*
X59860361Y72481137D01*
X59908016Y72504965D01*
X59931844Y72528792D01*
X59955671Y72576448D01*
X59979499Y72671758D01*
X59979499Y72790896D01*
X59955671Y72886207D01*
X59931844Y72933862D01*
X59908016Y72957690D01*
X59860361Y72981517D01*
X61226397Y73179637D02*
X61512329Y73179637D01*
X61369363Y73179637D02*
X61369363Y73680017D01*
X61417018Y73608534D01*
X61464673Y73560879D01*
X61512329Y73537051D01*
X60916638Y73680017D02*
X60868983Y73680017D01*
X60821328Y73656190D01*
X60797500Y73632362D01*
X60773672Y73584707D01*
X60749845Y73489396D01*
X60749845Y73370258D01*
X60773672Y73274948D01*
X60797500Y73227292D01*
X60821328Y73203465D01*
X60868983Y73179637D01*
X60916638Y73179637D01*
X60964293Y73203465D01*
X60988121Y73227292D01*
X61011949Y73274948D01*
X61035776Y73370258D01*
X61035776Y73489396D01*
X61011949Y73584707D01*
X60988121Y73632362D01*
X60964293Y73656190D01*
X60916638Y73680017D01*
X60440086Y73680017D02*
X60392430Y73680017D01*
X60344775Y73656190D01*
X60320948Y73632362D01*
X60297120Y73584707D01*
X60273292Y73489396D01*
X60273292Y73370258D01*
X60297120Y73274948D01*
X60320948Y73227292D01*
X60344775Y73203465D01*
X60392430Y73179637D01*
X60440086Y73179637D01*
X60487741Y73203465D01*
X60511569Y73227292D01*
X60535396Y73274948D01*
X60559224Y73370258D01*
X60559224Y73489396D01*
X60535396Y73584707D01*
X60511569Y73632362D01*
X60487741Y73656190D01*
X60440086Y73680017D01*
X60058844Y73513224D02*
X60058844Y73179637D01*
X60058844Y73465569D02*
X60035016Y73489396D01*
X59987361Y73513224D01*
X59915878Y73513224D01*
X59868223Y73489396D01*
X59844395Y73441741D01*
X59844395Y73179637D01*
X59439326Y73441741D02*
X59606119Y73441741D01*
X59606119Y73179637D02*
X59606119Y73680017D01*
X59367843Y73680017D01*
%TO.C,C21*%
X65901207Y82554172D02*
X65925034Y82578000D01*
X65948862Y82649483D01*
X65948862Y82697138D01*
X65925034Y82768621D01*
X65877379Y82816276D01*
X65829724Y82840104D01*
X65734413Y82863931D01*
X65662930Y82863931D01*
X65567620Y82840104D01*
X65519965Y82816276D01*
X65472310Y82768621D01*
X65448482Y82697138D01*
X65448482Y82649483D01*
X65472310Y82578000D01*
X65496137Y82554172D01*
X65496137Y82363551D02*
X65472310Y82339724D01*
X65448482Y82292069D01*
X65448482Y82172930D01*
X65472310Y82125275D01*
X65496137Y82101448D01*
X65543792Y82077620D01*
X65591448Y82077620D01*
X65662930Y82101448D01*
X65948862Y82387379D01*
X65948862Y82077620D01*
X65948862Y81601068D02*
X65948862Y81886999D01*
X65948862Y81744033D02*
X65448482Y81744033D01*
X65519965Y81791689D01*
X65567620Y81839344D01*
X65591448Y81886999D01*
X66647362Y82879897D02*
X66647362Y83165829D01*
X66647362Y83022863D02*
X66146982Y83022863D01*
X66218465Y83070518D01*
X66266120Y83118173D01*
X66289948Y83165829D01*
X66146982Y82570138D02*
X66146982Y82522483D01*
X66170810Y82474828D01*
X66194637Y82451000D01*
X66242292Y82427172D01*
X66337603Y82403345D01*
X66456741Y82403345D01*
X66552051Y82427172D01*
X66599707Y82451000D01*
X66623534Y82474828D01*
X66647362Y82522483D01*
X66647362Y82570138D01*
X66623534Y82617793D01*
X66599707Y82641621D01*
X66552051Y82665449D01*
X66456741Y82689276D01*
X66337603Y82689276D01*
X66242292Y82665449D01*
X66194637Y82641621D01*
X66170810Y82617793D01*
X66146982Y82570138D01*
X66146982Y82093586D02*
X66146982Y82045930D01*
X66170810Y81998275D01*
X66194637Y81974448D01*
X66242292Y81950620D01*
X66337603Y81926792D01*
X66456741Y81926792D01*
X66552051Y81950620D01*
X66599707Y81974448D01*
X66623534Y81998275D01*
X66647362Y82045930D01*
X66647362Y82093586D01*
X66623534Y82141241D01*
X66599707Y82165069D01*
X66552051Y82188896D01*
X66456741Y82212724D01*
X66337603Y82212724D01*
X66242292Y82188896D01*
X66194637Y82165069D01*
X66170810Y82141241D01*
X66146982Y82093586D01*
X66313775Y81712344D02*
X66647362Y81712344D01*
X66361430Y81712344D02*
X66337603Y81688516D01*
X66313775Y81640861D01*
X66313775Y81569378D01*
X66337603Y81521723D01*
X66385258Y81497895D01*
X66647362Y81497895D01*
X66385258Y81092826D02*
X66385258Y81259619D01*
X66647362Y81259619D02*
X66146982Y81259619D01*
X66146982Y81021343D01*
D11*
%TO.C,J34*%
X36369523Y15787619D02*
X36369523Y15073333D01*
X36417142Y14930476D01*
X36512380Y14835238D01*
X36655238Y14787619D01*
X36750476Y14787619D01*
X35988571Y15787619D02*
X35369523Y15787619D01*
X35702857Y15406666D01*
X35560000Y15406666D01*
X35464761Y15359047D01*
X35417142Y15311428D01*
X35369523Y15216190D01*
X35369523Y14978095D01*
X35417142Y14882857D01*
X35464761Y14835238D01*
X35560000Y14787619D01*
X35845714Y14787619D01*
X35940952Y14835238D01*
X35988571Y14882857D01*
X34512380Y15454285D02*
X34512380Y14787619D01*
X34750476Y15835238D02*
X34988571Y15120952D01*
X34369523Y15120952D01*
%TO.C,C22*%
X60682142Y64142857D02*
X60729761Y64190476D01*
X60777380Y64333333D01*
X60777380Y64428571D01*
X60729761Y64571428D01*
X60634523Y64666666D01*
X60539285Y64714285D01*
X60348809Y64761904D01*
X60205952Y64761904D01*
X60015476Y64714285D01*
X59920238Y64666666D01*
X59825000Y64571428D01*
X59777380Y64428571D01*
X59777380Y64333333D01*
X59825000Y64190476D01*
X59872619Y64142857D01*
X59872619Y63761904D02*
X59825000Y63714285D01*
X59777380Y63619047D01*
X59777380Y63380952D01*
X59825000Y63285714D01*
X59872619Y63238095D01*
X59967857Y63190476D01*
X60063095Y63190476D01*
X60205952Y63238095D01*
X60777380Y63809523D01*
X60777380Y63190476D01*
X59872619Y62809523D02*
X59825000Y62761904D01*
X59777380Y62666666D01*
X59777380Y62428571D01*
X59825000Y62333333D01*
X59872619Y62285714D01*
X59967857Y62238095D01*
X60063095Y62238095D01*
X60205952Y62285714D01*
X60777380Y62857142D01*
X60777380Y62238095D01*
%TO.C,R11*%
X66492380Y60967857D02*
X66016190Y61301190D01*
X66492380Y61539285D02*
X65492380Y61539285D01*
X65492380Y61158333D01*
X65540000Y61063095D01*
X65587619Y61015476D01*
X65682857Y60967857D01*
X65825714Y60967857D01*
X65920952Y61015476D01*
X65968571Y61063095D01*
X66016190Y61158333D01*
X66016190Y61539285D01*
X66492380Y60015476D02*
X66492380Y60586904D01*
X66492380Y60301190D02*
X65492380Y60301190D01*
X65635238Y60396428D01*
X65730476Y60491666D01*
X65778095Y60586904D01*
X66492380Y59063095D02*
X66492380Y59634523D01*
X66492380Y59348809D02*
X65492380Y59348809D01*
X65635238Y59444047D01*
X65730476Y59539285D01*
X65778095Y59634523D01*
%TO.C,R12*%
X68397380Y60967857D02*
X67921190Y61301190D01*
X68397380Y61539285D02*
X67397380Y61539285D01*
X67397380Y61158333D01*
X67445000Y61063095D01*
X67492619Y61015476D01*
X67587857Y60967857D01*
X67730714Y60967857D01*
X67825952Y61015476D01*
X67873571Y61063095D01*
X67921190Y61158333D01*
X67921190Y61539285D01*
X68397380Y60015476D02*
X68397380Y60586904D01*
X68397380Y60301190D02*
X67397380Y60301190D01*
X67540238Y60396428D01*
X67635476Y60491666D01*
X67683095Y60586904D01*
X67492619Y59634523D02*
X67445000Y59586904D01*
X67397380Y59491666D01*
X67397380Y59253571D01*
X67445000Y59158333D01*
X67492619Y59110714D01*
X67587857Y59063095D01*
X67683095Y59063095D01*
X67825952Y59110714D01*
X68397380Y59682142D01*
X68397380Y59063095D01*
%TO.C,R15*%
X63317380Y63507857D02*
X62841190Y63841190D01*
X63317380Y64079285D02*
X62317380Y64079285D01*
X62317380Y63698333D01*
X62365000Y63603095D01*
X62412619Y63555476D01*
X62507857Y63507857D01*
X62650714Y63507857D01*
X62745952Y63555476D01*
X62793571Y63603095D01*
X62841190Y63698333D01*
X62841190Y64079285D01*
X63317380Y62555476D02*
X63317380Y63126904D01*
X63317380Y62841190D02*
X62317380Y62841190D01*
X62460238Y62936428D01*
X62555476Y63031666D01*
X62603095Y63126904D01*
X62317380Y61650714D02*
X62317380Y62126904D01*
X62793571Y62174523D01*
X62745952Y62126904D01*
X62698333Y62031666D01*
X62698333Y61793571D01*
X62745952Y61698333D01*
X62793571Y61650714D01*
X62888809Y61603095D01*
X63126904Y61603095D01*
X63222142Y61650714D01*
X63269761Y61698333D01*
X63317380Y61793571D01*
X63317380Y62031666D01*
X63269761Y62126904D01*
X63222142Y62174523D01*
%TO.C,R16*%
X62872857Y59237619D02*
X63206190Y59713809D01*
X63444285Y59237619D02*
X63444285Y60237619D01*
X63063333Y60237619D01*
X62968095Y60190000D01*
X62920476Y60142380D01*
X62872857Y60047142D01*
X62872857Y59904285D01*
X62920476Y59809047D01*
X62968095Y59761428D01*
X63063333Y59713809D01*
X63444285Y59713809D01*
X61920476Y59237619D02*
X62491904Y59237619D01*
X62206190Y59237619D02*
X62206190Y60237619D01*
X62301428Y60094761D01*
X62396666Y59999523D01*
X62491904Y59951904D01*
X61063333Y60237619D02*
X61253809Y60237619D01*
X61349047Y60190000D01*
X61396666Y60142380D01*
X61491904Y59999523D01*
X61539523Y59809047D01*
X61539523Y59428095D01*
X61491904Y59332857D01*
X61444285Y59285238D01*
X61349047Y59237619D01*
X61158571Y59237619D01*
X61063333Y59285238D01*
X61015714Y59332857D01*
X60968095Y59428095D01*
X60968095Y59666190D01*
X61015714Y59761428D01*
X61063333Y59809047D01*
X61158571Y59856666D01*
X61349047Y59856666D01*
X61444285Y59809047D01*
X61491904Y59761428D01*
X61539523Y59666190D01*
%TO.C,U6*%
X65531904Y56427619D02*
X65531904Y55618095D01*
X65484285Y55522857D01*
X65436666Y55475238D01*
X65341428Y55427619D01*
X65150952Y55427619D01*
X65055714Y55475238D01*
X65008095Y55522857D01*
X64960476Y55618095D01*
X64960476Y56427619D01*
X64055714Y56427619D02*
X64246190Y56427619D01*
X64341428Y56380000D01*
X64389047Y56332380D01*
X64484285Y56189523D01*
X64531904Y55999047D01*
X64531904Y55618095D01*
X64484285Y55522857D01*
X64436666Y55475238D01*
X64341428Y55427619D01*
X64150952Y55427619D01*
X64055714Y55475238D01*
X64008095Y55522857D01*
X63960476Y55618095D01*
X63960476Y55856190D01*
X64008095Y55951428D01*
X64055714Y55999047D01*
X64150952Y56046666D01*
X64341428Y56046666D01*
X64436666Y55999047D01*
X64484285Y55951428D01*
X64531904Y55856190D01*
%TO.C,C18*%
X64008000Y44513500D02*
X65532000Y44513500D01*
X64008000Y47561500D02*
X64008000Y46545500D01*
X65532000Y44513500D02*
X65532000Y45529500D01*
X65532000Y46545500D02*
X65532000Y47561500D01*
X65532000Y47561500D02*
X64008000Y47561500D01*
X64008000Y45529500D02*
X64008000Y44513500D01*
X65659000Y47688500D02*
G75*
G03*
X65659000Y47688500I-127000J0D01*
G01*
%TO.C,R1*%
X29083000Y39751000D02*
X30607000Y39751000D01*
X30607000Y41783000D02*
X30607000Y42799000D01*
X30607000Y39751000D02*
X30607000Y40767000D01*
X29083000Y42799000D02*
X29083000Y41783000D01*
X29083000Y40767000D02*
X29083000Y39751000D01*
X30607000Y42799000D02*
X29083000Y42799000D01*
X29210000Y39624000D02*
G75*
G03*
X29210000Y39624000I-127000J0D01*
G01*
%TO.C,C7*%
X60833000Y38671500D02*
X60833000Y37655500D01*
X60833000Y35623500D02*
X62357000Y35623500D01*
X62357000Y37655500D02*
X62357000Y38671500D01*
X62357000Y38671500D02*
X60833000Y38671500D01*
X60833000Y36639500D02*
X60833000Y35623500D01*
X62357000Y35623500D02*
X62357000Y36639500D01*
X60960000Y35496500D02*
G75*
G03*
X60960000Y35496500I-127000J0D01*
G01*
%TO.C,R4*%
X44323000Y39751000D02*
X45847000Y39751000D01*
X45847000Y42799000D02*
X44323000Y42799000D01*
X45847000Y39751000D02*
X45847000Y40767000D01*
X44323000Y40767000D02*
X44323000Y39751000D01*
X44323000Y42799000D02*
X44323000Y41783000D01*
X45847000Y41783000D02*
X45847000Y42799000D01*
X44450000Y39624000D02*
G75*
G03*
X44450000Y39624000I-127000J0D01*
G01*
%TO.C,C8*%
X78232000Y71628000D02*
X78232000Y72644000D01*
X78232000Y69596000D02*
X78232000Y70612000D01*
X76708000Y72644000D02*
X76708000Y71628000D01*
X76708000Y69596000D02*
X78232000Y69596000D01*
X78232000Y72644000D02*
X76708000Y72644000D01*
X76708000Y70612000D02*
X76708000Y69596000D01*
X76835000Y69469000D02*
G75*
G03*
X76835000Y69469000I-127000J0D01*
G01*
%TO.C,C5*%
X78232000Y73406000D02*
X78232000Y74422000D01*
X76708000Y74422000D02*
X76708000Y73406000D01*
X76708000Y73406000D02*
X78232000Y73406000D01*
X78232000Y76454000D02*
X76708000Y76454000D01*
X76708000Y76454000D02*
X76708000Y75438000D01*
X78232000Y75438000D02*
X78232000Y76454000D01*
X78359000Y76581000D02*
G75*
G03*
X78359000Y76581000I-127000J0D01*
G01*
%TO.C,C16*%
X71882000Y85344000D02*
X70358000Y85344000D01*
X71882000Y82296000D02*
X71882000Y83312000D01*
X70358000Y83312000D02*
X70358000Y82296000D01*
X70358000Y82296000D02*
X71882000Y82296000D01*
X70358000Y85344000D02*
X70358000Y84328000D01*
X71882000Y84328000D02*
X71882000Y85344000D01*
X72009000Y85471000D02*
G75*
G03*
X72009000Y85471000I-127000J0D01*
G01*
%TO.C,C17*%
X41783000Y81026000D02*
X43307000Y81026000D01*
X41783000Y84074000D02*
X41783000Y83058000D01*
X43307000Y84074000D02*
X41783000Y84074000D01*
X43307000Y83058000D02*
X43307000Y84074000D01*
X41783000Y82042000D02*
X41783000Y81026000D01*
X43307000Y81026000D02*
X43307000Y82042000D01*
X43434000Y84201000D02*
G75*
G03*
X43434000Y84201000I-127000J0D01*
G01*
%TO.C,R8*%
X67818000Y81534000D02*
X67818000Y80518000D01*
X67818000Y78486000D02*
X69342000Y78486000D01*
X67818000Y79502000D02*
X67818000Y78486000D01*
X69342000Y81534000D02*
X67818000Y81534000D01*
X69342000Y78486000D02*
X69342000Y79502000D01*
X69342000Y80518000D02*
X69342000Y81534000D01*
X69469000Y81661000D02*
G75*
G03*
X69469000Y81661000I-127000J0D01*
G01*
%TO.C,R9*%
X67818000Y83312000D02*
X67818000Y82296000D01*
X69342000Y84328000D02*
X69342000Y85344000D01*
X69342000Y85344000D02*
X67818000Y85344000D01*
X67818000Y82296000D02*
X69342000Y82296000D01*
X67818000Y85344000D02*
X67818000Y84328000D01*
X69342000Y82296000D02*
X69342000Y83312000D01*
X69469000Y85471000D02*
G75*
G03*
X69469000Y85471000I-127000J0D01*
G01*
%TO.C,U4*%
X64490000Y48540000D02*
X64490000Y48815000D01*
X61240000Y48540000D02*
X61240000Y48715000D01*
X61240000Y51790000D02*
X61240000Y51515000D01*
X61240000Y48540000D02*
X64490000Y48540000D01*
X64490000Y51790000D02*
X64490000Y51515000D01*
X61240000Y48715000D02*
X60165000Y48715000D01*
X61240000Y51790000D02*
X64490000Y51790000D01*
X62115000Y49165000D02*
G75*
G03*
X62115000Y49165000I-250000J0D01*
G01*
%TO.C,C1*%
X29972000Y79629000D02*
X28448000Y79629000D01*
X28448000Y76581000D02*
X29972000Y76581000D01*
X29972000Y76581000D02*
X29972000Y77597000D01*
X28448000Y79629000D02*
X28448000Y78613000D01*
X28448000Y77597000D02*
X28448000Y76581000D01*
X29972000Y78613000D02*
X29972000Y79629000D01*
X28575000Y76454000D02*
G75*
G03*
X28575000Y76454000I-127000J0D01*
G01*
%TO.C,C2*%
X30988000Y77597000D02*
X30988000Y76581000D01*
X30988000Y76581000D02*
X32512000Y76581000D01*
X30988000Y79629000D02*
X30988000Y78613000D01*
X32512000Y79629000D02*
X30988000Y79629000D01*
X32512000Y76581000D02*
X32512000Y77597000D01*
X32512000Y78613000D02*
X32512000Y79629000D01*
X31115000Y76454000D02*
G75*
G03*
X31115000Y76454000I-127000J0D01*
G01*
%TO.C,C3*%
X35052000Y79629000D02*
X33528000Y79629000D01*
X33528000Y76581000D02*
X35052000Y76581000D01*
X33528000Y77597000D02*
X33528000Y76581000D01*
X35052000Y76581000D02*
X35052000Y77597000D01*
X33528000Y79629000D02*
X33528000Y78613000D01*
X35052000Y78613000D02*
X35052000Y79629000D01*
X33655000Y76454000D02*
G75*
G03*
X33655000Y76454000I-127000J0D01*
G01*
%TO.C,C4*%
X38354000Y87503000D02*
X38354000Y89027000D01*
X37338000Y87503000D02*
X38354000Y87503000D01*
X38354000Y89027000D02*
X37338000Y89027000D01*
X35306000Y87503000D02*
X36322000Y87503000D01*
X36322000Y89027000D02*
X35306000Y89027000D01*
X35306000Y89027000D02*
X35306000Y87503000D01*
X35306000Y89027000D02*
G75*
G03*
X35306000Y89027000I-127000J0D01*
G01*
%TO.C,C6*%
X43307000Y79248000D02*
X43307000Y80264000D01*
X41783000Y80264000D02*
X41783000Y79248000D01*
X43307000Y77216000D02*
X43307000Y78232000D01*
X43307000Y80264000D02*
X41783000Y80264000D01*
X41783000Y78232000D02*
X41783000Y77216000D01*
X41783000Y77216000D02*
X43307000Y77216000D01*
X41910000Y77089000D02*
G75*
G03*
X41910000Y77089000I-127000J0D01*
G01*
%TO.C,C9*%
X55039260Y23319740D02*
X55039260Y17320260D01*
X55892700Y14719300D02*
X55892700Y15918180D01*
X51640740Y23319740D02*
X51640740Y17320260D01*
X55039260Y16019780D02*
X51640740Y16019780D01*
X56393080Y15318740D02*
X55293260Y15318740D01*
%TO.C,C10*%
X57912000Y16383000D02*
X57912000Y20447000D01*
X56388000Y16383000D02*
X57912000Y16383000D01*
X57912000Y20447000D02*
X56388000Y20447000D01*
X56388000Y20447000D02*
X56388000Y16383000D01*
X57912000Y16383000D02*
X57785000Y16383000D01*
%TO.C,C11*%
X34671000Y43942000D02*
X34671000Y42418000D01*
X37719000Y42418000D02*
X37719000Y43942000D01*
X36703000Y42418000D02*
X37719000Y42418000D01*
X35687000Y43942000D02*
X34671000Y43942000D01*
X37719000Y43942000D02*
X36703000Y43942000D01*
X34671000Y42418000D02*
X35687000Y42418000D01*
X37973000Y42418000D02*
G75*
G03*
X37973000Y42418000I-127000J0D01*
G01*
%TO.C,C12*%
X67564000Y36703000D02*
X67564000Y38227000D01*
X64516000Y36703000D02*
X65532000Y36703000D01*
X64516000Y38227000D02*
X64516000Y36703000D01*
X66548000Y36703000D02*
X67564000Y36703000D01*
X67564000Y38227000D02*
X66548000Y38227000D01*
X65532000Y38227000D02*
X64516000Y38227000D01*
X67818000Y36703000D02*
G75*
G03*
X67818000Y36703000I-127000J0D01*
G01*
%TO.C,C13*%
X58166000Y23622000D02*
X58166000Y22098000D01*
X61214000Y23622000D02*
X60198000Y23622000D01*
X61214000Y22098000D02*
X61214000Y23622000D01*
X58166000Y22098000D02*
X59182000Y22098000D01*
X60198000Y22098000D02*
X61214000Y22098000D01*
X59182000Y23622000D02*
X58166000Y23622000D01*
X58166000Y23622000D02*
G75*
G03*
X58166000Y23622000I-127000J0D01*
G01*
%TO.C,C14*%
X39243000Y84074000D02*
X39243000Y83058000D01*
X40767000Y84074000D02*
X39243000Y84074000D01*
X39243000Y81026000D02*
X40767000Y81026000D01*
X40767000Y81026000D02*
X40767000Y82042000D01*
X39243000Y82042000D02*
X39243000Y81026000D01*
X40767000Y83058000D02*
X40767000Y84074000D01*
X40894000Y84201000D02*
G75*
G03*
X40894000Y84201000I-127000J0D01*
G01*
%TO.C,C15*%
X34671000Y41402000D02*
X34671000Y39878000D01*
X34671000Y39878000D02*
X35687000Y39878000D01*
X36703000Y39878000D02*
X37719000Y39878000D01*
X37719000Y39878000D02*
X37719000Y41402000D01*
X35687000Y41402000D02*
X34671000Y41402000D01*
X37719000Y41402000D02*
X36703000Y41402000D01*
X37973000Y39878000D02*
G75*
G03*
X37973000Y39878000I-127000J0D01*
G01*
%TO.C,D2*%
X59844940Y20665440D02*
X60195460Y20665440D01*
X59844940Y16164560D02*
X60195460Y16164560D01*
X63345060Y20665440D02*
X63345060Y16164560D01*
X63345060Y20665440D02*
X62994540Y20665440D01*
X63345060Y16164560D02*
X62994540Y16164560D01*
X63345060Y16614140D02*
X62994540Y16614140D01*
X59844940Y20665440D02*
X59844940Y16164560D01*
X59844940Y16614140D02*
X60195460Y16614140D01*
%TO.C,F1*%
X66167000Y18288000D02*
X68453000Y18288000D01*
X66167000Y14732000D02*
X68453000Y14732000D01*
D15*
%TO.C,J7*%
X23360000Y29175000D02*
X23360000Y15875000D01*
X25660000Y33775000D02*
X25660000Y31475000D01*
X23360000Y11855000D02*
X23360000Y12275000D01*
X50200000Y11855000D02*
X23360000Y11855000D01*
X29130000Y37095000D02*
X28330000Y37095000D01*
X50200000Y33775000D02*
X50200000Y15875000D01*
X31630000Y37095000D02*
X30830000Y37095000D01*
X34030000Y37095000D02*
X33330000Y37095000D01*
X25660000Y31475000D02*
X23360000Y29175000D01*
X41630000Y37095000D02*
X40830000Y37095000D01*
X26630000Y37095000D02*
X26430000Y37095000D01*
X39130000Y37095000D02*
X38330000Y37095000D01*
X44030000Y37095000D02*
X43330000Y37095000D01*
X36630000Y37095000D02*
X35830000Y37095000D01*
X50200000Y12275000D02*
X50200000Y11855000D01*
D11*
%TO.C,R2*%
X33147000Y42799000D02*
X31623000Y42799000D01*
X33147000Y39751000D02*
X33147000Y40767000D01*
X31623000Y40767000D02*
X31623000Y39751000D01*
X31623000Y42799000D02*
X31623000Y41783000D01*
X31623000Y39751000D02*
X33147000Y39751000D01*
X33147000Y41783000D02*
X33147000Y42799000D01*
X31750000Y39624000D02*
G75*
G03*
X31750000Y39624000I-127000J0D01*
G01*
%TO.C,R3*%
X40767000Y39751000D02*
X40767000Y40767000D01*
X40767000Y42799000D02*
X39243000Y42799000D01*
X39243000Y39751000D02*
X40767000Y39751000D01*
X40767000Y41783000D02*
X40767000Y42799000D01*
X39243000Y42799000D02*
X39243000Y41783000D01*
X39243000Y40767000D02*
X39243000Y39751000D01*
X39370000Y39624000D02*
G75*
G03*
X39370000Y39624000I-127000J0D01*
G01*
%TO.C,R5*%
X31940500Y83566000D02*
X33464500Y83566000D01*
X33464500Y86614000D02*
X31940500Y86614000D01*
X33464500Y85598000D02*
X33464500Y86614000D01*
X33464500Y83566000D02*
X33464500Y84582000D01*
X31940500Y84582000D02*
X31940500Y83566000D01*
X31940500Y86614000D02*
X31940500Y85598000D01*
X33591500Y86741000D02*
G75*
G03*
X33591500Y86741000I-127000J0D01*
G01*
%TO.C,R6*%
X69977000Y47180500D02*
X69977000Y48196500D01*
X69977000Y48196500D02*
X68453000Y48196500D01*
X68453000Y48196500D02*
X68453000Y47180500D01*
X68453000Y46164500D02*
X68453000Y45148500D01*
X69977000Y45148500D02*
X69977000Y46164500D01*
X68453000Y45148500D02*
X69977000Y45148500D01*
X68580000Y45021500D02*
G75*
G03*
X68580000Y45021500I-127000J0D01*
G01*
%TO.C,R7*%
X68453000Y48958500D02*
X69977000Y48958500D01*
X68453000Y49974500D02*
X68453000Y48958500D01*
X69977000Y48958500D02*
X69977000Y49974500D01*
X69977000Y52006500D02*
X68453000Y52006500D01*
X68453000Y52006500D02*
X68453000Y50990500D01*
X69977000Y50990500D02*
X69977000Y52006500D01*
X70104000Y52133500D02*
G75*
G03*
X70104000Y52133500I-127000J0D01*
G01*
D15*
%TO.C,U2*%
X63905000Y33805000D02*
X65905000Y33805000D01*
X65905000Y36045000D02*
X64905000Y36045000D01*
D11*
%TO.C,U3*%
X51340000Y76740000D02*
X52015000Y76740000D01*
X61690000Y87090000D02*
X61015000Y87090000D01*
X61690000Y87090000D02*
X61690000Y86515000D01*
X61690000Y86515000D02*
X62965000Y86515000D01*
X61690000Y76740000D02*
X61015000Y76740000D01*
X61690000Y76740000D02*
X61690000Y77415000D01*
X51340000Y76740000D02*
X51340000Y77415000D01*
X51340000Y87090000D02*
X51340000Y86415000D01*
X51340000Y87090000D02*
X52015000Y87090000D01*
%TO.C,Y2*%
X57900000Y47315000D02*
X57900000Y50515000D01*
X56400000Y50515000D02*
X56400000Y47315000D01*
X56400000Y50515000D02*
X57900000Y50515000D01*
X57900000Y47315000D02*
X56400000Y47315000D01*
D15*
%TO.C,U1*%
X37272500Y86987500D02*
X35812500Y86987500D01*
X37272500Y86987500D02*
X37272500Y86057500D01*
X37272500Y83827500D02*
X37272500Y84757500D01*
X37272500Y83827500D02*
X35112500Y83827500D01*
D11*
%TO.C,R10*%
X15113000Y10287000D02*
X15113000Y9271000D01*
X16637000Y12319000D02*
X15113000Y12319000D01*
X15113000Y12319000D02*
X15113000Y11303000D01*
X16637000Y9271000D02*
X16637000Y10287000D01*
X15113000Y9271000D02*
X16637000Y9271000D01*
X16637000Y11303000D02*
X16637000Y12319000D01*
X15240000Y9144000D02*
G75*
G03*
X15240000Y9144000I-127000J0D01*
G01*
%TO.C,F2*%
X67437000Y27432000D02*
X67437000Y29718000D01*
X70993000Y27432000D02*
X70993000Y29718000D01*
%TO.C,BT3*%
X23465000Y45340000D02*
X51465000Y45340000D01*
X51465000Y61340000D02*
X23465000Y61340000D01*
X23465000Y61340000D02*
X23465000Y45340000D01*
X51465000Y45340000D02*
X51465000Y61340000D01*
D15*
%TO.C,U5*%
X28497500Y83827500D02*
X29957500Y83827500D01*
X28497500Y86987500D02*
X28497500Y86057500D01*
X28497500Y83827500D02*
X28497500Y84757500D01*
X28497500Y86987500D02*
X30657500Y86987500D01*
D11*
%TO.C,L1*%
X36449000Y78232000D02*
X37973000Y78232000D01*
X36449000Y75438000D02*
X36449000Y78232000D01*
X39497000Y78232000D02*
X41021000Y78232000D01*
X41021000Y75438000D02*
X39497000Y75438000D01*
X37973000Y75438000D02*
X36449000Y75438000D01*
X41021000Y78232000D02*
X41021000Y75438000D01*
X36501605Y78359000D02*
G75*
G03*
X36501605Y78359000I-179605J0D01*
G01*
%TO.C,C19*%
X58356500Y90932000D02*
X57340500Y90932000D01*
X57340500Y89408000D02*
X58356500Y89408000D01*
X58356500Y89408000D02*
X58356500Y90932000D01*
X56324500Y90932000D02*
X55308500Y90932000D01*
X55308500Y90932000D02*
X55308500Y89408000D01*
X55308500Y89408000D02*
X56324500Y89408000D01*
X55308500Y90932000D02*
G75*
G03*
X55308500Y90932000I-127000J0D01*
G01*
%TO.C,C20*%
X61849000Y72263000D02*
X61849000Y73787000D01*
X59817000Y73787000D02*
X58801000Y73787000D01*
X60833000Y72263000D02*
X61849000Y72263000D01*
X61849000Y73787000D02*
X60833000Y73787000D01*
X58801000Y72263000D02*
X59817000Y72263000D01*
X58801000Y73787000D02*
X58801000Y72263000D01*
X58801000Y73787000D02*
G75*
G03*
X58801000Y73787000I-127000J0D01*
G01*
%TO.C,C21*%
X66802000Y83756500D02*
X65278000Y83756500D01*
X65278000Y80708500D02*
X66802000Y80708500D01*
X65278000Y81724500D02*
X65278000Y80708500D01*
X66802000Y80708500D02*
X66802000Y81724500D01*
X66802000Y82740500D02*
X66802000Y83756500D01*
X65278000Y83756500D02*
X65278000Y82740500D01*
X66929000Y83883500D02*
G75*
G03*
X66929000Y83883500I-127000J0D01*
G01*
D15*
%TO.C,J34*%
X50200000Y845000D02*
X50200000Y425000D01*
X25660000Y20045000D02*
X23360000Y17745000D01*
X36630000Y25665000D02*
X35830000Y25665000D01*
X23360000Y17745000D02*
X23360000Y4445000D01*
X44030000Y25665000D02*
X43330000Y25665000D01*
X31630000Y25665000D02*
X30830000Y25665000D01*
X29130000Y25665000D02*
X28330000Y25665000D01*
X23360000Y425000D02*
X23360000Y845000D01*
X50200000Y22345000D02*
X50200000Y4445000D01*
X25660000Y22345000D02*
X25660000Y20045000D01*
X41630000Y25665000D02*
X40830000Y25665000D01*
X34030000Y25665000D02*
X33330000Y25665000D01*
X50200000Y425000D02*
X23360000Y425000D01*
X39130000Y25665000D02*
X38330000Y25665000D01*
X26630000Y25665000D02*
X26430000Y25665000D01*
D11*
%TO.C,U6*%
X66845000Y53305000D02*
X62695000Y53305000D01*
X66845000Y58405000D02*
X68245000Y58405000D01*
X66845000Y58455000D02*
X66845000Y58405000D01*
X62695000Y58455000D02*
X62695000Y58310000D01*
X62695000Y53305000D02*
X62695000Y53450000D01*
X66845000Y58455000D02*
X62695000Y58455000D01*
X66845000Y53305000D02*
X66845000Y53450000D01*
%TD*%
M02*
