M48
; DRILL file {KiCad 6.0.4-6f826c9f35~116~ubuntu20.04.1} date Fri Aug 19 08:18:37 2022
; FORMAT={-:-/ absolute / metric / decimal}
; #@! TF.CreationDate,2022-08-19T08:18:37+00:00
; #@! TF.GenerationSoftware,Kicad,Pcbnew,6.0.4-6f826c9f35~116~ubuntu20.04.1
; #@! TF.FileFunction,Plated,1,2,PTH
FMAT,2
METRIC
; #@! TA.AperFunction,Plated,PTH,ComponentDrill
T1C0.250
; #@! TA.AperFunction,Plated,PTH,ViaDrill
T2C0.400
; #@! TA.AperFunction,Plated,PTH,ComponentDrill
T3C0.800
; #@! TA.AperFunction,Plated,PTH,ComponentDrill
T4C0.889
; #@! TA.AperFunction,Plated,PTH,ComponentDrill
T5C0.900
; #@! TA.AperFunction,Plated,PTH,ComponentDrill
T6C1.600
; #@! TA.AperFunction,Plated,PTH,ComponentDrill
T7C1.850
; #@! TA.AperFunction,Plated,PTH,ComponentDrill
T8C3.000
%
G90
G05
T1
X65.405Y35.425
X65.405Y34.425
T2
X1.905Y36.195
X4.445Y36.195
X4.445Y34.925
X4.445Y33.02
X4.445Y31.115
X5.715Y71.12
X5.715Y68.58
X6.35Y36.195
X6.35Y34.925
X6.35Y33.02
X6.35Y31.115
X8.255Y71.12
X8.255Y68.58
X11.43Y71.12
X11.43Y68.58
X15.875Y13.335
X18.415Y57.15
X18.415Y55.245
X18.415Y53.34
X20.955Y57.15
X22.225Y57.15
X24.13Y56.515
X24.765Y33.02
X24.765Y31.75
X25.4Y56.515
X26.035Y33.02
X26.035Y31.75
X26.67Y57.785
X27.305Y32.385
X27.305Y31.115
X28.575Y59.055
X29.21Y83.185
X29.21Y80.645
X29.845Y44.45
X30.48Y83.185
X30.48Y80.645
X31.115Y56.515
X31.115Y53.975
X31.115Y52.07
X31.115Y50.165
X31.75Y80.645
X31.75Y3.81
X32.385Y44.45
X33.02Y80.645
X33.655Y57.785
X33.655Y55.88
X33.655Y53.975
X33.655Y50.165
X34.29Y80.645
X34.29Y75.565
X34.29Y70.485
X34.29Y3.81
X34.925Y46.355
X34.925Y45.085
X34.925Y35.56
X34.925Y34.29
X34.925Y31.75
X34.925Y29.845
X34.925Y27.94
X36.83Y46.355
X36.83Y45.085
X36.83Y3.81
X38.1Y46.355
X38.1Y45.085
X38.735Y80.01
X38.735Y78.74
X38.735Y62.865
X38.735Y59.69
X38.735Y58.42
X38.735Y56.515
X38.735Y54.61
X38.735Y52.705
X38.735Y50.8
X39.37Y88.9
X39.37Y87.63
X39.37Y86.36
X39.37Y85.09
X39.37Y3.81
X40.005Y80.01
X40.005Y78.74
X40.005Y44.45
X40.64Y88.9
X40.64Y87.63
X40.64Y86.36
X40.64Y85.09
X41.275Y57.15
X41.275Y55.88
X41.275Y54.61
X41.275Y53.34
X41.275Y52.07
X41.275Y50.8
X41.91Y3.81
X42.545Y97.155
X42.545Y95.885
X42.545Y34.925
X42.545Y33.02
X42.545Y31.115
X42.545Y29.845
X42.545Y27.94
X43.815Y89.535
X43.815Y86.36
X43.815Y57.15
X43.815Y55.88
X43.815Y53.975
X43.815Y52.07
X43.815Y50.8
X44.45Y84.455
X45.085Y44.45
X45.72Y80.01
X46.355Y59.69
X46.355Y58.42
X46.355Y57.15
X46.355Y55.245
X46.355Y53.34
X46.355Y51.435
X46.355Y49.53
X46.99Y83.82
X47.625Y87.63
X48.895Y85.725
X48.895Y84.455
X49.53Y86.995
X50.165Y73.495
X50.165Y59.69
X50.165Y58.42
X50.165Y56.515
X50.165Y27.94
X50.165Y26.67
X50.8Y87.63
X51.435Y27.94
X51.435Y26.67
X52.07Y66.675
X52.07Y64.77
X52.07Y62.865
X52.515Y85.725
X52.515Y82.55
X52.705Y90.97
X52.705Y27.94
X52.705Y26.67
X52.705Y25.4
X53.975Y60.96
X53.975Y49.53
X53.975Y46.99
X53.975Y44.45
X53.975Y27.94
X53.975Y26.67
X53.975Y25.4
X54.61Y85.725
X54.61Y84.455
X54.61Y58.42
X55.245Y27.94
X55.245Y26.67
X55.245Y25.4
X55.715Y78.105
X56.515Y86.36
X56.515Y79.375
X57.301Y73.811
X57.785Y92.075
X57.785Y85.725
X57.936Y73.176
X58.115Y58.42
X58.585Y71.12
X58.585Y69.85
X59.055Y92.075
X59.055Y90.805
X59.055Y89.535
X59.055Y84.455
X59.055Y78.105
X59.165Y40.75
X59.525Y70.485
X59.69Y45.085
X59.69Y20.955
X59.69Y19.05
X60.325Y79.375
X60.325Y78.105
X60.573Y83.572
X60.96Y60.96
X60.96Y45.085
X61.415Y74.295
X61.595Y41.275
X62.215Y87.63
X62.23Y22.86
X63.361Y35.421
X63.5Y22.86
X63.5Y21.59
X63.5Y20.32
X64.135Y86.36
X64.135Y81.915
X64.135Y39.37
X64.77Y22.86
X64.77Y21.59
X64.77Y20.32
X65.405Y43.815
X65.925Y48.26
X66.04Y61.277
X66.51Y50.165
X66.675Y86.36
X66.675Y77.47
X66.675Y75.565
X66.675Y73.66
X66.675Y68.58
X66.675Y67.31
X67.945Y87.63
X68.326Y52.07
X68.58Y77.47
X69.85Y84.772
X71.12Y75.565
X71.12Y67.31
X71.755Y92.075
X71.755Y90.805
X71.755Y89.7
X72.39Y74.295
X73.66Y92.075
X73.66Y83.185
X73.66Y67.31
X76.2Y67.31
X78.74Y67.31
X79.375Y74.295
X79.375Y73.025
X79.375Y71.755
X79.375Y70.485
T3
X74.93Y76.101
X74.93Y71.219
T4
X12.7Y95.25
X12.7Y92.71
X15.24Y95.25
X15.24Y92.71
X17.78Y95.25
X17.78Y92.71
X19.685Y8.89
X19.685Y6.35
X20.32Y95.25
X20.32Y92.71
X22.86Y95.25
X22.86Y92.71
X40.005Y95.25
X40.005Y92.71
X45.085Y95.25
X45.085Y92.71
X47.625Y95.25
X47.625Y92.71
X50.165Y95.25
X50.165Y92.71
X52.705Y95.25
X52.705Y92.71
X55.245Y95.25
X55.245Y92.71
X62.865Y95.25
X62.865Y92.71
X65.405Y95.25
X65.405Y92.71
X67.945Y95.25
X67.945Y92.71
X73.66Y90.17
X73.66Y87.63
X73.66Y85.09
X73.66Y81.28
X73.66Y65.405
X73.66Y62.865
X73.66Y60.325
X73.66Y57.785
X73.66Y53.975
X73.66Y51.435
X73.66Y48.895
X73.66Y46.355
X73.66Y43.815
X73.66Y40.005
X73.66Y37.465
X73.66Y34.29
X73.66Y31.75
X73.66Y29.21
X73.66Y24.13
X73.66Y21.59
X73.66Y13.97
X73.66Y11.43
X76.2Y90.17
X76.2Y87.63
X76.2Y85.09
X76.2Y81.28
X76.2Y65.405
X76.2Y62.865
X76.2Y60.325
X76.2Y57.785
X76.2Y53.975
X76.2Y51.435
X76.2Y48.895
X76.2Y46.355
X76.2Y43.815
X76.2Y40.005
X76.2Y37.465
X76.2Y34.29
X76.2Y31.75
X76.2Y29.21
X76.2Y24.13
X76.2Y21.59
X76.2Y19.05
X76.2Y16.51
X76.2Y13.97
X76.2Y11.43
X78.74Y24.13
X78.74Y21.59
X78.74Y13.97
X78.74Y11.43
T5
X12.065Y5.08
X14.605Y5.08
T6
X2.445Y71.12
X2.445Y33.02
X69.945Y71.12
X69.945Y33.02
T7
X56.26Y2.286
X58.165Y11.816
X62.865Y11.816
X67.565Y11.816
X69.47Y2.286
T8
X5.08Y96.52
X5.08Y5.08
X76.2Y96.2
T0
M30
