%TF.GenerationSoftware,KiCad,Pcbnew,6.0.4-6f826c9f35~116~ubuntu20.04.1*%
%TF.CreationDate,2022-08-19T08:18:37+00:00*%
%TF.ProjectId,DATALOGGER01A,44415441-4c4f-4474-9745-523031412e6b,rev?*%
%TF.SameCoordinates,Original*%
%TF.FileFunction,Paste,Bot*%
%TF.FilePolarity,Positive*%
%FSLAX46Y46*%
G04 Gerber Fmt 4.6, Leading zero omitted, Abs format (unit mm)*
G04 Created by KiCad (PCBNEW 6.0.4-6f826c9f35~116~ubuntu20.04.1) date 2022-08-19 08:18:37*
%MOMM*%
%LPD*%
G01*
G04 APERTURE LIST*
%ADD10R,1.397000X0.889000*%
%ADD11R,1.100000X0.250000*%
%ADD12R,0.889000X1.397000*%
%ADD13R,2.499360X2.550160*%
%ADD14R,1.500000X1.300000*%
%ADD15R,3.000000X0.700000*%
%ADD16R,1.800860X2.499360*%
%ADD17R,1.900000X3.400000*%
%ADD18R,1.000000X1.500000*%
%ADD19R,0.700000X1.500000*%
%ADD20R,1.500000X2.800000*%
%ADD21R,0.750000X0.650000*%
%ADD22R,0.500000X0.250000*%
%ADD23R,1.500000X0.550000*%
%ADD24R,0.550000X1.500000*%
%ADD25R,1.800000X1.000000*%
%ADD26R,0.900000X0.800000*%
%ADD27R,3.400000X1.900000*%
%ADD28R,5.000000X4.000000*%
%ADD29R,1.270000X2.540000*%
%ADD30R,1.400000X0.899000*%
%ADD31R,1.400000X0.889000*%
%ADD32R,0.899000X1.400000*%
%ADD33R,0.889000X1.400000*%
%ADD34R,1.550000X0.600000*%
G04 APERTURE END LIST*
D10*
%TO.C,C18*%
X64770000Y46990000D03*
X64770000Y45085000D03*
%TD*%
%TO.C,R1*%
X29845000Y40322500D03*
X29845000Y42227500D03*
%TD*%
%TO.C,C7*%
X61595000Y36195000D03*
X61595000Y38100000D03*
%TD*%
%TO.C,R4*%
X45085000Y40322500D03*
X45085000Y42227500D03*
%TD*%
%TO.C,C8*%
X77470000Y70167500D03*
X77470000Y72072500D03*
%TD*%
%TO.C,C5*%
X77470000Y75882500D03*
X77470000Y73977500D03*
%TD*%
%TO.C,C16*%
X71120000Y84772500D03*
X71120000Y82867500D03*
%TD*%
%TO.C,C17*%
X42545000Y83502500D03*
X42545000Y81597500D03*
%TD*%
%TO.C,R8*%
X68580000Y80962500D03*
X68580000Y79057500D03*
%TD*%
%TO.C,R9*%
X68580000Y84772500D03*
X68580000Y82867500D03*
%TD*%
D11*
%TO.C,U4*%
X60715000Y49165000D03*
X60715000Y49665000D03*
X60715000Y50165000D03*
X60715000Y50665000D03*
X60715000Y51165000D03*
X65015000Y51165000D03*
X65015000Y50665000D03*
X65015000Y50165000D03*
X65015000Y49665000D03*
X65015000Y49165000D03*
%TD*%
D10*
%TO.C,C1*%
X29210000Y77152500D03*
X29210000Y79057500D03*
%TD*%
%TO.C,C2*%
X31750000Y77152500D03*
X31750000Y79057500D03*
%TD*%
%TO.C,C3*%
X34290000Y77152500D03*
X34290000Y79057500D03*
%TD*%
D12*
%TO.C,C4*%
X35877500Y88265000D03*
X37782500Y88265000D03*
%TD*%
D10*
%TO.C,C6*%
X42545000Y77787500D03*
X42545000Y79692500D03*
%TD*%
D13*
%TO.C,C9*%
X53340000Y17795240D03*
X53340000Y22844760D03*
%TD*%
D14*
%TO.C,C10*%
X57150000Y17065000D03*
D15*
X57150000Y18415000D03*
D14*
X57150000Y19765000D03*
%TD*%
D12*
%TO.C,C11*%
X37147500Y43180000D03*
X35242500Y43180000D03*
%TD*%
%TO.C,C12*%
X66992500Y37465000D03*
X65087500Y37465000D03*
%TD*%
%TO.C,C13*%
X58737500Y22860000D03*
X60642500Y22860000D03*
%TD*%
D10*
%TO.C,C14*%
X40005000Y83502500D03*
X40005000Y81597500D03*
%TD*%
D12*
%TO.C,C15*%
X37147500Y40640000D03*
X35242500Y40640000D03*
%TD*%
D16*
%TO.C,D2*%
X61595000Y16416020D03*
X61595000Y20413980D03*
%TD*%
D17*
%TO.C,F1*%
X65360000Y16510000D03*
X69260000Y16510000D03*
%TD*%
D18*
%TO.C,J7*%
X29955000Y37375000D03*
X32455000Y37375000D03*
X34955000Y37375000D03*
X37455000Y37375000D03*
X39955000Y37375000D03*
X42455000Y37375000D03*
X44885000Y37375000D03*
X46585000Y37375000D03*
X27455000Y37375000D03*
D19*
X47885000Y37375000D03*
X49085000Y37375000D03*
D20*
X23180000Y14075000D03*
X50480000Y35575000D03*
X50480000Y14075000D03*
X25380000Y35575000D03*
%TD*%
D10*
%TO.C,R2*%
X32385000Y40322500D03*
X32385000Y42227500D03*
%TD*%
%TO.C,R3*%
X40005000Y40322500D03*
X40005000Y42227500D03*
%TD*%
%TO.C,R5*%
X32702500Y86042500D03*
X32702500Y84137500D03*
%TD*%
%TO.C,R6*%
X69215000Y45720000D03*
X69215000Y47625000D03*
%TD*%
%TO.C,R7*%
X69215000Y51435000D03*
X69215000Y49530000D03*
%TD*%
D21*
%TO.C,U2*%
X65405000Y35325000D03*
X65405000Y34525000D03*
D22*
X64455000Y34175000D03*
X64455000Y34675000D03*
X64455000Y35175000D03*
X64455000Y35675000D03*
X66355000Y35675000D03*
X66355000Y35175000D03*
X66355000Y34675000D03*
X66355000Y34175000D03*
%TD*%
D23*
%TO.C,U3*%
X62215000Y85915000D03*
X62215000Y85115000D03*
X62215000Y84315000D03*
X62215000Y83515000D03*
X62215000Y82715000D03*
X62215000Y81915000D03*
X62215000Y81115000D03*
X62215000Y80315000D03*
X62215000Y79515000D03*
X62215000Y78715000D03*
X62215000Y77915000D03*
D24*
X60515000Y76215000D03*
X59715000Y76215000D03*
X58915000Y76215000D03*
X58115000Y76215000D03*
X57315000Y76215000D03*
X56515000Y76215000D03*
X55715000Y76215000D03*
X54915000Y76215000D03*
X54115000Y76215000D03*
X53315000Y76215000D03*
X52515000Y76215000D03*
D23*
X50815000Y77915000D03*
X50815000Y78715000D03*
X50815000Y79515000D03*
X50815000Y80315000D03*
X50815000Y81115000D03*
X50815000Y81915000D03*
X50815000Y82715000D03*
X50815000Y83515000D03*
X50815000Y84315000D03*
X50815000Y85115000D03*
X50815000Y85915000D03*
D24*
X52515000Y87615000D03*
X53315000Y87615000D03*
X54115000Y87615000D03*
X54915000Y87615000D03*
X55715000Y87615000D03*
X56515000Y87615000D03*
X57315000Y87615000D03*
X58115000Y87615000D03*
X58915000Y87615000D03*
X59715000Y87615000D03*
X60515000Y87615000D03*
%TD*%
D25*
%TO.C,Y2*%
X57150000Y50165000D03*
X57150000Y47665000D03*
%TD*%
D26*
%TO.C,U1*%
X35512500Y84457500D03*
X35512500Y86357500D03*
X37512500Y85407500D03*
%TD*%
D10*
%TO.C,R10*%
X15875000Y9842500D03*
X15875000Y11747500D03*
%TD*%
D27*
%TO.C,F2*%
X69215000Y26625000D03*
X69215000Y30525000D03*
%TD*%
D28*
%TO.C,BT3*%
X52465000Y53340000D03*
X22465000Y53340000D03*
%TD*%
D26*
%TO.C,U5*%
X30257500Y86357500D03*
X30257500Y84457500D03*
X28257500Y85407500D03*
%TD*%
D29*
%TO.C,L1*%
X37211000Y76835000D03*
X40259000Y76835000D03*
%TD*%
D12*
%TO.C,C19*%
X55880000Y90170000D03*
X57785000Y90170000D03*
%TD*%
%TO.C,C20*%
X59372500Y73025000D03*
X61277500Y73025000D03*
%TD*%
D10*
%TO.C,C21*%
X66040000Y83185000D03*
X66040000Y81280000D03*
%TD*%
D18*
%TO.C,J34*%
X29955000Y25945000D03*
X32455000Y25945000D03*
X34955000Y25945000D03*
X37455000Y25945000D03*
X39955000Y25945000D03*
X42455000Y25945000D03*
X44885000Y25945000D03*
X46585000Y25945000D03*
X27455000Y25945000D03*
D19*
X47885000Y25945000D03*
X49085000Y25945000D03*
D20*
X23180000Y2645000D03*
X50480000Y2645000D03*
X50480000Y24145000D03*
X25380000Y24145000D03*
%TD*%
D30*
%TO.C,C22*%
X60325000Y62230000D03*
D31*
X60325000Y64135000D03*
%TD*%
D30*
%TO.C,R11*%
X66040000Y61277500D03*
D31*
X66040000Y59372500D03*
%TD*%
D30*
%TO.C,R12*%
X67945000Y61277500D03*
D31*
X67945000Y59372500D03*
%TD*%
D30*
%TO.C,R15*%
X62865000Y63500000D03*
D31*
X62865000Y61595000D03*
%TD*%
D32*
%TO.C,R16*%
X63500000Y59690000D03*
D33*
X61595000Y59690000D03*
%TD*%
D34*
%TO.C,U6*%
X67470000Y57785000D03*
X67470000Y56515000D03*
X67470000Y55245000D03*
X67470000Y53975000D03*
X62070000Y53975000D03*
X62070000Y55245000D03*
X62070000Y56515000D03*
X62070000Y57785000D03*
%TD*%
M02*
