%TF.GenerationSoftware,KiCad,Pcbnew,6.0.4-6f826c9f35~116~ubuntu20.04.1*%
%TF.CreationDate,2022-08-19T08:18:37+00:00*%
%TF.ProjectId,DATALOGGER01A,44415441-4c4f-4474-9745-523031412e6b,rev?*%
%TF.SameCoordinates,Original*%
%TF.FileFunction,Legend,Top*%
%TF.FilePolarity,Positive*%
%FSLAX46Y46*%
G04 Gerber Fmt 4.6, Leading zero omitted, Abs format (unit mm)*
G04 Created by KiCad (PCBNEW 6.0.4-6f826c9f35~116~ubuntu20.04.1) date 2022-08-19 08:18:37*
%MOMM*%
%LPD*%
G01*
G04 APERTURE LIST*
%ADD10C,0.250000*%
%ADD11C,0.300000*%
%ADD12C,0.150000*%
%ADD13C,0.050000*%
%ADD14R,1.524000X1.524000*%
%ADD15C,1.501140*%
G04 APERTURE END LIST*
D10*
X78536904Y44365000D02*
X78432142Y44417381D01*
X78275000Y44417381D01*
X78117857Y44365000D01*
X78013095Y44260239D01*
X77960714Y44155477D01*
X77908333Y43945953D01*
X77908333Y43788810D01*
X77960714Y43579286D01*
X78013095Y43474524D01*
X78117857Y43369762D01*
X78275000Y43317381D01*
X78379761Y43317381D01*
X78536904Y43369762D01*
X78589285Y43422143D01*
X78589285Y43788810D01*
X78379761Y43788810D01*
X79060714Y43317381D02*
X79060714Y44417381D01*
X79689285Y43317381D01*
X79689285Y44417381D01*
X80213095Y43317381D02*
X80213095Y44417381D01*
X80475000Y44417381D01*
X80632142Y44365000D01*
X80736904Y44260239D01*
X80789285Y44155477D01*
X80841666Y43945953D01*
X80841666Y43788810D01*
X80789285Y43579286D01*
X80736904Y43474524D01*
X80632142Y43369762D01*
X80475000Y43317381D01*
X80213095Y43317381D01*
X71617619Y5727381D02*
X70517619Y5727381D01*
X70517619Y6146429D01*
X70570000Y6251191D01*
X70622380Y6303572D01*
X70727142Y6355953D01*
X70884285Y6355953D01*
X70989047Y6303572D01*
X71041428Y6251191D01*
X71093809Y6146429D01*
X71093809Y5727381D01*
X70517619Y7036905D02*
X70517619Y7246429D01*
X70570000Y7351191D01*
X70674761Y7455953D01*
X70884285Y7508334D01*
X71250952Y7508334D01*
X71460476Y7455953D01*
X71565238Y7351191D01*
X71617619Y7246429D01*
X71617619Y7036905D01*
X71565238Y6932143D01*
X71460476Y6827381D01*
X71250952Y6775000D01*
X70884285Y6775000D01*
X70674761Y6827381D01*
X70570000Y6932143D01*
X70517619Y7036905D01*
X70517619Y7875000D02*
X71617619Y8136905D01*
X70831904Y8346429D01*
X71617619Y8555953D01*
X70517619Y8817858D01*
X71041428Y9236905D02*
X71041428Y9603572D01*
X71617619Y9760715D02*
X71617619Y9236905D01*
X70517619Y9236905D01*
X70517619Y9760715D01*
X71617619Y10860715D02*
X71093809Y10494048D01*
X71617619Y10232143D02*
X70517619Y10232143D01*
X70517619Y10651191D01*
X70570000Y10755953D01*
X70622380Y10808334D01*
X70727142Y10860715D01*
X70884285Y10860715D01*
X70989047Y10808334D01*
X71041428Y10755953D01*
X71093809Y10651191D01*
X71093809Y10232143D01*
X71617619Y12170239D02*
X70517619Y12170239D01*
X71617619Y12694048D02*
X70517619Y12694048D01*
X71617619Y13322620D01*
X70517619Y13322620D01*
X78039285Y45909762D02*
X78196428Y45857381D01*
X78458333Y45857381D01*
X78563095Y45909762D01*
X78615476Y45962143D01*
X78667857Y46066905D01*
X78667857Y46171667D01*
X78615476Y46276429D01*
X78563095Y46328810D01*
X78458333Y46381191D01*
X78248809Y46433572D01*
X78144047Y46485953D01*
X78091666Y46538334D01*
X78039285Y46643096D01*
X78039285Y46747858D01*
X78091666Y46852620D01*
X78144047Y46905000D01*
X78248809Y46957381D01*
X78510714Y46957381D01*
X78667857Y46905000D01*
X79139285Y45857381D02*
X79139285Y46957381D01*
X79401190Y46957381D01*
X79558333Y46905000D01*
X79663095Y46800239D01*
X79715476Y46695477D01*
X79767857Y46485953D01*
X79767857Y46328810D01*
X79715476Y46119286D01*
X79663095Y46014524D01*
X79558333Y45909762D01*
X79401190Y45857381D01*
X79139285Y45857381D01*
X80186904Y46171667D02*
X80710714Y46171667D01*
X80082142Y45857381D02*
X80448809Y46957381D01*
X80815476Y45857381D01*
X77908333Y49497381D02*
X78275000Y48397381D01*
X78641666Y49497381D01*
X79008333Y48397381D02*
X79008333Y49497381D01*
X79270238Y49497381D01*
X79427380Y49445000D01*
X79532142Y49340239D01*
X79584523Y49235477D01*
X79636904Y49025953D01*
X79636904Y48868810D01*
X79584523Y48659286D01*
X79532142Y48554524D01*
X79427380Y48449762D01*
X79270238Y48397381D01*
X79008333Y48397381D01*
X80108333Y48397381D02*
X80108333Y49497381D01*
X80370238Y49497381D01*
X80527380Y49445000D01*
X80632142Y49340239D01*
X80684523Y49235477D01*
X80736904Y49025953D01*
X80736904Y48868810D01*
X80684523Y48659286D01*
X80632142Y48554524D01*
X80527380Y48449762D01*
X80370238Y48397381D01*
X80108333Y48397381D01*
X78065476Y50989762D02*
X78222619Y50937381D01*
X78484523Y50937381D01*
X78589285Y50989762D01*
X78641666Y51042143D01*
X78694047Y51146905D01*
X78694047Y51251667D01*
X78641666Y51356429D01*
X78589285Y51408810D01*
X78484523Y51461191D01*
X78275000Y51513572D01*
X78170238Y51565953D01*
X78117857Y51618334D01*
X78065476Y51723096D01*
X78065476Y51827858D01*
X78117857Y51932620D01*
X78170238Y51985000D01*
X78275000Y52037381D01*
X78536904Y52037381D01*
X78694047Y51985000D01*
X79794047Y51042143D02*
X79741666Y50989762D01*
X79584523Y50937381D01*
X79479761Y50937381D01*
X79322619Y50989762D01*
X79217857Y51094524D01*
X79165476Y51199286D01*
X79113095Y51408810D01*
X79113095Y51565953D01*
X79165476Y51775477D01*
X79217857Y51880239D01*
X79322619Y51985000D01*
X79479761Y52037381D01*
X79584523Y52037381D01*
X79741666Y51985000D01*
X79794047Y51932620D01*
X80789285Y50937381D02*
X80265476Y50937381D01*
X80265476Y52037381D01*
X78536904Y54525000D02*
X78432142Y54577381D01*
X78275000Y54577381D01*
X78117857Y54525000D01*
X78013095Y54420239D01*
X77960714Y54315477D01*
X77908333Y54105953D01*
X77908333Y53948810D01*
X77960714Y53739286D01*
X78013095Y53634524D01*
X78117857Y53529762D01*
X78275000Y53477381D01*
X78379761Y53477381D01*
X78536904Y53529762D01*
X78589285Y53582143D01*
X78589285Y53948810D01*
X78379761Y53948810D01*
X79060714Y53477381D02*
X79060714Y54577381D01*
X79689285Y53477381D01*
X79689285Y54577381D01*
X80213095Y53477381D02*
X80213095Y54577381D01*
X80475000Y54577381D01*
X80632142Y54525000D01*
X80736904Y54420239D01*
X80789285Y54315477D01*
X80841666Y54105953D01*
X80841666Y53948810D01*
X80789285Y53739286D01*
X80736904Y53634524D01*
X80632142Y53529762D01*
X80475000Y53477381D01*
X80213095Y53477381D01*
X78013095Y58387381D02*
X78641666Y58387381D01*
X78327380Y57287381D02*
X78327380Y58387381D01*
X78903571Y58387381D02*
X79636904Y57287381D01*
X79636904Y58387381D02*
X78903571Y57287381D01*
X80632142Y57287381D02*
X80003571Y57287381D01*
X80317857Y57287381D02*
X80317857Y58387381D01*
X80213095Y58230239D01*
X80108333Y58125477D01*
X80003571Y58073096D01*
X78667857Y59827381D02*
X78301190Y60351191D01*
X78039285Y59827381D02*
X78039285Y60927381D01*
X78458333Y60927381D01*
X78563095Y60875000D01*
X78615476Y60822620D01*
X78667857Y60717858D01*
X78667857Y60560715D01*
X78615476Y60455953D01*
X78563095Y60403572D01*
X78458333Y60351191D01*
X78039285Y60351191D01*
X79034523Y60927381D02*
X79767857Y59827381D01*
X79767857Y60927381D02*
X79034523Y59827381D01*
X80763095Y59827381D02*
X80134523Y59827381D01*
X80448809Y59827381D02*
X80448809Y60927381D01*
X80344047Y60770239D01*
X80239285Y60665477D01*
X80134523Y60613096D01*
X78013095Y63467381D02*
X78641666Y63467381D01*
X78327380Y62367381D02*
X78327380Y63467381D01*
X78903571Y63467381D02*
X79636904Y62367381D01*
X79636904Y63467381D02*
X78903571Y62367381D01*
X80265476Y63467381D02*
X80370238Y63467381D01*
X80475000Y63415000D01*
X80527380Y63362620D01*
X80579761Y63257858D01*
X80632142Y63048334D01*
X80632142Y62786429D01*
X80579761Y62576905D01*
X80527380Y62472143D01*
X80475000Y62419762D01*
X80370238Y62367381D01*
X80265476Y62367381D01*
X80160714Y62419762D01*
X80108333Y62472143D01*
X80055952Y62576905D01*
X80003571Y62786429D01*
X80003571Y63048334D01*
X80055952Y63257858D01*
X80108333Y63362620D01*
X80160714Y63415000D01*
X80265476Y63467381D01*
X78667857Y64907381D02*
X78301190Y65431191D01*
X78039285Y64907381D02*
X78039285Y66007381D01*
X78458333Y66007381D01*
X78563095Y65955000D01*
X78615476Y65902620D01*
X78667857Y65797858D01*
X78667857Y65640715D01*
X78615476Y65535953D01*
X78563095Y65483572D01*
X78458333Y65431191D01*
X78039285Y65431191D01*
X79034523Y66007381D02*
X79767857Y64907381D01*
X79767857Y66007381D02*
X79034523Y64907381D01*
X80396428Y66007381D02*
X80501190Y66007381D01*
X80605952Y65955000D01*
X80658333Y65902620D01*
X80710714Y65797858D01*
X80763095Y65588334D01*
X80763095Y65326429D01*
X80710714Y65116905D01*
X80658333Y65012143D01*
X80605952Y64959762D01*
X80501190Y64907381D01*
X80396428Y64907381D01*
X80291666Y64959762D01*
X80239285Y65012143D01*
X80186904Y65116905D01*
X80134523Y65326429D01*
X80134523Y65588334D01*
X80186904Y65797858D01*
X80239285Y65902620D01*
X80291666Y65955000D01*
X80396428Y66007381D01*
X78242380Y81797381D02*
X78766190Y82164048D01*
X78242380Y82425953D02*
X79342380Y82425953D01*
X79342380Y82006905D01*
X79290000Y81902143D01*
X79237619Y81849762D01*
X79132857Y81797381D01*
X78975714Y81797381D01*
X78870952Y81849762D01*
X78818571Y81902143D01*
X78766190Y82006905D01*
X78766190Y82425953D01*
X78294761Y81378334D02*
X78242380Y81221191D01*
X78242380Y80959286D01*
X78294761Y80854524D01*
X78347142Y80802143D01*
X78451904Y80749762D01*
X78556666Y80749762D01*
X78661428Y80802143D01*
X78713809Y80854524D01*
X78766190Y80959286D01*
X78818571Y81168810D01*
X78870952Y81273572D01*
X78923333Y81325953D01*
X79028095Y81378334D01*
X79132857Y81378334D01*
X79237619Y81325953D01*
X79290000Y81273572D01*
X79342380Y81168810D01*
X79342380Y80906905D01*
X79290000Y80749762D01*
X79342380Y80435477D02*
X79342380Y79806905D01*
X78242380Y80121191D02*
X79342380Y80121191D01*
X78975714Y79492620D02*
X78975714Y78706905D01*
X79447142Y79178334D02*
X78032857Y79492620D01*
X78504285Y78811667D02*
X78504285Y79597381D01*
X78032857Y79125953D02*
X79447142Y78811667D01*
X77908333Y39507381D02*
X77908333Y40607381D01*
X78432142Y39507381D02*
X78432142Y40607381D01*
X79060714Y39507381D01*
X79060714Y40607381D01*
X79427380Y40607381D02*
X80055952Y40607381D01*
X79741666Y39507381D02*
X79741666Y40607381D01*
X80370238Y39821667D02*
X80894047Y39821667D01*
X80265476Y39507381D02*
X80632142Y40607381D01*
X80998809Y39507381D01*
X78929761Y35914286D02*
X78877380Y35757143D01*
X78877380Y35495239D01*
X78929761Y35390477D01*
X78982142Y35338096D01*
X79086904Y35285715D01*
X79191666Y35285715D01*
X79296428Y35338096D01*
X79348809Y35390477D01*
X79401190Y35495239D01*
X79453571Y35704762D01*
X79505952Y35809524D01*
X79558333Y35861905D01*
X79663095Y35914286D01*
X79767857Y35914286D01*
X79872619Y35861905D01*
X79925000Y35809524D01*
X79977380Y35704762D01*
X79977380Y35442858D01*
X79925000Y35285715D01*
X79977380Y34919048D02*
X78877380Y34657143D01*
X79663095Y34447620D01*
X78877380Y34238096D01*
X79977380Y33976191D01*
X78877380Y32719048D02*
X79977380Y32719048D01*
X79977380Y32300000D01*
X79925000Y32195239D01*
X79872619Y32142858D01*
X79767857Y32090477D01*
X79610714Y32090477D01*
X79505952Y32142858D01*
X79453571Y32195239D01*
X79401190Y32300000D01*
X79401190Y32719048D01*
X79977380Y31409524D02*
X79977380Y31200000D01*
X79925000Y31095239D01*
X79820238Y30990477D01*
X79610714Y30938096D01*
X79244047Y30938096D01*
X79034523Y30990477D01*
X78929761Y31095239D01*
X78877380Y31200000D01*
X78877380Y31409524D01*
X78929761Y31514286D01*
X79034523Y31619048D01*
X79244047Y31671429D01*
X79610714Y31671429D01*
X79820238Y31619048D01*
X79925000Y31514286D01*
X79977380Y31409524D01*
X79977380Y30571429D02*
X78877380Y30309524D01*
X79663095Y30100000D01*
X78877380Y29890477D01*
X79977380Y29628572D01*
X79453571Y29209524D02*
X79453571Y28842858D01*
X78877380Y28685715D02*
X78877380Y29209524D01*
X79977380Y29209524D01*
X79977380Y28685715D01*
X78877380Y27585715D02*
X79401190Y27952381D01*
X78877380Y28214286D02*
X79977380Y28214286D01*
X79977380Y27795239D01*
X79925000Y27690477D01*
X79872619Y27638096D01*
X79767857Y27585715D01*
X79610714Y27585715D01*
X79505952Y27638096D01*
X79453571Y27690477D01*
X79401190Y27795239D01*
X79401190Y28214286D01*
X16614285Y3364762D02*
X16771428Y3312381D01*
X17033333Y3312381D01*
X17138095Y3364762D01*
X17190476Y3417143D01*
X17242857Y3521905D01*
X17242857Y3626667D01*
X17190476Y3731429D01*
X17138095Y3783810D01*
X17033333Y3836191D01*
X16823809Y3888572D01*
X16719047Y3940953D01*
X16666666Y3993334D01*
X16614285Y4098096D01*
X16614285Y4202858D01*
X16666666Y4307620D01*
X16719047Y4360000D01*
X16823809Y4412381D01*
X17085714Y4412381D01*
X17242857Y4360000D01*
X17714285Y3312381D02*
X17714285Y4412381D01*
X17976190Y4412381D01*
X18133333Y4360000D01*
X18238095Y4255239D01*
X18290476Y4150477D01*
X18342857Y3940953D01*
X18342857Y3783810D01*
X18290476Y3574286D01*
X18238095Y3469524D01*
X18133333Y3364762D01*
X17976190Y3312381D01*
X17714285Y3312381D01*
X18657142Y4412381D02*
X19023809Y3312381D01*
X19390476Y4412381D01*
X19757142Y3312381D02*
X19757142Y4412381D01*
X20019047Y4412381D01*
X20176190Y4360000D01*
X20280952Y4255239D01*
X20333333Y4150477D01*
X20385714Y3940953D01*
X20385714Y3783810D01*
X20333333Y3574286D01*
X20280952Y3469524D01*
X20176190Y3364762D01*
X20019047Y3312381D01*
X19757142Y3312381D01*
X20857142Y3312381D02*
X20857142Y4412381D01*
X21119047Y4412381D01*
X21276190Y4360000D01*
X21380952Y4255239D01*
X21433333Y4150477D01*
X21485714Y3940953D01*
X21485714Y3783810D01*
X21433333Y3574286D01*
X21380952Y3469524D01*
X21276190Y3364762D01*
X21119047Y3312381D01*
X20857142Y3312381D01*
X13197619Y97063096D02*
X12097619Y97063096D01*
X12097619Y97482143D01*
X12150000Y97586905D01*
X12202380Y97639286D01*
X12307142Y97691667D01*
X12464285Y97691667D01*
X12569047Y97639286D01*
X12621428Y97586905D01*
X12673809Y97482143D01*
X12673809Y97063096D01*
X13092857Y98791667D02*
X13145238Y98739286D01*
X13197619Y98582143D01*
X13197619Y98477381D01*
X13145238Y98320239D01*
X13040476Y98215477D01*
X12935714Y98163096D01*
X12726190Y98110715D01*
X12569047Y98110715D01*
X12359523Y98163096D01*
X12254761Y98215477D01*
X12150000Y98320239D01*
X12097619Y98477381D01*
X12097619Y98582143D01*
X12150000Y98739286D01*
X12202380Y98791667D01*
X12202380Y99210715D02*
X12150000Y99263096D01*
X12097619Y99367858D01*
X12097619Y99629762D01*
X12150000Y99734524D01*
X12202380Y99786905D01*
X12307142Y99839286D01*
X12411904Y99839286D01*
X12569047Y99786905D01*
X13197619Y99158334D01*
X13197619Y99839286D01*
X15737619Y97063096D02*
X14637619Y97063096D01*
X14637619Y97482143D01*
X14690000Y97586905D01*
X14742380Y97639286D01*
X14847142Y97691667D01*
X15004285Y97691667D01*
X15109047Y97639286D01*
X15161428Y97586905D01*
X15213809Y97482143D01*
X15213809Y97063096D01*
X15632857Y98791667D02*
X15685238Y98739286D01*
X15737619Y98582143D01*
X15737619Y98477381D01*
X15685238Y98320239D01*
X15580476Y98215477D01*
X15475714Y98163096D01*
X15266190Y98110715D01*
X15109047Y98110715D01*
X14899523Y98163096D01*
X14794761Y98215477D01*
X14690000Y98320239D01*
X14637619Y98477381D01*
X14637619Y98582143D01*
X14690000Y98739286D01*
X14742380Y98791667D01*
X14637619Y99158334D02*
X14637619Y99839286D01*
X15056666Y99472620D01*
X15056666Y99629762D01*
X15109047Y99734524D01*
X15161428Y99786905D01*
X15266190Y99839286D01*
X15528095Y99839286D01*
X15632857Y99786905D01*
X15685238Y99734524D01*
X15737619Y99629762D01*
X15737619Y99315477D01*
X15685238Y99210715D01*
X15632857Y99158334D01*
X18277619Y97429762D02*
X17177619Y97429762D01*
X18277619Y97953572D02*
X17177619Y97953572D01*
X18277619Y98582143D01*
X17177619Y98582143D01*
X17177619Y98948810D02*
X17177619Y99577381D01*
X18277619Y99263096D02*
X17177619Y99263096D01*
X20817619Y97063096D02*
X19717619Y97063096D01*
X19717619Y97482143D01*
X19770000Y97586905D01*
X19822380Y97639286D01*
X19927142Y97691667D01*
X20084285Y97691667D01*
X20189047Y97639286D01*
X20241428Y97586905D01*
X20293809Y97482143D01*
X20293809Y97063096D01*
X20712857Y98791667D02*
X20765238Y98739286D01*
X20817619Y98582143D01*
X20817619Y98477381D01*
X20765238Y98320239D01*
X20660476Y98215477D01*
X20555714Y98163096D01*
X20346190Y98110715D01*
X20189047Y98110715D01*
X19979523Y98163096D01*
X19874761Y98215477D01*
X19770000Y98320239D01*
X19717619Y98477381D01*
X19717619Y98582143D01*
X19770000Y98739286D01*
X19822380Y98791667D01*
X19717619Y99786905D02*
X19717619Y99263096D01*
X20241428Y99210715D01*
X20189047Y99263096D01*
X20136666Y99367858D01*
X20136666Y99629762D01*
X20189047Y99734524D01*
X20241428Y99786905D01*
X20346190Y99839286D01*
X20608095Y99839286D01*
X20712857Y99786905D01*
X20765238Y99734524D01*
X20817619Y99629762D01*
X20817619Y99367858D01*
X20765238Y99263096D01*
X20712857Y99210715D01*
X23357619Y97063096D02*
X22257619Y97063096D01*
X22257619Y97482143D01*
X22310000Y97586905D01*
X22362380Y97639286D01*
X22467142Y97691667D01*
X22624285Y97691667D01*
X22729047Y97639286D01*
X22781428Y97586905D01*
X22833809Y97482143D01*
X22833809Y97063096D01*
X23252857Y98791667D02*
X23305238Y98739286D01*
X23357619Y98582143D01*
X23357619Y98477381D01*
X23305238Y98320239D01*
X23200476Y98215477D01*
X23095714Y98163096D01*
X22886190Y98110715D01*
X22729047Y98110715D01*
X22519523Y98163096D01*
X22414761Y98215477D01*
X22310000Y98320239D01*
X22257619Y98477381D01*
X22257619Y98582143D01*
X22310000Y98739286D01*
X22362380Y98791667D01*
X22257619Y99734524D02*
X22257619Y99525000D01*
X22310000Y99420239D01*
X22362380Y99367858D01*
X22519523Y99263096D01*
X22729047Y99210715D01*
X23148095Y99210715D01*
X23252857Y99263096D01*
X23305238Y99315477D01*
X23357619Y99420239D01*
X23357619Y99629762D01*
X23305238Y99734524D01*
X23252857Y99786905D01*
X23148095Y99839286D01*
X22886190Y99839286D01*
X22781428Y99786905D01*
X22729047Y99734524D01*
X22676666Y99629762D01*
X22676666Y99420239D01*
X22729047Y99315477D01*
X22781428Y99263096D01*
X22886190Y99210715D01*
X34414047Y92526667D02*
X34937857Y92526667D01*
X34309285Y92212381D02*
X34675952Y93312381D01*
X35042619Y92212381D01*
X36037857Y92212381D02*
X35671190Y92736191D01*
X35409285Y92212381D02*
X35409285Y93312381D01*
X35828333Y93312381D01*
X35933095Y93260000D01*
X35985476Y93207620D01*
X36037857Y93102858D01*
X36037857Y92945715D01*
X35985476Y92840953D01*
X35933095Y92788572D01*
X35828333Y92736191D01*
X35409285Y92736191D01*
X36509285Y92788572D02*
X36875952Y92788572D01*
X37033095Y92212381D02*
X36509285Y92212381D01*
X36509285Y93312381D01*
X37033095Y93312381D01*
X37871190Y92788572D02*
X37504523Y92788572D01*
X37504523Y92212381D02*
X37504523Y93312381D01*
X38028333Y93312381D01*
X45582619Y97141667D02*
X44482619Y97141667D01*
X44482619Y97560715D01*
X44535000Y97665477D01*
X44587380Y97717858D01*
X44692142Y97770239D01*
X44849285Y97770239D01*
X44954047Y97717858D01*
X45006428Y97665477D01*
X45058809Y97560715D01*
X45058809Y97141667D01*
X45268333Y98189286D02*
X45268333Y98713096D01*
X45582619Y98084524D02*
X44482619Y98451191D01*
X45582619Y98817858D01*
X45582619Y99760715D02*
X45582619Y99132143D01*
X45582619Y99446429D02*
X44482619Y99446429D01*
X44639761Y99341667D01*
X44744523Y99236905D01*
X44796904Y99132143D01*
X48122619Y97141667D02*
X47022619Y97141667D01*
X47022619Y97560715D01*
X47075000Y97665477D01*
X47127380Y97717858D01*
X47232142Y97770239D01*
X47389285Y97770239D01*
X47494047Y97717858D01*
X47546428Y97665477D01*
X47598809Y97560715D01*
X47598809Y97141667D01*
X47808333Y98189286D02*
X47808333Y98713096D01*
X48122619Y98084524D02*
X47022619Y98451191D01*
X48122619Y98817858D01*
X47022619Y99394048D02*
X47022619Y99498810D01*
X47075000Y99603572D01*
X47127380Y99655953D01*
X47232142Y99708334D01*
X47441666Y99760715D01*
X47703571Y99760715D01*
X47913095Y99708334D01*
X48017857Y99655953D01*
X48070238Y99603572D01*
X48122619Y99498810D01*
X48122619Y99394048D01*
X48070238Y99289286D01*
X48017857Y99236905D01*
X47913095Y99184524D01*
X47703571Y99132143D01*
X47441666Y99132143D01*
X47232142Y99184524D01*
X47127380Y99236905D01*
X47075000Y99289286D01*
X47022619Y99394048D01*
X49562619Y96958334D02*
X50662619Y97325000D01*
X49562619Y97691667D01*
X50662619Y98058334D02*
X49562619Y98058334D01*
X49562619Y98320239D01*
X49615000Y98477381D01*
X49719761Y98582143D01*
X49824523Y98634524D01*
X50034047Y98686905D01*
X50191190Y98686905D01*
X50400714Y98634524D01*
X50505476Y98582143D01*
X50610238Y98477381D01*
X50662619Y98320239D01*
X50662619Y98058334D01*
X50662619Y99158334D02*
X49562619Y99158334D01*
X49562619Y99420239D01*
X49615000Y99577381D01*
X49719761Y99682143D01*
X49824523Y99734524D01*
X50034047Y99786905D01*
X50191190Y99786905D01*
X50400714Y99734524D01*
X50505476Y99682143D01*
X50610238Y99577381D01*
X50662619Y99420239D01*
X50662619Y99158334D01*
X52155000Y97586905D02*
X52102619Y97482143D01*
X52102619Y97325000D01*
X52155000Y97167858D01*
X52259761Y97063096D01*
X52364523Y97010715D01*
X52574047Y96958334D01*
X52731190Y96958334D01*
X52940714Y97010715D01*
X53045476Y97063096D01*
X53150238Y97167858D01*
X53202619Y97325000D01*
X53202619Y97429762D01*
X53150238Y97586905D01*
X53097857Y97639286D01*
X52731190Y97639286D01*
X52731190Y97429762D01*
X53202619Y98110715D02*
X52102619Y98110715D01*
X53202619Y98739286D01*
X52102619Y98739286D01*
X53202619Y99263096D02*
X52102619Y99263096D01*
X52102619Y99525000D01*
X52155000Y99682143D01*
X52259761Y99786905D01*
X52364523Y99839286D01*
X52574047Y99891667D01*
X52731190Y99891667D01*
X52940714Y99839286D01*
X53045476Y99786905D01*
X53150238Y99682143D01*
X53202619Y99525000D01*
X53202619Y99263096D01*
X55742619Y97063096D02*
X54642619Y97063096D01*
X54642619Y97482143D01*
X54695000Y97586905D01*
X54747380Y97639286D01*
X54852142Y97691667D01*
X55009285Y97691667D01*
X55114047Y97639286D01*
X55166428Y97586905D01*
X55218809Y97482143D01*
X55218809Y97063096D01*
X55166428Y98529762D02*
X55218809Y98686905D01*
X55271190Y98739286D01*
X55375952Y98791667D01*
X55533095Y98791667D01*
X55637857Y98739286D01*
X55690238Y98686905D01*
X55742619Y98582143D01*
X55742619Y98163096D01*
X54642619Y98163096D01*
X54642619Y98529762D01*
X54695000Y98634524D01*
X54747380Y98686905D01*
X54852142Y98739286D01*
X54956904Y98739286D01*
X55061666Y98686905D01*
X55114047Y98634524D01*
X55166428Y98529762D01*
X55166428Y98163096D01*
X54642619Y99472620D02*
X54642619Y99577381D01*
X54695000Y99682143D01*
X54747380Y99734524D01*
X54852142Y99786905D01*
X55061666Y99839286D01*
X55323571Y99839286D01*
X55533095Y99786905D01*
X55637857Y99734524D01*
X55690238Y99682143D01*
X55742619Y99577381D01*
X55742619Y99472620D01*
X55690238Y99367858D01*
X55637857Y99315477D01*
X55533095Y99263096D01*
X55323571Y99210715D01*
X55061666Y99210715D01*
X54852142Y99263096D01*
X54747380Y99315477D01*
X54695000Y99367858D01*
X54642619Y99472620D01*
X63362619Y97063096D02*
X62262619Y97063096D01*
X62262619Y97482143D01*
X62315000Y97586905D01*
X62367380Y97639286D01*
X62472142Y97691667D01*
X62629285Y97691667D01*
X62734047Y97639286D01*
X62786428Y97586905D01*
X62838809Y97482143D01*
X62838809Y97063096D01*
X62786428Y98529762D02*
X62838809Y98686905D01*
X62891190Y98739286D01*
X62995952Y98791667D01*
X63153095Y98791667D01*
X63257857Y98739286D01*
X63310238Y98686905D01*
X63362619Y98582143D01*
X63362619Y98163096D01*
X62262619Y98163096D01*
X62262619Y98529762D01*
X62315000Y98634524D01*
X62367380Y98686905D01*
X62472142Y98739286D01*
X62576904Y98739286D01*
X62681666Y98686905D01*
X62734047Y98634524D01*
X62786428Y98529762D01*
X62786428Y98163096D01*
X62262619Y99786905D02*
X62262619Y99263096D01*
X62786428Y99210715D01*
X62734047Y99263096D01*
X62681666Y99367858D01*
X62681666Y99629762D01*
X62734047Y99734524D01*
X62786428Y99786905D01*
X62891190Y99839286D01*
X63153095Y99839286D01*
X63257857Y99786905D01*
X63310238Y99734524D01*
X63362619Y99629762D01*
X63362619Y99367858D01*
X63310238Y99263096D01*
X63257857Y99210715D01*
X68442619Y97063096D02*
X67342619Y97063096D01*
X67342619Y97482143D01*
X67395000Y97586905D01*
X67447380Y97639286D01*
X67552142Y97691667D01*
X67709285Y97691667D01*
X67814047Y97639286D01*
X67866428Y97586905D01*
X67918809Y97482143D01*
X67918809Y97063096D01*
X67866428Y98529762D02*
X67918809Y98686905D01*
X67971190Y98739286D01*
X68075952Y98791667D01*
X68233095Y98791667D01*
X68337857Y98739286D01*
X68390238Y98686905D01*
X68442619Y98582143D01*
X68442619Y98163096D01*
X67342619Y98163096D01*
X67342619Y98529762D01*
X67395000Y98634524D01*
X67447380Y98686905D01*
X67552142Y98739286D01*
X67656904Y98739286D01*
X67761666Y98686905D01*
X67814047Y98634524D01*
X67866428Y98529762D01*
X67866428Y98163096D01*
X67342619Y99158334D02*
X67342619Y99891667D01*
X68442619Y99420239D01*
X65902619Y97063096D02*
X64802619Y97063096D01*
X64802619Y97482143D01*
X64855000Y97586905D01*
X64907380Y97639286D01*
X65012142Y97691667D01*
X65169285Y97691667D01*
X65274047Y97639286D01*
X65326428Y97586905D01*
X65378809Y97482143D01*
X65378809Y97063096D01*
X65326428Y98529762D02*
X65378809Y98686905D01*
X65431190Y98739286D01*
X65535952Y98791667D01*
X65693095Y98791667D01*
X65797857Y98739286D01*
X65850238Y98686905D01*
X65902619Y98582143D01*
X65902619Y98163096D01*
X64802619Y98163096D01*
X64802619Y98529762D01*
X64855000Y98634524D01*
X64907380Y98686905D01*
X65012142Y98739286D01*
X65116904Y98739286D01*
X65221666Y98686905D01*
X65274047Y98634524D01*
X65326428Y98529762D01*
X65326428Y98163096D01*
X64802619Y99734524D02*
X64802619Y99525000D01*
X64855000Y99420239D01*
X64907380Y99367858D01*
X65064523Y99263096D01*
X65274047Y99210715D01*
X65693095Y99210715D01*
X65797857Y99263096D01*
X65850238Y99315477D01*
X65902619Y99420239D01*
X65902619Y99629762D01*
X65850238Y99734524D01*
X65797857Y99786905D01*
X65693095Y99839286D01*
X65431190Y99839286D01*
X65326428Y99786905D01*
X65274047Y99734524D01*
X65221666Y99629762D01*
X65221666Y99420239D01*
X65274047Y99315477D01*
X65326428Y99263096D01*
X65431190Y99210715D01*
X31886904Y95066667D02*
X32410714Y95066667D01*
X31782142Y94752381D02*
X32148809Y95852381D01*
X32515476Y94752381D01*
X33510714Y94752381D02*
X33144047Y95276191D01*
X32882142Y94752381D02*
X32882142Y95852381D01*
X33301190Y95852381D01*
X33405952Y95800000D01*
X33458333Y95747620D01*
X33510714Y95642858D01*
X33510714Y95485715D01*
X33458333Y95380953D01*
X33405952Y95328572D01*
X33301190Y95276191D01*
X32882142Y95276191D01*
X33982142Y95328572D02*
X34348809Y95328572D01*
X34505952Y94752381D02*
X33982142Y94752381D01*
X33982142Y95852381D01*
X34505952Y95852381D01*
X35344047Y95328572D02*
X34977380Y95328572D01*
X34977380Y94752381D02*
X34977380Y95852381D01*
X35501190Y95852381D01*
X35658333Y94647620D02*
X36496428Y94647620D01*
X36758333Y94752381D02*
X36758333Y95852381D01*
X37282142Y94752381D02*
X37282142Y95852381D01*
X37910714Y94752381D01*
X37910714Y95852381D01*
X33143571Y8846429D02*
X33143571Y10346429D01*
X33643571Y9275000D01*
X34143571Y10346429D01*
X34143571Y8846429D01*
X35572142Y8846429D02*
X34857857Y8846429D01*
X34857857Y10346429D01*
X36000714Y9275000D02*
X36715000Y9275000D01*
X35857857Y8846429D02*
X36357857Y10346429D01*
X36857857Y8846429D01*
X37857857Y9632143D02*
X38072142Y9560715D01*
X38143571Y9489286D01*
X38215000Y9346429D01*
X38215000Y9132143D01*
X38143571Y8989286D01*
X38072142Y8917858D01*
X37929285Y8846429D01*
X37357857Y8846429D01*
X37357857Y10346429D01*
X37857857Y10346429D01*
X38000714Y10275000D01*
X38072142Y10203572D01*
X38143571Y10060715D01*
X38143571Y9917858D01*
X38072142Y9775000D01*
X38000714Y9703572D01*
X37857857Y9632143D01*
X37357857Y9632143D01*
X38857857Y8989286D02*
X38929285Y8917858D01*
X38857857Y8846429D01*
X38786428Y8917858D01*
X38857857Y8989286D01*
X38857857Y8846429D01*
X40429285Y8989286D02*
X40357857Y8917858D01*
X40143571Y8846429D01*
X40000714Y8846429D01*
X39786428Y8917858D01*
X39643571Y9060715D01*
X39572142Y9203572D01*
X39500714Y9489286D01*
X39500714Y9703572D01*
X39572142Y9989286D01*
X39643571Y10132143D01*
X39786428Y10275000D01*
X40000714Y10346429D01*
X40143571Y10346429D01*
X40357857Y10275000D01*
X40429285Y10203572D01*
X40929285Y10346429D02*
X41929285Y10346429D01*
X40929285Y8846429D01*
X41929285Y8846429D01*
X29457142Y6306429D02*
X29457142Y7806429D01*
X29814285Y7806429D01*
X30028571Y7735000D01*
X30171428Y7592143D01*
X30242857Y7449286D01*
X30314285Y7163572D01*
X30314285Y6949286D01*
X30242857Y6663572D01*
X30171428Y6520715D01*
X30028571Y6377858D01*
X29814285Y6306429D01*
X29457142Y6306429D01*
X30885714Y6735000D02*
X31600000Y6735000D01*
X30742857Y6306429D02*
X31242857Y7806429D01*
X31742857Y6306429D01*
X32028571Y7806429D02*
X32885714Y7806429D01*
X32457142Y6306429D02*
X32457142Y7806429D01*
X33314285Y6735000D02*
X34028571Y6735000D01*
X33171428Y6306429D02*
X33671428Y7806429D01*
X34171428Y6306429D01*
X35385714Y6306429D02*
X34671428Y6306429D01*
X34671428Y7806429D01*
X36171428Y7806429D02*
X36457142Y7806429D01*
X36600000Y7735000D01*
X36742857Y7592143D01*
X36814285Y7306429D01*
X36814285Y6806429D01*
X36742857Y6520715D01*
X36600000Y6377858D01*
X36457142Y6306429D01*
X36171428Y6306429D01*
X36028571Y6377858D01*
X35885714Y6520715D01*
X35814285Y6806429D01*
X35814285Y7306429D01*
X35885714Y7592143D01*
X36028571Y7735000D01*
X36171428Y7806429D01*
X38242857Y7735000D02*
X38100000Y7806429D01*
X37885714Y7806429D01*
X37671428Y7735000D01*
X37528571Y7592143D01*
X37457142Y7449286D01*
X37385714Y7163572D01*
X37385714Y6949286D01*
X37457142Y6663572D01*
X37528571Y6520715D01*
X37671428Y6377858D01*
X37885714Y6306429D01*
X38028571Y6306429D01*
X38242857Y6377858D01*
X38314285Y6449286D01*
X38314285Y6949286D01*
X38028571Y6949286D01*
X39742857Y7735000D02*
X39600000Y7806429D01*
X39385714Y7806429D01*
X39171428Y7735000D01*
X39028571Y7592143D01*
X38957142Y7449286D01*
X38885714Y7163572D01*
X38885714Y6949286D01*
X38957142Y6663572D01*
X39028571Y6520715D01*
X39171428Y6377858D01*
X39385714Y6306429D01*
X39528571Y6306429D01*
X39742857Y6377858D01*
X39814285Y6449286D01*
X39814285Y6949286D01*
X39528571Y6949286D01*
X40457142Y7092143D02*
X40957142Y7092143D01*
X41171428Y6306429D02*
X40457142Y6306429D01*
X40457142Y7806429D01*
X41171428Y7806429D01*
X42671428Y6306429D02*
X42171428Y7020715D01*
X41814285Y6306429D02*
X41814285Y7806429D01*
X42385714Y7806429D01*
X42528571Y7735000D01*
X42600000Y7663572D01*
X42671428Y7520715D01*
X42671428Y7306429D01*
X42600000Y7163572D01*
X42528571Y7092143D01*
X42385714Y7020715D01*
X41814285Y7020715D01*
X43600000Y7806429D02*
X43742857Y7806429D01*
X43885714Y7735000D01*
X43957142Y7663572D01*
X44028571Y7520715D01*
X44100000Y7235000D01*
X44100000Y6877858D01*
X44028571Y6592143D01*
X43957142Y6449286D01*
X43885714Y6377858D01*
X43742857Y6306429D01*
X43600000Y6306429D01*
X43457142Y6377858D01*
X43385714Y6449286D01*
X43314285Y6592143D01*
X43242857Y6877858D01*
X43242857Y7235000D01*
X43314285Y7520715D01*
X43385714Y7663572D01*
X43457142Y7735000D01*
X43600000Y7806429D01*
X45528571Y6306429D02*
X44671428Y6306429D01*
X45100000Y6306429D02*
X45100000Y7806429D01*
X44957142Y7592143D01*
X44814285Y7449286D01*
X44671428Y7377858D01*
X46100000Y6735000D02*
X46814285Y6735000D01*
X45957142Y6306429D02*
X46457142Y7806429D01*
X46957142Y6306429D01*
X1873571Y11473572D02*
X1945000Y11545000D01*
X2087857Y11616429D01*
X2445000Y11616429D01*
X2587857Y11545000D01*
X2659285Y11473572D01*
X2730714Y11330715D01*
X2730714Y11187858D01*
X2659285Y10973572D01*
X1802142Y10116429D01*
X2730714Y10116429D01*
X3659285Y11616429D02*
X3802142Y11616429D01*
X3945000Y11545000D01*
X4016428Y11473572D01*
X4087857Y11330715D01*
X4159285Y11045000D01*
X4159285Y10687858D01*
X4087857Y10402143D01*
X4016428Y10259286D01*
X3945000Y10187858D01*
X3802142Y10116429D01*
X3659285Y10116429D01*
X3516428Y10187858D01*
X3445000Y10259286D01*
X3373571Y10402143D01*
X3302142Y10687858D01*
X3302142Y11045000D01*
X3373571Y11330715D01*
X3445000Y11473572D01*
X3516428Y11545000D01*
X3659285Y11616429D01*
X5587857Y10116429D02*
X4730714Y10116429D01*
X5159285Y10116429D02*
X5159285Y11616429D01*
X5016428Y11402143D01*
X4873571Y11259286D01*
X4730714Y11187858D01*
X6445000Y10973572D02*
X6302142Y11045000D01*
X6230714Y11116429D01*
X6159285Y11259286D01*
X6159285Y11330715D01*
X6230714Y11473572D01*
X6302142Y11545000D01*
X6445000Y11616429D01*
X6730714Y11616429D01*
X6873571Y11545000D01*
X6945000Y11473572D01*
X7016428Y11330715D01*
X7016428Y11259286D01*
X6945000Y11116429D01*
X6873571Y11045000D01*
X6730714Y10973572D01*
X6445000Y10973572D01*
X6302142Y10902143D01*
X6230714Y10830715D01*
X6159285Y10687858D01*
X6159285Y10402143D01*
X6230714Y10259286D01*
X6302142Y10187858D01*
X6445000Y10116429D01*
X6730714Y10116429D01*
X6873571Y10187858D01*
X6945000Y10259286D01*
X7016428Y10402143D01*
X7016428Y10687858D01*
X6945000Y10830715D01*
X6873571Y10902143D01*
X6730714Y10973572D01*
X1695000Y13521429D02*
X1695000Y12450000D01*
X1623571Y12235715D01*
X1480714Y12092858D01*
X1266428Y12021429D01*
X1123571Y12021429D01*
X2337857Y12450000D02*
X3052142Y12450000D01*
X2195000Y12021429D02*
X2695000Y13521429D01*
X3195000Y12021429D01*
X4552142Y12164286D02*
X4480714Y12092858D01*
X4266428Y12021429D01*
X4123571Y12021429D01*
X3909285Y12092858D01*
X3766428Y12235715D01*
X3695000Y12378572D01*
X3623571Y12664286D01*
X3623571Y12878572D01*
X3695000Y13164286D01*
X3766428Y13307143D01*
X3909285Y13450000D01*
X4123571Y13521429D01*
X4266428Y13521429D01*
X4480714Y13450000D01*
X4552142Y13378572D01*
X5195000Y12021429D02*
X5195000Y13521429D01*
X5195000Y12807143D02*
X6052142Y12807143D01*
X6052142Y12021429D02*
X6052142Y13521429D01*
X7052142Y13521429D02*
X7337857Y13521429D01*
X7480714Y13450000D01*
X7623571Y13307143D01*
X7695000Y13021429D01*
X7695000Y12521429D01*
X7623571Y12235715D01*
X7480714Y12092858D01*
X7337857Y12021429D01*
X7052142Y12021429D01*
X6909285Y12092858D01*
X6766428Y12235715D01*
X6695000Y12521429D01*
X6695000Y13021429D01*
X6766428Y13307143D01*
X6909285Y13450000D01*
X7052142Y13521429D01*
X53788571Y7326429D02*
X53788571Y7612143D01*
X53860000Y7755000D01*
X54002857Y7897858D01*
X54288571Y7969286D01*
X54788571Y7969286D01*
X55074285Y7897858D01*
X55217142Y7755000D01*
X55288571Y7612143D01*
X55288571Y7326429D01*
X55217142Y7183572D01*
X55074285Y7040715D01*
X54788571Y6969286D01*
X54288571Y6969286D01*
X54002857Y7040715D01*
X53860000Y7183572D01*
X53788571Y7326429D01*
X55288571Y8612143D02*
X53788571Y8612143D01*
X55288571Y9469286D01*
X53788571Y9469286D01*
X73869047Y26748572D02*
X74026190Y26696191D01*
X74078571Y26643810D01*
X74130952Y26539048D01*
X74130952Y26381905D01*
X74078571Y26277143D01*
X74026190Y26224762D01*
X73921428Y26172381D01*
X73502380Y26172381D01*
X73502380Y27272381D01*
X73869047Y27272381D01*
X73973809Y27220000D01*
X74026190Y27167620D01*
X74078571Y27062858D01*
X74078571Y26958096D01*
X74026190Y26853334D01*
X73973809Y26800953D01*
X73869047Y26748572D01*
X73502380Y26748572D01*
X74550000Y26486667D02*
X75073809Y26486667D01*
X74445238Y26172381D02*
X74811904Y27272381D01*
X75178571Y26172381D01*
X75388095Y27272381D02*
X76016666Y27272381D01*
X75702380Y26172381D02*
X75702380Y27272381D01*
X76383333Y26748572D02*
X76750000Y26748572D01*
X76907142Y26172381D02*
X76383333Y26172381D01*
X76383333Y27272381D01*
X76907142Y27272381D01*
X78007142Y26172381D02*
X77640476Y26696191D01*
X77378571Y26172381D02*
X77378571Y27272381D01*
X77797619Y27272381D01*
X77902380Y27220000D01*
X77954761Y27167620D01*
X78007142Y27062858D01*
X78007142Y26905715D01*
X77954761Y26800953D01*
X77902380Y26748572D01*
X77797619Y26696191D01*
X77378571Y26696191D01*
X78688095Y26696191D02*
X78688095Y26172381D01*
X78321428Y27272381D02*
X78688095Y26696191D01*
X79054761Y27272381D01*
D11*
X79163333Y92891429D02*
X79163333Y92286667D01*
X78800476Y93012381D02*
X80070476Y92589048D01*
X78800476Y92165715D01*
X80070476Y91923810D02*
X80070476Y91198096D01*
X78800476Y91560953D02*
X80070476Y91560953D01*
X78800476Y90774762D02*
X80070476Y90774762D01*
X79163333Y90351429D01*
X80070476Y89928096D01*
X78800476Y89928096D01*
X79465714Y89323334D02*
X79465714Y88900000D01*
X78800476Y88718572D02*
X78800476Y89323334D01*
X80070476Y89323334D01*
X80070476Y88718572D01*
X78800476Y87569524D02*
X78800476Y88174286D01*
X80070476Y88174286D01*
X78800476Y86178572D02*
X80070476Y86178572D01*
X78860952Y85634286D02*
X78800476Y85452858D01*
X78800476Y85150477D01*
X78860952Y85029524D01*
X78921428Y84969048D01*
X79042380Y84908572D01*
X79163333Y84908572D01*
X79284285Y84969048D01*
X79344761Y85029524D01*
X79405238Y85150477D01*
X79465714Y85392381D01*
X79526190Y85513334D01*
X79586666Y85573810D01*
X79707619Y85634286D01*
X79828571Y85634286D01*
X79949523Y85573810D01*
X80010000Y85513334D01*
X80070476Y85392381D01*
X80070476Y85090000D01*
X80010000Y84908572D01*
X78800476Y84364286D02*
X80070476Y84364286D01*
X80070476Y83880477D01*
X80010000Y83759524D01*
X79949523Y83699048D01*
X79828571Y83638572D01*
X79647142Y83638572D01*
X79526190Y83699048D01*
X79465714Y83759524D01*
X79405238Y83880477D01*
X79405238Y84364286D01*
D12*
%TO.C,BT1*%
X35409285Y71691429D02*
X35552142Y71643810D01*
X35599761Y71596191D01*
X35647380Y71500953D01*
X35647380Y71358096D01*
X35599761Y71262858D01*
X35552142Y71215239D01*
X35456904Y71167620D01*
X35075952Y71167620D01*
X35075952Y72167620D01*
X35409285Y72167620D01*
X35504523Y72120000D01*
X35552142Y72072381D01*
X35599761Y71977143D01*
X35599761Y71881905D01*
X35552142Y71786667D01*
X35504523Y71739048D01*
X35409285Y71691429D01*
X35075952Y71691429D01*
X35933095Y72167620D02*
X36504523Y72167620D01*
X36218809Y71167620D02*
X36218809Y72167620D01*
X37361666Y71167620D02*
X36790238Y71167620D01*
X37075952Y71167620D02*
X37075952Y72167620D01*
X36980714Y72024762D01*
X36885476Y71929524D01*
X36790238Y71881905D01*
X59055476Y69135715D02*
X66674523Y69135715D01*
X62865000Y65326191D02*
X62865000Y72945239D01*
D13*
%TO.C,J6*%
X73886190Y20081858D02*
X73886190Y19796143D01*
X73886190Y19939000D02*
X73386190Y19939000D01*
X73457619Y19891381D01*
X73505238Y19843762D01*
X73529047Y19796143D01*
%TO.C,J10*%
X77993857Y28983810D02*
X77708142Y28983810D01*
X77851000Y28983810D02*
X77851000Y29483810D01*
X77803380Y29412381D01*
X77755761Y29364762D01*
X77708142Y29340953D01*
%TO.C,J31*%
X77993857Y84863810D02*
X77708142Y84863810D01*
X77851000Y84863810D02*
X77851000Y85363810D01*
X77803380Y85292381D01*
X77755761Y85244762D01*
X77708142Y85220953D01*
%TO.C,J33*%
X73886190Y9921858D02*
X73886190Y9636143D01*
X73886190Y9779000D02*
X73386190Y9779000D01*
X73457619Y9731381D01*
X73505238Y9683762D01*
X73529047Y9636143D01*
D12*
%TO.C,BT2*%
X35409285Y33591429D02*
X35552142Y33543810D01*
X35599761Y33496191D01*
X35647380Y33400953D01*
X35647380Y33258096D01*
X35599761Y33162858D01*
X35552142Y33115239D01*
X35456904Y33067620D01*
X35075952Y33067620D01*
X35075952Y34067620D01*
X35409285Y34067620D01*
X35504523Y34020000D01*
X35552142Y33972381D01*
X35599761Y33877143D01*
X35599761Y33781905D01*
X35552142Y33686667D01*
X35504523Y33639048D01*
X35409285Y33591429D01*
X35075952Y33591429D01*
X35933095Y34067620D02*
X36504523Y34067620D01*
X36218809Y33067620D02*
X36218809Y34067620D01*
X36790238Y33972381D02*
X36837857Y34020000D01*
X36933095Y34067620D01*
X37171190Y34067620D01*
X37266428Y34020000D01*
X37314047Y33972381D01*
X37361666Y33877143D01*
X37361666Y33781905D01*
X37314047Y33639048D01*
X36742619Y33067620D01*
X37361666Y33067620D01*
X59055476Y31035715D02*
X66674523Y31035715D01*
X62865000Y27226191D02*
X62865000Y34845239D01*
%TO.C,D3*%
X12596904Y2087620D02*
X12596904Y3087620D01*
X12835000Y3087620D01*
X12977857Y3040000D01*
X13073095Y2944762D01*
X13120714Y2849524D01*
X13168333Y2659048D01*
X13168333Y2516191D01*
X13120714Y2325715D01*
X13073095Y2230477D01*
X12977857Y2135239D01*
X12835000Y2087620D01*
X12596904Y2087620D01*
X13501666Y3087620D02*
X14120714Y3087620D01*
X13787380Y2706667D01*
X13930238Y2706667D01*
X14025476Y2659048D01*
X14073095Y2611429D01*
X14120714Y2516191D01*
X14120714Y2278096D01*
X14073095Y2182858D01*
X14025476Y2135239D01*
X13930238Y2087620D01*
X13644523Y2087620D01*
X13549285Y2135239D01*
X13501666Y2182858D01*
%TO.C,Y1*%
X74906190Y73183810D02*
X75382380Y73183810D01*
X74382380Y72850477D02*
X74906190Y73183810D01*
X74382380Y73517143D01*
X75382380Y74374286D02*
X75382380Y73802858D01*
X75382380Y74088572D02*
X74382380Y74088572D01*
X74525238Y73993334D01*
X74620476Y73898096D01*
X74668095Y73802858D01*
%TO.C,SW1*%
X61531666Y4421239D02*
X61674523Y4373620D01*
X61912619Y4373620D01*
X62007857Y4421239D01*
X62055476Y4468858D01*
X62103095Y4564096D01*
X62103095Y4659334D01*
X62055476Y4754572D01*
X62007857Y4802191D01*
X61912619Y4849810D01*
X61722142Y4897429D01*
X61626904Y4945048D01*
X61579285Y4992667D01*
X61531666Y5087905D01*
X61531666Y5183143D01*
X61579285Y5278381D01*
X61626904Y5326000D01*
X61722142Y5373620D01*
X61960238Y5373620D01*
X62103095Y5326000D01*
X62436428Y5373620D02*
X62674523Y4373620D01*
X62865000Y5087905D01*
X63055476Y4373620D01*
X63293571Y5373620D01*
X64198333Y4373620D02*
X63626904Y4373620D01*
X63912619Y4373620D02*
X63912619Y5373620D01*
X63817380Y5230762D01*
X63722142Y5135524D01*
X63626904Y5087905D01*
%TO.C,J26*%
X53975000Y91440000D02*
X53975000Y96520000D01*
X56515000Y91440000D02*
X53975000Y91440000D01*
X56515000Y96520000D02*
X56515000Y91440000D01*
X53975000Y96520000D02*
X56515000Y96520000D01*
%TO.C,BT1*%
X71695000Y52070000D02*
X71695000Y90170000D01*
X695000Y52070000D02*
X695000Y90170000D01*
X71695000Y52070000D02*
X695000Y52070000D01*
X71695000Y90170000D02*
X695000Y90170000D01*
%TO.C,J24*%
X51435000Y96520000D02*
X51435000Y91440000D01*
X48895000Y96520000D02*
X51435000Y96520000D01*
X48895000Y91440000D02*
X48895000Y96520000D01*
X51435000Y91440000D02*
X48895000Y91440000D01*
%TO.C,J4*%
X72390000Y45085000D02*
X72390000Y47625000D01*
X77470000Y45085000D02*
X72390000Y45085000D01*
X72390000Y47625000D02*
X77470000Y47625000D01*
X77470000Y47625000D02*
X77470000Y45085000D01*
%TO.C,J22*%
X46355000Y91440000D02*
X46355000Y96520000D01*
X46355000Y96520000D02*
X48895000Y96520000D01*
X48895000Y96520000D02*
X48895000Y91440000D01*
X48895000Y91440000D02*
X46355000Y91440000D01*
%TO.C,J20*%
X72390000Y59055000D02*
X77470000Y59055000D01*
X77470000Y56515000D02*
X72390000Y56515000D01*
X72390000Y56515000D02*
X72390000Y59055000D01*
X77470000Y59055000D02*
X77470000Y56515000D01*
%TO.C,J17*%
X72390000Y66675000D02*
X77470000Y66675000D01*
X72390000Y64135000D02*
X72390000Y66675000D01*
X77470000Y66675000D02*
X77470000Y64135000D01*
X77470000Y64135000D02*
X72390000Y64135000D01*
%TO.C,J19*%
X77470000Y61595000D02*
X77470000Y59055000D01*
X77470000Y59055000D02*
X72390000Y59055000D01*
X72390000Y61595000D02*
X77470000Y61595000D01*
X72390000Y59055000D02*
X72390000Y61595000D01*
%TO.C,J18*%
X72390000Y61595000D02*
X72390000Y64135000D01*
X77470000Y64135000D02*
X77470000Y61595000D01*
X72390000Y64135000D02*
X77470000Y64135000D01*
X77470000Y61595000D02*
X72390000Y61595000D01*
%TO.C,J1*%
X72390000Y45085000D02*
X77470000Y45085000D01*
X77470000Y45085000D02*
X77470000Y42545000D01*
X77470000Y42545000D02*
X72390000Y42545000D01*
X72390000Y42545000D02*
X72390000Y45085000D01*
%TO.C,J2*%
X77470000Y52705000D02*
X77470000Y50165000D01*
X77470000Y50165000D02*
X72390000Y50165000D01*
X72390000Y52705000D02*
X77470000Y52705000D01*
X72390000Y50165000D02*
X72390000Y52705000D01*
%TO.C,J5*%
X77470000Y52705000D02*
X72390000Y52705000D01*
X72390000Y55245000D02*
X77470000Y55245000D01*
X72390000Y52705000D02*
X72390000Y55245000D01*
X77470000Y55245000D02*
X77470000Y52705000D01*
%TO.C,J6*%
X80010000Y25400000D02*
X80010000Y20320000D01*
X72390000Y20320000D02*
X72390000Y25400000D01*
X72390000Y25400000D02*
X80010000Y25400000D01*
X80010000Y20320000D02*
X72390000Y20320000D01*
%TO.C,J8*%
X77470000Y80010000D02*
X72390000Y80010000D01*
X77470000Y82550000D02*
X77470000Y80010000D01*
X72390000Y82550000D02*
X77470000Y82550000D01*
X72390000Y80010000D02*
X72390000Y82550000D01*
%TO.C,J9*%
X41275000Y96520000D02*
X41275000Y91440000D01*
X38735000Y91440000D02*
X38735000Y96520000D01*
X41275000Y91440000D02*
X38735000Y91440000D01*
X38735000Y96520000D02*
X41275000Y96520000D01*
%TO.C,J10*%
X77470000Y27940000D02*
X72390000Y27940000D01*
X77470000Y35560000D02*
X77470000Y27940000D01*
X72390000Y27940000D02*
X72390000Y35560000D01*
X72390000Y35560000D02*
X77470000Y35560000D01*
%TO.C,J11*%
X20955000Y10160000D02*
X20955000Y5080000D01*
X18415000Y10160000D02*
X20955000Y10160000D01*
X18415000Y5080000D02*
X18415000Y10160000D01*
X20955000Y5080000D02*
X18415000Y5080000D01*
%TO.C,J21*%
X77470000Y38735000D02*
X77470000Y36195000D01*
X72390000Y36195000D02*
X72390000Y38735000D01*
X72390000Y38735000D02*
X77470000Y38735000D01*
X77470000Y36195000D02*
X72390000Y36195000D01*
%TO.C,J23*%
X43815000Y96520000D02*
X46355000Y96520000D01*
X46355000Y96520000D02*
X46355000Y91440000D01*
X46355000Y91440000D02*
X43815000Y91440000D01*
X43815000Y91440000D02*
X43815000Y96520000D01*
%TO.C,J25*%
X53975000Y91440000D02*
X51435000Y91440000D01*
X51435000Y96520000D02*
X53975000Y96520000D01*
X51435000Y91440000D02*
X51435000Y96520000D01*
X53975000Y96520000D02*
X53975000Y91440000D01*
%TO.C,J27*%
X64135000Y96520000D02*
X66675000Y96520000D01*
X64135000Y91440000D02*
X64135000Y96520000D01*
X66675000Y96520000D02*
X66675000Y91440000D01*
X66675000Y91440000D02*
X64135000Y91440000D01*
%TO.C,J28*%
X66675000Y96520000D02*
X69215000Y96520000D01*
X66675000Y91440000D02*
X66675000Y96520000D01*
X69215000Y91440000D02*
X66675000Y91440000D01*
X69215000Y96520000D02*
X69215000Y91440000D01*
%TO.C,J29*%
X61595000Y91440000D02*
X61595000Y96520000D01*
X64135000Y91440000D02*
X61595000Y91440000D01*
X64135000Y96520000D02*
X64135000Y91440000D01*
X61595000Y96520000D02*
X64135000Y96520000D01*
%TO.C,J30*%
X77470000Y38735000D02*
X72390000Y38735000D01*
X72390000Y38735000D02*
X72390000Y41275000D01*
X72390000Y41275000D02*
X77470000Y41275000D01*
X77470000Y41275000D02*
X77470000Y38735000D01*
%TO.C,J31*%
X77470000Y83820000D02*
X72390000Y83820000D01*
X77470000Y91440000D02*
X77470000Y83820000D01*
X72390000Y83820000D02*
X72390000Y91440000D01*
X72390000Y91440000D02*
X77470000Y91440000D01*
%TO.C,J32*%
X74930000Y15240000D02*
X74930000Y20320000D01*
X77470000Y15240000D02*
X74930000Y15240000D01*
X77470000Y20320000D02*
X77470000Y15240000D01*
X74930000Y20320000D02*
X77470000Y20320000D01*
%TO.C,J33*%
X80010000Y15240000D02*
X80010000Y10160000D01*
X72390000Y15240000D02*
X80010000Y15240000D01*
X72390000Y10160000D02*
X72390000Y15240000D01*
X80010000Y10160000D02*
X72390000Y10160000D01*
%TO.C,BT2*%
X71695000Y13970000D02*
X695000Y13970000D01*
X695000Y13970000D02*
X695000Y52070000D01*
X71695000Y13970000D02*
X71695000Y52070000D01*
X71695000Y52070000D02*
X695000Y52070000D01*
%TO.C,D3*%
X11085000Y1180000D02*
X11085000Y7180000D01*
X11085000Y7180000D02*
X15585000Y7180000D01*
X15585000Y1180000D02*
X11085000Y1180000D01*
X15585000Y7180000D02*
X15585000Y1180000D01*
%TO.C,J3*%
X72390000Y50165000D02*
X77470000Y50165000D01*
X72390000Y47625000D02*
X72390000Y50165000D01*
X77470000Y50165000D02*
X77470000Y47625000D01*
X77470000Y47625000D02*
X72390000Y47625000D01*
%TO.C,Y1*%
X74190860Y68249800D02*
X74660760Y68140580D01*
X76730860Y70258940D02*
X76629260Y69860160D01*
X74729340Y78661260D02*
X75229720Y78661260D01*
X76819760Y69110860D02*
X77050900Y69499480D01*
X75161140Y79179420D02*
X74650600Y79179420D01*
X74129900Y78460600D02*
X74729340Y78661260D01*
X73329800Y77660500D02*
X73629520Y78059280D01*
X73731120Y69159120D02*
X73329800Y69761100D01*
X76649580Y78430120D02*
X76299060Y78760320D01*
X77259180Y76850240D02*
X77210920Y77309980D01*
X75529440Y68760340D02*
X74930000Y68658740D01*
X75580240Y68209160D02*
X76029820Y68399660D01*
X76499720Y68760340D02*
X76819760Y69110860D01*
X72600820Y76860400D02*
X72600820Y70408800D01*
X73129140Y70360540D02*
X73129140Y76959460D01*
X75930760Y68961000D02*
X75529440Y68760340D01*
X75229720Y78661260D02*
X75730100Y78460600D01*
X75730100Y78460600D02*
X76329540Y77960220D01*
X73329800Y69761100D02*
X73129140Y70360540D01*
X73129140Y76959460D02*
X73329800Y77660500D01*
X73309480Y68800980D02*
X73639680Y68549520D01*
X72809100Y69499480D02*
X73030080Y69121020D01*
X76730860Y76860400D02*
X76730860Y70258940D01*
X76329540Y69359780D02*
X75829160Y68859400D01*
X73639680Y68549520D02*
X74190860Y68249800D01*
X72989440Y78150720D02*
X72781160Y77729080D01*
X77050900Y69499480D02*
X77190600Y69928740D01*
X73360280Y78610460D02*
X72989440Y78150720D01*
X75760580Y79049880D02*
X75161140Y79179420D01*
X72600820Y70408800D02*
X72638920Y69989700D01*
X76029820Y68399660D02*
X76499720Y68760340D01*
X74650600Y79179420D02*
X73949560Y79009240D01*
X76329540Y77960220D02*
X76629260Y77459840D01*
X76629260Y77459840D02*
X76730860Y76959460D01*
X75120500Y68120260D02*
X75580240Y68209160D01*
X73949560Y79009240D02*
X73360280Y78610460D01*
X73030080Y69121020D02*
X73309480Y68800980D01*
X72621140Y77279500D02*
X72590660Y76840080D01*
X74660760Y68140580D02*
X75120500Y68120260D01*
X77190600Y69928740D02*
X77259180Y70370700D01*
X72638920Y69989700D02*
X72809100Y69499480D01*
X74930000Y68658740D02*
X74429620Y68760340D01*
X76629260Y69860160D02*
X76329540Y69359780D01*
X77099160Y77708760D02*
X76880720Y78140560D01*
X76880720Y78140560D02*
X76649580Y78430120D01*
X72781160Y77729080D02*
X72621140Y77279500D01*
X77259180Y76860400D02*
X77259180Y70408800D01*
X76299060Y78760320D02*
X75760580Y79049880D01*
X74429620Y68760340D02*
X73731120Y69159120D01*
X77210920Y77309980D02*
X77099160Y77708760D01*
X73629520Y78059280D02*
X74129900Y78460600D01*
%TO.C,J12*%
X11430000Y91440000D02*
X11430000Y96520000D01*
X13970000Y91440000D02*
X11430000Y91440000D01*
X13970000Y96520000D02*
X13970000Y91440000D01*
X11430000Y96520000D02*
X13970000Y96520000D01*
%TO.C,J16*%
X24130000Y96520000D02*
X24130000Y91440000D01*
X21590000Y91440000D02*
X21590000Y96520000D01*
X21590000Y96520000D02*
X24130000Y96520000D01*
X24130000Y91440000D02*
X21590000Y91440000D01*
%TO.C,J15*%
X19050000Y96520000D02*
X21590000Y96520000D01*
X21590000Y91440000D02*
X19050000Y91440000D01*
X21590000Y96520000D02*
X21590000Y91440000D01*
X19050000Y91440000D02*
X19050000Y96520000D01*
%TO.C,J14*%
X19050000Y96520000D02*
X19050000Y91440000D01*
X16510000Y96520000D02*
X19050000Y96520000D01*
X16510000Y91440000D02*
X16510000Y96520000D01*
X19050000Y91440000D02*
X16510000Y91440000D01*
%TO.C,J13*%
X13970000Y96520000D02*
X16510000Y96520000D01*
X16510000Y91440000D02*
X13970000Y91440000D01*
X13970000Y91440000D02*
X13970000Y96520000D01*
X16510000Y96520000D02*
X16510000Y91440000D01*
%TO.C,SW1*%
X69470000Y1286000D02*
X56260000Y1286000D01*
X56260000Y1286000D02*
X56260000Y11286000D01*
X69470000Y11286000D02*
X69470000Y1286000D01*
X56260000Y11286000D02*
X69470000Y11286000D01*
%TD*%
D14*
%TO.C,J26*%
X55245000Y92710000D03*
X55245000Y95250000D03*
%TD*%
%TO.C,J24*%
X50165000Y92710000D03*
X50165000Y95250000D03*
%TD*%
%TO.C,J4*%
X76200000Y46355000D03*
X73660000Y46355000D03*
%TD*%
%TO.C,J22*%
X47625000Y92710000D03*
X47625000Y95250000D03*
%TD*%
%TO.C,J20*%
X73660000Y57785000D03*
X76200000Y57785000D03*
%TD*%
%TO.C,J17*%
X73660000Y65405000D03*
X76200000Y65405000D03*
%TD*%
%TO.C,J19*%
X73660000Y60325000D03*
X76200000Y60325000D03*
%TD*%
%TO.C,J18*%
X73660000Y62865000D03*
X76200000Y62865000D03*
%TD*%
%TO.C,J1*%
X76200000Y43815000D03*
X73660000Y43815000D03*
%TD*%
%TO.C,J2*%
X76200000Y51435000D03*
X73660000Y51435000D03*
%TD*%
%TO.C,J5*%
X76200000Y53975000D03*
X73660000Y53975000D03*
%TD*%
%TO.C,J6*%
X73660000Y21590000D03*
X73660000Y24130000D03*
X76200000Y21590000D03*
X76200000Y24130000D03*
X78740000Y21590000D03*
X78740000Y24130000D03*
%TD*%
%TO.C,J8*%
X76200000Y81280000D03*
X73660000Y81280000D03*
%TD*%
%TO.C,J9*%
X40005000Y92710000D03*
X40005000Y95250000D03*
%TD*%
%TO.C,J10*%
X76200000Y29210000D03*
X73660000Y29210000D03*
X76200000Y31750000D03*
X73660000Y31750000D03*
X76200000Y34290000D03*
X73660000Y34290000D03*
%TD*%
%TO.C,J11*%
X19685000Y8890000D03*
X19685000Y6350000D03*
%TD*%
%TO.C,J21*%
X73660000Y37465000D03*
X76200000Y37465000D03*
%TD*%
%TO.C,J23*%
X45085000Y92710000D03*
X45085000Y95250000D03*
%TD*%
%TO.C,J25*%
X52705000Y92710000D03*
X52705000Y95250000D03*
%TD*%
%TO.C,J27*%
X65405000Y92710000D03*
X65405000Y95250000D03*
%TD*%
%TO.C,J28*%
X67945000Y92710000D03*
X67945000Y95250000D03*
%TD*%
%TO.C,J29*%
X62865000Y92710000D03*
X62865000Y95250000D03*
%TD*%
%TO.C,J30*%
X73660000Y40005000D03*
X76200000Y40005000D03*
%TD*%
%TO.C,J31*%
X76200000Y85090000D03*
X73660000Y85090000D03*
X76200000Y87630000D03*
X73660000Y87630000D03*
X76200000Y90170000D03*
X73660000Y90170000D03*
%TD*%
%TO.C,J32*%
X76200000Y16510000D03*
X76200000Y19050000D03*
%TD*%
%TO.C,J33*%
X73660000Y11430000D03*
X73660000Y13970000D03*
X76200000Y11430000D03*
X76200000Y13970000D03*
X78740000Y11430000D03*
X78740000Y13970000D03*
%TD*%
%TO.C,J3*%
X76200000Y48895000D03*
X73660000Y48895000D03*
%TD*%
D15*
%TO.C,Y1*%
X74930000Y76100940D03*
X74930000Y71219060D03*
%TD*%
D14*
%TO.C,J12*%
X12700000Y92710000D03*
X12700000Y95250000D03*
%TD*%
%TO.C,J16*%
X22860000Y92710000D03*
X22860000Y95250000D03*
%TD*%
%TO.C,J15*%
X20320000Y92710000D03*
X20320000Y95250000D03*
%TD*%
%TO.C,J14*%
X17780000Y92710000D03*
X17780000Y95250000D03*
%TD*%
%TO.C,J13*%
X15240000Y92710000D03*
X15240000Y95250000D03*
%TD*%
M02*
