  0
SECTION
  2
HEADER
  9
$ANGBASE
  50
0.0
  9
$ANGDIR
  70
1
  9
$MEASUREMENT
  70
0
  0
ENDSEC
  0
SECTION
  2
TABLES
  0
TABLE
  2
LTYPE
  70
4
  0
LTYPE
  5
40F
  2
CONTINUOUS
  70
0
  3
Solid line
  72
65
  73
0
  40
0.0
  0
LTYPE
  5
410
  2
DASHDOT
 70
0
  3
Dash Dot ____ _ ____ _
 72
65
 73
4
 40
2.0
 49
1.25
 49
-0.25
 49
0.25
 49
-0.25
  0
LTYPE
  5
411
  2
DASHED
 70
0
  3
Dashed __ __ __ __ __
 72
65
 73
2
 40
0.75
 49
0.5
 49
-0.25
  0
LTYPE
  5
43B
  2
DOTTED
 70
0
  3
Dotted .  .  .  .
 72
65
 73
2
 40
0.2
 49
0.0
 49
-0.2
  0
ENDTAB
  0
TABLE
  2
STYLE
  70
4
  0
STYLE
  2
KICAD
  70
0
  40
0
  41
1
  42
1
  50
0
  71
0
  3
isocp.shx
  0
STYLE
  2
KICADB
  70
0
  40
0
  41
1
  42
1
  50
0
  71
0
  3
isocp.shx
  0
STYLE
  2
KICADI
  70
0
  40
0
  41
1
  42
1
  50
15
  71
0
  3
isocp.shx
  0
STYLE
  2
KICADBI
  70
0
  40
0
  41
1
  42
1
  50
15
  71
0
  3
isocp.shx
  0
ENDTAB
  0
TABLE
  2
LAYER
  70
1
  0
LAYER
  2
BLACK
  70
0
  62
7
  6
CONTINUOUS
  0
ENDTAB
  0
ENDSEC
  0
SECTION
  2
ENTITIES
0
LINE
8
BLACK
6
CONTINUOUS
10
0.20865
20
0.317793
11
0.222132
21
0.316018
0
LINE
8
BLACK
6
CONTINUOUS
10
0.222132
20
0.316018
11
0.23532
21
0.312706
0
LINE
8
BLACK
6
CONTINUOUS
10
0.23532
20
0.312706
11
0.24804
21
0.307899
0
LINE
8
BLACK
6
CONTINUOUS
10
0.24804
20
0.307899
11
0.260123
21
0.301662
0
LINE
8
BLACK
6
CONTINUOUS
10
0.260123
20
0.301662
11
0.271409
21
0.294078
0
LINE
8
BLACK
6
CONTINUOUS
10
0.271409
20
0.294078
11
0.281749
21
0.285247
0
LINE
8
BLACK
6
CONTINUOUS
10
0.281749
20
0.285247
11
0.291006
21
0.275286
0
LINE
8
BLACK
6
CONTINUOUS
10
0.291006
20
0.275286
11
0.299056
21
0.264327
0
LINE
8
BLACK
6
CONTINUOUS
10
0.299056
20
0.264327
11
0.305793
21
0.252516
0
LINE
8
BLACK
6
CONTINUOUS
10
0.305793
20
0.252516
11
0.311128
21
0.240008
0
LINE
8
BLACK
6
CONTINUOUS
10
0.311128
20
0.240008
11
0.31499
21
0.226971
0
LINE
8
BLACK
6
CONTINUOUS
10
0.31499
20
0.226971
11
0.317327
21
0.213575
0
LINE
8
BLACK
6
CONTINUOUS
10
0.317327
20
0.213575
11
0.31811
21
0.2
0
LINE
8
BLACK
6
CONTINUOUS
10
0.31811
20
0.2
11
0.317877
21
0.192584
0
LINE
8
BLACK
6
CONTINUOUS
10
0.317877
20
0.192584
11
0.316244
21
0.179084
0
LINE
8
BLACK
6
CONTINUOUS
10
0.316244
20
0.179084
11
0.313069
21
0.165862
0
LINE
8
BLACK
6
CONTINUOUS
10
0.313069
20
0.165862
11
0.308396
21
0.153093
0
LINE
8
BLACK
6
CONTINUOUS
10
0.308396
20
0.153093
11
0.302286
21
0.140945
0
LINE
8
BLACK
6
CONTINUOUS
10
0.302286
20
0.140945
11
0.294821
21
0.12958
0
LINE
8
BLACK
6
CONTINUOUS
10
0.294821
20
0.12958
11
0.286099
21
0.119148
0
LINE
8
BLACK
6
CONTINUOUS
10
0.286099
20
0.119148
11
0.276235
21
0.109788
0
LINE
8
BLACK
6
CONTINUOUS
10
0.276235
20
0.109788
11
0.265361
21
0.101623
0
LINE
8
BLACK
6
CONTINUOUS
10
0.265361
20
0.101623
11
0.253621
21
0.094763
0
LINE
8
BLACK
6
CONTINUOUS
10
0.253621
20
0.094763
11
0.24117
21
0.0892974
0
LINE
8
BLACK
6
CONTINUOUS
10
0.24117
20
0.0892974
11
0.228173
21
0.0852991
0
LINE
8
BLACK
6
CONTINUOUS
10
0.228173
20
0.0852991
11
0.214803
21
0.0828211
0
LINE
8
BLACK
6
CONTINUOUS
10
0.214803
20
0.0828211
11
0.201237
21
0.0818962
0
LINE
8
BLACK
6
CONTINUOUS
10
0.201237
20
0.0818962
11
0.187654
21
0.0825368
0
LINE
8
BLACK
6
CONTINUOUS
10
0.187654
20
0.0825368
11
0.174235
21
0.0847343
0
LINE
8
BLACK
6
CONTINUOUS
10
0.174235
20
0.0847343
11
0.161157
21
0.0884595
0
LINE
8
BLACK
6
CONTINUOUS
10
0.161157
20
0.0884595
11
0.148595
21
0.0936631
0
LINE
8
BLACK
6
CONTINUOUS
10
0.148595
20
0.0936631
11
0.136713
21
0.100276
0
LINE
8
BLACK
6
CONTINUOUS
10
0.136713
20
0.100276
11
0.125671
21
0.108211
0
LINE
8
BLACK
6
CONTINUOUS
10
0.125671
20
0.108211
11
0.115613
21
0.117363
0
LINE
8
BLACK
6
CONTINUOUS
10
0.115613
20
0.117363
11
0.106675
21
0.127609
0
LINE
8
BLACK
6
CONTINUOUS
10
0.106675
20
0.127609
11
0.0989727
21
0.138816
0
LINE
8
BLACK
6
CONTINUOUS
10
0.0989727
20
0.138816
11
0.0926099
21
0.150833
0
LINE
8
BLACK
6
CONTINUOUS
10
0.0926099
20
0.150833
11
0.0876705
21
0.163502
0
LINE
8
BLACK
6
CONTINUOUS
10
0.0876705
20
0.163502
11
0.0842199
21
0.176655
0
LINE
8
BLACK
6
CONTINUOUS
10
0.0842199
20
0.176655
11
0.082304
21
0.190117
0
LINE
8
BLACK
6
CONTINUOUS
10
0.082304
20
0.190117
11
0.081948
21
0.20371
0
LINE
8
BLACK
6
CONTINUOUS
10
0.081948
20
0.20371
11
0.0831568
21
0.217254
0
LINE
8
BLACK
6
CONTINUOUS
10
0.0831568
20
0.217254
11
0.0859143
21
0.230569
0
LINE
8
BLACK
6
CONTINUOUS
10
0.0859143
20
0.230569
11
0.0901839
21
0.243479
0
LINE
8
BLACK
6
CONTINUOUS
10
0.0901839
20
0.243479
11
0.0959091
21
0.255813
0
LINE
8
BLACK
6
CONTINUOUS
10
0.0959091
20
0.255813
11
0.103014
21
0.267407
0
LINE
8
BLACK
6
CONTINUOUS
10
0.103014
20
0.267407
11
0.111404
21
0.278108
0
LINE
8
BLACK
6
CONTINUOUS
10
0.111404
20
0.278108
11
0.120969
21
0.287773
0
LINE
8
BLACK
6
CONTINUOUS
10
0.120969
20
0.287773
11
0.131581
21
0.296275
0
LINE
8
BLACK
6
CONTINUOUS
10
0.131581
20
0.296275
11
0.1431
21
0.303501
0
LINE
8
BLACK
6
CONTINUOUS
10
0.1431
20
0.303501
11
0.155373
21
0.309355
0
LINE
8
BLACK
6
CONTINUOUS
10
0.155373
20
0.309355
11
0.168238
21
0.313759
0
LINE
8
BLACK
6
CONTINUOUS
10
0.168238
20
0.313759
11
0.181524
21
0.316656
0
LINE
8
BLACK
6
CONTINUOUS
10
0.181524
20
0.316656
11
0.195054
21
0.318007
0
LINE
8
BLACK
6
CONTINUOUS
10
0.195054
20
0.318007
11
0.20865
21
0.317793
0
LINE
8
BLACK
6
CONTINUOUS
10
3.00865
20
3.90519
11
3.02213
21
3.90342
0
LINE
8
BLACK
6
CONTINUOUS
10
3.02213
20
3.90342
11
3.03532
21
3.90011
0
LINE
8
BLACK
6
CONTINUOUS
10
3.03532
20
3.90011
11
3.04804
21
3.8953
0
LINE
8
BLACK
6
CONTINUOUS
10
3.04804
20
3.8953
11
3.06012
21
3.88906
0
LINE
8
BLACK
6
CONTINUOUS
10
3.06012
20
3.88906
11
3.07141
21
3.88148
0
LINE
8
BLACK
6
CONTINUOUS
10
3.07141
20
3.88148
11
3.08175
21
3.87265
0
LINE
8
BLACK
6
CONTINUOUS
10
3.08175
20
3.87265
11
3.09101
21
3.86269
0
LINE
8
BLACK
6
CONTINUOUS
10
3.09101
20
3.86269
11
3.09906
21
3.85173
0
LINE
8
BLACK
6
CONTINUOUS
10
3.09906
20
3.85173
11
3.10579
21
3.83992
0
LINE
8
BLACK
6
CONTINUOUS
10
3.10579
20
3.83992
11
3.11113
21
3.82741
0
LINE
8
BLACK
6
CONTINUOUS
10
3.11113
20
3.82741
11
3.11499
21
3.81437
0
LINE
8
BLACK
6
CONTINUOUS
10
3.11499
20
3.81437
11
3.11733
21
3.80098
0
LINE
8
BLACK
6
CONTINUOUS
10
3.11733
20
3.80098
11
3.11811
21
3.7874
0
LINE
8
BLACK
6
CONTINUOUS
10
3.11811
20
3.7874
11
3.11788
21
3.77999
0
LINE
8
BLACK
6
CONTINUOUS
10
3.11788
20
3.77999
11
3.11624
21
3.76649
0
LINE
8
BLACK
6
CONTINUOUS
10
3.11624
20
3.76649
11
3.11307
21
3.75326
0
LINE
8
BLACK
6
CONTINUOUS
10
3.11307
20
3.75326
11
3.1084
21
3.74049
0
LINE
8
BLACK
6
CONTINUOUS
10
3.1084
20
3.74049
11
3.10229
21
3.72835
0
LINE
8
BLACK
6
CONTINUOUS
10
3.10229
20
3.72835
11
3.09482
21
3.71698
0
LINE
8
BLACK
6
CONTINUOUS
10
3.09482
20
3.71698
11
3.0861
21
3.70655
0
LINE
8
BLACK
6
CONTINUOUS
10
3.0861
20
3.70655
11
3.07624
21
3.69719
0
LINE
8
BLACK
6
CONTINUOUS
10
3.07624
20
3.69719
11
3.06536
21
3.68903
0
LINE
8
BLACK
6
CONTINUOUS
10
3.06536
20
3.68903
11
3.05362
21
3.68216
0
LINE
8
BLACK
6
CONTINUOUS
10
3.05362
20
3.68216
11
3.04117
21
3.6767
0
LINE
8
BLACK
6
CONTINUOUS
10
3.04117
20
3.6767
11
3.02817
21
3.6727
0
LINE
8
BLACK
6
CONTINUOUS
10
3.02817
20
3.6727
11
3.0148
21
3.67022
0
LINE
8
BLACK
6
CONTINUOUS
10
3.0148
20
3.67022
11
3.00124
21
3.6693
0
LINE
8
BLACK
6
CONTINUOUS
10
3.00124
20
3.6693
11
2.98765
21
3.66994
0
LINE
8
BLACK
6
CONTINUOUS
10
2.98765
20
3.66994
11
2.97424
21
3.67214
0
LINE
8
BLACK
6
CONTINUOUS
10
2.97424
20
3.67214
11
2.96116
21
3.67586
0
LINE
8
BLACK
6
CONTINUOUS
10
2.96116
20
3.67586
11
2.94859
21
3.68106
0
LINE
8
BLACK
6
CONTINUOUS
10
2.94859
20
3.68106
11
2.93671
21
3.68768
0
LINE
8
BLACK
6
CONTINUOUS
10
2.93671
20
3.68768
11
2.92567
21
3.69561
0
LINE
8
BLACK
6
CONTINUOUS
10
2.92567
20
3.69561
11
2.91561
21
3.70476
0
LINE
8
BLACK
6
CONTINUOUS
10
2.91561
20
3.70476
11
2.90667
21
3.71501
0
LINE
8
BLACK
6
CONTINUOUS
10
2.90667
20
3.71501
11
2.89897
21
3.72622
0
LINE
8
BLACK
6
CONTINUOUS
10
2.89897
20
3.72622
11
2.89261
21
3.73823
0
LINE
8
BLACK
6
CONTINUOUS
10
2.89261
20
3.73823
11
2.88767
21
3.7509
0
LINE
8
BLACK
6
CONTINUOUS
10
2.88767
20
3.7509
11
2.88422
21
3.76406
0
LINE
8
BLACK
6
CONTINUOUS
10
2.88422
20
3.76406
11
2.8823
21
3.77752
0
LINE
8
BLACK
6
CONTINUOUS
10
2.8823
20
3.77752
11
2.88195
21
3.79111
0
LINE
8
BLACK
6
CONTINUOUS
10
2.88195
20
3.79111
11
2.88316
21
3.80466
0
LINE
8
BLACK
6
CONTINUOUS
10
2.88316
20
3.80466
11
2.88591
21
3.81797
0
LINE
8
BLACK
6
CONTINUOUS
10
2.88591
20
3.81797
11
2.89018
21
3.83088
0
LINE
8
BLACK
6
CONTINUOUS
10
2.89018
20
3.83088
11
2.89591
21
3.84321
0
LINE
8
BLACK
6
CONTINUOUS
10
2.89591
20
3.84321
11
2.90301
21
3.85481
0
LINE
8
BLACK
6
CONTINUOUS
10
2.90301
20
3.85481
11
2.9114
21
3.86551
0
LINE
8
BLACK
6
CONTINUOUS
10
2.9114
20
3.86551
11
2.92097
21
3.87517
0
LINE
8
BLACK
6
CONTINUOUS
10
2.92097
20
3.87517
11
2.93158
21
3.88368
0
LINE
8
BLACK
6
CONTINUOUS
10
2.93158
20
3.88368
11
2.9431
21
3.8909
0
LINE
8
BLACK
6
CONTINUOUS
10
2.9431
20
3.8909
11
2.95537
21
3.89676
0
LINE
8
BLACK
6
CONTINUOUS
10
2.95537
20
3.89676
11
2.96824
21
3.90116
0
LINE
8
BLACK
6
CONTINUOUS
10
2.96824
20
3.90116
11
2.98152
21
3.90406
0
LINE
8
BLACK
6
CONTINUOUS
10
2.98152
20
3.90406
11
2.99505
21
3.90541
0
LINE
8
BLACK
6
CONTINUOUS
10
2.99505
20
3.90541
11
3.00865
21
3.90519
0
LINE
8
BLACK
6
CONTINUOUS
10
0.20865
20
3.91779
11
0.222132
21
3.91602
0
LINE
8
BLACK
6
CONTINUOUS
10
0.222132
20
3.91602
11
0.23532
21
3.91271
0
LINE
8
BLACK
6
CONTINUOUS
10
0.23532
20
3.91271
11
0.24804
21
3.9079
0
LINE
8
BLACK
6
CONTINUOUS
10
0.24804
20
3.9079
11
0.260123
21
3.90166
0
LINE
8
BLACK
6
CONTINUOUS
10
0.260123
20
3.90166
11
0.271409
21
3.89408
0
LINE
8
BLACK
6
CONTINUOUS
10
0.271409
20
3.89408
11
0.281749
21
3.88525
0
LINE
8
BLACK
6
CONTINUOUS
10
0.281749
20
3.88525
11
0.291006
21
3.87529
0
LINE
8
BLACK
6
CONTINUOUS
10
0.291006
20
3.87529
11
0.299056
21
3.86433
0
LINE
8
BLACK
6
CONTINUOUS
10
0.299056
20
3.86433
11
0.305793
21
3.85252
0
LINE
8
BLACK
6
CONTINUOUS
10
0.305793
20
3.85252
11
0.311128
21
3.84001
0
LINE
8
BLACK
6
CONTINUOUS
10
0.311128
20
3.84001
11
0.31499
21
3.82697
0
LINE
8
BLACK
6
CONTINUOUS
10
0.31499
20
3.82697
11
0.317327
21
3.81358
0
LINE
8
BLACK
6
CONTINUOUS
10
0.317327
20
3.81358
11
0.31811
21
3.8
0
LINE
8
BLACK
6
CONTINUOUS
10
0.31811
20
3.8
11
0.317877
21
3.79258
0
LINE
8
BLACK
6
CONTINUOUS
10
0.317877
20
3.79258
11
0.316244
21
3.77908
0
LINE
8
BLACK
6
CONTINUOUS
10
0.316244
20
3.77908
11
0.313069
21
3.76586
0
LINE
8
BLACK
6
CONTINUOUS
10
0.313069
20
3.76586
11
0.308396
21
3.75309
0
LINE
8
BLACK
6
CONTINUOUS
10
0.308396
20
3.75309
11
0.302286
21
3.74094
0
LINE
8
BLACK
6
CONTINUOUS
10
0.302286
20
3.74094
11
0.294821
21
3.72958
0
LINE
8
BLACK
6
CONTINUOUS
10
0.294821
20
3.72958
11
0.286099
21
3.71915
0
LINE
8
BLACK
6
CONTINUOUS
10
0.286099
20
3.71915
11
0.276235
21
3.70979
0
LINE
8
BLACK
6
CONTINUOUS
10
0.276235
20
3.70979
11
0.265361
21
3.70162
0
LINE
8
BLACK
6
CONTINUOUS
10
0.265361
20
3.70162
11
0.253621
21
3.69476
0
LINE
8
BLACK
6
CONTINUOUS
10
0.253621
20
3.69476
11
0.24117
21
3.6893
0
LINE
8
BLACK
6
CONTINUOUS
10
0.24117
20
3.6893
11
0.228173
21
3.6853
0
LINE
8
BLACK
6
CONTINUOUS
10
0.228173
20
3.6853
11
0.214803
21
3.68282
0
LINE
8
BLACK
6
CONTINUOUS
10
0.214803
20
3.68282
11
0.201237
21
3.6819
0
LINE
8
BLACK
6
CONTINUOUS
10
0.201237
20
3.6819
11
0.187654
21
3.68254
0
LINE
8
BLACK
6
CONTINUOUS
10
0.187654
20
3.68254
11
0.174235
21
3.68473
0
LINE
8
BLACK
6
CONTINUOUS
10
0.174235
20
3.68473
11
0.161157
21
3.68846
0
LINE
8
BLACK
6
CONTINUOUS
10
0.161157
20
3.68846
11
0.148595
21
3.69366
0
LINE
8
BLACK
6
CONTINUOUS
10
0.148595
20
3.69366
11
0.136713
21
3.70028
0
LINE
8
BLACK
6
CONTINUOUS
10
0.136713
20
3.70028
11
0.125671
21
3.70821
0
LINE
8
BLACK
6
CONTINUOUS
10
0.125671
20
3.70821
11
0.115613
21
3.71736
0
LINE
8
BLACK
6
CONTINUOUS
10
0.115613
20
3.71736
11
0.106675
21
3.72761
0
LINE
8
BLACK
6
CONTINUOUS
10
0.106675
20
3.72761
11
0.0989727
21
3.73882
0
LINE
8
BLACK
6
CONTINUOUS
10
0.0989727
20
3.73882
11
0.0926099
21
3.75083
0
LINE
8
BLACK
6
CONTINUOUS
10
0.0926099
20
3.75083
11
0.0876705
21
3.7635
0
LINE
8
BLACK
6
CONTINUOUS
10
0.0876705
20
3.7635
11
0.0842199
21
3.77665
0
LINE
8
BLACK
6
CONTINUOUS
10
0.0842199
20
3.77665
11
0.082304
21
3.79012
0
LINE
8
BLACK
6
CONTINUOUS
10
0.082304
20
3.79012
11
0.081948
21
3.80371
0
LINE
8
BLACK
6
CONTINUOUS
10
0.081948
20
3.80371
11
0.0831568
21
3.81725
0
LINE
8
BLACK
6
CONTINUOUS
10
0.0831568
20
3.81725
11
0.0859143
21
3.83057
0
LINE
8
BLACK
6
CONTINUOUS
10
0.0859143
20
3.83057
11
0.0901839
21
3.84348
0
LINE
8
BLACK
6
CONTINUOUS
10
0.0901839
20
3.84348
11
0.0959091
21
3.85581
0
LINE
8
BLACK
6
CONTINUOUS
10
0.0959091
20
3.85581
11
0.103014
21
3.86741
0
LINE
8
BLACK
6
CONTINUOUS
10
0.103014
20
3.86741
11
0.111404
21
3.87811
0
LINE
8
BLACK
6
CONTINUOUS
10
0.111404
20
3.87811
11
0.120969
21
3.88777
0
LINE
8
BLACK
6
CONTINUOUS
10
0.120969
20
3.88777
11
0.131581
21
3.89627
0
LINE
8
BLACK
6
CONTINUOUS
10
0.131581
20
3.89627
11
0.1431
21
3.9035
0
LINE
8
BLACK
6
CONTINUOUS
10
0.1431
20
3.9035
11
0.155373
21
3.90935
0
LINE
8
BLACK
6
CONTINUOUS
10
0.155373
20
3.90935
11
0.168238
21
3.91376
0
LINE
8
BLACK
6
CONTINUOUS
10
0.168238
20
3.91376
11
0.181524
21
3.91666
0
LINE
8
BLACK
6
CONTINUOUS
10
0.181524
20
3.91666
11
0.195054
21
3.91801
0
LINE
8
BLACK
6
CONTINUOUS
10
0.195054
20
3.91801
11
0.20865
21
3.91779
0
LINE
8
BLACK
6
CONTINUOUS
10
2.41234
20
0.734198
11
2.4158
21
0.737661
0
LINE
8
BLACK
6
CONTINUOUS
10
2.4158
20
0.737661
11
2.42016
21
0.739883
0
LINE
8
BLACK
6
CONTINUOUS
10
2.42016
20
0.739883
11
2.425
21
0.740649
0
LINE
8
BLACK
6
CONTINUOUS
10
2.425
20
0.740649
11
2.42984
21
0.739883
0
LINE
8
BLACK
6
CONTINUOUS
10
2.42984
20
0.739883
11
2.4342
21
0.737661
0
LINE
8
BLACK
6
CONTINUOUS
10
2.4342
20
0.737661
11
2.43766
21
0.734198
0
LINE
8
BLACK
6
CONTINUOUS
10
2.43766
20
0.734198
11
2.43988
21
0.729836
0
LINE
8
BLACK
6
CONTINUOUS
10
2.43988
20
0.729836
11
2.44065
21
0.725
0
LINE
8
BLACK
6
CONTINUOUS
10
2.44065
20
0.725
11
2.43988
21
0.720164
0
LINE
8
BLACK
6
CONTINUOUS
10
2.43988
20
0.720164
11
2.43766
21
0.715802
0
LINE
8
BLACK
6
CONTINUOUS
10
2.43766
20
0.715802
11
2.4342
21
0.712339
0
LINE
8
BLACK
6
CONTINUOUS
10
2.4342
20
0.712339
11
2.42984
21
0.710117
0
LINE
8
BLACK
6
CONTINUOUS
10
2.42984
20
0.710117
11
2.425
21
0.709351
0
LINE
8
BLACK
6
CONTINUOUS
10
2.425
20
0.709351
11
2.42016
21
0.710117
0
LINE
8
BLACK
6
CONTINUOUS
10
2.42016
20
0.710117
11
2.4158
21
0.712339
0
LINE
8
BLACK
6
CONTINUOUS
10
2.4158
20
0.712339
11
2.41234
21
0.715802
0
LINE
8
BLACK
6
CONTINUOUS
10
2.41234
20
0.715802
11
2.41012
21
0.720164
0
LINE
8
BLACK
6
CONTINUOUS
10
2.41012
20
0.720164
11
2.40935
21
0.725
0
LINE
8
BLACK
6
CONTINUOUS
10
2.40935
20
0.725
11
2.41012
21
0.729836
0
LINE
8
BLACK
6
CONTINUOUS
10
2.41012
20
0.729836
11
2.41234
21
0.734198
0
LINE
8
BLACK
6
CONTINUOUS
10
2.425
20
0.724297
11
2.4255
21
0.724503
0
LINE
8
BLACK
6
CONTINUOUS
10
2.4255
20
0.724503
11
2.4257
21
0.725
0
LINE
8
BLACK
6
CONTINUOUS
10
2.4257
20
0.725
11
2.4255
21
0.725497
0
LINE
8
BLACK
6
CONTINUOUS
10
2.4255
20
0.725497
11
2.425
21
0.725703
0
LINE
8
BLACK
6
CONTINUOUS
10
2.425
20
0.725703
11
2.4245
21
0.725497
0
LINE
8
BLACK
6
CONTINUOUS
10
2.4245
20
0.725497
11
2.4243
21
0.725
0
LINE
8
BLACK
6
CONTINUOUS
10
2.4243
20
0.725
11
2.4245
21
0.724503
0
LINE
8
BLACK
6
CONTINUOUS
10
2.4245
20
0.724503
11
2.425
21
0.724297
  0
ENDSEC
  0
EOF
