  0
SECTION
  2
HEADER
  9
$ANGBASE
  50
0.0
  9
$ANGDIR
  70
1
  9
$MEASUREMENT
  70
0
  0
ENDSEC
  0
SECTION
  2
TABLES
  0
TABLE
  2
LTYPE
  70
4
  0
LTYPE
  5
40F
  2
CONTINUOUS
  70
0
  3
Solid line
  72
65
  73
0
  40
0.0
  0
LTYPE
  5
410
  2
DASHDOT
 70
0
  3
Dash Dot ____ _ ____ _
 72
65
 73
4
 40
2.0
 49
1.25
 49
-0.25
 49
0.25
 49
-0.25
  0
LTYPE
  5
411
  2
DASHED
 70
0
  3
Dashed __ __ __ __ __
 72
65
 73
2
 40
0.75
 49
0.5
 49
-0.25
  0
LTYPE
  5
43B
  2
DOTTED
 70
0
  3
Dotted .  .  .  .
 72
65
 73
2
 40
0.2
 49
0.0
 49
-0.2
  0
ENDTAB
  0
TABLE
  2
STYLE
  70
4
  0
STYLE
  2
KICAD
  70
0
  40
0
  41
1
  42
1
  50
0
  71
0
  3
isocp.shx
  0
STYLE
  2
KICADB
  70
0
  40
0
  41
1
  42
1
  50
0
  71
0
  3
isocp.shx
  0
STYLE
  2
KICADI
  70
0
  40
0
  41
1
  42
1
  50
15
  71
0
  3
isocp.shx
  0
STYLE
  2
KICADBI
  70
0
  40
0
  41
1
  42
1
  50
15
  71
0
  3
isocp.shx
  0
ENDTAB
  0
TABLE
  2
LAYER
  70
1
  0
LAYER
  2
BLACK
  70
0
  62
7
  6
CONTINUOUS
  0
ENDTAB
  0
ENDSEC
  0
SECTION
  2
ENTITIES
0
LINE
8
BLACK
6
CONTINUOUS
10
0.214063
20
0.32481
11
0.227949
21
0.322451
0
LINE
8
BLACK
6
CONTINUOUS
10
0.227949
20
0.322451
11
0.241483
21
0.318552
0
LINE
8
BLACK
6
CONTINUOUS
10
0.241483
20
0.318552
11
0.254496
21
0.313162
0
LINE
8
BLACK
6
CONTINUOUS
10
0.254496
20
0.313162
11
0.266823
21
0.306349
0
LINE
8
BLACK
6
CONTINUOUS
10
0.266823
20
0.306349
11
0.27831
21
0.298198
0
LINE
8
BLACK
6
CONTINUOUS
10
0.27831
20
0.298198
11
0.288813
21
0.288813
0
LINE
8
BLACK
6
CONTINUOUS
10
0.288813
20
0.288813
11
0.298198
21
0.27831
0
LINE
8
BLACK
6
CONTINUOUS
10
0.298198
20
0.27831
11
0.306349
21
0.266823
0
LINE
8
BLACK
6
CONTINUOUS
10
0.306349
20
0.266823
11
0.313162
21
0.254496
0
LINE
8
BLACK
6
CONTINUOUS
10
0.313162
20
0.254496
11
0.318552
21
0.241483
0
LINE
8
BLACK
6
CONTINUOUS
10
0.318552
20
0.241483
11
0.322451
21
0.227949
0
LINE
8
BLACK
6
CONTINUOUS
10
0.322451
20
0.227949
11
0.32481
21
0.214063
0
LINE
8
BLACK
6
CONTINUOUS
10
0.32481
20
0.214063
11
0.3256
21
0.2
0
LINE
8
BLACK
6
CONTINUOUS
10
0.3256
20
0.2
11
0.32481
21
0.185937
0
LINE
8
BLACK
6
CONTINUOUS
10
0.32481
20
0.185937
11
0.322451
21
0.172051
0
LINE
8
BLACK
6
CONTINUOUS
10
0.322451
20
0.172051
11
0.318552
21
0.158517
0
LINE
8
BLACK
6
CONTINUOUS
10
0.318552
20
0.158517
11
0.313162
21
0.145504
0
LINE
8
BLACK
6
CONTINUOUS
10
0.313162
20
0.145504
11
0.306349
21
0.133177
0
LINE
8
BLACK
6
CONTINUOUS
10
0.306349
20
0.133177
11
0.298198
21
0.12169
0
LINE
8
BLACK
6
CONTINUOUS
10
0.298198
20
0.12169
11
0.288813
21
0.111187
0
LINE
8
BLACK
6
CONTINUOUS
10
0.288813
20
0.111187
11
0.27831
21
0.101802
0
LINE
8
BLACK
6
CONTINUOUS
10
0.27831
20
0.101802
11
0.266823
21
0.0936515
0
LINE
8
BLACK
6
CONTINUOUS
10
0.266823
20
0.0936515
11
0.254496
21
0.0868383
0
LINE
8
BLACK
6
CONTINUOUS
10
0.254496
20
0.0868383
11
0.241483
21
0.0814483
0
LINE
8
BLACK
6
CONTINUOUS
10
0.241483
20
0.0814483
11
0.227949
21
0.0775491
0
LINE
8
BLACK
6
CONTINUOUS
10
0.227949
20
0.0775491
11
0.214063
21
0.0751898
0
LINE
8
BLACK
6
CONTINUOUS
10
0.214063
20
0.0751898
11
0.2
21
0.0744
0
LINE
8
BLACK
6
CONTINUOUS
10
0.2
20
0.0744
11
0.185937
21
0.0751898
0
LINE
8
BLACK
6
CONTINUOUS
10
0.185937
20
0.0751898
11
0.172051
21
0.0775491
0
LINE
8
BLACK
6
CONTINUOUS
10
0.172051
20
0.0775491
11
0.158517
21
0.0814483
0
LINE
8
BLACK
6
CONTINUOUS
10
0.158517
20
0.0814483
11
0.145504
21
0.0868383
0
LINE
8
BLACK
6
CONTINUOUS
10
0.145504
20
0.0868383
11
0.133177
21
0.0936515
0
LINE
8
BLACK
6
CONTINUOUS
10
0.133177
20
0.0936515
11
0.12169
21
0.101802
0
LINE
8
BLACK
6
CONTINUOUS
10
0.12169
20
0.101802
11
0.111187
21
0.111187
0
LINE
8
BLACK
6
CONTINUOUS
10
0.111187
20
0.111187
11
0.101802
21
0.12169
0
LINE
8
BLACK
6
CONTINUOUS
10
0.101802
20
0.12169
11
0.0936515
21
0.133177
0
LINE
8
BLACK
6
CONTINUOUS
10
0.0936515
20
0.133177
11
0.0868383
21
0.145504
0
LINE
8
BLACK
6
CONTINUOUS
10
0.0868383
20
0.145504
11
0.0814483
21
0.158517
0
LINE
8
BLACK
6
CONTINUOUS
10
0.0814483
20
0.158517
11
0.0775491
21
0.172051
0
LINE
8
BLACK
6
CONTINUOUS
10
0.0775491
20
0.172051
11
0.0751898
21
0.185937
0
LINE
8
BLACK
6
CONTINUOUS
10
0.0751898
20
0.185937
11
0.0744
21
0.2
0
LINE
8
BLACK
6
CONTINUOUS
10
0.0744
20
0.2
11
0.0751898
21
0.214063
0
LINE
8
BLACK
6
CONTINUOUS
10
0.0751898
20
0.214063
11
0.0775491
21
0.227949
0
LINE
8
BLACK
6
CONTINUOUS
10
0.0775491
20
0.227949
11
0.0814483
21
0.241483
0
LINE
8
BLACK
6
CONTINUOUS
10
0.0814483
20
0.241483
11
0.0868383
21
0.254496
0
LINE
8
BLACK
6
CONTINUOUS
10
0.0868383
20
0.254496
11
0.0936515
21
0.266823
0
LINE
8
BLACK
6
CONTINUOUS
10
0.0936515
20
0.266823
11
0.101802
21
0.27831
0
LINE
8
BLACK
6
CONTINUOUS
10
0.101802
20
0.27831
11
0.111187
21
0.288813
0
LINE
8
BLACK
6
CONTINUOUS
10
0.111187
20
0.288813
11
0.12169
21
0.298198
0
LINE
8
BLACK
6
CONTINUOUS
10
0.12169
20
0.298198
11
0.133177
21
0.306349
0
LINE
8
BLACK
6
CONTINUOUS
10
0.133177
20
0.306349
11
0.145504
21
0.313162
0
LINE
8
BLACK
6
CONTINUOUS
10
0.145504
20
0.313162
11
0.158517
21
0.318552
0
LINE
8
BLACK
6
CONTINUOUS
10
0.158517
20
0.318552
11
0.172051
21
0.322451
0
LINE
8
BLACK
6
CONTINUOUS
10
0.172051
20
0.322451
11
0.185937
21
0.32481
0
LINE
8
BLACK
6
CONTINUOUS
10
0.185937
20
0.32481
11
0.2
21
0.3256
0
LINE
8
BLACK
6
CONTINUOUS
10
0.2
20
0.3256
11
0.214063
21
0.32481
0
LINE
8
BLACK
6
CONTINUOUS
10
0.0899617
20
0.187138
11
0.0921989
21
0.174451
0
LINE
8
BLACK
6
CONTINUOUS
10
0.0921989
20
0.174451
11
0.0958939
21
0.162108
0
LINE
8
BLACK
6
CONTINUOUS
10
0.0958939
20
0.162108
11
0.100997
21
0.150279
0
LINE
8
BLACK
6
CONTINUOUS
10
0.100997
20
0.150279
11
0.107438
21
0.139121
0
LINE
8
BLACK
6
CONTINUOUS
10
0.107438
20
0.139121
11
0.115132
21
0.128787
0
LINE
8
BLACK
6
CONTINUOUS
10
0.115132
20
0.128787
11
0.123973
21
0.119416
0
LINE
8
BLACK
6
CONTINUOUS
10
0.123973
20
0.119416
11
0.133842
21
0.111135
0
LINE
8
BLACK
6
CONTINUOUS
10
0.133842
20
0.111135
11
0.144606
21
0.104055
0
LINE
8
BLACK
6
CONTINUOUS
10
0.144606
20
0.104055
11
0.156119
21
0.0982732
0
LINE
8
BLACK
6
CONTINUOUS
10
0.156119
20
0.0982732
11
0.168226
21
0.0938668
0
LINE
8
BLACK
6
CONTINUOUS
10
0.168226
20
0.0938668
11
0.180762
21
0.0908957
0
LINE
8
BLACK
6
CONTINUOUS
10
0.180762
20
0.0908957
11
0.193558
21
0.0894
0
LINE
8
BLACK
6
CONTINUOUS
10
0.193558
20
0.0894
11
0.206442
21
0.0894
0
LINE
8
BLACK
6
CONTINUOUS
10
0.206442
20
0.0894
11
0.219238
21
0.0908957
0
LINE
8
BLACK
6
CONTINUOUS
10
0.219238
20
0.0908957
11
0.231774
21
0.0938668
0
LINE
8
BLACK
6
CONTINUOUS
10
0.231774
20
0.0938668
11
0.243881
21
0.0982732
0
LINE
8
BLACK
6
CONTINUOUS
10
0.243881
20
0.0982732
11
0.255394
21
0.104055
0
LINE
8
BLACK
6
CONTINUOUS
10
0.255394
20
0.104055
11
0.266158
21
0.111135
0
LINE
8
BLACK
6
CONTINUOUS
10
0.266158
20
0.111135
11
0.276027
21
0.119416
0
LINE
8
BLACK
6
CONTINUOUS
10
0.276027
20
0.119416
11
0.284868
21
0.128787
0
LINE
8
BLACK
6
CONTINUOUS
10
0.284868
20
0.128787
11
0.292562
21
0.139121
0
LINE
8
BLACK
6
CONTINUOUS
10
0.292562
20
0.139121
11
0.299003
21
0.150279
0
LINE
8
BLACK
6
CONTINUOUS
10
0.299003
20
0.150279
11
0.304106
21
0.162108
0
LINE
8
BLACK
6
CONTINUOUS
10
0.304106
20
0.162108
11
0.307801
21
0.174451
0
LINE
8
BLACK
6
CONTINUOUS
10
0.307801
20
0.174451
11
0.310038
21
0.187138
0
LINE
8
BLACK
6
CONTINUOUS
10
0.310038
20
0.187138
11
0.310787
21
0.2
0
LINE
8
BLACK
6
CONTINUOUS
10
0.310787
20
0.2
11
0.310038
21
0.212862
0
LINE
8
BLACK
6
CONTINUOUS
10
0.310038
20
0.212862
11
0.307801
21
0.225549
0
LINE
8
BLACK
6
CONTINUOUS
10
0.307801
20
0.225549
11
0.304106
21
0.237892
0
LINE
8
BLACK
6
CONTINUOUS
10
0.304106
20
0.237892
11
0.299003
21
0.249721
0
LINE
8
BLACK
6
CONTINUOUS
10
0.299003
20
0.249721
11
0.292562
21
0.260879
0
LINE
8
BLACK
6
CONTINUOUS
10
0.292562
20
0.260879
11
0.284868
21
0.271213
0
LINE
8
BLACK
6
CONTINUOUS
10
0.284868
20
0.271213
11
0.276027
21
0.280584
0
LINE
8
BLACK
6
CONTINUOUS
10
0.276027
20
0.280584
11
0.266158
21
0.288865
0
LINE
8
BLACK
6
CONTINUOUS
10
0.266158
20
0.288865
11
0.255394
21
0.295945
0
LINE
8
BLACK
6
CONTINUOUS
10
0.255394
20
0.295945
11
0.243881
21
0.301727
0
LINE
8
BLACK
6
CONTINUOUS
10
0.243881
20
0.301727
11
0.231774
21
0.306133
0
LINE
8
BLACK
6
CONTINUOUS
10
0.231774
20
0.306133
11
0.219238
21
0.309104
0
LINE
8
BLACK
6
CONTINUOUS
10
0.219238
20
0.309104
11
0.206442
21
0.3106
0
LINE
8
BLACK
6
CONTINUOUS
10
0.206442
20
0.3106
11
0.193558
21
0.3106
0
LINE
8
BLACK
6
CONTINUOUS
10
0.193558
20
0.3106
11
0.180762
21
0.309104
0
LINE
8
BLACK
6
CONTINUOUS
10
0.180762
20
0.309104
11
0.168226
21
0.306133
0
LINE
8
BLACK
6
CONTINUOUS
10
0.168226
20
0.306133
11
0.156119
21
0.301727
0
LINE
8
BLACK
6
CONTINUOUS
10
0.156119
20
0.301727
11
0.144606
21
0.295945
0
LINE
8
BLACK
6
CONTINUOUS
10
0.144606
20
0.295945
11
0.133842
21
0.288865
0
LINE
8
BLACK
6
CONTINUOUS
10
0.133842
20
0.288865
11
0.123973
21
0.280584
0
LINE
8
BLACK
6
CONTINUOUS
10
0.123973
20
0.280584
11
0.115132
21
0.271213
0
LINE
8
BLACK
6
CONTINUOUS
10
0.115132
20
0.271213
11
0.107438
21
0.260879
0
LINE
8
BLACK
6
CONTINUOUS
10
0.107438
20
0.260879
11
0.100997
21
0.249721
0
LINE
8
BLACK
6
CONTINUOUS
10
0.100997
20
0.249721
11
0.0958939
21
0.237892
0
LINE
8
BLACK
6
CONTINUOUS
10
0.0958939
20
0.237892
11
0.0921989
21
0.225549
0
LINE
8
BLACK
6
CONTINUOUS
10
0.0921989
20
0.225549
11
0.0899617
21
0.212862
0
LINE
8
BLACK
6
CONTINUOUS
10
0.0899617
20
0.212862
11
0.0892126
21
0.2
0
LINE
8
BLACK
6
CONTINUOUS
10
0.0892126
20
0.2
11
0.0899617
21
0.187138
0
LINE
8
BLACK
6
CONTINUOUS
10
1.38727
20
0.714396
11
1.38882
21
0.713098
0
LINE
8
BLACK
6
CONTINUOUS
10
1.38882
20
0.713098
11
1.38917
21
0.711109
0
LINE
8
BLACK
6
CONTINUOUS
10
1.38917
20
0.711109
11
1.38816
21
0.709359
0
LINE
8
BLACK
6
CONTINUOUS
10
1.38816
20
0.709359
11
1.38626
21
0.708669
0
LINE
8
BLACK
6
CONTINUOUS
10
1.38626
20
0.708669
11
1.37046
21
0.708669
0
LINE
8
BLACK
6
CONTINUOUS
10
1.37046
20
0.708669
11
1.37046
21
0.695826
0
LINE
8
BLACK
6
CONTINUOUS
10
1.37046
20
0.695826
11
1.38063
21
0.695826
0
LINE
8
BLACK
6
CONTINUOUS
10
1.38063
20
0.695826
11
1.38164
21
0.695648
0
LINE
8
BLACK
6
CONTINUOUS
10
1.38164
20
0.695648
11
1.38319
21
0.69435
0
LINE
8
BLACK
6
CONTINUOUS
10
1.38319
20
0.69435
11
1.38354
21
0.692361
0
LINE
8
BLACK
6
CONTINUOUS
10
1.38354
20
0.692361
11
1.38253
21
0.690612
0
LINE
8
BLACK
6
CONTINUOUS
10
1.38253
20
0.690612
11
1.38063
21
0.689921
0
LINE
8
BLACK
6
CONTINUOUS
10
1.38063
20
0.689921
11
1.37046
21
0.689921
0
LINE
8
BLACK
6
CONTINUOUS
10
1.37046
20
0.689921
11
1.37046
21
0.675204
0
LINE
8
BLACK
6
CONTINUOUS
10
1.37046
20
0.675204
11
1.38626
21
0.675204
0
LINE
8
BLACK
6
CONTINUOUS
10
1.38626
20
0.675204
11
1.38727
21
0.675026
0
LINE
8
BLACK
6
CONTINUOUS
10
1.38727
20
0.675026
11
1.38882
21
0.673728
0
LINE
8
BLACK
6
CONTINUOUS
10
1.38882
20
0.673728
11
1.38917
21
0.671738
0
LINE
8
BLACK
6
CONTINUOUS
10
1.38917
20
0.671738
11
1.38816
21
0.669989
0
LINE
8
BLACK
6
CONTINUOUS
10
1.38816
20
0.669989
11
1.38626
21
0.669298
0
LINE
8
BLACK
6
CONTINUOUS
10
1.38626
20
0.669298
11
1.36751
21
0.669298
0
LINE
8
BLACK
6
CONTINUOUS
10
1.36751
20
0.669298
11
1.36713
21
0.669366
0
LINE
8
BLACK
6
CONTINUOUS
10
1.36713
20
0.669366
11
1.367
21
0.669343
0
LINE
8
BLACK
6
CONTINUOUS
10
1.367
20
0.669343
11
1.36688
21
0.669409
0
LINE
8
BLACK
6
CONTINUOUS
10
1.36688
20
0.669409
11
1.3665
21
0.669477
0
LINE
8
BLACK
6
CONTINUOUS
10
1.3665
20
0.669477
11
1.36591
21
0.66997
0
LINE
8
BLACK
6
CONTINUOUS
10
1.36591
20
0.66997
11
1.36525
21
0.670353
0
LINE
8
BLACK
6
CONTINUOUS
10
1.36525
20
0.670353
11
1.36516
21
0.670604
0
LINE
8
BLACK
6
CONTINUOUS
10
1.36516
20
0.670604
11
1.36495
21
0.670775
0
LINE
8
BLACK
6
CONTINUOUS
10
1.36495
20
0.670775
11
1.36482
21
0.67153
0
LINE
8
BLACK
6
CONTINUOUS
10
1.36482
20
0.67153
11
1.36456
21
0.672251
0
LINE
8
BLACK
6
CONTINUOUS
10
1.36456
20
0.672251
11
1.36456
21
0.711621
0
LINE
8
BLACK
6
CONTINUOUS
10
1.36456
20
0.711621
11
1.36463
21
0.712005
0
LINE
8
BLACK
6
CONTINUOUS
10
1.36463
20
0.712005
11
1.3646
21
0.712134
0
LINE
8
BLACK
6
CONTINUOUS
10
1.3646
20
0.712134
11
1.36467
21
0.712248
0
LINE
8
BLACK
6
CONTINUOUS
10
1.36467
20
0.712248
11
1.36474
21
0.712631
0
LINE
8
BLACK
6
CONTINUOUS
10
1.36474
20
0.712631
11
1.36523
21
0.713219
0
LINE
8
BLACK
6
CONTINUOUS
10
1.36523
20
0.713219
11
1.36561
21
0.713883
0
LINE
8
BLACK
6
CONTINUOUS
10
1.36561
20
0.713883
11
1.36586
21
0.713974
0
LINE
8
BLACK
6
CONTINUOUS
10
1.36586
20
0.713974
11
1.36603
21
0.714178
0
LINE
8
BLACK
6
CONTINUOUS
10
1.36603
20
0.714178
11
1.36679
21
0.714312
0
LINE
8
BLACK
6
CONTINUOUS
10
1.36679
20
0.714312
11
1.36751
21
0.714574
0
LINE
8
BLACK
6
CONTINUOUS
10
1.36751
20
0.714574
11
1.38626
21
0.714574
0
LINE
8
BLACK
6
CONTINUOUS
10
1.38626
20
0.714574
11
1.38727
21
0.714396
0
LINE
8
BLACK
6
CONTINUOUS
10
1.42289
20
0.714396
11
1.42444
21
0.713098
0
LINE
8
BLACK
6
CONTINUOUS
10
1.42444
20
0.713098
11
1.42479
21
0.711109
0
LINE
8
BLACK
6
CONTINUOUS
10
1.42479
20
0.711109
11
1.42378
21
0.709359
0
LINE
8
BLACK
6
CONTINUOUS
10
1.42378
20
0.709359
11
1.42188
21
0.708669
0
LINE
8
BLACK
6
CONTINUOUS
10
1.42188
20
0.708669
11
1.40608
21
0.708669
0
LINE
8
BLACK
6
CONTINUOUS
10
1.40608
20
0.708669
11
1.40608
21
0.695826
0
LINE
8
BLACK
6
CONTINUOUS
10
1.40608
20
0.695826
11
1.41625
21
0.695826
0
LINE
8
BLACK
6
CONTINUOUS
10
1.41625
20
0.695826
11
1.41726
21
0.695648
0
LINE
8
BLACK
6
CONTINUOUS
10
1.41726
20
0.695648
11
1.41881
21
0.69435
0
LINE
8
BLACK
6
CONTINUOUS
10
1.41881
20
0.69435
11
1.41916
21
0.692361
0
LINE
8
BLACK
6
CONTINUOUS
10
1.41916
20
0.692361
11
1.41815
21
0.690612
0
LINE
8
BLACK
6
CONTINUOUS
10
1.41815
20
0.690612
11
1.41625
21
0.689921
0
LINE
8
BLACK
6
CONTINUOUS
10
1.41625
20
0.689921
11
1.40608
21
0.689921
0
LINE
8
BLACK
6
CONTINUOUS
10
1.40608
20
0.689921
11
1.40608
21
0.675204
0
LINE
8
BLACK
6
CONTINUOUS
10
1.40608
20
0.675204
11
1.42188
21
0.675204
0
LINE
8
BLACK
6
CONTINUOUS
10
1.42188
20
0.675204
11
1.42289
21
0.675026
0
LINE
8
BLACK
6
CONTINUOUS
10
1.42289
20
0.675026
11
1.42444
21
0.673728
0
LINE
8
BLACK
6
CONTINUOUS
10
1.42444
20
0.673728
11
1.42479
21
0.671738
0
LINE
8
BLACK
6
CONTINUOUS
10
1.42479
20
0.671738
11
1.42378
21
0.669989
0
LINE
8
BLACK
6
CONTINUOUS
10
1.42378
20
0.669989
11
1.42188
21
0.669298
0
LINE
8
BLACK
6
CONTINUOUS
10
1.42188
20
0.669298
11
1.40313
21
0.669298
0
LINE
8
BLACK
6
CONTINUOUS
10
1.40313
20
0.669298
11
1.40275
21
0.669366
0
LINE
8
BLACK
6
CONTINUOUS
10
1.40275
20
0.669366
11
1.40262
21
0.669343
0
LINE
8
BLACK
6
CONTINUOUS
10
1.40262
20
0.669343
11
1.4025
21
0.669409
0
LINE
8
BLACK
6
CONTINUOUS
10
1.4025
20
0.669409
11
1.40212
21
0.669477
0
LINE
8
BLACK
6
CONTINUOUS
10
1.40212
20
0.669477
11
1.40153
21
0.66997
0
LINE
8
BLACK
6
CONTINUOUS
10
1.40153
20
0.66997
11
1.40087
21
0.670353
0
LINE
8
BLACK
6
CONTINUOUS
10
1.40087
20
0.670353
11
1.40078
21
0.670604
0
LINE
8
BLACK
6
CONTINUOUS
10
1.40078
20
0.670604
11
1.40057
21
0.670775
0
LINE
8
BLACK
6
CONTINUOUS
10
1.40057
20
0.670775
11
1.40044
21
0.67153
0
LINE
8
BLACK
6
CONTINUOUS
10
1.40044
20
0.67153
11
1.40018
21
0.672251
0
LINE
8
BLACK
6
CONTINUOUS
10
1.40018
20
0.672251
11
1.40018
21
0.711621
0
LINE
8
BLACK
6
CONTINUOUS
10
1.40018
20
0.711621
11
1.40025
21
0.712005
0
LINE
8
BLACK
6
CONTINUOUS
10
1.40025
20
0.712005
11
1.40022
21
0.712134
0
LINE
8
BLACK
6
CONTINUOUS
10
1.40022
20
0.712134
11
1.40029
21
0.712248
0
LINE
8
BLACK
6
CONTINUOUS
10
1.40029
20
0.712248
11
1.40036
21
0.712631
0
LINE
8
BLACK
6
CONTINUOUS
10
1.40036
20
0.712631
11
1.40085
21
0.713219
0
LINE
8
BLACK
6
CONTINUOUS
10
1.40085
20
0.713219
11
1.40123
21
0.713883
0
LINE
8
BLACK
6
CONTINUOUS
10
1.40123
20
0.713883
11
1.40148
21
0.713974
0
LINE
8
BLACK
6
CONTINUOUS
10
1.40148
20
0.713974
11
1.40165
21
0.714178
0
LINE
8
BLACK
6
CONTINUOUS
10
1.40165
20
0.714178
11
1.40241
21
0.714312
0
LINE
8
BLACK
6
CONTINUOUS
10
1.40241
20
0.714312
11
1.40313
21
0.714574
0
LINE
8
BLACK
6
CONTINUOUS
10
1.40313
20
0.714574
11
1.42188
21
0.714574
0
LINE
8
BLACK
6
CONTINUOUS
10
1.42188
20
0.714574
11
1.42289
21
0.714396
0
LINE
8
BLACK
6
CONTINUOUS
10
1.49413
20
0.714396
11
1.49426
21
0.714283
0
LINE
8
BLACK
6
CONTINUOUS
10
1.49426
20
0.714283
11
1.49444
21
0.714262
0
LINE
8
BLACK
6
CONTINUOUS
10
1.49444
20
0.714262
11
1.49819
21
0.712388
0
LINE
8
BLACK
6
CONTINUOUS
10
1.49819
20
0.712388
11
1.4989
21
0.711862
0
LINE
8
BLACK
6
CONTINUOUS
10
1.4989
20
0.711862
11
1.49896
21
0.711834
0
LINE
8
BLACK
6
CONTINUOUS
10
1.49896
20
0.711834
11
1.50271
21
0.708085
0
LINE
8
BLACK
6
CONTINUOUS
10
1.50271
20
0.708085
11
1.50329
21
0.707245
0
LINE
8
BLACK
6
CONTINUOUS
10
1.50329
20
0.707245
11
1.50332
21
0.706955
0
LINE
8
BLACK
6
CONTINUOUS
10
1.50332
20
0.706955
11
1.50348
21
0.706713
0
LINE
8
BLACK
6
CONTINUOUS
10
1.50348
20
0.706713
11
1.50536
21
0.699214
0
LINE
8
BLACK
6
CONTINUOUS
10
1.50536
20
0.699214
11
1.5054
21
0.698626
0
LINE
8
BLACK
6
CONTINUOUS
10
1.5054
20
0.698626
11
1.50545
21
0.698498
0
LINE
8
BLACK
6
CONTINUOUS
10
1.50545
20
0.698498
11
1.50545
21
0.685375
0
LINE
8
BLACK
6
CONTINUOUS
10
1.50545
20
0.685375
11
1.50534
21
0.684794
0
LINE
8
BLACK
6
CONTINUOUS
10
1.50534
20
0.684794
11
1.50536
21
0.684658
0
LINE
8
BLACK
6
CONTINUOUS
10
1.50536
20
0.684658
11
1.50348
21
0.677159
0
LINE
8
BLACK
6
CONTINUOUS
10
1.50348
20
0.677159
11
1.50307
21
0.676223
0
LINE
8
BLACK
6
CONTINUOUS
10
1.50307
20
0.676223
11
1.50283
21
0.676052
0
LINE
8
BLACK
6
CONTINUOUS
10
1.50283
20
0.676052
11
1.50271
21
0.675788
0
LINE
8
BLACK
6
CONTINUOUS
10
1.50271
20
0.675788
11
1.49896
21
0.672038
0
LINE
8
BLACK
6
CONTINUOUS
10
1.49896
20
0.672038
11
1.49823
21
0.671532
0
LINE
8
BLACK
6
CONTINUOUS
10
1.49823
20
0.671532
11
1.49819
21
0.671485
0
LINE
8
BLACK
6
CONTINUOUS
10
1.49819
20
0.671485
11
1.49444
21
0.66961
0
LINE
8
BLACK
6
CONTINUOUS
10
1.49444
20
0.66961
11
1.49346
21
0.669318
0
LINE
8
BLACK
6
CONTINUOUS
10
1.49346
20
0.669318
11
1.49329
21
0.669359
0
LINE
8
BLACK
6
CONTINUOUS
10
1.49329
20
0.669359
11
1.49312
21
0.669298
0
LINE
8
BLACK
6
CONTINUOUS
10
1.49312
20
0.669298
11
1.48562
21
0.669298
0
LINE
8
BLACK
6
CONTINUOUS
10
1.48562
20
0.669298
11
1.48461
21
0.669477
0
LINE
8
BLACK
6
CONTINUOUS
10
1.48461
20
0.669477
11
1.48448
21
0.66959
0
LINE
8
BLACK
6
CONTINUOUS
10
1.48448
20
0.66959
11
1.4843
21
0.66961
0
LINE
8
BLACK
6
CONTINUOUS
10
1.4843
20
0.66961
11
1.48055
21
0.671485
0
LINE
8
BLACK
6
CONTINUOUS
10
1.48055
20
0.671485
11
1.47984
21
0.672011
0
LINE
8
BLACK
6
CONTINUOUS
10
1.47984
20
0.672011
11
1.47978
21
0.672038
0
LINE
8
BLACK
6
CONTINUOUS
10
1.47978
20
0.672038
11
1.47603
21
0.675788
0
LINE
8
BLACK
6
CONTINUOUS
10
1.47603
20
0.675788
11
1.47545
21
0.676628
0
LINE
8
BLACK
6
CONTINUOUS
10
1.47545
20
0.676628
11
1.47542
21
0.676918
0
LINE
8
BLACK
6
CONTINUOUS
10
1.47542
20
0.676918
11
1.47526
21
0.677159
0
LINE
8
BLACK
6
CONTINUOUS
10
1.47526
20
0.677159
11
1.47338
21
0.684658
0
LINE
8
BLACK
6
CONTINUOUS
10
1.47338
20
0.684658
11
1.47334
21
0.685246
0
LINE
8
BLACK
6
CONTINUOUS
10
1.47334
20
0.685246
11
1.47329
21
0.685375
0
LINE
8
BLACK
6
CONTINUOUS
10
1.47329
20
0.685375
11
1.47329
21
0.698498
0
LINE
8
BLACK
6
CONTINUOUS
10
1.47329
20
0.698498
11
1.4734
21
0.699078
0
LINE
8
BLACK
6
CONTINUOUS
10
1.4734
20
0.699078
11
1.47338
21
0.699214
0
LINE
8
BLACK
6
CONTINUOUS
10
1.47338
20
0.699214
11
1.47526
21
0.706713
0
LINE
8
BLACK
6
CONTINUOUS
10
1.47526
20
0.706713
11
1.47567
21
0.70765
0
LINE
8
BLACK
6
CONTINUOUS
10
1.47567
20
0.70765
11
1.47591
21
0.707821
0
LINE
8
BLACK
6
CONTINUOUS
10
1.47591
20
0.707821
11
1.47603
21
0.708085
0
LINE
8
BLACK
6
CONTINUOUS
10
1.47603
20
0.708085
11
1.47978
21
0.711834
0
LINE
8
BLACK
6
CONTINUOUS
10
1.47978
20
0.711834
11
1.48051
21
0.712341
0
LINE
8
BLACK
6
CONTINUOUS
10
1.48051
20
0.712341
11
1.48055
21
0.712388
0
LINE
8
BLACK
6
CONTINUOUS
10
1.48055
20
0.712388
11
1.4843
21
0.714262
0
LINE
8
BLACK
6
CONTINUOUS
10
1.4843
20
0.714262
11
1.48528
21
0.714555
0
LINE
8
BLACK
6
CONTINUOUS
10
1.48528
20
0.714555
11
1.48545
21
0.714514
0
LINE
8
BLACK
6
CONTINUOUS
10
1.48545
20
0.714514
11
1.48562
21
0.714574
0
LINE
8
BLACK
6
CONTINUOUS
10
1.48562
20
0.714574
11
1.49312
21
0.714574
0
LINE
8
BLACK
6
CONTINUOUS
10
1.49312
20
0.714574
11
1.49413
21
0.714396
0
LINE
8
BLACK
6
CONTINUOUS
10
1.48362
20
0.70732
11
1.48079
21
0.704487
0
LINE
8
BLACK
6
CONTINUOUS
10
1.48079
20
0.704487
11
1.4792
21
0.698134
0
LINE
8
BLACK
6
CONTINUOUS
10
1.4792
20
0.698134
11
1.4792
21
0.685738
0
LINE
8
BLACK
6
CONTINUOUS
10
1.4792
20
0.685738
11
1.48079
21
0.679385
0
LINE
8
BLACK
6
CONTINUOUS
10
1.48079
20
0.679385
11
1.48362
21
0.676553
0
LINE
8
BLACK
6
CONTINUOUS
10
1.48362
20
0.676553
11
1.48632
21
0.675204
0
LINE
8
BLACK
6
CONTINUOUS
10
1.48632
20
0.675204
11
1.49242
21
0.675204
0
LINE
8
BLACK
6
CONTINUOUS
10
1.49242
20
0.675204
11
1.49512
21
0.676553
0
LINE
8
BLACK
6
CONTINUOUS
10
1.49512
20
0.676553
11
1.49795
21
0.679385
0
LINE
8
BLACK
6
CONTINUOUS
10
1.49795
20
0.679385
11
1.49954
21
0.685738
0
LINE
8
BLACK
6
CONTINUOUS
10
1.49954
20
0.685738
11
1.49954
21
0.698134
0
LINE
8
BLACK
6
CONTINUOUS
10
1.49954
20
0.698134
11
1.49795
21
0.704487
0
LINE
8
BLACK
6
CONTINUOUS
10
1.49795
20
0.704487
11
1.49512
21
0.70732
0
LINE
8
BLACK
6
CONTINUOUS
10
1.49512
20
0.70732
11
1.49242
21
0.708669
0
LINE
8
BLACK
6
CONTINUOUS
10
1.49242
20
0.708669
11
1.48632
21
0.708669
0
LINE
8
BLACK
6
CONTINUOUS
10
1.48632
20
0.708669
11
1.48362
21
0.70732
0
LINE
8
BLACK
6
CONTINUOUS
10
1.54413
20
0.713519
11
1.54482
21
0.711621
0
LINE
8
BLACK
6
CONTINUOUS
10
1.54482
20
0.711621
11
1.54482
21
0.67975
0
LINE
8
BLACK
6
CONTINUOUS
10
1.54482
20
0.67975
11
1.54464
21
0.67874
0
LINE
8
BLACK
6
CONTINUOUS
10
1.54464
20
0.67874
11
1.54452
21
0.678605
0
LINE
8
BLACK
6
CONTINUOUS
10
1.54452
20
0.678605
11
1.5445
21
0.67843
0
LINE
8
BLACK
6
CONTINUOUS
10
1.5445
20
0.67843
11
1.54263
21
0.67468
0
LINE
8
BLACK
6
CONTINUOUS
10
1.54263
20
0.67468
11
1.5421
21
0.673971
0
LINE
8
BLACK
6
CONTINUOUS
10
1.5421
20
0.673971
11
1.54208
21
0.673913
0
LINE
8
BLACK
6
CONTINUOUS
10
1.54208
20
0.673913
11
1.5402
21
0.672038
0
LINE
8
BLACK
6
CONTINUOUS
10
1.5402
20
0.672038
11
1.53948
21
0.671532
0
LINE
8
BLACK
6
CONTINUOUS
10
1.53948
20
0.671532
11
1.53943
21
0.671485
0
LINE
8
BLACK
6
CONTINUOUS
10
1.53943
20
0.671485
11
1.53568
21
0.66961
0
LINE
8
BLACK
6
CONTINUOUS
10
1.53568
20
0.66961
11
1.5347
21
0.669318
0
LINE
8
BLACK
6
CONTINUOUS
10
1.5347
20
0.669318
11
1.53453
21
0.669359
0
LINE
8
BLACK
6
CONTINUOUS
10
1.53453
20
0.669359
11
1.53436
21
0.669298
0
LINE
8
BLACK
6
CONTINUOUS
10
1.53436
20
0.669298
11
1.52687
21
0.669298
0
LINE
8
BLACK
6
CONTINUOUS
10
1.52687
20
0.669298
11
1.52586
21
0.669477
0
LINE
8
BLACK
6
CONTINUOUS
10
1.52586
20
0.669477
11
1.52572
21
0.66959
0
LINE
8
BLACK
6
CONTINUOUS
10
1.52572
20
0.66959
11
1.52554
21
0.66961
0
LINE
8
BLACK
6
CONTINUOUS
10
1.52554
20
0.66961
11
1.5218
21
0.671485
0
LINE
8
BLACK
6
CONTINUOUS
10
1.5218
20
0.671485
11
1.52109
21
0.672011
0
LINE
8
BLACK
6
CONTINUOUS
10
1.52109
20
0.672011
11
1.52103
21
0.672038
0
LINE
8
BLACK
6
CONTINUOUS
10
1.52103
20
0.672038
11
1.51915
21
0.673913
0
LINE
8
BLACK
6
CONTINUOUS
10
1.51915
20
0.673913
11
1.51865
21
0.674636
0
LINE
8
BLACK
6
CONTINUOUS
10
1.51865
20
0.674636
11
1.5186
21
0.67468
0
LINE
8
BLACK
6
CONTINUOUS
10
1.5186
20
0.67468
11
1.51673
21
0.67843
0
LINE
8
BLACK
6
CONTINUOUS
10
1.51673
20
0.67843
11
1.51643
21
0.679413
0
LINE
8
BLACK
6
CONTINUOUS
10
1.51643
20
0.679413
11
1.51647
21
0.679584
0
LINE
8
BLACK
6
CONTINUOUS
10
1.51647
20
0.679584
11
1.51641
21
0.67975
0
LINE
8
BLACK
6
CONTINUOUS
10
1.51641
20
0.67975
11
1.51641
21
0.711621
0
LINE
8
BLACK
6
CONTINUOUS
10
1.51641
20
0.711621
11
1.51659
21
0.712631
0
LINE
8
BLACK
6
CONTINUOUS
10
1.51659
20
0.712631
11
1.51789
21
0.714178
0
LINE
8
BLACK
6
CONTINUOUS
10
1.51789
20
0.714178
11
1.51988
21
0.714529
0
LINE
8
BLACK
6
CONTINUOUS
10
1.51988
20
0.714529
11
1.52163
21
0.713519
0
LINE
8
BLACK
6
CONTINUOUS
10
1.52163
20
0.713519
11
1.52232
21
0.711621
0
LINE
8
BLACK
6
CONTINUOUS
10
1.52232
20
0.711621
11
1.52232
21
0.680447
0
LINE
8
BLACK
6
CONTINUOUS
10
1.52232
20
0.680447
11
1.52367
21
0.67775
0
LINE
8
BLACK
6
CONTINUOUS
10
1.52367
20
0.67775
11
1.52486
21
0.676553
0
LINE
8
BLACK
6
CONTINUOUS
10
1.52486
20
0.676553
11
1.52756
21
0.675204
0
LINE
8
BLACK
6
CONTINUOUS
10
1.52756
20
0.675204
11
1.53367
21
0.675204
0
LINE
8
BLACK
6
CONTINUOUS
10
1.53367
20
0.675204
11
1.53636
21
0.676553
0
LINE
8
BLACK
6
CONTINUOUS
10
1.53636
20
0.676553
11
1.53756
21
0.67775
0
LINE
8
BLACK
6
CONTINUOUS
10
1.53756
20
0.67775
11
1.53891
21
0.680447
0
LINE
8
BLACK
6
CONTINUOUS
10
1.53891
20
0.680447
11
1.53891
21
0.711621
0
LINE
8
BLACK
6
CONTINUOUS
10
1.53891
20
0.711621
11
1.53909
21
0.712631
0
LINE
8
BLACK
6
CONTINUOUS
10
1.53909
20
0.712631
11
1.54039
21
0.714178
0
LINE
8
BLACK
6
CONTINUOUS
10
1.54039
20
0.714178
11
1.54238
21
0.714529
0
LINE
8
BLACK
6
CONTINUOUS
10
1.54238
20
0.714529
11
1.54413
21
0.713519
0
LINE
8
BLACK
6
CONTINUOUS
10
1.3304
20
0.713519
11
1.33109
21
0.711621
0
LINE
8
BLACK
6
CONTINUOUS
10
1.33109
20
0.711621
11
1.33109
21
0.696253
0
LINE
8
BLACK
6
CONTINUOUS
10
1.33109
20
0.696253
11
1.34855
21
0.713709
0
LINE
8
BLACK
6
CONTINUOUS
10
1.34855
20
0.713709
11
1.34939
21
0.714297
0
LINE
8
BLACK
6
CONTINUOUS
10
1.34939
20
0.714297
11
1.3514
21
0.714473
0
LINE
8
BLACK
6
CONTINUOUS
10
1.3514
20
0.714473
11
1.35306
21
0.713315
0
LINE
8
BLACK
6
CONTINUOUS
10
1.35306
20
0.713315
11
1.35358
21
0.711364
0
LINE
8
BLACK
6
CONTINUOUS
10
1.35358
20
0.711364
11
1.35273
21
0.709533
0
LINE
8
BLACK
6
CONTINUOUS
10
1.35273
20
0.709533
11
1.33766
21
0.694471
0
LINE
8
BLACK
6
CONTINUOUS
10
1.33766
20
0.694471
11
1.353
21
0.674023
0
LINE
8
BLACK
6
CONTINUOUS
10
1.353
20
0.674023
11
1.35346
21
0.673108
0
LINE
8
BLACK
6
CONTINUOUS
10
1.35346
20
0.673108
11
1.35335
21
0.671091
0
LINE
8
BLACK
6
CONTINUOUS
10
1.35335
20
0.671091
11
1.35197
21
0.669617
0
LINE
8
BLACK
6
CONTINUOUS
10
1.35197
20
0.669617
11
1.34997
21
0.669376
0
LINE
8
BLACK
6
CONTINUOUS
10
1.34997
20
0.669376
11
1.34828
21
0.67048
0
LINE
8
BLACK
6
CONTINUOUS
10
1.34828
20
0.67048
11
1.33345
21
0.690253
0
LINE
8
BLACK
6
CONTINUOUS
10
1.33345
20
0.690253
11
1.33109
21
0.687901
0
LINE
8
BLACK
6
CONTINUOUS
10
1.33109
20
0.687901
11
1.33109
21
0.672251
0
LINE
8
BLACK
6
CONTINUOUS
10
1.33109
20
0.672251
11
1.33091
21
0.671241
0
LINE
8
BLACK
6
CONTINUOUS
10
1.33091
20
0.671241
11
1.32962
21
0.669694
0
LINE
8
BLACK
6
CONTINUOUS
10
1.32962
20
0.669694
11
1.32763
21
0.669343
0
LINE
8
BLACK
6
CONTINUOUS
10
1.32763
20
0.669343
11
1.32588
21
0.670353
0
LINE
8
BLACK
6
CONTINUOUS
10
1.32588
20
0.670353
11
1.32519
21
0.672251
0
LINE
8
BLACK
6
CONTINUOUS
10
1.32519
20
0.672251
11
1.32519
21
0.711621
0
LINE
8
BLACK
6
CONTINUOUS
10
1.32519
20
0.711621
11
1.32537
21
0.712631
0
LINE
8
BLACK
6
CONTINUOUS
10
1.32537
20
0.712631
11
1.32666
21
0.714178
0
LINE
8
BLACK
6
CONTINUOUS
10
1.32666
20
0.714178
11
1.32865
21
0.714529
0
LINE
8
BLACK
6
CONTINUOUS
10
1.32865
20
0.714529
11
1.3304
21
0.713519
0
LINE
8
BLACK
6
CONTINUOUS
10
1.45476
20
0.714396
11
1.45489
21
0.714283
0
LINE
8
BLACK
6
CONTINUOUS
10
1.45489
20
0.714283
11
1.45507
21
0.714262
0
LINE
8
BLACK
6
CONTINUOUS
10
1.45507
20
0.714262
11
1.45882
21
0.712388
0
LINE
8
BLACK
6
CONTINUOUS
10
1.45882
20
0.712388
11
1.45953
21
0.711862
0
LINE
8
BLACK
6
CONTINUOUS
10
1.45953
20
0.711862
11
1.45959
21
0.711834
0
LINE
8
BLACK
6
CONTINUOUS
10
1.45959
20
0.711834
11
1.46146
21
0.70996
0
LINE
8
BLACK
6
CONTINUOUS
10
1.46146
20
0.70996
11
1.46197
21
0.709237
0
LINE
8
BLACK
6
CONTINUOUS
10
1.46197
20
0.709237
11
1.46201
21
0.709192
0
LINE
8
BLACK
6
CONTINUOUS
10
1.46201
20
0.709192
11
1.46389
21
0.705443
0
LINE
8
BLACK
6
CONTINUOUS
10
1.46389
20
0.705443
11
1.46418
21
0.70446
0
LINE
8
BLACK
6
CONTINUOUS
10
1.46418
20
0.70446
11
1.46414
21
0.704288
0
LINE
8
BLACK
6
CONTINUOUS
10
1.46414
20
0.704288
11
1.4642
21
0.704122
0
LINE
8
BLACK
6
CONTINUOUS
10
1.4642
20
0.704122
11
1.4642
21
0.698498
0
LINE
8
BLACK
6
CONTINUOUS
10
1.4642
20
0.698498
11
1.46402
21
0.697488
0
LINE
8
BLACK
6
CONTINUOUS
10
1.46402
20
0.697488
11
1.46391
21
0.697353
0
LINE
8
BLACK
6
CONTINUOUS
10
1.46391
20
0.697353
11
1.46389
21
0.697177
0
LINE
8
BLACK
6
CONTINUOUS
10
1.46389
20
0.697177
11
1.46201
21
0.693428
0
LINE
8
BLACK
6
CONTINUOUS
10
1.46201
20
0.693428
11
1.46149
21
0.692719
0
LINE
8
BLACK
6
CONTINUOUS
10
1.46149
20
0.692719
11
1.46146
21
0.692661
0
LINE
8
BLACK
6
CONTINUOUS
10
1.46146
20
0.692661
11
1.45959
21
0.690786
0
LINE
8
BLACK
6
CONTINUOUS
10
1.45959
20
0.690786
11
1.45886
21
0.690279
0
LINE
8
BLACK
6
CONTINUOUS
10
1.45886
20
0.690279
11
1.45882
21
0.690233
0
LINE
8
BLACK
6
CONTINUOUS
10
1.45882
20
0.690233
11
1.45507
21
0.688358
0
LINE
8
BLACK
6
CONTINUOUS
10
1.45507
20
0.688358
11
1.45409
21
0.688066
0
LINE
8
BLACK
6
CONTINUOUS
10
1.45409
20
0.688066
11
1.45392
21
0.688107
0
LINE
8
BLACK
6
CONTINUOUS
10
1.45392
20
0.688107
11
1.45375
21
0.688046
0
LINE
8
BLACK
6
CONTINUOUS
10
1.45375
20
0.688046
11
1.4417
21
0.688046
0
LINE
8
BLACK
6
CONTINUOUS
10
1.4417
20
0.688046
11
1.4417
21
0.672251
0
LINE
8
BLACK
6
CONTINUOUS
10
1.4417
20
0.672251
11
1.44153
21
0.671241
0
LINE
8
BLACK
6
CONTINUOUS
10
1.44153
20
0.671241
11
1.44023
21
0.669694
0
LINE
8
BLACK
6
CONTINUOUS
10
1.44023
20
0.669694
11
1.43824
21
0.669343
0
LINE
8
BLACK
6
CONTINUOUS
10
1.43824
20
0.669343
11
1.43649
21
0.670353
0
LINE
8
BLACK
6
CONTINUOUS
10
1.43649
20
0.670353
11
1.4358
21
0.672251
0
LINE
8
BLACK
6
CONTINUOUS
10
1.4358
20
0.672251
11
1.4358
21
0.711621
0
LINE
8
BLACK
6
CONTINUOUS
10
1.4358
20
0.711621
11
1.43587
21
0.712005
0
LINE
8
BLACK
6
CONTINUOUS
10
1.43587
20
0.712005
11
1.43584
21
0.712134
0
LINE
8
BLACK
6
CONTINUOUS
10
1.43584
20
0.712134
11
1.43591
21
0.712248
0
LINE
8
BLACK
6
CONTINUOUS
10
1.43591
20
0.712248
11
1.43598
21
0.712631
0
LINE
8
BLACK
6
CONTINUOUS
10
1.43598
20
0.712631
11
1.43647
21
0.713219
0
LINE
8
BLACK
6
CONTINUOUS
10
1.43647
20
0.713219
11
1.43685
21
0.713883
0
LINE
8
BLACK
6
CONTINUOUS
10
1.43685
20
0.713883
11
1.4371
21
0.713974
0
LINE
8
BLACK
6
CONTINUOUS
10
1.4371
20
0.713974
11
1.43728
21
0.714178
0
LINE
8
BLACK
6
CONTINUOUS
10
1.43728
20
0.714178
11
1.43803
21
0.714312
0
LINE
8
BLACK
6
CONTINUOUS
10
1.43803
20
0.714312
11
1.43875
21
0.714574
0
LINE
8
BLACK
6
CONTINUOUS
10
1.43875
20
0.714574
11
1.45375
21
0.714574
0
LINE
8
BLACK
6
CONTINUOUS
10
1.45375
20
0.714574
11
1.45476
21
0.714396
0
LINE
8
BLACK
6
CONTINUOUS
10
1.4417
20
0.693952
11
1.45305
21
0.693952
0
LINE
8
BLACK
6
CONTINUOUS
10
1.45305
20
0.693952
11
1.45575
21
0.6953
0
LINE
8
BLACK
6
CONTINUOUS
10
1.45575
20
0.6953
11
1.45695
21
0.696498
0
LINE
8
BLACK
6
CONTINUOUS
10
1.45695
20
0.696498
11
1.4583
21
0.699195
0
LINE
8
BLACK
6
CONTINUOUS
10
1.4583
20
0.699195
11
1.4583
21
0.703425
0
LINE
8
BLACK
6
CONTINUOUS
10
1.4583
20
0.703425
11
1.45695
21
0.706123
0
LINE
8
BLACK
6
CONTINUOUS
10
1.45695
20
0.706123
11
1.45575
21
0.70732
0
LINE
8
BLACK
6
CONTINUOUS
10
1.45575
20
0.70732
11
1.45305
21
0.708669
0
LINE
8
BLACK
6
CONTINUOUS
10
1.45305
20
0.708669
11
1.4417
21
0.708669
0
LINE
8
BLACK
6
CONTINUOUS
10
1.4417
20
0.708669
11
1.4417
21
0.693952
0
LINE
8
BLACK
6
CONTINUOUS
10
1.57849
20
0.714396
11
1.58004
21
0.713098
0
LINE
8
BLACK
6
CONTINUOUS
10
1.58004
20
0.713098
11
1.58039
21
0.711109
0
LINE
8
BLACK
6
CONTINUOUS
10
1.58039
20
0.711109
11
1.57938
21
0.709359
0
LINE
8
BLACK
6
CONTINUOUS
10
1.57938
20
0.709359
11
1.57748
21
0.708669
0
LINE
8
BLACK
6
CONTINUOUS
10
1.57748
20
0.708669
11
1.56919
21
0.708669
0
LINE
8
BLACK
6
CONTINUOUS
10
1.56919
20
0.708669
11
1.56919
21
0.672251
0
LINE
8
BLACK
6
CONTINUOUS
10
1.56919
20
0.672251
11
1.56901
21
0.671241
0
LINE
8
BLACK
6
CONTINUOUS
10
1.56901
20
0.671241
11
1.56771
21
0.669694
0
LINE
8
BLACK
6
CONTINUOUS
10
1.56771
20
0.669694
11
1.56572
21
0.669343
0
LINE
8
BLACK
6
CONTINUOUS
10
1.56572
20
0.669343
11
1.56397
21
0.670353
0
LINE
8
BLACK
6
CONTINUOUS
10
1.56397
20
0.670353
11
1.56328
21
0.672251
0
LINE
8
BLACK
6
CONTINUOUS
10
1.56328
20
0.672251
11
1.56328
21
0.708669
0
LINE
8
BLACK
6
CONTINUOUS
10
1.56328
20
0.708669
11
1.55499
21
0.708669
0
LINE
8
BLACK
6
CONTINUOUS
10
1.55499
20
0.708669
11
1.55398
21
0.708847
0
LINE
8
BLACK
6
CONTINUOUS
10
1.55398
20
0.708847
11
1.55243
21
0.710145
0
LINE
8
BLACK
6
CONTINUOUS
10
1.55243
20
0.710145
11
1.55208
21
0.712134
0
LINE
8
BLACK
6
CONTINUOUS
10
1.55208
20
0.712134
11
1.55309
21
0.713883
0
LINE
8
BLACK
6
CONTINUOUS
10
1.55309
20
0.713883
11
1.55499
21
0.714574
0
LINE
8
BLACK
6
CONTINUOUS
10
1.55499
20
0.714574
11
1.57748
21
0.714574
0
LINE
8
BLACK
6
CONTINUOUS
10
1.57748
20
0.714574
11
1.57849
21
0.714396
0
LINE
8
BLACK
6
CONTINUOUS
10
1.38727
20
1.1644
11
1.38882
21
1.1631
0
LINE
8
BLACK
6
CONTINUOUS
10
1.38882
20
1.1631
11
1.38917
21
1.16111
0
LINE
8
BLACK
6
CONTINUOUS
10
1.38917
20
1.16111
11
1.38816
21
1.15936
0
LINE
8
BLACK
6
CONTINUOUS
10
1.38816
20
1.15936
11
1.38626
21
1.15867
0
LINE
8
BLACK
6
CONTINUOUS
10
1.38626
20
1.15867
11
1.37046
21
1.15867
0
LINE
8
BLACK
6
CONTINUOUS
10
1.37046
20
1.15867
11
1.37046
21
1.14583
0
LINE
8
BLACK
6
CONTINUOUS
10
1.37046
20
1.14583
11
1.38063
21
1.14583
0
LINE
8
BLACK
6
CONTINUOUS
10
1.38063
20
1.14583
11
1.38164
21
1.14565
0
LINE
8
BLACK
6
CONTINUOUS
10
1.38164
20
1.14565
11
1.38319
21
1.14435
0
LINE
8
BLACK
6
CONTINUOUS
10
1.38319
20
1.14435
11
1.38354
21
1.14236
0
LINE
8
BLACK
6
CONTINUOUS
10
1.38354
20
1.14236
11
1.38253
21
1.14061
0
LINE
8
BLACK
6
CONTINUOUS
10
1.38253
20
1.14061
11
1.38063
21
1.13992
0
LINE
8
BLACK
6
CONTINUOUS
10
1.38063
20
1.13992
11
1.37046
21
1.13992
0
LINE
8
BLACK
6
CONTINUOUS
10
1.37046
20
1.13992
11
1.37046
21
1.1252
0
LINE
8
BLACK
6
CONTINUOUS
10
1.37046
20
1.1252
11
1.38626
21
1.1252
0
LINE
8
BLACK
6
CONTINUOUS
10
1.38626
20
1.1252
11
1.38727
21
1.12503
0
LINE
8
BLACK
6
CONTINUOUS
10
1.38727
20
1.12503
11
1.38882
21
1.12373
0
LINE
8
BLACK
6
CONTINUOUS
10
1.38882
20
1.12373
11
1.38917
21
1.12174
0
LINE
8
BLACK
6
CONTINUOUS
10
1.38917
20
1.12174
11
1.38816
21
1.11999
0
LINE
8
BLACK
6
CONTINUOUS
10
1.38816
20
1.11999
11
1.38626
21
1.1193
0
LINE
8
BLACK
6
CONTINUOUS
10
1.38626
20
1.1193
11
1.36751
21
1.1193
0
LINE
8
BLACK
6
CONTINUOUS
10
1.36751
20
1.1193
11
1.36713
21
1.11937
0
LINE
8
BLACK
6
CONTINUOUS
10
1.36713
20
1.11937
11
1.367
21
1.11934
0
LINE
8
BLACK
6
CONTINUOUS
10
1.367
20
1.11934
11
1.36688
21
1.11941
0
LINE
8
BLACK
6
CONTINUOUS
10
1.36688
20
1.11941
11
1.3665
21
1.11948
0
LINE
8
BLACK
6
CONTINUOUS
10
1.3665
20
1.11948
11
1.36591
21
1.11997
0
LINE
8
BLACK
6
CONTINUOUS
10
1.36591
20
1.11997
11
1.36525
21
1.12035
0
LINE
8
BLACK
6
CONTINUOUS
10
1.36525
20
1.12035
11
1.36516
21
1.1206
0
LINE
8
BLACK
6
CONTINUOUS
10
1.36516
20
1.1206
11
1.36495
21
1.12077
0
LINE
8
BLACK
6
CONTINUOUS
10
1.36495
20
1.12077
11
1.36482
21
1.12153
0
LINE
8
BLACK
6
CONTINUOUS
10
1.36482
20
1.12153
11
1.36456
21
1.12225
0
LINE
8
BLACK
6
CONTINUOUS
10
1.36456
20
1.12225
11
1.36456
21
1.16162
0
LINE
8
BLACK
6
CONTINUOUS
10
1.36456
20
1.16162
11
1.36463
21
1.162
0
LINE
8
BLACK
6
CONTINUOUS
10
1.36463
20
1.162
11
1.3646
21
1.16213
0
LINE
8
BLACK
6
CONTINUOUS
10
1.3646
20
1.16213
11
1.36467
21
1.16225
0
LINE
8
BLACK
6
CONTINUOUS
10
1.36467
20
1.16225
11
1.36474
21
1.16263
0
LINE
8
BLACK
6
CONTINUOUS
10
1.36474
20
1.16263
11
1.36523
21
1.16322
0
LINE
8
BLACK
6
CONTINUOUS
10
1.36523
20
1.16322
11
1.36561
21
1.16388
0
LINE
8
BLACK
6
CONTINUOUS
10
1.36561
20
1.16388
11
1.36586
21
1.16397
0
LINE
8
BLACK
6
CONTINUOUS
10
1.36586
20
1.16397
11
1.36603
21
1.16418
0
LINE
8
BLACK
6
CONTINUOUS
10
1.36603
20
1.16418
11
1.36679
21
1.16431
0
LINE
8
BLACK
6
CONTINUOUS
10
1.36679
20
1.16431
11
1.36751
21
1.16457
0
LINE
8
BLACK
6
CONTINUOUS
10
1.36751
20
1.16457
11
1.38626
21
1.16457
0
LINE
8
BLACK
6
CONTINUOUS
10
1.38626
20
1.16457
11
1.38727
21
1.1644
0
LINE
8
BLACK
6
CONTINUOUS
10
1.42289
20
1.1644
11
1.42444
21
1.1631
0
LINE
8
BLACK
6
CONTINUOUS
10
1.42444
20
1.1631
11
1.42479
21
1.16111
0
LINE
8
BLACK
6
CONTINUOUS
10
1.42479
20
1.16111
11
1.42378
21
1.15936
0
LINE
8
BLACK
6
CONTINUOUS
10
1.42378
20
1.15936
11
1.42188
21
1.15867
0
LINE
8
BLACK
6
CONTINUOUS
10
1.42188
20
1.15867
11
1.40608
21
1.15867
0
LINE
8
BLACK
6
CONTINUOUS
10
1.40608
20
1.15867
11
1.40608
21
1.14583
0
LINE
8
BLACK
6
CONTINUOUS
10
1.40608
20
1.14583
11
1.41625
21
1.14583
0
LINE
8
BLACK
6
CONTINUOUS
10
1.41625
20
1.14583
11
1.41726
21
1.14565
0
LINE
8
BLACK
6
CONTINUOUS
10
1.41726
20
1.14565
11
1.41881
21
1.14435
0
LINE
8
BLACK
6
CONTINUOUS
10
1.41881
20
1.14435
11
1.41916
21
1.14236
0
LINE
8
BLACK
6
CONTINUOUS
10
1.41916
20
1.14236
11
1.41815
21
1.14061
0
LINE
8
BLACK
6
CONTINUOUS
10
1.41815
20
1.14061
11
1.41625
21
1.13992
0
LINE
8
BLACK
6
CONTINUOUS
10
1.41625
20
1.13992
11
1.40608
21
1.13992
0
LINE
8
BLACK
6
CONTINUOUS
10
1.40608
20
1.13992
11
1.40608
21
1.1252
0
LINE
8
BLACK
6
CONTINUOUS
10
1.40608
20
1.1252
11
1.42188
21
1.1252
0
LINE
8
BLACK
6
CONTINUOUS
10
1.42188
20
1.1252
11
1.42289
21
1.12503
0
LINE
8
BLACK
6
CONTINUOUS
10
1.42289
20
1.12503
11
1.42444
21
1.12373
0
LINE
8
BLACK
6
CONTINUOUS
10
1.42444
20
1.12373
11
1.42479
21
1.12174
0
LINE
8
BLACK
6
CONTINUOUS
10
1.42479
20
1.12174
11
1.42378
21
1.11999
0
LINE
8
BLACK
6
CONTINUOUS
10
1.42378
20
1.11999
11
1.42188
21
1.1193
0
LINE
8
BLACK
6
CONTINUOUS
10
1.42188
20
1.1193
11
1.40313
21
1.1193
0
LINE
8
BLACK
6
CONTINUOUS
10
1.40313
20
1.1193
11
1.40275
21
1.11937
0
LINE
8
BLACK
6
CONTINUOUS
10
1.40275
20
1.11937
11
1.40262
21
1.11934
0
LINE
8
BLACK
6
CONTINUOUS
10
1.40262
20
1.11934
11
1.4025
21
1.11941
0
LINE
8
BLACK
6
CONTINUOUS
10
1.4025
20
1.11941
11
1.40212
21
1.11948
0
LINE
8
BLACK
6
CONTINUOUS
10
1.40212
20
1.11948
11
1.40153
21
1.11997
0
LINE
8
BLACK
6
CONTINUOUS
10
1.40153
20
1.11997
11
1.40087
21
1.12035
0
LINE
8
BLACK
6
CONTINUOUS
10
1.40087
20
1.12035
11
1.40078
21
1.1206
0
LINE
8
BLACK
6
CONTINUOUS
10
1.40078
20
1.1206
11
1.40057
21
1.12077
0
LINE
8
BLACK
6
CONTINUOUS
10
1.40057
20
1.12077
11
1.40044
21
1.12153
0
LINE
8
BLACK
6
CONTINUOUS
10
1.40044
20
1.12153
11
1.40018
21
1.12225
0
LINE
8
BLACK
6
CONTINUOUS
10
1.40018
20
1.12225
11
1.40018
21
1.16162
0
LINE
8
BLACK
6
CONTINUOUS
10
1.40018
20
1.16162
11
1.40025
21
1.162
0
LINE
8
BLACK
6
CONTINUOUS
10
1.40025
20
1.162
11
1.40022
21
1.16213
0
LINE
8
BLACK
6
CONTINUOUS
10
1.40022
20
1.16213
11
1.40029
21
1.16225
0
LINE
8
BLACK
6
CONTINUOUS
10
1.40029
20
1.16225
11
1.40036
21
1.16263
0
LINE
8
BLACK
6
CONTINUOUS
10
1.40036
20
1.16263
11
1.40085
21
1.16322
0
LINE
8
BLACK
6
CONTINUOUS
10
1.40085
20
1.16322
11
1.40123
21
1.16388
0
LINE
8
BLACK
6
CONTINUOUS
10
1.40123
20
1.16388
11
1.40148
21
1.16397
0
LINE
8
BLACK
6
CONTINUOUS
10
1.40148
20
1.16397
11
1.40165
21
1.16418
0
LINE
8
BLACK
6
CONTINUOUS
10
1.40165
20
1.16418
11
1.40241
21
1.16431
0
LINE
8
BLACK
6
CONTINUOUS
10
1.40241
20
1.16431
11
1.40313
21
1.16457
0
LINE
8
BLACK
6
CONTINUOUS
10
1.40313
20
1.16457
11
1.42188
21
1.16457
0
LINE
8
BLACK
6
CONTINUOUS
10
1.42188
20
1.16457
11
1.42289
21
1.1644
0
LINE
8
BLACK
6
CONTINUOUS
10
1.49413
20
1.1644
11
1.49426
21
1.16428
0
LINE
8
BLACK
6
CONTINUOUS
10
1.49426
20
1.16428
11
1.49444
21
1.16426
0
LINE
8
BLACK
6
CONTINUOUS
10
1.49444
20
1.16426
11
1.49819
21
1.16239
0
LINE
8
BLACK
6
CONTINUOUS
10
1.49819
20
1.16239
11
1.4989
21
1.16186
0
LINE
8
BLACK
6
CONTINUOUS
10
1.4989
20
1.16186
11
1.49896
21
1.16183
0
LINE
8
BLACK
6
CONTINUOUS
10
1.49896
20
1.16183
11
1.50271
21
1.15808
0
LINE
8
BLACK
6
CONTINUOUS
10
1.50271
20
1.15808
11
1.50329
21
1.15724
0
LINE
8
BLACK
6
CONTINUOUS
10
1.50329
20
1.15724
11
1.50332
21
1.15695
0
LINE
8
BLACK
6
CONTINUOUS
10
1.50332
20
1.15695
11
1.50348
21
1.15671
0
LINE
8
BLACK
6
CONTINUOUS
10
1.50348
20
1.15671
11
1.50536
21
1.14921
0
LINE
8
BLACK
6
CONTINUOUS
10
1.50536
20
1.14921
11
1.5054
21
1.14863
0
LINE
8
BLACK
6
CONTINUOUS
10
1.5054
20
1.14863
11
1.50545
21
1.1485
0
LINE
8
BLACK
6
CONTINUOUS
10
1.50545
20
1.1485
11
1.50545
21
1.13537
0
LINE
8
BLACK
6
CONTINUOUS
10
1.50545
20
1.13537
11
1.50534
21
1.13479
0
LINE
8
BLACK
6
CONTINUOUS
10
1.50534
20
1.13479
11
1.50536
21
1.13466
0
LINE
8
BLACK
6
CONTINUOUS
10
1.50536
20
1.13466
11
1.50348
21
1.12716
0
LINE
8
BLACK
6
CONTINUOUS
10
1.50348
20
1.12716
11
1.50307
21
1.12622
0
LINE
8
BLACK
6
CONTINUOUS
10
1.50307
20
1.12622
11
1.50283
21
1.12605
0
LINE
8
BLACK
6
CONTINUOUS
10
1.50283
20
1.12605
11
1.50271
21
1.12579
0
LINE
8
BLACK
6
CONTINUOUS
10
1.50271
20
1.12579
11
1.49896
21
1.12204
0
LINE
8
BLACK
6
CONTINUOUS
10
1.49896
20
1.12204
11
1.49823
21
1.12153
0
LINE
8
BLACK
6
CONTINUOUS
10
1.49823
20
1.12153
11
1.49819
21
1.12148
0
LINE
8
BLACK
6
CONTINUOUS
10
1.49819
20
1.12148
11
1.49444
21
1.11961
0
LINE
8
BLACK
6
CONTINUOUS
10
1.49444
20
1.11961
11
1.49346
21
1.11932
0
LINE
8
BLACK
6
CONTINUOUS
10
1.49346
20
1.11932
11
1.49329
21
1.11936
0
LINE
8
BLACK
6
CONTINUOUS
10
1.49329
20
1.11936
11
1.49312
21
1.1193
0
LINE
8
BLACK
6
CONTINUOUS
10
1.49312
20
1.1193
11
1.48562
21
1.1193
0
LINE
8
BLACK
6
CONTINUOUS
10
1.48562
20
1.1193
11
1.48461
21
1.11948
0
LINE
8
BLACK
6
CONTINUOUS
10
1.48461
20
1.11948
11
1.48448
21
1.11959
0
LINE
8
BLACK
6
CONTINUOUS
10
1.48448
20
1.11959
11
1.4843
21
1.11961
0
LINE
8
BLACK
6
CONTINUOUS
10
1.4843
20
1.11961
11
1.48055
21
1.12148
0
LINE
8
BLACK
6
CONTINUOUS
10
1.48055
20
1.12148
11
1.47984
21
1.12201
0
LINE
8
BLACK
6
CONTINUOUS
10
1.47984
20
1.12201
11
1.47978
21
1.12204
0
LINE
8
BLACK
6
CONTINUOUS
10
1.47978
20
1.12204
11
1.47603
21
1.12579
0
LINE
8
BLACK
6
CONTINUOUS
10
1.47603
20
1.12579
11
1.47545
21
1.12663
0
LINE
8
BLACK
6
CONTINUOUS
10
1.47545
20
1.12663
11
1.47542
21
1.12692
0
LINE
8
BLACK
6
CONTINUOUS
10
1.47542
20
1.12692
11
1.47526
21
1.12716
0
LINE
8
BLACK
6
CONTINUOUS
10
1.47526
20
1.12716
11
1.47338
21
1.13466
0
LINE
8
BLACK
6
CONTINUOUS
10
1.47338
20
1.13466
11
1.47334
21
1.13525
0
LINE
8
BLACK
6
CONTINUOUS
10
1.47334
20
1.13525
11
1.47329
21
1.13537
0
LINE
8
BLACK
6
CONTINUOUS
10
1.47329
20
1.13537
11
1.47329
21
1.1485
0
LINE
8
BLACK
6
CONTINUOUS
10
1.47329
20
1.1485
11
1.4734
21
1.14908
0
LINE
8
BLACK
6
CONTINUOUS
10
1.4734
20
1.14908
11
1.47338
21
1.14921
0
LINE
8
BLACK
6
CONTINUOUS
10
1.47338
20
1.14921
11
1.47526
21
1.15671
0
LINE
8
BLACK
6
CONTINUOUS
10
1.47526
20
1.15671
11
1.47567
21
1.15765
0
LINE
8
BLACK
6
CONTINUOUS
10
1.47567
20
1.15765
11
1.47591
21
1.15782
0
LINE
8
BLACK
6
CONTINUOUS
10
1.47591
20
1.15782
11
1.47603
21
1.15808
0
LINE
8
BLACK
6
CONTINUOUS
10
1.47603
20
1.15808
11
1.47978
21
1.16183
0
LINE
8
BLACK
6
CONTINUOUS
10
1.47978
20
1.16183
11
1.48051
21
1.16234
0
LINE
8
BLACK
6
CONTINUOUS
10
1.48051
20
1.16234
11
1.48055
21
1.16239
0
LINE
8
BLACK
6
CONTINUOUS
10
1.48055
20
1.16239
11
1.4843
21
1.16426
0
LINE
8
BLACK
6
CONTINUOUS
10
1.4843
20
1.16426
11
1.48528
21
1.16455
0
LINE
8
BLACK
6
CONTINUOUS
10
1.48528
20
1.16455
11
1.48545
21
1.16451
0
LINE
8
BLACK
6
CONTINUOUS
10
1.48545
20
1.16451
11
1.48562
21
1.16457
0
LINE
8
BLACK
6
CONTINUOUS
10
1.48562
20
1.16457
11
1.49312
21
1.16457
0
LINE
8
BLACK
6
CONTINUOUS
10
1.49312
20
1.16457
11
1.49413
21
1.1644
0
LINE
8
BLACK
6
CONTINUOUS
10
1.48362
20
1.15732
11
1.48079
21
1.15449
0
LINE
8
BLACK
6
CONTINUOUS
10
1.48079
20
1.15449
11
1.4792
21
1.14813
0
LINE
8
BLACK
6
CONTINUOUS
10
1.4792
20
1.14813
11
1.4792
21
1.13574
0
LINE
8
BLACK
6
CONTINUOUS
10
1.4792
20
1.13574
11
1.48079
21
1.12939
0
LINE
8
BLACK
6
CONTINUOUS
10
1.48079
20
1.12939
11
1.48362
21
1.12655
0
LINE
8
BLACK
6
CONTINUOUS
10
1.48362
20
1.12655
11
1.48632
21
1.1252
0
LINE
8
BLACK
6
CONTINUOUS
10
1.48632
20
1.1252
11
1.49242
21
1.1252
0
LINE
8
BLACK
6
CONTINUOUS
10
1.49242
20
1.1252
11
1.49512
21
1.12655
0
LINE
8
BLACK
6
CONTINUOUS
10
1.49512
20
1.12655
11
1.49795
21
1.12939
0
LINE
8
BLACK
6
CONTINUOUS
10
1.49795
20
1.12939
11
1.49954
21
1.13574
0
LINE
8
BLACK
6
CONTINUOUS
10
1.49954
20
1.13574
11
1.49954
21
1.14813
0
LINE
8
BLACK
6
CONTINUOUS
10
1.49954
20
1.14813
11
1.49795
21
1.15449
0
LINE
8
BLACK
6
CONTINUOUS
10
1.49795
20
1.15449
11
1.49512
21
1.15732
0
LINE
8
BLACK
6
CONTINUOUS
10
1.49512
20
1.15732
11
1.49242
21
1.15867
0
LINE
8
BLACK
6
CONTINUOUS
10
1.49242
20
1.15867
11
1.48632
21
1.15867
0
LINE
8
BLACK
6
CONTINUOUS
10
1.48632
20
1.15867
11
1.48362
21
1.15732
0
LINE
8
BLACK
6
CONTINUOUS
10
1.54413
20
1.16352
11
1.54482
21
1.16162
0
LINE
8
BLACK
6
CONTINUOUS
10
1.54482
20
1.16162
11
1.54482
21
1.12975
0
LINE
8
BLACK
6
CONTINUOUS
10
1.54482
20
1.12975
11
1.54464
21
1.12874
0
LINE
8
BLACK
6
CONTINUOUS
10
1.54464
20
1.12874
11
1.54452
21
1.12861
0
LINE
8
BLACK
6
CONTINUOUS
10
1.54452
20
1.12861
11
1.5445
21
1.12843
0
LINE
8
BLACK
6
CONTINUOUS
10
1.5445
20
1.12843
11
1.54263
21
1.12468
0
LINE
8
BLACK
6
CONTINUOUS
10
1.54263
20
1.12468
11
1.5421
21
1.12397
0
LINE
8
BLACK
6
CONTINUOUS
10
1.5421
20
1.12397
11
1.54208
21
1.12391
0
LINE
8
BLACK
6
CONTINUOUS
10
1.54208
20
1.12391
11
1.5402
21
1.12204
0
LINE
8
BLACK
6
CONTINUOUS
10
1.5402
20
1.12204
11
1.53948
21
1.12153
0
LINE
8
BLACK
6
CONTINUOUS
10
1.53948
20
1.12153
11
1.53943
21
1.12148
0
LINE
8
BLACK
6
CONTINUOUS
10
1.53943
20
1.12148
11
1.53568
21
1.11961
0
LINE
8
BLACK
6
CONTINUOUS
10
1.53568
20
1.11961
11
1.5347
21
1.11932
0
LINE
8
BLACK
6
CONTINUOUS
10
1.5347
20
1.11932
11
1.53453
21
1.11936
0
LINE
8
BLACK
6
CONTINUOUS
10
1.53453
20
1.11936
11
1.53436
21
1.1193
0
LINE
8
BLACK
6
CONTINUOUS
10
1.53436
20
1.1193
11
1.52687
21
1.1193
0
LINE
8
BLACK
6
CONTINUOUS
10
1.52687
20
1.1193
11
1.52586
21
1.11948
0
LINE
8
BLACK
6
CONTINUOUS
10
1.52586
20
1.11948
11
1.52572
21
1.11959
0
LINE
8
BLACK
6
CONTINUOUS
10
1.52572
20
1.11959
11
1.52554
21
1.11961
0
LINE
8
BLACK
6
CONTINUOUS
10
1.52554
20
1.11961
11
1.5218
21
1.12148
0
LINE
8
BLACK
6
CONTINUOUS
10
1.5218
20
1.12148
11
1.52109
21
1.12201
0
LINE
8
BLACK
6
CONTINUOUS
10
1.52109
20
1.12201
11
1.52103
21
1.12204
0
LINE
8
BLACK
6
CONTINUOUS
10
1.52103
20
1.12204
11
1.51915
21
1.12391
0
LINE
8
BLACK
6
CONTINUOUS
10
1.51915
20
1.12391
11
1.51865
21
1.12464
0
LINE
8
BLACK
6
CONTINUOUS
10
1.51865
20
1.12464
11
1.5186
21
1.12468
0
LINE
8
BLACK
6
CONTINUOUS
10
1.5186
20
1.12468
11
1.51673
21
1.12843
0
LINE
8
BLACK
6
CONTINUOUS
10
1.51673
20
1.12843
11
1.51643
21
1.12941
0
LINE
8
BLACK
6
CONTINUOUS
10
1.51643
20
1.12941
11
1.51647
21
1.12958
0
LINE
8
BLACK
6
CONTINUOUS
10
1.51647
20
1.12958
11
1.51641
21
1.12975
0
LINE
8
BLACK
6
CONTINUOUS
10
1.51641
20
1.12975
11
1.51641
21
1.16162
0
LINE
8
BLACK
6
CONTINUOUS
10
1.51641
20
1.16162
11
1.51659
21
1.16263
0
LINE
8
BLACK
6
CONTINUOUS
10
1.51659
20
1.16263
11
1.51789
21
1.16418
0
LINE
8
BLACK
6
CONTINUOUS
10
1.51789
20
1.16418
11
1.51988
21
1.16453
0
LINE
8
BLACK
6
CONTINUOUS
10
1.51988
20
1.16453
11
1.52163
21
1.16352
0
LINE
8
BLACK
6
CONTINUOUS
10
1.52163
20
1.16352
11
1.52232
21
1.16162
0
LINE
8
BLACK
6
CONTINUOUS
10
1.52232
20
1.16162
11
1.52232
21
1.13045
0
LINE
8
BLACK
6
CONTINUOUS
10
1.52232
20
1.13045
11
1.52367
21
1.12775
0
LINE
8
BLACK
6
CONTINUOUS
10
1.52367
20
1.12775
11
1.52486
21
1.12655
0
LINE
8
BLACK
6
CONTINUOUS
10
1.52486
20
1.12655
11
1.52756
21
1.1252
0
LINE
8
BLACK
6
CONTINUOUS
10
1.52756
20
1.1252
11
1.53367
21
1.1252
0
LINE
8
BLACK
6
CONTINUOUS
10
1.53367
20
1.1252
11
1.53636
21
1.12655
0
LINE
8
BLACK
6
CONTINUOUS
10
1.53636
20
1.12655
11
1.53756
21
1.12775
0
LINE
8
BLACK
6
CONTINUOUS
10
1.53756
20
1.12775
11
1.53891
21
1.13045
0
LINE
8
BLACK
6
CONTINUOUS
10
1.53891
20
1.13045
11
1.53891
21
1.16162
0
LINE
8
BLACK
6
CONTINUOUS
10
1.53891
20
1.16162
11
1.53909
21
1.16263
0
LINE
8
BLACK
6
CONTINUOUS
10
1.53909
20
1.16263
11
1.54039
21
1.16418
0
LINE
8
BLACK
6
CONTINUOUS
10
1.54039
20
1.16418
11
1.54238
21
1.16453
0
LINE
8
BLACK
6
CONTINUOUS
10
1.54238
20
1.16453
11
1.54413
21
1.16352
0
LINE
8
BLACK
6
CONTINUOUS
10
1.3304
20
1.16352
11
1.33109
21
1.16162
0
LINE
8
BLACK
6
CONTINUOUS
10
1.33109
20
1.16162
11
1.33109
21
1.14625
0
LINE
8
BLACK
6
CONTINUOUS
10
1.33109
20
1.14625
11
1.34855
21
1.16371
0
LINE
8
BLACK
6
CONTINUOUS
10
1.34855
20
1.16371
11
1.34939
21
1.1643
0
LINE
8
BLACK
6
CONTINUOUS
10
1.34939
20
1.1643
11
1.3514
21
1.16447
0
LINE
8
BLACK
6
CONTINUOUS
10
1.3514
20
1.16447
11
1.35306
21
1.16331
0
LINE
8
BLACK
6
CONTINUOUS
10
1.35306
20
1.16331
11
1.35358
21
1.16136
0
LINE
8
BLACK
6
CONTINUOUS
10
1.35358
20
1.16136
11
1.35273
21
1.15953
0
LINE
8
BLACK
6
CONTINUOUS
10
1.35273
20
1.15953
11
1.33766
21
1.14447
0
LINE
8
BLACK
6
CONTINUOUS
10
1.33766
20
1.14447
11
1.353
21
1.12402
0
LINE
8
BLACK
6
CONTINUOUS
10
1.353
20
1.12402
11
1.35346
21
1.12311
0
LINE
8
BLACK
6
CONTINUOUS
10
1.35346
20
1.12311
11
1.35335
21
1.12109
0
LINE
8
BLACK
6
CONTINUOUS
10
1.35335
20
1.12109
11
1.35197
21
1.11962
0
LINE
8
BLACK
6
CONTINUOUS
10
1.35197
20
1.11962
11
1.34997
21
1.11938
0
LINE
8
BLACK
6
CONTINUOUS
10
1.34997
20
1.11938
11
1.34828
21
1.12048
0
LINE
8
BLACK
6
CONTINUOUS
10
1.34828
20
1.12048
11
1.33345
21
1.14025
0
LINE
8
BLACK
6
CONTINUOUS
10
1.33345
20
1.14025
11
1.33109
21
1.1379
0
LINE
8
BLACK
6
CONTINUOUS
10
1.33109
20
1.1379
11
1.33109
21
1.12225
0
LINE
8
BLACK
6
CONTINUOUS
10
1.33109
20
1.12225
11
1.33091
21
1.12124
0
LINE
8
BLACK
6
CONTINUOUS
10
1.33091
20
1.12124
11
1.32962
21
1.11969
0
LINE
8
BLACK
6
CONTINUOUS
10
1.32962
20
1.11969
11
1.32763
21
1.11934
0
LINE
8
BLACK
6
CONTINUOUS
10
1.32763
20
1.11934
11
1.32588
21
1.12035
0
LINE
8
BLACK
6
CONTINUOUS
10
1.32588
20
1.12035
11
1.32519
21
1.12225
0
LINE
8
BLACK
6
CONTINUOUS
10
1.32519
20
1.12225
11
1.32519
21
1.16162
0
LINE
8
BLACK
6
CONTINUOUS
10
1.32519
20
1.16162
11
1.32537
21
1.16263
0
LINE
8
BLACK
6
CONTINUOUS
10
1.32537
20
1.16263
11
1.32666
21
1.16418
0
LINE
8
BLACK
6
CONTINUOUS
10
1.32666
20
1.16418
11
1.32865
21
1.16453
0
LINE
8
BLACK
6
CONTINUOUS
10
1.32865
20
1.16453
11
1.3304
21
1.16352
0
LINE
8
BLACK
6
CONTINUOUS
10
1.45476
20
1.1644
11
1.45489
21
1.16428
0
LINE
8
BLACK
6
CONTINUOUS
10
1.45489
20
1.16428
11
1.45507
21
1.16426
0
LINE
8
BLACK
6
CONTINUOUS
10
1.45507
20
1.16426
11
1.45882
21
1.16239
0
LINE
8
BLACK
6
CONTINUOUS
10
1.45882
20
1.16239
11
1.45953
21
1.16186
0
LINE
8
BLACK
6
CONTINUOUS
10
1.45953
20
1.16186
11
1.45959
21
1.16183
0
LINE
8
BLACK
6
CONTINUOUS
10
1.45959
20
1.16183
11
1.46146
21
1.15996
0
LINE
8
BLACK
6
CONTINUOUS
10
1.46146
20
1.15996
11
1.46197
21
1.15924
0
LINE
8
BLACK
6
CONTINUOUS
10
1.46197
20
1.15924
11
1.46201
21
1.15919
0
LINE
8
BLACK
6
CONTINUOUS
10
1.46201
20
1.15919
11
1.46389
21
1.15544
0
LINE
8
BLACK
6
CONTINUOUS
10
1.46389
20
1.15544
11
1.46418
21
1.15446
0
LINE
8
BLACK
6
CONTINUOUS
10
1.46418
20
1.15446
11
1.46414
21
1.15429
0
LINE
8
BLACK
6
CONTINUOUS
10
1.46414
20
1.15429
11
1.4642
21
1.15412
0
LINE
8
BLACK
6
CONTINUOUS
10
1.4642
20
1.15412
11
1.4642
21
1.1485
0
LINE
8
BLACK
6
CONTINUOUS
10
1.4642
20
1.1485
11
1.46402
21
1.14749
0
LINE
8
BLACK
6
CONTINUOUS
10
1.46402
20
1.14749
11
1.46391
21
1.14735
0
LINE
8
BLACK
6
CONTINUOUS
10
1.46391
20
1.14735
11
1.46389
21
1.14718
0
LINE
8
BLACK
6
CONTINUOUS
10
1.46389
20
1.14718
11
1.46201
21
1.14343
0
LINE
8
BLACK
6
CONTINUOUS
10
1.46201
20
1.14343
11
1.46149
21
1.14272
0
LINE
8
BLACK
6
CONTINUOUS
10
1.46149
20
1.14272
11
1.46146
21
1.14266
0
LINE
8
BLACK
6
CONTINUOUS
10
1.46146
20
1.14266
11
1.45959
21
1.14079
0
LINE
8
BLACK
6
CONTINUOUS
10
1.45959
20
1.14079
11
1.45886
21
1.14028
0
LINE
8
BLACK
6
CONTINUOUS
10
1.45886
20
1.14028
11
1.45882
21
1.14023
0
LINE
8
BLACK
6
CONTINUOUS
10
1.45882
20
1.14023
11
1.45507
21
1.13836
0
LINE
8
BLACK
6
CONTINUOUS
10
1.45507
20
1.13836
11
1.45409
21
1.13807
0
LINE
8
BLACK
6
CONTINUOUS
10
1.45409
20
1.13807
11
1.45392
21
1.13811
0
LINE
8
BLACK
6
CONTINUOUS
10
1.45392
20
1.13811
11
1.45375
21
1.13805
0
LINE
8
BLACK
6
CONTINUOUS
10
1.45375
20
1.13805
11
1.4417
21
1.13805
0
LINE
8
BLACK
6
CONTINUOUS
10
1.4417
20
1.13805
11
1.4417
21
1.12225
0
LINE
8
BLACK
6
CONTINUOUS
10
1.4417
20
1.12225
11
1.44153
21
1.12124
0
LINE
8
BLACK
6
CONTINUOUS
10
1.44153
20
1.12124
11
1.44023
21
1.11969
0
LINE
8
BLACK
6
CONTINUOUS
10
1.44023
20
1.11969
11
1.43824
21
1.11934
0
LINE
8
BLACK
6
CONTINUOUS
10
1.43824
20
1.11934
11
1.43649
21
1.12035
0
LINE
8
BLACK
6
CONTINUOUS
10
1.43649
20
1.12035
11
1.4358
21
1.12225
0
LINE
8
BLACK
6
CONTINUOUS
10
1.4358
20
1.12225
11
1.4358
21
1.16162
0
LINE
8
BLACK
6
CONTINUOUS
10
1.4358
20
1.16162
11
1.43587
21
1.162
0
LINE
8
BLACK
6
CONTINUOUS
10
1.43587
20
1.162
11
1.43584
21
1.16213
0
LINE
8
BLACK
6
CONTINUOUS
10
1.43584
20
1.16213
11
1.43591
21
1.16225
0
LINE
8
BLACK
6
CONTINUOUS
10
1.43591
20
1.16225
11
1.43598
21
1.16263
0
LINE
8
BLACK
6
CONTINUOUS
10
1.43598
20
1.16263
11
1.43647
21
1.16322
0
LINE
8
BLACK
6
CONTINUOUS
10
1.43647
20
1.16322
11
1.43685
21
1.16388
0
LINE
8
BLACK
6
CONTINUOUS
10
1.43685
20
1.16388
11
1.4371
21
1.16397
0
LINE
8
BLACK
6
CONTINUOUS
10
1.4371
20
1.16397
11
1.43728
21
1.16418
0
LINE
8
BLACK
6
CONTINUOUS
10
1.43728
20
1.16418
11
1.43803
21
1.16431
0
LINE
8
BLACK
6
CONTINUOUS
10
1.43803
20
1.16431
11
1.43875
21
1.16457
0
LINE
8
BLACK
6
CONTINUOUS
10
1.43875
20
1.16457
11
1.45375
21
1.16457
0
LINE
8
BLACK
6
CONTINUOUS
10
1.45375
20
1.16457
11
1.45476
21
1.1644
0
LINE
8
BLACK
6
CONTINUOUS
10
1.4417
20
1.14395
11
1.45305
21
1.14395
0
LINE
8
BLACK
6
CONTINUOUS
10
1.45305
20
1.14395
11
1.45575
21
1.1453
0
LINE
8
BLACK
6
CONTINUOUS
10
1.45575
20
1.1453
11
1.45695
21
1.1465
0
LINE
8
BLACK
6
CONTINUOUS
10
1.45695
20
1.1465
11
1.4583
21
1.14919
0
LINE
8
BLACK
6
CONTINUOUS
10
1.4583
20
1.14919
11
1.4583
21
1.15343
0
LINE
8
BLACK
6
CONTINUOUS
10
1.4583
20
1.15343
11
1.45695
21
1.15612
0
LINE
8
BLACK
6
CONTINUOUS
10
1.45695
20
1.15612
11
1.45575
21
1.15732
0
LINE
8
BLACK
6
CONTINUOUS
10
1.45575
20
1.15732
11
1.45305
21
1.15867
0
LINE
8
BLACK
6
CONTINUOUS
10
1.45305
20
1.15867
11
1.4417
21
1.15867
0
LINE
8
BLACK
6
CONTINUOUS
10
1.4417
20
1.15867
11
1.4417
21
1.14395
0
LINE
8
BLACK
6
CONTINUOUS
10
1.57849
20
1.1644
11
1.58004
21
1.1631
0
LINE
8
BLACK
6
CONTINUOUS
10
1.58004
20
1.1631
11
1.58039
21
1.16111
0
LINE
8
BLACK
6
CONTINUOUS
10
1.58039
20
1.16111
11
1.57938
21
1.15936
0
LINE
8
BLACK
6
CONTINUOUS
10
1.57938
20
1.15936
11
1.57748
21
1.15867
0
LINE
8
BLACK
6
CONTINUOUS
10
1.57748
20
1.15867
11
1.56919
21
1.15867
0
LINE
8
BLACK
6
CONTINUOUS
10
1.56919
20
1.15867
11
1.56919
21
1.12225
0
LINE
8
BLACK
6
CONTINUOUS
10
1.56919
20
1.12225
11
1.56901
21
1.12124
0
LINE
8
BLACK
6
CONTINUOUS
10
1.56901
20
1.12124
11
1.56771
21
1.11969
0
LINE
8
BLACK
6
CONTINUOUS
10
1.56771
20
1.11969
11
1.56572
21
1.11934
0
LINE
8
BLACK
6
CONTINUOUS
10
1.56572
20
1.11934
11
1.56397
21
1.12035
0
LINE
8
BLACK
6
CONTINUOUS
10
1.56397
20
1.12035
11
1.56328
21
1.12225
0
LINE
8
BLACK
6
CONTINUOUS
10
1.56328
20
1.12225
11
1.56328
21
1.15867
0
LINE
8
BLACK
6
CONTINUOUS
10
1.56328
20
1.15867
11
1.55499
21
1.15867
0
LINE
8
BLACK
6
CONTINUOUS
10
1.55499
20
1.15867
11
1.55398
21
1.15885
0
LINE
8
BLACK
6
CONTINUOUS
10
1.55398
20
1.15885
11
1.55243
21
1.16014
0
LINE
8
BLACK
6
CONTINUOUS
10
1.55243
20
1.16014
11
1.55208
21
1.16213
0
LINE
8
BLACK
6
CONTINUOUS
10
1.55208
20
1.16213
11
1.55309
21
1.16388
0
LINE
8
BLACK
6
CONTINUOUS
10
1.55309
20
1.16388
11
1.55499
21
1.16457
0
LINE
8
BLACK
6
CONTINUOUS
10
1.55499
20
1.16457
11
1.57748
21
1.16457
0
LINE
8
BLACK
6
CONTINUOUS
10
1.57748
20
1.16457
11
1.57849
21
1.1644
0
LINE
8
BLACK
6
CONTINUOUS
10
0.214063
20
3.52481
11
0.227949
21
3.52245
0
LINE
8
BLACK
6
CONTINUOUS
10
0.227949
20
3.52245
11
0.241483
21
3.51855
0
LINE
8
BLACK
6
CONTINUOUS
10
0.241483
20
3.51855
11
0.254496
21
3.51316
0
LINE
8
BLACK
6
CONTINUOUS
10
0.254496
20
3.51316
11
0.266823
21
3.50635
0
LINE
8
BLACK
6
CONTINUOUS
10
0.266823
20
3.50635
11
0.27831
21
3.4982
0
LINE
8
BLACK
6
CONTINUOUS
10
0.27831
20
3.4982
11
0.288813
21
3.48881
0
LINE
8
BLACK
6
CONTINUOUS
10
0.288813
20
3.48881
11
0.298198
21
3.47831
0
LINE
8
BLACK
6
CONTINUOUS
10
0.298198
20
3.47831
11
0.306349
21
3.46682
0
LINE
8
BLACK
6
CONTINUOUS
10
0.306349
20
3.46682
11
0.313162
21
3.4545
0
LINE
8
BLACK
6
CONTINUOUS
10
0.313162
20
3.4545
11
0.318552
21
3.44148
0
LINE
8
BLACK
6
CONTINUOUS
10
0.318552
20
3.44148
11
0.322451
21
3.42795
0
LINE
8
BLACK
6
CONTINUOUS
10
0.322451
20
3.42795
11
0.32481
21
3.41406
0
LINE
8
BLACK
6
CONTINUOUS
10
0.32481
20
3.41406
11
0.3256
21
3.4
0
LINE
8
BLACK
6
CONTINUOUS
10
0.3256
20
3.4
11
0.32481
21
3.38594
0
LINE
8
BLACK
6
CONTINUOUS
10
0.32481
20
3.38594
11
0.322451
21
3.37205
0
LINE
8
BLACK
6
CONTINUOUS
10
0.322451
20
3.37205
11
0.318552
21
3.35852
0
LINE
8
BLACK
6
CONTINUOUS
10
0.318552
20
3.35852
11
0.313162
21
3.3455
0
LINE
8
BLACK
6
CONTINUOUS
10
0.313162
20
3.3455
11
0.306349
21
3.33318
0
LINE
8
BLACK
6
CONTINUOUS
10
0.306349
20
3.33318
11
0.298198
21
3.32169
0
LINE
8
BLACK
6
CONTINUOUS
10
0.298198
20
3.32169
11
0.288813
21
3.31119
0
LINE
8
BLACK
6
CONTINUOUS
10
0.288813
20
3.31119
11
0.27831
21
3.3018
0
LINE
8
BLACK
6
CONTINUOUS
10
0.27831
20
3.3018
11
0.266823
21
3.29365
0
LINE
8
BLACK
6
CONTINUOUS
10
0.266823
20
3.29365
11
0.254496
21
3.28684
0
LINE
8
BLACK
6
CONTINUOUS
10
0.254496
20
3.28684
11
0.241483
21
3.28145
0
LINE
8
BLACK
6
CONTINUOUS
10
0.241483
20
3.28145
11
0.227949
21
3.27755
0
LINE
8
BLACK
6
CONTINUOUS
10
0.227949
20
3.27755
11
0.214063
21
3.27519
0
LINE
8
BLACK
6
CONTINUOUS
10
0.214063
20
3.27519
11
0.2
21
3.2744
0
LINE
8
BLACK
6
CONTINUOUS
10
0.2
20
3.2744
11
0.185937
21
3.27519
0
LINE
8
BLACK
6
CONTINUOUS
10
0.185937
20
3.27519
11
0.172051
21
3.27755
0
LINE
8
BLACK
6
CONTINUOUS
10
0.172051
20
3.27755
11
0.158517
21
3.28145
0
LINE
8
BLACK
6
CONTINUOUS
10
0.158517
20
3.28145
11
0.145504
21
3.28684
0
LINE
8
BLACK
6
CONTINUOUS
10
0.145504
20
3.28684
11
0.133177
21
3.29365
0
LINE
8
BLACK
6
CONTINUOUS
10
0.133177
20
3.29365
11
0.12169
21
3.3018
0
LINE
8
BLACK
6
CONTINUOUS
10
0.12169
20
3.3018
11
0.111187
21
3.31119
0
LINE
8
BLACK
6
CONTINUOUS
10
0.111187
20
3.31119
11
0.101802
21
3.32169
0
LINE
8
BLACK
6
CONTINUOUS
10
0.101802
20
3.32169
11
0.0936515
21
3.33318
0
LINE
8
BLACK
6
CONTINUOUS
10
0.0936515
20
3.33318
11
0.0868383
21
3.3455
0
LINE
8
BLACK
6
CONTINUOUS
10
0.0868383
20
3.3455
11
0.0814483
21
3.35852
0
LINE
8
BLACK
6
CONTINUOUS
10
0.0814483
20
3.35852
11
0.0775491
21
3.37205
0
LINE
8
BLACK
6
CONTINUOUS
10
0.0775491
20
3.37205
11
0.0751898
21
3.38594
0
LINE
8
BLACK
6
CONTINUOUS
10
0.0751898
20
3.38594
11
0.0744
21
3.4
0
LINE
8
BLACK
6
CONTINUOUS
10
0.0744
20
3.4
11
0.0751898
21
3.41406
0
LINE
8
BLACK
6
CONTINUOUS
10
0.0751898
20
3.41406
11
0.0775491
21
3.42795
0
LINE
8
BLACK
6
CONTINUOUS
10
0.0775491
20
3.42795
11
0.0814483
21
3.44148
0
LINE
8
BLACK
6
CONTINUOUS
10
0.0814483
20
3.44148
11
0.0868383
21
3.4545
0
LINE
8
BLACK
6
CONTINUOUS
10
0.0868383
20
3.4545
11
0.0936515
21
3.46682
0
LINE
8
BLACK
6
CONTINUOUS
10
0.0936515
20
3.46682
11
0.101802
21
3.47831
0
LINE
8
BLACK
6
CONTINUOUS
10
0.101802
20
3.47831
11
0.111187
21
3.48881
0
LINE
8
BLACK
6
CONTINUOUS
10
0.111187
20
3.48881
11
0.12169
21
3.4982
0
LINE
8
BLACK
6
CONTINUOUS
10
0.12169
20
3.4982
11
0.133177
21
3.50635
0
LINE
8
BLACK
6
CONTINUOUS
10
0.133177
20
3.50635
11
0.145504
21
3.51316
0
LINE
8
BLACK
6
CONTINUOUS
10
0.145504
20
3.51316
11
0.158517
21
3.51855
0
LINE
8
BLACK
6
CONTINUOUS
10
0.158517
20
3.51855
11
0.172051
21
3.52245
0
LINE
8
BLACK
6
CONTINUOUS
10
0.172051
20
3.52245
11
0.185937
21
3.52481
0
LINE
8
BLACK
6
CONTINUOUS
10
0.185937
20
3.52481
11
0.2
21
3.5256
0
LINE
8
BLACK
6
CONTINUOUS
10
0.2
20
3.5256
11
0.214063
21
3.52481
0
LINE
8
BLACK
6
CONTINUOUS
10
0.0899617
20
3.38714
11
0.0921989
21
3.37445
0
LINE
8
BLACK
6
CONTINUOUS
10
0.0921989
20
3.37445
11
0.0958939
21
3.36211
0
LINE
8
BLACK
6
CONTINUOUS
10
0.0958939
20
3.36211
11
0.100997
21
3.35028
0
LINE
8
BLACK
6
CONTINUOUS
10
0.100997
20
3.35028
11
0.107438
21
3.33912
0
LINE
8
BLACK
6
CONTINUOUS
10
0.107438
20
3.33912
11
0.115132
21
3.32879
0
LINE
8
BLACK
6
CONTINUOUS
10
0.115132
20
3.32879
11
0.123973
21
3.31942
0
LINE
8
BLACK
6
CONTINUOUS
10
0.123973
20
3.31942
11
0.133842
21
3.31113
0
LINE
8
BLACK
6
CONTINUOUS
10
0.133842
20
3.31113
11
0.144606
21
3.30406
0
LINE
8
BLACK
6
CONTINUOUS
10
0.144606
20
3.30406
11
0.156119
21
3.29827
0
LINE
8
BLACK
6
CONTINUOUS
10
0.156119
20
3.29827
11
0.168226
21
3.29387
0
LINE
8
BLACK
6
CONTINUOUS
10
0.168226
20
3.29387
11
0.180762
21
3.2909
0
LINE
8
BLACK
6
CONTINUOUS
10
0.180762
20
3.2909
11
0.193558
21
3.2894
0
LINE
8
BLACK
6
CONTINUOUS
10
0.193558
20
3.2894
11
0.206442
21
3.2894
0
LINE
8
BLACK
6
CONTINUOUS
10
0.206442
20
3.2894
11
0.219238
21
3.2909
0
LINE
8
BLACK
6
CONTINUOUS
10
0.219238
20
3.2909
11
0.231774
21
3.29387
0
LINE
8
BLACK
6
CONTINUOUS
10
0.231774
20
3.29387
11
0.243881
21
3.29827
0
LINE
8
BLACK
6
CONTINUOUS
10
0.243881
20
3.29827
11
0.255394
21
3.30406
0
LINE
8
BLACK
6
CONTINUOUS
10
0.255394
20
3.30406
11
0.266158
21
3.31113
0
LINE
8
BLACK
6
CONTINUOUS
10
0.266158
20
3.31113
11
0.276027
21
3.31942
0
LINE
8
BLACK
6
CONTINUOUS
10
0.276027
20
3.31942
11
0.284868
21
3.32879
0
LINE
8
BLACK
6
CONTINUOUS
10
0.284868
20
3.32879
11
0.292562
21
3.33912
0
LINE
8
BLACK
6
CONTINUOUS
10
0.292562
20
3.33912
11
0.299003
21
3.35028
0
LINE
8
BLACK
6
CONTINUOUS
10
0.299003
20
3.35028
11
0.304106
21
3.36211
0
LINE
8
BLACK
6
CONTINUOUS
10
0.304106
20
3.36211
11
0.307801
21
3.37445
0
LINE
8
BLACK
6
CONTINUOUS
10
0.307801
20
3.37445
11
0.310038
21
3.38714
0
LINE
8
BLACK
6
CONTINUOUS
10
0.310038
20
3.38714
11
0.310787
21
3.4
0
LINE
8
BLACK
6
CONTINUOUS
10
0.310787
20
3.4
11
0.310038
21
3.41286
0
LINE
8
BLACK
6
CONTINUOUS
10
0.310038
20
3.41286
11
0.307801
21
3.42555
0
LINE
8
BLACK
6
CONTINUOUS
10
0.307801
20
3.42555
11
0.304106
21
3.43789
0
LINE
8
BLACK
6
CONTINUOUS
10
0.304106
20
3.43789
11
0.299003
21
3.44972
0
LINE
8
BLACK
6
CONTINUOUS
10
0.299003
20
3.44972
11
0.292562
21
3.46088
0
LINE
8
BLACK
6
CONTINUOUS
10
0.292562
20
3.46088
11
0.284868
21
3.47121
0
LINE
8
BLACK
6
CONTINUOUS
10
0.284868
20
3.47121
11
0.276027
21
3.48058
0
LINE
8
BLACK
6
CONTINUOUS
10
0.276027
20
3.48058
11
0.266158
21
3.48887
0
LINE
8
BLACK
6
CONTINUOUS
10
0.266158
20
3.48887
11
0.255394
21
3.49594
0
LINE
8
BLACK
6
CONTINUOUS
10
0.255394
20
3.49594
11
0.243881
21
3.50173
0
LINE
8
BLACK
6
CONTINUOUS
10
0.243881
20
3.50173
11
0.231774
21
3.50613
0
LINE
8
BLACK
6
CONTINUOUS
10
0.231774
20
3.50613
11
0.219238
21
3.5091
0
LINE
8
BLACK
6
CONTINUOUS
10
0.219238
20
3.5091
11
0.206442
21
3.5106
0
LINE
8
BLACK
6
CONTINUOUS
10
0.206442
20
3.5106
11
0.193558
21
3.5106
0
LINE
8
BLACK
6
CONTINUOUS
10
0.193558
20
3.5106
11
0.180762
21
3.5091
0
LINE
8
BLACK
6
CONTINUOUS
10
0.180762
20
3.5091
11
0.168226
21
3.50613
0
LINE
8
BLACK
6
CONTINUOUS
10
0.168226
20
3.50613
11
0.156119
21
3.50173
0
LINE
8
BLACK
6
CONTINUOUS
10
0.156119
20
3.50173
11
0.144606
21
3.49594
0
LINE
8
BLACK
6
CONTINUOUS
10
0.144606
20
3.49594
11
0.133842
21
3.48887
0
LINE
8
BLACK
6
CONTINUOUS
10
0.133842
20
3.48887
11
0.123973
21
3.48058
0
LINE
8
BLACK
6
CONTINUOUS
10
0.123973
20
3.48058
11
0.115132
21
3.47121
0
LINE
8
BLACK
6
CONTINUOUS
10
0.115132
20
3.47121
11
0.107438
21
3.46088
0
LINE
8
BLACK
6
CONTINUOUS
10
0.107438
20
3.46088
11
0.100997
21
3.44972
0
LINE
8
BLACK
6
CONTINUOUS
10
0.100997
20
3.44972
11
0.0958939
21
3.43789
0
LINE
8
BLACK
6
CONTINUOUS
10
0.0958939
20
3.43789
11
0.0921989
21
3.42555
0
LINE
8
BLACK
6
CONTINUOUS
10
0.0921989
20
3.42555
11
0.0899617
21
3.41286
0
LINE
8
BLACK
6
CONTINUOUS
10
0.0899617
20
3.41286
11
0.0892126
21
3.4
0
LINE
8
BLACK
6
CONTINUOUS
10
0.0892126
20
3.4
11
0.0899617
21
3.38714
0
LINE
8
BLACK
6
CONTINUOUS
10
3.01406
20
3.91221
11
3.02795
21
3.90985
0
LINE
8
BLACK
6
CONTINUOUS
10
3.02795
20
3.90985
11
3.04148
21
3.90595
0
LINE
8
BLACK
6
CONTINUOUS
10
3.04148
20
3.90595
11
3.0545
21
3.90056
0
LINE
8
BLACK
6
CONTINUOUS
10
3.0545
20
3.90056
11
3.06682
21
3.89375
0
LINE
8
BLACK
6
CONTINUOUS
10
3.06682
20
3.89375
11
3.07831
21
3.8856
0
LINE
8
BLACK
6
CONTINUOUS
10
3.07831
20
3.8856
11
3.08881
21
3.87621
0
LINE
8
BLACK
6
CONTINUOUS
10
3.08881
20
3.87621
11
3.0982
21
3.86571
0
LINE
8
BLACK
6
CONTINUOUS
10
3.0982
20
3.86571
11
3.10635
21
3.85422
0
LINE
8
BLACK
6
CONTINUOUS
10
3.10635
20
3.85422
11
3.11316
21
3.8419
0
LINE
8
BLACK
6
CONTINUOUS
10
3.11316
20
3.8419
11
3.11855
21
3.82888
0
LINE
8
BLACK
6
CONTINUOUS
10
3.11855
20
3.82888
11
3.12245
21
3.81535
0
LINE
8
BLACK
6
CONTINUOUS
10
3.12245
20
3.81535
11
3.12481
21
3.80146
0
LINE
8
BLACK
6
CONTINUOUS
10
3.12481
20
3.80146
11
3.1256
21
3.7874
0
LINE
8
BLACK
6
CONTINUOUS
10
3.1256
20
3.7874
11
3.12481
21
3.77334
0
LINE
8
BLACK
6
CONTINUOUS
10
3.12481
20
3.77334
11
3.12245
21
3.75945
0
LINE
8
BLACK
6
CONTINUOUS
10
3.12245
20
3.75945
11
3.11855
21
3.74592
0
LINE
8
BLACK
6
CONTINUOUS
10
3.11855
20
3.74592
11
3.11316
21
3.73291
0
LINE
8
BLACK
6
CONTINUOUS
10
3.11316
20
3.73291
11
3.10635
21
3.72058
0
LINE
8
BLACK
6
CONTINUOUS
10
3.10635
20
3.72058
11
3.0982
21
3.70909
0
LINE
8
BLACK
6
CONTINUOUS
10
3.0982
20
3.70909
11
3.08881
21
3.69859
0
LINE
8
BLACK
6
CONTINUOUS
10
3.08881
20
3.69859
11
3.07831
21
3.6892
0
LINE
8
BLACK
6
CONTINUOUS
10
3.07831
20
3.6892
11
3.06682
21
3.68105
0
LINE
8
BLACK
6
CONTINUOUS
10
3.06682
20
3.68105
11
3.0545
21
3.67424
0
LINE
8
BLACK
6
CONTINUOUS
10
3.0545
20
3.67424
11
3.04148
21
3.66885
0
LINE
8
BLACK
6
CONTINUOUS
10
3.04148
20
3.66885
11
3.02795
21
3.66495
0
LINE
8
BLACK
6
CONTINUOUS
10
3.02795
20
3.66495
11
3.01406
21
3.66259
0
LINE
8
BLACK
6
CONTINUOUS
10
3.01406
20
3.66259
11
3
21
3.6618
0
LINE
8
BLACK
6
CONTINUOUS
10
3
20
3.6618
11
2.98594
21
3.66259
0
LINE
8
BLACK
6
CONTINUOUS
10
2.98594
20
3.66259
11
2.97205
21
3.66495
0
LINE
8
BLACK
6
CONTINUOUS
10
2.97205
20
3.66495
11
2.95852
21
3.66885
0
LINE
8
BLACK
6
CONTINUOUS
10
2.95852
20
3.66885
11
2.9455
21
3.67424
0
LINE
8
BLACK
6
CONTINUOUS
10
2.9455
20
3.67424
11
2.93318
21
3.68105
0
LINE
8
BLACK
6
CONTINUOUS
10
2.93318
20
3.68105
11
2.92169
21
3.6892
0
LINE
8
BLACK
6
CONTINUOUS
10
2.92169
20
3.6892
11
2.91119
21
3.69859
0
LINE
8
BLACK
6
CONTINUOUS
10
2.91119
20
3.69859
11
2.9018
21
3.70909
0
LINE
8
BLACK
6
CONTINUOUS
10
2.9018
20
3.70909
11
2.89365
21
3.72058
0
LINE
8
BLACK
6
CONTINUOUS
10
2.89365
20
3.72058
11
2.88684
21
3.73291
0
LINE
8
BLACK
6
CONTINUOUS
10
2.88684
20
3.73291
11
2.88145
21
3.74592
0
LINE
8
BLACK
6
CONTINUOUS
10
2.88145
20
3.74592
11
2.87755
21
3.75945
0
LINE
8
BLACK
6
CONTINUOUS
10
2.87755
20
3.75945
11
2.87519
21
3.77334
0
LINE
8
BLACK
6
CONTINUOUS
10
2.87519
20
3.77334
11
2.8744
21
3.7874
0
LINE
8
BLACK
6
CONTINUOUS
10
2.8744
20
3.7874
11
2.87519
21
3.80146
0
LINE
8
BLACK
6
CONTINUOUS
10
2.87519
20
3.80146
11
2.87755
21
3.81535
0
LINE
8
BLACK
6
CONTINUOUS
10
2.87755
20
3.81535
11
2.88145
21
3.82888
0
LINE
8
BLACK
6
CONTINUOUS
10
2.88145
20
3.82888
11
2.88684
21
3.8419
0
LINE
8
BLACK
6
CONTINUOUS
10
2.88684
20
3.8419
11
2.89365
21
3.85422
0
LINE
8
BLACK
6
CONTINUOUS
10
2.89365
20
3.85422
11
2.9018
21
3.86571
0
LINE
8
BLACK
6
CONTINUOUS
10
2.9018
20
3.86571
11
2.91119
21
3.87621
0
LINE
8
BLACK
6
CONTINUOUS
10
2.91119
20
3.87621
11
2.92169
21
3.8856
0
LINE
8
BLACK
6
CONTINUOUS
10
2.92169
20
3.8856
11
2.93318
21
3.89375
0
LINE
8
BLACK
6
CONTINUOUS
10
2.93318
20
3.89375
11
2.9455
21
3.90056
0
LINE
8
BLACK
6
CONTINUOUS
10
2.9455
20
3.90056
11
2.95852
21
3.90595
0
LINE
8
BLACK
6
CONTINUOUS
10
2.95852
20
3.90595
11
2.97205
21
3.90985
0
LINE
8
BLACK
6
CONTINUOUS
10
2.97205
20
3.90985
11
2.98594
21
3.91221
0
LINE
8
BLACK
6
CONTINUOUS
10
2.98594
20
3.91221
11
3
21
3.913
0
LINE
8
BLACK
6
CONTINUOUS
10
3
20
3.913
11
3.01406
21
3.91221
0
LINE
8
BLACK
6
CONTINUOUS
10
2.88996
20
3.77454
11
2.8922
21
3.76185
0
LINE
8
BLACK
6
CONTINUOUS
10
2.8922
20
3.76185
11
2.89589
21
3.74951
0
LINE
8
BLACK
6
CONTINUOUS
10
2.89589
20
3.74951
11
2.901
21
3.73768
0
LINE
8
BLACK
6
CONTINUOUS
10
2.901
20
3.73768
11
2.90744
21
3.72652
0
LINE
8
BLACK
6
CONTINUOUS
10
2.90744
20
3.72652
11
2.91513
21
3.71619
0
LINE
8
BLACK
6
CONTINUOUS
10
2.91513
20
3.71619
11
2.92397
21
3.70682
0
LINE
8
BLACK
6
CONTINUOUS
10
2.92397
20
3.70682
11
2.93384
21
3.69854
0
LINE
8
BLACK
6
CONTINUOUS
10
2.93384
20
3.69854
11
2.94461
21
3.69146
0
LINE
8
BLACK
6
CONTINUOUS
10
2.94461
20
3.69146
11
2.95612
21
3.68567
0
LINE
8
BLACK
6
CONTINUOUS
10
2.95612
20
3.68567
11
2.96823
21
3.68127
0
LINE
8
BLACK
6
CONTINUOUS
10
2.96823
20
3.68127
11
2.98076
21
3.6783
0
LINE
8
BLACK
6
CONTINUOUS
10
2.98076
20
3.6783
11
2.99356
21
3.6768
0
LINE
8
BLACK
6
CONTINUOUS
10
2.99356
20
3.6768
11
3.00644
21
3.6768
0
LINE
8
BLACK
6
CONTINUOUS
10
3.00644
20
3.6768
11
3.01924
21
3.6783
0
LINE
8
BLACK
6
CONTINUOUS
10
3.01924
20
3.6783
11
3.03177
21
3.68127
0
LINE
8
BLACK
6
CONTINUOUS
10
3.03177
20
3.68127
11
3.04388
21
3.68567
0
LINE
8
BLACK
6
CONTINUOUS
10
3.04388
20
3.68567
11
3.05539
21
3.69146
0
LINE
8
BLACK
6
CONTINUOUS
10
3.05539
20
3.69146
11
3.06616
21
3.69854
0
LINE
8
BLACK
6
CONTINUOUS
10
3.06616
20
3.69854
11
3.07603
21
3.70682
0
LINE
8
BLACK
6
CONTINUOUS
10
3.07603
20
3.70682
11
3.08487
21
3.71619
0
LINE
8
BLACK
6
CONTINUOUS
10
3.08487
20
3.71619
11
3.09256
21
3.72652
0
LINE
8
BLACK
6
CONTINUOUS
10
3.09256
20
3.72652
11
3.099
21
3.73768
0
LINE
8
BLACK
6
CONTINUOUS
10
3.099
20
3.73768
11
3.10411
21
3.74951
0
LINE
8
BLACK
6
CONTINUOUS
10
3.10411
20
3.74951
11
3.1078
21
3.76185
0
LINE
8
BLACK
6
CONTINUOUS
10
3.1078
20
3.76185
11
3.11004
21
3.77454
0
LINE
8
BLACK
6
CONTINUOUS
10
3.11004
20
3.77454
11
3.11079
21
3.7874
0
LINE
8
BLACK
6
CONTINUOUS
10
3.11079
20
3.7874
11
3.11004
21
3.80026
0
LINE
8
BLACK
6
CONTINUOUS
10
3.11004
20
3.80026
11
3.1078
21
3.81295
0
LINE
8
BLACK
6
CONTINUOUS
10
3.1078
20
3.81295
11
3.10411
21
3.82529
0
LINE
8
BLACK
6
CONTINUOUS
10
3.10411
20
3.82529
11
3.099
21
3.83712
0
LINE
8
BLACK
6
CONTINUOUS
10
3.099
20
3.83712
11
3.09256
21
3.84828
0
LINE
8
BLACK
6
CONTINUOUS
10
3.09256
20
3.84828
11
3.08487
21
3.85861
0
LINE
8
BLACK
6
CONTINUOUS
10
3.08487
20
3.85861
11
3.07603
21
3.86799
0
LINE
8
BLACK
6
CONTINUOUS
10
3.07603
20
3.86799
11
3.06616
21
3.87627
0
LINE
8
BLACK
6
CONTINUOUS
10
3.06616
20
3.87627
11
3.05539
21
3.88335
0
LINE
8
BLACK
6
CONTINUOUS
10
3.05539
20
3.88335
11
3.04388
21
3.88913
0
LINE
8
BLACK
6
CONTINUOUS
10
3.04388
20
3.88913
11
3.03177
21
3.89353
0
LINE
8
BLACK
6
CONTINUOUS
10
3.03177
20
3.89353
11
3.01924
21
3.89651
0
LINE
8
BLACK
6
CONTINUOUS
10
3.01924
20
3.89651
11
3.00644
21
3.898
0
LINE
8
BLACK
6
CONTINUOUS
10
3.00644
20
3.898
11
2.99356
21
3.898
0
LINE
8
BLACK
6
CONTINUOUS
10
2.99356
20
3.898
11
2.98076
21
3.89651
0
LINE
8
BLACK
6
CONTINUOUS
10
2.98076
20
3.89651
11
2.96823
21
3.89353
0
LINE
8
BLACK
6
CONTINUOUS
10
2.96823
20
3.89353
11
2.95612
21
3.88913
0
LINE
8
BLACK
6
CONTINUOUS
10
2.95612
20
3.88913
11
2.94461
21
3.88335
0
LINE
8
BLACK
6
CONTINUOUS
10
2.94461
20
3.88335
11
2.93384
21
3.87627
0
LINE
8
BLACK
6
CONTINUOUS
10
2.93384
20
3.87627
11
2.92397
21
3.86799
0
LINE
8
BLACK
6
CONTINUOUS
10
2.92397
20
3.86799
11
2.91513
21
3.85861
0
LINE
8
BLACK
6
CONTINUOUS
10
2.91513
20
3.85861
11
2.90744
21
3.84828
0
LINE
8
BLACK
6
CONTINUOUS
10
2.90744
20
3.84828
11
2.901
21
3.83712
0
LINE
8
BLACK
6
CONTINUOUS
10
2.901
20
3.83712
11
2.89589
21
3.82529
0
LINE
8
BLACK
6
CONTINUOUS
10
2.89589
20
3.82529
11
2.8922
21
3.81295
0
LINE
8
BLACK
6
CONTINUOUS
10
2.8922
20
3.81295
11
2.88996
21
3.80026
0
LINE
8
BLACK
6
CONTINUOUS
10
2.88996
20
3.80026
11
2.88921
21
3.7874
0
LINE
8
BLACK
6
CONTINUOUS
10
2.88921
20
3.7874
11
2.88996
21
3.77454
  0
ENDSEC
  0
EOF
