  0
SECTION
  2
HEADER
  9
$ANGBASE
  50
0.0
  9
$ANGDIR
  70
1
  9
$MEASUREMENT
  70
0
  0
ENDSEC
  0
SECTION
  2
TABLES
  0
TABLE
  2
LTYPE
  70
4
  0
LTYPE
  5
40F
  2
CONTINUOUS
  70
0
  3
Solid line
  72
65
  73
0
  40
0.0
  0
LTYPE
  5
410
  2
DASHDOT
 70
0
  3
Dash Dot ____ _ ____ _
 72
65
 73
4
 40
2.0
 49
1.25
 49
-0.25
 49
0.25
 49
-0.25
  0
LTYPE
  5
411
  2
DASHED
 70
0
  3
Dashed __ __ __ __ __
 72
65
 73
2
 40
0.75
 49
0.5
 49
-0.25
  0
LTYPE
  5
43B
  2
DOTTED
 70
0
  3
Dotted .  .  .  .
 72
65
 73
2
 40
0.2
 49
0.0
 49
-0.2
  0
ENDTAB
  0
TABLE
  2
STYLE
  70
4
  0
STYLE
  2
KICAD
  70
0
  40
0
  41
1
  42
1
  50
0
  71
0
  3
isocp.shx
  0
STYLE
  2
KICADB
  70
0
  40
0
  41
1
  42
1
  50
0
  71
0
  3
isocp.shx
  0
STYLE
  2
KICADI
  70
0
  40
0
  41
1
  42
1
  50
15
  71
0
  3
isocp.shx
  0
STYLE
  2
KICADBI
  70
0
  40
0
  41
1
  42
1
  50
15
  71
0
  3
isocp.shx
  0
ENDTAB
  0
TABLE
  2
LAYER
  70
1
  0
LAYER
  2
BLACK
  70
0
  62
7
  6
CONTINUOUS
  0
ENDTAB
  0
ENDSEC
  0
SECTION
  2
ENTITIES
0
LINE
8
BLACK
6
CONTINUOUS
10
0.942126
20
0.0490157
11
0.883071
21
0.0490157
0
LINE
8
BLACK
6
CONTINUOUS
10
0.883071
20
0.0490157
11
0.883071
21
0.159252
0
LINE
8
BLACK
6
CONTINUOUS
10
0.883071
20
0.159252
11
0.942126
21
0.159252
0
LINE
8
BLACK
6
CONTINUOUS
10
0.942126
20
0.159252
11
0.942126
21
0.0490157
0
LINE
8
BLACK
6
CONTINUOUS
10
2.01693
20
0.0490157
11
1.95787
21
0.0490157
0
LINE
8
BLACK
6
CONTINUOUS
10
1.95787
20
0.0490157
11
1.95787
21
0.159252
0
LINE
8
BLACK
6
CONTINUOUS
10
1.95787
20
0.159252
11
2.01693
21
0.159252
0
LINE
8
BLACK
6
CONTINUOUS
10
2.01693
20
0.159252
11
2.01693
21
0.0490157
0
LINE
8
BLACK
6
CONTINUOUS
10
0.6525
20
0.37
11
0.5975
21
0.37
0
LINE
8
BLACK
6
CONTINUOUS
10
0.5975
20
0.37
11
0.5975
21
0.405
0
LINE
8
BLACK
6
CONTINUOUS
10
0.5975
20
0.405
11
0.6525
21
0.405
0
LINE
8
BLACK
6
CONTINUOUS
10
0.6525
20
0.405
11
0.6525
21
0.37
0
LINE
8
BLACK
6
CONTINUOUS
10
0.6525
20
0.445
11
0.5975
21
0.445
0
LINE
8
BLACK
6
CONTINUOUS
10
0.5975
20
0.445
11
0.5975
21
0.48
0
LINE
8
BLACK
6
CONTINUOUS
10
0.5975
20
0.48
11
0.6525
21
0.48
0
LINE
8
BLACK
6
CONTINUOUS
10
0.6525
20
0.48
11
0.6525
21
0.445
0
LINE
8
BLACK
6
CONTINUOUS
10
0.942126
20
0.499016
11
0.883071
21
0.499016
0
LINE
8
BLACK
6
CONTINUOUS
10
0.883071
20
0.499016
11
0.883071
21
0.609252
0
LINE
8
BLACK
6
CONTINUOUS
10
0.883071
20
0.609252
11
0.942126
21
0.609252
0
LINE
8
BLACK
6
CONTINUOUS
10
0.942126
20
0.609252
11
0.942126
21
0.499016
0
LINE
8
BLACK
6
CONTINUOUS
10
2.01693
20
0.499016
11
1.95787
21
0.499016
0
LINE
8
BLACK
6
CONTINUOUS
10
1.95787
20
0.499016
11
1.95787
21
0.609252
0
LINE
8
BLACK
6
CONTINUOUS
10
1.95787
20
0.609252
11
2.01693
21
0.609252
0
LINE
8
BLACK
6
CONTINUOUS
10
2.01693
20
0.609252
11
2.01693
21
0.499016
0
LINE
8
BLACK
6
CONTINUOUS
10
2.61063
20
0.583071
11
2.53583
21
0.583071
0
LINE
8
BLACK
6
CONTINUOUS
10
2.53583
20
0.583071
11
2.53583
21
0.716929
0
LINE
8
BLACK
6
CONTINUOUS
10
2.53583
20
0.716929
11
2.61063
21
0.716929
0
LINE
8
BLACK
6
CONTINUOUS
10
2.61063
20
0.716929
11
2.61063
21
0.583071
0
LINE
8
BLACK
6
CONTINUOUS
10
2.76417
20
0.583071
11
2.68937
21
0.583071
0
LINE
8
BLACK
6
CONTINUOUS
10
2.68937
20
0.583071
11
2.68937
21
0.716929
0
LINE
8
BLACK
6
CONTINUOUS
10
2.68937
20
0.716929
11
2.76417
21
0.716929
0
LINE
8
BLACK
6
CONTINUOUS
10
2.76417
20
0.716929
11
2.76417
21
0.583071
0
LINE
8
BLACK
6
CONTINUOUS
10
2.46045
20
0.5971
11
2.38955
21
0.5971
0
LINE
8
BLACK
6
CONTINUOUS
10
2.38955
20
0.5971
11
2.38955
21
0.6955
0
LINE
8
BLACK
6
CONTINUOUS
10
2.38955
20
0.6955
11
2.46045
21
0.6955
0
LINE
8
BLACK
6
CONTINUOUS
10
2.46045
20
0.6955
11
2.46045
21
0.5971
0
LINE
8
BLACK
6
CONTINUOUS
10
2.27953
20
0.64626
11
2.22047
21
0.64626
0
LINE
8
BLACK
6
CONTINUOUS
10
2.22047
20
0.64626
11
2.22047
21
0.697441
0
LINE
8
BLACK
6
CONTINUOUS
10
2.22047
20
0.697441
11
2.27953
21
0.697441
0
LINE
8
BLACK
6
CONTINUOUS
10
2.27953
20
0.697441
11
2.27953
21
0.64626
0
LINE
8
BLACK
6
CONTINUOUS
10
2.1492
20
0.6504
11
2.0508
21
0.6504
0
LINE
8
BLACK
6
CONTINUOUS
10
2.0508
20
0.6504
11
2.0508
21
0.7508
0
LINE
8
BLACK
6
CONTINUOUS
10
2.0508
20
0.7508
11
2.1492
21
0.7508
0
LINE
8
BLACK
6
CONTINUOUS
10
2.1492
20
0.7508
11
2.1492
21
0.6504
0
LINE
8
BLACK
6
CONTINUOUS
10
2.30906
20
0.71122
11
2.19094
21
0.71122
0
LINE
8
BLACK
6
CONTINUOUS
10
2.19094
20
0.71122
11
2.19094
21
0.73878
0
LINE
8
BLACK
6
CONTINUOUS
10
2.19094
20
0.73878
11
2.30906
21
0.73878
0
LINE
8
BLACK
6
CONTINUOUS
10
2.30906
20
0.73878
11
2.30906
21
0.71122
0
LINE
8
BLACK
6
CONTINUOUS
10
2.27953
20
0.752559
11
2.22047
21
0.752559
0
LINE
8
BLACK
6
CONTINUOUS
10
2.22047
20
0.752559
11
2.22047
21
0.80374
0
LINE
8
BLACK
6
CONTINUOUS
10
2.22047
20
0.80374
11
2.27953
21
0.80374
0
LINE
8
BLACK
6
CONTINUOUS
10
2.27953
20
0.80374
11
2.27953
21
0.752559
0
LINE
8
BLACK
6
CONTINUOUS
10
2.46045
20
0.7545
11
2.38955
21
0.7545
0
LINE
8
BLACK
6
CONTINUOUS
10
2.38955
20
0.7545
11
2.38955
21
0.8529
0
LINE
8
BLACK
6
CONTINUOUS
10
2.38955
20
0.8529
11
2.46045
21
0.8529
0
LINE
8
BLACK
6
CONTINUOUS
10
2.46045
20
0.8529
11
2.46045
21
0.7545
0
LINE
8
BLACK
6
CONTINUOUS
10
2.1492
20
0.8492
11
2.0508
21
0.8492
0
LINE
8
BLACK
6
CONTINUOUS
10
2.0508
20
0.8492
11
2.0508
21
0.9496
0
LINE
8
BLACK
6
CONTINUOUS
10
2.0508
20
0.9496
11
2.1492
21
0.9496
0
LINE
8
BLACK
6
CONTINUOUS
10
2.1492
20
0.9496
11
2.1492
21
0.8492
0
LINE
8
BLACK
6
CONTINUOUS
10
2.33
20
0.8725
11
2.295
21
0.8725
0
LINE
8
BLACK
6
CONTINUOUS
10
2.295
20
0.8725
11
2.295
21
0.9275
0
LINE
8
BLACK
6
CONTINUOUS
10
2.295
20
0.9275
11
2.33
21
0.9275
0
LINE
8
BLACK
6
CONTINUOUS
10
2.33
20
0.9275
11
2.33
21
0.8725
0
LINE
8
BLACK
6
CONTINUOUS
10
2.405
20
0.8725
11
2.37
21
0.8725
0
LINE
8
BLACK
6
CONTINUOUS
10
2.37
20
0.8725
11
2.37
21
0.9275
0
LINE
8
BLACK
6
CONTINUOUS
10
2.37
20
0.9275
11
2.405
21
0.9275
0
LINE
8
BLACK
6
CONTINUOUS
10
2.405
20
0.9275
11
2.405
21
0.8725
0
LINE
8
BLACK
6
CONTINUOUS
10
1.02874
20
0.895472
11
0.969685
21
0.895472
0
LINE
8
BLACK
6
CONTINUOUS
10
0.969685
20
0.895472
11
0.969685
21
1.00571
0
LINE
8
BLACK
6
CONTINUOUS
10
0.969685
20
1.00571
11
1.02874
21
1.00571
0
LINE
8
BLACK
6
CONTINUOUS
10
1.02874
20
1.00571
11
1.02874
21
0.895472
0
LINE
8
BLACK
6
CONTINUOUS
10
2.01693
20
0.895472
11
1.95787
21
0.895472
0
LINE
8
BLACK
6
CONTINUOUS
10
1.95787
20
0.895472
11
1.95787
21
1.00571
0
LINE
8
BLACK
6
CONTINUOUS
10
1.95787
20
1.00571
11
2.01693
21
1.00571
0
LINE
8
BLACK
6
CONTINUOUS
10
2.01693
20
1.00571
11
2.01693
21
0.895472
0
LINE
8
BLACK
6
CONTINUOUS
10
1.10059
20
0.991929
11
1.06122
21
0.991929
0
LINE
8
BLACK
6
CONTINUOUS
10
1.06122
20
0.991929
11
1.06122
21
1.05098
0
LINE
8
BLACK
6
CONTINUOUS
10
1.06122
20
1.05098
11
1.10059
21
1.05098
0
LINE
8
BLACK
6
CONTINUOUS
10
1.10059
20
1.05098
11
1.10059
21
0.991929
0
LINE
8
BLACK
6
CONTINUOUS
10
1.19902
20
0.991929
11
1.15965
21
0.991929
0
LINE
8
BLACK
6
CONTINUOUS
10
1.15965
20
0.991929
11
1.15965
21
1.05098
0
LINE
8
BLACK
6
CONTINUOUS
10
1.15965
20
1.05098
11
1.19902
21
1.05098
0
LINE
8
BLACK
6
CONTINUOUS
10
1.19902
20
1.05098
11
1.19902
21
0.991929
0
LINE
8
BLACK
6
CONTINUOUS
10
1.29744
20
0.991929
11
1.25807
21
0.991929
0
LINE
8
BLACK
6
CONTINUOUS
10
1.25807
20
0.991929
11
1.25807
21
1.05098
0
LINE
8
BLACK
6
CONTINUOUS
10
1.25807
20
1.05098
11
1.29744
21
1.05098
0
LINE
8
BLACK
6
CONTINUOUS
10
1.29744
20
1.05098
11
1.29744
21
0.991929
0
LINE
8
BLACK
6
CONTINUOUS
10
1.39587
20
0.991929
11
1.3565
21
0.991929
0
LINE
8
BLACK
6
CONTINUOUS
10
1.3565
20
0.991929
11
1.3565
21
1.05098
0
LINE
8
BLACK
6
CONTINUOUS
10
1.3565
20
1.05098
11
1.39587
21
1.05098
0
LINE
8
BLACK
6
CONTINUOUS
10
1.39587
20
1.05098
11
1.39587
21
0.991929
0
LINE
8
BLACK
6
CONTINUOUS
10
1.49429
20
0.991929
11
1.45492
21
0.991929
0
LINE
8
BLACK
6
CONTINUOUS
10
1.45492
20
0.991929
11
1.45492
21
1.05098
0
LINE
8
BLACK
6
CONTINUOUS
10
1.45492
20
1.05098
11
1.49429
21
1.05098
0
LINE
8
BLACK
6
CONTINUOUS
10
1.49429
20
1.05098
11
1.49429
21
0.991929
0
LINE
8
BLACK
6
CONTINUOUS
10
1.59272
20
0.991929
11
1.55335
21
0.991929
0
LINE
8
BLACK
6
CONTINUOUS
10
1.55335
20
0.991929
11
1.55335
21
1.05098
0
LINE
8
BLACK
6
CONTINUOUS
10
1.55335
20
1.05098
11
1.59272
21
1.05098
0
LINE
8
BLACK
6
CONTINUOUS
10
1.59272
20
1.05098
11
1.59272
21
0.991929
0
LINE
8
BLACK
6
CONTINUOUS
10
1.69114
20
0.991929
11
1.65177
21
0.991929
0
LINE
8
BLACK
6
CONTINUOUS
10
1.65177
20
0.991929
11
1.65177
21
1.05098
0
LINE
8
BLACK
6
CONTINUOUS
10
1.65177
20
1.05098
11
1.69114
21
1.05098
0
LINE
8
BLACK
6
CONTINUOUS
10
1.69114
20
1.05098
11
1.69114
21
0.991929
0
LINE
8
BLACK
6
CONTINUOUS
10
1.78681
20
0.991929
11
1.74744
21
0.991929
0
LINE
8
BLACK
6
CONTINUOUS
10
1.74744
20
0.991929
11
1.74744
21
1.05098
0
LINE
8
BLACK
6
CONTINUOUS
10
1.74744
20
1.05098
11
1.78681
21
1.05098
0
LINE
8
BLACK
6
CONTINUOUS
10
1.78681
20
1.05098
11
1.78681
21
0.991929
0
LINE
8
BLACK
6
CONTINUOUS
10
1.85374
20
0.991929
11
1.81437
21
0.991929
0
LINE
8
BLACK
6
CONTINUOUS
10
1.81437
20
0.991929
11
1.81437
21
1.05098
0
LINE
8
BLACK
6
CONTINUOUS
10
1.81437
20
1.05098
11
1.85374
21
1.05098
0
LINE
8
BLACK
6
CONTINUOUS
10
1.85374
20
1.05098
11
1.85374
21
0.991929
0
LINE
8
BLACK
6
CONTINUOUS
10
1.89902
20
0.991929
11
1.87146
21
0.991929
0
LINE
8
BLACK
6
CONTINUOUS
10
1.87146
20
0.991929
11
1.87146
21
1.05098
0
LINE
8
BLACK
6
CONTINUOUS
10
1.87146
20
1.05098
11
1.89902
21
1.05098
0
LINE
8
BLACK
6
CONTINUOUS
10
1.89902
20
1.05098
11
1.89902
21
0.991929
0
LINE
8
BLACK
6
CONTINUOUS
10
1.94626
20
0.991929
11
1.9187
21
0.991929
0
LINE
8
BLACK
6
CONTINUOUS
10
1.9187
20
0.991929
11
1.9187
21
1.05098
0
LINE
8
BLACK
6
CONTINUOUS
10
1.9187
20
1.05098
11
1.94626
21
1.05098
0
LINE
8
BLACK
6
CONTINUOUS
10
1.94626
20
1.05098
11
1.94626
21
0.991929
0
LINE
8
BLACK
6
CONTINUOUS
10
2.79193
20
1.01083
11
2.65807
21
1.01083
0
LINE
8
BLACK
6
CONTINUOUS
10
2.65807
20
1.01083
11
2.65807
21
1.08563
0
LINE
8
BLACK
6
CONTINUOUS
10
2.65807
20
1.08563
11
2.79193
21
1.08563
0
LINE
8
BLACK
6
CONTINUOUS
10
2.79193
20
1.08563
11
2.79193
21
1.01083
0
LINE
8
BLACK
6
CONTINUOUS
10
2.79193
20
1.16437
11
2.65807
21
1.16437
0
LINE
8
BLACK
6
CONTINUOUS
10
2.65807
20
1.16437
11
2.65807
21
1.23917
0
LINE
8
BLACK
6
CONTINUOUS
10
2.65807
20
1.23917
11
2.79193
21
1.23917
0
LINE
8
BLACK
6
CONTINUOUS
10
2.79193
20
1.23917
11
2.79193
21
1.16437
0
LINE
8
BLACK
6
CONTINUOUS
10
2.54744
20
1.34055
11
2.52776
21
1.34055
0
LINE
8
BLACK
6
CONTINUOUS
10
2.52776
20
1.34055
11
2.52776
21
1.35039
0
LINE
8
BLACK
6
CONTINUOUS
10
2.52776
20
1.35039
11
2.54744
21
1.35039
0
LINE
8
BLACK
6
CONTINUOUS
10
2.54744
20
1.35039
11
2.54744
21
1.34055
0
LINE
8
BLACK
6
CONTINUOUS
10
2.62224
20
1.34055
11
2.60256
21
1.34055
0
LINE
8
BLACK
6
CONTINUOUS
10
2.60256
20
1.34055
11
2.60256
21
1.35039
0
LINE
8
BLACK
6
CONTINUOUS
10
2.60256
20
1.35039
11
2.62224
21
1.35039
0
LINE
8
BLACK
6
CONTINUOUS
10
2.62224
20
1.35039
11
2.62224
21
1.34055
0
LINE
8
BLACK
6
CONTINUOUS
10
1.02874
20
1.34547
11
0.969685
21
1.34547
0
LINE
8
BLACK
6
CONTINUOUS
10
0.969685
20
1.34547
11
0.969685
21
1.45571
0
LINE
8
BLACK
6
CONTINUOUS
10
0.969685
20
1.45571
11
1.02874
21
1.45571
0
LINE
8
BLACK
6
CONTINUOUS
10
1.02874
20
1.45571
11
1.02874
21
1.34547
0
LINE
8
BLACK
6
CONTINUOUS
10
2.01693
20
1.34547
11
1.95787
21
1.34547
0
LINE
8
BLACK
6
CONTINUOUS
10
1.95787
20
1.34547
11
1.95787
21
1.45571
0
LINE
8
BLACK
6
CONTINUOUS
10
1.95787
20
1.45571
11
2.01693
21
1.45571
0
LINE
8
BLACK
6
CONTINUOUS
10
2.01693
20
1.45571
11
2.01693
21
1.34547
0
LINE
8
BLACK
6
CONTINUOUS
10
2.58976
20
1.34646
11
2.56024
21
1.34646
0
LINE
8
BLACK
6
CONTINUOUS
10
2.56024
20
1.34646
11
2.56024
21
1.37205
0
LINE
8
BLACK
6
CONTINUOUS
10
2.56024
20
1.37205
11
2.58976
21
1.37205
0
LINE
8
BLACK
6
CONTINUOUS
10
2.58976
20
1.37205
11
2.58976
21
1.34646
0
LINE
8
BLACK
6
CONTINUOUS
10
2.54744
20
1.36024
11
2.52776
21
1.36024
0
LINE
8
BLACK
6
CONTINUOUS
10
2.52776
20
1.36024
11
2.52776
21
1.37008
0
LINE
8
BLACK
6
CONTINUOUS
10
2.52776
20
1.37008
11
2.54744
21
1.37008
0
LINE
8
BLACK
6
CONTINUOUS
10
2.54744
20
1.37008
11
2.54744
21
1.36024
0
LINE
8
BLACK
6
CONTINUOUS
10
2.62224
20
1.36024
11
2.60256
21
1.36024
0
LINE
8
BLACK
6
CONTINUOUS
10
2.60256
20
1.36024
11
2.60256
21
1.37008
0
LINE
8
BLACK
6
CONTINUOUS
10
2.60256
20
1.37008
11
2.62224
21
1.37008
0
LINE
8
BLACK
6
CONTINUOUS
10
2.62224
20
1.37008
11
2.62224
21
1.36024
0
LINE
8
BLACK
6
CONTINUOUS
10
2.58976
20
1.37795
11
2.56024
21
1.37795
0
LINE
8
BLACK
6
CONTINUOUS
10
2.56024
20
1.37795
11
2.56024
21
1.40354
0
LINE
8
BLACK
6
CONTINUOUS
10
2.56024
20
1.40354
11
2.58976
21
1.40354
0
LINE
8
BLACK
6
CONTINUOUS
10
2.58976
20
1.40354
11
2.58976
21
1.37795
0
LINE
8
BLACK
6
CONTINUOUS
10
2.54744
20
1.37992
11
2.52776
21
1.37992
0
LINE
8
BLACK
6
CONTINUOUS
10
2.52776
20
1.37992
11
2.52776
21
1.38976
0
LINE
8
BLACK
6
CONTINUOUS
10
2.52776
20
1.38976
11
2.54744
21
1.38976
0
LINE
8
BLACK
6
CONTINUOUS
10
2.54744
20
1.38976
11
2.54744
21
1.37992
0
LINE
8
BLACK
6
CONTINUOUS
10
2.62224
20
1.37992
11
2.60256
21
1.37992
0
LINE
8
BLACK
6
CONTINUOUS
10
2.60256
20
1.37992
11
2.60256
21
1.38976
0
LINE
8
BLACK
6
CONTINUOUS
10
2.60256
20
1.38976
11
2.62224
21
1.38976
0
LINE
8
BLACK
6
CONTINUOUS
10
2.62224
20
1.38976
11
2.62224
21
1.37992
0
LINE
8
BLACK
6
CONTINUOUS
10
2.54744
20
1.39961
11
2.52776
21
1.39961
0
LINE
8
BLACK
6
CONTINUOUS
10
2.52776
20
1.39961
11
2.52776
21
1.40945
0
LINE
8
BLACK
6
CONTINUOUS
10
2.52776
20
1.40945
11
2.54744
21
1.40945
0
LINE
8
BLACK
6
CONTINUOUS
10
2.54744
20
1.40945
11
2.54744
21
1.39961
0
LINE
8
BLACK
6
CONTINUOUS
10
2.62224
20
1.39961
11
2.60256
21
1.39961
0
LINE
8
BLACK
6
CONTINUOUS
10
2.60256
20
1.39961
11
2.60256
21
1.40945
0
LINE
8
BLACK
6
CONTINUOUS
10
2.60256
20
1.40945
11
2.62224
21
1.40945
0
LINE
8
BLACK
6
CONTINUOUS
10
2.62224
20
1.40945
11
2.62224
21
1.39961
0
LINE
8
BLACK
6
CONTINUOUS
10
2.4525
20
1.4075
11
2.3975
21
1.4075
0
LINE
8
BLACK
6
CONTINUOUS
10
2.3975
20
1.4075
11
2.3975
21
1.4425
0
LINE
8
BLACK
6
CONTINUOUS
10
2.3975
20
1.4425
11
2.4525
21
1.4425
0
LINE
8
BLACK
6
CONTINUOUS
10
2.4525
20
1.4425
11
2.4525
21
1.4075
0
LINE
8
BLACK
6
CONTINUOUS
10
1.10059
20
1.44193
11
1.06122
21
1.44193
0
LINE
8
BLACK
6
CONTINUOUS
10
1.06122
20
1.44193
11
1.06122
21
1.50098
0
LINE
8
BLACK
6
CONTINUOUS
10
1.06122
20
1.50098
11
1.10059
21
1.50098
0
LINE
8
BLACK
6
CONTINUOUS
10
1.10059
20
1.50098
11
1.10059
21
1.44193
0
LINE
8
BLACK
6
CONTINUOUS
10
1.19902
20
1.44193
11
1.15965
21
1.44193
0
LINE
8
BLACK
6
CONTINUOUS
10
1.15965
20
1.44193
11
1.15965
21
1.50098
0
LINE
8
BLACK
6
CONTINUOUS
10
1.15965
20
1.50098
11
1.19902
21
1.50098
0
LINE
8
BLACK
6
CONTINUOUS
10
1.19902
20
1.50098
11
1.19902
21
1.44193
0
LINE
8
BLACK
6
CONTINUOUS
10
1.29744
20
1.44193
11
1.25807
21
1.44193
0
LINE
8
BLACK
6
CONTINUOUS
10
1.25807
20
1.44193
11
1.25807
21
1.50098
0
LINE
8
BLACK
6
CONTINUOUS
10
1.25807
20
1.50098
11
1.29744
21
1.50098
0
LINE
8
BLACK
6
CONTINUOUS
10
1.29744
20
1.50098
11
1.29744
21
1.44193
0
LINE
8
BLACK
6
CONTINUOUS
10
1.39587
20
1.44193
11
1.3565
21
1.44193
0
LINE
8
BLACK
6
CONTINUOUS
10
1.3565
20
1.44193
11
1.3565
21
1.50098
0
LINE
8
BLACK
6
CONTINUOUS
10
1.3565
20
1.50098
11
1.39587
21
1.50098
0
LINE
8
BLACK
6
CONTINUOUS
10
1.39587
20
1.50098
11
1.39587
21
1.44193
0
LINE
8
BLACK
6
CONTINUOUS
10
1.49429
20
1.44193
11
1.45492
21
1.44193
0
LINE
8
BLACK
6
CONTINUOUS
10
1.45492
20
1.44193
11
1.45492
21
1.50098
0
LINE
8
BLACK
6
CONTINUOUS
10
1.45492
20
1.50098
11
1.49429
21
1.50098
0
LINE
8
BLACK
6
CONTINUOUS
10
1.49429
20
1.50098
11
1.49429
21
1.44193
0
LINE
8
BLACK
6
CONTINUOUS
10
1.59272
20
1.44193
11
1.55335
21
1.44193
0
LINE
8
BLACK
6
CONTINUOUS
10
1.55335
20
1.44193
11
1.55335
21
1.50098
0
LINE
8
BLACK
6
CONTINUOUS
10
1.55335
20
1.50098
11
1.59272
21
1.50098
0
LINE
8
BLACK
6
CONTINUOUS
10
1.59272
20
1.50098
11
1.59272
21
1.44193
0
LINE
8
BLACK
6
CONTINUOUS
10
1.69114
20
1.44193
11
1.65177
21
1.44193
0
LINE
8
BLACK
6
CONTINUOUS
10
1.65177
20
1.44193
11
1.65177
21
1.50098
0
LINE
8
BLACK
6
CONTINUOUS
10
1.65177
20
1.50098
11
1.69114
21
1.50098
0
LINE
8
BLACK
6
CONTINUOUS
10
1.69114
20
1.50098
11
1.69114
21
1.44193
0
LINE
8
BLACK
6
CONTINUOUS
10
1.78681
20
1.44193
11
1.74744
21
1.44193
0
LINE
8
BLACK
6
CONTINUOUS
10
1.74744
20
1.44193
11
1.74744
21
1.50098
0
LINE
8
BLACK
6
CONTINUOUS
10
1.74744
20
1.50098
11
1.78681
21
1.50098
0
LINE
8
BLACK
6
CONTINUOUS
10
1.78681
20
1.50098
11
1.78681
21
1.44193
0
LINE
8
BLACK
6
CONTINUOUS
10
1.85374
20
1.44193
11
1.81437
21
1.44193
0
LINE
8
BLACK
6
CONTINUOUS
10
1.81437
20
1.44193
11
1.81437
21
1.50098
0
LINE
8
BLACK
6
CONTINUOUS
10
1.81437
20
1.50098
11
1.85374
21
1.50098
0
LINE
8
BLACK
6
CONTINUOUS
10
1.85374
20
1.50098
11
1.85374
21
1.44193
0
LINE
8
BLACK
6
CONTINUOUS
10
1.89902
20
1.44193
11
1.87146
21
1.44193
0
LINE
8
BLACK
6
CONTINUOUS
10
1.87146
20
1.44193
11
1.87146
21
1.50098
0
LINE
8
BLACK
6
CONTINUOUS
10
1.87146
20
1.50098
11
1.89902
21
1.50098
0
LINE
8
BLACK
6
CONTINUOUS
10
1.89902
20
1.50098
11
1.89902
21
1.44193
0
LINE
8
BLACK
6
CONTINUOUS
10
1.94626
20
1.44193
11
1.9187
21
1.44193
0
LINE
8
BLACK
6
CONTINUOUS
10
1.9187
20
1.44193
11
1.9187
21
1.50098
0
LINE
8
BLACK
6
CONTINUOUS
10
1.9187
20
1.50098
11
1.94626
21
1.50098
0
LINE
8
BLACK
6
CONTINUOUS
10
1.94626
20
1.50098
11
1.94626
21
1.44193
0
LINE
8
BLACK
6
CONTINUOUS
10
2.58
20
1.4475
11
2.545
21
1.4475
0
LINE
8
BLACK
6
CONTINUOUS
10
2.545
20
1.4475
11
2.545
21
1.5025
0
LINE
8
BLACK
6
CONTINUOUS
10
2.545
20
1.5025
11
2.58
21
1.5025
0
LINE
8
BLACK
6
CONTINUOUS
10
2.58
20
1.5025
11
2.58
21
1.4475
0
LINE
8
BLACK
6
CONTINUOUS
10
2.655
20
1.4475
11
2.62
21
1.4475
0
LINE
8
BLACK
6
CONTINUOUS
10
2.62
20
1.4475
11
2.62
21
1.5025
0
LINE
8
BLACK
6
CONTINUOUS
10
2.62
20
1.5025
11
2.655
21
1.5025
0
LINE
8
BLACK
6
CONTINUOUS
10
2.655
20
1.5025
11
2.655
21
1.4475
0
LINE
8
BLACK
6
CONTINUOUS
10
2.4525
20
1.4825
11
2.3975
21
1.4825
0
LINE
8
BLACK
6
CONTINUOUS
10
2.3975
20
1.4825
11
2.3975
21
1.5175
0
LINE
8
BLACK
6
CONTINUOUS
10
2.3975
20
1.5175
11
2.4525
21
1.5175
0
LINE
8
BLACK
6
CONTINUOUS
10
2.4525
20
1.5175
11
2.4525
21
1.4825
0
LINE
8
BLACK
6
CONTINUOUS
10
1.2025
20
1.57
11
1.1475
21
1.57
0
LINE
8
BLACK
6
CONTINUOUS
10
1.1475
20
1.57
11
1.1475
21
1.605
0
LINE
8
BLACK
6
CONTINUOUS
10
1.1475
20
1.605
11
1.2025
21
1.605
0
LINE
8
BLACK
6
CONTINUOUS
10
1.2025
20
1.605
11
1.2025
21
1.57
0
LINE
8
BLACK
6
CONTINUOUS
10
1.3025
20
1.57
11
1.2475
21
1.57
0
LINE
8
BLACK
6
CONTINUOUS
10
1.2475
20
1.57
11
1.2475
21
1.605
0
LINE
8
BLACK
6
CONTINUOUS
10
1.2475
20
1.605
11
1.3025
21
1.605
0
LINE
8
BLACK
6
CONTINUOUS
10
1.3025
20
1.605
11
1.3025
21
1.57
0
LINE
8
BLACK
6
CONTINUOUS
10
1.6025
20
1.57
11
1.5475
21
1.57
0
LINE
8
BLACK
6
CONTINUOUS
10
1.5475
20
1.57
11
1.5475
21
1.605
0
LINE
8
BLACK
6
CONTINUOUS
10
1.5475
20
1.605
11
1.6025
21
1.605
0
LINE
8
BLACK
6
CONTINUOUS
10
1.6025
20
1.605
11
1.6025
21
1.57
0
LINE
8
BLACK
6
CONTINUOUS
10
1.8025
20
1.57
11
1.7475
21
1.57
0
LINE
8
BLACK
6
CONTINUOUS
10
1.7475
20
1.57
11
1.7475
21
1.605
0
LINE
8
BLACK
6
CONTINUOUS
10
1.7475
20
1.605
11
1.8025
21
1.605
0
LINE
8
BLACK
6
CONTINUOUS
10
1.8025
20
1.605
11
1.8025
21
1.57
0
LINE
8
BLACK
6
CONTINUOUS
10
1.405
20
1.5725
11
1.37
21
1.5725
0
LINE
8
BLACK
6
CONTINUOUS
10
1.37
20
1.5725
11
1.37
21
1.6275
0
LINE
8
BLACK
6
CONTINUOUS
10
1.37
20
1.6275
11
1.405
21
1.6275
0
LINE
8
BLACK
6
CONTINUOUS
10
1.405
20
1.6275
11
1.405
21
1.5725
0
LINE
8
BLACK
6
CONTINUOUS
10
1.48
20
1.5725
11
1.445
21
1.5725
0
LINE
8
BLACK
6
CONTINUOUS
10
1.445
20
1.5725
11
1.445
21
1.6275
0
LINE
8
BLACK
6
CONTINUOUS
10
1.445
20
1.6275
11
1.48
21
1.6275
0
LINE
8
BLACK
6
CONTINUOUS
10
1.48
20
1.6275
11
1.48
21
1.5725
0
LINE
8
BLACK
6
CONTINUOUS
10
1.2025
20
1.645
11
1.1475
21
1.645
0
LINE
8
BLACK
6
CONTINUOUS
10
1.1475
20
1.645
11
1.1475
21
1.68
0
LINE
8
BLACK
6
CONTINUOUS
10
1.1475
20
1.68
11
1.2025
21
1.68
0
LINE
8
BLACK
6
CONTINUOUS
10
1.2025
20
1.68
11
1.2025
21
1.645
0
LINE
8
BLACK
6
CONTINUOUS
10
1.3025
20
1.645
11
1.2475
21
1.645
0
LINE
8
BLACK
6
CONTINUOUS
10
1.2475
20
1.645
11
1.2475
21
1.68
0
LINE
8
BLACK
6
CONTINUOUS
10
1.2475
20
1.68
11
1.3025
21
1.68
0
LINE
8
BLACK
6
CONTINUOUS
10
1.3025
20
1.68
11
1.3025
21
1.645
0
LINE
8
BLACK
6
CONTINUOUS
10
1.6025
20
1.645
11
1.5475
21
1.645
0
LINE
8
BLACK
6
CONTINUOUS
10
1.5475
20
1.645
11
1.5475
21
1.68
0
LINE
8
BLACK
6
CONTINUOUS
10
1.5475
20
1.68
11
1.6025
21
1.68
0
LINE
8
BLACK
6
CONTINUOUS
10
1.6025
20
1.68
11
1.6025
21
1.645
0
LINE
8
BLACK
6
CONTINUOUS
10
1.8025
20
1.645
11
1.7475
21
1.645
0
LINE
8
BLACK
6
CONTINUOUS
10
1.7475
20
1.645
11
1.7475
21
1.68
0
LINE
8
BLACK
6
CONTINUOUS
10
1.7475
20
1.68
11
1.8025
21
1.68
0
LINE
8
BLACK
6
CONTINUOUS
10
1.8025
20
1.68
11
1.8025
21
1.645
0
LINE
8
BLACK
6
CONTINUOUS
10
1.405
20
1.6725
11
1.37
21
1.6725
0
LINE
8
BLACK
6
CONTINUOUS
10
1.37
20
1.6725
11
1.37
21
1.7275
0
LINE
8
BLACK
6
CONTINUOUS
10
1.37
20
1.7275
11
1.405
21
1.7275
0
LINE
8
BLACK
6
CONTINUOUS
10
1.405
20
1.7275
11
1.405
21
1.6725
0
LINE
8
BLACK
6
CONTINUOUS
10
1.48
20
1.6725
11
1.445
21
1.6725
0
LINE
8
BLACK
6
CONTINUOUS
10
1.445
20
1.6725
11
1.445
21
1.7275
0
LINE
8
BLACK
6
CONTINUOUS
10
1.445
20
1.7275
11
1.48
21
1.7275
0
LINE
8
BLACK
6
CONTINUOUS
10
1.48
20
1.7275
11
1.48
21
1.6725
0
LINE
8
BLACK
6
CONTINUOUS
10
2.5775
20
1.7575
11
2.5225
21
1.7575
0
LINE
8
BLACK
6
CONTINUOUS
10
2.5225
20
1.7575
11
2.5225
21
1.7925
0
LINE
8
BLACK
6
CONTINUOUS
10
2.5225
20
1.7925
11
2.5775
21
1.7925
0
LINE
8
BLACK
6
CONTINUOUS
10
2.5775
20
1.7925
11
2.5775
21
1.7575
0
LINE
8
BLACK
6
CONTINUOUS
10
2.7525
20
1.7825
11
2.6975
21
1.7825
0
LINE
8
BLACK
6
CONTINUOUS
10
2.6975
20
1.7825
11
2.6975
21
1.8175
0
LINE
8
BLACK
6
CONTINUOUS
10
2.6975
20
1.8175
11
2.7525
21
1.8175
0
LINE
8
BLACK
6
CONTINUOUS
10
2.7525
20
1.8175
11
2.7525
21
1.7825
0
LINE
8
BLACK
6
CONTINUOUS
10
2.5775
20
1.8325
11
2.5225
21
1.8325
0
LINE
8
BLACK
6
CONTINUOUS
10
2.5225
20
1.8325
11
2.5225
21
1.8675
0
LINE
8
BLACK
6
CONTINUOUS
10
2.5225
20
1.8675
11
2.5775
21
1.8675
0
LINE
8
BLACK
6
CONTINUOUS
10
2.5775
20
1.8675
11
2.5775
21
1.8325
0
LINE
8
BLACK
6
CONTINUOUS
10
2.28543
20
1.85689
11
2.21457
21
1.85689
0
LINE
8
BLACK
6
CONTINUOUS
10
2.21457
20
1.85689
11
2.21457
21
1.89626
0
LINE
8
BLACK
6
CONTINUOUS
10
2.21457
20
1.89626
11
2.28543
21
1.89626
0
LINE
8
BLACK
6
CONTINUOUS
10
2.28543
20
1.89626
11
2.28543
21
1.85689
0
LINE
8
BLACK
6
CONTINUOUS
10
2.7525
20
1.8575
11
2.6975
21
1.8575
0
LINE
8
BLACK
6
CONTINUOUS
10
2.6975
20
1.8575
11
2.6975
21
1.8925
0
LINE
8
BLACK
6
CONTINUOUS
10
2.6975
20
1.8925
11
2.7525
21
1.8925
0
LINE
8
BLACK
6
CONTINUOUS
10
2.7525
20
1.8925
11
2.7525
21
1.8575
0
LINE
8
BLACK
6
CONTINUOUS
10
2.41201
20
1.93071
11
2.3687
21
1.93071
0
LINE
8
BLACK
6
CONTINUOUS
10
2.3687
20
1.93071
11
2.3687
21
1.94055
0
LINE
8
BLACK
6
CONTINUOUS
10
2.3687
20
1.94055
11
2.41201
21
1.94055
0
LINE
8
BLACK
6
CONTINUOUS
10
2.41201
20
1.94055
11
2.41201
21
1.93071
0
LINE
8
BLACK
6
CONTINUOUS
10
2.5813
20
1.93071
11
2.53799
21
1.93071
0
LINE
8
BLACK
6
CONTINUOUS
10
2.53799
20
1.93071
11
2.53799
21
1.94055
0
LINE
8
BLACK
6
CONTINUOUS
10
2.53799
20
1.94055
11
2.5813
21
1.94055
0
LINE
8
BLACK
6
CONTINUOUS
10
2.5813
20
1.94055
11
2.5813
21
1.93071
0
LINE
8
BLACK
6
CONTINUOUS
10
2.7525
20
1.9325
11
2.6975
21
1.9325
0
LINE
8
BLACK
6
CONTINUOUS
10
2.6975
20
1.9325
11
2.6975
21
1.9675
0
LINE
8
BLACK
6
CONTINUOUS
10
2.6975
20
1.9675
11
2.7525
21
1.9675
0
LINE
8
BLACK
6
CONTINUOUS
10
2.7525
20
1.9675
11
2.7525
21
1.9325
0
LINE
8
BLACK
6
CONTINUOUS
10
2.41201
20
1.95039
11
2.3687
21
1.95039
0
LINE
8
BLACK
6
CONTINUOUS
10
2.3687
20
1.95039
11
2.3687
21
1.96024
0
LINE
8
BLACK
6
CONTINUOUS
10
2.3687
20
1.96024
11
2.41201
21
1.96024
0
LINE
8
BLACK
6
CONTINUOUS
10
2.41201
20
1.96024
11
2.41201
21
1.95039
0
LINE
8
BLACK
6
CONTINUOUS
10
2.5813
20
1.95039
11
2.53799
21
1.95039
0
LINE
8
BLACK
6
CONTINUOUS
10
2.53799
20
1.95039
11
2.53799
21
1.96024
0
LINE
8
BLACK
6
CONTINUOUS
10
2.53799
20
1.96024
11
2.5813
21
1.96024
0
LINE
8
BLACK
6
CONTINUOUS
10
2.5813
20
1.96024
11
2.5813
21
1.95039
0
LINE
8
BLACK
6
CONTINUOUS
10
2.28543
20
1.95531
11
2.21457
21
1.95531
0
LINE
8
BLACK
6
CONTINUOUS
10
2.21457
20
1.95531
11
2.21457
21
1.99469
0
LINE
8
BLACK
6
CONTINUOUS
10
2.21457
20
1.99469
11
2.28543
21
1.99469
0
LINE
8
BLACK
6
CONTINUOUS
10
2.28543
20
1.99469
11
2.28543
21
1.95531
0
LINE
8
BLACK
6
CONTINUOUS
10
2.41201
20
1.97008
11
2.3687
21
1.97008
0
LINE
8
BLACK
6
CONTINUOUS
10
2.3687
20
1.97008
11
2.3687
21
1.97992
0
LINE
8
BLACK
6
CONTINUOUS
10
2.3687
20
1.97992
11
2.41201
21
1.97992
0
LINE
8
BLACK
6
CONTINUOUS
10
2.41201
20
1.97992
11
2.41201
21
1.97008
0
LINE
8
BLACK
6
CONTINUOUS
10
2.5813
20
1.97008
11
2.53799
21
1.97008
0
LINE
8
BLACK
6
CONTINUOUS
10
2.53799
20
1.97008
11
2.53799
21
1.97992
0
LINE
8
BLACK
6
CONTINUOUS
10
2.53799
20
1.97992
11
2.5813
21
1.97992
0
LINE
8
BLACK
6
CONTINUOUS
10
2.5813
20
1.97992
11
2.5813
21
1.97008
0
LINE
8
BLACK
6
CONTINUOUS
10
2.41201
20
1.98976
11
2.3687
21
1.98976
0
LINE
8
BLACK
6
CONTINUOUS
10
2.3687
20
1.98976
11
2.3687
21
1.99961
0
LINE
8
BLACK
6
CONTINUOUS
10
2.3687
20
1.99961
11
2.41201
21
1.99961
0
LINE
8
BLACK
6
CONTINUOUS
10
2.41201
20
1.99961
11
2.41201
21
1.98976
0
LINE
8
BLACK
6
CONTINUOUS
10
2.5813
20
1.98976
11
2.53799
21
1.98976
0
LINE
8
BLACK
6
CONTINUOUS
10
2.53799
20
1.98976
11
2.53799
21
1.99961
0
LINE
8
BLACK
6
CONTINUOUS
10
2.53799
20
1.99961
11
2.5813
21
1.99961
0
LINE
8
BLACK
6
CONTINUOUS
10
2.5813
20
1.99961
11
2.5813
21
1.98976
0
LINE
8
BLACK
6
CONTINUOUS
10
2.7525
20
2.0075
11
2.6975
21
2.0075
0
LINE
8
BLACK
6
CONTINUOUS
10
2.6975
20
2.0075
11
2.6975
21
2.0425
0
LINE
8
BLACK
6
CONTINUOUS
10
2.6975
20
2.0425
11
2.7525
21
2.0425
0
LINE
8
BLACK
6
CONTINUOUS
10
2.7525
20
2.0425
11
2.7525
21
2.0075
0
LINE
8
BLACK
6
CONTINUOUS
10
2.41201
20
2.00945
11
2.3687
21
2.00945
0
LINE
8
BLACK
6
CONTINUOUS
10
2.3687
20
2.00945
11
2.3687
21
2.01929
0
LINE
8
BLACK
6
CONTINUOUS
10
2.3687
20
2.01929
11
2.41201
21
2.01929
0
LINE
8
BLACK
6
CONTINUOUS
10
2.41201
20
2.01929
11
2.41201
21
2.00945
0
LINE
8
BLACK
6
CONTINUOUS
10
2.5813
20
2.00945
11
2.53799
21
2.00945
0
LINE
8
BLACK
6
CONTINUOUS
10
2.53799
20
2.00945
11
2.53799
21
2.01929
0
LINE
8
BLACK
6
CONTINUOUS
10
2.53799
20
2.01929
11
2.5813
21
2.01929
0
LINE
8
BLACK
6
CONTINUOUS
10
2.5813
20
2.01929
11
2.5813
21
2.00945
0
LINE
8
BLACK
6
CONTINUOUS
10
0.982874
20
2.02126
11
0.786024
21
2.02126
0
LINE
8
BLACK
6
CONTINUOUS
10
0.786024
20
2.02126
11
0.786024
21
2.17874
0
LINE
8
BLACK
6
CONTINUOUS
10
0.786024
20
2.17874
11
0.982874
21
2.17874
0
LINE
8
BLACK
6
CONTINUOUS
10
0.982874
20
2.17874
11
0.982874
21
2.02126
0
LINE
8
BLACK
6
CONTINUOUS
10
2.16398
20
2.02126
11
1.96713
21
2.02126
0
LINE
8
BLACK
6
CONTINUOUS
10
1.96713
20
2.02126
11
1.96713
21
2.17874
0
LINE
8
BLACK
6
CONTINUOUS
10
1.96713
20
2.17874
11
2.16398
21
2.17874
0
LINE
8
BLACK
6
CONTINUOUS
10
2.16398
20
2.17874
11
2.16398
21
2.02126
0
LINE
8
BLACK
6
CONTINUOUS
10
2.47421
20
2.11319
11
2.41319
21
2.11319
0
LINE
8
BLACK
6
CONTINUOUS
10
2.41319
20
2.11319
11
2.41319
21
2.13681
0
LINE
8
BLACK
6
CONTINUOUS
10
2.41319
20
2.13681
11
2.47421
21
2.13681
0
LINE
8
BLACK
6
CONTINUOUS
10
2.47421
20
2.13681
11
2.47421
21
2.11319
0
LINE
8
BLACK
6
CONTINUOUS
10
2.68681
20
2.11319
11
2.62579
21
2.11319
0
LINE
8
BLACK
6
CONTINUOUS
10
2.62579
20
2.11319
11
2.62579
21
2.13681
0
LINE
8
BLACK
6
CONTINUOUS
10
2.62579
20
2.13681
11
2.68681
21
2.13681
0
LINE
8
BLACK
6
CONTINUOUS
10
2.68681
20
2.13681
11
2.68681
21
2.11319
0
LINE
8
BLACK
6
CONTINUOUS
10
2.47421
20
2.16319
11
2.41319
21
2.16319
0
LINE
8
BLACK
6
CONTINUOUS
10
2.41319
20
2.16319
11
2.41319
21
2.18681
0
LINE
8
BLACK
6
CONTINUOUS
10
2.41319
20
2.18681
11
2.47421
21
2.18681
0
LINE
8
BLACK
6
CONTINUOUS
10
2.47421
20
2.18681
11
2.47421
21
2.16319
0
LINE
8
BLACK
6
CONTINUOUS
10
2.68681
20
2.16319
11
2.62579
21
2.16319
0
LINE
8
BLACK
6
CONTINUOUS
10
2.62579
20
2.16319
11
2.62579
21
2.18681
0
LINE
8
BLACK
6
CONTINUOUS
10
2.62579
20
2.18681
11
2.68681
21
2.18681
0
LINE
8
BLACK
6
CONTINUOUS
10
2.68681
20
2.18681
11
2.68681
21
2.16319
0
LINE
8
BLACK
6
CONTINUOUS
10
2.47421
20
2.21319
11
2.41319
21
2.21319
0
LINE
8
BLACK
6
CONTINUOUS
10
2.41319
20
2.21319
11
2.41319
21
2.23681
0
LINE
8
BLACK
6
CONTINUOUS
10
2.41319
20
2.23681
11
2.47421
21
2.23681
0
LINE
8
BLACK
6
CONTINUOUS
10
2.47421
20
2.23681
11
2.47421
21
2.21319
0
LINE
8
BLACK
6
CONTINUOUS
10
2.68681
20
2.21319
11
2.62579
21
2.21319
0
LINE
8
BLACK
6
CONTINUOUS
10
2.62579
20
2.21319
11
2.62579
21
2.23681
0
LINE
8
BLACK
6
CONTINUOUS
10
2.62579
20
2.23681
11
2.68681
21
2.23681
0
LINE
8
BLACK
6
CONTINUOUS
10
2.68681
20
2.23681
11
2.68681
21
2.21319
0
LINE
8
BLACK
6
CONTINUOUS
10
2.47421
20
2.26319
11
2.41319
21
2.26319
0
LINE
8
BLACK
6
CONTINUOUS
10
2.41319
20
2.26319
11
2.41319
21
2.28681
0
LINE
8
BLACK
6
CONTINUOUS
10
2.41319
20
2.28681
11
2.47421
21
2.28681
0
LINE
8
BLACK
6
CONTINUOUS
10
2.47421
20
2.28681
11
2.47421
21
2.26319
0
LINE
8
BLACK
6
CONTINUOUS
10
2.68681
20
2.26319
11
2.62579
21
2.26319
0
LINE
8
BLACK
6
CONTINUOUS
10
2.62579
20
2.26319
11
2.62579
21
2.28681
0
LINE
8
BLACK
6
CONTINUOUS
10
2.62579
20
2.28681
11
2.68681
21
2.28681
0
LINE
8
BLACK
6
CONTINUOUS
10
2.68681
20
2.28681
11
2.68681
21
2.26319
0
LINE
8
BLACK
6
CONTINUOUS
10
2.62756
20
2.32
11
2.57244
21
2.32
0
LINE
8
BLACK
6
CONTINUOUS
10
2.57244
20
2.32
11
2.57244
21
2.355
0
LINE
8
BLACK
6
CONTINUOUS
10
2.57244
20
2.355
11
2.62756
21
2.355
0
LINE
8
BLACK
6
CONTINUOUS
10
2.62756
20
2.355
11
2.62756
21
2.32
0
LINE
8
BLACK
6
CONTINUOUS
10
2.70256
20
2.32
11
2.64744
21
2.32
0
LINE
8
BLACK
6
CONTINUOUS
10
2.64744
20
2.32
11
2.64744
21
2.355
0
LINE
8
BLACK
6
CONTINUOUS
10
2.64744
20
2.355
11
2.70256
21
2.355
0
LINE
8
BLACK
6
CONTINUOUS
10
2.70256
20
2.355
11
2.70256
21
2.32
0
LINE
8
BLACK
6
CONTINUOUS
10
2.4425
20
2.32244
11
2.4075
21
2.32244
0
LINE
8
BLACK
6
CONTINUOUS
10
2.4075
20
2.32244
11
2.4075
21
2.37756
0
LINE
8
BLACK
6
CONTINUOUS
10
2.4075
20
2.37756
11
2.4425
21
2.37756
0
LINE
8
BLACK
6
CONTINUOUS
10
2.4425
20
2.37756
11
2.4425
21
2.32244
0
LINE
8
BLACK
6
CONTINUOUS
10
2.5177
20
2.32244
11
2.4823
21
2.32244
0
LINE
8
BLACK
6
CONTINUOUS
10
2.4823
20
2.32244
11
2.4823
21
2.37756
0
LINE
8
BLACK
6
CONTINUOUS
10
2.4823
20
2.37756
11
2.5177
21
2.37756
0
LINE
8
BLACK
6
CONTINUOUS
10
2.5177
20
2.37756
11
2.5177
21
2.32244
0
LINE
8
BLACK
6
CONTINUOUS
10
2.62756
20
2.3948
11
2.57244
21
2.3948
0
LINE
8
BLACK
6
CONTINUOUS
10
2.57244
20
2.3948
11
2.57244
21
2.4302
0
LINE
8
BLACK
6
CONTINUOUS
10
2.57244
20
2.4302
11
2.62756
21
2.4302
0
LINE
8
BLACK
6
CONTINUOUS
10
2.62756
20
2.4302
11
2.62756
21
2.3948
0
LINE
8
BLACK
6
CONTINUOUS
10
2.70256
20
2.3948
11
2.64744
21
2.3948
0
LINE
8
BLACK
6
CONTINUOUS
10
2.64744
20
2.3948
11
2.64744
21
2.4302
0
LINE
8
BLACK
6
CONTINUOUS
10
2.64744
20
2.4302
11
2.70256
21
2.4302
0
LINE
8
BLACK
6
CONTINUOUS
10
2.70256
20
2.4302
11
2.70256
21
2.3948
0
LINE
8
BLACK
6
CONTINUOUS
10
2.50256
20
2.4075
11
2.44744
21
2.4075
0
LINE
8
BLACK
6
CONTINUOUS
10
2.44744
20
2.4075
11
2.44744
21
2.4425
0
LINE
8
BLACK
6
CONTINUOUS
10
2.44744
20
2.4425
11
2.50256
21
2.4425
0
LINE
8
BLACK
6
CONTINUOUS
10
2.50256
20
2.4425
11
2.50256
21
2.4075
0
LINE
8
BLACK
6
CONTINUOUS
10
2.40256
20
2.4323
11
2.34744
21
2.4323
0
LINE
8
BLACK
6
CONTINUOUS
10
2.34744
20
2.4323
11
2.34744
21
2.4677
0
LINE
8
BLACK
6
CONTINUOUS
10
2.34744
20
2.4677
11
2.40256
21
2.4677
0
LINE
8
BLACK
6
CONTINUOUS
10
2.40256
20
2.4677
11
2.40256
21
2.4323
0
LINE
8
BLACK
6
CONTINUOUS
10
2.50256
20
2.4823
11
2.44744
21
2.4823
0
LINE
8
BLACK
6
CONTINUOUS
10
2.44744
20
2.4823
11
2.44744
21
2.5177
0
LINE
8
BLACK
6
CONTINUOUS
10
2.44744
20
2.5177
11
2.50256
21
2.5177
0
LINE
8
BLACK
6
CONTINUOUS
10
2.50256
20
2.5177
11
2.50256
21
2.4823
0
LINE
8
BLACK
6
CONTINUOUS
10
2.40256
20
2.5075
11
2.34744
21
2.5075
0
LINE
8
BLACK
6
CONTINUOUS
10
2.34744
20
2.5075
11
2.34744
21
2.5425
0
LINE
8
BLACK
6
CONTINUOUS
10
2.34744
20
2.5425
11
2.40256
21
2.5425
0
LINE
8
BLACK
6
CONTINUOUS
10
2.40256
20
2.5425
11
2.40256
21
2.5075
0
LINE
8
BLACK
6
CONTINUOUS
10
3.0775
20
2.745
11
3.0225
21
2.745
0
LINE
8
BLACK
6
CONTINUOUS
10
3.0225
20
2.745
11
3.0225
21
2.78
0
LINE
8
BLACK
6
CONTINUOUS
10
3.0225
20
2.78
11
3.0775
21
2.78
0
LINE
8
BLACK
6
CONTINUOUS
10
3.0775
20
2.78
11
3.0775
21
2.745
0
LINE
8
BLACK
6
CONTINUOUS
10
3.0775
20
2.82
11
3.0225
21
2.82
0
LINE
8
BLACK
6
CONTINUOUS
10
3.0225
20
2.82
11
3.0225
21
2.855
0
LINE
8
BLACK
6
CONTINUOUS
10
3.0225
20
2.855
11
3.0775
21
2.855
0
LINE
8
BLACK
6
CONTINUOUS
10
3.0775
20
2.855
11
3.0775
21
2.82
0
LINE
8
BLACK
6
CONTINUOUS
10
2.355
20
2.8475
11
2.32
21
2.8475
0
LINE
8
BLACK
6
CONTINUOUS
10
2.32
20
2.8475
11
2.32
21
2.9025
0
LINE
8
BLACK
6
CONTINUOUS
10
2.32
20
2.9025
11
2.355
21
2.9025
0
LINE
8
BLACK
6
CONTINUOUS
10
2.355
20
2.9025
11
2.355
21
2.8475
0
LINE
8
BLACK
6
CONTINUOUS
10
2.43
20
2.8475
11
2.395
21
2.8475
0
LINE
8
BLACK
6
CONTINUOUS
10
2.395
20
2.8475
11
2.395
21
2.9025
0
LINE
8
BLACK
6
CONTINUOUS
10
2.395
20
2.9025
11
2.43
21
2.9025
0
LINE
8
BLACK
6
CONTINUOUS
10
2.43
20
2.9025
11
2.43
21
2.8475
0
LINE
8
BLACK
6
CONTINUOUS
10
3.0775
20
2.895
11
3.0225
21
2.895
0
LINE
8
BLACK
6
CONTINUOUS
10
3.0225
20
2.895
11
3.0225
21
2.93
0
LINE
8
BLACK
6
CONTINUOUS
10
3.0225
20
2.93
11
3.0775
21
2.93
0
LINE
8
BLACK
6
CONTINUOUS
10
3.0775
20
2.93
11
3.0775
21
2.895
0
LINE
8
BLACK
6
CONTINUOUS
10
3.0775
20
2.97
11
3.0225
21
2.97
0
LINE
8
BLACK
6
CONTINUOUS
10
3.0225
20
2.97
11
3.0225
21
3.005
0
LINE
8
BLACK
6
CONTINUOUS
10
3.0225
20
3.005
11
3.0775
21
3.005
0
LINE
8
BLACK
6
CONTINUOUS
10
3.0775
20
3.005
11
3.0775
21
2.97
0
LINE
8
BLACK
6
CONTINUOUS
10
2.07835
20
2.97106
11
2.05669
21
2.97106
0
LINE
8
BLACK
6
CONTINUOUS
10
2.05669
20
2.97106
11
2.05669
21
3.03012
0
LINE
8
BLACK
6
CONTINUOUS
10
2.05669
20
3.03012
11
2.07835
21
3.03012
0
LINE
8
BLACK
6
CONTINUOUS
10
2.07835
20
3.03012
11
2.07835
21
2.97106
0
LINE
8
BLACK
6
CONTINUOUS
10
2.10984
20
2.97106
11
2.08819
21
2.97106
0
LINE
8
BLACK
6
CONTINUOUS
10
2.08819
20
2.97106
11
2.08819
21
3.03012
0
LINE
8
BLACK
6
CONTINUOUS
10
2.08819
20
3.03012
11
2.10984
21
3.03012
0
LINE
8
BLACK
6
CONTINUOUS
10
2.10984
20
3.03012
11
2.10984
21
2.97106
0
LINE
8
BLACK
6
CONTINUOUS
10
2.14134
20
2.97106
11
2.11969
21
2.97106
0
LINE
8
BLACK
6
CONTINUOUS
10
2.11969
20
2.97106
11
2.11969
21
3.03012
0
LINE
8
BLACK
6
CONTINUOUS
10
2.11969
20
3.03012
11
2.14134
21
3.03012
0
LINE
8
BLACK
6
CONTINUOUS
10
2.14134
20
3.03012
11
2.14134
21
2.97106
0
LINE
8
BLACK
6
CONTINUOUS
10
2.17283
20
2.97106
11
2.15118
21
2.97106
0
LINE
8
BLACK
6
CONTINUOUS
10
2.15118
20
2.97106
11
2.15118
21
3.03012
0
LINE
8
BLACK
6
CONTINUOUS
10
2.15118
20
3.03012
11
2.17283
21
3.03012
0
LINE
8
BLACK
6
CONTINUOUS
10
2.17283
20
3.03012
11
2.17283
21
2.97106
0
LINE
8
BLACK
6
CONTINUOUS
10
2.20433
20
2.97106
11
2.18268
21
2.97106
0
LINE
8
BLACK
6
CONTINUOUS
10
2.18268
20
2.97106
11
2.18268
21
3.03012
0
LINE
8
BLACK
6
CONTINUOUS
10
2.18268
20
3.03012
11
2.20433
21
3.03012
0
LINE
8
BLACK
6
CONTINUOUS
10
2.20433
20
3.03012
11
2.20433
21
2.97106
0
LINE
8
BLACK
6
CONTINUOUS
10
2.23583
20
2.97106
11
2.21417
21
2.97106
0
LINE
8
BLACK
6
CONTINUOUS
10
2.21417
20
2.97106
11
2.21417
21
3.03012
0
LINE
8
BLACK
6
CONTINUOUS
10
2.21417
20
3.03012
11
2.23583
21
3.03012
0
LINE
8
BLACK
6
CONTINUOUS
10
2.23583
20
3.03012
11
2.23583
21
2.97106
0
LINE
8
BLACK
6
CONTINUOUS
10
2.26732
20
2.97106
11
2.24567
21
2.97106
0
LINE
8
BLACK
6
CONTINUOUS
10
2.24567
20
2.97106
11
2.24567
21
3.03012
0
LINE
8
BLACK
6
CONTINUOUS
10
2.24567
20
3.03012
11
2.26732
21
3.03012
0
LINE
8
BLACK
6
CONTINUOUS
10
2.26732
20
3.03012
11
2.26732
21
2.97106
0
LINE
8
BLACK
6
CONTINUOUS
10
2.29882
20
2.97106
11
2.27717
21
2.97106
0
LINE
8
BLACK
6
CONTINUOUS
10
2.27717
20
2.97106
11
2.27717
21
3.03012
0
LINE
8
BLACK
6
CONTINUOUS
10
2.27717
20
3.03012
11
2.29882
21
3.03012
0
LINE
8
BLACK
6
CONTINUOUS
10
2.29882
20
3.03012
11
2.29882
21
2.97106
0
LINE
8
BLACK
6
CONTINUOUS
10
2.33031
20
2.97106
11
2.30866
21
2.97106
0
LINE
8
BLACK
6
CONTINUOUS
10
2.30866
20
2.97106
11
2.30866
21
3.03012
0
LINE
8
BLACK
6
CONTINUOUS
10
2.30866
20
3.03012
11
2.33031
21
3.03012
0
LINE
8
BLACK
6
CONTINUOUS
10
2.33031
20
3.03012
11
2.33031
21
2.97106
0
LINE
8
BLACK
6
CONTINUOUS
10
2.36181
20
2.97106
11
2.34016
21
2.97106
0
LINE
8
BLACK
6
CONTINUOUS
10
2.34016
20
2.97106
11
2.34016
21
3.03012
0
LINE
8
BLACK
6
CONTINUOUS
10
2.34016
20
3.03012
11
2.36181
21
3.03012
0
LINE
8
BLACK
6
CONTINUOUS
10
2.36181
20
3.03012
11
2.36181
21
2.97106
0
LINE
8
BLACK
6
CONTINUOUS
10
2.39331
20
2.97106
11
2.37165
21
2.97106
0
LINE
8
BLACK
6
CONTINUOUS
10
2.37165
20
2.97106
11
2.37165
21
3.03012
0
LINE
8
BLACK
6
CONTINUOUS
10
2.37165
20
3.03012
11
2.39331
21
3.03012
0
LINE
8
BLACK
6
CONTINUOUS
10
2.39331
20
3.03012
11
2.39331
21
2.97106
0
LINE
8
BLACK
6
CONTINUOUS
10
1.49
20
2.975
11
1.44
21
2.975
0
LINE
8
BLACK
6
CONTINUOUS
10
1.44
20
2.975
11
1.44
21
3.075
0
LINE
8
BLACK
6
CONTINUOUS
10
1.44
20
3.075
11
1.49
21
3.075
0
LINE
8
BLACK
6
CONTINUOUS
10
1.49
20
3.075
11
1.49
21
2.975
0
LINE
8
BLACK
6
CONTINUOUS
10
1.61
20
2.975
11
1.56
21
2.975
0
LINE
8
BLACK
6
CONTINUOUS
10
1.56
20
2.975
11
1.56
21
3.075
0
LINE
8
BLACK
6
CONTINUOUS
10
1.56
20
3.075
11
1.61
21
3.075
0
LINE
8
BLACK
6
CONTINUOUS
10
1.61
20
3.075
11
1.61
21
2.975
0
LINE
8
BLACK
6
CONTINUOUS
10
1.1775
20
3.02
11
1.1225
21
3.02
0
LINE
8
BLACK
6
CONTINUOUS
10
1.1225
20
3.02
11
1.1225
21
3.055
0
LINE
8
BLACK
6
CONTINUOUS
10
1.1225
20
3.055
11
1.1775
21
3.055
0
LINE
8
BLACK
6
CONTINUOUS
10
1.1775
20
3.055
11
1.1775
21
3.02
0
LINE
8
BLACK
6
CONTINUOUS
10
1.2775
20
3.02
11
1.2225
21
3.02
0
LINE
8
BLACK
6
CONTINUOUS
10
1.2225
20
3.02
11
1.2225
21
3.055
0
LINE
8
BLACK
6
CONTINUOUS
10
1.2225
20
3.055
11
1.2775
21
3.055
0
LINE
8
BLACK
6
CONTINUOUS
10
1.2775
20
3.055
11
1.2775
21
3.02
0
LINE
8
BLACK
6
CONTINUOUS
10
1.3775
20
3.02
11
1.3225
21
3.02
0
LINE
8
BLACK
6
CONTINUOUS
10
1.3225
20
3.02
11
1.3225
21
3.055
0
LINE
8
BLACK
6
CONTINUOUS
10
1.3225
20
3.055
11
1.3775
21
3.055
0
LINE
8
BLACK
6
CONTINUOUS
10
1.3775
20
3.055
11
1.3775
21
3.02
0
LINE
8
BLACK
6
CONTINUOUS
10
1.7025
20
3.045
11
1.6475
21
3.045
0
LINE
8
BLACK
6
CONTINUOUS
10
1.6475
20
3.045
11
1.6475
21
3.08
0
LINE
8
BLACK
6
CONTINUOUS
10
1.6475
20
3.08
11
1.7025
21
3.08
0
LINE
8
BLACK
6
CONTINUOUS
10
1.7025
20
3.08
11
1.7025
21
3.045
0
LINE
8
BLACK
6
CONTINUOUS
10
2.03012
20
3.05669
11
1.97106
21
3.05669
0
LINE
8
BLACK
6
CONTINUOUS
10
1.97106
20
3.05669
11
1.97106
21
3.07835
0
LINE
8
BLACK
6
CONTINUOUS
10
1.97106
20
3.07835
11
2.03012
21
3.07835
0
LINE
8
BLACK
6
CONTINUOUS
10
2.03012
20
3.07835
11
2.03012
21
3.05669
0
LINE
8
BLACK
6
CONTINUOUS
10
2.47894
20
3.05669
11
2.41988
21
3.05669
0
LINE
8
BLACK
6
CONTINUOUS
10
2.41988
20
3.05669
11
2.41988
21
3.07835
0
LINE
8
BLACK
6
CONTINUOUS
10
2.41988
20
3.07835
11
2.47894
21
3.07835
0
LINE
8
BLACK
6
CONTINUOUS
10
2.47894
20
3.07835
11
2.47894
21
3.05669
0
LINE
8
BLACK
6
CONTINUOUS
10
2.03012
20
3.08819
11
1.97106
21
3.08819
0
LINE
8
BLACK
6
CONTINUOUS
10
1.97106
20
3.08819
11
1.97106
21
3.10984
0
LINE
8
BLACK
6
CONTINUOUS
10
1.97106
20
3.10984
11
2.03012
21
3.10984
0
LINE
8
BLACK
6
CONTINUOUS
10
2.03012
20
3.10984
11
2.03012
21
3.08819
0
LINE
8
BLACK
6
CONTINUOUS
10
2.47894
20
3.08819
11
2.41988
21
3.08819
0
LINE
8
BLACK
6
CONTINUOUS
10
2.41988
20
3.08819
11
2.41988
21
3.10984
0
LINE
8
BLACK
6
CONTINUOUS
10
2.41988
20
3.10984
11
2.47894
21
3.10984
0
LINE
8
BLACK
6
CONTINUOUS
10
2.47894
20
3.10984
11
2.47894
21
3.08819
0
LINE
8
BLACK
6
CONTINUOUS
10
1.1775
20
3.095
11
1.1225
21
3.095
0
LINE
8
BLACK
6
CONTINUOUS
10
1.1225
20
3.095
11
1.1225
21
3.13
0
LINE
8
BLACK
6
CONTINUOUS
10
1.1225
20
3.13
11
1.1775
21
3.13
0
LINE
8
BLACK
6
CONTINUOUS
10
1.1775
20
3.13
11
1.1775
21
3.095
0
LINE
8
BLACK
6
CONTINUOUS
10
1.2775
20
3.095
11
1.2225
21
3.095
0
LINE
8
BLACK
6
CONTINUOUS
10
1.2225
20
3.095
11
1.2225
21
3.13
0
LINE
8
BLACK
6
CONTINUOUS
10
1.2225
20
3.13
11
1.2775
21
3.13
0
LINE
8
BLACK
6
CONTINUOUS
10
1.2775
20
3.13
11
1.2775
21
3.095
0
LINE
8
BLACK
6
CONTINUOUS
10
1.3775
20
3.095
11
1.3225
21
3.095
0
LINE
8
BLACK
6
CONTINUOUS
10
1.3225
20
3.095
11
1.3225
21
3.13
0
LINE
8
BLACK
6
CONTINUOUS
10
1.3225
20
3.13
11
1.3775
21
3.13
0
LINE
8
BLACK
6
CONTINUOUS
10
1.3775
20
3.13
11
1.3775
21
3.095
0
LINE
8
BLACK
6
CONTINUOUS
10
2.7275
20
3.095
11
2.6725
21
3.095
0
LINE
8
BLACK
6
CONTINUOUS
10
2.6725
20
3.095
11
2.6725
21
3.13
0
LINE
8
BLACK
6
CONTINUOUS
10
2.6725
20
3.13
11
2.7275
21
3.13
0
LINE
8
BLACK
6
CONTINUOUS
10
2.7275
20
3.13
11
2.7275
21
3.095
0
LINE
8
BLACK
6
CONTINUOUS
10
2.03012
20
3.11969
11
1.97106
21
3.11969
0
LINE
8
BLACK
6
CONTINUOUS
10
1.97106
20
3.11969
11
1.97106
21
3.14134
0
LINE
8
BLACK
6
CONTINUOUS
10
1.97106
20
3.14134
11
2.03012
21
3.14134
0
LINE
8
BLACK
6
CONTINUOUS
10
2.03012
20
3.14134
11
2.03012
21
3.11969
0
LINE
8
BLACK
6
CONTINUOUS
10
2.47894
20
3.11969
11
2.41988
21
3.11969
0
LINE
8
BLACK
6
CONTINUOUS
10
2.41988
20
3.11969
11
2.41988
21
3.14134
0
LINE
8
BLACK
6
CONTINUOUS
10
2.41988
20
3.14134
11
2.47894
21
3.14134
0
LINE
8
BLACK
6
CONTINUOUS
10
2.47894
20
3.14134
11
2.47894
21
3.11969
0
LINE
8
BLACK
6
CONTINUOUS
10
1.7025
20
3.12
11
1.6475
21
3.12
0
LINE
8
BLACK
6
CONTINUOUS
10
1.6475
20
3.12
11
1.6475
21
3.155
0
LINE
8
BLACK
6
CONTINUOUS
10
1.6475
20
3.155
11
1.7025
21
3.155
0
LINE
8
BLACK
6
CONTINUOUS
10
1.7025
20
3.155
11
1.7025
21
3.12
0
LINE
8
BLACK
6
CONTINUOUS
10
2.03012
20
3.15118
11
1.97106
21
3.15118
0
LINE
8
BLACK
6
CONTINUOUS
10
1.97106
20
3.15118
11
1.97106
21
3.17283
0
LINE
8
BLACK
6
CONTINUOUS
10
1.97106
20
3.17283
11
2.03012
21
3.17283
0
LINE
8
BLACK
6
CONTINUOUS
10
2.03012
20
3.17283
11
2.03012
21
3.15118
0
LINE
8
BLACK
6
CONTINUOUS
10
2.47894
20
3.15118
11
2.41988
21
3.15118
0
LINE
8
BLACK
6
CONTINUOUS
10
2.41988
20
3.15118
11
2.41988
21
3.17283
0
LINE
8
BLACK
6
CONTINUOUS
10
2.41988
20
3.17283
11
2.47894
21
3.17283
0
LINE
8
BLACK
6
CONTINUOUS
10
2.47894
20
3.17283
11
2.47894
21
3.15118
0
LINE
8
BLACK
6
CONTINUOUS
10
2.7275
20
3.17
11
2.6725
21
3.17
0
LINE
8
BLACK
6
CONTINUOUS
10
2.6725
20
3.17
11
2.6725
21
3.205
0
LINE
8
BLACK
6
CONTINUOUS
10
2.6725
20
3.205
11
2.7275
21
3.205
0
LINE
8
BLACK
6
CONTINUOUS
10
2.7275
20
3.205
11
2.7275
21
3.17
0
LINE
8
BLACK
6
CONTINUOUS
10
2.6275
20
3.1825
11
2.5725
21
3.1825
0
LINE
8
BLACK
6
CONTINUOUS
10
2.5725
20
3.1825
11
2.5725
21
3.2175
0
LINE
8
BLACK
6
CONTINUOUS
10
2.5725
20
3.2175
11
2.6275
21
3.2175
0
LINE
8
BLACK
6
CONTINUOUS
10
2.6275
20
3.2175
11
2.6275
21
3.1825
0
LINE
8
BLACK
6
CONTINUOUS
10
2.03012
20
3.18268
11
1.97106
21
3.18268
0
LINE
8
BLACK
6
CONTINUOUS
10
1.97106
20
3.18268
11
1.97106
21
3.20433
0
LINE
8
BLACK
6
CONTINUOUS
10
1.97106
20
3.20433
11
2.03012
21
3.20433
0
LINE
8
BLACK
6
CONTINUOUS
10
2.03012
20
3.20433
11
2.03012
21
3.18268
0
LINE
8
BLACK
6
CONTINUOUS
10
2.47894
20
3.18268
11
2.41988
21
3.18268
0
LINE
8
BLACK
6
CONTINUOUS
10
2.41988
20
3.18268
11
2.41988
21
3.20433
0
LINE
8
BLACK
6
CONTINUOUS
10
2.41988
20
3.20433
11
2.47894
21
3.20433
0
LINE
8
BLACK
6
CONTINUOUS
10
2.47894
20
3.20433
11
2.47894
21
3.18268
0
LINE
8
BLACK
6
CONTINUOUS
10
1.6025
20
3.195
11
1.5475
21
3.195
0
LINE
8
BLACK
6
CONTINUOUS
10
1.5475
20
3.195
11
1.5475
21
3.23
0
LINE
8
BLACK
6
CONTINUOUS
10
1.5475
20
3.23
11
1.6025
21
3.23
0
LINE
8
BLACK
6
CONTINUOUS
10
1.6025
20
3.23
11
1.6025
21
3.195
0
LINE
8
BLACK
6
CONTINUOUS
10
1.7025
20
3.195
11
1.6475
21
3.195
0
LINE
8
BLACK
6
CONTINUOUS
10
1.6475
20
3.195
11
1.6475
21
3.23
0
LINE
8
BLACK
6
CONTINUOUS
10
1.6475
20
3.23
11
1.7025
21
3.23
0
LINE
8
BLACK
6
CONTINUOUS
10
1.7025
20
3.23
11
1.7025
21
3.195
0
LINE
8
BLACK
6
CONTINUOUS
10
2.03012
20
3.21417
11
1.97106
21
3.21417
0
LINE
8
BLACK
6
CONTINUOUS
10
1.97106
20
3.21417
11
1.97106
21
3.23583
0
LINE
8
BLACK
6
CONTINUOUS
10
1.97106
20
3.23583
11
2.03012
21
3.23583
0
LINE
8
BLACK
6
CONTINUOUS
10
2.03012
20
3.23583
11
2.03012
21
3.21417
0
LINE
8
BLACK
6
CONTINUOUS
10
2.47894
20
3.21417
11
2.41988
21
3.21417
0
LINE
8
BLACK
6
CONTINUOUS
10
2.41988
20
3.21417
11
2.41988
21
3.23583
0
LINE
8
BLACK
6
CONTINUOUS
10
2.41988
20
3.23583
11
2.47894
21
3.23583
0
LINE
8
BLACK
6
CONTINUOUS
10
2.47894
20
3.23583
11
2.47894
21
3.21417
0
LINE
8
BLACK
6
CONTINUOUS
10
2.7275
20
3.245
11
2.6725
21
3.245
0
LINE
8
BLACK
6
CONTINUOUS
10
2.6725
20
3.245
11
2.6725
21
3.28
0
LINE
8
BLACK
6
CONTINUOUS
10
2.6725
20
3.28
11
2.7275
21
3.28
0
LINE
8
BLACK
6
CONTINUOUS
10
2.7275
20
3.28
11
2.7275
21
3.245
0
LINE
8
BLACK
6
CONTINUOUS
10
2.8275
20
3.245
11
2.7725
21
3.245
0
LINE
8
BLACK
6
CONTINUOUS
10
2.7725
20
3.245
11
2.7725
21
3.28
0
LINE
8
BLACK
6
CONTINUOUS
10
2.7725
20
3.28
11
2.8275
21
3.28
0
LINE
8
BLACK
6
CONTINUOUS
10
2.8275
20
3.28
11
2.8275
21
3.245
0
LINE
8
BLACK
6
CONTINUOUS
10
2.03012
20
3.24567
11
1.97106
21
3.24567
0
LINE
8
BLACK
6
CONTINUOUS
10
1.97106
20
3.24567
11
1.97106
21
3.26732
0
LINE
8
BLACK
6
CONTINUOUS
10
1.97106
20
3.26732
11
2.03012
21
3.26732
0
LINE
8
BLACK
6
CONTINUOUS
10
2.03012
20
3.26732
11
2.03012
21
3.24567
0
LINE
8
BLACK
6
CONTINUOUS
10
2.47894
20
3.24567
11
2.41988
21
3.24567
0
LINE
8
BLACK
6
CONTINUOUS
10
2.41988
20
3.24567
11
2.41988
21
3.26732
0
LINE
8
BLACK
6
CONTINUOUS
10
2.41988
20
3.26732
11
2.47894
21
3.26732
0
LINE
8
BLACK
6
CONTINUOUS
10
2.47894
20
3.26732
11
2.47894
21
3.24567
0
LINE
8
BLACK
6
CONTINUOUS
10
2.6275
20
3.2575
11
2.5725
21
3.2575
0
LINE
8
BLACK
6
CONTINUOUS
10
2.5725
20
3.2575
11
2.5725
21
3.2925
0
LINE
8
BLACK
6
CONTINUOUS
10
2.5725
20
3.2925
11
2.6275
21
3.2925
0
LINE
8
BLACK
6
CONTINUOUS
10
2.6275
20
3.2925
11
2.6275
21
3.2575
0
LINE
8
BLACK
6
CONTINUOUS
10
1.6025
20
3.27
11
1.5475
21
3.27
0
LINE
8
BLACK
6
CONTINUOUS
10
1.5475
20
3.27
11
1.5475
21
3.305
0
LINE
8
BLACK
6
CONTINUOUS
10
1.5475
20
3.305
11
1.6025
21
3.305
0
LINE
8
BLACK
6
CONTINUOUS
10
1.6025
20
3.305
11
1.6025
21
3.27
0
LINE
8
BLACK
6
CONTINUOUS
10
1.7025
20
3.27
11
1.6475
21
3.27
0
LINE
8
BLACK
6
CONTINUOUS
10
1.6475
20
3.27
11
1.6475
21
3.305
0
LINE
8
BLACK
6
CONTINUOUS
10
1.6475
20
3.305
11
1.7025
21
3.305
0
LINE
8
BLACK
6
CONTINUOUS
10
1.7025
20
3.305
11
1.7025
21
3.27
0
LINE
8
BLACK
6
CONTINUOUS
10
2.03012
20
3.27717
11
1.97106
21
3.27717
0
LINE
8
BLACK
6
CONTINUOUS
10
1.97106
20
3.27717
11
1.97106
21
3.29882
0
LINE
8
BLACK
6
CONTINUOUS
10
1.97106
20
3.29882
11
2.03012
21
3.29882
0
LINE
8
BLACK
6
CONTINUOUS
10
2.03012
20
3.29882
11
2.03012
21
3.27717
0
LINE
8
BLACK
6
CONTINUOUS
10
2.47894
20
3.27717
11
2.41988
21
3.27717
0
LINE
8
BLACK
6
CONTINUOUS
10
2.41988
20
3.27717
11
2.41988
21
3.29882
0
LINE
8
BLACK
6
CONTINUOUS
10
2.41988
20
3.29882
11
2.47894
21
3.29882
0
LINE
8
BLACK
6
CONTINUOUS
10
2.47894
20
3.29882
11
2.47894
21
3.27717
0
LINE
8
BLACK
6
CONTINUOUS
10
1.315
20
3.295
11
1.26
21
3.295
0
LINE
8
BLACK
6
CONTINUOUS
10
1.26
20
3.295
11
1.26
21
3.33
0
LINE
8
BLACK
6
CONTINUOUS
10
1.26
20
3.33
11
1.315
21
3.33
0
LINE
8
BLACK
6
CONTINUOUS
10
1.315
20
3.33
11
1.315
21
3.295
0
LINE
8
BLACK
6
CONTINUOUS
10
2.03012
20
3.30866
11
1.97106
21
3.30866
0
LINE
8
BLACK
6
CONTINUOUS
10
1.97106
20
3.30866
11
1.97106
21
3.33031
0
LINE
8
BLACK
6
CONTINUOUS
10
1.97106
20
3.33031
11
2.03012
21
3.33031
0
LINE
8
BLACK
6
CONTINUOUS
10
2.03012
20
3.33031
11
2.03012
21
3.30866
0
LINE
8
BLACK
6
CONTINUOUS
10
2.47894
20
3.30866
11
2.41988
21
3.30866
0
LINE
8
BLACK
6
CONTINUOUS
10
2.41988
20
3.30866
11
2.41988
21
3.33031
0
LINE
8
BLACK
6
CONTINUOUS
10
2.41988
20
3.33031
11
2.47894
21
3.33031
0
LINE
8
BLACK
6
CONTINUOUS
10
2.47894
20
3.33031
11
2.47894
21
3.30866
0
LINE
8
BLACK
6
CONTINUOUS
10
1.20896
20
3.30935
11
1.17352
21
3.30935
0
LINE
8
BLACK
6
CONTINUOUS
10
1.17352
20
3.30935
11
1.17352
21
3.34085
0
LINE
8
BLACK
6
CONTINUOUS
10
1.17352
20
3.34085
11
1.20896
21
3.34085
0
LINE
8
BLACK
6
CONTINUOUS
10
1.20896
20
3.34085
11
1.20896
21
3.30935
0
LINE
8
BLACK
6
CONTINUOUS
10
1.41585
20
3.30935
11
1.38041
21
3.30935
0
LINE
8
BLACK
6
CONTINUOUS
10
1.38041
20
3.30935
11
1.38041
21
3.34085
0
LINE
8
BLACK
6
CONTINUOUS
10
1.38041
20
3.34085
11
1.41585
21
3.34085
0
LINE
8
BLACK
6
CONTINUOUS
10
1.41585
20
3.34085
11
1.41585
21
3.30935
0
LINE
8
BLACK
6
CONTINUOUS
10
2.7275
20
3.32
11
2.6725
21
3.32
0
LINE
8
BLACK
6
CONTINUOUS
10
2.6725
20
3.32
11
2.6725
21
3.355
0
LINE
8
BLACK
6
CONTINUOUS
10
2.6725
20
3.355
11
2.7275
21
3.355
0
LINE
8
BLACK
6
CONTINUOUS
10
2.7275
20
3.355
11
2.7275
21
3.32
0
LINE
8
BLACK
6
CONTINUOUS
10
2.8275
20
3.32
11
2.7725
21
3.32
0
LINE
8
BLACK
6
CONTINUOUS
10
2.7725
20
3.32
11
2.7725
21
3.355
0
LINE
8
BLACK
6
CONTINUOUS
10
2.7725
20
3.355
11
2.8275
21
3.355
0
LINE
8
BLACK
6
CONTINUOUS
10
2.8275
20
3.355
11
2.8275
21
3.32
0
LINE
8
BLACK
6
CONTINUOUS
10
2.03012
20
3.34016
11
1.97106
21
3.34016
0
LINE
8
BLACK
6
CONTINUOUS
10
1.97106
20
3.34016
11
1.97106
21
3.36181
0
LINE
8
BLACK
6
CONTINUOUS
10
1.97106
20
3.36181
11
2.03012
21
3.36181
0
LINE
8
BLACK
6
CONTINUOUS
10
2.03012
20
3.36181
11
2.03012
21
3.34016
0
LINE
8
BLACK
6
CONTINUOUS
10
2.47894
20
3.34016
11
2.41988
21
3.34016
0
LINE
8
BLACK
6
CONTINUOUS
10
2.41988
20
3.34016
11
2.41988
21
3.36181
0
LINE
8
BLACK
6
CONTINUOUS
10
2.41988
20
3.36181
11
2.47894
21
3.36181
0
LINE
8
BLACK
6
CONTINUOUS
10
2.47894
20
3.36181
11
2.47894
21
3.34016
0
LINE
8
BLACK
6
CONTINUOUS
10
1.13022
20
3.34675
11
1.09478
21
3.34675
0
LINE
8
BLACK
6
CONTINUOUS
10
1.09478
20
3.34675
11
1.09478
21
3.37825
0
LINE
8
BLACK
6
CONTINUOUS
10
1.09478
20
3.37825
11
1.13022
21
3.37825
0
LINE
8
BLACK
6
CONTINUOUS
10
1.13022
20
3.37825
11
1.13022
21
3.34675
0
LINE
8
BLACK
6
CONTINUOUS
10
1.49459
20
3.34675
11
1.45915
21
3.34675
0
LINE
8
BLACK
6
CONTINUOUS
10
1.45915
20
3.34675
11
1.45915
21
3.37825
0
LINE
8
BLACK
6
CONTINUOUS
10
1.45915
20
3.37825
11
1.49459
21
3.37825
0
LINE
8
BLACK
6
CONTINUOUS
10
1.49459
20
3.37825
11
1.49459
21
3.34675
0
LINE
8
BLACK
6
CONTINUOUS
10
1.315
20
3.37
11
1.26
21
3.37
0
LINE
8
BLACK
6
CONTINUOUS
10
1.26
20
3.37
11
1.26
21
3.405
0
LINE
8
BLACK
6
CONTINUOUS
10
1.26
20
3.405
11
1.315
21
3.405
0
LINE
8
BLACK
6
CONTINUOUS
10
1.315
20
3.405
11
1.315
21
3.37
0
LINE
8
BLACK
6
CONTINUOUS
10
2.03012
20
3.37165
11
1.97106
21
3.37165
0
LINE
8
BLACK
6
CONTINUOUS
10
1.97106
20
3.37165
11
1.97106
21
3.39331
0
LINE
8
BLACK
6
CONTINUOUS
10
1.97106
20
3.39331
11
2.03012
21
3.39331
0
LINE
8
BLACK
6
CONTINUOUS
10
2.03012
20
3.39331
11
2.03012
21
3.37165
0
LINE
8
BLACK
6
CONTINUOUS
10
2.47894
20
3.37165
11
2.41988
21
3.37165
0
LINE
8
BLACK
6
CONTINUOUS
10
2.41988
20
3.37165
11
2.41988
21
3.39331
0
LINE
8
BLACK
6
CONTINUOUS
10
2.41988
20
3.39331
11
2.47894
21
3.39331
0
LINE
8
BLACK
6
CONTINUOUS
10
2.47894
20
3.39331
11
2.47894
21
3.37165
0
LINE
8
BLACK
6
CONTINUOUS
10
1.20896
20
3.38415
11
1.17352
21
3.38415
0
LINE
8
BLACK
6
CONTINUOUS
10
1.17352
20
3.38415
11
1.17352
21
3.41565
0
LINE
8
BLACK
6
CONTINUOUS
10
1.17352
20
3.41565
11
1.20896
21
3.41565
0
LINE
8
BLACK
6
CONTINUOUS
10
1.20896
20
3.41565
11
1.20896
21
3.38415
0
LINE
8
BLACK
6
CONTINUOUS
10
1.41585
20
3.38415
11
1.38041
21
3.38415
0
LINE
8
BLACK
6
CONTINUOUS
10
1.38041
20
3.38415
11
1.38041
21
3.41565
0
LINE
8
BLACK
6
CONTINUOUS
10
1.38041
20
3.41565
11
1.41585
21
3.41565
0
LINE
8
BLACK
6
CONTINUOUS
10
1.41585
20
3.41565
11
1.41585
21
3.38415
0
LINE
8
BLACK
6
CONTINUOUS
10
2.07835
20
3.41988
11
2.05669
21
3.41988
0
LINE
8
BLACK
6
CONTINUOUS
10
2.05669
20
3.41988
11
2.05669
21
3.47894
0
LINE
8
BLACK
6
CONTINUOUS
10
2.05669
20
3.47894
11
2.07835
21
3.47894
0
LINE
8
BLACK
6
CONTINUOUS
10
2.07835
20
3.47894
11
2.07835
21
3.41988
0
LINE
8
BLACK
6
CONTINUOUS
10
2.10984
20
3.41988
11
2.08819
21
3.41988
0
LINE
8
BLACK
6
CONTINUOUS
10
2.08819
20
3.41988
11
2.08819
21
3.47894
0
LINE
8
BLACK
6
CONTINUOUS
10
2.08819
20
3.47894
11
2.10984
21
3.47894
0
LINE
8
BLACK
6
CONTINUOUS
10
2.10984
20
3.47894
11
2.10984
21
3.41988
0
LINE
8
BLACK
6
CONTINUOUS
10
2.14134
20
3.41988
11
2.11969
21
3.41988
0
LINE
8
BLACK
6
CONTINUOUS
10
2.11969
20
3.41988
11
2.11969
21
3.47894
0
LINE
8
BLACK
6
CONTINUOUS
10
2.11969
20
3.47894
11
2.14134
21
3.47894
0
LINE
8
BLACK
6
CONTINUOUS
10
2.14134
20
3.47894
11
2.14134
21
3.41988
0
LINE
8
BLACK
6
CONTINUOUS
10
2.17283
20
3.41988
11
2.15118
21
3.41988
0
LINE
8
BLACK
6
CONTINUOUS
10
2.15118
20
3.41988
11
2.15118
21
3.47894
0
LINE
8
BLACK
6
CONTINUOUS
10
2.15118
20
3.47894
11
2.17283
21
3.47894
0
LINE
8
BLACK
6
CONTINUOUS
10
2.17283
20
3.47894
11
2.17283
21
3.41988
0
LINE
8
BLACK
6
CONTINUOUS
10
2.20433
20
3.41988
11
2.18268
21
3.41988
0
LINE
8
BLACK
6
CONTINUOUS
10
2.18268
20
3.41988
11
2.18268
21
3.47894
0
LINE
8
BLACK
6
CONTINUOUS
10
2.18268
20
3.47894
11
2.20433
21
3.47894
0
LINE
8
BLACK
6
CONTINUOUS
10
2.20433
20
3.47894
11
2.20433
21
3.41988
0
LINE
8
BLACK
6
CONTINUOUS
10
2.23583
20
3.41988
11
2.21417
21
3.41988
0
LINE
8
BLACK
6
CONTINUOUS
10
2.21417
20
3.41988
11
2.21417
21
3.47894
0
LINE
8
BLACK
6
CONTINUOUS
10
2.21417
20
3.47894
11
2.23583
21
3.47894
0
LINE
8
BLACK
6
CONTINUOUS
10
2.23583
20
3.47894
11
2.23583
21
3.41988
0
LINE
8
BLACK
6
CONTINUOUS
10
2.26732
20
3.41988
11
2.24567
21
3.41988
0
LINE
8
BLACK
6
CONTINUOUS
10
2.24567
20
3.41988
11
2.24567
21
3.47894
0
LINE
8
BLACK
6
CONTINUOUS
10
2.24567
20
3.47894
11
2.26732
21
3.47894
0
LINE
8
BLACK
6
CONTINUOUS
10
2.26732
20
3.47894
11
2.26732
21
3.41988
0
LINE
8
BLACK
6
CONTINUOUS
10
2.29882
20
3.41988
11
2.27717
21
3.41988
0
LINE
8
BLACK
6
CONTINUOUS
10
2.27717
20
3.41988
11
2.27717
21
3.47894
0
LINE
8
BLACK
6
CONTINUOUS
10
2.27717
20
3.47894
11
2.29882
21
3.47894
0
LINE
8
BLACK
6
CONTINUOUS
10
2.29882
20
3.47894
11
2.29882
21
3.41988
0
LINE
8
BLACK
6
CONTINUOUS
10
2.33031
20
3.41988
11
2.30866
21
3.41988
0
LINE
8
BLACK
6
CONTINUOUS
10
2.30866
20
3.41988
11
2.30866
21
3.47894
0
LINE
8
BLACK
6
CONTINUOUS
10
2.30866
20
3.47894
11
2.33031
21
3.47894
0
LINE
8
BLACK
6
CONTINUOUS
10
2.33031
20
3.47894
11
2.33031
21
3.41988
0
LINE
8
BLACK
6
CONTINUOUS
10
2.36181
20
3.41988
11
2.34016
21
3.41988
0
LINE
8
BLACK
6
CONTINUOUS
10
2.34016
20
3.41988
11
2.34016
21
3.47894
0
LINE
8
BLACK
6
CONTINUOUS
10
2.34016
20
3.47894
11
2.36181
21
3.47894
0
LINE
8
BLACK
6
CONTINUOUS
10
2.36181
20
3.47894
11
2.36181
21
3.41988
0
LINE
8
BLACK
6
CONTINUOUS
10
2.39331
20
3.41988
11
2.37165
21
3.41988
0
LINE
8
BLACK
6
CONTINUOUS
10
2.37165
20
3.41988
11
2.37165
21
3.47894
0
LINE
8
BLACK
6
CONTINUOUS
10
2.37165
20
3.47894
11
2.39331
21
3.47894
0
LINE
8
BLACK
6
CONTINUOUS
10
2.39331
20
3.47894
11
2.39331
21
3.41988
0
LINE
8
BLACK
6
CONTINUOUS
10
1.43
20
3.4475
11
1.395
21
3.4475
0
LINE
8
BLACK
6
CONTINUOUS
10
1.395
20
3.4475
11
1.395
21
3.5025
0
LINE
8
BLACK
6
CONTINUOUS
10
1.395
20
3.5025
11
1.43
21
3.5025
0
LINE
8
BLACK
6
CONTINUOUS
10
1.43
20
3.5025
11
1.43
21
3.4475
0
LINE
8
BLACK
6
CONTINUOUS
10
1.505
20
3.4475
11
1.47
21
3.4475
0
LINE
8
BLACK
6
CONTINUOUS
10
1.47
20
3.4475
11
1.47
21
3.5025
0
LINE
8
BLACK
6
CONTINUOUS
10
1.47
20
3.5025
11
1.505
21
3.5025
0
LINE
8
BLACK
6
CONTINUOUS
10
1.505
20
3.5025
11
1.505
21
3.4475
0
LINE
8
BLACK
6
CONTINUOUS
10
2.2175
20
3.5225
11
2.1825
21
3.5225
0
LINE
8
BLACK
6
CONTINUOUS
10
2.1825
20
3.5225
11
2.1825
21
3.5775
0
LINE
8
BLACK
6
CONTINUOUS
10
2.1825
20
3.5775
11
2.2175
21
3.5775
0
LINE
8
BLACK
6
CONTINUOUS
10
2.2175
20
3.5775
11
2.2175
21
3.5225
0
LINE
8
BLACK
6
CONTINUOUS
10
2.2925
20
3.5225
11
2.2575
21
3.5225
0
LINE
8
BLACK
6
CONTINUOUS
10
2.2575
20
3.5225
11
2.2575
21
3.5775
0
LINE
8
BLACK
6
CONTINUOUS
10
2.2575
20
3.5775
11
2.2925
21
3.5775
0
LINE
8
BLACK
6
CONTINUOUS
10
2.2925
20
3.5775
11
2.2925
21
3.5225
  0
ENDSEC
  0
EOF
