  0
SECTION
  2
HEADER
  9
$ANGBASE
  50
0.0
  9
$ANGDIR
  70
1
  9
$MEASUREMENT
  70
0
  0
ENDSEC
  0
SECTION
  2
TABLES
  0
TABLE
  2
LTYPE
  70
4
  0
LTYPE
  5
40F
  2
CONTINUOUS
  70
0
  3
Solid line
  72
65
  73
0
  40
0.0
  0
LTYPE
  5
410
  2
DASHDOT
 70
0
  3
Dash Dot ____ _ ____ _
 72
65
 73
4
 40
2.0
 49
1.25
 49
-0.25
 49
0.25
 49
-0.25
  0
LTYPE
  5
411
  2
DASHED
 70
0
  3
Dashed __ __ __ __ __
 72
65
 73
2
 40
0.75
 49
0.5
 49
-0.25
  0
LTYPE
  5
43B
  2
DOTTED
 70
0
  3
Dotted .  .  .  .
 72
65
 73
2
 40
0.2
 49
0.0
 49
-0.2
  0
ENDTAB
  0
TABLE
  2
STYLE
  70
4
  0
STYLE
  2
KICAD
  70
0
  40
0
  41
1
  42
1
  50
0
  71
0
  3
isocp.shx
  0
STYLE
  2
KICADB
  70
0
  40
0
  41
1
  42
1
  50
0
  71
0
  3
isocp.shx
  0
STYLE
  2
KICADI
  70
0
  40
0
  41
1
  42
1
  50
15
  71
0
  3
isocp.shx
  0
STYLE
  2
KICADBI
  70
0
  40
0
  41
1
  42
1
  50
15
  71
0
  3
isocp.shx
  0
ENDTAB
  0
TABLE
  2
LAYER
  70
1
  0
LAYER
  2
BLACK
  70
0
  62
7
  6
CONTINUOUS
  0
ENDTAB
  0
ENDSEC
  0
SECTION
  2
ENTITIES
0
LINE
8
BLACK
6
CONTINUOUS
10
2.22052
20
0.148793
11
2.23005
21
0.147096
0
LINE
8
BLACK
6
CONTINUOUS
10
2.23005
20
0.147096
11
2.23917
21
0.143865
0
LINE
8
BLACK
6
CONTINUOUS
10
2.23917
20
0.143865
11
2.24764
21
0.139188
0
LINE
8
BLACK
6
CONTINUOUS
10
2.24764
20
0.139188
11
2.25524
21
0.13319
0
LINE
8
BLACK
6
CONTINUOUS
10
2.25524
20
0.13319
11
2.26175
21
0.126032
0
LINE
8
BLACK
6
CONTINUOUS
10
2.26175
20
0.126032
11
2.26701
21
0.117907
0
LINE
8
BLACK
6
CONTINUOUS
10
2.26701
20
0.117907
11
2.27087
21
0.109031
0
LINE
8
BLACK
6
CONTINUOUS
10
2.27087
20
0.109031
11
2.27322
21
0.0996452
0
LINE
8
BLACK
6
CONTINUOUS
10
2.27322
20
0.0996452
11
2.27402
21
0.09
0
LINE
8
BLACK
6
CONTINUOUS
10
2.27402
20
0.09
11
2.27395
21
0.0871152
0
LINE
8
BLACK
6
CONTINUOUS
10
2.27395
20
0.0871152
11
2.27268
21
0.0775202
0
LINE
8
BLACK
6
CONTINUOUS
10
2.27268
20
0.0775202
11
2.26987
21
0.0682604
0
LINE
8
BLACK
6
CONTINUOUS
10
2.26987
20
0.0682604
11
2.26558
21
0.0595844
0
LINE
8
BLACK
6
CONTINUOUS
10
2.26558
20
0.0595844
11
2.25993
21
0.0517252
0
LINE
8
BLACK
6
CONTINUOUS
10
2.25993
20
0.0517252
11
2.25308
21
0.0448939
0
LINE
8
BLACK
6
CONTINUOUS
10
2.25308
20
0.0448939
11
2.2452
21
0.039274
0
LINE
8
BLACK
6
CONTINUOUS
10
2.2452
20
0.039274
11
2.23651
21
0.0350164
0
LINE
8
BLACK
6
CONTINUOUS
10
2.23651
20
0.0350164
11
2.22724
21
0.0322354
0
LINE
8
BLACK
6
CONTINUOUS
10
2.22724
20
0.0322354
11
2.21764
21
0.0310057
0
LINE
8
BLACK
6
CONTINUOUS
10
2.21764
20
0.0310057
11
2.20797
21
0.0313603
0
LINE
8
BLACK
6
CONTINUOUS
10
2.20797
20
0.0313603
11
2.19848
21
0.0332897
0
LINE
8
BLACK
6
CONTINUOUS
10
2.19848
20
0.0332897
11
2.18944
21
0.0367422
0
LINE
8
BLACK
6
CONTINUOUS
10
2.18944
20
0.0367422
11
2.18109
21
0.0416249
0
LINE
8
BLACK
6
CONTINUOUS
10
2.18109
20
0.0416249
11
2.17364
21
0.0478067
0
LINE
8
BLACK
6
CONTINUOUS
10
2.17364
20
0.0478067
11
2.16731
21
0.0551217
0
LINE
8
BLACK
6
CONTINUOUS
10
2.16731
20
0.0551217
11
2.16225
21
0.0633734
0
LINE
8
BLACK
6
CONTINUOUS
10
2.16225
20
0.0633734
11
2.15861
21
0.0723401
0
LINE
8
BLACK
6
CONTINUOUS
10
2.15861
20
0.0723401
11
2.15648
21
0.0817811
0
LINE
8
BLACK
6
CONTINUOUS
10
2.15648
20
0.0817811
11
2.15592
21
0.0914428
0
LINE
8
BLACK
6
CONTINUOUS
10
2.15592
20
0.0914428
11
2.15695
21
0.101066
0
LINE
8
BLACK
6
CONTINUOUS
10
2.15695
20
0.101066
11
2.15954
21
0.110392
0
LINE
8
BLACK
6
CONTINUOUS
10
2.15954
20
0.110392
11
2.16361
21
0.11917
0
LINE
8
BLACK
6
CONTINUOUS
10
2.16361
20
0.11917
11
2.16907
21
0.127165
0
LINE
8
BLACK
6
CONTINUOUS
10
2.16907
20
0.127165
11
2.17575
21
0.134161
0
LINE
8
BLACK
6
CONTINUOUS
10
2.17575
20
0.134161
11
2.18349
21
0.139972
0
LINE
8
BLACK
6
CONTINUOUS
10
2.18349
20
0.139972
11
2.19208
21
0.144441
0
LINE
8
BLACK
6
CONTINUOUS
10
2.19208
20
0.144441
11
2.20127
21
0.147447
0
LINE
8
BLACK
6
CONTINUOUS
10
2.20127
20
0.147447
11
2.21084
21
0.148911
0
LINE
8
BLACK
6
CONTINUOUS
10
2.21084
20
0.148911
11
2.22052
21
0.148793
0
LINE
8
BLACK
6
CONTINUOUS
10
2.7406
20
0.148793
11
2.75012
21
0.147096
0
LINE
8
BLACK
6
CONTINUOUS
10
2.75012
20
0.147096
11
2.75925
21
0.143865
0
LINE
8
BLACK
6
CONTINUOUS
10
2.75925
20
0.143865
11
2.76772
21
0.139188
0
LINE
8
BLACK
6
CONTINUOUS
10
2.76772
20
0.139188
11
2.77531
21
0.13319
0
LINE
8
BLACK
6
CONTINUOUS
10
2.77531
20
0.13319
11
2.78183
21
0.126032
0
LINE
8
BLACK
6
CONTINUOUS
10
2.78183
20
0.126032
11
2.78708
21
0.117907
0
LINE
8
BLACK
6
CONTINUOUS
10
2.78708
20
0.117907
11
2.79094
21
0.109031
0
LINE
8
BLACK
6
CONTINUOUS
10
2.79094
20
0.109031
11
2.7933
21
0.0996452
0
LINE
8
BLACK
6
CONTINUOUS
10
2.7933
20
0.0996452
11
2.79409
21
0.09
0
LINE
8
BLACK
6
CONTINUOUS
10
2.79409
20
0.09
11
2.79402
21
0.0871152
0
LINE
8
BLACK
6
CONTINUOUS
10
2.79402
20
0.0871152
11
2.79276
21
0.0775202
0
LINE
8
BLACK
6
CONTINUOUS
10
2.79276
20
0.0775202
11
2.78995
21
0.0682604
0
LINE
8
BLACK
6
CONTINUOUS
10
2.78995
20
0.0682604
11
2.78566
21
0.0595844
0
LINE
8
BLACK
6
CONTINUOUS
10
2.78566
20
0.0595844
11
2.78001
21
0.0517252
0
LINE
8
BLACK
6
CONTINUOUS
10
2.78001
20
0.0517252
11
2.77316
21
0.0448939
0
LINE
8
BLACK
6
CONTINUOUS
10
2.77316
20
0.0448939
11
2.76528
21
0.039274
0
LINE
8
BLACK
6
CONTINUOUS
10
2.76528
20
0.039274
11
2.75659
21
0.0350164
0
LINE
8
BLACK
6
CONTINUOUS
10
2.75659
20
0.0350164
11
2.74732
21
0.0322354
0
LINE
8
BLACK
6
CONTINUOUS
10
2.74732
20
0.0322354
11
2.73772
21
0.0310057
0
LINE
8
BLACK
6
CONTINUOUS
10
2.73772
20
0.0310057
11
2.72805
21
0.0313603
0
LINE
8
BLACK
6
CONTINUOUS
10
2.72805
20
0.0313603
11
2.71856
21
0.0332897
0
LINE
8
BLACK
6
CONTINUOUS
10
2.71856
20
0.0332897
11
2.70952
21
0.0367422
0
LINE
8
BLACK
6
CONTINUOUS
10
2.70952
20
0.0367422
11
2.70117
21
0.0416249
0
LINE
8
BLACK
6
CONTINUOUS
10
2.70117
20
0.0416249
11
2.69372
21
0.0478067
0
LINE
8
BLACK
6
CONTINUOUS
10
2.69372
20
0.0478067
11
2.68738
21
0.0551217
0
LINE
8
BLACK
6
CONTINUOUS
10
2.68738
20
0.0551217
11
2.68233
21
0.0633734
0
LINE
8
BLACK
6
CONTINUOUS
10
2.68233
20
0.0633734
11
2.67869
21
0.0723401
0
LINE
8
BLACK
6
CONTINUOUS
10
2.67869
20
0.0723401
11
2.67656
21
0.0817811
0
LINE
8
BLACK
6
CONTINUOUS
10
2.67656
20
0.0817811
11
2.676
21
0.0914428
0
LINE
8
BLACK
6
CONTINUOUS
10
2.676
20
0.0914428
11
2.67703
21
0.101066
0
LINE
8
BLACK
6
CONTINUOUS
10
2.67703
20
0.101066
11
2.67962
21
0.110392
0
LINE
8
BLACK
6
CONTINUOUS
10
2.67962
20
0.110392
11
2.68369
21
0.11917
0
LINE
8
BLACK
6
CONTINUOUS
10
2.68369
20
0.11917
11
2.68914
21
0.127165
0
LINE
8
BLACK
6
CONTINUOUS
10
2.68914
20
0.127165
11
2.69583
21
0.134161
0
LINE
8
BLACK
6
CONTINUOUS
10
2.69583
20
0.134161
11
2.70357
21
0.139972
0
LINE
8
BLACK
6
CONTINUOUS
10
2.70357
20
0.139972
11
2.71215
21
0.144441
0
LINE
8
BLACK
6
CONTINUOUS
10
2.71215
20
0.144441
11
2.72135
21
0.147447
0
LINE
8
BLACK
6
CONTINUOUS
10
2.72135
20
0.147447
11
2.73092
21
0.148911
0
LINE
8
BLACK
6
CONTINUOUS
10
2.73092
20
0.148911
11
2.7406
21
0.148793
0
LINE
8
BLACK
6
CONTINUOUS
10
0.20865
20
0.317793
11
0.222132
21
0.316018
0
LINE
8
BLACK
6
CONTINUOUS
10
0.222132
20
0.316018
11
0.23532
21
0.312706
0
LINE
8
BLACK
6
CONTINUOUS
10
0.23532
20
0.312706
11
0.24804
21
0.307899
0
LINE
8
BLACK
6
CONTINUOUS
10
0.24804
20
0.307899
11
0.260123
21
0.301662
0
LINE
8
BLACK
6
CONTINUOUS
10
0.260123
20
0.301662
11
0.271409
21
0.294078
0
LINE
8
BLACK
6
CONTINUOUS
10
0.271409
20
0.294078
11
0.281749
21
0.285247
0
LINE
8
BLACK
6
CONTINUOUS
10
0.281749
20
0.285247
11
0.291006
21
0.275286
0
LINE
8
BLACK
6
CONTINUOUS
10
0.291006
20
0.275286
11
0.299056
21
0.264327
0
LINE
8
BLACK
6
CONTINUOUS
10
0.299056
20
0.264327
11
0.305793
21
0.252516
0
LINE
8
BLACK
6
CONTINUOUS
10
0.305793
20
0.252516
11
0.311128
21
0.240008
0
LINE
8
BLACK
6
CONTINUOUS
10
0.311128
20
0.240008
11
0.31499
21
0.226971
0
LINE
8
BLACK
6
CONTINUOUS
10
0.31499
20
0.226971
11
0.317327
21
0.213575
0
LINE
8
BLACK
6
CONTINUOUS
10
0.317327
20
0.213575
11
0.31811
21
0.2
0
LINE
8
BLACK
6
CONTINUOUS
10
0.31811
20
0.2
11
0.317877
21
0.192584
0
LINE
8
BLACK
6
CONTINUOUS
10
0.317877
20
0.192584
11
0.316244
21
0.179084
0
LINE
8
BLACK
6
CONTINUOUS
10
0.316244
20
0.179084
11
0.313069
21
0.165862
0
LINE
8
BLACK
6
CONTINUOUS
10
0.313069
20
0.165862
11
0.308396
21
0.153093
0
LINE
8
BLACK
6
CONTINUOUS
10
0.308396
20
0.153093
11
0.302286
21
0.140945
0
LINE
8
BLACK
6
CONTINUOUS
10
0.302286
20
0.140945
11
0.294821
21
0.12958
0
LINE
8
BLACK
6
CONTINUOUS
10
0.294821
20
0.12958
11
0.286099
21
0.119148
0
LINE
8
BLACK
6
CONTINUOUS
10
0.286099
20
0.119148
11
0.276235
21
0.109788
0
LINE
8
BLACK
6
CONTINUOUS
10
0.276235
20
0.109788
11
0.265361
21
0.101623
0
LINE
8
BLACK
6
CONTINUOUS
10
0.265361
20
0.101623
11
0.253621
21
0.094763
0
LINE
8
BLACK
6
CONTINUOUS
10
0.253621
20
0.094763
11
0.24117
21
0.0892974
0
LINE
8
BLACK
6
CONTINUOUS
10
0.24117
20
0.0892974
11
0.228173
21
0.0852991
0
LINE
8
BLACK
6
CONTINUOUS
10
0.228173
20
0.0852991
11
0.214803
21
0.0828211
0
LINE
8
BLACK
6
CONTINUOUS
10
0.214803
20
0.0828211
11
0.201237
21
0.0818962
0
LINE
8
BLACK
6
CONTINUOUS
10
0.201237
20
0.0818962
11
0.187654
21
0.0825368
0
LINE
8
BLACK
6
CONTINUOUS
10
0.187654
20
0.0825368
11
0.174235
21
0.0847343
0
LINE
8
BLACK
6
CONTINUOUS
10
0.174235
20
0.0847343
11
0.161157
21
0.0884595
0
LINE
8
BLACK
6
CONTINUOUS
10
0.161157
20
0.0884595
11
0.148595
21
0.0936631
0
LINE
8
BLACK
6
CONTINUOUS
10
0.148595
20
0.0936631
11
0.136713
21
0.100276
0
LINE
8
BLACK
6
CONTINUOUS
10
0.136713
20
0.100276
11
0.125671
21
0.108211
0
LINE
8
BLACK
6
CONTINUOUS
10
0.125671
20
0.108211
11
0.115613
21
0.117363
0
LINE
8
BLACK
6
CONTINUOUS
10
0.115613
20
0.117363
11
0.106675
21
0.127609
0
LINE
8
BLACK
6
CONTINUOUS
10
0.106675
20
0.127609
11
0.0989727
21
0.138816
0
LINE
8
BLACK
6
CONTINUOUS
10
0.0989727
20
0.138816
11
0.0926099
21
0.150833
0
LINE
8
BLACK
6
CONTINUOUS
10
0.0926099
20
0.150833
11
0.0876705
21
0.163502
0
LINE
8
BLACK
6
CONTINUOUS
10
0.0876705
20
0.163502
11
0.0842199
21
0.176655
0
LINE
8
BLACK
6
CONTINUOUS
10
0.0842199
20
0.176655
11
0.082304
21
0.190117
0
LINE
8
BLACK
6
CONTINUOUS
10
0.082304
20
0.190117
11
0.081948
21
0.20371
0
LINE
8
BLACK
6
CONTINUOUS
10
0.081948
20
0.20371
11
0.0831568
21
0.217254
0
LINE
8
BLACK
6
CONTINUOUS
10
0.0831568
20
0.217254
11
0.0859143
21
0.230569
0
LINE
8
BLACK
6
CONTINUOUS
10
0.0859143
20
0.230569
11
0.0901839
21
0.243479
0
LINE
8
BLACK
6
CONTINUOUS
10
0.0901839
20
0.243479
11
0.0959091
21
0.255813
0
LINE
8
BLACK
6
CONTINUOUS
10
0.0959091
20
0.255813
11
0.103014
21
0.267407
0
LINE
8
BLACK
6
CONTINUOUS
10
0.103014
20
0.267407
11
0.111404
21
0.278108
0
LINE
8
BLACK
6
CONTINUOUS
10
0.111404
20
0.278108
11
0.120969
21
0.287773
0
LINE
8
BLACK
6
CONTINUOUS
10
0.120969
20
0.287773
11
0.131581
21
0.296275
0
LINE
8
BLACK
6
CONTINUOUS
10
0.131581
20
0.296275
11
0.1431
21
0.303501
0
LINE
8
BLACK
6
CONTINUOUS
10
0.1431
20
0.303501
11
0.155373
21
0.309355
0
LINE
8
BLACK
6
CONTINUOUS
10
0.155373
20
0.309355
11
0.168238
21
0.313759
0
LINE
8
BLACK
6
CONTINUOUS
10
0.168238
20
0.313759
11
0.181524
21
0.316656
0
LINE
8
BLACK
6
CONTINUOUS
10
0.181524
20
0.316656
11
0.195054
21
0.318007
0
LINE
8
BLACK
6
CONTINUOUS
10
0.195054
20
0.318007
11
0.20865
21
0.317793
0
LINE
8
BLACK
6
CONTINUOUS
10
0.510433
20
0.164567
11
0.439567
21
0.164567
0
LINE
8
BLACK
6
CONTINUOUS
10
0.439567
20
0.164567
11
0.439567
21
0.235433
0
LINE
8
BLACK
6
CONTINUOUS
10
0.439567
20
0.235433
11
0.510433
21
0.235433
0
LINE
8
BLACK
6
CONTINUOUS
10
0.510433
20
0.235433
11
0.510433
21
0.164567
0
LINE
8
BLACK
6
CONTINUOUS
10
0.585949
20
0.233699
11
0.592717
21
0.230686
0
LINE
8
BLACK
6
CONTINUOUS
10
0.592717
20
0.230686
11
0.598709
21
0.226332
0
LINE
8
BLACK
6
CONTINUOUS
10
0.598709
20
0.226332
11
0.603666
21
0.220827
0
LINE
8
BLACK
6
CONTINUOUS
10
0.603666
20
0.220827
11
0.60737
21
0.214412
0
LINE
8
BLACK
6
CONTINUOUS
10
0.60737
20
0.214412
11
0.609659
21
0.207367
0
LINE
8
BLACK
6
CONTINUOUS
10
0.609659
20
0.207367
11
0.610433
21
0.2
0
LINE
8
BLACK
6
CONTINUOUS
10
0.610433
20
0.2
11
0.609659
21
0.192633
0
LINE
8
BLACK
6
CONTINUOUS
10
0.609659
20
0.192633
11
0.60737
21
0.185588
0
LINE
8
BLACK
6
CONTINUOUS
10
0.60737
20
0.185588
11
0.603666
21
0.179173
0
LINE
8
BLACK
6
CONTINUOUS
10
0.603666
20
0.179173
11
0.598709
21
0.173668
0
LINE
8
BLACK
6
CONTINUOUS
10
0.598709
20
0.173668
11
0.592717
21
0.169314
0
LINE
8
BLACK
6
CONTINUOUS
10
0.592717
20
0.169314
11
0.585949
21
0.166301
0
LINE
8
BLACK
6
CONTINUOUS
10
0.585949
20
0.166301
11
0.578704
21
0.164761
0
LINE
8
BLACK
6
CONTINUOUS
10
0.578704
20
0.164761
11
0.571296
21
0.164761
0
LINE
8
BLACK
6
CONTINUOUS
10
0.571296
20
0.164761
11
0.564051
21
0.166301
0
LINE
8
BLACK
6
CONTINUOUS
10
0.564051
20
0.166301
11
0.557283
21
0.169314
0
LINE
8
BLACK
6
CONTINUOUS
10
0.557283
20
0.169314
11
0.551291
21
0.173668
0
LINE
8
BLACK
6
CONTINUOUS
10
0.551291
20
0.173668
11
0.546334
21
0.179173
0
LINE
8
BLACK
6
CONTINUOUS
10
0.546334
20
0.179173
11
0.54263
21
0.185588
0
LINE
8
BLACK
6
CONTINUOUS
10
0.54263
20
0.185588
11
0.540341
21
0.192633
0
LINE
8
BLACK
6
CONTINUOUS
10
0.540341
20
0.192633
11
0.539567
21
0.2
0
LINE
8
BLACK
6
CONTINUOUS
10
0.539567
20
0.2
11
0.540341
21
0.207367
0
LINE
8
BLACK
6
CONTINUOUS
10
0.540341
20
0.207367
11
0.54263
21
0.214412
0
LINE
8
BLACK
6
CONTINUOUS
10
0.54263
20
0.214412
11
0.546334
21
0.220827
0
LINE
8
BLACK
6
CONTINUOUS
10
0.546334
20
0.220827
11
0.551291
21
0.226332
0
LINE
8
BLACK
6
CONTINUOUS
10
0.551291
20
0.226332
11
0.557283
21
0.230686
0
LINE
8
BLACK
6
CONTINUOUS
10
0.557283
20
0.230686
11
0.564051
21
0.233699
0
LINE
8
BLACK
6
CONTINUOUS
10
0.564051
20
0.233699
11
0.571296
21
0.235239
0
LINE
8
BLACK
6
CONTINUOUS
10
0.571296
20
0.235239
11
0.578704
21
0.235239
0
LINE
8
BLACK
6
CONTINUOUS
10
0.578704
20
0.235239
11
0.585949
21
0.233699
0
LINE
8
BLACK
6
CONTINUOUS
10
0.805
20
0.22
11
0.745
21
0.22
0
LINE
8
BLACK
6
CONTINUOUS
10
0.745
20
0.22
11
0.745
21
0.28
0
LINE
8
BLACK
6
CONTINUOUS
10
0.745
20
0.28
11
0.805
21
0.28
0
LINE
8
BLACK
6
CONTINUOUS
10
0.805
20
0.28
11
0.805
21
0.22
0
LINE
8
BLACK
6
CONTINUOUS
10
0.805
20
0.32
11
0.745
21
0.32
0
LINE
8
BLACK
6
CONTINUOUS
10
0.745
20
0.32
11
0.745
21
0.38
0
LINE
8
BLACK
6
CONTINUOUS
10
0.745
20
0.38
11
0.805
21
0.38
0
LINE
8
BLACK
6
CONTINUOUS
10
0.805
20
0.38
11
0.805
21
0.32
0
LINE
8
BLACK
6
CONTINUOUS
10
2.6656
20
0.52399
11
2.67512
21
0.522293
0
LINE
8
BLACK
6
CONTINUOUS
10
2.67512
20
0.522293
11
2.68425
21
0.519062
0
LINE
8
BLACK
6
CONTINUOUS
10
2.68425
20
0.519062
11
2.69272
21
0.514385
0
LINE
8
BLACK
6
CONTINUOUS
10
2.69272
20
0.514385
11
2.70031
21
0.508387
0
LINE
8
BLACK
6
CONTINUOUS
10
2.70031
20
0.508387
11
2.70683
21
0.501229
0
LINE
8
BLACK
6
CONTINUOUS
10
2.70683
20
0.501229
11
2.71208
21
0.493103
0
LINE
8
BLACK
6
CONTINUOUS
10
2.71208
20
0.493103
11
2.71594
21
0.484228
0
LINE
8
BLACK
6
CONTINUOUS
10
2.71594
20
0.484228
11
2.7183
21
0.474842
0
LINE
8
BLACK
6
CONTINUOUS
10
2.7183
20
0.474842
11
2.71909
21
0.465197
0
LINE
8
BLACK
6
CONTINUOUS
10
2.71909
20
0.465197
11
2.71902
21
0.462312
0
LINE
8
BLACK
6
CONTINUOUS
10
2.71902
20
0.462312
11
2.71776
21
0.452717
0
LINE
8
BLACK
6
CONTINUOUS
10
2.71776
20
0.452717
11
2.71495
21
0.443457
0
LINE
8
BLACK
6
CONTINUOUS
10
2.71495
20
0.443457
11
2.71066
21
0.434781
0
LINE
8
BLACK
6
CONTINUOUS
10
2.71066
20
0.434781
11
2.70501
21
0.426922
0
LINE
8
BLACK
6
CONTINUOUS
10
2.70501
20
0.426922
11
2.69816
21
0.420091
0
LINE
8
BLACK
6
CONTINUOUS
10
2.69816
20
0.420091
11
2.69028
21
0.414471
0
LINE
8
BLACK
6
CONTINUOUS
10
2.69028
20
0.414471
11
2.68159
21
0.410213
0
LINE
8
BLACK
6
CONTINUOUS
10
2.68159
20
0.410213
11
2.67232
21
0.407432
0
LINE
8
BLACK
6
CONTINUOUS
10
2.67232
20
0.407432
11
2.66272
21
0.406203
0
LINE
8
BLACK
6
CONTINUOUS
10
2.66272
20
0.406203
11
2.65305
21
0.406557
0
LINE
8
BLACK
6
CONTINUOUS
10
2.65305
20
0.406557
11
2.64356
21
0.408487
0
LINE
8
BLACK
6
CONTINUOUS
10
2.64356
20
0.408487
11
2.63452
21
0.411939
0
LINE
8
BLACK
6
CONTINUOUS
10
2.63452
20
0.411939
11
2.62617
21
0.416822
0
LINE
8
BLACK
6
CONTINUOUS
10
2.62617
20
0.416822
11
2.61872
21
0.423004
0
LINE
8
BLACK
6
CONTINUOUS
10
2.61872
20
0.423004
11
2.61238
21
0.430319
0
LINE
8
BLACK
6
CONTINUOUS
10
2.61238
20
0.430319
11
2.60733
21
0.43857
0
LINE
8
BLACK
6
CONTINUOUS
10
2.60733
20
0.43857
11
2.60369
21
0.447537
0
LINE
8
BLACK
6
CONTINUOUS
10
2.60369
20
0.447537
11
2.60156
21
0.456978
0
LINE
8
BLACK
6
CONTINUOUS
10
2.60156
20
0.456978
11
2.601
21
0.46664
0
LINE
8
BLACK
6
CONTINUOUS
10
2.601
20
0.46664
11
2.60203
21
0.476263
0
LINE
8
BLACK
6
CONTINUOUS
10
2.60203
20
0.476263
11
2.60462
21
0.485588
0
LINE
8
BLACK
6
CONTINUOUS
10
2.60462
20
0.485588
11
2.60869
21
0.494367
0
LINE
8
BLACK
6
CONTINUOUS
10
2.60869
20
0.494367
11
2.61414
21
0.502361
0
LINE
8
BLACK
6
CONTINUOUS
10
2.61414
20
0.502361
11
2.62083
21
0.509358
0
LINE
8
BLACK
6
CONTINUOUS
10
2.62083
20
0.509358
11
2.62857
21
0.515169
0
LINE
8
BLACK
6
CONTINUOUS
10
2.62857
20
0.515169
11
2.63715
21
0.519638
0
LINE
8
BLACK
6
CONTINUOUS
10
2.63715
20
0.519638
11
2.64635
21
0.522644
0
LINE
8
BLACK
6
CONTINUOUS
10
2.64635
20
0.522644
11
2.65592
21
0.524108
0
LINE
8
BLACK
6
CONTINUOUS
10
2.65592
20
0.524108
11
2.6656
21
0.52399
0
LINE
8
BLACK
6
CONTINUOUS
10
2.48056
20
0.52399
11
2.49009
21
0.522293
0
LINE
8
BLACK
6
CONTINUOUS
10
2.49009
20
0.522293
11
2.49921
21
0.519062
0
LINE
8
BLACK
6
CONTINUOUS
10
2.49921
20
0.519062
11
2.50768
21
0.514385
0
LINE
8
BLACK
6
CONTINUOUS
10
2.50768
20
0.514385
11
2.51528
21
0.508387
0
LINE
8
BLACK
6
CONTINUOUS
10
2.51528
20
0.508387
11
2.52179
21
0.501229
0
LINE
8
BLACK
6
CONTINUOUS
10
2.52179
20
0.501229
11
2.52705
21
0.493103
0
LINE
8
BLACK
6
CONTINUOUS
10
2.52705
20
0.493103
11
2.5309
21
0.484228
0
LINE
8
BLACK
6
CONTINUOUS
10
2.5309
20
0.484228
11
2.53326
21
0.474842
0
LINE
8
BLACK
6
CONTINUOUS
10
2.53326
20
0.474842
11
2.53406
21
0.465197
0
LINE
8
BLACK
6
CONTINUOUS
10
2.53406
20
0.465197
11
2.53398
21
0.462312
0
LINE
8
BLACK
6
CONTINUOUS
10
2.53398
20
0.462312
11
2.53272
21
0.452717
0
LINE
8
BLACK
6
CONTINUOUS
10
2.53272
20
0.452717
11
2.52991
21
0.443457
0
LINE
8
BLACK
6
CONTINUOUS
10
2.52991
20
0.443457
11
2.52562
21
0.434781
0
LINE
8
BLACK
6
CONTINUOUS
10
2.52562
20
0.434781
11
2.51997
21
0.426922
0
LINE
8
BLACK
6
CONTINUOUS
10
2.51997
20
0.426922
11
2.51312
21
0.420091
0
LINE
8
BLACK
6
CONTINUOUS
10
2.51312
20
0.420091
11
2.50524
21
0.414471
0
LINE
8
BLACK
6
CONTINUOUS
10
2.50524
20
0.414471
11
2.49655
21
0.410213
0
LINE
8
BLACK
6
CONTINUOUS
10
2.49655
20
0.410213
11
2.48728
21
0.407432
0
LINE
8
BLACK
6
CONTINUOUS
10
2.48728
20
0.407432
11
2.47768
21
0.406203
0
LINE
8
BLACK
6
CONTINUOUS
10
2.47768
20
0.406203
11
2.46801
21
0.406557
0
LINE
8
BLACK
6
CONTINUOUS
10
2.46801
20
0.406557
11
2.45852
21
0.408487
0
LINE
8
BLACK
6
CONTINUOUS
10
2.45852
20
0.408487
11
2.44948
21
0.411939
0
LINE
8
BLACK
6
CONTINUOUS
10
2.44948
20
0.411939
11
2.44113
21
0.416822
0
LINE
8
BLACK
6
CONTINUOUS
10
2.44113
20
0.416822
11
2.43368
21
0.423004
0
LINE
8
BLACK
6
CONTINUOUS
10
2.43368
20
0.423004
11
2.42734
21
0.430319
0
LINE
8
BLACK
6
CONTINUOUS
10
2.42734
20
0.430319
11
2.42229
21
0.43857
0
LINE
8
BLACK
6
CONTINUOUS
10
2.42229
20
0.43857
11
2.41865
21
0.447537
0
LINE
8
BLACK
6
CONTINUOUS
10
2.41865
20
0.447537
11
2.41652
21
0.456978
0
LINE
8
BLACK
6
CONTINUOUS
10
2.41652
20
0.456978
11
2.41596
21
0.46664
0
LINE
8
BLACK
6
CONTINUOUS
10
2.41596
20
0.46664
11
2.41699
21
0.476263
0
LINE
8
BLACK
6
CONTINUOUS
10
2.41699
20
0.476263
11
2.41958
21
0.485588
0
LINE
8
BLACK
6
CONTINUOUS
10
2.41958
20
0.485588
11
2.42365
21
0.494367
0
LINE
8
BLACK
6
CONTINUOUS
10
2.42365
20
0.494367
11
2.42911
21
0.502361
0
LINE
8
BLACK
6
CONTINUOUS
10
2.42911
20
0.502361
11
2.43579
21
0.509358
0
LINE
8
BLACK
6
CONTINUOUS
10
2.43579
20
0.509358
11
2.44353
21
0.515169
0
LINE
8
BLACK
6
CONTINUOUS
10
2.44353
20
0.515169
11
2.45212
21
0.519638
0
LINE
8
BLACK
6
CONTINUOUS
10
2.45212
20
0.519638
11
2.46131
21
0.522644
0
LINE
8
BLACK
6
CONTINUOUS
10
2.46131
20
0.522644
11
2.47088
21
0.524108
0
LINE
8
BLACK
6
CONTINUOUS
10
2.47088
20
0.524108
11
2.48056
21
0.52399
0
LINE
8
BLACK
6
CONTINUOUS
10
2.29552
20
0.52399
11
2.30505
21
0.522293
0
LINE
8
BLACK
6
CONTINUOUS
10
2.30505
20
0.522293
11
2.31417
21
0.519062
0
LINE
8
BLACK
6
CONTINUOUS
10
2.31417
20
0.519062
11
2.32264
21
0.514385
0
LINE
8
BLACK
6
CONTINUOUS
10
2.32264
20
0.514385
11
2.33024
21
0.508387
0
LINE
8
BLACK
6
CONTINUOUS
10
2.33024
20
0.508387
11
2.33675
21
0.501229
0
LINE
8
BLACK
6
CONTINUOUS
10
2.33675
20
0.501229
11
2.34201
21
0.493103
0
LINE
8
BLACK
6
CONTINUOUS
10
2.34201
20
0.493103
11
2.34587
21
0.484228
0
LINE
8
BLACK
6
CONTINUOUS
10
2.34587
20
0.484228
11
2.34822
21
0.474842
0
LINE
8
BLACK
6
CONTINUOUS
10
2.34822
20
0.474842
11
2.34902
21
0.465197
0
LINE
8
BLACK
6
CONTINUOUS
10
2.34902
20
0.465197
11
2.34895
21
0.462312
0
LINE
8
BLACK
6
CONTINUOUS
10
2.34895
20
0.462312
11
2.34768
21
0.452717
0
LINE
8
BLACK
6
CONTINUOUS
10
2.34768
20
0.452717
11
2.34487
21
0.443457
0
LINE
8
BLACK
6
CONTINUOUS
10
2.34487
20
0.443457
11
2.34058
21
0.434781
0
LINE
8
BLACK
6
CONTINUOUS
10
2.34058
20
0.434781
11
2.33493
21
0.426922
0
LINE
8
BLACK
6
CONTINUOUS
10
2.33493
20
0.426922
11
2.32808
21
0.420091
0
LINE
8
BLACK
6
CONTINUOUS
10
2.32808
20
0.420091
11
2.3202
21
0.414471
0
LINE
8
BLACK
6
CONTINUOUS
10
2.3202
20
0.414471
11
2.31151
21
0.410213
0
LINE
8
BLACK
6
CONTINUOUS
10
2.31151
20
0.410213
11
2.30224
21
0.407432
0
LINE
8
BLACK
6
CONTINUOUS
10
2.30224
20
0.407432
11
2.29264
21
0.406203
0
LINE
8
BLACK
6
CONTINUOUS
10
2.29264
20
0.406203
11
2.28297
21
0.406557
0
LINE
8
BLACK
6
CONTINUOUS
10
2.28297
20
0.406557
11
2.27348
21
0.408487
0
LINE
8
BLACK
6
CONTINUOUS
10
2.27348
20
0.408487
11
2.26444
21
0.411939
0
LINE
8
BLACK
6
CONTINUOUS
10
2.26444
20
0.411939
11
2.25609
21
0.416822
0
LINE
8
BLACK
6
CONTINUOUS
10
2.25609
20
0.416822
11
2.24864
21
0.423004
0
LINE
8
BLACK
6
CONTINUOUS
10
2.24864
20
0.423004
11
2.24231
21
0.430319
0
LINE
8
BLACK
6
CONTINUOUS
10
2.24231
20
0.430319
11
2.23725
21
0.43857
0
LINE
8
BLACK
6
CONTINUOUS
10
2.23725
20
0.43857
11
2.23361
21
0.447537
0
LINE
8
BLACK
6
CONTINUOUS
10
2.23361
20
0.447537
11
2.23148
21
0.456978
0
LINE
8
BLACK
6
CONTINUOUS
10
2.23148
20
0.456978
11
2.23092
21
0.46664
0
LINE
8
BLACK
6
CONTINUOUS
10
2.23092
20
0.46664
11
2.23195
21
0.476263
0
LINE
8
BLACK
6
CONTINUOUS
10
2.23195
20
0.476263
11
2.23454
21
0.485588
0
LINE
8
BLACK
6
CONTINUOUS
10
2.23454
20
0.485588
11
2.23861
21
0.494367
0
LINE
8
BLACK
6
CONTINUOUS
10
2.23861
20
0.494367
11
2.24407
21
0.502361
0
LINE
8
BLACK
6
CONTINUOUS
10
2.24407
20
0.502361
11
2.25075
21
0.509358
0
LINE
8
BLACK
6
CONTINUOUS
10
2.25075
20
0.509358
11
2.25849
21
0.515169
0
LINE
8
BLACK
6
CONTINUOUS
10
2.25849
20
0.515169
11
2.26708
21
0.519638
0
LINE
8
BLACK
6
CONTINUOUS
10
2.26708
20
0.519638
11
2.27627
21
0.522644
0
LINE
8
BLACK
6
CONTINUOUS
10
2.27627
20
0.522644
11
2.28584
21
0.524108
0
LINE
8
BLACK
6
CONTINUOUS
10
2.28584
20
0.524108
11
2.29552
21
0.52399
0
LINE
8
BLACK
6
CONTINUOUS
10
3.03
20
0.42
11
2.97
21
0.42
0
LINE
8
BLACK
6
CONTINUOUS
10
2.97
20
0.42
11
2.97
21
0.48
0
LINE
8
BLACK
6
CONTINUOUS
10
2.97
20
0.48
11
3.03
21
0.48
0
LINE
8
BLACK
6
CONTINUOUS
10
3.03
20
0.48
11
3.03
21
0.42
0
LINE
8
BLACK
6
CONTINUOUS
10
2.93
20
0.42
11
2.87
21
0.42
0
LINE
8
BLACK
6
CONTINUOUS
10
2.87
20
0.42
11
2.87
21
0.48
0
LINE
8
BLACK
6
CONTINUOUS
10
2.87
20
0.48
11
2.93
21
0.48
0
LINE
8
BLACK
6
CONTINUOUS
10
2.93
20
0.48
11
2.93
21
0.42
0
LINE
8
BLACK
6
CONTINUOUS
10
3.13
20
0.42
11
3.07
21
0.42
0
LINE
8
BLACK
6
CONTINUOUS
10
3.07
20
0.42
11
3.07
21
0.48
0
LINE
8
BLACK
6
CONTINUOUS
10
3.07
20
0.48
11
3.13
21
0.48
0
LINE
8
BLACK
6
CONTINUOUS
10
3.13
20
0.48
11
3.13
21
0.42
0
LINE
8
BLACK
6
CONTINUOUS
10
3.13
20
0.52
11
3.07
21
0.52
0
LINE
8
BLACK
6
CONTINUOUS
10
3.07
20
0.52
11
3.07
21
0.58
0
LINE
8
BLACK
6
CONTINUOUS
10
3.07
20
0.58
11
3.13
21
0.58
0
LINE
8
BLACK
6
CONTINUOUS
10
3.13
20
0.58
11
3.13
21
0.52
0
LINE
8
BLACK
6
CONTINUOUS
10
3.03
20
0.52
11
2.97
21
0.52
0
LINE
8
BLACK
6
CONTINUOUS
10
2.97
20
0.52
11
2.97
21
0.58
0
LINE
8
BLACK
6
CONTINUOUS
10
2.97
20
0.58
11
3.03
21
0.58
0
LINE
8
BLACK
6
CONTINUOUS
10
3.03
20
0.58
11
3.03
21
0.52
0
LINE
8
BLACK
6
CONTINUOUS
10
2.93
20
0.52
11
2.87
21
0.52
0
LINE
8
BLACK
6
CONTINUOUS
10
2.87
20
0.52
11
2.87
21
0.58
0
LINE
8
BLACK
6
CONTINUOUS
10
2.87
20
0.58
11
2.93
21
0.58
0
LINE
8
BLACK
6
CONTINUOUS
10
2.93
20
0.58
11
2.93
21
0.52
0
LINE
8
BLACK
6
CONTINUOUS
10
3.03
20
0.62
11
2.97
21
0.62
0
LINE
8
BLACK
6
CONTINUOUS
10
2.97
20
0.62
11
2.97
21
0.68
0
LINE
8
BLACK
6
CONTINUOUS
10
2.97
20
0.68
11
3.03
21
0.68
0
LINE
8
BLACK
6
CONTINUOUS
10
3.03
20
0.68
11
3.03
21
0.62
0
LINE
8
BLACK
6
CONTINUOUS
10
3.03
20
0.72
11
2.97
21
0.72
0
LINE
8
BLACK
6
CONTINUOUS
10
2.97
20
0.72
11
2.97
21
0.78
0
LINE
8
BLACK
6
CONTINUOUS
10
2.97
20
0.78
11
3.03
21
0.78
0
LINE
8
BLACK
6
CONTINUOUS
10
3.03
20
0.78
11
3.03
21
0.72
0
LINE
8
BLACK
6
CONTINUOUS
10
3.13
20
0.82
11
3.07
21
0.82
0
LINE
8
BLACK
6
CONTINUOUS
10
3.07
20
0.82
11
3.07
21
0.88
0
LINE
8
BLACK
6
CONTINUOUS
10
3.07
20
0.88
11
3.13
21
0.88
0
LINE
8
BLACK
6
CONTINUOUS
10
3.13
20
0.88
11
3.13
21
0.82
0
LINE
8
BLACK
6
CONTINUOUS
10
3.03
20
0.82
11
2.97
21
0.82
0
LINE
8
BLACK
6
CONTINUOUS
10
2.97
20
0.82
11
2.97
21
0.88
0
LINE
8
BLACK
6
CONTINUOUS
10
2.97
20
0.88
11
3.03
21
0.88
0
LINE
8
BLACK
6
CONTINUOUS
10
3.03
20
0.88
11
3.03
21
0.82
0
LINE
8
BLACK
6
CONTINUOUS
10
2.93
20
0.82
11
2.87
21
0.82
0
LINE
8
BLACK
6
CONTINUOUS
10
2.87
20
0.82
11
2.87
21
0.88
0
LINE
8
BLACK
6
CONTINUOUS
10
2.87
20
0.88
11
2.93
21
0.88
0
LINE
8
BLACK
6
CONTINUOUS
10
2.93
20
0.88
11
2.93
21
0.82
0
LINE
8
BLACK
6
CONTINUOUS
10
1.08318
20
0.941884
11
1.08979
21
0.939529
0
LINE
8
BLACK
6
CONTINUOUS
10
1.08979
20
0.939529
11
1.09572
21
0.935767
0
LINE
8
BLACK
6
CONTINUOUS
10
1.09572
20
0.935767
11
1.10067
21
0.930784
0
LINE
8
BLACK
6
CONTINUOUS
10
1.10067
20
0.930784
11
1.10439
21
0.924829
0
LINE
8
BLACK
6
CONTINUOUS
10
1.10439
20
0.924829
11
1.1067
21
0.918198
0
LINE
8
BLACK
6
CONTINUOUS
10
1.1067
20
0.918198
11
1.10748
21
0.91122
0
LINE
8
BLACK
6
CONTINUOUS
10
1.10748
20
0.91122
11
1.10747
21
0.910341
0
LINE
8
BLACK
6
CONTINUOUS
10
1.10747
20
0.910341
11
1.10649
21
0.903388
0
LINE
8
BLACK
6
CONTINUOUS
10
1.10649
20
0.903388
11
1.104
21
0.896824
0
LINE
8
BLACK
6
CONTINUOUS
10
1.104
20
0.896824
11
1.10011
21
0.890975
0
LINE
8
BLACK
6
CONTINUOUS
10
1.10011
20
0.890975
11
1.09503
21
0.886133
0
LINE
8
BLACK
6
CONTINUOUS
10
1.09503
20
0.886133
11
1.089
21
0.882538
0
LINE
8
BLACK
6
CONTINUOUS
10
1.089
20
0.882538
11
1.08232
21
0.880368
0
LINE
8
BLACK
6
CONTINUOUS
10
1.08232
20
0.880368
11
1.07532
21
0.879731
0
LINE
8
BLACK
6
CONTINUOUS
10
1.07532
20
0.879731
11
1.06836
21
0.88066
0
LINE
8
BLACK
6
CONTINUOUS
10
1.06836
20
0.88066
11
1.06178
21
0.883108
0
LINE
8
BLACK
6
CONTINUOUS
10
1.06178
20
0.883108
11
1.05591
21
0.886952
0
LINE
8
BLACK
6
CONTINUOUS
10
1.05591
20
0.886952
11
1.05103
21
0.892003
0
LINE
8
BLACK
6
CONTINUOUS
10
1.05103
20
0.892003
11
1.04739
21
0.898009
0
LINE
8
BLACK
6
CONTINUOUS
10
1.04739
20
0.898009
11
1.04518
21
0.904672
0
LINE
8
BLACK
6
CONTINUOUS
10
1.04518
20
0.904672
11
1.04449
21
0.91166
0
LINE
8
BLACK
6
CONTINUOUS
10
1.04449
20
0.91166
11
1.04537
21
0.918627
0
LINE
8
BLACK
6
CONTINUOUS
10
1.04537
20
0.918627
11
1.04777
21
0.925225
0
LINE
8
BLACK
6
CONTINUOUS
10
1.04777
20
0.925225
11
1.05158
21
0.931127
0
LINE
8
BLACK
6
CONTINUOUS
10
1.05158
20
0.931127
11
1.05659
21
0.93604
0
LINE
8
BLACK
6
CONTINUOUS
10
1.05659
20
0.93604
11
1.06257
21
0.939719
0
LINE
8
BLACK
6
CONTINUOUS
10
1.06257
20
0.939719
11
1.06922
21
0.941982
0
LINE
8
BLACK
6
CONTINUOUS
10
1.06922
20
0.941982
11
1.0762
21
0.942716
0
LINE
8
BLACK
6
CONTINUOUS
10
1.0762
20
0.942716
11
1.08318
21
0.941884
0
LINE
8
BLACK
6
CONTINUOUS
10
1.90836
20
0.932136
11
1.91358
21
0.929973
0
LINE
8
BLACK
6
CONTINUOUS
10
1.91358
20
0.929973
11
1.91807
21
0.926532
0
LINE
8
BLACK
6
CONTINUOUS
10
1.91807
20
0.926532
11
1.92151
21
0.922047
0
LINE
8
BLACK
6
CONTINUOUS
10
1.92151
20
0.922047
11
1.92367
21
0.916825
0
LINE
8
BLACK
6
CONTINUOUS
10
1.92367
20
0.916825
11
1.92441
21
0.91122
0
LINE
8
BLACK
6
CONTINUOUS
10
1.92441
20
0.91122
11
1.92367
21
0.905616
0
LINE
8
BLACK
6
CONTINUOUS
10
1.92367
20
0.905616
11
1.92151
21
0.900394
0
LINE
8
BLACK
6
CONTINUOUS
10
1.92151
20
0.900394
11
1.91807
21
0.895909
0
LINE
8
BLACK
6
CONTINUOUS
10
1.91807
20
0.895909
11
1.91358
21
0.892468
0
LINE
8
BLACK
6
CONTINUOUS
10
1.91358
20
0.892468
11
1.90836
21
0.890305
0
LINE
8
BLACK
6
CONTINUOUS
10
1.90836
20
0.890305
11
1.90276
21
0.889567
0
LINE
8
BLACK
6
CONTINUOUS
10
1.90276
20
0.889567
11
1.89715
21
0.890305
0
LINE
8
BLACK
6
CONTINUOUS
10
1.89715
20
0.890305
11
1.89193
21
0.892468
0
LINE
8
BLACK
6
CONTINUOUS
10
1.89193
20
0.892468
11
1.88744
21
0.895909
0
LINE
8
BLACK
6
CONTINUOUS
10
1.88744
20
0.895909
11
1.884
21
0.900394
0
LINE
8
BLACK
6
CONTINUOUS
10
1.884
20
0.900394
11
1.88184
21
0.905616
0
LINE
8
BLACK
6
CONTINUOUS
10
1.88184
20
0.905616
11
1.8811
21
0.91122
0
LINE
8
BLACK
6
CONTINUOUS
10
1.8811
20
0.91122
11
1.88184
21
0.916825
0
LINE
8
BLACK
6
CONTINUOUS
10
1.88184
20
0.916825
11
1.884
21
0.922047
0
LINE
8
BLACK
6
CONTINUOUS
10
1.884
20
0.922047
11
1.88744
21
0.926532
0
LINE
8
BLACK
6
CONTINUOUS
10
1.88744
20
0.926532
11
1.89193
21
0.929973
0
LINE
8
BLACK
6
CONTINUOUS
10
1.89193
20
0.929973
11
1.89715
21
0.932136
0
LINE
8
BLACK
6
CONTINUOUS
10
1.89715
20
0.932136
11
1.90276
21
0.932874
0
LINE
8
BLACK
6
CONTINUOUS
10
1.90276
20
0.932874
11
1.90836
21
0.932136
0
LINE
8
BLACK
6
CONTINUOUS
10
2.93
20
0.92
11
2.87
21
0.92
0
LINE
8
BLACK
6
CONTINUOUS
10
2.87
20
0.92
11
2.87
21
0.98
0
LINE
8
BLACK
6
CONTINUOUS
10
2.87
20
0.98
11
2.93
21
0.98
0
LINE
8
BLACK
6
CONTINUOUS
10
2.93
20
0.98
11
2.93
21
0.92
0
LINE
8
BLACK
6
CONTINUOUS
10
3.03
20
0.92
11
2.97
21
0.92
0
LINE
8
BLACK
6
CONTINUOUS
10
2.97
20
0.92
11
2.97
21
0.98
0
LINE
8
BLACK
6
CONTINUOUS
10
2.97
20
0.98
11
3.03
21
0.98
0
LINE
8
BLACK
6
CONTINUOUS
10
3.03
20
0.98
11
3.03
21
0.92
0
LINE
8
BLACK
6
CONTINUOUS
10
3.13
20
0.92
11
3.07
21
0.92
0
LINE
8
BLACK
6
CONTINUOUS
10
3.07
20
0.92
11
3.07
21
0.98
0
LINE
8
BLACK
6
CONTINUOUS
10
3.07
20
0.98
11
3.13
21
0.98
0
LINE
8
BLACK
6
CONTINUOUS
10
3.13
20
0.98
11
3.13
21
0.92
0
LINE
8
BLACK
6
CONTINUOUS
10
2.93
20
1.12
11
2.87
21
1.12
0
LINE
8
BLACK
6
CONTINUOUS
10
2.87
20
1.12
11
2.87
21
1.18
0
LINE
8
BLACK
6
CONTINUOUS
10
2.87
20
1.18
11
2.93
21
1.18
0
LINE
8
BLACK
6
CONTINUOUS
10
2.93
20
1.18
11
2.93
21
1.12
0
LINE
8
BLACK
6
CONTINUOUS
10
3.03
20
1.12
11
2.97
21
1.12
0
LINE
8
BLACK
6
CONTINUOUS
10
2.97
20
1.12
11
2.97
21
1.18
0
LINE
8
BLACK
6
CONTINUOUS
10
2.97
20
1.18
11
3.03
21
1.18
0
LINE
8
BLACK
6
CONTINUOUS
10
3.03
20
1.18
11
3.03
21
1.12
0
LINE
8
BLACK
6
CONTINUOUS
10
2.13735
20
1.38782
11
2.14871
21
1.38556
0
LINE
8
BLACK
6
CONTINUOUS
10
2.14871
20
1.38556
11
2.15969
21
1.38184
0
LINE
8
BLACK
6
CONTINUOUS
10
2.15969
20
1.38184
11
2.17008
21
1.37671
0
LINE
8
BLACK
6
CONTINUOUS
10
2.17008
20
1.37671
11
2.17971
21
1.37028
0
LINE
8
BLACK
6
CONTINUOUS
10
2.17971
20
1.37028
11
2.18842
21
1.36264
0
LINE
8
BLACK
6
CONTINUOUS
10
2.18842
20
1.36264
11
2.19606
21
1.35393
0
LINE
8
BLACK
6
CONTINUOUS
10
2.19606
20
1.35393
11
2.2025
21
1.34429
0
LINE
8
BLACK
6
CONTINUOUS
10
2.2025
20
1.34429
11
2.20763
21
1.3339
0
LINE
8
BLACK
6
CONTINUOUS
10
2.20763
20
1.3339
11
2.21135
21
1.32293
0
LINE
8
BLACK
6
CONTINUOUS
10
2.21135
20
1.32293
11
2.21361
21
1.31156
0
LINE
8
BLACK
6
CONTINUOUS
10
2.21361
20
1.31156
11
2.21437
21
1.3
0
LINE
8
BLACK
6
CONTINUOUS
10
2.21437
20
1.3
11
2.21361
21
1.28844
0
LINE
8
BLACK
6
CONTINUOUS
10
2.21361
20
1.28844
11
2.21135
21
1.27707
0
LINE
8
BLACK
6
CONTINUOUS
10
2.21135
20
1.27707
11
2.20763
21
1.2661
0
LINE
8
BLACK
6
CONTINUOUS
10
2.20763
20
1.2661
11
2.2025
21
1.25571
0
LINE
8
BLACK
6
CONTINUOUS
10
2.2025
20
1.25571
11
2.19606
21
1.24607
0
LINE
8
BLACK
6
CONTINUOUS
10
2.19606
20
1.24607
11
2.18842
21
1.23736
0
LINE
8
BLACK
6
CONTINUOUS
10
2.18842
20
1.23736
11
2.17971
21
1.22972
0
LINE
8
BLACK
6
CONTINUOUS
10
2.17971
20
1.22972
11
2.17008
21
1.22329
0
LINE
8
BLACK
6
CONTINUOUS
10
2.17008
20
1.22329
11
2.15969
21
1.21816
0
LINE
8
BLACK
6
CONTINUOUS
10
2.15969
20
1.21816
11
2.14871
21
1.21444
0
LINE
8
BLACK
6
CONTINUOUS
10
2.14871
20
1.21444
11
2.13735
21
1.21218
0
LINE
8
BLACK
6
CONTINUOUS
10
2.13735
20
1.21218
11
2.12579
21
1.21142
0
LINE
8
BLACK
6
CONTINUOUS
10
2.12579
20
1.21142
11
2.11423
21
1.21218
0
LINE
8
BLACK
6
CONTINUOUS
10
2.11423
20
1.21218
11
2.10286
21
1.21444
0
LINE
8
BLACK
6
CONTINUOUS
10
2.10286
20
1.21444
11
2.09189
21
1.21816
0
LINE
8
BLACK
6
CONTINUOUS
10
2.09189
20
1.21816
11
2.0815
21
1.22329
0
LINE
8
BLACK
6
CONTINUOUS
10
2.0815
20
1.22329
11
2.07186
21
1.22972
0
LINE
8
BLACK
6
CONTINUOUS
10
2.07186
20
1.22972
11
2.06315
21
1.23736
0
LINE
8
BLACK
6
CONTINUOUS
10
2.06315
20
1.23736
11
2.05551
21
1.24607
0
LINE
8
BLACK
6
CONTINUOUS
10
2.05551
20
1.24607
11
2.04907
21
1.25571
0
LINE
8
BLACK
6
CONTINUOUS
10
2.04907
20
1.25571
11
2.04395
21
1.2661
0
LINE
8
BLACK
6
CONTINUOUS
10
2.04395
20
1.2661
11
2.04022
21
1.27707
0
LINE
8
BLACK
6
CONTINUOUS
10
2.04022
20
1.27707
11
2.03796
21
1.28844
0
LINE
8
BLACK
6
CONTINUOUS
10
2.03796
20
1.28844
11
2.0372
21
1.3
0
LINE
8
BLACK
6
CONTINUOUS
10
2.0372
20
1.3
11
2.03796
21
1.31156
0
LINE
8
BLACK
6
CONTINUOUS
10
2.03796
20
1.31156
11
2.04022
21
1.32293
0
LINE
8
BLACK
6
CONTINUOUS
10
2.04022
20
1.32293
11
2.04395
21
1.3339
0
LINE
8
BLACK
6
CONTINUOUS
10
2.04395
20
1.3339
11
2.04907
21
1.34429
0
LINE
8
BLACK
6
CONTINUOUS
10
2.04907
20
1.34429
11
2.05551
21
1.35393
0
LINE
8
BLACK
6
CONTINUOUS
10
2.05551
20
1.35393
11
2.06315
21
1.36264
0
LINE
8
BLACK
6
CONTINUOUS
10
2.06315
20
1.36264
11
2.07186
21
1.37028
0
LINE
8
BLACK
6
CONTINUOUS
10
2.07186
20
1.37028
11
2.0815
21
1.37671
0
LINE
8
BLACK
6
CONTINUOUS
10
2.0815
20
1.37671
11
2.09189
21
1.38184
0
LINE
8
BLACK
6
CONTINUOUS
10
2.09189
20
1.38184
11
2.10286
21
1.38556
0
LINE
8
BLACK
6
CONTINUOUS
10
2.10286
20
1.38556
11
2.11423
21
1.38782
0
LINE
8
BLACK
6
CONTINUOUS
10
2.11423
20
1.38782
11
2.12579
21
1.38858
0
LINE
8
BLACK
6
CONTINUOUS
10
2.12579
20
1.38858
11
2.13735
21
1.38782
0
LINE
8
BLACK
6
CONTINUOUS
10
0.735775
20
1.38782
11
0.747139
21
1.38556
0
LINE
8
BLACK
6
CONTINUOUS
10
0.747139
20
1.38556
11
0.758112
21
1.38184
0
LINE
8
BLACK
6
CONTINUOUS
10
0.758112
20
1.38184
11
0.768504
21
1.37671
0
LINE
8
BLACK
6
CONTINUOUS
10
0.768504
20
1.37671
11
0.778138
21
1.37028
0
LINE
8
BLACK
6
CONTINUOUS
10
0.778138
20
1.37028
11
0.78685
21
1.36264
0
LINE
8
BLACK
6
CONTINUOUS
10
0.78685
20
1.36264
11
0.79449
21
1.35393
0
LINE
8
BLACK
6
CONTINUOUS
10
0.79449
20
1.35393
11
0.800927
21
1.34429
0
LINE
8
BLACK
6
CONTINUOUS
10
0.800927
20
1.34429
11
0.806052
21
1.3339
0
LINE
8
BLACK
6
CONTINUOUS
10
0.806052
20
1.3339
11
0.809777
21
1.32293
0
LINE
8
BLACK
6
CONTINUOUS
10
0.809777
20
1.32293
11
0.812037
21
1.31156
0
LINE
8
BLACK
6
CONTINUOUS
10
0.812037
20
1.31156
11
0.812795
21
1.3
0
LINE
8
BLACK
6
CONTINUOUS
10
0.812795
20
1.3
11
0.812037
21
1.28844
0
LINE
8
BLACK
6
CONTINUOUS
10
0.812037
20
1.28844
11
0.809777
21
1.27707
0
LINE
8
BLACK
6
CONTINUOUS
10
0.809777
20
1.27707
11
0.806052
21
1.2661
0
LINE
8
BLACK
6
CONTINUOUS
10
0.806052
20
1.2661
11
0.800927
21
1.25571
0
LINE
8
BLACK
6
CONTINUOUS
10
0.800927
20
1.25571
11
0.79449
21
1.24607
0
LINE
8
BLACK
6
CONTINUOUS
10
0.79449
20
1.24607
11
0.78685
21
1.23736
0
LINE
8
BLACK
6
CONTINUOUS
10
0.78685
20
1.23736
11
0.778138
21
1.22972
0
LINE
8
BLACK
6
CONTINUOUS
10
0.778138
20
1.22972
11
0.768504
21
1.22329
0
LINE
8
BLACK
6
CONTINUOUS
10
0.768504
20
1.22329
11
0.758112
21
1.21816
0
LINE
8
BLACK
6
CONTINUOUS
10
0.758112
20
1.21816
11
0.747139
21
1.21444
0
LINE
8
BLACK
6
CONTINUOUS
10
0.747139
20
1.21444
11
0.735775
21
1.21218
0
LINE
8
BLACK
6
CONTINUOUS
10
0.735775
20
1.21218
11
0.724213
21
1.21142
0
LINE
8
BLACK
6
CONTINUOUS
10
0.724213
20
1.21142
11
0.71265
21
1.21218
0
LINE
8
BLACK
6
CONTINUOUS
10
0.71265
20
1.21218
11
0.701286
21
1.21444
0
LINE
8
BLACK
6
CONTINUOUS
10
0.701286
20
1.21444
11
0.690313
21
1.21816
0
LINE
8
BLACK
6
CONTINUOUS
10
0.690313
20
1.21816
11
0.679921
21
1.22329
0
LINE
8
BLACK
6
CONTINUOUS
10
0.679921
20
1.22329
11
0.670287
21
1.22972
0
LINE
8
BLACK
6
CONTINUOUS
10
0.670287
20
1.22972
11
0.661575
21
1.23736
0
LINE
8
BLACK
6
CONTINUOUS
10
0.661575
20
1.23736
11
0.653935
21
1.24607
0
LINE
8
BLACK
6
CONTINUOUS
10
0.653935
20
1.24607
11
0.647498
21
1.25571
0
LINE
8
BLACK
6
CONTINUOUS
10
0.647498
20
1.25571
11
0.642373
21
1.2661
0
LINE
8
BLACK
6
CONTINUOUS
10
0.642373
20
1.2661
11
0.638648
21
1.27707
0
LINE
8
BLACK
6
CONTINUOUS
10
0.638648
20
1.27707
11
0.636388
21
1.28844
0
LINE
8
BLACK
6
CONTINUOUS
10
0.636388
20
1.28844
11
0.63563
21
1.3
0
LINE
8
BLACK
6
CONTINUOUS
10
0.63563
20
1.3
11
0.636388
21
1.31156
0
LINE
8
BLACK
6
CONTINUOUS
10
0.636388
20
1.31156
11
0.638648
21
1.32293
0
LINE
8
BLACK
6
CONTINUOUS
10
0.638648
20
1.32293
11
0.642373
21
1.3339
0
LINE
8
BLACK
6
CONTINUOUS
10
0.642373
20
1.3339
11
0.647498
21
1.34429
0
LINE
8
BLACK
6
CONTINUOUS
10
0.647498
20
1.34429
11
0.653935
21
1.35393
0
LINE
8
BLACK
6
CONTINUOUS
10
0.653935
20
1.35393
11
0.661575
21
1.36264
0
LINE
8
BLACK
6
CONTINUOUS
10
0.661575
20
1.36264
11
0.670287
21
1.37028
0
LINE
8
BLACK
6
CONTINUOUS
10
0.670287
20
1.37028
11
0.679921
21
1.37671
0
LINE
8
BLACK
6
CONTINUOUS
10
0.679921
20
1.37671
11
0.690313
21
1.38184
0
LINE
8
BLACK
6
CONTINUOUS
10
0.690313
20
1.38184
11
0.701286
21
1.38556
0
LINE
8
BLACK
6
CONTINUOUS
10
0.701286
20
1.38556
11
0.71265
21
1.38782
0
LINE
8
BLACK
6
CONTINUOUS
10
0.71265
20
1.38782
11
0.724213
21
1.38858
0
LINE
8
BLACK
6
CONTINUOUS
10
0.724213
20
1.38858
11
0.735775
21
1.38782
0
LINE
8
BLACK
6
CONTINUOUS
10
2.93
20
1.22
11
2.87
21
1.22
0
LINE
8
BLACK
6
CONTINUOUS
10
2.87
20
1.22
11
2.87
21
1.28
0
LINE
8
BLACK
6
CONTINUOUS
10
2.87
20
1.28
11
2.93
21
1.28
0
LINE
8
BLACK
6
CONTINUOUS
10
2.93
20
1.28
11
2.93
21
1.22
0
LINE
8
BLACK
6
CONTINUOUS
10
3.03
20
1.22
11
2.97
21
1.22
0
LINE
8
BLACK
6
CONTINUOUS
10
2.97
20
1.22
11
2.97
21
1.28
0
LINE
8
BLACK
6
CONTINUOUS
10
2.97
20
1.28
11
3.03
21
1.28
0
LINE
8
BLACK
6
CONTINUOUS
10
3.03
20
1.28
11
3.03
21
1.22
0
LINE
8
BLACK
6
CONTINUOUS
10
2.76229
20
1.34846
11
2.77057
21
1.34624
0
LINE
8
BLACK
6
CONTINUOUS
10
2.77057
20
1.34624
11
2.77835
21
1.34262
0
LINE
8
BLACK
6
CONTINUOUS
10
2.77835
20
1.34262
11
2.78537
21
1.3377
0
LINE
8
BLACK
6
CONTINUOUS
10
2.78537
20
1.3377
11
2.79144
21
1.33163
0
LINE
8
BLACK
6
CONTINUOUS
10
2.79144
20
1.33163
11
2.79636
21
1.32461
0
LINE
8
BLACK
6
CONTINUOUS
10
2.79636
20
1.32461
11
2.79998
21
1.31683
0
LINE
8
BLACK
6
CONTINUOUS
10
2.79998
20
1.31683
11
2.80221
21
1.30855
0
LINE
8
BLACK
6
CONTINUOUS
10
2.80221
20
1.30855
11
2.80295
21
1.3
0
LINE
8
BLACK
6
CONTINUOUS
10
2.80295
20
1.3
11
2.80221
21
1.29145
0
LINE
8
BLACK
6
CONTINUOUS
10
2.80221
20
1.29145
11
2.79998
21
1.28317
0
LINE
8
BLACK
6
CONTINUOUS
10
2.79998
20
1.28317
11
2.79636
21
1.27539
0
LINE
8
BLACK
6
CONTINUOUS
10
2.79636
20
1.27539
11
2.79144
21
1.26837
0
LINE
8
BLACK
6
CONTINUOUS
10
2.79144
20
1.26837
11
2.78537
21
1.2623
0
LINE
8
BLACK
6
CONTINUOUS
10
2.78537
20
1.2623
11
2.77835
21
1.25738
0
LINE
8
BLACK
6
CONTINUOUS
10
2.77835
20
1.25738
11
2.77057
21
1.25376
0
LINE
8
BLACK
6
CONTINUOUS
10
2.77057
20
1.25376
11
2.76229
21
1.25154
0
LINE
8
BLACK
6
CONTINUOUS
10
2.76229
20
1.25154
11
2.75374
21
1.25079
0
LINE
8
BLACK
6
CONTINUOUS
10
2.75374
20
1.25079
11
2.74519
21
1.25154
0
LINE
8
BLACK
6
CONTINUOUS
10
2.74519
20
1.25154
11
2.73691
21
1.25376
0
LINE
8
BLACK
6
CONTINUOUS
10
2.73691
20
1.25376
11
2.72913
21
1.25738
0
LINE
8
BLACK
6
CONTINUOUS
10
2.72913
20
1.25738
11
2.72211
21
1.2623
0
LINE
8
BLACK
6
CONTINUOUS
10
2.72211
20
1.2623
11
2.71604
21
1.26837
0
LINE
8
BLACK
6
CONTINUOUS
10
2.71604
20
1.26837
11
2.71112
21
1.27539
0
LINE
8
BLACK
6
CONTINUOUS
10
2.71112
20
1.27539
11
2.7075
21
1.28317
0
LINE
8
BLACK
6
CONTINUOUS
10
2.7075
20
1.28317
11
2.70528
21
1.29145
0
LINE
8
BLACK
6
CONTINUOUS
10
2.70528
20
1.29145
11
2.70453
21
1.3
0
LINE
8
BLACK
6
CONTINUOUS
10
2.70453
20
1.3
11
2.70528
21
1.30855
0
LINE
8
BLACK
6
CONTINUOUS
10
2.70528
20
1.30855
11
2.7075
21
1.31683
0
LINE
8
BLACK
6
CONTINUOUS
10
2.7075
20
1.31683
11
2.71112
21
1.32461
0
LINE
8
BLACK
6
CONTINUOUS
10
2.71112
20
1.32461
11
2.71604
21
1.33163
0
LINE
8
BLACK
6
CONTINUOUS
10
2.71604
20
1.33163
11
2.72211
21
1.3377
0
LINE
8
BLACK
6
CONTINUOUS
10
2.72211
20
1.3377
11
2.72913
21
1.34262
0
LINE
8
BLACK
6
CONTINUOUS
10
2.72913
20
1.34262
11
2.73691
21
1.34624
0
LINE
8
BLACK
6
CONTINUOUS
10
2.73691
20
1.34624
11
2.74519
21
1.34846
0
LINE
8
BLACK
6
CONTINUOUS
10
2.74519
20
1.34846
11
2.75374
21
1.34921
0
LINE
8
BLACK
6
CONTINUOUS
10
2.75374
20
1.34921
11
2.76229
21
1.34846
0
LINE
8
BLACK
6
CONTINUOUS
10
0.104806
20
1.34846
11
0.113092
21
1.34624
0
LINE
8
BLACK
6
CONTINUOUS
10
0.113092
20
1.34624
11
0.120866
21
1.34262
0
LINE
8
BLACK
6
CONTINUOUS
10
0.120866
20
1.34262
11
0.127893
21
1.3377
0
LINE
8
BLACK
6
CONTINUOUS
10
0.127893
20
1.3377
11
0.133959
21
1.33163
0
LINE
8
BLACK
6
CONTINUOUS
10
0.133959
20
1.33163
11
0.138879
21
1.32461
0
LINE
8
BLACK
6
CONTINUOUS
10
0.138879
20
1.32461
11
0.142505
21
1.31683
0
LINE
8
BLACK
6
CONTINUOUS
10
0.142505
20
1.31683
11
0.144725
21
1.30855
0
LINE
8
BLACK
6
CONTINUOUS
10
0.144725
20
1.30855
11
0.145472
21
1.3
0
LINE
8
BLACK
6
CONTINUOUS
10
0.145472
20
1.3
11
0.144725
21
1.29145
0
LINE
8
BLACK
6
CONTINUOUS
10
0.144725
20
1.29145
11
0.142505
21
1.28317
0
LINE
8
BLACK
6
CONTINUOUS
10
0.142505
20
1.28317
11
0.138879
21
1.27539
0
LINE
8
BLACK
6
CONTINUOUS
10
0.138879
20
1.27539
11
0.133959
21
1.26837
0
LINE
8
BLACK
6
CONTINUOUS
10
0.133959
20
1.26837
11
0.127893
21
1.2623
0
LINE
8
BLACK
6
CONTINUOUS
10
0.127893
20
1.2623
11
0.120866
21
1.25738
0
LINE
8
BLACK
6
CONTINUOUS
10
0.120866
20
1.25738
11
0.113092
21
1.25376
0
LINE
8
BLACK
6
CONTINUOUS
10
0.113092
20
1.25376
11
0.104806
21
1.25154
0
LINE
8
BLACK
6
CONTINUOUS
10
0.104806
20
1.25154
11
0.0962598
21
1.25079
0
LINE
8
BLACK
6
CONTINUOUS
10
0.0962598
20
1.25079
11
0.0877142
21
1.25154
0
LINE
8
BLACK
6
CONTINUOUS
10
0.0877142
20
1.25154
11
0.0794281
21
1.25376
0
LINE
8
BLACK
6
CONTINUOUS
10
0.0794281
20
1.25376
11
0.0716535
21
1.25738
0
LINE
8
BLACK
6
CONTINUOUS
10
0.0716535
20
1.25738
11
0.0646266
21
1.2623
0
LINE
8
BLACK
6
CONTINUOUS
10
0.0646266
20
1.2623
11
0.0585608
21
1.26837
0
LINE
8
BLACK
6
CONTINUOUS
10
0.0585608
20
1.26837
11
0.0536405
21
1.27539
0
LINE
8
BLACK
6
CONTINUOUS
10
0.0536405
20
1.27539
11
0.0500151
21
1.28317
0
LINE
8
BLACK
6
CONTINUOUS
10
0.0500151
20
1.28317
11
0.0477949
21
1.29145
0
LINE
8
BLACK
6
CONTINUOUS
10
0.0477949
20
1.29145
11
0.0470472
21
1.3
0
LINE
8
BLACK
6
CONTINUOUS
10
0.0470472
20
1.3
11
0.0477949
21
1.30855
0
LINE
8
BLACK
6
CONTINUOUS
10
0.0477949
20
1.30855
11
0.0500151
21
1.31683
0
LINE
8
BLACK
6
CONTINUOUS
10
0.0500151
20
1.31683
11
0.0536405
21
1.32461
0
LINE
8
BLACK
6
CONTINUOUS
10
0.0536405
20
1.32461
11
0.0585608
21
1.33163
0
LINE
8
BLACK
6
CONTINUOUS
10
0.0585608
20
1.33163
11
0.0646266
21
1.3377
0
LINE
8
BLACK
6
CONTINUOUS
10
0.0646266
20
1.3377
11
0.0716535
21
1.34262
0
LINE
8
BLACK
6
CONTINUOUS
10
0.0716535
20
1.34262
11
0.0794281
21
1.34624
0
LINE
8
BLACK
6
CONTINUOUS
10
0.0794281
20
1.34624
11
0.0877142
21
1.34846
0
LINE
8
BLACK
6
CONTINUOUS
10
0.0877142
20
1.34846
11
0.0962598
21
1.34921
0
LINE
8
BLACK
6
CONTINUOUS
10
0.0962598
20
1.34921
11
0.104806
21
1.34846
0
LINE
8
BLACK
6
CONTINUOUS
10
3.03
20
1.32
11
2.97
21
1.32
0
LINE
8
BLACK
6
CONTINUOUS
10
2.97
20
1.32
11
2.97
21
1.38
0
LINE
8
BLACK
6
CONTINUOUS
10
2.97
20
1.38
11
3.03
21
1.38
0
LINE
8
BLACK
6
CONTINUOUS
10
3.03
20
1.38
11
3.03
21
1.32
0
LINE
8
BLACK
6
CONTINUOUS
10
2.93
20
1.32
11
2.87
21
1.32
0
LINE
8
BLACK
6
CONTINUOUS
10
2.87
20
1.32
11
2.87
21
1.38
0
LINE
8
BLACK
6
CONTINUOUS
10
2.87
20
1.38
11
2.93
21
1.38
0
LINE
8
BLACK
6
CONTINUOUS
10
2.93
20
1.38
11
2.93
21
1.32
0
LINE
8
BLACK
6
CONTINUOUS
10
1.08318
20
1.39188
11
1.08979
21
1.38953
0
LINE
8
BLACK
6
CONTINUOUS
10
1.08979
20
1.38953
11
1.09572
21
1.38577
0
LINE
8
BLACK
6
CONTINUOUS
10
1.09572
20
1.38577
11
1.10067
21
1.38078
0
LINE
8
BLACK
6
CONTINUOUS
10
1.10067
20
1.38078
11
1.10439
21
1.37483
0
LINE
8
BLACK
6
CONTINUOUS
10
1.10439
20
1.37483
11
1.1067
21
1.3682
0
LINE
8
BLACK
6
CONTINUOUS
10
1.1067
20
1.3682
11
1.10748
21
1.36122
0
LINE
8
BLACK
6
CONTINUOUS
10
1.10748
20
1.36122
11
1.10747
21
1.36034
0
LINE
8
BLACK
6
CONTINUOUS
10
1.10747
20
1.36034
11
1.10649
21
1.35339
0
LINE
8
BLACK
6
CONTINUOUS
10
1.10649
20
1.35339
11
1.104
21
1.34682
0
LINE
8
BLACK
6
CONTINUOUS
10
1.104
20
1.34682
11
1.10011
21
1.34098
0
LINE
8
BLACK
6
CONTINUOUS
10
1.10011
20
1.34098
11
1.09503
21
1.33613
0
LINE
8
BLACK
6
CONTINUOUS
10
1.09503
20
1.33613
11
1.089
21
1.33254
0
LINE
8
BLACK
6
CONTINUOUS
10
1.089
20
1.33254
11
1.08232
21
1.33037
0
LINE
8
BLACK
6
CONTINUOUS
10
1.08232
20
1.33037
11
1.07532
21
1.32973
0
LINE
8
BLACK
6
CONTINUOUS
10
1.07532
20
1.32973
11
1.06836
21
1.33066
0
LINE
8
BLACK
6
CONTINUOUS
10
1.06836
20
1.33066
11
1.06178
21
1.33311
0
LINE
8
BLACK
6
CONTINUOUS
10
1.06178
20
1.33311
11
1.05591
21
1.33695
0
LINE
8
BLACK
6
CONTINUOUS
10
1.05591
20
1.33695
11
1.05103
21
1.342
0
LINE
8
BLACK
6
CONTINUOUS
10
1.05103
20
1.342
11
1.04739
21
1.34801
0
LINE
8
BLACK
6
CONTINUOUS
10
1.04739
20
1.34801
11
1.04518
21
1.35467
0
LINE
8
BLACK
6
CONTINUOUS
10
1.04518
20
1.35467
11
1.04449
21
1.36166
0
LINE
8
BLACK
6
CONTINUOUS
10
1.04449
20
1.36166
11
1.04537
21
1.36863
0
LINE
8
BLACK
6
CONTINUOUS
10
1.04537
20
1.36863
11
1.04777
21
1.37522
0
LINE
8
BLACK
6
CONTINUOUS
10
1.04777
20
1.37522
11
1.05158
21
1.38113
0
LINE
8
BLACK
6
CONTINUOUS
10
1.05158
20
1.38113
11
1.05659
21
1.38604
0
LINE
8
BLACK
6
CONTINUOUS
10
1.05659
20
1.38604
11
1.06257
21
1.38972
0
LINE
8
BLACK
6
CONTINUOUS
10
1.06257
20
1.38972
11
1.06922
21
1.39198
0
LINE
8
BLACK
6
CONTINUOUS
10
1.06922
20
1.39198
11
1.0762
21
1.39272
0
LINE
8
BLACK
6
CONTINUOUS
10
1.0762
20
1.39272
11
1.08318
21
1.39188
0
LINE
8
BLACK
6
CONTINUOUS
10
1.90836
20
1.38214
11
1.91358
21
1.37997
0
LINE
8
BLACK
6
CONTINUOUS
10
1.91358
20
1.37997
11
1.91807
21
1.37653
0
LINE
8
BLACK
6
CONTINUOUS
10
1.91807
20
1.37653
11
1.92151
21
1.37205
0
LINE
8
BLACK
6
CONTINUOUS
10
1.92151
20
1.37205
11
1.92367
21
1.36682
0
LINE
8
BLACK
6
CONTINUOUS
10
1.92367
20
1.36682
11
1.92441
21
1.36122
0
LINE
8
BLACK
6
CONTINUOUS
10
1.92441
20
1.36122
11
1.92367
21
1.35562
0
LINE
8
BLACK
6
CONTINUOUS
10
1.92367
20
1.35562
11
1.92151
21
1.35039
0
LINE
8
BLACK
6
CONTINUOUS
10
1.92151
20
1.35039
11
1.91807
21
1.34591
0
LINE
8
BLACK
6
CONTINUOUS
10
1.91807
20
1.34591
11
1.91358
21
1.34247
0
LINE
8
BLACK
6
CONTINUOUS
10
1.91358
20
1.34247
11
1.90836
21
1.3403
0
LINE
8
BLACK
6
CONTINUOUS
10
1.90836
20
1.3403
11
1.90276
21
1.33957
0
LINE
8
BLACK
6
CONTINUOUS
10
1.90276
20
1.33957
11
1.89715
21
1.3403
0
LINE
8
BLACK
6
CONTINUOUS
10
1.89715
20
1.3403
11
1.89193
21
1.34247
0
LINE
8
BLACK
6
CONTINUOUS
10
1.89193
20
1.34247
11
1.88744
21
1.34591
0
LINE
8
BLACK
6
CONTINUOUS
10
1.88744
20
1.34591
11
1.884
21
1.35039
0
LINE
8
BLACK
6
CONTINUOUS
10
1.884
20
1.35039
11
1.88184
21
1.35562
0
LINE
8
BLACK
6
CONTINUOUS
10
1.88184
20
1.35562
11
1.8811
21
1.36122
0
LINE
8
BLACK
6
CONTINUOUS
10
1.8811
20
1.36122
11
1.88184
21
1.36682
0
LINE
8
BLACK
6
CONTINUOUS
10
1.88184
20
1.36682
11
1.884
21
1.37205
0
LINE
8
BLACK
6
CONTINUOUS
10
1.884
20
1.37205
11
1.88744
21
1.37653
0
LINE
8
BLACK
6
CONTINUOUS
10
1.88744
20
1.37653
11
1.89193
21
1.37997
0
LINE
8
BLACK
6
CONTINUOUS
10
1.89193
20
1.37997
11
1.89715
21
1.38214
0
LINE
8
BLACK
6
CONTINUOUS
10
1.89715
20
1.38214
11
1.90276
21
1.38287
0
LINE
8
BLACK
6
CONTINUOUS
10
1.90276
20
1.38287
11
1.90836
21
1.38214
0
LINE
8
BLACK
6
CONTINUOUS
10
3.03
20
1.445
11
2.97
21
1.445
0
LINE
8
BLACK
6
CONTINUOUS
10
2.97
20
1.445
11
2.97
21
1.505
0
LINE
8
BLACK
6
CONTINUOUS
10
2.97
20
1.505
11
3.03
21
1.505
0
LINE
8
BLACK
6
CONTINUOUS
10
3.03
20
1.505
11
3.03
21
1.445
0
LINE
8
BLACK
6
CONTINUOUS
10
2.93
20
1.445
11
2.87
21
1.445
0
LINE
8
BLACK
6
CONTINUOUS
10
2.87
20
1.445
11
2.87
21
1.505
0
LINE
8
BLACK
6
CONTINUOUS
10
2.87
20
1.505
11
2.93
21
1.505
0
LINE
8
BLACK
6
CONTINUOUS
10
2.93
20
1.505
11
2.93
21
1.445
0
LINE
8
BLACK
6
CONTINUOUS
10
3.03
20
1.545
11
2.97
21
1.545
0
LINE
8
BLACK
6
CONTINUOUS
10
2.97
20
1.545
11
2.97
21
1.605
0
LINE
8
BLACK
6
CONTINUOUS
10
2.97
20
1.605
11
3.03
21
1.605
0
LINE
8
BLACK
6
CONTINUOUS
10
3.03
20
1.605
11
3.03
21
1.545
0
LINE
8
BLACK
6
CONTINUOUS
10
2.93
20
1.545
11
2.87
21
1.545
0
LINE
8
BLACK
6
CONTINUOUS
10
2.87
20
1.545
11
2.87
21
1.605
0
LINE
8
BLACK
6
CONTINUOUS
10
2.87
20
1.605
11
2.93
21
1.605
0
LINE
8
BLACK
6
CONTINUOUS
10
2.93
20
1.605
11
2.93
21
1.545
0
LINE
8
BLACK
6
CONTINUOUS
10
2.93
20
1.695
11
2.87
21
1.695
0
LINE
8
BLACK
6
CONTINUOUS
10
2.87
20
1.695
11
2.87
21
1.755
0
LINE
8
BLACK
6
CONTINUOUS
10
2.87
20
1.755
11
2.93
21
1.755
0
LINE
8
BLACK
6
CONTINUOUS
10
2.93
20
1.755
11
2.93
21
1.695
0
LINE
8
BLACK
6
CONTINUOUS
10
3.03
20
1.695
11
2.97
21
1.695
0
LINE
8
BLACK
6
CONTINUOUS
10
2.97
20
1.695
11
2.97
21
1.755
0
LINE
8
BLACK
6
CONTINUOUS
10
2.97
20
1.755
11
3.03
21
1.755
0
LINE
8
BLACK
6
CONTINUOUS
10
3.03
20
1.755
11
3.03
21
1.695
0
LINE
8
BLACK
6
CONTINUOUS
10
2.93
20
1.795
11
2.87
21
1.795
0
LINE
8
BLACK
6
CONTINUOUS
10
2.87
20
1.795
11
2.87
21
1.855
0
LINE
8
BLACK
6
CONTINUOUS
10
2.87
20
1.855
11
2.93
21
1.855
0
LINE
8
BLACK
6
CONTINUOUS
10
2.93
20
1.855
11
2.93
21
1.795
0
LINE
8
BLACK
6
CONTINUOUS
10
3.03
20
1.795
11
2.97
21
1.795
0
LINE
8
BLACK
6
CONTINUOUS
10
2.97
20
1.795
11
2.97
21
1.855
0
LINE
8
BLACK
6
CONTINUOUS
10
2.97
20
1.855
11
3.03
21
1.855
0
LINE
8
BLACK
6
CONTINUOUS
10
3.03
20
1.855
11
3.03
21
1.795
0
LINE
8
BLACK
6
CONTINUOUS
10
2.93
20
1.895
11
2.87
21
1.895
0
LINE
8
BLACK
6
CONTINUOUS
10
2.87
20
1.895
11
2.87
21
1.955
0
LINE
8
BLACK
6
CONTINUOUS
10
2.87
20
1.955
11
2.93
21
1.955
0
LINE
8
BLACK
6
CONTINUOUS
10
2.93
20
1.955
11
2.93
21
1.895
0
LINE
8
BLACK
6
CONTINUOUS
10
3.03
20
1.895
11
2.97
21
1.895
0
LINE
8
BLACK
6
CONTINUOUS
10
2.97
20
1.895
11
2.97
21
1.955
0
LINE
8
BLACK
6
CONTINUOUS
10
2.97
20
1.955
11
3.03
21
1.955
0
LINE
8
BLACK
6
CONTINUOUS
10
3.03
20
1.955
11
3.03
21
1.895
0
LINE
8
BLACK
6
CONTINUOUS
10
3.03
20
1.995
11
2.97
21
1.995
0
LINE
8
BLACK
6
CONTINUOUS
10
2.97
20
1.995
11
2.97
21
2.055
0
LINE
8
BLACK
6
CONTINUOUS
10
2.97
20
2.055
11
3.03
21
2.055
0
LINE
8
BLACK
6
CONTINUOUS
10
3.03
20
2.055
11
3.03
21
1.995
0
LINE
8
BLACK
6
CONTINUOUS
10
2.93
20
1.995
11
2.87
21
1.995
0
LINE
8
BLACK
6
CONTINUOUS
10
2.87
20
1.995
11
2.87
21
2.055
0
LINE
8
BLACK
6
CONTINUOUS
10
2.87
20
2.055
11
2.93
21
2.055
0
LINE
8
BLACK
6
CONTINUOUS
10
2.93
20
2.055
11
2.93
21
1.995
0
LINE
8
BLACK
6
CONTINUOUS
10
3.03
20
2.095
11
2.97
21
2.095
0
LINE
8
BLACK
6
CONTINUOUS
10
2.97
20
2.095
11
2.97
21
2.155
0
LINE
8
BLACK
6
CONTINUOUS
10
2.97
20
2.155
11
3.03
21
2.155
0
LINE
8
BLACK
6
CONTINUOUS
10
3.03
20
2.155
11
3.03
21
2.095
0
LINE
8
BLACK
6
CONTINUOUS
10
2.93
20
2.095
11
2.87
21
2.095
0
LINE
8
BLACK
6
CONTINUOUS
10
2.87
20
2.095
11
2.87
21
2.155
0
LINE
8
BLACK
6
CONTINUOUS
10
2.87
20
2.155
11
2.93
21
2.155
0
LINE
8
BLACK
6
CONTINUOUS
10
2.93
20
2.155
11
2.93
21
2.095
0
LINE
8
BLACK
6
CONTINUOUS
10
2.93
20
2.245
11
2.87
21
2.245
0
LINE
8
BLACK
6
CONTINUOUS
10
2.87
20
2.245
11
2.87
21
2.305
0
LINE
8
BLACK
6
CONTINUOUS
10
2.87
20
2.305
11
2.93
21
2.305
0
LINE
8
BLACK
6
CONTINUOUS
10
2.93
20
2.305
11
2.93
21
2.245
0
LINE
8
BLACK
6
CONTINUOUS
10
3.03
20
2.245
11
2.97
21
2.245
0
LINE
8
BLACK
6
CONTINUOUS
10
2.97
20
2.245
11
2.97
21
2.305
0
LINE
8
BLACK
6
CONTINUOUS
10
2.97
20
2.305
11
3.03
21
2.305
0
LINE
8
BLACK
6
CONTINUOUS
10
3.03
20
2.305
11
3.03
21
2.245
0
LINE
8
BLACK
6
CONTINUOUS
10
2.93
20
2.345
11
2.87
21
2.345
0
LINE
8
BLACK
6
CONTINUOUS
10
2.87
20
2.345
11
2.87
21
2.405
0
LINE
8
BLACK
6
CONTINUOUS
10
2.87
20
2.405
11
2.93
21
2.405
0
LINE
8
BLACK
6
CONTINUOUS
10
2.93
20
2.405
11
2.93
21
2.345
0
LINE
8
BLACK
6
CONTINUOUS
10
3.03
20
2.345
11
2.97
21
2.345
0
LINE
8
BLACK
6
CONTINUOUS
10
2.97
20
2.345
11
2.97
21
2.405
0
LINE
8
BLACK
6
CONTINUOUS
10
2.97
20
2.405
11
3.03
21
2.405
0
LINE
8
BLACK
6
CONTINUOUS
10
3.03
20
2.405
11
3.03
21
2.345
0
LINE
8
BLACK
6
CONTINUOUS
10
2.93
20
2.445
11
2.87
21
2.445
0
LINE
8
BLACK
6
CONTINUOUS
10
2.87
20
2.445
11
2.87
21
2.505
0
LINE
8
BLACK
6
CONTINUOUS
10
2.87
20
2.505
11
2.93
21
2.505
0
LINE
8
BLACK
6
CONTINUOUS
10
2.93
20
2.505
11
2.93
21
2.445
0
LINE
8
BLACK
6
CONTINUOUS
10
3.03
20
2.445
11
2.97
21
2.445
0
LINE
8
BLACK
6
CONTINUOUS
10
2.97
20
2.445
11
2.97
21
2.505
0
LINE
8
BLACK
6
CONTINUOUS
10
2.97
20
2.505
11
3.03
21
2.505
0
LINE
8
BLACK
6
CONTINUOUS
10
3.03
20
2.505
11
3.03
21
2.445
0
LINE
8
BLACK
6
CONTINUOUS
10
3.03
20
2.545
11
2.97
21
2.545
0
LINE
8
BLACK
6
CONTINUOUS
10
2.97
20
2.545
11
2.97
21
2.605
0
LINE
8
BLACK
6
CONTINUOUS
10
2.97
20
2.605
11
3.03
21
2.605
0
LINE
8
BLACK
6
CONTINUOUS
10
3.03
20
2.605
11
3.03
21
2.545
0
LINE
8
BLACK
6
CONTINUOUS
10
2.93
20
2.545
11
2.87
21
2.545
0
LINE
8
BLACK
6
CONTINUOUS
10
2.87
20
2.545
11
2.87
21
2.605
0
LINE
8
BLACK
6
CONTINUOUS
10
2.87
20
2.605
11
2.93
21
2.605
0
LINE
8
BLACK
6
CONTINUOUS
10
2.93
20
2.605
11
2.93
21
2.545
0
LINE
8
BLACK
6
CONTINUOUS
10
2.13735
20
2.88782
11
2.14871
21
2.88556
0
LINE
8
BLACK
6
CONTINUOUS
10
2.14871
20
2.88556
11
2.15969
21
2.88184
0
LINE
8
BLACK
6
CONTINUOUS
10
2.15969
20
2.88184
11
2.17008
21
2.87671
0
LINE
8
BLACK
6
CONTINUOUS
10
2.17008
20
2.87671
11
2.17971
21
2.87028
0
LINE
8
BLACK
6
CONTINUOUS
10
2.17971
20
2.87028
11
2.18842
21
2.86264
0
LINE
8
BLACK
6
CONTINUOUS
10
2.18842
20
2.86264
11
2.19606
21
2.85393
0
LINE
8
BLACK
6
CONTINUOUS
10
2.19606
20
2.85393
11
2.2025
21
2.84429
0
LINE
8
BLACK
6
CONTINUOUS
10
2.2025
20
2.84429
11
2.20763
21
2.8339
0
LINE
8
BLACK
6
CONTINUOUS
10
2.20763
20
2.8339
11
2.21135
21
2.82293
0
LINE
8
BLACK
6
CONTINUOUS
10
2.21135
20
2.82293
11
2.21361
21
2.81156
0
LINE
8
BLACK
6
CONTINUOUS
10
2.21361
20
2.81156
11
2.21437
21
2.8
0
LINE
8
BLACK
6
CONTINUOUS
10
2.21437
20
2.8
11
2.21361
21
2.78844
0
LINE
8
BLACK
6
CONTINUOUS
10
2.21361
20
2.78844
11
2.21135
21
2.77707
0
LINE
8
BLACK
6
CONTINUOUS
10
2.21135
20
2.77707
11
2.20763
21
2.7661
0
LINE
8
BLACK
6
CONTINUOUS
10
2.20763
20
2.7661
11
2.2025
21
2.75571
0
LINE
8
BLACK
6
CONTINUOUS
10
2.2025
20
2.75571
11
2.19606
21
2.74607
0
LINE
8
BLACK
6
CONTINUOUS
10
2.19606
20
2.74607
11
2.18842
21
2.73736
0
LINE
8
BLACK
6
CONTINUOUS
10
2.18842
20
2.73736
11
2.17971
21
2.72972
0
LINE
8
BLACK
6
CONTINUOUS
10
2.17971
20
2.72972
11
2.17008
21
2.72329
0
LINE
8
BLACK
6
CONTINUOUS
10
2.17008
20
2.72329
11
2.15969
21
2.71816
0
LINE
8
BLACK
6
CONTINUOUS
10
2.15969
20
2.71816
11
2.14871
21
2.71444
0
LINE
8
BLACK
6
CONTINUOUS
10
2.14871
20
2.71444
11
2.13735
21
2.71218
0
LINE
8
BLACK
6
CONTINUOUS
10
2.13735
20
2.71218
11
2.12579
21
2.71142
0
LINE
8
BLACK
6
CONTINUOUS
10
2.12579
20
2.71142
11
2.11423
21
2.71218
0
LINE
8
BLACK
6
CONTINUOUS
10
2.11423
20
2.71218
11
2.10286
21
2.71444
0
LINE
8
BLACK
6
CONTINUOUS
10
2.10286
20
2.71444
11
2.09189
21
2.71816
0
LINE
8
BLACK
6
CONTINUOUS
10
2.09189
20
2.71816
11
2.0815
21
2.72329
0
LINE
8
BLACK
6
CONTINUOUS
10
2.0815
20
2.72329
11
2.07186
21
2.72972
0
LINE
8
BLACK
6
CONTINUOUS
10
2.07186
20
2.72972
11
2.06315
21
2.73736
0
LINE
8
BLACK
6
CONTINUOUS
10
2.06315
20
2.73736
11
2.05551
21
2.74607
0
LINE
8
BLACK
6
CONTINUOUS
10
2.05551
20
2.74607
11
2.04907
21
2.75571
0
LINE
8
BLACK
6
CONTINUOUS
10
2.04907
20
2.75571
11
2.04395
21
2.7661
0
LINE
8
BLACK
6
CONTINUOUS
10
2.04395
20
2.7661
11
2.04022
21
2.77707
0
LINE
8
BLACK
6
CONTINUOUS
10
2.04022
20
2.77707
11
2.03796
21
2.78844
0
LINE
8
BLACK
6
CONTINUOUS
10
2.03796
20
2.78844
11
2.0372
21
2.8
0
LINE
8
BLACK
6
CONTINUOUS
10
2.0372
20
2.8
11
2.03796
21
2.81156
0
LINE
8
BLACK
6
CONTINUOUS
10
2.03796
20
2.81156
11
2.04022
21
2.82293
0
LINE
8
BLACK
6
CONTINUOUS
10
2.04022
20
2.82293
11
2.04395
21
2.8339
0
LINE
8
BLACK
6
CONTINUOUS
10
2.04395
20
2.8339
11
2.04907
21
2.84429
0
LINE
8
BLACK
6
CONTINUOUS
10
2.04907
20
2.84429
11
2.05551
21
2.85393
0
LINE
8
BLACK
6
CONTINUOUS
10
2.05551
20
2.85393
11
2.06315
21
2.86264
0
LINE
8
BLACK
6
CONTINUOUS
10
2.06315
20
2.86264
11
2.07186
21
2.87028
0
LINE
8
BLACK
6
CONTINUOUS
10
2.07186
20
2.87028
11
2.0815
21
2.87671
0
LINE
8
BLACK
6
CONTINUOUS
10
2.0815
20
2.87671
11
2.09189
21
2.88184
0
LINE
8
BLACK
6
CONTINUOUS
10
2.09189
20
2.88184
11
2.10286
21
2.88556
0
LINE
8
BLACK
6
CONTINUOUS
10
2.10286
20
2.88556
11
2.11423
21
2.88782
0
LINE
8
BLACK
6
CONTINUOUS
10
2.11423
20
2.88782
11
2.12579
21
2.88858
0
LINE
8
BLACK
6
CONTINUOUS
10
2.12579
20
2.88858
11
2.13735
21
2.88782
0
LINE
8
BLACK
6
CONTINUOUS
10
0.735775
20
2.88782
11
0.747139
21
2.88556
0
LINE
8
BLACK
6
CONTINUOUS
10
0.747139
20
2.88556
11
0.758112
21
2.88184
0
LINE
8
BLACK
6
CONTINUOUS
10
0.758112
20
2.88184
11
0.768504
21
2.87671
0
LINE
8
BLACK
6
CONTINUOUS
10
0.768504
20
2.87671
11
0.778138
21
2.87028
0
LINE
8
BLACK
6
CONTINUOUS
10
0.778138
20
2.87028
11
0.78685
21
2.86264
0
LINE
8
BLACK
6
CONTINUOUS
10
0.78685
20
2.86264
11
0.79449
21
2.85393
0
LINE
8
BLACK
6
CONTINUOUS
10
0.79449
20
2.85393
11
0.800927
21
2.84429
0
LINE
8
BLACK
6
CONTINUOUS
10
0.800927
20
2.84429
11
0.806052
21
2.8339
0
LINE
8
BLACK
6
CONTINUOUS
10
0.806052
20
2.8339
11
0.809777
21
2.82293
0
LINE
8
BLACK
6
CONTINUOUS
10
0.809777
20
2.82293
11
0.812037
21
2.81156
0
LINE
8
BLACK
6
CONTINUOUS
10
0.812037
20
2.81156
11
0.812795
21
2.8
0
LINE
8
BLACK
6
CONTINUOUS
10
0.812795
20
2.8
11
0.812037
21
2.78844
0
LINE
8
BLACK
6
CONTINUOUS
10
0.812037
20
2.78844
11
0.809777
21
2.77707
0
LINE
8
BLACK
6
CONTINUOUS
10
0.809777
20
2.77707
11
0.806052
21
2.7661
0
LINE
8
BLACK
6
CONTINUOUS
10
0.806052
20
2.7661
11
0.800927
21
2.75571
0
LINE
8
BLACK
6
CONTINUOUS
10
0.800927
20
2.75571
11
0.79449
21
2.74607
0
LINE
8
BLACK
6
CONTINUOUS
10
0.79449
20
2.74607
11
0.78685
21
2.73736
0
LINE
8
BLACK
6
CONTINUOUS
10
0.78685
20
2.73736
11
0.778138
21
2.72972
0
LINE
8
BLACK
6
CONTINUOUS
10
0.778138
20
2.72972
11
0.768504
21
2.72329
0
LINE
8
BLACK
6
CONTINUOUS
10
0.768504
20
2.72329
11
0.758112
21
2.71816
0
LINE
8
BLACK
6
CONTINUOUS
10
0.758112
20
2.71816
11
0.747139
21
2.71444
0
LINE
8
BLACK
6
CONTINUOUS
10
0.747139
20
2.71444
11
0.735775
21
2.71218
0
LINE
8
BLACK
6
CONTINUOUS
10
0.735775
20
2.71218
11
0.724213
21
2.71142
0
LINE
8
BLACK
6
CONTINUOUS
10
0.724213
20
2.71142
11
0.71265
21
2.71218
0
LINE
8
BLACK
6
CONTINUOUS
10
0.71265
20
2.71218
11
0.701286
21
2.71444
0
LINE
8
BLACK
6
CONTINUOUS
10
0.701286
20
2.71444
11
0.690313
21
2.71816
0
LINE
8
BLACK
6
CONTINUOUS
10
0.690313
20
2.71816
11
0.679921
21
2.72329
0
LINE
8
BLACK
6
CONTINUOUS
10
0.679921
20
2.72329
11
0.670287
21
2.72972
0
LINE
8
BLACK
6
CONTINUOUS
10
0.670287
20
2.72972
11
0.661575
21
2.73736
0
LINE
8
BLACK
6
CONTINUOUS
10
0.661575
20
2.73736
11
0.653935
21
2.74607
0
LINE
8
BLACK
6
CONTINUOUS
10
0.653935
20
2.74607
11
0.647498
21
2.75571
0
LINE
8
BLACK
6
CONTINUOUS
10
0.647498
20
2.75571
11
0.642373
21
2.7661
0
LINE
8
BLACK
6
CONTINUOUS
10
0.642373
20
2.7661
11
0.638648
21
2.77707
0
LINE
8
BLACK
6
CONTINUOUS
10
0.638648
20
2.77707
11
0.636388
21
2.78844
0
LINE
8
BLACK
6
CONTINUOUS
10
0.636388
20
2.78844
11
0.63563
21
2.8
0
LINE
8
BLACK
6
CONTINUOUS
10
0.63563
20
2.8
11
0.636388
21
2.81156
0
LINE
8
BLACK
6
CONTINUOUS
10
0.636388
20
2.81156
11
0.638648
21
2.82293
0
LINE
8
BLACK
6
CONTINUOUS
10
0.638648
20
2.82293
11
0.642373
21
2.8339
0
LINE
8
BLACK
6
CONTINUOUS
10
0.642373
20
2.8339
11
0.647498
21
2.84429
0
LINE
8
BLACK
6
CONTINUOUS
10
0.647498
20
2.84429
11
0.653935
21
2.85393
0
LINE
8
BLACK
6
CONTINUOUS
10
0.653935
20
2.85393
11
0.661575
21
2.86264
0
LINE
8
BLACK
6
CONTINUOUS
10
0.661575
20
2.86264
11
0.670287
21
2.87028
0
LINE
8
BLACK
6
CONTINUOUS
10
0.670287
20
2.87028
11
0.679921
21
2.87671
0
LINE
8
BLACK
6
CONTINUOUS
10
0.679921
20
2.87671
11
0.690313
21
2.88184
0
LINE
8
BLACK
6
CONTINUOUS
10
0.690313
20
2.88184
11
0.701286
21
2.88556
0
LINE
8
BLACK
6
CONTINUOUS
10
0.701286
20
2.88556
11
0.71265
21
2.88782
0
LINE
8
BLACK
6
CONTINUOUS
10
0.71265
20
2.88782
11
0.724213
21
2.88858
0
LINE
8
BLACK
6
CONTINUOUS
10
0.724213
20
2.88858
11
0.735775
21
2.88782
0
LINE
8
BLACK
6
CONTINUOUS
10
0.104806
20
2.84846
11
0.113092
21
2.84624
0
LINE
8
BLACK
6
CONTINUOUS
10
0.113092
20
2.84624
11
0.120866
21
2.84262
0
LINE
8
BLACK
6
CONTINUOUS
10
0.120866
20
2.84262
11
0.127893
21
2.8377
0
LINE
8
BLACK
6
CONTINUOUS
10
0.127893
20
2.8377
11
0.133959
21
2.83163
0
LINE
8
BLACK
6
CONTINUOUS
10
0.133959
20
2.83163
11
0.138879
21
2.82461
0
LINE
8
BLACK
6
CONTINUOUS
10
0.138879
20
2.82461
11
0.142505
21
2.81683
0
LINE
8
BLACK
6
CONTINUOUS
10
0.142505
20
2.81683
11
0.144725
21
2.80855
0
LINE
8
BLACK
6
CONTINUOUS
10
0.144725
20
2.80855
11
0.145472
21
2.8
0
LINE
8
BLACK
6
CONTINUOUS
10
0.145472
20
2.8
11
0.144725
21
2.79145
0
LINE
8
BLACK
6
CONTINUOUS
10
0.144725
20
2.79145
11
0.142505
21
2.78317
0
LINE
8
BLACK
6
CONTINUOUS
10
0.142505
20
2.78317
11
0.138879
21
2.77539
0
LINE
8
BLACK
6
CONTINUOUS
10
0.138879
20
2.77539
11
0.133959
21
2.76837
0
LINE
8
BLACK
6
CONTINUOUS
10
0.133959
20
2.76837
11
0.127893
21
2.7623
0
LINE
8
BLACK
6
CONTINUOUS
10
0.127893
20
2.7623
11
0.120866
21
2.75738
0
LINE
8
BLACK
6
CONTINUOUS
10
0.120866
20
2.75738
11
0.113092
21
2.75376
0
LINE
8
BLACK
6
CONTINUOUS
10
0.113092
20
2.75376
11
0.104806
21
2.75154
0
LINE
8
BLACK
6
CONTINUOUS
10
0.104806
20
2.75154
11
0.0962598
21
2.75079
0
LINE
8
BLACK
6
CONTINUOUS
10
0.0962598
20
2.75079
11
0.0877142
21
2.75154
0
LINE
8
BLACK
6
CONTINUOUS
10
0.0877142
20
2.75154
11
0.0794281
21
2.75376
0
LINE
8
BLACK
6
CONTINUOUS
10
0.0794281
20
2.75376
11
0.0716535
21
2.75738
0
LINE
8
BLACK
6
CONTINUOUS
10
0.0716535
20
2.75738
11
0.0646266
21
2.7623
0
LINE
8
BLACK
6
CONTINUOUS
10
0.0646266
20
2.7623
11
0.0585608
21
2.76837
0
LINE
8
BLACK
6
CONTINUOUS
10
0.0585608
20
2.76837
11
0.0536405
21
2.77539
0
LINE
8
BLACK
6
CONTINUOUS
10
0.0536405
20
2.77539
11
0.0500151
21
2.78317
0
LINE
8
BLACK
6
CONTINUOUS
10
0.0500151
20
2.78317
11
0.0477949
21
2.79145
0
LINE
8
BLACK
6
CONTINUOUS
10
0.0477949
20
2.79145
11
0.0470472
21
2.8
0
LINE
8
BLACK
6
CONTINUOUS
10
0.0470472
20
2.8
11
0.0477949
21
2.80855
0
LINE
8
BLACK
6
CONTINUOUS
10
0.0477949
20
2.80855
11
0.0500151
21
2.81683
0
LINE
8
BLACK
6
CONTINUOUS
10
0.0500151
20
2.81683
11
0.0536405
21
2.82461
0
LINE
8
BLACK
6
CONTINUOUS
10
0.0536405
20
2.82461
11
0.0585608
21
2.83163
0
LINE
8
BLACK
6
CONTINUOUS
10
0.0585608
20
2.83163
11
0.0646266
21
2.8377
0
LINE
8
BLACK
6
CONTINUOUS
10
0.0646266
20
2.8377
11
0.0716535
21
2.84262
0
LINE
8
BLACK
6
CONTINUOUS
10
0.0716535
20
2.84262
11
0.0794281
21
2.84624
0
LINE
8
BLACK
6
CONTINUOUS
10
0.0794281
20
2.84624
11
0.0877142
21
2.84846
0
LINE
8
BLACK
6
CONTINUOUS
10
0.0877142
20
2.84846
11
0.0962598
21
2.84921
0
LINE
8
BLACK
6
CONTINUOUS
10
0.0962598
20
2.84921
11
0.104806
21
2.84846
0
LINE
8
BLACK
6
CONTINUOUS
10
2.76229
20
2.84846
11
2.77057
21
2.84624
0
LINE
8
BLACK
6
CONTINUOUS
10
2.77057
20
2.84624
11
2.77835
21
2.84262
0
LINE
8
BLACK
6
CONTINUOUS
10
2.77835
20
2.84262
11
2.78537
21
2.8377
0
LINE
8
BLACK
6
CONTINUOUS
10
2.78537
20
2.8377
11
2.79144
21
2.83163
0
LINE
8
BLACK
6
CONTINUOUS
10
2.79144
20
2.83163
11
2.79636
21
2.82461
0
LINE
8
BLACK
6
CONTINUOUS
10
2.79636
20
2.82461
11
2.79998
21
2.81683
0
LINE
8
BLACK
6
CONTINUOUS
10
2.79998
20
2.81683
11
2.80221
21
2.80855
0
LINE
8
BLACK
6
CONTINUOUS
10
2.80221
20
2.80855
11
2.80295
21
2.8
0
LINE
8
BLACK
6
CONTINUOUS
10
2.80295
20
2.8
11
2.80221
21
2.79145
0
LINE
8
BLACK
6
CONTINUOUS
10
2.80221
20
2.79145
11
2.79998
21
2.78317
0
LINE
8
BLACK
6
CONTINUOUS
10
2.79998
20
2.78317
11
2.79636
21
2.77539
0
LINE
8
BLACK
6
CONTINUOUS
10
2.79636
20
2.77539
11
2.79144
21
2.76837
0
LINE
8
BLACK
6
CONTINUOUS
10
2.79144
20
2.76837
11
2.78537
21
2.7623
0
LINE
8
BLACK
6
CONTINUOUS
10
2.78537
20
2.7623
11
2.77835
21
2.75738
0
LINE
8
BLACK
6
CONTINUOUS
10
2.77835
20
2.75738
11
2.77057
21
2.75376
0
LINE
8
BLACK
6
CONTINUOUS
10
2.77057
20
2.75376
11
2.76229
21
2.75154
0
LINE
8
BLACK
6
CONTINUOUS
10
2.76229
20
2.75154
11
2.75374
21
2.75079
0
LINE
8
BLACK
6
CONTINUOUS
10
2.75374
20
2.75079
11
2.74519
21
2.75154
0
LINE
8
BLACK
6
CONTINUOUS
10
2.74519
20
2.75154
11
2.73691
21
2.75376
0
LINE
8
BLACK
6
CONTINUOUS
10
2.73691
20
2.75376
11
2.72913
21
2.75738
0
LINE
8
BLACK
6
CONTINUOUS
10
2.72913
20
2.75738
11
2.72211
21
2.7623
0
LINE
8
BLACK
6
CONTINUOUS
10
2.72211
20
2.7623
11
2.71604
21
2.76837
0
LINE
8
BLACK
6
CONTINUOUS
10
2.71604
20
2.76837
11
2.71112
21
2.77539
0
LINE
8
BLACK
6
CONTINUOUS
10
2.71112
20
2.77539
11
2.7075
21
2.78317
0
LINE
8
BLACK
6
CONTINUOUS
10
2.7075
20
2.78317
11
2.70528
21
2.79145
0
LINE
8
BLACK
6
CONTINUOUS
10
2.70528
20
2.79145
11
2.70453
21
2.8
0
LINE
8
BLACK
6
CONTINUOUS
10
2.70453
20
2.8
11
2.70528
21
2.80855
0
LINE
8
BLACK
6
CONTINUOUS
10
2.70528
20
2.80855
11
2.7075
21
2.81683
0
LINE
8
BLACK
6
CONTINUOUS
10
2.7075
20
2.81683
11
2.71112
21
2.82461
0
LINE
8
BLACK
6
CONTINUOUS
10
2.71112
20
2.82461
11
2.71604
21
2.83163
0
LINE
8
BLACK
6
CONTINUOUS
10
2.71604
20
2.83163
11
2.72211
21
2.8377
0
LINE
8
BLACK
6
CONTINUOUS
10
2.72211
20
2.8377
11
2.72913
21
2.84262
0
LINE
8
BLACK
6
CONTINUOUS
10
2.72913
20
2.84262
11
2.73691
21
2.84624
0
LINE
8
BLACK
6
CONTINUOUS
10
2.73691
20
2.84624
11
2.74519
21
2.84846
0
LINE
8
BLACK
6
CONTINUOUS
10
2.74519
20
2.84846
11
2.75374
21
2.84921
0
LINE
8
BLACK
6
CONTINUOUS
10
2.75374
20
2.84921
11
2.76229
21
2.84846
0
LINE
8
BLACK
6
CONTINUOUS
10
2.95675
20
2.83267
11
2.96295
21
2.83046
0
LINE
8
BLACK
6
CONTINUOUS
10
2.96295
20
2.83046
11
2.96852
21
2.82693
0
LINE
8
BLACK
6
CONTINUOUS
10
2.96852
20
2.82693
11
2.97316
21
2.82225
0
LINE
8
BLACK
6
CONTINUOUS
10
2.97316
20
2.82225
11
2.97665
21
2.81667
0
LINE
8
BLACK
6
CONTINUOUS
10
2.97665
20
2.81667
11
2.97882
21
2.81045
0
LINE
8
BLACK
6
CONTINUOUS
10
2.97882
20
2.81045
11
2.97955
21
2.8039
0
LINE
8
BLACK
6
CONTINUOUS
10
2.97955
20
2.8039
11
2.97954
21
2.80307
0
LINE
8
BLACK
6
CONTINUOUS
10
2.97954
20
2.80307
11
2.97862
21
2.79655
0
LINE
8
BLACK
6
CONTINUOUS
10
2.97862
20
2.79655
11
2.97628
21
2.79039
0
LINE
8
BLACK
6
CONTINUOUS
10
2.97628
20
2.79039
11
2.97264
21
2.78491
0
LINE
8
BLACK
6
CONTINUOUS
10
2.97264
20
2.78491
11
2.96787
21
2.78036
0
LINE
8
BLACK
6
CONTINUOUS
10
2.96787
20
2.78036
11
2.96221
21
2.77699
0
LINE
8
BLACK
6
CONTINUOUS
10
2.96221
20
2.77699
11
2.95594
21
2.77495
0
LINE
8
BLACK
6
CONTINUOUS
10
2.95594
20
2.77495
11
2.94938
21
2.77436
0
LINE
8
BLACK
6
CONTINUOUS
10
2.94938
20
2.77436
11
2.94285
21
2.77523
0
LINE
8
BLACK
6
CONTINUOUS
10
2.94285
20
2.77523
11
2.93668
21
2.77752
0
LINE
8
BLACK
6
CONTINUOUS
10
2.93668
20
2.77752
11
2.93116
21
2.78113
0
LINE
8
BLACK
6
CONTINUOUS
10
2.93116
20
2.78113
11
2.92659
21
2.78587
0
LINE
8
BLACK
6
CONTINUOUS
10
2.92659
20
2.78587
11
2.92318
21
2.79151
0
LINE
8
BLACK
6
CONTINUOUS
10
2.92318
20
2.79151
11
2.9211
21
2.79776
0
LINE
8
BLACK
6
CONTINUOUS
10
2.9211
20
2.79776
11
2.92045
21
2.80431
0
LINE
8
BLACK
6
CONTINUOUS
10
2.92045
20
2.80431
11
2.92128
21
2.81085
0
LINE
8
BLACK
6
CONTINUOUS
10
2.92128
20
2.81085
11
2.92353
21
2.81704
0
LINE
8
BLACK
6
CONTINUOUS
10
2.92353
20
2.81704
11
2.9271
21
2.82258
0
LINE
8
BLACK
6
CONTINUOUS
10
2.9271
20
2.82258
11
2.93181
21
2.82719
0
LINE
8
BLACK
6
CONTINUOUS
10
2.93181
20
2.82719
11
2.93742
21
2.83064
0
LINE
8
BLACK
6
CONTINUOUS
10
2.93742
20
2.83064
11
2.94365
21
2.83276
0
LINE
8
BLACK
6
CONTINUOUS
10
2.94365
20
2.83276
11
2.95021
21
2.83345
0
LINE
8
BLACK
6
CONTINUOUS
10
2.95021
20
2.83345
11
2.95675
21
2.83267
0
LINE
8
BLACK
6
CONTINUOUS
10
2.95675
20
3.02487
11
2.96295
21
3.02266
0
LINE
8
BLACK
6
CONTINUOUS
10
2.96295
20
3.02266
11
2.96852
21
3.01913
0
LINE
8
BLACK
6
CONTINUOUS
10
2.96852
20
3.01913
11
2.97316
21
3.01445
0
LINE
8
BLACK
6
CONTINUOUS
10
2.97316
20
3.01445
11
2.97665
21
3.00887
0
LINE
8
BLACK
6
CONTINUOUS
10
2.97665
20
3.00887
11
2.97882
21
3.00265
0
LINE
8
BLACK
6
CONTINUOUS
10
2.97882
20
3.00265
11
2.97955
21
2.9961
0
LINE
8
BLACK
6
CONTINUOUS
10
2.97955
20
2.9961
11
2.97954
21
2.99527
0
LINE
8
BLACK
6
CONTINUOUS
10
2.97954
20
2.99527
11
2.97862
21
2.98875
0
LINE
8
BLACK
6
CONTINUOUS
10
2.97862
20
2.98875
11
2.97628
21
2.98259
0
LINE
8
BLACK
6
CONTINUOUS
10
2.97628
20
2.98259
11
2.97264
21
2.97711
0
LINE
8
BLACK
6
CONTINUOUS
10
2.97264
20
2.97711
11
2.96787
21
2.97256
0
LINE
8
BLACK
6
CONTINUOUS
10
2.96787
20
2.97256
11
2.96221
21
2.96919
0
LINE
8
BLACK
6
CONTINUOUS
10
2.96221
20
2.96919
11
2.95594
21
2.96715
0
LINE
8
BLACK
6
CONTINUOUS
10
2.95594
20
2.96715
11
2.94938
21
2.96656
0
LINE
8
BLACK
6
CONTINUOUS
10
2.94938
20
2.96656
11
2.94285
21
2.96743
0
LINE
8
BLACK
6
CONTINUOUS
10
2.94285
20
2.96743
11
2.93668
21
2.96972
0
LINE
8
BLACK
6
CONTINUOUS
10
2.93668
20
2.96972
11
2.93116
21
2.97333
0
LINE
8
BLACK
6
CONTINUOUS
10
2.93116
20
2.97333
11
2.92659
21
2.97807
0
LINE
8
BLACK
6
CONTINUOUS
10
2.92659
20
2.97807
11
2.92318
21
2.98371
0
LINE
8
BLACK
6
CONTINUOUS
10
2.92318
20
2.98371
11
2.9211
21
2.98996
0
LINE
8
BLACK
6
CONTINUOUS
10
2.9211
20
2.98996
11
2.92045
21
2.99651
0
LINE
8
BLACK
6
CONTINUOUS
10
2.92045
20
2.99651
11
2.92128
21
3.00305
0
LINE
8
BLACK
6
CONTINUOUS
10
2.92128
20
3.00305
11
2.92353
21
3.00924
0
LINE
8
BLACK
6
CONTINUOUS
10
2.92353
20
3.00924
11
2.9271
21
3.01478
0
LINE
8
BLACK
6
CONTINUOUS
10
2.9271
20
3.01478
11
2.93181
21
3.01939
0
LINE
8
BLACK
6
CONTINUOUS
10
2.93181
20
3.01939
11
2.93742
21
3.02284
0
LINE
8
BLACK
6
CONTINUOUS
10
2.93742
20
3.02284
11
2.94365
21
3.02496
0
LINE
8
BLACK
6
CONTINUOUS
10
2.94365
20
3.02496
11
2.95021
21
3.02565
0
LINE
8
BLACK
6
CONTINUOUS
10
2.95021
20
3.02565
11
2.95675
21
3.02487
0
LINE
8
BLACK
6
CONTINUOUS
10
2.93
20
3.17
11
2.87
21
3.17
0
LINE
8
BLACK
6
CONTINUOUS
10
2.87
20
3.17
11
2.87
21
3.23
0
LINE
8
BLACK
6
CONTINUOUS
10
2.87
20
3.23
11
2.93
21
3.23
0
LINE
8
BLACK
6
CONTINUOUS
10
2.93
20
3.23
11
2.93
21
3.17
0
LINE
8
BLACK
6
CONTINUOUS
10
3.03
20
3.17
11
2.97
21
3.17
0
LINE
8
BLACK
6
CONTINUOUS
10
2.97
20
3.17
11
2.97
21
3.23
0
LINE
8
BLACK
6
CONTINUOUS
10
2.97
20
3.23
11
3.03
21
3.23
0
LINE
8
BLACK
6
CONTINUOUS
10
3.03
20
3.23
11
3.03
21
3.17
0
LINE
8
BLACK
6
CONTINUOUS
10
2.93
20
3.32
11
2.87
21
3.32
0
LINE
8
BLACK
6
CONTINUOUS
10
2.87
20
3.32
11
2.87
21
3.38
0
LINE
8
BLACK
6
CONTINUOUS
10
2.87
20
3.38
11
2.93
21
3.38
0
LINE
8
BLACK
6
CONTINUOUS
10
2.93
20
3.38
11
2.93
21
3.32
0
LINE
8
BLACK
6
CONTINUOUS
10
3.03
20
3.32
11
2.97
21
3.32
0
LINE
8
BLACK
6
CONTINUOUS
10
2.97
20
3.32
11
2.97
21
3.38
0
LINE
8
BLACK
6
CONTINUOUS
10
2.97
20
3.38
11
3.03
21
3.38
0
LINE
8
BLACK
6
CONTINUOUS
10
3.03
20
3.38
11
3.03
21
3.32
0
LINE
8
BLACK
6
CONTINUOUS
10
2.93
20
3.42
11
2.87
21
3.42
0
LINE
8
BLACK
6
CONTINUOUS
10
2.87
20
3.42
11
2.87
21
3.48
0
LINE
8
BLACK
6
CONTINUOUS
10
2.87
20
3.48
11
2.93
21
3.48
0
LINE
8
BLACK
6
CONTINUOUS
10
2.93
20
3.48
11
2.93
21
3.42
0
LINE
8
BLACK
6
CONTINUOUS
10
3.03
20
3.42
11
2.97
21
3.42
0
LINE
8
BLACK
6
CONTINUOUS
10
2.97
20
3.42
11
2.97
21
3.48
0
LINE
8
BLACK
6
CONTINUOUS
10
2.97
20
3.48
11
3.03
21
3.48
0
LINE
8
BLACK
6
CONTINUOUS
10
3.03
20
3.48
11
3.03
21
3.42
0
LINE
8
BLACK
6
CONTINUOUS
10
3.03
20
3.52
11
2.97
21
3.52
0
LINE
8
BLACK
6
CONTINUOUS
10
2.97
20
3.52
11
2.97
21
3.58
0
LINE
8
BLACK
6
CONTINUOUS
10
2.97
20
3.58
11
3.03
21
3.58
0
LINE
8
BLACK
6
CONTINUOUS
10
3.03
20
3.58
11
3.03
21
3.52
0
LINE
8
BLACK
6
CONTINUOUS
10
2.93
20
3.52
11
2.87
21
3.52
0
LINE
8
BLACK
6
CONTINUOUS
10
2.87
20
3.52
11
2.87
21
3.58
0
LINE
8
BLACK
6
CONTINUOUS
10
2.87
20
3.58
11
2.93
21
3.58
0
LINE
8
BLACK
6
CONTINUOUS
10
2.93
20
3.58
11
2.93
21
3.52
0
LINE
8
BLACK
6
CONTINUOUS
10
2.705
20
3.62
11
2.645
21
3.62
0
LINE
8
BLACK
6
CONTINUOUS
10
2.645
20
3.62
11
2.645
21
3.68
0
LINE
8
BLACK
6
CONTINUOUS
10
2.645
20
3.68
11
2.705
21
3.68
0
LINE
8
BLACK
6
CONTINUOUS
10
2.705
20
3.68
11
2.705
21
3.62
0
LINE
8
BLACK
6
CONTINUOUS
10
0.53
20
3.62
11
0.47
21
3.62
0
LINE
8
BLACK
6
CONTINUOUS
10
0.47
20
3.62
11
0.47
21
3.68
0
LINE
8
BLACK
6
CONTINUOUS
10
0.47
20
3.68
11
0.53
21
3.68
0
LINE
8
BLACK
6
CONTINUOUS
10
0.53
20
3.68
11
0.53
21
3.62
0
LINE
8
BLACK
6
CONTINUOUS
10
0.93
20
3.62
11
0.87
21
3.62
0
LINE
8
BLACK
6
CONTINUOUS
10
0.87
20
3.62
11
0.87
21
3.68
0
LINE
8
BLACK
6
CONTINUOUS
10
0.87
20
3.68
11
0.93
21
3.68
0
LINE
8
BLACK
6
CONTINUOUS
10
0.93
20
3.68
11
0.93
21
3.62
0
LINE
8
BLACK
6
CONTINUOUS
10
0.83
20
3.62
11
0.77
21
3.62
0
LINE
8
BLACK
6
CONTINUOUS
10
0.77
20
3.62
11
0.77
21
3.68
0
LINE
8
BLACK
6
CONTINUOUS
10
0.77
20
3.68
11
0.83
21
3.68
0
LINE
8
BLACK
6
CONTINUOUS
10
0.83
20
3.68
11
0.83
21
3.62
0
LINE
8
BLACK
6
CONTINUOUS
10
0.73
20
3.62
11
0.67
21
3.62
0
LINE
8
BLACK
6
CONTINUOUS
10
0.67
20
3.62
11
0.67
21
3.68
0
LINE
8
BLACK
6
CONTINUOUS
10
0.67
20
3.68
11
0.73
21
3.68
0
LINE
8
BLACK
6
CONTINUOUS
10
0.73
20
3.68
11
0.73
21
3.62
0
LINE
8
BLACK
6
CONTINUOUS
10
0.63
20
3.62
11
0.57
21
3.62
0
LINE
8
BLACK
6
CONTINUOUS
10
0.57
20
3.62
11
0.57
21
3.68
0
LINE
8
BLACK
6
CONTINUOUS
10
0.57
20
3.68
11
0.63
21
3.68
0
LINE
8
BLACK
6
CONTINUOUS
10
0.63
20
3.68
11
0.63
21
3.62
0
LINE
8
BLACK
6
CONTINUOUS
10
2.505
20
3.62
11
2.445
21
3.62
0
LINE
8
BLACK
6
CONTINUOUS
10
2.445
20
3.62
11
2.445
21
3.68
0
LINE
8
BLACK
6
CONTINUOUS
10
2.445
20
3.68
11
2.505
21
3.68
0
LINE
8
BLACK
6
CONTINUOUS
10
2.505
20
3.68
11
2.505
21
3.62
0
LINE
8
BLACK
6
CONTINUOUS
10
2.005
20
3.62
11
1.945
21
3.62
0
LINE
8
BLACK
6
CONTINUOUS
10
1.945
20
3.62
11
1.945
21
3.68
0
LINE
8
BLACK
6
CONTINUOUS
10
1.945
20
3.68
11
2.005
21
3.68
0
LINE
8
BLACK
6
CONTINUOUS
10
2.005
20
3.68
11
2.005
21
3.62
0
LINE
8
BLACK
6
CONTINUOUS
10
2.205
20
3.62
11
2.145
21
3.62
0
LINE
8
BLACK
6
CONTINUOUS
10
2.145
20
3.62
11
2.145
21
3.68
0
LINE
8
BLACK
6
CONTINUOUS
10
2.145
20
3.68
11
2.205
21
3.68
0
LINE
8
BLACK
6
CONTINUOUS
10
2.205
20
3.68
11
2.205
21
3.62
0
LINE
8
BLACK
6
CONTINUOUS
10
1.905
20
3.62
11
1.845
21
3.62
0
LINE
8
BLACK
6
CONTINUOUS
10
1.845
20
3.62
11
1.845
21
3.68
0
LINE
8
BLACK
6
CONTINUOUS
10
1.845
20
3.68
11
1.905
21
3.68
0
LINE
8
BLACK
6
CONTINUOUS
10
1.905
20
3.68
11
1.905
21
3.62
0
LINE
8
BLACK
6
CONTINUOUS
10
2.605
20
3.62
11
2.545
21
3.62
0
LINE
8
BLACK
6
CONTINUOUS
10
2.545
20
3.62
11
2.545
21
3.68
0
LINE
8
BLACK
6
CONTINUOUS
10
2.545
20
3.68
11
2.605
21
3.68
0
LINE
8
BLACK
6
CONTINUOUS
10
2.605
20
3.68
11
2.605
21
3.62
0
LINE
8
BLACK
6
CONTINUOUS
10
1.605
20
3.62
11
1.545
21
3.62
0
LINE
8
BLACK
6
CONTINUOUS
10
1.545
20
3.62
11
1.545
21
3.68
0
LINE
8
BLACK
6
CONTINUOUS
10
1.545
20
3.68
11
1.605
21
3.68
0
LINE
8
BLACK
6
CONTINUOUS
10
1.605
20
3.68
11
1.605
21
3.62
0
LINE
8
BLACK
6
CONTINUOUS
10
1.805
20
3.62
11
1.745
21
3.62
0
LINE
8
BLACK
6
CONTINUOUS
10
1.745
20
3.62
11
1.745
21
3.68
0
LINE
8
BLACK
6
CONTINUOUS
10
1.745
20
3.68
11
1.805
21
3.68
0
LINE
8
BLACK
6
CONTINUOUS
10
1.805
20
3.68
11
1.805
21
3.62
0
LINE
8
BLACK
6
CONTINUOUS
10
2.105
20
3.62
11
2.045
21
3.62
0
LINE
8
BLACK
6
CONTINUOUS
10
2.045
20
3.62
11
2.045
21
3.68
0
LINE
8
BLACK
6
CONTINUOUS
10
2.045
20
3.68
11
2.105
21
3.68
0
LINE
8
BLACK
6
CONTINUOUS
10
2.105
20
3.68
11
2.105
21
3.62
0
LINE
8
BLACK
6
CONTINUOUS
10
3.00865
20
3.90519
11
3.02213
21
3.90342
0
LINE
8
BLACK
6
CONTINUOUS
10
3.02213
20
3.90342
11
3.03532
21
3.90011
0
LINE
8
BLACK
6
CONTINUOUS
10
3.03532
20
3.90011
11
3.04804
21
3.8953
0
LINE
8
BLACK
6
CONTINUOUS
10
3.04804
20
3.8953
11
3.06012
21
3.88906
0
LINE
8
BLACK
6
CONTINUOUS
10
3.06012
20
3.88906
11
3.07141
21
3.88148
0
LINE
8
BLACK
6
CONTINUOUS
10
3.07141
20
3.88148
11
3.08175
21
3.87265
0
LINE
8
BLACK
6
CONTINUOUS
10
3.08175
20
3.87265
11
3.09101
21
3.86269
0
LINE
8
BLACK
6
CONTINUOUS
10
3.09101
20
3.86269
11
3.09906
21
3.85173
0
LINE
8
BLACK
6
CONTINUOUS
10
3.09906
20
3.85173
11
3.10579
21
3.83992
0
LINE
8
BLACK
6
CONTINUOUS
10
3.10579
20
3.83992
11
3.11113
21
3.82741
0
LINE
8
BLACK
6
CONTINUOUS
10
3.11113
20
3.82741
11
3.11499
21
3.81437
0
LINE
8
BLACK
6
CONTINUOUS
10
3.11499
20
3.81437
11
3.11733
21
3.80098
0
LINE
8
BLACK
6
CONTINUOUS
10
3.11733
20
3.80098
11
3.11811
21
3.7874
0
LINE
8
BLACK
6
CONTINUOUS
10
3.11811
20
3.7874
11
3.11788
21
3.77999
0
LINE
8
BLACK
6
CONTINUOUS
10
3.11788
20
3.77999
11
3.11624
21
3.76649
0
LINE
8
BLACK
6
CONTINUOUS
10
3.11624
20
3.76649
11
3.11307
21
3.75326
0
LINE
8
BLACK
6
CONTINUOUS
10
3.11307
20
3.75326
11
3.1084
21
3.74049
0
LINE
8
BLACK
6
CONTINUOUS
10
3.1084
20
3.74049
11
3.10229
21
3.72835
0
LINE
8
BLACK
6
CONTINUOUS
10
3.10229
20
3.72835
11
3.09482
21
3.71698
0
LINE
8
BLACK
6
CONTINUOUS
10
3.09482
20
3.71698
11
3.0861
21
3.70655
0
LINE
8
BLACK
6
CONTINUOUS
10
3.0861
20
3.70655
11
3.07624
21
3.69719
0
LINE
8
BLACK
6
CONTINUOUS
10
3.07624
20
3.69719
11
3.06536
21
3.68903
0
LINE
8
BLACK
6
CONTINUOUS
10
3.06536
20
3.68903
11
3.05362
21
3.68216
0
LINE
8
BLACK
6
CONTINUOUS
10
3.05362
20
3.68216
11
3.04117
21
3.6767
0
LINE
8
BLACK
6
CONTINUOUS
10
3.04117
20
3.6767
11
3.02817
21
3.6727
0
LINE
8
BLACK
6
CONTINUOUS
10
3.02817
20
3.6727
11
3.0148
21
3.67022
0
LINE
8
BLACK
6
CONTINUOUS
10
3.0148
20
3.67022
11
3.00124
21
3.6693
0
LINE
8
BLACK
6
CONTINUOUS
10
3.00124
20
3.6693
11
2.98765
21
3.66994
0
LINE
8
BLACK
6
CONTINUOUS
10
2.98765
20
3.66994
11
2.97424
21
3.67214
0
LINE
8
BLACK
6
CONTINUOUS
10
2.97424
20
3.67214
11
2.96116
21
3.67586
0
LINE
8
BLACK
6
CONTINUOUS
10
2.96116
20
3.67586
11
2.94859
21
3.68106
0
LINE
8
BLACK
6
CONTINUOUS
10
2.94859
20
3.68106
11
2.93671
21
3.68768
0
LINE
8
BLACK
6
CONTINUOUS
10
2.93671
20
3.68768
11
2.92567
21
3.69561
0
LINE
8
BLACK
6
CONTINUOUS
10
2.92567
20
3.69561
11
2.91561
21
3.70476
0
LINE
8
BLACK
6
CONTINUOUS
10
2.91561
20
3.70476
11
2.90667
21
3.71501
0
LINE
8
BLACK
6
CONTINUOUS
10
2.90667
20
3.71501
11
2.89897
21
3.72622
0
LINE
8
BLACK
6
CONTINUOUS
10
2.89897
20
3.72622
11
2.89261
21
3.73823
0
LINE
8
BLACK
6
CONTINUOUS
10
2.89261
20
3.73823
11
2.88767
21
3.7509
0
LINE
8
BLACK
6
CONTINUOUS
10
2.88767
20
3.7509
11
2.88422
21
3.76406
0
LINE
8
BLACK
6
CONTINUOUS
10
2.88422
20
3.76406
11
2.8823
21
3.77752
0
LINE
8
BLACK
6
CONTINUOUS
10
2.8823
20
3.77752
11
2.88195
21
3.79111
0
LINE
8
BLACK
6
CONTINUOUS
10
2.88195
20
3.79111
11
2.88316
21
3.80466
0
LINE
8
BLACK
6
CONTINUOUS
10
2.88316
20
3.80466
11
2.88591
21
3.81797
0
LINE
8
BLACK
6
CONTINUOUS
10
2.88591
20
3.81797
11
2.89018
21
3.83088
0
LINE
8
BLACK
6
CONTINUOUS
10
2.89018
20
3.83088
11
2.89591
21
3.84321
0
LINE
8
BLACK
6
CONTINUOUS
10
2.89591
20
3.84321
11
2.90301
21
3.85481
0
LINE
8
BLACK
6
CONTINUOUS
10
2.90301
20
3.85481
11
2.9114
21
3.86551
0
LINE
8
BLACK
6
CONTINUOUS
10
2.9114
20
3.86551
11
2.92097
21
3.87517
0
LINE
8
BLACK
6
CONTINUOUS
10
2.92097
20
3.87517
11
2.93158
21
3.88368
0
LINE
8
BLACK
6
CONTINUOUS
10
2.93158
20
3.88368
11
2.9431
21
3.8909
0
LINE
8
BLACK
6
CONTINUOUS
10
2.9431
20
3.8909
11
2.95537
21
3.89676
0
LINE
8
BLACK
6
CONTINUOUS
10
2.95537
20
3.89676
11
2.96824
21
3.90116
0
LINE
8
BLACK
6
CONTINUOUS
10
2.96824
20
3.90116
11
2.98152
21
3.90406
0
LINE
8
BLACK
6
CONTINUOUS
10
2.98152
20
3.90406
11
2.99505
21
3.90541
0
LINE
8
BLACK
6
CONTINUOUS
10
2.99505
20
3.90541
11
3.00865
21
3.90519
0
LINE
8
BLACK
6
CONTINUOUS
10
0.20865
20
3.91779
11
0.222132
21
3.91602
0
LINE
8
BLACK
6
CONTINUOUS
10
0.222132
20
3.91602
11
0.23532
21
3.91271
0
LINE
8
BLACK
6
CONTINUOUS
10
0.23532
20
3.91271
11
0.24804
21
3.9079
0
LINE
8
BLACK
6
CONTINUOUS
10
0.24804
20
3.9079
11
0.260123
21
3.90166
0
LINE
8
BLACK
6
CONTINUOUS
10
0.260123
20
3.90166
11
0.271409
21
3.89408
0
LINE
8
BLACK
6
CONTINUOUS
10
0.271409
20
3.89408
11
0.281749
21
3.88525
0
LINE
8
BLACK
6
CONTINUOUS
10
0.281749
20
3.88525
11
0.291006
21
3.87529
0
LINE
8
BLACK
6
CONTINUOUS
10
0.291006
20
3.87529
11
0.299056
21
3.86433
0
LINE
8
BLACK
6
CONTINUOUS
10
0.299056
20
3.86433
11
0.305793
21
3.85252
0
LINE
8
BLACK
6
CONTINUOUS
10
0.305793
20
3.85252
11
0.311128
21
3.84001
0
LINE
8
BLACK
6
CONTINUOUS
10
0.311128
20
3.84001
11
0.31499
21
3.82697
0
LINE
8
BLACK
6
CONTINUOUS
10
0.31499
20
3.82697
11
0.317327
21
3.81358
0
LINE
8
BLACK
6
CONTINUOUS
10
0.317327
20
3.81358
11
0.31811
21
3.8
0
LINE
8
BLACK
6
CONTINUOUS
10
0.31811
20
3.8
11
0.317877
21
3.79258
0
LINE
8
BLACK
6
CONTINUOUS
10
0.317877
20
3.79258
11
0.316244
21
3.77908
0
LINE
8
BLACK
6
CONTINUOUS
10
0.316244
20
3.77908
11
0.313069
21
3.76586
0
LINE
8
BLACK
6
CONTINUOUS
10
0.313069
20
3.76586
11
0.308396
21
3.75309
0
LINE
8
BLACK
6
CONTINUOUS
10
0.308396
20
3.75309
11
0.302286
21
3.74094
0
LINE
8
BLACK
6
CONTINUOUS
10
0.302286
20
3.74094
11
0.294821
21
3.72958
0
LINE
8
BLACK
6
CONTINUOUS
10
0.294821
20
3.72958
11
0.286099
21
3.71915
0
LINE
8
BLACK
6
CONTINUOUS
10
0.286099
20
3.71915
11
0.276235
21
3.70979
0
LINE
8
BLACK
6
CONTINUOUS
10
0.276235
20
3.70979
11
0.265361
21
3.70162
0
LINE
8
BLACK
6
CONTINUOUS
10
0.265361
20
3.70162
11
0.253621
21
3.69476
0
LINE
8
BLACK
6
CONTINUOUS
10
0.253621
20
3.69476
11
0.24117
21
3.6893
0
LINE
8
BLACK
6
CONTINUOUS
10
0.24117
20
3.6893
11
0.228173
21
3.6853
0
LINE
8
BLACK
6
CONTINUOUS
10
0.228173
20
3.6853
11
0.214803
21
3.68282
0
LINE
8
BLACK
6
CONTINUOUS
10
0.214803
20
3.68282
11
0.201237
21
3.6819
0
LINE
8
BLACK
6
CONTINUOUS
10
0.201237
20
3.6819
11
0.187654
21
3.68254
0
LINE
8
BLACK
6
CONTINUOUS
10
0.187654
20
3.68254
11
0.174235
21
3.68473
0
LINE
8
BLACK
6
CONTINUOUS
10
0.174235
20
3.68473
11
0.161157
21
3.68846
0
LINE
8
BLACK
6
CONTINUOUS
10
0.161157
20
3.68846
11
0.148595
21
3.69366
0
LINE
8
BLACK
6
CONTINUOUS
10
0.148595
20
3.69366
11
0.136713
21
3.70028
0
LINE
8
BLACK
6
CONTINUOUS
10
0.136713
20
3.70028
11
0.125671
21
3.70821
0
LINE
8
BLACK
6
CONTINUOUS
10
0.125671
20
3.70821
11
0.115613
21
3.71736
0
LINE
8
BLACK
6
CONTINUOUS
10
0.115613
20
3.71736
11
0.106675
21
3.72761
0
LINE
8
BLACK
6
CONTINUOUS
10
0.106675
20
3.72761
11
0.0989727
21
3.73882
0
LINE
8
BLACK
6
CONTINUOUS
10
0.0989727
20
3.73882
11
0.0926099
21
3.75083
0
LINE
8
BLACK
6
CONTINUOUS
10
0.0926099
20
3.75083
11
0.0876705
21
3.7635
0
LINE
8
BLACK
6
CONTINUOUS
10
0.0876705
20
3.7635
11
0.0842199
21
3.77665
0
LINE
8
BLACK
6
CONTINUOUS
10
0.0842199
20
3.77665
11
0.082304
21
3.79012
0
LINE
8
BLACK
6
CONTINUOUS
10
0.082304
20
3.79012
11
0.081948
21
3.80371
0
LINE
8
BLACK
6
CONTINUOUS
10
0.081948
20
3.80371
11
0.0831568
21
3.81725
0
LINE
8
BLACK
6
CONTINUOUS
10
0.0831568
20
3.81725
11
0.0859143
21
3.83057
0
LINE
8
BLACK
6
CONTINUOUS
10
0.0859143
20
3.83057
11
0.0901839
21
3.84348
0
LINE
8
BLACK
6
CONTINUOUS
10
0.0901839
20
3.84348
11
0.0959091
21
3.85581
0
LINE
8
BLACK
6
CONTINUOUS
10
0.0959091
20
3.85581
11
0.103014
21
3.86741
0
LINE
8
BLACK
6
CONTINUOUS
10
0.103014
20
3.86741
11
0.111404
21
3.87811
0
LINE
8
BLACK
6
CONTINUOUS
10
0.111404
20
3.87811
11
0.120969
21
3.88777
0
LINE
8
BLACK
6
CONTINUOUS
10
0.120969
20
3.88777
11
0.131581
21
3.89627
0
LINE
8
BLACK
6
CONTINUOUS
10
0.131581
20
3.89627
11
0.1431
21
3.9035
0
LINE
8
BLACK
6
CONTINUOUS
10
0.1431
20
3.9035
11
0.155373
21
3.90935
0
LINE
8
BLACK
6
CONTINUOUS
10
0.155373
20
3.90935
11
0.168238
21
3.91376
0
LINE
8
BLACK
6
CONTINUOUS
10
0.168238
20
3.91376
11
0.181524
21
3.91666
0
LINE
8
BLACK
6
CONTINUOUS
10
0.181524
20
3.91666
11
0.195054
21
3.91801
0
LINE
8
BLACK
6
CONTINUOUS
10
0.195054
20
3.91801
11
0.20865
21
3.91779
0
LINE
8
BLACK
6
CONTINUOUS
10
2.205
20
3.72
11
2.145
21
3.72
0
LINE
8
BLACK
6
CONTINUOUS
10
2.145
20
3.72
11
2.145
21
3.78
0
LINE
8
BLACK
6
CONTINUOUS
10
2.145
20
3.78
11
2.205
21
3.78
0
LINE
8
BLACK
6
CONTINUOUS
10
2.205
20
3.78
11
2.205
21
3.72
0
LINE
8
BLACK
6
CONTINUOUS
10
2.005
20
3.72
11
1.945
21
3.72
0
LINE
8
BLACK
6
CONTINUOUS
10
1.945
20
3.72
11
1.945
21
3.78
0
LINE
8
BLACK
6
CONTINUOUS
10
1.945
20
3.78
11
2.005
21
3.78
0
LINE
8
BLACK
6
CONTINUOUS
10
2.005
20
3.78
11
2.005
21
3.72
0
LINE
8
BLACK
6
CONTINUOUS
10
1.905
20
3.72
11
1.845
21
3.72
0
LINE
8
BLACK
6
CONTINUOUS
10
1.845
20
3.72
11
1.845
21
3.78
0
LINE
8
BLACK
6
CONTINUOUS
10
1.845
20
3.78
11
1.905
21
3.78
0
LINE
8
BLACK
6
CONTINUOUS
10
1.905
20
3.78
11
1.905
21
3.72
0
LINE
8
BLACK
6
CONTINUOUS
10
1.605
20
3.72
11
1.545
21
3.72
0
LINE
8
BLACK
6
CONTINUOUS
10
1.545
20
3.72
11
1.545
21
3.78
0
LINE
8
BLACK
6
CONTINUOUS
10
1.545
20
3.78
11
1.605
21
3.78
0
LINE
8
BLACK
6
CONTINUOUS
10
1.605
20
3.78
11
1.605
21
3.72
0
LINE
8
BLACK
6
CONTINUOUS
10
1.805
20
3.72
11
1.745
21
3.72
0
LINE
8
BLACK
6
CONTINUOUS
10
1.745
20
3.72
11
1.745
21
3.78
0
LINE
8
BLACK
6
CONTINUOUS
10
1.745
20
3.78
11
1.805
21
3.78
0
LINE
8
BLACK
6
CONTINUOUS
10
1.805
20
3.78
11
1.805
21
3.72
0
LINE
8
BLACK
6
CONTINUOUS
10
0.63
20
3.72
11
0.57
21
3.72
0
LINE
8
BLACK
6
CONTINUOUS
10
0.57
20
3.72
11
0.57
21
3.78
0
LINE
8
BLACK
6
CONTINUOUS
10
0.57
20
3.78
11
0.63
21
3.78
0
LINE
8
BLACK
6
CONTINUOUS
10
0.63
20
3.78
11
0.63
21
3.72
0
LINE
8
BLACK
6
CONTINUOUS
10
0.73
20
3.72
11
0.67
21
3.72
0
LINE
8
BLACK
6
CONTINUOUS
10
0.67
20
3.72
11
0.67
21
3.78
0
LINE
8
BLACK
6
CONTINUOUS
10
0.67
20
3.78
11
0.73
21
3.78
0
LINE
8
BLACK
6
CONTINUOUS
10
0.73
20
3.78
11
0.73
21
3.72
0
LINE
8
BLACK
6
CONTINUOUS
10
2.105
20
3.72
11
2.045
21
3.72
0
LINE
8
BLACK
6
CONTINUOUS
10
2.045
20
3.72
11
2.045
21
3.78
0
LINE
8
BLACK
6
CONTINUOUS
10
2.045
20
3.78
11
2.105
21
3.78
0
LINE
8
BLACK
6
CONTINUOUS
10
2.105
20
3.78
11
2.105
21
3.72
0
LINE
8
BLACK
6
CONTINUOUS
10
0.83
20
3.72
11
0.77
21
3.72
0
LINE
8
BLACK
6
CONTINUOUS
10
0.77
20
3.72
11
0.77
21
3.78
0
LINE
8
BLACK
6
CONTINUOUS
10
0.77
20
3.78
11
0.83
21
3.78
0
LINE
8
BLACK
6
CONTINUOUS
10
0.83
20
3.78
11
0.83
21
3.72
0
LINE
8
BLACK
6
CONTINUOUS
10
0.93
20
3.72
11
0.87
21
3.72
0
LINE
8
BLACK
6
CONTINUOUS
10
0.87
20
3.72
11
0.87
21
3.78
0
LINE
8
BLACK
6
CONTINUOUS
10
0.87
20
3.78
11
0.93
21
3.78
0
LINE
8
BLACK
6
CONTINUOUS
10
0.93
20
3.78
11
0.93
21
3.72
0
LINE
8
BLACK
6
CONTINUOUS
10
2.605
20
3.72
11
2.545
21
3.72
0
LINE
8
BLACK
6
CONTINUOUS
10
2.545
20
3.72
11
2.545
21
3.78
0
LINE
8
BLACK
6
CONTINUOUS
10
2.545
20
3.78
11
2.605
21
3.78
0
LINE
8
BLACK
6
CONTINUOUS
10
2.605
20
3.78
11
2.605
21
3.72
0
LINE
8
BLACK
6
CONTINUOUS
10
0.53
20
3.72
11
0.47
21
3.72
0
LINE
8
BLACK
6
CONTINUOUS
10
0.47
20
3.72
11
0.47
21
3.78
0
LINE
8
BLACK
6
CONTINUOUS
10
0.47
20
3.78
11
0.53
21
3.78
0
LINE
8
BLACK
6
CONTINUOUS
10
0.53
20
3.78
11
0.53
21
3.72
0
LINE
8
BLACK
6
CONTINUOUS
10
2.705
20
3.72
11
2.645
21
3.72
0
LINE
8
BLACK
6
CONTINUOUS
10
2.645
20
3.72
11
2.645
21
3.78
0
LINE
8
BLACK
6
CONTINUOUS
10
2.645
20
3.78
11
2.705
21
3.78
0
LINE
8
BLACK
6
CONTINUOUS
10
2.705
20
3.78
11
2.705
21
3.72
0
LINE
8
BLACK
6
CONTINUOUS
10
2.505
20
3.72
11
2.445
21
3.72
0
LINE
8
BLACK
6
CONTINUOUS
10
2.445
20
3.72
11
2.445
21
3.78
0
LINE
8
BLACK
6
CONTINUOUS
10
2.445
20
3.78
11
2.505
21
3.78
0
LINE
8
BLACK
6
CONTINUOUS
10
2.505
20
3.78
11
2.505
21
3.72
  0
ENDSEC
  0
EOF
