  0
SECTION
  2
HEADER
  9
$ANGBASE
  50
0.0
  9
$ANGDIR
  70
1
  9
$MEASUREMENT
  70
0
  0
ENDSEC
  0
SECTION
  2
TABLES
  0
TABLE
  2
LTYPE
  70
4
  0
LTYPE
  5
40F
  2
CONTINUOUS
  70
0
  3
Solid line
  72
65
  73
0
  40
0.0
  0
LTYPE
  5
410
  2
DASHDOT
 70
0
  3
Dash Dot ____ _ ____ _
 72
65
 73
4
 40
2.0
 49
1.25
 49
-0.25
 49
0.25
 49
-0.25
  0
LTYPE
  5
411
  2
DASHED
 70
0
  3
Dashed __ __ __ __ __
 72
65
 73
2
 40
0.75
 49
0.5
 49
-0.25
  0
LTYPE
  5
43B
  2
DOTTED
 70
0
  3
Dotted .  .  .  .
 72
65
 73
2
 40
0.2
 49
0.0
 49
-0.2
  0
ENDTAB
  0
TABLE
  2
STYLE
  70
4
  0
STYLE
  2
KICAD
  70
0
  40
0
  41
1
  42
1
  50
0
  71
0
  3
isocp.shx
  0
STYLE
  2
KICADB
  70
0
  40
0
  41
1
  42
1
  50
0
  71
0
  3
isocp.shx
  0
STYLE
  2
KICADI
  70
0
  40
0
  41
1
  42
1
  50
15
  71
0
  3
isocp.shx
  0
STYLE
  2
KICADBI
  70
0
  40
0
  41
1
  42
1
  50
15
  71
0
  3
isocp.shx
  0
ENDTAB
  0
TABLE
  2
LAYER
  70
1
  0
LAYER
  2
BLACK
  70
0
  62
7
  6
CONTINUOUS
  0
ENDTAB
  0
ENDSEC
  0
SECTION
  2
ENTITIES
0
LINE
8
BLACK
6
CONTINUOUS
10
1.49413
20
0.714492
11
1.49426
21
0.714379
0
LINE
8
BLACK
6
CONTINUOUS
10
1.49426
20
0.714379
11
1.49444
21
0.714358
0
LINE
8
BLACK
6
CONTINUOUS
10
1.49444
20
0.714358
11
1.49819
21
0.712484
0
LINE
8
BLACK
6
CONTINUOUS
10
1.49819
20
0.712484
11
1.4989
21
0.711958
0
LINE
8
BLACK
6
CONTINUOUS
10
1.4989
20
0.711958
11
1.49896
21
0.71193
0
LINE
8
BLACK
6
CONTINUOUS
10
1.49896
20
0.71193
11
1.50271
21
0.708181
0
LINE
8
BLACK
6
CONTINUOUS
10
1.50271
20
0.708181
11
1.50329
21
0.707341
0
LINE
8
BLACK
6
CONTINUOUS
10
1.50329
20
0.707341
11
1.50332
21
0.707051
0
LINE
8
BLACK
6
CONTINUOUS
10
1.50332
20
0.707051
11
1.50348
21
0.706809
0
LINE
8
BLACK
6
CONTINUOUS
10
1.50348
20
0.706809
11
1.50536
21
0.69931
0
LINE
8
BLACK
6
CONTINUOUS
10
1.50536
20
0.69931
11
1.5054
21
0.698722
0
LINE
8
BLACK
6
CONTINUOUS
10
1.5054
20
0.698722
11
1.50545
21
0.698594
0
LINE
8
BLACK
6
CONTINUOUS
10
1.50545
20
0.698594
11
1.50545
21
0.685471
0
LINE
8
BLACK
6
CONTINUOUS
10
1.50545
20
0.685471
11
1.50534
21
0.68489
0
LINE
8
BLACK
6
CONTINUOUS
10
1.50534
20
0.68489
11
1.50536
21
0.684754
0
LINE
8
BLACK
6
CONTINUOUS
10
1.50536
20
0.684754
11
1.50348
21
0.677255
0
LINE
8
BLACK
6
CONTINUOUS
10
1.50348
20
0.677255
11
1.50307
21
0.676319
0
LINE
8
BLACK
6
CONTINUOUS
10
1.50307
20
0.676319
11
1.50283
21
0.676148
0
LINE
8
BLACK
6
CONTINUOUS
10
1.50283
20
0.676148
11
1.50271
21
0.675884
0
LINE
8
BLACK
6
CONTINUOUS
10
1.50271
20
0.675884
11
1.49896
21
0.672134
0
LINE
8
BLACK
6
CONTINUOUS
10
1.49896
20
0.672134
11
1.49823
21
0.671628
0
LINE
8
BLACK
6
CONTINUOUS
10
1.49823
20
0.671628
11
1.49819
21
0.671581
0
LINE
8
BLACK
6
CONTINUOUS
10
1.49819
20
0.671581
11
1.49444
21
0.669706
0
LINE
8
BLACK
6
CONTINUOUS
10
1.49444
20
0.669706
11
1.49346
21
0.669414
0
LINE
8
BLACK
6
CONTINUOUS
10
1.49346
20
0.669414
11
1.49329
21
0.669455
0
LINE
8
BLACK
6
CONTINUOUS
10
1.49329
20
0.669455
11
1.49312
21
0.669394
0
LINE
8
BLACK
6
CONTINUOUS
10
1.49312
20
0.669394
11
1.48562
21
0.669394
0
LINE
8
BLACK
6
CONTINUOUS
10
1.48562
20
0.669394
11
1.48461
21
0.669573
0
LINE
8
BLACK
6
CONTINUOUS
10
1.48461
20
0.669573
11
1.48448
21
0.669686
0
LINE
8
BLACK
6
CONTINUOUS
10
1.48448
20
0.669686
11
1.4843
21
0.669706
0
LINE
8
BLACK
6
CONTINUOUS
10
1.4843
20
0.669706
11
1.48055
21
0.671581
0
LINE
8
BLACK
6
CONTINUOUS
10
1.48055
20
0.671581
11
1.47984
21
0.672107
0
LINE
8
BLACK
6
CONTINUOUS
10
1.47984
20
0.672107
11
1.47978
21
0.672134
0
LINE
8
BLACK
6
CONTINUOUS
10
1.47978
20
0.672134
11
1.47603
21
0.675884
0
LINE
8
BLACK
6
CONTINUOUS
10
1.47603
20
0.675884
11
1.47545
21
0.676724
0
LINE
8
BLACK
6
CONTINUOUS
10
1.47545
20
0.676724
11
1.47542
21
0.677014
0
LINE
8
BLACK
6
CONTINUOUS
10
1.47542
20
0.677014
11
1.47526
21
0.677255
0
LINE
8
BLACK
6
CONTINUOUS
10
1.47526
20
0.677255
11
1.47338
21
0.684754
0
LINE
8
BLACK
6
CONTINUOUS
10
1.47338
20
0.684754
11
1.47334
21
0.685342
0
LINE
8
BLACK
6
CONTINUOUS
10
1.47334
20
0.685342
11
1.47329
21
0.685471
0
LINE
8
BLACK
6
CONTINUOUS
10
1.47329
20
0.685471
11
1.47329
21
0.698594
0
LINE
8
BLACK
6
CONTINUOUS
10
1.47329
20
0.698594
11
1.4734
21
0.699174
0
LINE
8
BLACK
6
CONTINUOUS
10
1.4734
20
0.699174
11
1.47338
21
0.69931
0
LINE
8
BLACK
6
CONTINUOUS
10
1.47338
20
0.69931
11
1.47526
21
0.706809
0
LINE
8
BLACK
6
CONTINUOUS
10
1.47526
20
0.706809
11
1.47567
21
0.707746
0
LINE
8
BLACK
6
CONTINUOUS
10
1.47567
20
0.707746
11
1.47591
21
0.707917
0
LINE
8
BLACK
6
CONTINUOUS
10
1.47591
20
0.707917
11
1.47603
21
0.708181
0
LINE
8
BLACK
6
CONTINUOUS
10
1.47603
20
0.708181
11
1.47978
21
0.71193
0
LINE
8
BLACK
6
CONTINUOUS
10
1.47978
20
0.71193
11
1.48051
21
0.712437
0
LINE
8
BLACK
6
CONTINUOUS
10
1.48051
20
0.712437
11
1.48055
21
0.712484
0
LINE
8
BLACK
6
CONTINUOUS
10
1.48055
20
0.712484
11
1.4843
21
0.714358
0
LINE
8
BLACK
6
CONTINUOUS
10
1.4843
20
0.714358
11
1.48528
21
0.714651
0
LINE
8
BLACK
6
CONTINUOUS
10
1.48528
20
0.714651
11
1.48545
21
0.71461
0
LINE
8
BLACK
6
CONTINUOUS
10
1.48545
20
0.71461
11
1.48562
21
0.71467
0
LINE
8
BLACK
6
CONTINUOUS
10
1.48562
20
0.71467
11
1.49312
21
0.71467
0
LINE
8
BLACK
6
CONTINUOUS
10
1.49312
20
0.71467
11
1.49413
21
0.714492
0
LINE
8
BLACK
6
CONTINUOUS
10
1.48632
20
0.708765
11
1.48362
21
0.707416
0
LINE
8
BLACK
6
CONTINUOUS
10
1.48362
20
0.707416
11
1.48079
21
0.704583
0
LINE
8
BLACK
6
CONTINUOUS
10
1.48079
20
0.704583
11
1.4792
21
0.69823
0
LINE
8
BLACK
6
CONTINUOUS
10
1.4792
20
0.69823
11
1.4792
21
0.685834
0
LINE
8
BLACK
6
CONTINUOUS
10
1.4792
20
0.685834
11
1.48079
21
0.679481
0
LINE
8
BLACK
6
CONTINUOUS
10
1.48079
20
0.679481
11
1.48362
21
0.676649
0
LINE
8
BLACK
6
CONTINUOUS
10
1.48362
20
0.676649
11
1.48632
21
0.6753
0
LINE
8
BLACK
6
CONTINUOUS
10
1.48632
20
0.6753
11
1.49242
21
0.6753
0
LINE
8
BLACK
6
CONTINUOUS
10
1.49242
20
0.6753
11
1.49512
21
0.676649
0
LINE
8
BLACK
6
CONTINUOUS
10
1.49512
20
0.676649
11
1.49795
21
0.679481
0
LINE
8
BLACK
6
CONTINUOUS
10
1.49795
20
0.679481
11
1.49954
21
0.685834
0
LINE
8
BLACK
6
CONTINUOUS
10
1.49954
20
0.685834
11
1.49954
21
0.69823
0
LINE
8
BLACK
6
CONTINUOUS
10
1.49954
20
0.69823
11
1.49795
21
0.704583
0
LINE
8
BLACK
6
CONTINUOUS
10
1.49795
20
0.704583
11
1.49512
21
0.707416
0
LINE
8
BLACK
6
CONTINUOUS
10
1.49512
20
0.707416
11
1.49242
21
0.708765
0
LINE
8
BLACK
6
CONTINUOUS
10
1.49242
20
0.708765
11
1.48632
21
0.708765
0
LINE
8
BLACK
6
CONTINUOUS
10
1.38727
20
0.714492
11
1.38882
21
0.713194
0
LINE
8
BLACK
6
CONTINUOUS
10
1.38882
20
0.713194
11
1.38917
21
0.711205
0
LINE
8
BLACK
6
CONTINUOUS
10
1.38917
20
0.711205
11
1.38816
21
0.709455
0
LINE
8
BLACK
6
CONTINUOUS
10
1.38816
20
0.709455
11
1.38626
21
0.708765
0
LINE
8
BLACK
6
CONTINUOUS
10
1.38626
20
0.708765
11
1.37046
21
0.708765
0
LINE
8
BLACK
6
CONTINUOUS
10
1.37046
20
0.708765
11
1.37046
21
0.695922
0
LINE
8
BLACK
6
CONTINUOUS
10
1.37046
20
0.695922
11
1.38063
21
0.695922
0
LINE
8
BLACK
6
CONTINUOUS
10
1.38063
20
0.695922
11
1.38164
21
0.695744
0
LINE
8
BLACK
6
CONTINUOUS
10
1.38164
20
0.695744
11
1.38319
21
0.694446
0
LINE
8
BLACK
6
CONTINUOUS
10
1.38319
20
0.694446
11
1.38354
21
0.692457
0
LINE
8
BLACK
6
CONTINUOUS
10
1.38354
20
0.692457
11
1.38253
21
0.690708
0
LINE
8
BLACK
6
CONTINUOUS
10
1.38253
20
0.690708
11
1.38063
21
0.690017
0
LINE
8
BLACK
6
CONTINUOUS
10
1.38063
20
0.690017
11
1.37046
21
0.690017
0
LINE
8
BLACK
6
CONTINUOUS
10
1.37046
20
0.690017
11
1.37046
21
0.6753
0
LINE
8
BLACK
6
CONTINUOUS
10
1.37046
20
0.6753
11
1.38626
21
0.6753
0
LINE
8
BLACK
6
CONTINUOUS
10
1.38626
20
0.6753
11
1.38727
21
0.675122
0
LINE
8
BLACK
6
CONTINUOUS
10
1.38727
20
0.675122
11
1.38882
21
0.673824
0
LINE
8
BLACK
6
CONTINUOUS
10
1.38882
20
0.673824
11
1.38917
21
0.671834
0
LINE
8
BLACK
6
CONTINUOUS
10
1.38917
20
0.671834
11
1.38816
21
0.670085
0
LINE
8
BLACK
6
CONTINUOUS
10
1.38816
20
0.670085
11
1.38626
21
0.669394
0
LINE
8
BLACK
6
CONTINUOUS
10
1.38626
20
0.669394
11
1.36751
21
0.669394
0
LINE
8
BLACK
6
CONTINUOUS
10
1.36751
20
0.669394
11
1.36713
21
0.669462
0
LINE
8
BLACK
6
CONTINUOUS
10
1.36713
20
0.669462
11
1.367
21
0.669439
0
LINE
8
BLACK
6
CONTINUOUS
10
1.367
20
0.669439
11
1.36688
21
0.669505
0
LINE
8
BLACK
6
CONTINUOUS
10
1.36688
20
0.669505
11
1.3665
21
0.669573
0
LINE
8
BLACK
6
CONTINUOUS
10
1.3665
20
0.669573
11
1.36591
21
0.670066
0
LINE
8
BLACK
6
CONTINUOUS
10
1.36591
20
0.670066
11
1.36525
21
0.670449
0
LINE
8
BLACK
6
CONTINUOUS
10
1.36525
20
0.670449
11
1.36516
21
0.6707
0
LINE
8
BLACK
6
CONTINUOUS
10
1.36516
20
0.6707
11
1.36495
21
0.670871
0
LINE
8
BLACK
6
CONTINUOUS
10
1.36495
20
0.670871
11
1.36482
21
0.671626
0
LINE
8
BLACK
6
CONTINUOUS
10
1.36482
20
0.671626
11
1.36456
21
0.672347
0
LINE
8
BLACK
6
CONTINUOUS
10
1.36456
20
0.672347
11
1.36456
21
0.711717
0
LINE
8
BLACK
6
CONTINUOUS
10
1.36456
20
0.711717
11
1.36463
21
0.712101
0
LINE
8
BLACK
6
CONTINUOUS
10
1.36463
20
0.712101
11
1.3646
21
0.71223
0
LINE
8
BLACK
6
CONTINUOUS
10
1.3646
20
0.71223
11
1.36467
21
0.712344
0
LINE
8
BLACK
6
CONTINUOUS
10
1.36467
20
0.712344
11
1.36474
21
0.712727
0
LINE
8
BLACK
6
CONTINUOUS
10
1.36474
20
0.712727
11
1.36523
21
0.713315
0
LINE
8
BLACK
6
CONTINUOUS
10
1.36523
20
0.713315
11
1.36561
21
0.713979
0
LINE
8
BLACK
6
CONTINUOUS
10
1.36561
20
0.713979
11
1.36586
21
0.71407
0
LINE
8
BLACK
6
CONTINUOUS
10
1.36586
20
0.71407
11
1.36603
21
0.714274
0
LINE
8
BLACK
6
CONTINUOUS
10
1.36603
20
0.714274
11
1.36679
21
0.714408
0
LINE
8
BLACK
6
CONTINUOUS
10
1.36679
20
0.714408
11
1.36751
21
0.71467
0
LINE
8
BLACK
6
CONTINUOUS
10
1.36751
20
0.71467
11
1.38626
21
0.71467
0
LINE
8
BLACK
6
CONTINUOUS
10
1.38626
20
0.71467
11
1.38727
21
0.714492
0
LINE
8
BLACK
6
CONTINUOUS
10
1.42289
20
0.714492
11
1.42444
21
0.713194
0
LINE
8
BLACK
6
CONTINUOUS
10
1.42444
20
0.713194
11
1.42479
21
0.711205
0
LINE
8
BLACK
6
CONTINUOUS
10
1.42479
20
0.711205
11
1.42378
21
0.709455
0
LINE
8
BLACK
6
CONTINUOUS
10
1.42378
20
0.709455
11
1.42188
21
0.708765
0
LINE
8
BLACK
6
CONTINUOUS
10
1.42188
20
0.708765
11
1.40608
21
0.708765
0
LINE
8
BLACK
6
CONTINUOUS
10
1.40608
20
0.708765
11
1.40608
21
0.695922
0
LINE
8
BLACK
6
CONTINUOUS
10
1.40608
20
0.695922
11
1.41625
21
0.695922
0
LINE
8
BLACK
6
CONTINUOUS
10
1.41625
20
0.695922
11
1.41726
21
0.695744
0
LINE
8
BLACK
6
CONTINUOUS
10
1.41726
20
0.695744
11
1.41881
21
0.694446
0
LINE
8
BLACK
6
CONTINUOUS
10
1.41881
20
0.694446
11
1.41916
21
0.692457
0
LINE
8
BLACK
6
CONTINUOUS
10
1.41916
20
0.692457
11
1.41815
21
0.690708
0
LINE
8
BLACK
6
CONTINUOUS
10
1.41815
20
0.690708
11
1.41625
21
0.690017
0
LINE
8
BLACK
6
CONTINUOUS
10
1.41625
20
0.690017
11
1.40608
21
0.690017
0
LINE
8
BLACK
6
CONTINUOUS
10
1.40608
20
0.690017
11
1.40608
21
0.6753
0
LINE
8
BLACK
6
CONTINUOUS
10
1.40608
20
0.6753
11
1.42188
21
0.6753
0
LINE
8
BLACK
6
CONTINUOUS
10
1.42188
20
0.6753
11
1.42289
21
0.675122
0
LINE
8
BLACK
6
CONTINUOUS
10
1.42289
20
0.675122
11
1.42444
21
0.673824
0
LINE
8
BLACK
6
CONTINUOUS
10
1.42444
20
0.673824
11
1.42479
21
0.671834
0
LINE
8
BLACK
6
CONTINUOUS
10
1.42479
20
0.671834
11
1.42378
21
0.670085
0
LINE
8
BLACK
6
CONTINUOUS
10
1.42378
20
0.670085
11
1.42188
21
0.669394
0
LINE
8
BLACK
6
CONTINUOUS
10
1.42188
20
0.669394
11
1.40313
21
0.669394
0
LINE
8
BLACK
6
CONTINUOUS
10
1.40313
20
0.669394
11
1.40275
21
0.669462
0
LINE
8
BLACK
6
CONTINUOUS
10
1.40275
20
0.669462
11
1.40262
21
0.669439
0
LINE
8
BLACK
6
CONTINUOUS
10
1.40262
20
0.669439
11
1.4025
21
0.669505
0
LINE
8
BLACK
6
CONTINUOUS
10
1.4025
20
0.669505
11
1.40212
21
0.669573
0
LINE
8
BLACK
6
CONTINUOUS
10
1.40212
20
0.669573
11
1.40153
21
0.670066
0
LINE
8
BLACK
6
CONTINUOUS
10
1.40153
20
0.670066
11
1.40087
21
0.670449
0
LINE
8
BLACK
6
CONTINUOUS
10
1.40087
20
0.670449
11
1.40078
21
0.6707
0
LINE
8
BLACK
6
CONTINUOUS
10
1.40078
20
0.6707
11
1.40057
21
0.670871
0
LINE
8
BLACK
6
CONTINUOUS
10
1.40057
20
0.670871
11
1.40044
21
0.671626
0
LINE
8
BLACK
6
CONTINUOUS
10
1.40044
20
0.671626
11
1.40018
21
0.672347
0
LINE
8
BLACK
6
CONTINUOUS
10
1.40018
20
0.672347
11
1.40018
21
0.711717
0
LINE
8
BLACK
6
CONTINUOUS
10
1.40018
20
0.711717
11
1.40025
21
0.712101
0
LINE
8
BLACK
6
CONTINUOUS
10
1.40025
20
0.712101
11
1.40022
21
0.71223
0
LINE
8
BLACK
6
CONTINUOUS
10
1.40022
20
0.71223
11
1.40029
21
0.712344
0
LINE
8
BLACK
6
CONTINUOUS
10
1.40029
20
0.712344
11
1.40036
21
0.712727
0
LINE
8
BLACK
6
CONTINUOUS
10
1.40036
20
0.712727
11
1.40085
21
0.713315
0
LINE
8
BLACK
6
CONTINUOUS
10
1.40085
20
0.713315
11
1.40123
21
0.713979
0
LINE
8
BLACK
6
CONTINUOUS
10
1.40123
20
0.713979
11
1.40148
21
0.71407
0
LINE
8
BLACK
6
CONTINUOUS
10
1.40148
20
0.71407
11
1.40165
21
0.714274
0
LINE
8
BLACK
6
CONTINUOUS
10
1.40165
20
0.714274
11
1.40241
21
0.714408
0
LINE
8
BLACK
6
CONTINUOUS
10
1.40241
20
0.714408
11
1.40313
21
0.71467
0
LINE
8
BLACK
6
CONTINUOUS
10
1.40313
20
0.71467
11
1.42188
21
0.71467
0
LINE
8
BLACK
6
CONTINUOUS
10
1.42188
20
0.71467
11
1.42289
21
0.714492
0
LINE
8
BLACK
6
CONTINUOUS
10
1.54413
20
0.713615
11
1.54482
21
0.711717
0
LINE
8
BLACK
6
CONTINUOUS
10
1.54482
20
0.711717
11
1.54482
21
0.679846
0
LINE
8
BLACK
6
CONTINUOUS
10
1.54482
20
0.679846
11
1.54464
21
0.678836
0
LINE
8
BLACK
6
CONTINUOUS
10
1.54464
20
0.678836
11
1.54452
21
0.678701
0
LINE
8
BLACK
6
CONTINUOUS
10
1.54452
20
0.678701
11
1.5445
21
0.678526
0
LINE
8
BLACK
6
CONTINUOUS
10
1.5445
20
0.678526
11
1.54263
21
0.674776
0
LINE
8
BLACK
6
CONTINUOUS
10
1.54263
20
0.674776
11
1.5421
21
0.674067
0
LINE
8
BLACK
6
CONTINUOUS
10
1.5421
20
0.674067
11
1.54208
21
0.674009
0
LINE
8
BLACK
6
CONTINUOUS
10
1.54208
20
0.674009
11
1.5402
21
0.672134
0
LINE
8
BLACK
6
CONTINUOUS
10
1.5402
20
0.672134
11
1.53948
21
0.671628
0
LINE
8
BLACK
6
CONTINUOUS
10
1.53948
20
0.671628
11
1.53943
21
0.671581
0
LINE
8
BLACK
6
CONTINUOUS
10
1.53943
20
0.671581
11
1.53568
21
0.669706
0
LINE
8
BLACK
6
CONTINUOUS
10
1.53568
20
0.669706
11
1.5347
21
0.669414
0
LINE
8
BLACK
6
CONTINUOUS
10
1.5347
20
0.669414
11
1.53453
21
0.669455
0
LINE
8
BLACK
6
CONTINUOUS
10
1.53453
20
0.669455
11
1.53436
21
0.669394
0
LINE
8
BLACK
6
CONTINUOUS
10
1.53436
20
0.669394
11
1.52687
21
0.669394
0
LINE
8
BLACK
6
CONTINUOUS
10
1.52687
20
0.669394
11
1.52586
21
0.669573
0
LINE
8
BLACK
6
CONTINUOUS
10
1.52586
20
0.669573
11
1.52572
21
0.669686
0
LINE
8
BLACK
6
CONTINUOUS
10
1.52572
20
0.669686
11
1.52554
21
0.669706
0
LINE
8
BLACK
6
CONTINUOUS
10
1.52554
20
0.669706
11
1.5218
21
0.671581
0
LINE
8
BLACK
6
CONTINUOUS
10
1.5218
20
0.671581
11
1.52109
21
0.672107
0
LINE
8
BLACK
6
CONTINUOUS
10
1.52109
20
0.672107
11
1.52103
21
0.672134
0
LINE
8
BLACK
6
CONTINUOUS
10
1.52103
20
0.672134
11
1.51915
21
0.674009
0
LINE
8
BLACK
6
CONTINUOUS
10
1.51915
20
0.674009
11
1.51865
21
0.674732
0
LINE
8
BLACK
6
CONTINUOUS
10
1.51865
20
0.674732
11
1.5186
21
0.674776
0
LINE
8
BLACK
6
CONTINUOUS
10
1.5186
20
0.674776
11
1.51673
21
0.678526
0
LINE
8
BLACK
6
CONTINUOUS
10
1.51673
20
0.678526
11
1.51643
21
0.679509
0
LINE
8
BLACK
6
CONTINUOUS
10
1.51643
20
0.679509
11
1.51647
21
0.67968
0
LINE
8
BLACK
6
CONTINUOUS
10
1.51647
20
0.67968
11
1.51641
21
0.679846
0
LINE
8
BLACK
6
CONTINUOUS
10
1.51641
20
0.679846
11
1.51641
21
0.711717
0
LINE
8
BLACK
6
CONTINUOUS
10
1.51641
20
0.711717
11
1.51659
21
0.712727
0
LINE
8
BLACK
6
CONTINUOUS
10
1.51659
20
0.712727
11
1.51789
21
0.714274
0
LINE
8
BLACK
6
CONTINUOUS
10
1.51789
20
0.714274
11
1.51988
21
0.714625
0
LINE
8
BLACK
6
CONTINUOUS
10
1.51988
20
0.714625
11
1.52163
21
0.713615
0
LINE
8
BLACK
6
CONTINUOUS
10
1.52163
20
0.713615
11
1.52232
21
0.711717
0
LINE
8
BLACK
6
CONTINUOUS
10
1.52232
20
0.711717
11
1.52232
21
0.680543
0
LINE
8
BLACK
6
CONTINUOUS
10
1.52232
20
0.680543
11
1.52367
21
0.677846
0
LINE
8
BLACK
6
CONTINUOUS
10
1.52367
20
0.677846
11
1.52486
21
0.676649
0
LINE
8
BLACK
6
CONTINUOUS
10
1.52486
20
0.676649
11
1.52756
21
0.6753
0
LINE
8
BLACK
6
CONTINUOUS
10
1.52756
20
0.6753
11
1.53367
21
0.6753
0
LINE
8
BLACK
6
CONTINUOUS
10
1.53367
20
0.6753
11
1.53636
21
0.676649
0
LINE
8
BLACK
6
CONTINUOUS
10
1.53636
20
0.676649
11
1.53756
21
0.677846
0
LINE
8
BLACK
6
CONTINUOUS
10
1.53756
20
0.677846
11
1.53891
21
0.680543
0
LINE
8
BLACK
6
CONTINUOUS
10
1.53891
20
0.680543
11
1.53891
21
0.711717
0
LINE
8
BLACK
6
CONTINUOUS
10
1.53891
20
0.711717
11
1.53909
21
0.712727
0
LINE
8
BLACK
6
CONTINUOUS
10
1.53909
20
0.712727
11
1.54039
21
0.714274
0
LINE
8
BLACK
6
CONTINUOUS
10
1.54039
20
0.714274
11
1.54238
21
0.714625
0
LINE
8
BLACK
6
CONTINUOUS
10
1.54238
20
0.714625
11
1.54413
21
0.713615
0
LINE
8
BLACK
6
CONTINUOUS
10
1.57849
20
0.714492
11
1.58004
21
0.713194
0
LINE
8
BLACK
6
CONTINUOUS
10
1.58004
20
0.713194
11
1.58039
21
0.711205
0
LINE
8
BLACK
6
CONTINUOUS
10
1.58039
20
0.711205
11
1.57938
21
0.709455
0
LINE
8
BLACK
6
CONTINUOUS
10
1.57938
20
0.709455
11
1.57748
21
0.708765
0
LINE
8
BLACK
6
CONTINUOUS
10
1.57748
20
0.708765
11
1.56919
21
0.708765
0
LINE
8
BLACK
6
CONTINUOUS
10
1.56919
20
0.708765
11
1.56919
21
0.672347
0
LINE
8
BLACK
6
CONTINUOUS
10
1.56919
20
0.672347
11
1.56901
21
0.671337
0
LINE
8
BLACK
6
CONTINUOUS
10
1.56901
20
0.671337
11
1.56771
21
0.66979
0
LINE
8
BLACK
6
CONTINUOUS
10
1.56771
20
0.66979
11
1.56572
21
0.669439
0
LINE
8
BLACK
6
CONTINUOUS
10
1.56572
20
0.669439
11
1.56397
21
0.670449
0
LINE
8
BLACK
6
CONTINUOUS
10
1.56397
20
0.670449
11
1.56328
21
0.672347
0
LINE
8
BLACK
6
CONTINUOUS
10
1.56328
20
0.672347
11
1.56328
21
0.708765
0
LINE
8
BLACK
6
CONTINUOUS
10
1.56328
20
0.708765
11
1.55499
21
0.708765
0
LINE
8
BLACK
6
CONTINUOUS
10
1.55499
20
0.708765
11
1.55398
21
0.708943
0
LINE
8
BLACK
6
CONTINUOUS
10
1.55398
20
0.708943
11
1.55243
21
0.710241
0
LINE
8
BLACK
6
CONTINUOUS
10
1.55243
20
0.710241
11
1.55208
21
0.71223
0
LINE
8
BLACK
6
CONTINUOUS
10
1.55208
20
0.71223
11
1.55309
21
0.713979
0
LINE
8
BLACK
6
CONTINUOUS
10
1.55309
20
0.713979
11
1.55499
21
0.71467
0
LINE
8
BLACK
6
CONTINUOUS
10
1.55499
20
0.71467
11
1.57748
21
0.71467
0
LINE
8
BLACK
6
CONTINUOUS
10
1.57748
20
0.71467
11
1.57849
21
0.714492
0
LINE
8
BLACK
6
CONTINUOUS
10
1.45476
20
0.714492
11
1.45489
21
0.714379
0
LINE
8
BLACK
6
CONTINUOUS
10
1.45489
20
0.714379
11
1.45507
21
0.714358
0
LINE
8
BLACK
6
CONTINUOUS
10
1.45507
20
0.714358
11
1.45882
21
0.712484
0
LINE
8
BLACK
6
CONTINUOUS
10
1.45882
20
0.712484
11
1.45953
21
0.711958
0
LINE
8
BLACK
6
CONTINUOUS
10
1.45953
20
0.711958
11
1.45959
21
0.71193
0
LINE
8
BLACK
6
CONTINUOUS
10
1.45959
20
0.71193
11
1.46146
21
0.710056
0
LINE
8
BLACK
6
CONTINUOUS
10
1.46146
20
0.710056
11
1.46197
21
0.709333
0
LINE
8
BLACK
6
CONTINUOUS
10
1.46197
20
0.709333
11
1.46201
21
0.709288
0
LINE
8
BLACK
6
CONTINUOUS
10
1.46201
20
0.709288
11
1.46389
21
0.705539
0
LINE
8
BLACK
6
CONTINUOUS
10
1.46389
20
0.705539
11
1.46418
21
0.704556
0
LINE
8
BLACK
6
CONTINUOUS
10
1.46418
20
0.704556
11
1.46414
21
0.704384
0
LINE
8
BLACK
6
CONTINUOUS
10
1.46414
20
0.704384
11
1.4642
21
0.704218
0
LINE
8
BLACK
6
CONTINUOUS
10
1.4642
20
0.704218
11
1.4642
21
0.698594
0
LINE
8
BLACK
6
CONTINUOUS
10
1.4642
20
0.698594
11
1.46402
21
0.697584
0
LINE
8
BLACK
6
CONTINUOUS
10
1.46402
20
0.697584
11
1.46391
21
0.697449
0
LINE
8
BLACK
6
CONTINUOUS
10
1.46391
20
0.697449
11
1.46389
21
0.697273
0
LINE
8
BLACK
6
CONTINUOUS
10
1.46389
20
0.697273
11
1.46201
21
0.693524
0
LINE
8
BLACK
6
CONTINUOUS
10
1.46201
20
0.693524
11
1.46149
21
0.692815
0
LINE
8
BLACK
6
CONTINUOUS
10
1.46149
20
0.692815
11
1.46146
21
0.692756
0
LINE
8
BLACK
6
CONTINUOUS
10
1.46146
20
0.692756
11
1.45959
21
0.690882
0
LINE
8
BLACK
6
CONTINUOUS
10
1.45959
20
0.690882
11
1.45886
21
0.690375
0
LINE
8
BLACK
6
CONTINUOUS
10
1.45886
20
0.690375
11
1.45882
21
0.690329
0
LINE
8
BLACK
6
CONTINUOUS
10
1.45882
20
0.690329
11
1.45507
21
0.688454
0
LINE
8
BLACK
6
CONTINUOUS
10
1.45507
20
0.688454
11
1.45409
21
0.688161
0
LINE
8
BLACK
6
CONTINUOUS
10
1.45409
20
0.688161
11
1.45392
21
0.688203
0
LINE
8
BLACK
6
CONTINUOUS
10
1.45392
20
0.688203
11
1.45375
21
0.688142
0
LINE
8
BLACK
6
CONTINUOUS
10
1.45375
20
0.688142
11
1.4417
21
0.688142
0
LINE
8
BLACK
6
CONTINUOUS
10
1.4417
20
0.688142
11
1.4417
21
0.672347
0
LINE
8
BLACK
6
CONTINUOUS
10
1.4417
20
0.672347
11
1.44153
21
0.671337
0
LINE
8
BLACK
6
CONTINUOUS
10
1.44153
20
0.671337
11
1.44023
21
0.66979
0
LINE
8
BLACK
6
CONTINUOUS
10
1.44023
20
0.66979
11
1.43824
21
0.669439
0
LINE
8
BLACK
6
CONTINUOUS
10
1.43824
20
0.669439
11
1.43649
21
0.670449
0
LINE
8
BLACK
6
CONTINUOUS
10
1.43649
20
0.670449
11
1.4358
21
0.672347
0
LINE
8
BLACK
6
CONTINUOUS
10
1.4358
20
0.672347
11
1.4358
21
0.711717
0
LINE
8
BLACK
6
CONTINUOUS
10
1.4358
20
0.711717
11
1.43587
21
0.712101
0
LINE
8
BLACK
6
CONTINUOUS
10
1.43587
20
0.712101
11
1.43584
21
0.71223
0
LINE
8
BLACK
6
CONTINUOUS
10
1.43584
20
0.71223
11
1.43591
21
0.712344
0
LINE
8
BLACK
6
CONTINUOUS
10
1.43591
20
0.712344
11
1.43598
21
0.712727
0
LINE
8
BLACK
6
CONTINUOUS
10
1.43598
20
0.712727
11
1.43647
21
0.713315
0
LINE
8
BLACK
6
CONTINUOUS
10
1.43647
20
0.713315
11
1.43685
21
0.713979
0
LINE
8
BLACK
6
CONTINUOUS
10
1.43685
20
0.713979
11
1.4371
21
0.71407
0
LINE
8
BLACK
6
CONTINUOUS
10
1.4371
20
0.71407
11
1.43727
21
0.714274
0
LINE
8
BLACK
6
CONTINUOUS
10
1.43727
20
0.714274
11
1.43803
21
0.714408
0
LINE
8
BLACK
6
CONTINUOUS
10
1.43803
20
0.714408
11
1.43875
21
0.71467
0
LINE
8
BLACK
6
CONTINUOUS
10
1.43875
20
0.71467
11
1.45375
21
0.71467
0
LINE
8
BLACK
6
CONTINUOUS
10
1.45375
20
0.71467
11
1.45476
21
0.714492
0
LINE
8
BLACK
6
CONTINUOUS
10
1.4417
20
0.708765
11
1.4417
21
0.694048
0
LINE
8
BLACK
6
CONTINUOUS
10
1.4417
20
0.694048
11
1.45305
21
0.694048
0
LINE
8
BLACK
6
CONTINUOUS
10
1.45305
20
0.694048
11
1.45575
21
0.695396
0
LINE
8
BLACK
6
CONTINUOUS
10
1.45575
20
0.695396
11
1.45695
21
0.696594
0
LINE
8
BLACK
6
CONTINUOUS
10
1.45695
20
0.696594
11
1.4583
21
0.699291
0
LINE
8
BLACK
6
CONTINUOUS
10
1.4583
20
0.699291
11
1.4583
21
0.703521
0
LINE
8
BLACK
6
CONTINUOUS
10
1.4583
20
0.703521
11
1.45695
21
0.706219
0
LINE
8
BLACK
6
CONTINUOUS
10
1.45695
20
0.706219
11
1.45575
21
0.707416
0
LINE
8
BLACK
6
CONTINUOUS
10
1.45575
20
0.707416
11
1.45305
21
0.708765
0
LINE
8
BLACK
6
CONTINUOUS
10
1.45305
20
0.708765
11
1.4417
21
0.708765
0
LINE
8
BLACK
6
CONTINUOUS
10
1.3304
20
0.713615
11
1.33109
21
0.711717
0
LINE
8
BLACK
6
CONTINUOUS
10
1.33109
20
0.711717
11
1.33109
21
0.696349
0
LINE
8
BLACK
6
CONTINUOUS
10
1.33109
20
0.696349
11
1.34855
21
0.713805
0
LINE
8
BLACK
6
CONTINUOUS
10
1.34855
20
0.713805
11
1.34939
21
0.714393
0
LINE
8
BLACK
6
CONTINUOUS
10
1.34939
20
0.714393
11
1.3514
21
0.714569
0
LINE
8
BLACK
6
CONTINUOUS
10
1.3514
20
0.714569
11
1.35306
21
0.713411
0
LINE
8
BLACK
6
CONTINUOUS
10
1.35306
20
0.713411
11
1.35358
21
0.71146
0
LINE
8
BLACK
6
CONTINUOUS
10
1.35358
20
0.71146
11
1.35273
21
0.709629
0
LINE
8
BLACK
6
CONTINUOUS
10
1.35273
20
0.709629
11
1.33766
21
0.694567
0
LINE
8
BLACK
6
CONTINUOUS
10
1.33766
20
0.694567
11
1.353
21
0.674119
0
LINE
8
BLACK
6
CONTINUOUS
10
1.353
20
0.674119
11
1.35346
21
0.673204
0
LINE
8
BLACK
6
CONTINUOUS
10
1.35346
20
0.673204
11
1.35335
21
0.671187
0
LINE
8
BLACK
6
CONTINUOUS
10
1.35335
20
0.671187
11
1.35197
21
0.669713
0
LINE
8
BLACK
6
CONTINUOUS
10
1.35197
20
0.669713
11
1.34997
21
0.669472
0
LINE
8
BLACK
6
CONTINUOUS
10
1.34997
20
0.669472
11
1.34828
21
0.670576
0
LINE
8
BLACK
6
CONTINUOUS
10
1.34828
20
0.670576
11
1.33345
21
0.690349
0
LINE
8
BLACK
6
CONTINUOUS
10
1.33345
20
0.690349
11
1.33109
21
0.687997
0
LINE
8
BLACK
6
CONTINUOUS
10
1.33109
20
0.687997
11
1.33109
21
0.672347
0
LINE
8
BLACK
6
CONTINUOUS
10
1.33109
20
0.672347
11
1.33091
21
0.671337
0
LINE
8
BLACK
6
CONTINUOUS
10
1.33091
20
0.671337
11
1.32962
21
0.66979
0
LINE
8
BLACK
6
CONTINUOUS
10
1.32962
20
0.66979
11
1.32763
21
0.669439
0
LINE
8
BLACK
6
CONTINUOUS
10
1.32763
20
0.669439
11
1.32588
21
0.670449
0
LINE
8
BLACK
6
CONTINUOUS
10
1.32588
20
0.670449
11
1.32519
21
0.672347
0
LINE
8
BLACK
6
CONTINUOUS
10
1.32519
20
0.672347
11
1.32519
21
0.711717
0
LINE
8
BLACK
6
CONTINUOUS
10
1.32519
20
0.711717
11
1.32537
21
0.712727
0
LINE
8
BLACK
6
CONTINUOUS
10
1.32537
20
0.712727
11
1.32666
21
0.714274
0
LINE
8
BLACK
6
CONTINUOUS
10
1.32666
20
0.714274
11
1.32865
21
0.714625
0
LINE
8
BLACK
6
CONTINUOUS
10
1.32865
20
0.714625
11
1.3304
21
0.713615
0
LINE
8
BLACK
6
CONTINUOUS
10
1.54413
20
1.16362
11
1.54482
21
1.16172
0
LINE
8
BLACK
6
CONTINUOUS
10
1.54482
20
1.16172
11
1.54482
21
1.12985
0
LINE
8
BLACK
6
CONTINUOUS
10
1.54482
20
1.12985
11
1.54464
21
1.12884
0
LINE
8
BLACK
6
CONTINUOUS
10
1.54464
20
1.12884
11
1.54452
21
1.1287
0
LINE
8
BLACK
6
CONTINUOUS
10
1.54452
20
1.1287
11
1.5445
21
1.12853
0
LINE
8
BLACK
6
CONTINUOUS
10
1.5445
20
1.12853
11
1.54263
21
1.12478
0
LINE
8
BLACK
6
CONTINUOUS
10
1.54263
20
1.12478
11
1.5421
21
1.12407
0
LINE
8
BLACK
6
CONTINUOUS
10
1.5421
20
1.12407
11
1.54208
21
1.12401
0
LINE
8
BLACK
6
CONTINUOUS
10
1.54208
20
1.12401
11
1.5402
21
1.12213
0
LINE
8
BLACK
6
CONTINUOUS
10
1.5402
20
1.12213
11
1.53948
21
1.12163
0
LINE
8
BLACK
6
CONTINUOUS
10
1.53948
20
1.12163
11
1.53943
21
1.12158
0
LINE
8
BLACK
6
CONTINUOUS
10
1.53943
20
1.12158
11
1.53568
21
1.11971
0
LINE
8
BLACK
6
CONTINUOUS
10
1.53568
20
1.11971
11
1.5347
21
1.11941
0
LINE
8
BLACK
6
CONTINUOUS
10
1.5347
20
1.11941
11
1.53453
21
1.11945
0
LINE
8
BLACK
6
CONTINUOUS
10
1.53453
20
1.11945
11
1.53436
21
1.11939
0
LINE
8
BLACK
6
CONTINUOUS
10
1.53436
20
1.11939
11
1.52687
21
1.11939
0
LINE
8
BLACK
6
CONTINUOUS
10
1.52687
20
1.11939
11
1.52586
21
1.11957
0
LINE
8
BLACK
6
CONTINUOUS
10
1.52586
20
1.11957
11
1.52572
21
1.11969
0
LINE
8
BLACK
6
CONTINUOUS
10
1.52572
20
1.11969
11
1.52554
21
1.11971
0
LINE
8
BLACK
6
CONTINUOUS
10
1.52554
20
1.11971
11
1.5218
21
1.12158
0
LINE
8
BLACK
6
CONTINUOUS
10
1.5218
20
1.12158
11
1.52109
21
1.12211
0
LINE
8
BLACK
6
CONTINUOUS
10
1.52109
20
1.12211
11
1.52103
21
1.12213
0
LINE
8
BLACK
6
CONTINUOUS
10
1.52103
20
1.12213
11
1.51915
21
1.12401
0
LINE
8
BLACK
6
CONTINUOUS
10
1.51915
20
1.12401
11
1.51865
21
1.12473
0
LINE
8
BLACK
6
CONTINUOUS
10
1.51865
20
1.12473
11
1.5186
21
1.12478
0
LINE
8
BLACK
6
CONTINUOUS
10
1.5186
20
1.12478
11
1.51673
21
1.12853
0
LINE
8
BLACK
6
CONTINUOUS
10
1.51673
20
1.12853
11
1.51643
21
1.12951
0
LINE
8
BLACK
6
CONTINUOUS
10
1.51643
20
1.12951
11
1.51647
21
1.12968
0
LINE
8
BLACK
6
CONTINUOUS
10
1.51647
20
1.12968
11
1.51641
21
1.12985
0
LINE
8
BLACK
6
CONTINUOUS
10
1.51641
20
1.12985
11
1.51641
21
1.16172
0
LINE
8
BLACK
6
CONTINUOUS
10
1.51641
20
1.16172
11
1.51659
21
1.16273
0
LINE
8
BLACK
6
CONTINUOUS
10
1.51659
20
1.16273
11
1.51789
21
1.16427
0
LINE
8
BLACK
6
CONTINUOUS
10
1.51789
20
1.16427
11
1.51988
21
1.16463
0
LINE
8
BLACK
6
CONTINUOUS
10
1.51988
20
1.16463
11
1.52163
21
1.16362
0
LINE
8
BLACK
6
CONTINUOUS
10
1.52163
20
1.16362
11
1.52232
21
1.16172
0
LINE
8
BLACK
6
CONTINUOUS
10
1.52232
20
1.16172
11
1.52232
21
1.13054
0
LINE
8
BLACK
6
CONTINUOUS
10
1.52232
20
1.13054
11
1.52367
21
1.12785
0
LINE
8
BLACK
6
CONTINUOUS
10
1.52367
20
1.12785
11
1.52486
21
1.12665
0
LINE
8
BLACK
6
CONTINUOUS
10
1.52486
20
1.12665
11
1.52756
21
1.1253
0
LINE
8
BLACK
6
CONTINUOUS
10
1.52756
20
1.1253
11
1.53367
21
1.1253
0
LINE
8
BLACK
6
CONTINUOUS
10
1.53367
20
1.1253
11
1.53636
21
1.12665
0
LINE
8
BLACK
6
CONTINUOUS
10
1.53636
20
1.12665
11
1.53756
21
1.12785
0
LINE
8
BLACK
6
CONTINUOUS
10
1.53756
20
1.12785
11
1.53891
21
1.13054
0
LINE
8
BLACK
6
CONTINUOUS
10
1.53891
20
1.13054
11
1.53891
21
1.16172
0
LINE
8
BLACK
6
CONTINUOUS
10
1.53891
20
1.16172
11
1.53909
21
1.16273
0
LINE
8
BLACK
6
CONTINUOUS
10
1.53909
20
1.16273
11
1.54039
21
1.16427
0
LINE
8
BLACK
6
CONTINUOUS
10
1.54039
20
1.16427
11
1.54238
21
1.16463
0
LINE
8
BLACK
6
CONTINUOUS
10
1.54238
20
1.16463
11
1.54413
21
1.16362
0
LINE
8
BLACK
6
CONTINUOUS
10
1.49413
20
1.16449
11
1.49426
21
1.16438
0
LINE
8
BLACK
6
CONTINUOUS
10
1.49426
20
1.16438
11
1.49444
21
1.16436
0
LINE
8
BLACK
6
CONTINUOUS
10
1.49444
20
1.16436
11
1.49819
21
1.16248
0
LINE
8
BLACK
6
CONTINUOUS
10
1.49819
20
1.16248
11
1.4989
21
1.16196
0
LINE
8
BLACK
6
CONTINUOUS
10
1.4989
20
1.16196
11
1.49896
21
1.16193
0
LINE
8
BLACK
6
CONTINUOUS
10
1.49896
20
1.16193
11
1.50271
21
1.15818
0
LINE
8
BLACK
6
CONTINUOUS
10
1.50271
20
1.15818
11
1.50329
21
1.15734
0
LINE
8
BLACK
6
CONTINUOUS
10
1.50329
20
1.15734
11
1.50332
21
1.15705
0
LINE
8
BLACK
6
CONTINUOUS
10
1.50332
20
1.15705
11
1.50348
21
1.15681
0
LINE
8
BLACK
6
CONTINUOUS
10
1.50348
20
1.15681
11
1.50536
21
1.14931
0
LINE
8
BLACK
6
CONTINUOUS
10
1.50536
20
1.14931
11
1.5054
21
1.14872
0
LINE
8
BLACK
6
CONTINUOUS
10
1.5054
20
1.14872
11
1.50545
21
1.14859
0
LINE
8
BLACK
6
CONTINUOUS
10
1.50545
20
1.14859
11
1.50545
21
1.13547
0
LINE
8
BLACK
6
CONTINUOUS
10
1.50545
20
1.13547
11
1.50534
21
1.13489
0
LINE
8
BLACK
6
CONTINUOUS
10
1.50534
20
1.13489
11
1.50536
21
1.13475
0
LINE
8
BLACK
6
CONTINUOUS
10
1.50536
20
1.13475
11
1.50348
21
1.12726
0
LINE
8
BLACK
6
CONTINUOUS
10
1.50348
20
1.12726
11
1.50307
21
1.12632
0
LINE
8
BLACK
6
CONTINUOUS
10
1.50307
20
1.12632
11
1.50283
21
1.12615
0
LINE
8
BLACK
6
CONTINUOUS
10
1.50283
20
1.12615
11
1.50271
21
1.12588
0
LINE
8
BLACK
6
CONTINUOUS
10
1.50271
20
1.12588
11
1.49896
21
1.12213
0
LINE
8
BLACK
6
CONTINUOUS
10
1.49896
20
1.12213
11
1.49823
21
1.12163
0
LINE
8
BLACK
6
CONTINUOUS
10
1.49823
20
1.12163
11
1.49819
21
1.12158
0
LINE
8
BLACK
6
CONTINUOUS
10
1.49819
20
1.12158
11
1.49444
21
1.11971
0
LINE
8
BLACK
6
CONTINUOUS
10
1.49444
20
1.11971
11
1.49346
21
1.11941
0
LINE
8
BLACK
6
CONTINUOUS
10
1.49346
20
1.11941
11
1.49329
21
1.11945
0
LINE
8
BLACK
6
CONTINUOUS
10
1.49329
20
1.11945
11
1.49312
21
1.11939
0
LINE
8
BLACK
6
CONTINUOUS
10
1.49312
20
1.11939
11
1.48562
21
1.11939
0
LINE
8
BLACK
6
CONTINUOUS
10
1.48562
20
1.11939
11
1.48461
21
1.11957
0
LINE
8
BLACK
6
CONTINUOUS
10
1.48461
20
1.11957
11
1.48448
21
1.11969
0
LINE
8
BLACK
6
CONTINUOUS
10
1.48448
20
1.11969
11
1.4843
21
1.11971
0
LINE
8
BLACK
6
CONTINUOUS
10
1.4843
20
1.11971
11
1.48055
21
1.12158
0
LINE
8
BLACK
6
CONTINUOUS
10
1.48055
20
1.12158
11
1.47984
21
1.12211
0
LINE
8
BLACK
6
CONTINUOUS
10
1.47984
20
1.12211
11
1.47978
21
1.12213
0
LINE
8
BLACK
6
CONTINUOUS
10
1.47978
20
1.12213
11
1.47603
21
1.12588
0
LINE
8
BLACK
6
CONTINUOUS
10
1.47603
20
1.12588
11
1.47545
21
1.12672
0
LINE
8
BLACK
6
CONTINUOUS
10
1.47545
20
1.12672
11
1.47542
21
1.12701
0
LINE
8
BLACK
6
CONTINUOUS
10
1.47542
20
1.12701
11
1.47526
21
1.12726
0
LINE
8
BLACK
6
CONTINUOUS
10
1.47526
20
1.12726
11
1.47338
21
1.13475
0
LINE
8
BLACK
6
CONTINUOUS
10
1.47338
20
1.13475
11
1.47334
21
1.13534
0
LINE
8
BLACK
6
CONTINUOUS
10
1.47334
20
1.13534
11
1.47329
21
1.13547
0
LINE
8
BLACK
6
CONTINUOUS
10
1.47329
20
1.13547
11
1.47329
21
1.14859
0
LINE
8
BLACK
6
CONTINUOUS
10
1.47329
20
1.14859
11
1.4734
21
1.14917
0
LINE
8
BLACK
6
CONTINUOUS
10
1.4734
20
1.14917
11
1.47338
21
1.14931
0
LINE
8
BLACK
6
CONTINUOUS
10
1.47338
20
1.14931
11
1.47526
21
1.15681
0
LINE
8
BLACK
6
CONTINUOUS
10
1.47526
20
1.15681
11
1.47567
21
1.15775
0
LINE
8
BLACK
6
CONTINUOUS
10
1.47567
20
1.15775
11
1.47591
21
1.15792
0
LINE
8
BLACK
6
CONTINUOUS
10
1.47591
20
1.15792
11
1.47603
21
1.15818
0
LINE
8
BLACK
6
CONTINUOUS
10
1.47603
20
1.15818
11
1.47978
21
1.16193
0
LINE
8
BLACK
6
CONTINUOUS
10
1.47978
20
1.16193
11
1.48051
21
1.16244
0
LINE
8
BLACK
6
CONTINUOUS
10
1.48051
20
1.16244
11
1.48055
21
1.16248
0
LINE
8
BLACK
6
CONTINUOUS
10
1.48055
20
1.16248
11
1.4843
21
1.16436
0
LINE
8
BLACK
6
CONTINUOUS
10
1.4843
20
1.16436
11
1.48528
21
1.16465
0
LINE
8
BLACK
6
CONTINUOUS
10
1.48528
20
1.16465
11
1.48545
21
1.16461
0
LINE
8
BLACK
6
CONTINUOUS
10
1.48545
20
1.16461
11
1.48562
21
1.16467
0
LINE
8
BLACK
6
CONTINUOUS
10
1.48562
20
1.16467
11
1.49312
21
1.16467
0
LINE
8
BLACK
6
CONTINUOUS
10
1.49312
20
1.16467
11
1.49413
21
1.16449
0
LINE
8
BLACK
6
CONTINUOUS
10
1.48632
20
1.15876
11
1.48362
21
1.15742
0
LINE
8
BLACK
6
CONTINUOUS
10
1.48362
20
1.15742
11
1.48079
21
1.15458
0
LINE
8
BLACK
6
CONTINUOUS
10
1.48079
20
1.15458
11
1.4792
21
1.14823
0
LINE
8
BLACK
6
CONTINUOUS
10
1.4792
20
1.14823
11
1.4792
21
1.13583
0
LINE
8
BLACK
6
CONTINUOUS
10
1.4792
20
1.13583
11
1.48079
21
1.12948
0
LINE
8
BLACK
6
CONTINUOUS
10
1.48079
20
1.12948
11
1.48362
21
1.12665
0
LINE
8
BLACK
6
CONTINUOUS
10
1.48362
20
1.12665
11
1.48632
21
1.1253
0
LINE
8
BLACK
6
CONTINUOUS
10
1.48632
20
1.1253
11
1.49242
21
1.1253
0
LINE
8
BLACK
6
CONTINUOUS
10
1.49242
20
1.1253
11
1.49512
21
1.12665
0
LINE
8
BLACK
6
CONTINUOUS
10
1.49512
20
1.12665
11
1.49795
21
1.12948
0
LINE
8
BLACK
6
CONTINUOUS
10
1.49795
20
1.12948
11
1.49954
21
1.13583
0
LINE
8
BLACK
6
CONTINUOUS
10
1.49954
20
1.13583
11
1.49954
21
1.14823
0
LINE
8
BLACK
6
CONTINUOUS
10
1.49954
20
1.14823
11
1.49795
21
1.15458
0
LINE
8
BLACK
6
CONTINUOUS
10
1.49795
20
1.15458
11
1.49512
21
1.15742
0
LINE
8
BLACK
6
CONTINUOUS
10
1.49512
20
1.15742
11
1.49242
21
1.15876
0
LINE
8
BLACK
6
CONTINUOUS
10
1.49242
20
1.15876
11
1.48632
21
1.15876
0
LINE
8
BLACK
6
CONTINUOUS
10
1.38727
20
1.16449
11
1.38882
21
1.16319
0
LINE
8
BLACK
6
CONTINUOUS
10
1.38882
20
1.16319
11
1.38917
21
1.1612
0
LINE
8
BLACK
6
CONTINUOUS
10
1.38917
20
1.1612
11
1.38816
21
1.15946
0
LINE
8
BLACK
6
CONTINUOUS
10
1.38816
20
1.15946
11
1.38626
21
1.15876
0
LINE
8
BLACK
6
CONTINUOUS
10
1.38626
20
1.15876
11
1.37046
21
1.15876
0
LINE
8
BLACK
6
CONTINUOUS
10
1.37046
20
1.15876
11
1.37046
21
1.14592
0
LINE
8
BLACK
6
CONTINUOUS
10
1.37046
20
1.14592
11
1.38063
21
1.14592
0
LINE
8
BLACK
6
CONTINUOUS
10
1.38063
20
1.14592
11
1.38164
21
1.14574
0
LINE
8
BLACK
6
CONTINUOUS
10
1.38164
20
1.14574
11
1.38319
21
1.14445
0
LINE
8
BLACK
6
CONTINUOUS
10
1.38319
20
1.14445
11
1.38354
21
1.14246
0
LINE
8
BLACK
6
CONTINUOUS
10
1.38354
20
1.14246
11
1.38253
21
1.14071
0
LINE
8
BLACK
6
CONTINUOUS
10
1.38253
20
1.14071
11
1.38063
21
1.14002
0
LINE
8
BLACK
6
CONTINUOUS
10
1.38063
20
1.14002
11
1.37046
21
1.14002
0
LINE
8
BLACK
6
CONTINUOUS
10
1.37046
20
1.14002
11
1.37046
21
1.1253
0
LINE
8
BLACK
6
CONTINUOUS
10
1.37046
20
1.1253
11
1.38626
21
1.1253
0
LINE
8
BLACK
6
CONTINUOUS
10
1.38626
20
1.1253
11
1.38727
21
1.12512
0
LINE
8
BLACK
6
CONTINUOUS
10
1.38727
20
1.12512
11
1.38882
21
1.12382
0
LINE
8
BLACK
6
CONTINUOUS
10
1.38882
20
1.12382
11
1.38917
21
1.12183
0
LINE
8
BLACK
6
CONTINUOUS
10
1.38917
20
1.12183
11
1.38816
21
1.12009
0
LINE
8
BLACK
6
CONTINUOUS
10
1.38816
20
1.12009
11
1.38626
21
1.11939
0
LINE
8
BLACK
6
CONTINUOUS
10
1.38626
20
1.11939
11
1.36751
21
1.11939
0
LINE
8
BLACK
6
CONTINUOUS
10
1.36751
20
1.11939
11
1.36713
21
1.11946
0
LINE
8
BLACK
6
CONTINUOUS
10
1.36713
20
1.11946
11
1.367
21
1.11944
0
LINE
8
BLACK
6
CONTINUOUS
10
1.367
20
1.11944
11
1.36688
21
1.1195
0
LINE
8
BLACK
6
CONTINUOUS
10
1.36688
20
1.1195
11
1.3665
21
1.11957
0
LINE
8
BLACK
6
CONTINUOUS
10
1.3665
20
1.11957
11
1.36591
21
1.12007
0
LINE
8
BLACK
6
CONTINUOUS
10
1.36591
20
1.12007
11
1.36525
21
1.12045
0
LINE
8
BLACK
6
CONTINUOUS
10
1.36525
20
1.12045
11
1.36516
21
1.1207
0
LINE
8
BLACK
6
CONTINUOUS
10
1.36516
20
1.1207
11
1.36495
21
1.12087
0
LINE
8
BLACK
6
CONTINUOUS
10
1.36495
20
1.12087
11
1.36482
21
1.12163
0
LINE
8
BLACK
6
CONTINUOUS
10
1.36482
20
1.12163
11
1.36456
21
1.12235
0
LINE
8
BLACK
6
CONTINUOUS
10
1.36456
20
1.12235
11
1.36456
21
1.16172
0
LINE
8
BLACK
6
CONTINUOUS
10
1.36456
20
1.16172
11
1.36463
21
1.1621
0
LINE
8
BLACK
6
CONTINUOUS
10
1.36463
20
1.1621
11
1.3646
21
1.16223
0
LINE
8
BLACK
6
CONTINUOUS
10
1.3646
20
1.16223
11
1.36467
21
1.16234
0
LINE
8
BLACK
6
CONTINUOUS
10
1.36467
20
1.16234
11
1.36474
21
1.16273
0
LINE
8
BLACK
6
CONTINUOUS
10
1.36474
20
1.16273
11
1.36523
21
1.16331
0
LINE
8
BLACK
6
CONTINUOUS
10
1.36523
20
1.16331
11
1.36561
21
1.16398
0
LINE
8
BLACK
6
CONTINUOUS
10
1.36561
20
1.16398
11
1.36586
21
1.16407
0
LINE
8
BLACK
6
CONTINUOUS
10
1.36586
20
1.16407
11
1.36603
21
1.16427
0
LINE
8
BLACK
6
CONTINUOUS
10
1.36603
20
1.16427
11
1.36679
21
1.16441
0
LINE
8
BLACK
6
CONTINUOUS
10
1.36679
20
1.16441
11
1.36751
21
1.16467
0
LINE
8
BLACK
6
CONTINUOUS
10
1.36751
20
1.16467
11
1.38626
21
1.16467
0
LINE
8
BLACK
6
CONTINUOUS
10
1.38626
20
1.16467
11
1.38727
21
1.16449
0
LINE
8
BLACK
6
CONTINUOUS
10
1.42289
20
1.16449
11
1.42444
21
1.16319
0
LINE
8
BLACK
6
CONTINUOUS
10
1.42444
20
1.16319
11
1.42479
21
1.1612
0
LINE
8
BLACK
6
CONTINUOUS
10
1.42479
20
1.1612
11
1.42378
21
1.15946
0
LINE
8
BLACK
6
CONTINUOUS
10
1.42378
20
1.15946
11
1.42188
21
1.15876
0
LINE
8
BLACK
6
CONTINUOUS
10
1.42188
20
1.15876
11
1.40608
21
1.15876
0
LINE
8
BLACK
6
CONTINUOUS
10
1.40608
20
1.15876
11
1.40608
21
1.14592
0
LINE
8
BLACK
6
CONTINUOUS
10
1.40608
20
1.14592
11
1.41625
21
1.14592
0
LINE
8
BLACK
6
CONTINUOUS
10
1.41625
20
1.14592
11
1.41726
21
1.14574
0
LINE
8
BLACK
6
CONTINUOUS
10
1.41726
20
1.14574
11
1.41881
21
1.14445
0
LINE
8
BLACK
6
CONTINUOUS
10
1.41881
20
1.14445
11
1.41916
21
1.14246
0
LINE
8
BLACK
6
CONTINUOUS
10
1.41916
20
1.14246
11
1.41815
21
1.14071
0
LINE
8
BLACK
6
CONTINUOUS
10
1.41815
20
1.14071
11
1.41625
21
1.14002
0
LINE
8
BLACK
6
CONTINUOUS
10
1.41625
20
1.14002
11
1.40608
21
1.14002
0
LINE
8
BLACK
6
CONTINUOUS
10
1.40608
20
1.14002
11
1.40608
21
1.1253
0
LINE
8
BLACK
6
CONTINUOUS
10
1.40608
20
1.1253
11
1.42188
21
1.1253
0
LINE
8
BLACK
6
CONTINUOUS
10
1.42188
20
1.1253
11
1.42289
21
1.12512
0
LINE
8
BLACK
6
CONTINUOUS
10
1.42289
20
1.12512
11
1.42444
21
1.12382
0
LINE
8
BLACK
6
CONTINUOUS
10
1.42444
20
1.12382
11
1.42479
21
1.12183
0
LINE
8
BLACK
6
CONTINUOUS
10
1.42479
20
1.12183
11
1.42378
21
1.12009
0
LINE
8
BLACK
6
CONTINUOUS
10
1.42378
20
1.12009
11
1.42188
21
1.11939
0
LINE
8
BLACK
6
CONTINUOUS
10
1.42188
20
1.11939
11
1.40313
21
1.11939
0
LINE
8
BLACK
6
CONTINUOUS
10
1.40313
20
1.11939
11
1.40275
21
1.11946
0
LINE
8
BLACK
6
CONTINUOUS
10
1.40275
20
1.11946
11
1.40262
21
1.11944
0
LINE
8
BLACK
6
CONTINUOUS
10
1.40262
20
1.11944
11
1.4025
21
1.1195
0
LINE
8
BLACK
6
CONTINUOUS
10
1.4025
20
1.1195
11
1.40212
21
1.11957
0
LINE
8
BLACK
6
CONTINUOUS
10
1.40212
20
1.11957
11
1.40153
21
1.12007
0
LINE
8
BLACK
6
CONTINUOUS
10
1.40153
20
1.12007
11
1.40087
21
1.12045
0
LINE
8
BLACK
6
CONTINUOUS
10
1.40087
20
1.12045
11
1.40078
21
1.1207
0
LINE
8
BLACK
6
CONTINUOUS
10
1.40078
20
1.1207
11
1.40057
21
1.12087
0
LINE
8
BLACK
6
CONTINUOUS
10
1.40057
20
1.12087
11
1.40044
21
1.12163
0
LINE
8
BLACK
6
CONTINUOUS
10
1.40044
20
1.12163
11
1.40018
21
1.12235
0
LINE
8
BLACK
6
CONTINUOUS
10
1.40018
20
1.12235
11
1.40018
21
1.16172
0
LINE
8
BLACK
6
CONTINUOUS
10
1.40018
20
1.16172
11
1.40025
21
1.1621
0
LINE
8
BLACK
6
CONTINUOUS
10
1.40025
20
1.1621
11
1.40022
21
1.16223
0
LINE
8
BLACK
6
CONTINUOUS
10
1.40022
20
1.16223
11
1.40029
21
1.16234
0
LINE
8
BLACK
6
CONTINUOUS
10
1.40029
20
1.16234
11
1.40036
21
1.16273
0
LINE
8
BLACK
6
CONTINUOUS
10
1.40036
20
1.16273
11
1.40085
21
1.16331
0
LINE
8
BLACK
6
CONTINUOUS
10
1.40085
20
1.16331
11
1.40123
21
1.16398
0
LINE
8
BLACK
6
CONTINUOUS
10
1.40123
20
1.16398
11
1.40148
21
1.16407
0
LINE
8
BLACK
6
CONTINUOUS
10
1.40148
20
1.16407
11
1.40165
21
1.16427
0
LINE
8
BLACK
6
CONTINUOUS
10
1.40165
20
1.16427
11
1.40241
21
1.16441
0
LINE
8
BLACK
6
CONTINUOUS
10
1.40241
20
1.16441
11
1.40313
21
1.16467
0
LINE
8
BLACK
6
CONTINUOUS
10
1.40313
20
1.16467
11
1.42188
21
1.16467
0
LINE
8
BLACK
6
CONTINUOUS
10
1.42188
20
1.16467
11
1.42289
21
1.16449
0
LINE
8
BLACK
6
CONTINUOUS
10
1.45476
20
1.16449
11
1.45489
21
1.16438
0
LINE
8
BLACK
6
CONTINUOUS
10
1.45489
20
1.16438
11
1.45507
21
1.16436
0
LINE
8
BLACK
6
CONTINUOUS
10
1.45507
20
1.16436
11
1.45882
21
1.16248
0
LINE
8
BLACK
6
CONTINUOUS
10
1.45882
20
1.16248
11
1.45953
21
1.16196
0
LINE
8
BLACK
6
CONTINUOUS
10
1.45953
20
1.16196
11
1.45959
21
1.16193
0
LINE
8
BLACK
6
CONTINUOUS
10
1.45959
20
1.16193
11
1.46146
21
1.16006
0
LINE
8
BLACK
6
CONTINUOUS
10
1.46146
20
1.16006
11
1.46197
21
1.15933
0
LINE
8
BLACK
6
CONTINUOUS
10
1.46197
20
1.15933
11
1.46201
21
1.15929
0
LINE
8
BLACK
6
CONTINUOUS
10
1.46201
20
1.15929
11
1.46389
21
1.15554
0
LINE
8
BLACK
6
CONTINUOUS
10
1.46389
20
1.15554
11
1.46418
21
1.15456
0
LINE
8
BLACK
6
CONTINUOUS
10
1.46418
20
1.15456
11
1.46414
21
1.15438
0
LINE
8
BLACK
6
CONTINUOUS
10
1.46414
20
1.15438
11
1.4642
21
1.15422
0
LINE
8
BLACK
6
CONTINUOUS
10
1.4642
20
1.15422
11
1.4642
21
1.14859
0
LINE
8
BLACK
6
CONTINUOUS
10
1.4642
20
1.14859
11
1.46402
21
1.14758
0
LINE
8
BLACK
6
CONTINUOUS
10
1.46402
20
1.14758
11
1.46391
21
1.14745
0
LINE
8
BLACK
6
CONTINUOUS
10
1.46391
20
1.14745
11
1.46389
21
1.14727
0
LINE
8
BLACK
6
CONTINUOUS
10
1.46389
20
1.14727
11
1.46201
21
1.14352
0
LINE
8
BLACK
6
CONTINUOUS
10
1.46201
20
1.14352
11
1.46149
21
1.14281
0
LINE
8
BLACK
6
CONTINUOUS
10
1.46149
20
1.14281
11
1.46146
21
1.14276
0
LINE
8
BLACK
6
CONTINUOUS
10
1.46146
20
1.14276
11
1.45959
21
1.14088
0
LINE
8
BLACK
6
CONTINUOUS
10
1.45959
20
1.14088
11
1.45886
21
1.14038
0
LINE
8
BLACK
6
CONTINUOUS
10
1.45886
20
1.14038
11
1.45882
21
1.14033
0
LINE
8
BLACK
6
CONTINUOUS
10
1.45882
20
1.14033
11
1.45507
21
1.13845
0
LINE
8
BLACK
6
CONTINUOUS
10
1.45507
20
1.13845
11
1.45409
21
1.13816
0
LINE
8
BLACK
6
CONTINUOUS
10
1.45409
20
1.13816
11
1.45392
21
1.1382
0
LINE
8
BLACK
6
CONTINUOUS
10
1.45392
20
1.1382
11
1.45375
21
1.13814
0
LINE
8
BLACK
6
CONTINUOUS
10
1.45375
20
1.13814
11
1.4417
21
1.13814
0
LINE
8
BLACK
6
CONTINUOUS
10
1.4417
20
1.13814
11
1.4417
21
1.12235
0
LINE
8
BLACK
6
CONTINUOUS
10
1.4417
20
1.12235
11
1.44153
21
1.12134
0
LINE
8
BLACK
6
CONTINUOUS
10
1.44153
20
1.12134
11
1.44023
21
1.11979
0
LINE
8
BLACK
6
CONTINUOUS
10
1.44023
20
1.11979
11
1.43824
21
1.11944
0
LINE
8
BLACK
6
CONTINUOUS
10
1.43824
20
1.11944
11
1.43649
21
1.12045
0
LINE
8
BLACK
6
CONTINUOUS
10
1.43649
20
1.12045
11
1.4358
21
1.12235
0
LINE
8
BLACK
6
CONTINUOUS
10
1.4358
20
1.12235
11
1.4358
21
1.16172
0
LINE
8
BLACK
6
CONTINUOUS
10
1.4358
20
1.16172
11
1.43587
21
1.1621
0
LINE
8
BLACK
6
CONTINUOUS
10
1.43587
20
1.1621
11
1.43584
21
1.16223
0
LINE
8
BLACK
6
CONTINUOUS
10
1.43584
20
1.16223
11
1.43591
21
1.16234
0
LINE
8
BLACK
6
CONTINUOUS
10
1.43591
20
1.16234
11
1.43598
21
1.16273
0
LINE
8
BLACK
6
CONTINUOUS
10
1.43598
20
1.16273
11
1.43647
21
1.16331
0
LINE
8
BLACK
6
CONTINUOUS
10
1.43647
20
1.16331
11
1.43685
21
1.16398
0
LINE
8
BLACK
6
CONTINUOUS
10
1.43685
20
1.16398
11
1.4371
21
1.16407
0
LINE
8
BLACK
6
CONTINUOUS
10
1.4371
20
1.16407
11
1.43727
21
1.16427
0
LINE
8
BLACK
6
CONTINUOUS
10
1.43727
20
1.16427
11
1.43803
21
1.16441
0
LINE
8
BLACK
6
CONTINUOUS
10
1.43803
20
1.16441
11
1.43875
21
1.16467
0
LINE
8
BLACK
6
CONTINUOUS
10
1.43875
20
1.16467
11
1.45375
21
1.16467
0
LINE
8
BLACK
6
CONTINUOUS
10
1.45375
20
1.16467
11
1.45476
21
1.16449
0
LINE
8
BLACK
6
CONTINUOUS
10
1.4417
20
1.15876
11
1.4417
21
1.14405
0
LINE
8
BLACK
6
CONTINUOUS
10
1.4417
20
1.14405
11
1.45305
21
1.14405
0
LINE
8
BLACK
6
CONTINUOUS
10
1.45305
20
1.14405
11
1.45575
21
1.1454
0
LINE
8
BLACK
6
CONTINUOUS
10
1.45575
20
1.1454
11
1.45695
21
1.14659
0
LINE
8
BLACK
6
CONTINUOUS
10
1.45695
20
1.14659
11
1.4583
21
1.14929
0
LINE
8
BLACK
6
CONTINUOUS
10
1.4583
20
1.14929
11
1.4583
21
1.15352
0
LINE
8
BLACK
6
CONTINUOUS
10
1.4583
20
1.15352
11
1.45695
21
1.15622
0
LINE
8
BLACK
6
CONTINUOUS
10
1.45695
20
1.15622
11
1.45575
21
1.15742
0
LINE
8
BLACK
6
CONTINUOUS
10
1.45575
20
1.15742
11
1.45305
21
1.15876
0
LINE
8
BLACK
6
CONTINUOUS
10
1.45305
20
1.15876
11
1.4417
21
1.15876
0
LINE
8
BLACK
6
CONTINUOUS
10
1.57849
20
1.16449
11
1.58004
21
1.16319
0
LINE
8
BLACK
6
CONTINUOUS
10
1.58004
20
1.16319
11
1.58039
21
1.1612
0
LINE
8
BLACK
6
CONTINUOUS
10
1.58039
20
1.1612
11
1.57938
21
1.15946
0
LINE
8
BLACK
6
CONTINUOUS
10
1.57938
20
1.15946
11
1.57748
21
1.15876
0
LINE
8
BLACK
6
CONTINUOUS
10
1.57748
20
1.15876
11
1.56919
21
1.15876
0
LINE
8
BLACK
6
CONTINUOUS
10
1.56919
20
1.15876
11
1.56919
21
1.12235
0
LINE
8
BLACK
6
CONTINUOUS
10
1.56919
20
1.12235
11
1.56901
21
1.12134
0
LINE
8
BLACK
6
CONTINUOUS
10
1.56901
20
1.12134
11
1.56771
21
1.11979
0
LINE
8
BLACK
6
CONTINUOUS
10
1.56771
20
1.11979
11
1.56572
21
1.11944
0
LINE
8
BLACK
6
CONTINUOUS
10
1.56572
20
1.11944
11
1.56397
21
1.12045
0
LINE
8
BLACK
6
CONTINUOUS
10
1.56397
20
1.12045
11
1.56328
21
1.12235
0
LINE
8
BLACK
6
CONTINUOUS
10
1.56328
20
1.12235
11
1.56328
21
1.15876
0
LINE
8
BLACK
6
CONTINUOUS
10
1.56328
20
1.15876
11
1.55499
21
1.15876
0
LINE
8
BLACK
6
CONTINUOUS
10
1.55499
20
1.15876
11
1.55398
21
1.15894
0
LINE
8
BLACK
6
CONTINUOUS
10
1.55398
20
1.15894
11
1.55243
21
1.16024
0
LINE
8
BLACK
6
CONTINUOUS
10
1.55243
20
1.16024
11
1.55208
21
1.16223
0
LINE
8
BLACK
6
CONTINUOUS
10
1.55208
20
1.16223
11
1.55309
21
1.16398
0
LINE
8
BLACK
6
CONTINUOUS
10
1.55309
20
1.16398
11
1.55499
21
1.16467
0
LINE
8
BLACK
6
CONTINUOUS
10
1.55499
20
1.16467
11
1.57748
21
1.16467
0
LINE
8
BLACK
6
CONTINUOUS
10
1.57748
20
1.16467
11
1.57849
21
1.16449
0
LINE
8
BLACK
6
CONTINUOUS
10
1.3304
20
1.16362
11
1.33109
21
1.16172
0
LINE
8
BLACK
6
CONTINUOUS
10
1.33109
20
1.16172
11
1.33109
21
1.14635
0
LINE
8
BLACK
6
CONTINUOUS
10
1.33109
20
1.14635
11
1.34855
21
1.16381
0
LINE
8
BLACK
6
CONTINUOUS
10
1.34855
20
1.16381
11
1.34939
21
1.16439
0
LINE
8
BLACK
6
CONTINUOUS
10
1.34939
20
1.16439
11
1.3514
21
1.16457
0
LINE
8
BLACK
6
CONTINUOUS
10
1.3514
20
1.16457
11
1.35306
21
1.16341
0
LINE
8
BLACK
6
CONTINUOUS
10
1.35306
20
1.16341
11
1.35358
21
1.16146
0
LINE
8
BLACK
6
CONTINUOUS
10
1.35358
20
1.16146
11
1.35273
21
1.15963
0
LINE
8
BLACK
6
CONTINUOUS
10
1.35273
20
1.15963
11
1.33766
21
1.14457
0
LINE
8
BLACK
6
CONTINUOUS
10
1.33766
20
1.14457
11
1.353
21
1.12412
0
LINE
8
BLACK
6
CONTINUOUS
10
1.353
20
1.12412
11
1.35346
21
1.1232
0
LINE
8
BLACK
6
CONTINUOUS
10
1.35346
20
1.1232
11
1.35335
21
1.12119
0
LINE
8
BLACK
6
CONTINUOUS
10
1.35335
20
1.12119
11
1.35197
21
1.11971
0
LINE
8
BLACK
6
CONTINUOUS
10
1.35197
20
1.11971
11
1.34997
21
1.11947
0
LINE
8
BLACK
6
CONTINUOUS
10
1.34997
20
1.11947
11
1.34828
21
1.12058
0
LINE
8
BLACK
6
CONTINUOUS
10
1.34828
20
1.12058
11
1.33345
21
1.14035
0
LINE
8
BLACK
6
CONTINUOUS
10
1.33345
20
1.14035
11
1.33109
21
1.138
0
LINE
8
BLACK
6
CONTINUOUS
10
1.33109
20
1.138
11
1.33109
21
1.12235
0
LINE
8
BLACK
6
CONTINUOUS
10
1.33109
20
1.12235
11
1.33091
21
1.12134
0
LINE
8
BLACK
6
CONTINUOUS
10
1.33091
20
1.12134
11
1.32962
21
1.11979
0
LINE
8
BLACK
6
CONTINUOUS
10
1.32962
20
1.11979
11
1.32763
21
1.11944
0
LINE
8
BLACK
6
CONTINUOUS
10
1.32763
20
1.11944
11
1.32588
21
1.12045
0
LINE
8
BLACK
6
CONTINUOUS
10
1.32588
20
1.12045
11
1.32519
21
1.12235
0
LINE
8
BLACK
6
CONTINUOUS
10
1.32519
20
1.12235
11
1.32519
21
1.16172
0
LINE
8
BLACK
6
CONTINUOUS
10
1.32519
20
1.16172
11
1.32537
21
1.16273
0
LINE
8
BLACK
6
CONTINUOUS
10
1.32537
20
1.16273
11
1.32666
21
1.16427
0
LINE
8
BLACK
6
CONTINUOUS
10
1.32666
20
1.16427
11
1.32865
21
1.16463
0
LINE
8
BLACK
6
CONTINUOUS
10
1.32865
20
1.16463
11
1.3304
21
1.16362
0
LINE
8
BLACK
6
CONTINUOUS
10
0.0779217
20
0.229534
11
0.0819746
21
0.242958
0
LINE
8
BLACK
6
CONTINUOUS
10
0.0819746
20
0.242958
11
0.0874986
21
0.255846
0
LINE
8
BLACK
6
CONTINUOUS
10
0.0874986
20
0.255846
11
0.0944248
21
0.268039
0
LINE
8
BLACK
6
CONTINUOUS
10
0.0944248
20
0.268039
11
0.102667
21
0.279383
0
LINE
8
BLACK
6
CONTINUOUS
10
0.102667
20
0.279383
11
0.112122
21
0.289738
0
LINE
8
BLACK
6
CONTINUOUS
10
0.112122
20
0.289738
11
0.122673
21
0.298974
0
LINE
8
BLACK
6
CONTINUOUS
10
0.122673
20
0.298974
11
0.134187
21
0.306977
0
LINE
8
BLACK
6
CONTINUOUS
10
0.134187
20
0.306977
11
0.146522
21
0.313646
0
LINE
8
BLACK
6
CONTINUOUS
10
0.146522
20
0.313646
11
0.159523
21
0.318899
0
LINE
8
BLACK
6
CONTINUOUS
10
0.159523
20
0.318899
11
0.173029
21
0.32267
0
LINE
8
BLACK
6
CONTINUOUS
10
0.173029
20
0.32267
11
0.186871
21
0.324912
0
LINE
8
BLACK
6
CONTINUOUS
10
0.186871
20
0.324912
11
0.200877
21
0.325597
0
LINE
8
BLACK
6
CONTINUOUS
10
0.200877
20
0.325597
11
0.214872
21
0.324716
0
LINE
8
BLACK
6
CONTINUOUS
10
0.214872
20
0.324716
11
0.228681
21
0.322281
0
LINE
8
BLACK
6
CONTINUOUS
10
0.228681
20
0.322281
11
0.242133
21
0.318322
0
LINE
8
BLACK
6
CONTINUOUS
10
0.242133
20
0.318322
11
0.255059
21
0.312889
0
LINE
8
BLACK
6
CONTINUOUS
10
0.255059
20
0.312889
11
0.2673
21
0.306048
0
LINE
8
BLACK
6
CONTINUOUS
10
0.2673
20
0.306048
11
0.278701
21
0.297885
0
LINE
8
BLACK
6
CONTINUOUS
10
0.278701
20
0.297885
11
0.289122
21
0.288502
0
LINE
8
BLACK
6
CONTINUOUS
10
0.289122
20
0.288502
11
0.298432
21
0.278016
0
LINE
8
BLACK
6
CONTINUOUS
10
0.298432
20
0.278016
11
0.306515
21
0.266558
0
LINE
8
BLACK
6
CONTINUOUS
10
0.306515
20
0.266558
11
0.31327
21
0.25427
0
LINE
8
BLACK
6
CONTINUOUS
10
0.31327
20
0.25427
11
0.318614
21
0.241306
0
LINE
8
BLACK
6
CONTINUOUS
10
0.318614
20
0.241306
11
0.322479
21
0.227826
0
LINE
8
BLACK
6
CONTINUOUS
10
0.322479
20
0.227826
11
0.324817
21
0.214001
0
LINE
8
BLACK
6
CONTINUOUS
10
0.324817
20
0.214001
11
0.3256
21
0.2
0
LINE
8
BLACK
6
CONTINUOUS
10
0.3256
20
0.2
11
0.325551
21
0.196493
0
LINE
8
BLACK
6
CONTINUOUS
10
0.325551
20
0.196493
11
0.324378
21
0.18252
0
LINE
8
BLACK
6
CONTINUOUS
10
0.324378
20
0.18252
11
0.321654
21
0.168765
0
LINE
8
BLACK
6
CONTINUOUS
10
0.321654
20
0.168765
11
0.317414
21
0.155399
0
LINE
8
BLACK
6
CONTINUOUS
10
0.317414
20
0.155399
11
0.311711
21
0.142589
0
LINE
8
BLACK
6
CONTINUOUS
10
0.311711
20
0.142589
11
0.304615
21
0.130494
0
LINE
8
BLACK
6
CONTINUOUS
10
0.304615
20
0.130494
11
0.296215
21
0.119266
0
LINE
8
BLACK
6
CONTINUOUS
10
0.296215
20
0.119266
11
0.286616
21
0.109044
0
LINE
8
BLACK
6
CONTINUOUS
10
0.286616
20
0.109044
11
0.275938
21
0.0999558
0
LINE
8
BLACK
6
CONTINUOUS
10
0.275938
20
0.0999558
11
0.264313
21
0.0921146
0
LINE
8
BLACK
6
CONTINUOUS
10
0.264313
20
0.0921146
11
0.251886
21
0.0856181
0
LINE
8
BLACK
6
CONTINUOUS
10
0.251886
20
0.0856181
11
0.238813
21
0.0805473
0
LINE
8
BLACK
6
CONTINUOUS
10
0.238813
20
0.0805473
11
0.225255
21
0.0769654
0
LINE
8
BLACK
6
CONTINUOUS
10
0.225255
20
0.0769654
11
0.211383
21
0.0749169
0
LINE
8
BLACK
6
CONTINUOUS
10
0.211383
20
0.0749169
11
0.19737
21
0.0744276
0
LINE
8
BLACK
6
CONTINUOUS
10
0.19737
20
0.0744276
11
0.183389
21
0.0755033
0
LINE
8
BLACK
6
CONTINUOUS
10
0.183389
20
0.0755033
11
0.169615
21
0.0781309
0
LINE
8
BLACK
6
CONTINUOUS
10
0.169615
20
0.0781309
11
0.156219
21
0.0822774
0
LINE
8
BLACK
6
CONTINUOUS
10
0.156219
20
0.0822774
11
0.14337
21
0.0878912
0
LINE
8
BLACK
6
CONTINUOUS
10
0.14337
20
0.0878912
11
0.131226
21
0.0949024
0
LINE
8
BLACK
6
CONTINUOUS
10
0.131226
20
0.0949024
11
0.11994
21
0.103224
0
LINE
8
BLACK
6
CONTINUOUS
10
0.11994
20
0.103224
11
0.109651
21
0.112751
0
LINE
8
BLACK
6
CONTINUOUS
10
0.109651
20
0.112751
11
0.100488
21
0.123366
0
LINE
8
BLACK
6
CONTINUOUS
10
0.100488
20
0.123366
11
0.0925663
21
0.134936
0
LINE
8
BLACK
6
CONTINUOUS
10
0.0925663
20
0.134936
11
0.0859831
21
0.147317
0
LINE
8
BLACK
6
CONTINUOUS
10
0.0859831
20
0.147317
11
0.0808212
21
0.160354
0
LINE
8
BLACK
6
CONTINUOUS
10
0.0808212
20
0.160354
11
0.0771446
21
0.173886
0
LINE
8
BLACK
6
CONTINUOUS
10
0.0771446
20
0.173886
11
0.0749994
21
0.187744
0
LINE
8
BLACK
6
CONTINUOUS
10
0.0749994
20
0.187744
11
0.0744122
21
0.201754
0
LINE
8
BLACK
6
CONTINUOUS
10
0.0744122
20
0.201754
11
0.074533
21
0.20348
0
LINE
8
BLACK
6
CONTINUOUS
10
0.074533
20
0.20348
11
0.0753904
21
0.215742
0
LINE
8
BLACK
6
CONTINUOUS
10
0.0753904
20
0.215742
11
0.0779217
21
0.229534
0
LINE
8
BLACK
6
CONTINUOUS
10
0.0913983
20
0.178102
11
0.0946349
21
0.165765
0
LINE
8
BLACK
6
CONTINUOUS
10
0.0946349
20
0.165765
11
0.0992681
21
0.153881
0
LINE
8
BLACK
6
CONTINUOUS
10
0.0992681
20
0.153881
11
0.105236
21
0.142609
0
LINE
8
BLACK
6
CONTINUOUS
10
0.105236
20
0.142609
11
0.112461
21
0.132098
0
LINE
8
BLACK
6
CONTINUOUS
10
0.112461
20
0.132098
11
0.120845
21
0.122486
0
LINE
8
BLACK
6
CONTINUOUS
10
0.120845
20
0.122486
11
0.130279
21
0.113902
0
LINE
8
BLACK
6
CONTINUOUS
10
0.130279
20
0.113902
11
0.140637
21
0.106459
0
LINE
8
BLACK
6
CONTINUOUS
10
0.140637
20
0.106459
11
0.151782
21
0.100256
0
LINE
8
BLACK
6
CONTINUOUS
10
0.151782
20
0.100256
11
0.163566
21
0.095375
0
LINE
8
BLACK
6
CONTINUOUS
10
0.163566
20
0.095375
11
0.175832
21
0.0918807
0
LINE
8
BLACK
6
CONTINUOUS
10
0.175832
20
0.0918807
11
0.18842
21
0.0898194
0
LINE
8
BLACK
6
CONTINUOUS
10
0.18842
20
0.0898194
11
0.20116
21
0.0892186
0
LINE
8
BLACK
6
CONTINUOUS
10
0.20116
20
0.0892186
11
0.213885
21
0.0900861
0
LINE
8
BLACK
6
CONTINUOUS
10
0.213885
20
0.0900861
11
0.226426
21
0.0924105
0
LINE
8
BLACK
6
CONTINUOUS
10
0.226426
20
0.0924105
11
0.238617
21
0.0961609
0
LINE
8
BLACK
6
CONTINUOUS
10
0.238617
20
0.0961609
11
0.250296
21
0.101288
0
LINE
8
BLACK
6
CONTINUOUS
10
0.250296
20
0.101288
11
0.261309
21
0.107723
0
LINE
8
BLACK
6
CONTINUOUS
10
0.261309
20
0.107723
11
0.271509
21
0.115381
0
LINE
8
BLACK
6
CONTINUOUS
10
0.271509
20
0.115381
11
0.280761
21
0.124161
0
LINE
8
BLACK
6
CONTINUOUS
10
0.280761
20
0.124161
11
0.288942
21
0.133946
0
LINE
8
BLACK
6
CONTINUOUS
10
0.288942
20
0.133946
11
0.295945
21
0.144606
0
LINE
8
BLACK
6
CONTINUOUS
10
0.295945
20
0.144606
11
0.301676
21
0.156001
0
LINE
8
BLACK
6
CONTINUOUS
10
0.301676
20
0.156001
11
0.306059
21
0.167979
0
LINE
8
BLACK
6
CONTINUOUS
10
0.306059
20
0.167979
11
0.309036
21
0.180381
0
LINE
8
BLACK
6
CONTINUOUS
10
0.309036
20
0.180381
11
0.310569
21
0.193044
0
LINE
8
BLACK
6
CONTINUOUS
10
0.310569
20
0.193044
11
0.310787
21
0.2
0
LINE
8
BLACK
6
CONTINUOUS
10
0.310787
20
0.2
11
0.310053
21
0.212734
0
LINE
8
BLACK
6
CONTINUOUS
10
0.310053
20
0.212734
11
0.30786
21
0.225298
0
LINE
8
BLACK
6
CONTINUOUS
10
0.30786
20
0.225298
11
0.304238
21
0.237528
0
LINE
8
BLACK
6
CONTINUOUS
10
0.304238
20
0.237528
11
0.299234
21
0.24926
0
LINE
8
BLACK
6
CONTINUOUS
10
0.299234
20
0.24926
11
0.292914
21
0.260339
0
LINE
8
BLACK
6
CONTINUOUS
10
0.292914
20
0.260339
11
0.285363
21
0.270619
0
LINE
8
BLACK
6
CONTINUOUS
10
0.285363
20
0.270619
11
0.276681
21
0.279962
0
LINE
8
BLACK
6
CONTINUOUS
10
0.276681
20
0.279962
11
0.266982
21
0.288246
0
LINE
8
BLACK
6
CONTINUOUS
10
0.266982
20
0.288246
11
0.256395
21
0.295359
0
LINE
8
BLACK
6
CONTINUOUS
10
0.256395
20
0.295359
11
0.245061
21
0.301209
0
LINE
8
BLACK
6
CONTINUOUS
10
0.245061
20
0.301209
11
0.23313
21
0.305718
0
LINE
8
BLACK
6
CONTINUOUS
10
0.23313
20
0.305718
11
0.220759
21
0.308825
0
LINE
8
BLACK
6
CONTINUOUS
10
0.220759
20
0.308825
11
0.208114
21
0.31049
0
LINE
8
BLACK
6
CONTINUOUS
10
0.208114
20
0.31049
11
0.195361
21
0.31069
0
LINE
8
BLACK
6
CONTINUOUS
10
0.195361
20
0.31069
11
0.182669
21
0.309423
0
LINE
8
BLACK
6
CONTINUOUS
10
0.182669
20
0.309423
11
0.170207
21
0.306706
0
LINE
8
BLACK
6
CONTINUOUS
10
0.170207
20
0.306706
11
0.15814
21
0.302575
0
LINE
8
BLACK
6
CONTINUOUS
10
0.15814
20
0.302575
11
0.146628
21
0.297084
0
LINE
8
BLACK
6
CONTINUOUS
10
0.146628
20
0.297084
11
0.135823
21
0.290306
0
LINE
8
BLACK
6
CONTINUOUS
10
0.135823
20
0.290306
11
0.125869
21
0.282331
0
LINE
8
BLACK
6
CONTINUOUS
10
0.125869
20
0.282331
11
0.116897
21
0.273265
0
LINE
8
BLACK
6
CONTINUOUS
10
0.116897
20
0.273265
11
0.109027
21
0.263228
0
LINE
8
BLACK
6
CONTINUOUS
10
0.109027
20
0.263228
11
0.102363
21
0.252353
0
LINE
8
BLACK
6
CONTINUOUS
10
0.102363
20
0.252353
11
0.0969924
21
0.240784
0
LINE
8
BLACK
6
CONTINUOUS
10
0.0969924
20
0.240784
11
0.0929876
21
0.228674
0
LINE
8
BLACK
6
CONTINUOUS
10
0.0929876
20
0.228674
11
0.0904011
21
0.216184
0
LINE
8
BLACK
6
CONTINUOUS
10
0.0904011
20
0.216184
11
0.0892672
21
0.20348
0
LINE
8
BLACK
6
CONTINUOUS
10
0.0892672
20
0.20348
11
0.0896011
21
0.19073
0
LINE
8
BLACK
6
CONTINUOUS
10
0.0896011
20
0.19073
11
0.0913983
21
0.178102
0
LINE
8
BLACK
6
CONTINUOUS
10
0.0779217
20
3.42953
11
0.0819746
21
3.44296
0
LINE
8
BLACK
6
CONTINUOUS
10
0.0819746
20
3.44296
11
0.0874986
21
3.45585
0
LINE
8
BLACK
6
CONTINUOUS
10
0.0874986
20
3.45585
11
0.0944248
21
3.46804
0
LINE
8
BLACK
6
CONTINUOUS
10
0.0944248
20
3.46804
11
0.102667
21
3.47938
0
LINE
8
BLACK
6
CONTINUOUS
10
0.102667
20
3.47938
11
0.112122
21
3.48974
0
LINE
8
BLACK
6
CONTINUOUS
10
0.112122
20
3.48974
11
0.122673
21
3.49897
0
LINE
8
BLACK
6
CONTINUOUS
10
0.122673
20
3.49897
11
0.134187
21
3.50698
0
LINE
8
BLACK
6
CONTINUOUS
10
0.134187
20
3.50698
11
0.146522
21
3.51365
0
LINE
8
BLACK
6
CONTINUOUS
10
0.146522
20
3.51365
11
0.159523
21
3.5189
0
LINE
8
BLACK
6
CONTINUOUS
10
0.159523
20
3.5189
11
0.173029
21
3.52267
0
LINE
8
BLACK
6
CONTINUOUS
10
0.173029
20
3.52267
11
0.186871
21
3.52491
0
LINE
8
BLACK
6
CONTINUOUS
10
0.186871
20
3.52491
11
0.200877
21
3.5256
0
LINE
8
BLACK
6
CONTINUOUS
10
0.200877
20
3.5256
11
0.214872
21
3.52472
0
LINE
8
BLACK
6
CONTINUOUS
10
0.214872
20
3.52472
11
0.228681
21
3.52228
0
LINE
8
BLACK
6
CONTINUOUS
10
0.228681
20
3.52228
11
0.242133
21
3.51832
0
LINE
8
BLACK
6
CONTINUOUS
10
0.242133
20
3.51832
11
0.255059
21
3.51289
0
LINE
8
BLACK
6
CONTINUOUS
10
0.255059
20
3.51289
11
0.2673
21
3.50605
0
LINE
8
BLACK
6
CONTINUOUS
10
0.2673
20
3.50605
11
0.278701
21
3.49788
0
LINE
8
BLACK
6
CONTINUOUS
10
0.278701
20
3.49788
11
0.289122
21
3.4885
0
LINE
8
BLACK
6
CONTINUOUS
10
0.289122
20
3.4885
11
0.298432
21
3.47802
0
LINE
8
BLACK
6
CONTINUOUS
10
0.298432
20
3.47802
11
0.306515
21
3.46656
0
LINE
8
BLACK
6
CONTINUOUS
10
0.306515
20
3.46656
11
0.31327
21
3.45427
0
LINE
8
BLACK
6
CONTINUOUS
10
0.31327
20
3.45427
11
0.318614
21
3.44131
0
LINE
8
BLACK
6
CONTINUOUS
10
0.318614
20
3.44131
11
0.322479
21
3.42783
0
LINE
8
BLACK
6
CONTINUOUS
10
0.322479
20
3.42783
11
0.324817
21
3.414
0
LINE
8
BLACK
6
CONTINUOUS
10
0.324817
20
3.414
11
0.3256
21
3.4
0
LINE
8
BLACK
6
CONTINUOUS
10
0.3256
20
3.4
11
0.325551
21
3.39649
0
LINE
8
BLACK
6
CONTINUOUS
10
0.325551
20
3.39649
11
0.324378
21
3.38252
0
LINE
8
BLACK
6
CONTINUOUS
10
0.324378
20
3.38252
11
0.321654
21
3.36876
0
LINE
8
BLACK
6
CONTINUOUS
10
0.321654
20
3.36876
11
0.317414
21
3.3554
0
LINE
8
BLACK
6
CONTINUOUS
10
0.317414
20
3.3554
11
0.311711
21
3.34259
0
LINE
8
BLACK
6
CONTINUOUS
10
0.311711
20
3.34259
11
0.304615
21
3.33049
0
LINE
8
BLACK
6
CONTINUOUS
10
0.304615
20
3.33049
11
0.296215
21
3.31927
0
LINE
8
BLACK
6
CONTINUOUS
10
0.296215
20
3.31927
11
0.286616
21
3.30904
0
LINE
8
BLACK
6
CONTINUOUS
10
0.286616
20
3.30904
11
0.275938
21
3.29996
0
LINE
8
BLACK
6
CONTINUOUS
10
0.275938
20
3.29996
11
0.264313
21
3.29211
0
LINE
8
BLACK
6
CONTINUOUS
10
0.264313
20
3.29211
11
0.251886
21
3.28562
0
LINE
8
BLACK
6
CONTINUOUS
10
0.251886
20
3.28562
11
0.238813
21
3.28055
0
LINE
8
BLACK
6
CONTINUOUS
10
0.238813
20
3.28055
11
0.225255
21
3.27697
0
LINE
8
BLACK
6
CONTINUOUS
10
0.225255
20
3.27697
11
0.211383
21
3.27492
0
LINE
8
BLACK
6
CONTINUOUS
10
0.211383
20
3.27492
11
0.19737
21
3.27443
0
LINE
8
BLACK
6
CONTINUOUS
10
0.19737
20
3.27443
11
0.183389
21
3.2755
0
LINE
8
BLACK
6
CONTINUOUS
10
0.183389
20
3.2755
11
0.169615
21
3.27813
0
LINE
8
BLACK
6
CONTINUOUS
10
0.169615
20
3.27813
11
0.156219
21
3.28228
0
LINE
8
BLACK
6
CONTINUOUS
10
0.156219
20
3.28228
11
0.14337
21
3.28789
0
LINE
8
BLACK
6
CONTINUOUS
10
0.14337
20
3.28789
11
0.131226
21
3.2949
0
LINE
8
BLACK
6
CONTINUOUS
10
0.131226
20
3.2949
11
0.11994
21
3.30322
0
LINE
8
BLACK
6
CONTINUOUS
10
0.11994
20
3.30322
11
0.109651
21
3.31275
0
LINE
8
BLACK
6
CONTINUOUS
10
0.109651
20
3.31275
11
0.100488
21
3.32337
0
LINE
8
BLACK
6
CONTINUOUS
10
0.100488
20
3.32337
11
0.0925663
21
3.33494
0
LINE
8
BLACK
6
CONTINUOUS
10
0.0925663
20
3.33494
11
0.0859831
21
3.34732
0
LINE
8
BLACK
6
CONTINUOUS
10
0.0859831
20
3.34732
11
0.0808212
21
3.36035
0
LINE
8
BLACK
6
CONTINUOUS
10
0.0808212
20
3.36035
11
0.0771446
21
3.37389
0
LINE
8
BLACK
6
CONTINUOUS
10
0.0771446
20
3.37389
11
0.0749994
21
3.38774
0
LINE
8
BLACK
6
CONTINUOUS
10
0.0749994
20
3.38774
11
0.0744122
21
3.40175
0
LINE
8
BLACK
6
CONTINUOUS
10
0.0744122
20
3.40175
11
0.074533
21
3.40348
0
LINE
8
BLACK
6
CONTINUOUS
10
0.074533
20
3.40348
11
0.0753904
21
3.41574
0
LINE
8
BLACK
6
CONTINUOUS
10
0.0753904
20
3.41574
11
0.0779217
21
3.42953
0
LINE
8
BLACK
6
CONTINUOUS
10
0.0913983
20
3.3781
11
0.0946349
21
3.36576
0
LINE
8
BLACK
6
CONTINUOUS
10
0.0946349
20
3.36576
11
0.0992681
21
3.35388
0
LINE
8
BLACK
6
CONTINUOUS
10
0.0992681
20
3.35388
11
0.105236
21
3.34261
0
LINE
8
BLACK
6
CONTINUOUS
10
0.105236
20
3.34261
11
0.112461
21
3.3321
0
LINE
8
BLACK
6
CONTINUOUS
10
0.112461
20
3.3321
11
0.120845
21
3.32249
0
LINE
8
BLACK
6
CONTINUOUS
10
0.120845
20
3.32249
11
0.130279
21
3.3139
0
LINE
8
BLACK
6
CONTINUOUS
10
0.130279
20
3.3139
11
0.140637
21
3.30646
0
LINE
8
BLACK
6
CONTINUOUS
10
0.140637
20
3.30646
11
0.151782
21
3.30026
0
LINE
8
BLACK
6
CONTINUOUS
10
0.151782
20
3.30026
11
0.163566
21
3.29537
0
LINE
8
BLACK
6
CONTINUOUS
10
0.163566
20
3.29537
11
0.175832
21
3.29188
0
LINE
8
BLACK
6
CONTINUOUS
10
0.175832
20
3.29188
11
0.18842
21
3.28982
0
LINE
8
BLACK
6
CONTINUOUS
10
0.18842
20
3.28982
11
0.20116
21
3.28922
0
LINE
8
BLACK
6
CONTINUOUS
10
0.20116
20
3.28922
11
0.213885
21
3.29009
0
LINE
8
BLACK
6
CONTINUOUS
10
0.213885
20
3.29009
11
0.226426
21
3.29241
0
LINE
8
BLACK
6
CONTINUOUS
10
0.226426
20
3.29241
11
0.238617
21
3.29616
0
LINE
8
BLACK
6
CONTINUOUS
10
0.238617
20
3.29616
11
0.250296
21
3.30129
0
LINE
8
BLACK
6
CONTINUOUS
10
0.250296
20
3.30129
11
0.261309
21
3.30772
0
LINE
8
BLACK
6
CONTINUOUS
10
0.261309
20
3.30772
11
0.271509
21
3.31538
0
LINE
8
BLACK
6
CONTINUOUS
10
0.271509
20
3.31538
11
0.280761
21
3.32416
0
LINE
8
BLACK
6
CONTINUOUS
10
0.280761
20
3.32416
11
0.288942
21
3.33395
0
LINE
8
BLACK
6
CONTINUOUS
10
0.288942
20
3.33395
11
0.295945
21
3.34461
0
LINE
8
BLACK
6
CONTINUOUS
10
0.295945
20
3.34461
11
0.301676
21
3.356
0
LINE
8
BLACK
6
CONTINUOUS
10
0.301676
20
3.356
11
0.306059
21
3.36798
0
LINE
8
BLACK
6
CONTINUOUS
10
0.306059
20
3.36798
11
0.309036
21
3.38038
0
LINE
8
BLACK
6
CONTINUOUS
10
0.309036
20
3.38038
11
0.310569
21
3.39304
0
LINE
8
BLACK
6
CONTINUOUS
10
0.310569
20
3.39304
11
0.310787
21
3.4
0
LINE
8
BLACK
6
CONTINUOUS
10
0.310787
20
3.4
11
0.310053
21
3.41273
0
LINE
8
BLACK
6
CONTINUOUS
10
0.310053
20
3.41273
11
0.30786
21
3.4253
0
LINE
8
BLACK
6
CONTINUOUS
10
0.30786
20
3.4253
11
0.304238
21
3.43753
0
LINE
8
BLACK
6
CONTINUOUS
10
0.304238
20
3.43753
11
0.299234
21
3.44926
0
LINE
8
BLACK
6
CONTINUOUS
10
0.299234
20
3.44926
11
0.292914
21
3.46034
0
LINE
8
BLACK
6
CONTINUOUS
10
0.292914
20
3.46034
11
0.285363
21
3.47062
0
LINE
8
BLACK
6
CONTINUOUS
10
0.285363
20
3.47062
11
0.276681
21
3.47996
0
LINE
8
BLACK
6
CONTINUOUS
10
0.276681
20
3.47996
11
0.266982
21
3.48825
0
LINE
8
BLACK
6
CONTINUOUS
10
0.266982
20
3.48825
11
0.256395
21
3.49536
0
LINE
8
BLACK
6
CONTINUOUS
10
0.256395
20
3.49536
11
0.245061
21
3.50121
0
LINE
8
BLACK
6
CONTINUOUS
10
0.245061
20
3.50121
11
0.23313
21
3.50572
0
LINE
8
BLACK
6
CONTINUOUS
10
0.23313
20
3.50572
11
0.220759
21
3.50883
0
LINE
8
BLACK
6
CONTINUOUS
10
0.220759
20
3.50883
11
0.208114
21
3.51049
0
LINE
8
BLACK
6
CONTINUOUS
10
0.208114
20
3.51049
11
0.195361
21
3.51069
0
LINE
8
BLACK
6
CONTINUOUS
10
0.195361
20
3.51069
11
0.182669
21
3.50942
0
LINE
8
BLACK
6
CONTINUOUS
10
0.182669
20
3.50942
11
0.170207
21
3.50671
0
LINE
8
BLACK
6
CONTINUOUS
10
0.170207
20
3.50671
11
0.15814
21
3.50257
0
LINE
8
BLACK
6
CONTINUOUS
10
0.15814
20
3.50257
11
0.146628
21
3.49708
0
LINE
8
BLACK
6
CONTINUOUS
10
0.146628
20
3.49708
11
0.135823
21
3.49031
0
LINE
8
BLACK
6
CONTINUOUS
10
0.135823
20
3.49031
11
0.125869
21
3.48233
0
LINE
8
BLACK
6
CONTINUOUS
10
0.125869
20
3.48233
11
0.116897
21
3.47327
0
LINE
8
BLACK
6
CONTINUOUS
10
0.116897
20
3.47327
11
0.109027
21
3.46323
0
LINE
8
BLACK
6
CONTINUOUS
10
0.109027
20
3.46323
11
0.102363
21
3.45235
0
LINE
8
BLACK
6
CONTINUOUS
10
0.102363
20
3.45235
11
0.0969924
21
3.44078
0
LINE
8
BLACK
6
CONTINUOUS
10
0.0969924
20
3.44078
11
0.0929876
21
3.42867
0
LINE
8
BLACK
6
CONTINUOUS
10
0.0929876
20
3.42867
11
0.0904011
21
3.41618
0
LINE
8
BLACK
6
CONTINUOUS
10
0.0904011
20
3.41618
11
0.0892672
21
3.40348
0
LINE
8
BLACK
6
CONTINUOUS
10
0.0892672
20
3.40348
11
0.0896011
21
3.39073
0
LINE
8
BLACK
6
CONTINUOUS
10
0.0896011
20
3.39073
11
0.0913983
21
3.3781
0
LINE
8
BLACK
6
CONTINUOUS
10
2.87792
20
3.81694
11
2.88197
21
3.83036
0
LINE
8
BLACK
6
CONTINUOUS
10
2.88197
20
3.83036
11
2.8875
21
3.84325
0
LINE
8
BLACK
6
CONTINUOUS
10
2.8875
20
3.84325
11
2.89442
21
3.85544
0
LINE
8
BLACK
6
CONTINUOUS
10
2.89442
20
3.85544
11
2.90267
21
3.86678
0
LINE
8
BLACK
6
CONTINUOUS
10
2.90267
20
3.86678
11
2.91212
21
3.87714
0
LINE
8
BLACK
6
CONTINUOUS
10
2.91212
20
3.87714
11
2.92267
21
3.88638
0
LINE
8
BLACK
6
CONTINUOUS
10
2.92267
20
3.88638
11
2.93419
21
3.89438
0
LINE
8
BLACK
6
CONTINUOUS
10
2.93419
20
3.89438
11
2.94652
21
3.90105
0
LINE
8
BLACK
6
CONTINUOUS
10
2.94652
20
3.90105
11
2.95952
21
3.9063
0
LINE
8
BLACK
6
CONTINUOUS
10
2.95952
20
3.9063
11
2.97303
21
3.91007
0
LINE
8
BLACK
6
CONTINUOUS
10
2.97303
20
3.91007
11
2.98687
21
3.91231
0
LINE
8
BLACK
6
CONTINUOUS
10
2.98687
20
3.91231
11
3.00088
21
3.913
0
LINE
8
BLACK
6
CONTINUOUS
10
3.00088
20
3.913
11
3.01487
21
3.91212
0
LINE
8
BLACK
6
CONTINUOUS
10
3.01487
20
3.91212
11
3.02868
21
3.90968
0
LINE
8
BLACK
6
CONTINUOUS
10
3.02868
20
3.90968
11
3.04213
21
3.90572
0
LINE
8
BLACK
6
CONTINUOUS
10
3.04213
20
3.90572
11
3.05506
21
3.90029
0
LINE
8
BLACK
6
CONTINUOUS
10
3.05506
20
3.90029
11
3.0673
21
3.89345
0
LINE
8
BLACK
6
CONTINUOUS
10
3.0673
20
3.89345
11
3.0787
21
3.88529
0
LINE
8
BLACK
6
CONTINUOUS
10
3.0787
20
3.88529
11
3.08912
21
3.8759
0
LINE
8
BLACK
6
CONTINUOUS
10
3.08912
20
3.8759
11
3.09843
21
3.86542
0
LINE
8
BLACK
6
CONTINUOUS
10
3.09843
20
3.86542
11
3.10651
21
3.85396
0
LINE
8
BLACK
6
CONTINUOUS
10
3.10651
20
3.85396
11
3.11327
21
3.84167
0
LINE
8
BLACK
6
CONTINUOUS
10
3.11327
20
3.84167
11
3.11861
21
3.82871
0
LINE
8
BLACK
6
CONTINUOUS
10
3.11861
20
3.82871
11
3.12248
21
3.81523
0
LINE
8
BLACK
6
CONTINUOUS
10
3.12248
20
3.81523
11
3.12482
21
3.8014
0
LINE
8
BLACK
6
CONTINUOUS
10
3.12482
20
3.8014
11
3.1256
21
3.7874
0
LINE
8
BLACK
6
CONTINUOUS
10
3.1256
20
3.7874
11
3.12555
21
3.78389
0
LINE
8
BLACK
6
CONTINUOUS
10
3.12555
20
3.78389
11
3.12438
21
3.76992
0
LINE
8
BLACK
6
CONTINUOUS
10
3.12438
20
3.76992
11
3.12165
21
3.75617
0
LINE
8
BLACK
6
CONTINUOUS
10
3.12165
20
3.75617
11
3.11741
21
3.7428
0
LINE
8
BLACK
6
CONTINUOUS
10
3.11741
20
3.7428
11
3.11171
21
3.72999
0
LINE
8
BLACK
6
CONTINUOUS
10
3.11171
20
3.72999
11
3.10461
21
3.7179
0
LINE
8
BLACK
6
CONTINUOUS
10
3.10461
20
3.7179
11
3.09622
21
3.70667
0
LINE
8
BLACK
6
CONTINUOUS
10
3.09622
20
3.70667
11
3.08662
21
3.69645
0
LINE
8
BLACK
6
CONTINUOUS
10
3.08662
20
3.69645
11
3.07594
21
3.68736
0
LINE
8
BLACK
6
CONTINUOUS
10
3.07594
20
3.68736
11
3.06431
21
3.67952
0
LINE
8
BLACK
6
CONTINUOUS
10
3.06431
20
3.67952
11
3.05189
21
3.67302
0
LINE
8
BLACK
6
CONTINUOUS
10
3.05189
20
3.67302
11
3.03881
21
3.66795
0
LINE
8
BLACK
6
CONTINUOUS
10
3.03881
20
3.66795
11
3.02526
21
3.66437
0
LINE
8
BLACK
6
CONTINUOUS
10
3.02526
20
3.66437
11
3.01138
21
3.66232
0
LINE
8
BLACK
6
CONTINUOUS
10
3.01138
20
3.66232
11
2.99737
21
3.66183
0
LINE
8
BLACK
6
CONTINUOUS
10
2.99737
20
3.66183
11
2.98339
21
3.6629
0
LINE
8
BLACK
6
CONTINUOUS
10
2.98339
20
3.6629
11
2.96961
21
3.66553
0
LINE
8
BLACK
6
CONTINUOUS
10
2.96961
20
3.66553
11
2.95622
21
3.66968
0
LINE
8
BLACK
6
CONTINUOUS
10
2.95622
20
3.66968
11
2.94337
21
3.67529
0
LINE
8
BLACK
6
CONTINUOUS
10
2.94337
20
3.67529
11
2.93123
21
3.6823
0
LINE
8
BLACK
6
CONTINUOUS
10
2.93123
20
3.6823
11
2.91994
21
3.69063
0
LINE
8
BLACK
6
CONTINUOUS
10
2.91994
20
3.69063
11
2.90965
21
3.70015
0
LINE
8
BLACK
6
CONTINUOUS
10
2.90965
20
3.70015
11
2.90049
21
3.71077
0
LINE
8
BLACK
6
CONTINUOUS
10
2.90049
20
3.71077
11
2.89257
21
3.72234
0
LINE
8
BLACK
6
CONTINUOUS
10
2.89257
20
3.72234
11
2.88598
21
3.73472
0
LINE
8
BLACK
6
CONTINUOUS
10
2.88598
20
3.73472
11
2.88082
21
3.74776
0
LINE
8
BLACK
6
CONTINUOUS
10
2.88082
20
3.74776
11
2.87714
21
3.76129
0
LINE
8
BLACK
6
CONTINUOUS
10
2.87714
20
3.76129
11
2.875
21
3.77515
0
LINE
8
BLACK
6
CONTINUOUS
10
2.875
20
3.77515
11
2.87441
21
3.78916
0
LINE
8
BLACK
6
CONTINUOUS
10
2.87441
20
3.78916
11
2.87453
21
3.79088
0
LINE
8
BLACK
6
CONTINUOUS
10
2.87453
20
3.79088
11
2.87539
21
3.80314
0
LINE
8
BLACK
6
CONTINUOUS
10
2.87539
20
3.80314
11
2.87792
21
3.81694
0
LINE
8
BLACK
6
CONTINUOUS
10
2.8914
20
3.7655
11
2.89463
21
3.75317
0
LINE
8
BLACK
6
CONTINUOUS
10
2.89463
20
3.75317
11
2.89927
21
3.74128
0
LINE
8
BLACK
6
CONTINUOUS
10
2.89927
20
3.74128
11
2.90524
21
3.73001
0
LINE
8
BLACK
6
CONTINUOUS
10
2.90524
20
3.73001
11
2.91246
21
3.7195
0
LINE
8
BLACK
6
CONTINUOUS
10
2.91246
20
3.7195
11
2.92085
21
3.70989
0
LINE
8
BLACK
6
CONTINUOUS
10
2.92085
20
3.70989
11
2.93028
21
3.7013
0
LINE
8
BLACK
6
CONTINUOUS
10
2.93028
20
3.7013
11
2.94064
21
3.69386
0
LINE
8
BLACK
6
CONTINUOUS
10
2.94064
20
3.69386
11
2.95178
21
3.68766
0
LINE
8
BLACK
6
CONTINUOUS
10
2.95178
20
3.68766
11
2.96357
21
3.68278
0
LINE
8
BLACK
6
CONTINUOUS
10
2.96357
20
3.68278
11
2.97583
21
3.67928
0
LINE
8
BLACK
6
CONTINUOUS
10
2.97583
20
3.67928
11
2.98842
21
3.67722
0
LINE
8
BLACK
6
CONTINUOUS
10
2.98842
20
3.67722
11
3.00116
21
3.67662
0
LINE
8
BLACK
6
CONTINUOUS
10
3.00116
20
3.67662
11
3.01389
21
3.67749
0
LINE
8
BLACK
6
CONTINUOUS
10
3.01389
20
3.67749
11
3.02643
21
3.67981
0
LINE
8
BLACK
6
CONTINUOUS
10
3.02643
20
3.67981
11
3.03862
21
3.68356
0
LINE
8
BLACK
6
CONTINUOUS
10
3.03862
20
3.68356
11
3.0503
21
3.68869
0
LINE
8
BLACK
6
CONTINUOUS
10
3.0503
20
3.68869
11
3.06131
21
3.69512
0
LINE
8
BLACK
6
CONTINUOUS
10
3.06131
20
3.69512
11
3.07151
21
3.70278
0
LINE
8
BLACK
6
CONTINUOUS
10
3.07151
20
3.70278
11
3.08076
21
3.71156
0
LINE
8
BLACK
6
CONTINUOUS
10
3.08076
20
3.71156
11
3.08894
21
3.72135
0
LINE
8
BLACK
6
CONTINUOUS
10
3.08894
20
3.72135
11
3.09594
21
3.73201
0
LINE
8
BLACK
6
CONTINUOUS
10
3.09594
20
3.73201
11
3.10168
21
3.7434
0
LINE
8
BLACK
6
CONTINUOUS
10
3.10168
20
3.7434
11
3.10606
21
3.75538
0
LINE
8
BLACK
6
CONTINUOUS
10
3.10606
20
3.75538
11
3.10904
21
3.76778
0
LINE
8
BLACK
6
CONTINUOUS
10
3.10904
20
3.76778
11
3.11057
21
3.78045
0
LINE
8
BLACK
6
CONTINUOUS
10
3.11057
20
3.78045
11
3.11079
21
3.7874
0
LINE
8
BLACK
6
CONTINUOUS
10
3.11079
20
3.7874
11
3.11005
21
3.80014
0
LINE
8
BLACK
6
CONTINUOUS
10
3.11005
20
3.80014
11
3.10786
21
3.8127
0
LINE
8
BLACK
6
CONTINUOUS
10
3.10786
20
3.8127
11
3.10424
21
3.82493
0
LINE
8
BLACK
6
CONTINUOUS
10
3.10424
20
3.82493
11
3.09923
21
3.83666
0
LINE
8
BLACK
6
CONTINUOUS
10
3.09923
20
3.83666
11
3.09291
21
3.84774
0
LINE
8
BLACK
6
CONTINUOUS
10
3.09291
20
3.84774
11
3.08536
21
3.85802
0
LINE
8
BLACK
6
CONTINUOUS
10
3.08536
20
3.85802
11
3.07668
21
3.86736
0
LINE
8
BLACK
6
CONTINUOUS
10
3.07668
20
3.86736
11
3.06698
21
3.87565
0
LINE
8
BLACK
6
CONTINUOUS
10
3.06698
20
3.87565
11
3.0564
21
3.88276
0
LINE
8
BLACK
6
CONTINUOUS
10
3.0564
20
3.88276
11
3.04506
21
3.88861
0
LINE
8
BLACK
6
CONTINUOUS
10
3.04506
20
3.88861
11
3.03313
21
3.89312
0
LINE
8
BLACK
6
CONTINUOUS
10
3.03313
20
3.89312
11
3.02076
21
3.89623
0
LINE
8
BLACK
6
CONTINUOUS
10
3.02076
20
3.89623
11
3.00811
21
3.89789
0
LINE
8
BLACK
6
CONTINUOUS
10
3.00811
20
3.89789
11
2.99536
21
3.89809
0
LINE
8
BLACK
6
CONTINUOUS
10
2.99536
20
3.89809
11
2.98267
21
3.89683
0
LINE
8
BLACK
6
CONTINUOUS
10
2.98267
20
3.89683
11
2.97021
21
3.89411
0
LINE
8
BLACK
6
CONTINUOUS
10
2.97021
20
3.89411
11
2.95814
21
3.88998
0
LINE
8
BLACK
6
CONTINUOUS
10
2.95814
20
3.88998
11
2.94663
21
3.88449
0
LINE
8
BLACK
6
CONTINUOUS
10
2.94663
20
3.88449
11
2.93582
21
3.87771
0
LINE
8
BLACK
6
CONTINUOUS
10
2.93582
20
3.87771
11
2.92587
21
3.86973
0
LINE
8
BLACK
6
CONTINUOUS
10
2.92587
20
3.86973
11
2.9169
21
3.86067
0
LINE
8
BLACK
6
CONTINUOUS
10
2.9169
20
3.86067
11
2.90903
21
3.85063
0
LINE
8
BLACK
6
CONTINUOUS
10
2.90903
20
3.85063
11
2.90236
21
3.83975
0
LINE
8
BLACK
6
CONTINUOUS
10
2.90236
20
3.83975
11
2.89699
21
3.82819
0
LINE
8
BLACK
6
CONTINUOUS
10
2.89699
20
3.82819
11
2.89299
21
3.81608
0
LINE
8
BLACK
6
CONTINUOUS
10
2.89299
20
3.81608
11
2.8904
21
3.80359
0
LINE
8
BLACK
6
CONTINUOUS
10
2.8904
20
3.80359
11
2.88927
21
3.79088
0
LINE
8
BLACK
6
CONTINUOUS
10
2.88927
20
3.79088
11
2.8896
21
3.77813
0
LINE
8
BLACK
6
CONTINUOUS
10
2.8896
20
3.77813
11
2.8914
21
3.7655
  0
ENDSEC
  0
EOF
