  0
SECTION
  2
HEADER
  9
$ANGBASE
  50
0.0
  9
$ANGDIR
  70
1
  9
$MEASUREMENT
  70
0
  0
ENDSEC
  0
SECTION
  2
TABLES
  0
TABLE
  2
LTYPE
  70
4
  0
LTYPE
  5
40F
  2
CONTINUOUS
  70
0
  3
Solid line
  72
65
  73
0
  40
0.0
  0
LTYPE
  5
410
  2
DASHDOT
 70
0
  3
Dash Dot ____ _ ____ _
 72
65
 73
4
 40
2.0
 49
1.25
 49
-0.25
 49
0.25
 49
-0.25
  0
LTYPE
  5
411
  2
DASHED
 70
0
  3
Dashed __ __ __ __ __
 72
65
 73
2
 40
0.75
 49
0.5
 49
-0.25
  0
LTYPE
  5
43B
  2
DOTTED
 70
0
  3
Dotted .  .  .  .
 72
65
 73
2
 40
0.2
 49
0.0
 49
-0.2
  0
ENDTAB
  0
TABLE
  2
STYLE
  70
4
  0
STYLE
  2
KICAD
  70
0
  40
0
  41
1
  42
1
  50
0
  71
0
  3
isocp.shx
  0
STYLE
  2
KICADB
  70
0
  40
0
  41
1
  42
1
  50
0
  71
0
  3
isocp.shx
  0
STYLE
  2
KICADI
  70
0
  40
0
  41
1
  42
1
  50
15
  71
0
  3
isocp.shx
  0
STYLE
  2
KICADBI
  70
0
  40
0
  41
1
  42
1
  50
15
  71
0
  3
isocp.shx
  0
ENDTAB
  0
TABLE
  2
LAYER
  70
1
  0
LAYER
  2
BLACK
  70
0
  62
7
  6
CONTINUOUS
  0
ENDTAB
  0
ENDSEC
  0
SECTION
  2
ENTITIES
0
LINE
8
BLACK
6
CONTINUOUS
10
2.02747
20
0.0107213
11
2.02677
21
0.0104331
0
LINE
8
BLACK
6
CONTINUOUS
10
2.02677
20
0.0104331
11
0.873228
21
0.0104331
0
LINE
8
BLACK
6
CONTINUOUS
10
0.873228
20
0.0104331
11
0.872532
21
0.0107213
0
LINE
8
BLACK
6
CONTINUOUS
10
0.872532
20
0.0107213
11
0.872244
21
0.0114173
0
LINE
8
BLACK
6
CONTINUOUS
10
0.872244
20
0.0114173
11
0.872244
21
1.51102
0
LINE
8
BLACK
6
CONTINUOUS
10
0.872244
20
1.51102
11
0.872532
21
1.51172
0
LINE
8
BLACK
6
CONTINUOUS
10
0.872532
20
1.51172
11
0.873228
21
1.51201
0
LINE
8
BLACK
6
CONTINUOUS
10
0.873228
20
1.51201
11
2.02677
21
1.51201
0
LINE
8
BLACK
6
CONTINUOUS
10
2.02677
20
1.51201
11
2.02747
21
1.51172
0
LINE
8
BLACK
6
CONTINUOUS
10
2.02747
20
1.51172
11
2.02776
21
1.51102
0
LINE
8
BLACK
6
CONTINUOUS
10
2.02776
20
1.51102
11
2.02776
21
0.0114173
0
LINE
8
BLACK
6
CONTINUOUS
10
2.02776
20
0.0114173
11
2.02747
21
0.0107213
0
LINE
8
BLACK
6
CONTINUOUS
10
0.874213
20
0.460433
11
0.874213
21
0.0124016
0
LINE
8
BLACK
6
CONTINUOUS
10
0.874213
20
0.0124016
11
2.02579
21
0.0124016
0
LINE
8
BLACK
6
CONTINUOUS
10
2.02579
20
0.0124016
11
2.02579
21
0.460433
0
LINE
8
BLACK
6
CONTINUOUS
10
2.02579
20
0.460433
11
0.874213
21
0.460433
0
LINE
8
BLACK
6
CONTINUOUS
10
0.874213
20
1.06004
11
0.874213
21
0.462402
0
LINE
8
BLACK
6
CONTINUOUS
10
0.874213
20
0.462402
11
2.02579
21
0.462402
0
LINE
8
BLACK
6
CONTINUOUS
10
2.02579
20
0.462402
11
2.02579
21
1.06004
0
LINE
8
BLACK
6
CONTINUOUS
10
2.02579
20
1.06004
11
0.874213
21
1.06004
0
LINE
8
BLACK
6
CONTINUOUS
10
0.874213
20
1.51004
11
0.874213
21
1.06201
0
LINE
8
BLACK
6
CONTINUOUS
10
0.874213
20
1.06201
11
2.02579
21
1.06201
0
LINE
8
BLACK
6
CONTINUOUS
10
2.02579
20
1.06201
11
2.02579
21
1.51004
0
LINE
8
BLACK
6
CONTINUOUS
10
2.02579
20
1.51004
11
0.874213
21
1.51004
0
LINE
8
BLACK
6
CONTINUOUS
10
2.51131
20
1.32509
11
2.51102
21
1.32579
0
LINE
8
BLACK
6
CONTINUOUS
10
2.51102
20
1.32579
11
2.51102
21
1.42421
0
LINE
8
BLACK
6
CONTINUOUS
10
2.51102
20
1.42421
11
2.51131
21
1.42491
0
LINE
8
BLACK
6
CONTINUOUS
10
2.51131
20
1.42491
11
2.51201
21
1.4252
0
LINE
8
BLACK
6
CONTINUOUS
10
2.51201
20
1.4252
11
2.63799
21
1.4252
0
LINE
8
BLACK
6
CONTINUOUS
10
2.63799
20
1.4252
11
2.63869
21
1.42491
0
LINE
8
BLACK
6
CONTINUOUS
10
2.63869
20
1.42491
11
2.63898
21
1.42421
0
LINE
8
BLACK
6
CONTINUOUS
10
2.63898
20
1.42421
11
2.63898
21
1.32579
0
LINE
8
BLACK
6
CONTINUOUS
10
2.63898
20
1.32579
11
2.63869
21
1.32509
0
LINE
8
BLACK
6
CONTINUOUS
10
2.63869
20
1.32509
11
2.63799
21
1.3248
0
LINE
8
BLACK
6
CONTINUOUS
10
2.63799
20
1.3248
11
2.51201
21
1.3248
0
LINE
8
BLACK
6
CONTINUOUS
10
2.51201
20
1.3248
11
2.51131
21
1.32509
0
LINE
8
BLACK
6
CONTINUOUS
10
2.51299
20
1.42323
11
2.51299
21
1.32677
0
LINE
8
BLACK
6
CONTINUOUS
10
2.51299
20
1.32677
11
2.63701
21
1.32677
0
LINE
8
BLACK
6
CONTINUOUS
10
2.63701
20
1.32677
11
2.63701
21
1.42323
0
LINE
8
BLACK
6
CONTINUOUS
10
2.63701
20
1.42323
11
2.51299
21
1.42323
0
LINE
8
BLACK
6
CONTINUOUS
10
2.35816
20
1.90344
11
2.35787
21
1.90413
0
LINE
8
BLACK
6
CONTINUOUS
10
2.35787
20
1.90413
11
2.35787
21
2.04587
0
LINE
8
BLACK
6
CONTINUOUS
10
2.35787
20
2.04587
11
2.35816
21
2.04656
0
LINE
8
BLACK
6
CONTINUOUS
10
2.35816
20
2.04656
11
2.35886
21
2.04685
0
LINE
8
BLACK
6
CONTINUOUS
10
2.35886
20
2.04685
11
2.59114
21
2.04685
0
LINE
8
BLACK
6
CONTINUOUS
10
2.59114
20
2.04685
11
2.59184
21
2.04656
0
LINE
8
BLACK
6
CONTINUOUS
10
2.59184
20
2.04656
11
2.59213
21
2.04587
0
LINE
8
BLACK
6
CONTINUOUS
10
2.59213
20
2.04587
11
2.59213
21
1.90413
0
LINE
8
BLACK
6
CONTINUOUS
10
2.59213
20
1.90413
11
2.59184
21
1.90344
0
LINE
8
BLACK
6
CONTINUOUS
10
2.59184
20
1.90344
11
2.59114
21
1.90315
0
LINE
8
BLACK
6
CONTINUOUS
10
2.59114
20
1.90315
11
2.35886
21
1.90315
0
LINE
8
BLACK
6
CONTINUOUS
10
2.35886
20
1.90315
11
2.35816
21
1.90344
0
LINE
8
BLACK
6
CONTINUOUS
10
2.35984
20
2.04488
11
2.35984
21
1.90512
0
LINE
8
BLACK
6
CONTINUOUS
10
2.35984
20
1.90512
11
2.59016
21
1.90512
0
LINE
8
BLACK
6
CONTINUOUS
10
2.59016
20
1.90512
11
2.59016
21
2.04488
0
LINE
8
BLACK
6
CONTINUOUS
10
2.59016
20
2.04488
11
2.35984
21
2.04488
0
LINE
8
BLACK
6
CONTINUOUS
10
2.40245
20
2.093
11
2.40217
21
2.0937
0
LINE
8
BLACK
6
CONTINUOUS
10
2.40217
20
2.0937
11
2.40217
21
2.3063
0
LINE
8
BLACK
6
CONTINUOUS
10
2.40217
20
2.3063
11
2.40245
21
2.307
0
LINE
8
BLACK
6
CONTINUOUS
10
2.40245
20
2.307
11
2.40315
21
2.30728
0
LINE
8
BLACK
6
CONTINUOUS
10
2.40315
20
2.30728
11
2.69685
21
2.30728
0
LINE
8
BLACK
6
CONTINUOUS
10
2.69685
20
2.30728
11
2.69755
21
2.307
0
LINE
8
BLACK
6
CONTINUOUS
10
2.69755
20
2.307
11
2.69783
21
2.3063
0
LINE
8
BLACK
6
CONTINUOUS
10
2.69783
20
2.3063
11
2.69783
21
2.0937
0
LINE
8
BLACK
6
CONTINUOUS
10
2.69783
20
2.0937
11
2.69755
21
2.093
0
LINE
8
BLACK
6
CONTINUOUS
10
2.69755
20
2.093
11
2.69685
21
2.09272
0
LINE
8
BLACK
6
CONTINUOUS
10
2.69685
20
2.09272
11
2.40315
21
2.09272
0
LINE
8
BLACK
6
CONTINUOUS
10
2.40315
20
2.09272
11
2.40245
21
2.093
0
LINE
8
BLACK
6
CONTINUOUS
10
2.40413
20
2.30531
11
2.40413
21
2.09469
0
LINE
8
BLACK
6
CONTINUOUS
10
2.40413
20
2.09469
11
2.69587
21
2.09469
0
LINE
8
BLACK
6
CONTINUOUS
10
2.69587
20
2.09469
11
2.69587
21
2.30531
0
LINE
8
BLACK
6
CONTINUOUS
10
2.69587
20
2.30531
11
2.40413
21
2.30531
0
LINE
8
BLACK
6
CONTINUOUS
10
2.71339
20
2.44114
11
2.71339
21
2.30886
0
LINE
8
BLACK
6
CONTINUOUS
10
2.71339
20
2.30886
11
2.7131
21
2.30816
0
LINE
8
BLACK
6
CONTINUOUS
10
2.7131
20
2.30816
11
2.7124
21
2.30787
0
LINE
8
BLACK
6
CONTINUOUS
10
2.7124
20
2.30787
11
2.6376
21
2.30787
0
LINE
8
BLACK
6
CONTINUOUS
10
2.6376
20
2.30787
11
2.6375
21
2.30791
0
LINE
8
BLACK
6
CONTINUOUS
10
2.6375
20
2.30791
11
2.6374
21
2.30787
0
LINE
8
BLACK
6
CONTINUOUS
10
2.6374
20
2.30787
11
2.5626
21
2.30787
0
LINE
8
BLACK
6
CONTINUOUS
10
2.5626
20
2.30787
11
2.5619
21
2.30816
0
LINE
8
BLACK
6
CONTINUOUS
10
2.5619
20
2.30816
11
2.56161
21
2.30886
0
LINE
8
BLACK
6
CONTINUOUS
10
2.56161
20
2.30886
11
2.56161
21
2.44114
0
LINE
8
BLACK
6
CONTINUOUS
10
2.56161
20
2.44114
11
2.5619
21
2.44184
0
LINE
8
BLACK
6
CONTINUOUS
10
2.5619
20
2.44184
11
2.5626
21
2.44213
0
LINE
8
BLACK
6
CONTINUOUS
10
2.5626
20
2.44213
11
2.6374
21
2.44213
0
LINE
8
BLACK
6
CONTINUOUS
10
2.6374
20
2.44213
11
2.6375
21
2.44209
0
LINE
8
BLACK
6
CONTINUOUS
10
2.6375
20
2.44209
11
2.6376
21
2.44213
0
LINE
8
BLACK
6
CONTINUOUS
10
2.6376
20
2.44213
11
2.7124
21
2.44213
0
LINE
8
BLACK
6
CONTINUOUS
10
2.7124
20
2.44213
11
2.7131
21
2.44184
0
LINE
8
BLACK
6
CONTINUOUS
10
2.7131
20
2.44184
11
2.71339
21
2.44114
0
LINE
8
BLACK
6
CONTINUOUS
10
2.63858
20
2.44016
11
2.63858
21
2.30984
0
LINE
8
BLACK
6
CONTINUOUS
10
2.63858
20
2.30984
11
2.71142
21
2.30984
0
LINE
8
BLACK
6
CONTINUOUS
10
2.71142
20
2.30984
11
2.71142
21
2.44016
0
LINE
8
BLACK
6
CONTINUOUS
10
2.71142
20
2.44016
11
2.63858
21
2.44016
0
LINE
8
BLACK
6
CONTINUOUS
10
2.56358
20
2.44016
11
2.56358
21
2.30984
0
LINE
8
BLACK
6
CONTINUOUS
10
2.56358
20
2.30984
11
2.63642
21
2.30984
0
LINE
8
BLACK
6
CONTINUOUS
10
2.63642
20
2.30984
11
2.63642
21
2.44016
0
LINE
8
BLACK
6
CONTINUOUS
10
2.63642
20
2.44016
11
2.56358
21
2.44016
0
LINE
8
BLACK
6
CONTINUOUS
10
2.39566
20
2.3119
11
2.39537
21
2.3126
0
LINE
8
BLACK
6
CONTINUOUS
10
2.39537
20
2.3126
11
2.39537
21
2.3874
0
LINE
8
BLACK
6
CONTINUOUS
10
2.39537
20
2.3874
11
2.39566
21
2.3881
0
LINE
8
BLACK
6
CONTINUOUS
10
2.39566
20
2.3881
11
2.39636
21
2.38839
0
LINE
8
BLACK
6
CONTINUOUS
10
2.39636
20
2.38839
11
2.52864
21
2.38839
0
LINE
8
BLACK
6
CONTINUOUS
10
2.52864
20
2.38839
11
2.52934
21
2.3881
0
LINE
8
BLACK
6
CONTINUOUS
10
2.52934
20
2.3881
11
2.52963
21
2.3874
0
LINE
8
BLACK
6
CONTINUOUS
10
2.52963
20
2.3874
11
2.52963
21
2.3126
0
LINE
8
BLACK
6
CONTINUOUS
10
2.52963
20
2.3126
11
2.52934
21
2.3119
0
LINE
8
BLACK
6
CONTINUOUS
10
2.52934
20
2.3119
11
2.52864
21
2.31161
0
LINE
8
BLACK
6
CONTINUOUS
10
2.52864
20
2.31161
11
2.39636
21
2.31161
0
LINE
8
BLACK
6
CONTINUOUS
10
2.39636
20
2.31161
11
2.39566
21
2.3119
0
LINE
8
BLACK
6
CONTINUOUS
10
2.39734
20
2.38642
11
2.39734
21
2.31358
0
LINE
8
BLACK
6
CONTINUOUS
10
2.39734
20
2.31358
11
2.52766
21
2.31358
0
LINE
8
BLACK
6
CONTINUOUS
10
2.52766
20
2.31358
11
2.52766
21
2.38642
0
LINE
8
BLACK
6
CONTINUOUS
10
2.52766
20
2.38642
11
2.39734
21
2.38642
0
LINE
8
BLACK
6
CONTINUOUS
10
2.4369
20
2.39566
11
2.43661
21
2.39636
0
LINE
8
BLACK
6
CONTINUOUS
10
2.43661
20
2.39636
11
2.43661
21
2.52864
0
LINE
8
BLACK
6
CONTINUOUS
10
2.43661
20
2.52864
11
2.4369
21
2.52934
0
LINE
8
BLACK
6
CONTINUOUS
10
2.4369
20
2.52934
11
2.4376
21
2.52963
0
LINE
8
BLACK
6
CONTINUOUS
10
2.4376
20
2.52963
11
2.5124
21
2.52963
0
LINE
8
BLACK
6
CONTINUOUS
10
2.5124
20
2.52963
11
2.5131
21
2.52934
0
LINE
8
BLACK
6
CONTINUOUS
10
2.5131
20
2.52934
11
2.51339
21
2.52864
0
LINE
8
BLACK
6
CONTINUOUS
10
2.51339
20
2.52864
11
2.51339
21
2.39636
0
LINE
8
BLACK
6
CONTINUOUS
10
2.51339
20
2.39636
11
2.5131
21
2.39566
0
LINE
8
BLACK
6
CONTINUOUS
10
2.5131
20
2.39566
11
2.5124
21
2.39537
0
LINE
8
BLACK
6
CONTINUOUS
10
2.5124
20
2.39537
11
2.4376
21
2.39537
0
LINE
8
BLACK
6
CONTINUOUS
10
2.4376
20
2.39537
11
2.4369
21
2.39566
0
LINE
8
BLACK
6
CONTINUOUS
10
2.43858
20
2.52766
11
2.43858
21
2.39734
0
LINE
8
BLACK
6
CONTINUOUS
10
2.43858
20
2.39734
11
2.51142
21
2.39734
0
LINE
8
BLACK
6
CONTINUOUS
10
2.51142
20
2.39734
11
2.51142
21
2.52766
0
LINE
8
BLACK
6
CONTINUOUS
10
2.51142
20
2.52766
11
2.43858
21
2.52766
0
LINE
8
BLACK
6
CONTINUOUS
10
2.3369
20
2.42066
11
2.33661
21
2.42136
0
LINE
8
BLACK
6
CONTINUOUS
10
2.33661
20
2.42136
11
2.33661
21
2.55364
0
LINE
8
BLACK
6
CONTINUOUS
10
2.33661
20
2.55364
11
2.3369
21
2.55434
0
LINE
8
BLACK
6
CONTINUOUS
10
2.3369
20
2.55434
11
2.3376
21
2.55463
0
LINE
8
BLACK
6
CONTINUOUS
10
2.3376
20
2.55463
11
2.4124
21
2.55463
0
LINE
8
BLACK
6
CONTINUOUS
10
2.4124
20
2.55463
11
2.4131
21
2.55434
0
LINE
8
BLACK
6
CONTINUOUS
10
2.4131
20
2.55434
11
2.41339
21
2.55364
0
LINE
8
BLACK
6
CONTINUOUS
10
2.41339
20
2.55364
11
2.41339
21
2.42136
0
LINE
8
BLACK
6
CONTINUOUS
10
2.41339
20
2.42136
11
2.4131
21
2.42066
0
LINE
8
BLACK
6
CONTINUOUS
10
2.4131
20
2.42066
11
2.4124
21
2.42037
0
LINE
8
BLACK
6
CONTINUOUS
10
2.4124
20
2.42037
11
2.3376
21
2.42037
0
LINE
8
BLACK
6
CONTINUOUS
10
2.3376
20
2.42037
11
2.3369
21
2.42066
0
LINE
8
BLACK
6
CONTINUOUS
10
2.33858
20
2.55266
11
2.33858
21
2.42234
0
LINE
8
BLACK
6
CONTINUOUS
10
2.33858
20
2.42234
11
2.41142
21
2.42234
0
LINE
8
BLACK
6
CONTINUOUS
10
2.41142
20
2.42234
11
2.41142
21
2.55266
0
LINE
8
BLACK
6
CONTINUOUS
10
2.41142
20
2.55266
11
2.33858
21
2.55266
0
LINE
8
BLACK
6
CONTINUOUS
10
1.96052
20
2.96052
11
1.96024
21
2.96122
0
LINE
8
BLACK
6
CONTINUOUS
10
1.96024
20
2.96122
11
1.96024
21
3.48878
0
LINE
8
BLACK
6
CONTINUOUS
10
1.96024
20
3.48878
11
1.96052
21
3.48948
0
LINE
8
BLACK
6
CONTINUOUS
10
1.96052
20
3.48948
11
1.96122
21
3.48976
0
LINE
8
BLACK
6
CONTINUOUS
10
1.96122
20
3.48976
11
2.48878
21
3.48976
0
LINE
8
BLACK
6
CONTINUOUS
10
2.48878
20
3.48976
11
2.48948
21
3.48948
0
LINE
8
BLACK
6
CONTINUOUS
10
2.48948
20
3.48948
11
2.48976
21
3.48878
0
LINE
8
BLACK
6
CONTINUOUS
10
2.48976
20
3.48878
11
2.48976
21
2.96122
0
LINE
8
BLACK
6
CONTINUOUS
10
2.48976
20
2.96122
11
2.48948
21
2.96052
0
LINE
8
BLACK
6
CONTINUOUS
10
2.48948
20
2.96052
11
2.48878
21
2.96024
0
LINE
8
BLACK
6
CONTINUOUS
10
2.48878
20
2.96024
11
1.96122
21
2.96024
0
LINE
8
BLACK
6
CONTINUOUS
10
1.96122
20
2.96024
11
1.96052
21
2.96052
0
LINE
8
BLACK
6
CONTINUOUS
10
1.9622
20
3.4878
11
1.9622
21
2.9622
0
LINE
8
BLACK
6
CONTINUOUS
10
1.9622
20
2.9622
11
2.4878
21
2.9622
0
LINE
8
BLACK
6
CONTINUOUS
10
2.4878
20
2.9622
11
2.4878
21
3.4878
0
LINE
8
BLACK
6
CONTINUOUS
10
2.4878
20
3.4878
11
1.9622
21
3.4878
0
LINE
8
BLACK
6
CONTINUOUS
10
1.36987
20
3.29291
11
1.36959
21
3.2936
0
LINE
8
BLACK
6
CONTINUOUS
10
1.36959
20
3.2936
11
1.36959
21
3.4314
0
LINE
8
BLACK
6
CONTINUOUS
10
1.36959
20
3.4314
11
1.36987
21
3.43209
0
LINE
8
BLACK
6
CONTINUOUS
10
1.36987
20
3.43209
11
1.37057
21
3.43238
0
LINE
8
BLACK
6
CONTINUOUS
10
1.37057
20
3.43238
11
1.50443
21
3.43238
0
LINE
8
BLACK
6
CONTINUOUS
10
1.50443
20
3.43238
11
1.50513
21
3.43209
0
LINE
8
BLACK
6
CONTINUOUS
10
1.50513
20
3.43209
11
1.50541
21
3.4314
0
LINE
8
BLACK
6
CONTINUOUS
10
1.50541
20
3.4314
11
1.50541
21
3.2936
0
LINE
8
BLACK
6
CONTINUOUS
10
1.50541
20
3.2936
11
1.50513
21
3.29291
0
LINE
8
BLACK
6
CONTINUOUS
10
1.50513
20
3.29291
11
1.50443
21
3.29262
0
LINE
8
BLACK
6
CONTINUOUS
10
1.50443
20
3.29262
11
1.37057
21
3.29262
0
LINE
8
BLACK
6
CONTINUOUS
10
1.37057
20
3.29262
11
1.36987
21
3.29291
0
LINE
8
BLACK
6
CONTINUOUS
10
1.37156
20
3.43041
11
1.37156
21
3.29459
0
LINE
8
BLACK
6
CONTINUOUS
10
1.37156
20
3.29459
11
1.50344
21
3.29459
0
LINE
8
BLACK
6
CONTINUOUS
10
1.50344
20
3.29459
11
1.50344
21
3.43041
0
LINE
8
BLACK
6
CONTINUOUS
10
1.50344
20
3.43041
11
1.37156
21
3.43041
0
LINE
8
BLACK
6
CONTINUOUS
10
1.08424
20
3.29291
11
1.08396
21
3.2936
0
LINE
8
BLACK
6
CONTINUOUS
10
1.08396
20
3.2936
11
1.08396
21
3.4314
0
LINE
8
BLACK
6
CONTINUOUS
10
1.08396
20
3.4314
11
1.08424
21
3.43209
0
LINE
8
BLACK
6
CONTINUOUS
10
1.08424
20
3.43209
11
1.08494
21
3.43238
0
LINE
8
BLACK
6
CONTINUOUS
10
1.08494
20
3.43238
11
1.2188
21
3.43238
0
LINE
8
BLACK
6
CONTINUOUS
10
1.2188
20
3.43238
11
1.2195
21
3.43209
0
LINE
8
BLACK
6
CONTINUOUS
10
1.2195
20
3.43209
11
1.21978
21
3.4314
0
LINE
8
BLACK
6
CONTINUOUS
10
1.21978
20
3.4314
11
1.21978
21
3.2936
0
LINE
8
BLACK
6
CONTINUOUS
10
1.21978
20
3.2936
11
1.2195
21
3.29291
0
LINE
8
BLACK
6
CONTINUOUS
10
1.2195
20
3.29291
11
1.2188
21
3.29262
0
LINE
8
BLACK
6
CONTINUOUS
10
1.2188
20
3.29262
11
1.08494
21
3.29262
0
LINE
8
BLACK
6
CONTINUOUS
10
1.08494
20
3.29262
11
1.08424
21
3.29291
0
LINE
8
BLACK
6
CONTINUOUS
10
1.08593
20
3.43041
11
1.08593
21
3.29459
0
LINE
8
BLACK
6
CONTINUOUS
10
1.08593
20
3.29459
11
1.21781
21
3.29459
0
LINE
8
BLACK
6
CONTINUOUS
10
1.21781
20
3.29459
11
1.21781
21
3.43041
0
LINE
8
BLACK
6
CONTINUOUS
10
1.21781
20
3.43041
11
1.08593
21
3.43041
  0
ENDSEC
  0
EOF
