  0
SECTION
  2
HEADER
  9
$ANGBASE
  50
0.0
  9
$ANGDIR
  70
1
  9
$MEASUREMENT
  70
0
  0
ENDSEC
  0
SECTION
  2
TABLES
  0
TABLE
  2
LTYPE
  70
4
  0
LTYPE
  5
40F
  2
CONTINUOUS
  70
0
  3
Solid line
  72
65
  73
0
  40
0.0
  0
LTYPE
  5
410
  2
DASHDOT
 70
0
  3
Dash Dot ____ _ ____ _
 72
65
 73
4
 40
2.0
 49
1.25
 49
-0.25
 49
0.25
 49
-0.25
  0
LTYPE
  5
411
  2
DASHED
 70
0
  3
Dashed __ __ __ __ __
 72
65
 73
2
 40
0.75
 49
0.5
 49
-0.25
  0
LTYPE
  5
43B
  2
DOTTED
 70
0
  3
Dotted .  .  .  .
 72
65
 73
2
 40
0.2
 49
0.0
 49
-0.2
  0
ENDTAB
  0
TABLE
  2
STYLE
  70
4
  0
STYLE
  2
KICAD
  70
0
  40
0
  41
1
  42
1
  50
0
  71
0
  3
isocp.shx
  0
STYLE
  2
KICADB
  70
0
  40
0
  41
1
  42
1
  50
0
  71
0
  3
isocp.shx
  0
STYLE
  2
KICADI
  70
0
  40
0
  41
1
  42
1
  50
15
  71
0
  3
isocp.shx
  0
STYLE
  2
KICADBI
  70
0
  40
0
  41
1
  42
1
  50
15
  71
0
  3
isocp.shx
  0
ENDTAB
  0
TABLE
  2
LAYER
  70
1
  0
LAYER
  2
BLACK
  70
0
  62
7
  6
CONTINUOUS
  0
ENDTAB
  0
ENDSEC
  0
SECTION
  2
ENTITIES
0
LINE
8
BLACK
6
CONTINUOUS
10
1.0431
20
0.514159
11
1.04252
21
0.515551
0
LINE
8
BLACK
6
CONTINUOUS
10
1.04252
20
0.515551
11
1.04252
21
0.867913
0
LINE
8
BLACK
6
CONTINUOUS
10
1.04252
20
0.867913
11
1.0431
21
0.869305
0
LINE
8
BLACK
6
CONTINUOUS
10
1.0431
20
0.869305
11
1.04449
21
0.869882
0
LINE
8
BLACK
6
CONTINUOUS
10
1.04449
20
0.869882
11
1.87008
21
0.869882
0
LINE
8
BLACK
6
CONTINUOUS
10
1.87008
20
0.869882
11
1.87147
21
0.869305
0
LINE
8
BLACK
6
CONTINUOUS
10
1.87147
20
0.869305
11
1.87205
21
0.867913
0
LINE
8
BLACK
6
CONTINUOUS
10
1.87205
20
0.867913
11
1.87205
21
0.515551
0
LINE
8
BLACK
6
CONTINUOUS
10
1.87205
20
0.515551
11
1.87147
21
0.514159
0
LINE
8
BLACK
6
CONTINUOUS
10
1.87147
20
0.514159
11
1.87008
21
0.513583
0
LINE
8
BLACK
6
CONTINUOUS
10
1.87008
20
0.513583
11
1.04449
21
0.513583
0
LINE
8
BLACK
6
CONTINUOUS
10
1.04449
20
0.513583
11
1.0431
21
0.514159
0
LINE
8
BLACK
6
CONTINUOUS
10
1.04646
20
0.51752
11
1.07792
21
0.51752
0
LINE
8
BLACK
6
CONTINUOUS
10
1.07792
20
0.51752
11
1.04646
21
0.548988
0
LINE
8
BLACK
6
CONTINUOUS
10
1.04646
20
0.548988
11
1.04646
21
0.51752
0
LINE
8
BLACK
6
CONTINUOUS
10
1.04646
20
0.554556
11
1.08349
21
0.51752
0
LINE
8
BLACK
6
CONTINUOUS
10
1.08349
20
0.51752
11
1.15666
21
0.51752
0
LINE
8
BLACK
6
CONTINUOUS
10
1.15666
20
0.51752
11
1.04646
21
0.627728
0
LINE
8
BLACK
6
CONTINUOUS
10
1.04646
20
0.627728
11
1.04646
21
0.554556
0
LINE
8
BLACK
6
CONTINUOUS
10
1.04646
20
0.633296
11
1.16223
21
0.51752
0
LINE
8
BLACK
6
CONTINUOUS
10
1.16223
20
0.51752
11
1.23541
21
0.51752
0
LINE
8
BLACK
6
CONTINUOUS
10
1.23541
20
0.51752
11
1.04646
21
0.706468
0
LINE
8
BLACK
6
CONTINUOUS
10
1.04646
20
0.706468
11
1.04646
21
0.633296
0
LINE
8
BLACK
6
CONTINUOUS
10
1.04646
20
0.712036
11
1.24097
21
0.51752
0
LINE
8
BLACK
6
CONTINUOUS
10
1.24097
20
0.51752
11
1.31415
21
0.51752
0
LINE
8
BLACK
6
CONTINUOUS
10
1.31415
20
0.51752
11
1.04646
21
0.785208
0
LINE
8
BLACK
6
CONTINUOUS
10
1.04646
20
0.785208
11
1.04646
21
0.712036
0
LINE
8
BLACK
6
CONTINUOUS
10
1.04646
20
0.790776
11
1.31971
21
0.51752
0
LINE
8
BLACK
6
CONTINUOUS
10
1.31971
20
0.51752
11
1.39289
21
0.51752
0
LINE
8
BLACK
6
CONTINUOUS
10
1.39289
20
0.51752
11
1.04646
21
0.863948
0
LINE
8
BLACK
6
CONTINUOUS
10
1.04646
20
0.863948
11
1.04646
21
0.790776
0
LINE
8
BLACK
6
CONTINUOUS
10
1.05003
20
0.865945
11
1.39845
21
0.51752
0
LINE
8
BLACK
6
CONTINUOUS
10
1.39845
20
0.51752
11
1.47163
21
0.51752
0
LINE
8
BLACK
6
CONTINUOUS
10
1.47163
20
0.51752
11
1.1232
21
0.865945
0
LINE
8
BLACK
6
CONTINUOUS
10
1.1232
20
0.865945
11
1.05003
21
0.865945
0
LINE
8
BLACK
6
CONTINUOUS
10
1.12877
20
0.865945
11
1.47719
21
0.51752
0
LINE
8
BLACK
6
CONTINUOUS
10
1.47719
20
0.51752
11
1.55037
21
0.51752
0
LINE
8
BLACK
6
CONTINUOUS
10
1.55037
20
0.51752
11
1.20194
21
0.865945
0
LINE
8
BLACK
6
CONTINUOUS
10
1.20194
20
0.865945
11
1.12877
21
0.865945
0
LINE
8
BLACK
6
CONTINUOUS
10
1.20751
20
0.865945
11
1.55593
21
0.51752
0
LINE
8
BLACK
6
CONTINUOUS
10
1.55593
20
0.51752
11
1.62911
21
0.51752
0
LINE
8
BLACK
6
CONTINUOUS
10
1.62911
20
0.51752
11
1.28068
21
0.865945
0
LINE
8
BLACK
6
CONTINUOUS
10
1.28068
20
0.865945
11
1.20751
21
0.865945
0
LINE
8
BLACK
6
CONTINUOUS
10
1.28625
20
0.865945
11
1.63467
21
0.51752
0
LINE
8
BLACK
6
CONTINUOUS
10
1.63467
20
0.51752
11
1.70785
21
0.51752
0
LINE
8
BLACK
6
CONTINUOUS
10
1.70785
20
0.51752
11
1.35942
21
0.865945
0
LINE
8
BLACK
6
CONTINUOUS
10
1.35942
20
0.865945
11
1.28625
21
0.865945
0
LINE
8
BLACK
6
CONTINUOUS
10
1.36499
20
0.865945
11
1.71341
21
0.51752
0
LINE
8
BLACK
6
CONTINUOUS
10
1.71341
20
0.51752
11
1.78659
21
0.51752
0
LINE
8
BLACK
6
CONTINUOUS
10
1.78659
20
0.51752
11
1.43816
21
0.865945
0
LINE
8
BLACK
6
CONTINUOUS
10
1.43816
20
0.865945
11
1.36499
21
0.865945
0
LINE
8
BLACK
6
CONTINUOUS
10
1.44373
20
0.865945
11
1.79215
21
0.51752
0
LINE
8
BLACK
6
CONTINUOUS
10
1.79215
20
0.51752
11
1.86533
21
0.51752
0
LINE
8
BLACK
6
CONTINUOUS
10
1.86533
20
0.51752
11
1.5169
21
0.865945
0
LINE
8
BLACK
6
CONTINUOUS
10
1.5169
20
0.865945
11
1.44373
21
0.865945
0
LINE
8
BLACK
6
CONTINUOUS
10
1.52247
20
0.865945
11
1.86811
21
0.520304
0
LINE
8
BLACK
6
CONTINUOUS
10
1.86811
20
0.520304
11
1.86811
21
0.593476
0
LINE
8
BLACK
6
CONTINUOUS
10
1.86811
20
0.593476
11
1.59564
21
0.865945
0
LINE
8
BLACK
6
CONTINUOUS
10
1.59564
20
0.865945
11
1.52247
21
0.865945
0
LINE
8
BLACK
6
CONTINUOUS
10
1.60121
20
0.865945
11
1.86811
21
0.599044
0
LINE
8
BLACK
6
CONTINUOUS
10
1.86811
20
0.599044
11
1.86811
21
0.672216
0
LINE
8
BLACK
6
CONTINUOUS
10
1.86811
20
0.672216
11
1.67438
21
0.865945
0
LINE
8
BLACK
6
CONTINUOUS
10
1.67438
20
0.865945
11
1.60121
21
0.865945
0
LINE
8
BLACK
6
CONTINUOUS
10
1.67995
20
0.865945
11
1.86811
21
0.677784
0
LINE
8
BLACK
6
CONTINUOUS
10
1.86811
20
0.677784
11
1.86811
21
0.750956
0
LINE
8
BLACK
6
CONTINUOUS
10
1.86811
20
0.750956
11
1.75312
21
0.865945
0
LINE
8
BLACK
6
CONTINUOUS
10
1.75312
20
0.865945
11
1.67995
21
0.865945
0
LINE
8
BLACK
6
CONTINUOUS
10
1.75869
20
0.865945
11
1.86811
21
0.756524
0
LINE
8
BLACK
6
CONTINUOUS
10
1.86811
20
0.756524
11
1.86811
21
0.829696
0
LINE
8
BLACK
6
CONTINUOUS
10
1.86811
20
0.829696
11
1.83186
21
0.865945
0
LINE
8
BLACK
6
CONTINUOUS
10
1.83186
20
0.865945
11
1.75869
21
0.865945
0
LINE
8
BLACK
6
CONTINUOUS
10
1.83743
20
0.865945
11
1.86811
21
0.835264
0
LINE
8
BLACK
6
CONTINUOUS
10
1.86811
20
0.835264
11
1.86811
21
0.865945
0
LINE
8
BLACK
6
CONTINUOUS
10
1.86811
20
0.865945
11
1.83743
21
0.865945
0
LINE
8
BLACK
6
CONTINUOUS
10
1.0431
20
0.964159
11
1.04252
21
0.965551
0
LINE
8
BLACK
6
CONTINUOUS
10
1.04252
20
0.965551
11
1.04252
21
1.31791
0
LINE
8
BLACK
6
CONTINUOUS
10
1.04252
20
1.31791
11
1.0431
21
1.31931
0
LINE
8
BLACK
6
CONTINUOUS
10
1.0431
20
1.31931
11
1.04449
21
1.31988
0
LINE
8
BLACK
6
CONTINUOUS
10
1.04449
20
1.31988
11
1.87008
21
1.31988
0
LINE
8
BLACK
6
CONTINUOUS
10
1.87008
20
1.31988
11
1.87147
21
1.31931
0
LINE
8
BLACK
6
CONTINUOUS
10
1.87147
20
1.31931
11
1.87205
21
1.31791
0
LINE
8
BLACK
6
CONTINUOUS
10
1.87205
20
1.31791
11
1.87205
21
0.965551
0
LINE
8
BLACK
6
CONTINUOUS
10
1.87205
20
0.965551
11
1.87147
21
0.964159
0
LINE
8
BLACK
6
CONTINUOUS
10
1.87147
20
0.964159
11
1.87008
21
0.963583
0
LINE
8
BLACK
6
CONTINUOUS
10
1.87008
20
0.963583
11
1.04449
21
0.963583
0
LINE
8
BLACK
6
CONTINUOUS
10
1.04449
20
0.963583
11
1.0431
21
0.964159
0
LINE
8
BLACK
6
CONTINUOUS
10
1.04646
20
0.96752
11
1.07792
21
0.96752
0
LINE
8
BLACK
6
CONTINUOUS
10
1.07792
20
0.96752
11
1.04646
21
0.998988
0
LINE
8
BLACK
6
CONTINUOUS
10
1.04646
20
0.998988
11
1.04646
21
0.96752
0
LINE
8
BLACK
6
CONTINUOUS
10
1.04646
20
1.00456
11
1.08349
21
0.96752
0
LINE
8
BLACK
6
CONTINUOUS
10
1.08349
20
0.96752
11
1.15666
21
0.96752
0
LINE
8
BLACK
6
CONTINUOUS
10
1.15666
20
0.96752
11
1.04646
21
1.07773
0
LINE
8
BLACK
6
CONTINUOUS
10
1.04646
20
1.07773
11
1.04646
21
1.00456
0
LINE
8
BLACK
6
CONTINUOUS
10
1.04646
20
1.0833
11
1.16223
21
0.96752
0
LINE
8
BLACK
6
CONTINUOUS
10
1.16223
20
0.96752
11
1.23541
21
0.96752
0
LINE
8
BLACK
6
CONTINUOUS
10
1.23541
20
0.96752
11
1.04646
21
1.15647
0
LINE
8
BLACK
6
CONTINUOUS
10
1.04646
20
1.15647
11
1.04646
21
1.0833
0
LINE
8
BLACK
6
CONTINUOUS
10
1.04646
20
1.16204
11
1.24097
21
0.96752
0
LINE
8
BLACK
6
CONTINUOUS
10
1.24097
20
0.96752
11
1.31415
21
0.96752
0
LINE
8
BLACK
6
CONTINUOUS
10
1.31415
20
0.96752
11
1.04646
21
1.23521
0
LINE
8
BLACK
6
CONTINUOUS
10
1.04646
20
1.23521
11
1.04646
21
1.16204
0
LINE
8
BLACK
6
CONTINUOUS
10
1.04646
20
1.24078
11
1.31971
21
0.96752
0
LINE
8
BLACK
6
CONTINUOUS
10
1.31971
20
0.96752
11
1.39289
21
0.96752
0
LINE
8
BLACK
6
CONTINUOUS
10
1.39289
20
0.96752
11
1.04646
21
1.31395
0
LINE
8
BLACK
6
CONTINUOUS
10
1.04646
20
1.31395
11
1.04646
21
1.24078
0
LINE
8
BLACK
6
CONTINUOUS
10
1.05003
20
1.31594
11
1.39845
21
0.96752
0
LINE
8
BLACK
6
CONTINUOUS
10
1.39845
20
0.96752
11
1.47163
21
0.96752
0
LINE
8
BLACK
6
CONTINUOUS
10
1.47163
20
0.96752
11
1.1232
21
1.31594
0
LINE
8
BLACK
6
CONTINUOUS
10
1.1232
20
1.31594
11
1.05003
21
1.31594
0
LINE
8
BLACK
6
CONTINUOUS
10
1.12877
20
1.31594
11
1.47719
21
0.96752
0
LINE
8
BLACK
6
CONTINUOUS
10
1.47719
20
0.96752
11
1.55037
21
0.96752
0
LINE
8
BLACK
6
CONTINUOUS
10
1.55037
20
0.96752
11
1.20194
21
1.31594
0
LINE
8
BLACK
6
CONTINUOUS
10
1.20194
20
1.31594
11
1.12877
21
1.31594
0
LINE
8
BLACK
6
CONTINUOUS
10
1.20751
20
1.31594
11
1.55593
21
0.96752
0
LINE
8
BLACK
6
CONTINUOUS
10
1.55593
20
0.96752
11
1.62911
21
0.96752
0
LINE
8
BLACK
6
CONTINUOUS
10
1.62911
20
0.96752
11
1.28068
21
1.31594
0
LINE
8
BLACK
6
CONTINUOUS
10
1.28068
20
1.31594
11
1.20751
21
1.31594
0
LINE
8
BLACK
6
CONTINUOUS
10
1.28625
20
1.31594
11
1.63467
21
0.96752
0
LINE
8
BLACK
6
CONTINUOUS
10
1.63467
20
0.96752
11
1.70785
21
0.96752
0
LINE
8
BLACK
6
CONTINUOUS
10
1.70785
20
0.96752
11
1.35942
21
1.31594
0
LINE
8
BLACK
6
CONTINUOUS
10
1.35942
20
1.31594
11
1.28625
21
1.31594
0
LINE
8
BLACK
6
CONTINUOUS
10
1.36499
20
1.31594
11
1.71341
21
0.96752
0
LINE
8
BLACK
6
CONTINUOUS
10
1.71341
20
0.96752
11
1.78659
21
0.96752
0
LINE
8
BLACK
6
CONTINUOUS
10
1.78659
20
0.96752
11
1.43816
21
1.31594
0
LINE
8
BLACK
6
CONTINUOUS
10
1.43816
20
1.31594
11
1.36499
21
1.31594
0
LINE
8
BLACK
6
CONTINUOUS
10
1.44373
20
1.31594
11
1.79215
21
0.96752
0
LINE
8
BLACK
6
CONTINUOUS
10
1.79215
20
0.96752
11
1.86533
21
0.96752
0
LINE
8
BLACK
6
CONTINUOUS
10
1.86533
20
0.96752
11
1.5169
21
1.31594
0
LINE
8
BLACK
6
CONTINUOUS
10
1.5169
20
1.31594
11
1.44373
21
1.31594
0
LINE
8
BLACK
6
CONTINUOUS
10
1.52247
20
1.31594
11
1.86811
21
0.970304
0
LINE
8
BLACK
6
CONTINUOUS
10
1.86811
20
0.970304
11
1.86811
21
1.04348
0
LINE
8
BLACK
6
CONTINUOUS
10
1.86811
20
1.04348
11
1.59564
21
1.31594
0
LINE
8
BLACK
6
CONTINUOUS
10
1.59564
20
1.31594
11
1.52247
21
1.31594
0
LINE
8
BLACK
6
CONTINUOUS
10
1.60121
20
1.31594
11
1.86811
21
1.04904
0
LINE
8
BLACK
6
CONTINUOUS
10
1.86811
20
1.04904
11
1.86811
21
1.12222
0
LINE
8
BLACK
6
CONTINUOUS
10
1.86811
20
1.12222
11
1.67438
21
1.31594
0
LINE
8
BLACK
6
CONTINUOUS
10
1.67438
20
1.31594
11
1.60121
21
1.31594
0
LINE
8
BLACK
6
CONTINUOUS
10
1.67995
20
1.31594
11
1.86811
21
1.12778
0
LINE
8
BLACK
6
CONTINUOUS
10
1.86811
20
1.12778
11
1.86811
21
1.20096
0
LINE
8
BLACK
6
CONTINUOUS
10
1.86811
20
1.20096
11
1.75312
21
1.31594
0
LINE
8
BLACK
6
CONTINUOUS
10
1.75312
20
1.31594
11
1.67995
21
1.31594
0
LINE
8
BLACK
6
CONTINUOUS
10
1.75869
20
1.31594
11
1.86811
21
1.20652
0
LINE
8
BLACK
6
CONTINUOUS
10
1.86811
20
1.20652
11
1.86811
21
1.2797
0
LINE
8
BLACK
6
CONTINUOUS
10
1.86811
20
1.2797
11
1.83186
21
1.31594
0
LINE
8
BLACK
6
CONTINUOUS
10
1.83186
20
1.31594
11
1.75869
21
1.31594
0
LINE
8
BLACK
6
CONTINUOUS
10
1.83743
20
1.31594
11
1.86811
21
1.28526
0
LINE
8
BLACK
6
CONTINUOUS
10
1.86811
20
1.28526
11
1.86811
21
1.31594
0
LINE
8
BLACK
6
CONTINUOUS
10
1.86811
20
1.31594
11
1.83743
21
1.31594
  0
ENDSEC
  0
EOF
