  0
SECTION
  2
HEADER
  9
$ANGBASE
  50
0.0
  9
$ANGDIR
  70
1
  9
$MEASUREMENT
  70
0
  0
ENDSEC
  0
SECTION
  2
TABLES
  0
TABLE
  2
LTYPE
  70
4
  0
LTYPE
  5
40F
  2
CONTINUOUS
  70
0
  3
Solid line
  72
65
  73
0
  40
0.0
  0
LTYPE
  5
410
  2
DASHDOT
 70
0
  3
Dash Dot ____ _ ____ _
 72
65
 73
4
 40
2.0
 49
1.25
 49
-0.25
 49
0.25
 49
-0.25
  0
LTYPE
  5
411
  2
DASHED
 70
0
  3
Dashed __ __ __ __ __
 72
65
 73
2
 40
0.75
 49
0.5
 49
-0.25
  0
LTYPE
  5
43B
  2
DOTTED
 70
0
  3
Dotted .  .  .  .
 72
65
 73
2
 40
0.2
 49
0.0
 49
-0.2
  0
ENDTAB
  0
TABLE
  2
STYLE
  70
4
  0
STYLE
  2
KICAD
  70
0
  40
0
  41
1
  42
1
  50
0
  71
0
  3
isocp.shx
  0
STYLE
  2
KICADB
  70
0
  40
0
  41
1
  42
1
  50
0
  71
0
  3
isocp.shx
  0
STYLE
  2
KICADI
  70
0
  40
0
  41
1
  42
1
  50
15
  71
0
  3
isocp.shx
  0
STYLE
  2
KICADBI
  70
0
  40
0
  41
1
  42
1
  50
15
  71
0
  3
isocp.shx
  0
ENDTAB
  0
TABLE
  2
LAYER
  70
1
  0
LAYER
  2
BLACK
  70
0
  62
7
  6
CONTINUOUS
  0
ENDTAB
  0
ENDSEC
  0
SECTION
  2
ENTITIES
0
LINE
8
BLACK
6
CONTINUOUS
10
2.22052
20
0.148793
11
2.23005
21
0.147096
0
LINE
8
BLACK
6
CONTINUOUS
10
2.23005
20
0.147096
11
2.23917
21
0.143865
0
LINE
8
BLACK
6
CONTINUOUS
10
2.23917
20
0.143865
11
2.24764
21
0.139188
0
LINE
8
BLACK
6
CONTINUOUS
10
2.24764
20
0.139188
11
2.25524
21
0.13319
0
LINE
8
BLACK
6
CONTINUOUS
10
2.25524
20
0.13319
11
2.26175
21
0.126032
0
LINE
8
BLACK
6
CONTINUOUS
10
2.26175
20
0.126032
11
2.26701
21
0.117907
0
LINE
8
BLACK
6
CONTINUOUS
10
2.26701
20
0.117907
11
2.27087
21
0.109031
0
LINE
8
BLACK
6
CONTINUOUS
10
2.27087
20
0.109031
11
2.27322
21
0.0996452
0
LINE
8
BLACK
6
CONTINUOUS
10
2.27322
20
0.0996452
11
2.27402
21
0.09
0
LINE
8
BLACK
6
CONTINUOUS
10
2.27402
20
0.09
11
2.27395
21
0.0871152
0
LINE
8
BLACK
6
CONTINUOUS
10
2.27395
20
0.0871152
11
2.27268
21
0.0775202
0
LINE
8
BLACK
6
CONTINUOUS
10
2.27268
20
0.0775202
11
2.26987
21
0.0682604
0
LINE
8
BLACK
6
CONTINUOUS
10
2.26987
20
0.0682604
11
2.26558
21
0.0595844
0
LINE
8
BLACK
6
CONTINUOUS
10
2.26558
20
0.0595844
11
2.25993
21
0.0517252
0
LINE
8
BLACK
6
CONTINUOUS
10
2.25993
20
0.0517252
11
2.25308
21
0.0448939
0
LINE
8
BLACK
6
CONTINUOUS
10
2.25308
20
0.0448939
11
2.2452
21
0.039274
0
LINE
8
BLACK
6
CONTINUOUS
10
2.2452
20
0.039274
11
2.23651
21
0.0350164
0
LINE
8
BLACK
6
CONTINUOUS
10
2.23651
20
0.0350164
11
2.22724
21
0.0322354
0
LINE
8
BLACK
6
CONTINUOUS
10
2.22724
20
0.0322354
11
2.21764
21
0.0310057
0
LINE
8
BLACK
6
CONTINUOUS
10
2.21764
20
0.0310057
11
2.20797
21
0.0313603
0
LINE
8
BLACK
6
CONTINUOUS
10
2.20797
20
0.0313603
11
2.19848
21
0.0332897
0
LINE
8
BLACK
6
CONTINUOUS
10
2.19848
20
0.0332897
11
2.18944
21
0.0367422
0
LINE
8
BLACK
6
CONTINUOUS
10
2.18944
20
0.0367422
11
2.18109
21
0.0416249
0
LINE
8
BLACK
6
CONTINUOUS
10
2.18109
20
0.0416249
11
2.17364
21
0.0478067
0
LINE
8
BLACK
6
CONTINUOUS
10
2.17364
20
0.0478067
11
2.16731
21
0.0551217
0
LINE
8
BLACK
6
CONTINUOUS
10
2.16731
20
0.0551217
11
2.16225
21
0.0633734
0
LINE
8
BLACK
6
CONTINUOUS
10
2.16225
20
0.0633734
11
2.15861
21
0.0723401
0
LINE
8
BLACK
6
CONTINUOUS
10
2.15861
20
0.0723401
11
2.15648
21
0.0817811
0
LINE
8
BLACK
6
CONTINUOUS
10
2.15648
20
0.0817811
11
2.15592
21
0.0914428
0
LINE
8
BLACK
6
CONTINUOUS
10
2.15592
20
0.0914428
11
2.15695
21
0.101066
0
LINE
8
BLACK
6
CONTINUOUS
10
2.15695
20
0.101066
11
2.15954
21
0.110392
0
LINE
8
BLACK
6
CONTINUOUS
10
2.15954
20
0.110392
11
2.16361
21
0.11917
0
LINE
8
BLACK
6
CONTINUOUS
10
2.16361
20
0.11917
11
2.16907
21
0.127165
0
LINE
8
BLACK
6
CONTINUOUS
10
2.16907
20
0.127165
11
2.17575
21
0.134161
0
LINE
8
BLACK
6
CONTINUOUS
10
2.17575
20
0.134161
11
2.18349
21
0.139972
0
LINE
8
BLACK
6
CONTINUOUS
10
2.18349
20
0.139972
11
2.19208
21
0.144441
0
LINE
8
BLACK
6
CONTINUOUS
10
2.19208
20
0.144441
11
2.20127
21
0.147447
0
LINE
8
BLACK
6
CONTINUOUS
10
2.20127
20
0.147447
11
2.21084
21
0.148911
0
LINE
8
BLACK
6
CONTINUOUS
10
2.21084
20
0.148911
11
2.22052
21
0.148793
0
LINE
8
BLACK
6
CONTINUOUS
10
2.7406
20
0.148793
11
2.75012
21
0.147096
0
LINE
8
BLACK
6
CONTINUOUS
10
2.75012
20
0.147096
11
2.75925
21
0.143865
0
LINE
8
BLACK
6
CONTINUOUS
10
2.75925
20
0.143865
11
2.76772
21
0.139188
0
LINE
8
BLACK
6
CONTINUOUS
10
2.76772
20
0.139188
11
2.77531
21
0.13319
0
LINE
8
BLACK
6
CONTINUOUS
10
2.77531
20
0.13319
11
2.78183
21
0.126032
0
LINE
8
BLACK
6
CONTINUOUS
10
2.78183
20
0.126032
11
2.78708
21
0.117907
0
LINE
8
BLACK
6
CONTINUOUS
10
2.78708
20
0.117907
11
2.79094
21
0.109031
0
LINE
8
BLACK
6
CONTINUOUS
10
2.79094
20
0.109031
11
2.7933
21
0.0996452
0
LINE
8
BLACK
6
CONTINUOUS
10
2.7933
20
0.0996452
11
2.79409
21
0.09
0
LINE
8
BLACK
6
CONTINUOUS
10
2.79409
20
0.09
11
2.79402
21
0.0871152
0
LINE
8
BLACK
6
CONTINUOUS
10
2.79402
20
0.0871152
11
2.79276
21
0.0775202
0
LINE
8
BLACK
6
CONTINUOUS
10
2.79276
20
0.0775202
11
2.78995
21
0.0682604
0
LINE
8
BLACK
6
CONTINUOUS
10
2.78995
20
0.0682604
11
2.78566
21
0.0595844
0
LINE
8
BLACK
6
CONTINUOUS
10
2.78566
20
0.0595844
11
2.78001
21
0.0517252
0
LINE
8
BLACK
6
CONTINUOUS
10
2.78001
20
0.0517252
11
2.77316
21
0.0448939
0
LINE
8
BLACK
6
CONTINUOUS
10
2.77316
20
0.0448939
11
2.76528
21
0.039274
0
LINE
8
BLACK
6
CONTINUOUS
10
2.76528
20
0.039274
11
2.75659
21
0.0350164
0
LINE
8
BLACK
6
CONTINUOUS
10
2.75659
20
0.0350164
11
2.74732
21
0.0322354
0
LINE
8
BLACK
6
CONTINUOUS
10
2.74732
20
0.0322354
11
2.73772
21
0.0310057
0
LINE
8
BLACK
6
CONTINUOUS
10
2.73772
20
0.0310057
11
2.72805
21
0.0313603
0
LINE
8
BLACK
6
CONTINUOUS
10
2.72805
20
0.0313603
11
2.71856
21
0.0332897
0
LINE
8
BLACK
6
CONTINUOUS
10
2.71856
20
0.0332897
11
2.70952
21
0.0367422
0
LINE
8
BLACK
6
CONTINUOUS
10
2.70952
20
0.0367422
11
2.70117
21
0.0416249
0
LINE
8
BLACK
6
CONTINUOUS
10
2.70117
20
0.0416249
11
2.69372
21
0.0478067
0
LINE
8
BLACK
6
CONTINUOUS
10
2.69372
20
0.0478067
11
2.68738
21
0.0551217
0
LINE
8
BLACK
6
CONTINUOUS
10
2.68738
20
0.0551217
11
2.68233
21
0.0633734
0
LINE
8
BLACK
6
CONTINUOUS
10
2.68233
20
0.0633734
11
2.67869
21
0.0723401
0
LINE
8
BLACK
6
CONTINUOUS
10
2.67869
20
0.0723401
11
2.67656
21
0.0817811
0
LINE
8
BLACK
6
CONTINUOUS
10
2.67656
20
0.0817811
11
2.676
21
0.0914428
0
LINE
8
BLACK
6
CONTINUOUS
10
2.676
20
0.0914428
11
2.67703
21
0.101066
0
LINE
8
BLACK
6
CONTINUOUS
10
2.67703
20
0.101066
11
2.67962
21
0.110392
0
LINE
8
BLACK
6
CONTINUOUS
10
2.67962
20
0.110392
11
2.68369
21
0.11917
0
LINE
8
BLACK
6
CONTINUOUS
10
2.68369
20
0.11917
11
2.68914
21
0.127165
0
LINE
8
BLACK
6
CONTINUOUS
10
2.68914
20
0.127165
11
2.69583
21
0.134161
0
LINE
8
BLACK
6
CONTINUOUS
10
2.69583
20
0.134161
11
2.70357
21
0.139972
0
LINE
8
BLACK
6
CONTINUOUS
10
2.70357
20
0.139972
11
2.71215
21
0.144441
0
LINE
8
BLACK
6
CONTINUOUS
10
2.71215
20
0.144441
11
2.72135
21
0.147447
0
LINE
8
BLACK
6
CONTINUOUS
10
2.72135
20
0.147447
11
2.73092
21
0.148911
0
LINE
8
BLACK
6
CONTINUOUS
10
2.73092
20
0.148911
11
2.7406
21
0.148793
0
LINE
8
BLACK
6
CONTINUOUS
10
0.0343176
20
3.96298
11
0.0354015
21
3.9646
0
LINE
8
BLACK
6
CONTINUOUS
10
0.0354015
20
3.9646
11
0.0370236
21
3.96568
0
LINE
8
BLACK
6
CONTINUOUS
10
0.0370236
20
3.96568
11
0.038937
21
3.96606
0
LINE
8
BLACK
6
CONTINUOUS
10
0.038937
20
3.96606
11
3.16106
21
3.96606
0
LINE
8
BLACK
6
CONTINUOUS
10
3.16106
20
3.96606
11
3.16298
21
3.96568
0
LINE
8
BLACK
6
CONTINUOUS
10
3.16298
20
3.96568
11
3.1646
21
3.9646
0
LINE
8
BLACK
6
CONTINUOUS
10
3.1646
20
3.9646
11
3.16568
21
3.96298
0
LINE
8
BLACK
6
CONTINUOUS
10
3.16568
20
3.96298
11
3.16606
21
3.96106
0
LINE
8
BLACK
6
CONTINUOUS
10
3.16606
20
3.96106
11
3.16606
21
0.038937
0
LINE
8
BLACK
6
CONTINUOUS
10
3.16606
20
0.038937
11
3.16568
21
0.0370236
0
LINE
8
BLACK
6
CONTINUOUS
10
3.16568
20
0.0370236
11
3.1646
21
0.0354015
0
LINE
8
BLACK
6
CONTINUOUS
10
3.1646
20
0.0354015
11
3.16298
21
0.0343176
0
LINE
8
BLACK
6
CONTINUOUS
10
3.16298
20
0.0343176
11
3.16106
21
0.033937
0
LINE
8
BLACK
6
CONTINUOUS
10
3.16106
20
0.033937
11
2.80285
21
0.033937
0
LINE
8
BLACK
6
CONTINUOUS
10
2.80285
20
0.033937
11
2.80093
21
0.0343176
0
LINE
8
BLACK
6
CONTINUOUS
10
2.80093
20
0.0343176
11
2.79931
21
0.0354015
0
LINE
8
BLACK
6
CONTINUOUS
10
2.79931
20
0.0354015
11
2.79823
21
0.0370236
0
LINE
8
BLACK
6
CONTINUOUS
10
2.79823
20
0.0370236
11
2.79785
21
0.038937
0
LINE
8
BLACK
6
CONTINUOUS
10
2.79785
20
0.038937
11
2.79823
21
0.0408504
0
LINE
8
BLACK
6
CONTINUOUS
10
2.79823
20
0.0408504
11
2.79931
21
0.0424726
0
LINE
8
BLACK
6
CONTINUOUS
10
2.79931
20
0.0424726
11
2.80206
21
0.0452189
0
LINE
8
BLACK
6
CONTINUOUS
10
2.80206
20
0.0452189
11
2.81409
21
0.074275
0
LINE
8
BLACK
6
CONTINUOUS
10
2.81409
20
0.074275
11
2.81409
21
0.105725
0
LINE
8
BLACK
6
CONTINUOUS
10
2.81409
20
0.105725
11
2.80206
21
0.134781
0
LINE
8
BLACK
6
CONTINUOUS
10
2.80206
20
0.134781
11
2.77982
21
0.15702
0
LINE
8
BLACK
6
CONTINUOUS
10
2.77982
20
0.15702
11
2.75076
21
0.169055
0
LINE
8
BLACK
6
CONTINUOUS
10
2.75076
20
0.169055
11
2.71931
21
0.169055
0
LINE
8
BLACK
6
CONTINUOUS
10
2.71931
20
0.169055
11
2.69026
21
0.15702
0
LINE
8
BLACK
6
CONTINUOUS
10
2.69026
20
0.15702
11
2.66802
21
0.134781
0
LINE
8
BLACK
6
CONTINUOUS
10
2.66802
20
0.134781
11
2.65598
21
0.105725
0
LINE
8
BLACK
6
CONTINUOUS
10
2.65598
20
0.105725
11
2.65598
21
0.074275
0
LINE
8
BLACK
6
CONTINUOUS
10
2.65598
20
0.074275
11
2.66802
21
0.0452189
0
LINE
8
BLACK
6
CONTINUOUS
10
2.66802
20
0.0452189
11
2.67077
21
0.0424726
0
LINE
8
BLACK
6
CONTINUOUS
10
2.67077
20
0.0424726
11
2.67185
21
0.0408504
0
LINE
8
BLACK
6
CONTINUOUS
10
2.67185
20
0.0408504
11
2.67223
21
0.038937
0
LINE
8
BLACK
6
CONTINUOUS
10
2.67223
20
0.038937
11
2.67185
21
0.0370236
0
LINE
8
BLACK
6
CONTINUOUS
10
2.67185
20
0.0370236
11
2.67077
21
0.0354015
0
LINE
8
BLACK
6
CONTINUOUS
10
2.67077
20
0.0354015
11
2.66914
21
0.0343176
0
LINE
8
BLACK
6
CONTINUOUS
10
2.66914
20
0.0343176
11
2.66723
21
0.033937
0
LINE
8
BLACK
6
CONTINUOUS
10
2.66723
20
0.033937
11
2.28277
21
0.033937
0
LINE
8
BLACK
6
CONTINUOUS
10
2.28277
20
0.033937
11
2.28086
21
0.0343176
0
LINE
8
BLACK
6
CONTINUOUS
10
2.28086
20
0.0343176
11
2.27923
21
0.0354015
0
LINE
8
BLACK
6
CONTINUOUS
10
2.27923
20
0.0354015
11
2.27815
21
0.0370236
0
LINE
8
BLACK
6
CONTINUOUS
10
2.27815
20
0.0370236
11
2.27777
21
0.038937
0
LINE
8
BLACK
6
CONTINUOUS
10
2.27777
20
0.038937
11
2.27815
21
0.0408504
0
LINE
8
BLACK
6
CONTINUOUS
10
2.27815
20
0.0408504
11
2.27923
21
0.0424726
0
LINE
8
BLACK
6
CONTINUOUS
10
2.27923
20
0.0424726
11
2.28198
21
0.0452189
0
LINE
8
BLACK
6
CONTINUOUS
10
2.28198
20
0.0452189
11
2.29402
21
0.074275
0
LINE
8
BLACK
6
CONTINUOUS
10
2.29402
20
0.074275
11
2.29402
21
0.105725
0
LINE
8
BLACK
6
CONTINUOUS
10
2.29402
20
0.105725
11
2.28198
21
0.134781
0
LINE
8
BLACK
6
CONTINUOUS
10
2.28198
20
0.134781
11
2.25974
21
0.15702
0
LINE
8
BLACK
6
CONTINUOUS
10
2.25974
20
0.15702
11
2.23069
21
0.169055
0
LINE
8
BLACK
6
CONTINUOUS
10
2.23069
20
0.169055
11
2.19924
21
0.169055
0
LINE
8
BLACK
6
CONTINUOUS
10
2.19924
20
0.169055
11
2.17018
21
0.15702
0
LINE
8
BLACK
6
CONTINUOUS
10
2.17018
20
0.15702
11
2.14794
21
0.134781
0
LINE
8
BLACK
6
CONTINUOUS
10
2.14794
20
0.134781
11
2.13591
21
0.105725
0
LINE
8
BLACK
6
CONTINUOUS
10
2.13591
20
0.105725
11
2.13591
21
0.074275
0
LINE
8
BLACK
6
CONTINUOUS
10
2.13591
20
0.074275
11
2.14794
21
0.0452189
0
LINE
8
BLACK
6
CONTINUOUS
10
2.14794
20
0.0452189
11
2.15069
21
0.0424726
0
LINE
8
BLACK
6
CONTINUOUS
10
2.15069
20
0.0424726
11
2.15177
21
0.0408504
0
LINE
8
BLACK
6
CONTINUOUS
10
2.15177
20
0.0408504
11
2.15215
21
0.038937
0
LINE
8
BLACK
6
CONTINUOUS
10
2.15215
20
0.038937
11
2.15177
21
0.0370236
0
LINE
8
BLACK
6
CONTINUOUS
10
2.15177
20
0.0370236
11
2.15069
21
0.0354015
0
LINE
8
BLACK
6
CONTINUOUS
10
2.15069
20
0.0354015
11
2.14907
21
0.0343176
0
LINE
8
BLACK
6
CONTINUOUS
10
2.14907
20
0.0343176
11
2.14715
21
0.033937
0
LINE
8
BLACK
6
CONTINUOUS
10
2.14715
20
0.033937
11
0.038937
21
0.033937
0
LINE
8
BLACK
6
CONTINUOUS
10
0.038937
20
0.033937
11
0.0370236
21
0.0343176
0
LINE
8
BLACK
6
CONTINUOUS
10
0.0370236
20
0.0343176
11
0.0354015
21
0.0354015
0
LINE
8
BLACK
6
CONTINUOUS
10
0.0354015
20
0.0354015
11
0.0343176
21
0.0370236
0
LINE
8
BLACK
6
CONTINUOUS
10
0.0343176
20
0.0370236
11
0.033937
21
0.038937
0
LINE
8
BLACK
6
CONTINUOUS
10
0.033937
20
0.038937
11
0.033937
21
3.96106
0
LINE
8
BLACK
6
CONTINUOUS
10
0.033937
20
3.96106
11
0.0343176
21
3.96298
0
LINE
8
BLACK
6
CONTINUOUS
10
2.64365
20
0.996408
11
2.65027
21
0.991987
0
LINE
8
BLACK
6
CONTINUOUS
10
2.65027
20
0.991987
11
2.65856
21
0.990337
0
LINE
8
BLACK
6
CONTINUOUS
10
2.65856
20
0.990337
11
2.71123
21
0.990337
0
LINE
8
BLACK
6
CONTINUOUS
10
2.71123
20
0.990337
11
2.7122
21
0.990241
0
LINE
8
BLACK
6
CONTINUOUS
10
2.7122
20
0.990241
11
2.71915
21
0.988858
0
LINE
8
BLACK
6
CONTINUOUS
10
2.71915
20
0.988858
11
2.93563
21
0.988858
0
LINE
8
BLACK
6
CONTINUOUS
10
2.93563
20
0.988858
11
2.93754
21
0.988478
0
LINE
8
BLACK
6
CONTINUOUS
10
2.93754
20
0.988478
11
2.93917
21
0.987394
0
LINE
8
BLACK
6
CONTINUOUS
10
2.93917
20
0.987394
11
2.94025
21
0.985772
0
LINE
8
BLACK
6
CONTINUOUS
10
2.94025
20
0.985772
11
2.94063
21
0.983858
0
LINE
8
BLACK
6
CONTINUOUS
10
2.94063
20
0.983858
11
2.94063
21
0.744153
0
LINE
8
BLACK
6
CONTINUOUS
10
2.94063
20
0.744153
11
2.94407
21
0.726835
0
LINE
8
BLACK
6
CONTINUOUS
10
2.94407
20
0.726835
11
2.94947
21
0.718767
0
LINE
8
BLACK
6
CONTINUOUS
10
2.94947
20
0.718767
11
2.95021
21
0.716965
0
LINE
8
BLACK
6
CONTINUOUS
10
2.95021
20
0.716965
11
2.95053
21
0.715345
0
LINE
8
BLACK
6
CONTINUOUS
10
2.95053
20
0.715345
11
2.95053
21
0.713395
0
LINE
8
BLACK
6
CONTINUOUS
10
2.95053
20
0.713395
11
2.94979
21
0.711592
0
LINE
8
BLACK
6
CONTINUOUS
10
2.94979
20
0.711592
11
2.94841
21
0.710213
0
LINE
8
BLACK
6
CONTINUOUS
10
2.94841
20
0.710213
11
2.94661
21
0.709466
0
LINE
8
BLACK
6
CONTINUOUS
10
2.94661
20
0.709466
11
2.94563
21
0.70937
0
LINE
8
BLACK
6
CONTINUOUS
10
2.94563
20
0.70937
11
2.78966
21
0.70937
0
LINE
8
BLACK
6
CONTINUOUS
10
2.78966
20
0.70937
11
2.78775
21
0.709751
0
LINE
8
BLACK
6
CONTINUOUS
10
2.78775
20
0.709751
11
2.78613
21
0.710835
0
LINE
8
BLACK
6
CONTINUOUS
10
2.78613
20
0.710835
11
2.78504
21
0.712457
0
LINE
8
BLACK
6
CONTINUOUS
10
2.78504
20
0.712457
11
2.78466
21
0.71437
0
LINE
8
BLACK
6
CONTINUOUS
10
2.78466
20
0.71437
11
2.78466
21
0.716437
0
LINE
8
BLACK
6
CONTINUOUS
10
2.78466
20
0.716437
11
2.78301
21
0.724733
0
LINE
8
BLACK
6
CONTINUOUS
10
2.78301
20
0.724733
11
2.77859
21
0.731348
0
LINE
8
BLACK
6
CONTINUOUS
10
2.77859
20
0.731348
11
2.77198
21
0.735769
0
LINE
8
BLACK
6
CONTINUOUS
10
2.77198
20
0.735769
11
2.76368
21
0.737419
0
LINE
8
BLACK
6
CONTINUOUS
10
2.76368
20
0.737419
11
2.68986
21
0.737419
0
LINE
8
BLACK
6
CONTINUOUS
10
2.68986
20
0.737419
11
2.68157
21
0.735769
0
LINE
8
BLACK
6
CONTINUOUS
10
2.68157
20
0.735769
11
2.67495
21
0.731348
0
LINE
8
BLACK
6
CONTINUOUS
10
2.67495
20
0.731348
11
2.67053
21
0.724733
0
LINE
8
BLACK
6
CONTINUOUS
10
2.67053
20
0.724733
11
2.66888
21
0.716437
0
LINE
8
BLACK
6
CONTINUOUS
10
2.66888
20
0.716437
11
2.66888
21
0.663774
0
LINE
8
BLACK
6
CONTINUOUS
10
2.66888
20
0.663774
11
2.66878
21
0.662799
0
LINE
8
BLACK
6
CONTINUOUS
10
2.66878
20
0.662799
11
2.66624
21
0.65
0
LINE
8
BLACK
6
CONTINUOUS
10
2.66624
20
0.65
11
2.66878
21
0.637201
0
LINE
8
BLACK
6
CONTINUOUS
10
2.66878
20
0.637201
11
2.66888
21
0.636226
0
LINE
8
BLACK
6
CONTINUOUS
10
2.66888
20
0.636226
11
2.66888
21
0.583563
0
LINE
8
BLACK
6
CONTINUOUS
10
2.66888
20
0.583563
11
2.67053
21
0.575267
0
LINE
8
BLACK
6
CONTINUOUS
10
2.67053
20
0.575267
11
2.67495
21
0.568652
0
LINE
8
BLACK
6
CONTINUOUS
10
2.67495
20
0.568652
11
2.68157
21
0.564231
0
LINE
8
BLACK
6
CONTINUOUS
10
2.68157
20
0.564231
11
2.68986
21
0.562581
0
LINE
8
BLACK
6
CONTINUOUS
10
2.68986
20
0.562581
11
2.76368
21
0.562581
0
LINE
8
BLACK
6
CONTINUOUS
10
2.76368
20
0.562581
11
2.77198
21
0.564231
0
LINE
8
BLACK
6
CONTINUOUS
10
2.77198
20
0.564231
11
2.77859
21
0.568652
0
LINE
8
BLACK
6
CONTINUOUS
10
2.77859
20
0.568652
11
2.78301
21
0.575267
0
LINE
8
BLACK
6
CONTINUOUS
10
2.78301
20
0.575267
11
2.78466
21
0.583563
0
LINE
8
BLACK
6
CONTINUOUS
10
2.78466
20
0.583563
11
2.78466
21
0.58563
0
LINE
8
BLACK
6
CONTINUOUS
10
2.78466
20
0.58563
11
2.78504
21
0.587543
0
LINE
8
BLACK
6
CONTINUOUS
10
2.78504
20
0.587543
11
2.78613
21
0.589165
0
LINE
8
BLACK
6
CONTINUOUS
10
2.78613
20
0.589165
11
2.78775
21
0.590249
0
LINE
8
BLACK
6
CONTINUOUS
10
2.78775
20
0.590249
11
2.78966
21
0.59063
0
LINE
8
BLACK
6
CONTINUOUS
10
2.78966
20
0.59063
11
2.93563
21
0.59063
0
LINE
8
BLACK
6
CONTINUOUS
10
2.93563
20
0.59063
11
2.93754
21
0.590249
0
LINE
8
BLACK
6
CONTINUOUS
10
2.93754
20
0.590249
11
2.93917
21
0.589165
0
LINE
8
BLACK
6
CONTINUOUS
10
2.93917
20
0.589165
11
2.94025
21
0.587543
0
LINE
8
BLACK
6
CONTINUOUS
10
2.94025
20
0.587543
11
2.94063
21
0.58563
0
LINE
8
BLACK
6
CONTINUOUS
10
2.94063
20
0.58563
11
2.94063
21
0.444153
0
LINE
8
BLACK
6
CONTINUOUS
10
2.94063
20
0.444153
11
2.94407
21
0.426835
0
LINE
8
BLACK
6
CONTINUOUS
10
2.94407
20
0.426835
11
2.94947
21
0.418767
0
LINE
8
BLACK
6
CONTINUOUS
10
2.94947
20
0.418767
11
2.95021
21
0.416965
0
LINE
8
BLACK
6
CONTINUOUS
10
2.95021
20
0.416965
11
2.95116
21
0.412196
0
LINE
8
BLACK
6
CONTINUOUS
10
2.95116
20
0.412196
11
2.95558
21
0.405581
0
LINE
8
BLACK
6
CONTINUOUS
10
2.95558
20
0.405581
11
2.9622
21
0.40116
0
LINE
8
BLACK
6
CONTINUOUS
10
2.9622
20
0.40116
11
2.96696
21
0.400212
0
LINE
8
BLACK
6
CONTINUOUS
10
2.96696
20
0.400212
11
2.96877
21
0.399465
0
LINE
8
BLACK
6
CONTINUOUS
10
2.96877
20
0.399465
11
2.97683
21
0.394075
0
LINE
8
BLACK
6
CONTINUOUS
10
2.97683
20
0.394075
11
3
21
0.389467
0
LINE
8
BLACK
6
CONTINUOUS
10
3
20
0.389467
11
3.02317
21
0.394075
0
LINE
8
BLACK
6
CONTINUOUS
10
3.02317
20
0.394075
11
3.03123
21
0.399465
0
LINE
8
BLACK
6
CONTINUOUS
10
3.03123
20
0.399465
11
3.03304
21
0.400212
0
LINE
8
BLACK
6
CONTINUOUS
10
3.03304
20
0.400212
11
3.0378
21
0.40116
0
LINE
8
BLACK
6
CONTINUOUS
10
3.0378
20
0.40116
11
3.04442
21
0.405581
0
LINE
8
BLACK
6
CONTINUOUS
10
3.04442
20
0.405581
11
3.04884
21
0.412196
0
LINE
8
BLACK
6
CONTINUOUS
10
3.04884
20
0.412196
11
3.04979
21
0.416965
0
LINE
8
BLACK
6
CONTINUOUS
10
3.04979
20
0.416965
11
3.05053
21
0.418767
0
LINE
8
BLACK
6
CONTINUOUS
10
3.05053
20
0.418767
11
3.05593
21
0.426835
0
LINE
8
BLACK
6
CONTINUOUS
10
3.05593
20
0.426835
11
3.05937
21
0.444153
0
LINE
8
BLACK
6
CONTINUOUS
10
3.05937
20
0.444153
11
3.05937
21
0.64366
0
LINE
8
BLACK
6
CONTINUOUS
10
3.05937
20
0.64366
11
3.05947
21
0.644636
0
LINE
8
BLACK
6
CONTINUOUS
10
3.05947
20
0.644636
11
3.06053
21
0.65
0
LINE
8
BLACK
6
CONTINUOUS
10
3.06053
20
0.65
11
3.05934
21
0.655991
0
LINE
8
BLACK
6
CONTINUOUS
10
3.05934
20
0.655991
11
3.05593
21
0.673165
0
LINE
8
BLACK
6
CONTINUOUS
10
3.05593
20
0.673165
11
3.05053
21
0.681233
0
LINE
8
BLACK
6
CONTINUOUS
10
3.05053
20
0.681233
11
3.04979
21
0.683035
0
LINE
8
BLACK
6
CONTINUOUS
10
3.04979
20
0.683035
11
3.04884
21
0.687804
0
LINE
8
BLACK
6
CONTINUOUS
10
3.04884
20
0.687804
11
3.04442
21
0.694419
0
LINE
8
BLACK
6
CONTINUOUS
10
3.04442
20
0.694419
11
3.04229
21
0.695843
0
LINE
8
BLACK
6
CONTINUOUS
10
3.04229
20
0.695843
11
3.04091
21
0.697222
0
LINE
8
BLACK
6
CONTINUOUS
10
3.04091
20
0.697222
11
3.04016
21
0.699025
0
LINE
8
BLACK
6
CONTINUOUS
10
3.04016
20
0.699025
11
3.04016
21
0.700975
0
LINE
8
BLACK
6
CONTINUOUS
10
3.04016
20
0.700975
11
3.04091
21
0.702778
0
LINE
8
BLACK
6
CONTINUOUS
10
3.04091
20
0.702778
11
3.04229
21
0.704157
0
LINE
8
BLACK
6
CONTINUOUS
10
3.04229
20
0.704157
11
3.04442
21
0.705581
0
LINE
8
BLACK
6
CONTINUOUS
10
3.04442
20
0.705581
11
3.04884
21
0.712196
0
LINE
8
BLACK
6
CONTINUOUS
10
3.04884
20
0.712196
11
3.04979
21
0.716965
0
LINE
8
BLACK
6
CONTINUOUS
10
3.04979
20
0.716965
11
3.05053
21
0.718767
0
LINE
8
BLACK
6
CONTINUOUS
10
3.05053
20
0.718767
11
3.05593
21
0.726835
0
LINE
8
BLACK
6
CONTINUOUS
10
3.05593
20
0.726835
11
3.05937
21
0.744153
0
LINE
8
BLACK
6
CONTINUOUS
10
3.05937
20
0.744153
11
3.05937
21
1.01866
0
LINE
8
BLACK
6
CONTINUOUS
10
3.05937
20
1.01866
11
3.05947
21
1.01964
0
LINE
8
BLACK
6
CONTINUOUS
10
3.05947
20
1.01964
11
3.06053
21
1.025
0
LINE
8
BLACK
6
CONTINUOUS
10
3.06053
20
1.025
11
3.05593
21
1.04817
0
LINE
8
BLACK
6
CONTINUOUS
10
3.05593
20
1.04817
11
3.0428
21
1.0678
0
LINE
8
BLACK
6
CONTINUOUS
10
3.0428
20
1.0678
11
3.03826
21
1.07084
0
LINE
8
BLACK
6
CONTINUOUS
10
3.03826
20
1.07084
11
3.0375
21
1.07146
0
LINE
8
BLACK
6
CONTINUOUS
10
3.0375
20
1.07146
11
3.02324
21
1.08573
0
LINE
8
BLACK
6
CONTINUOUS
10
3.02324
20
1.08573
11
3.02261
21
1.08648
0
LINE
8
BLACK
6
CONTINUOUS
10
3.02261
20
1.08648
11
3.01958
21
1.09103
0
LINE
8
BLACK
6
CONTINUOUS
10
3.01958
20
1.09103
11
2.99994
21
1.10415
0
LINE
8
BLACK
6
CONTINUOUS
10
2.99994
20
1.10415
11
2.97677
21
1.10876
0
LINE
8
BLACK
6
CONTINUOUS
10
2.97677
20
1.10876
11
2.97141
21
1.10769
0
LINE
8
BLACK
6
CONTINUOUS
10
2.97141
20
1.10769
11
2.97043
21
1.1076
0
LINE
8
BLACK
6
CONTINUOUS
10
2.97043
20
1.1076
11
2.71915
21
1.1076
0
LINE
8
BLACK
6
CONTINUOUS
10
2.71915
20
1.1076
11
2.7122
21
1.10622
0
LINE
8
BLACK
6
CONTINUOUS
10
2.7122
20
1.10622
11
2.71123
21
1.10612
0
LINE
8
BLACK
6
CONTINUOUS
10
2.71123
20
1.10612
11
2.65856
21
1.10612
0
LINE
8
BLACK
6
CONTINUOUS
10
2.65856
20
1.10612
11
2.65027
21
1.10447
0
LINE
8
BLACK
6
CONTINUOUS
10
2.65027
20
1.10447
11
2.64365
21
1.10005
0
LINE
8
BLACK
6
CONTINUOUS
10
2.64365
20
1.10005
11
2.63923
21
1.09343
0
LINE
8
BLACK
6
CONTINUOUS
10
2.63923
20
1.09343
11
2.63758
21
1.08514
0
LINE
8
BLACK
6
CONTINUOUS
10
2.63758
20
1.08514
11
2.63758
21
1.01132
0
LINE
8
BLACK
6
CONTINUOUS
10
2.63758
20
1.01132
11
2.63923
21
1.00302
0
LINE
8
BLACK
6
CONTINUOUS
10
2.63923
20
1.00302
11
2.64365
21
0.996408
0
LINE
8
BLACK
6
CONTINUOUS
10
2.76417
20
0.68937
11
3
21
0.68937
0
LINE
8
BLACK
6
CONTINUOUS
10
3
20
0.68937
11
3.00412
21
0.689154
0
LINE
8
BLACK
6
CONTINUOUS
10
3.00412
20
0.689154
11
3.00506
21
0.688957
0
LINE
8
BLACK
6
CONTINUOUS
10
3.00506
20
0.688957
11
3.00602
21
0.688907
0
LINE
8
BLACK
6
CONTINUOUS
10
3.00602
20
0.688907
11
3.00895
21
0.688145
0
LINE
8
BLACK
6
CONTINUOUS
10
3.00895
20
0.688145
11
3.0119
21
0.687527
0
LINE
8
BLACK
6
CONTINUOUS
10
3.0119
20
0.687527
11
3.01279
21
0.687144
0
LINE
8
BLACK
6
CONTINUOUS
10
3.01279
20
0.687144
11
3.01372
21
0.686901
0
LINE
8
BLACK
6
CONTINUOUS
10
3.01372
20
0.686901
11
3.01643
21
0.685567
0
LINE
8
BLACK
6
CONTINUOUS
10
3.01643
20
0.685567
11
3.01921
21
0.684367
0
LINE
8
BLACK
6
CONTINUOUS
10
3.01921
20
0.684367
11
3.02
21
0.683814
0
LINE
8
BLACK
6
CONTINUOUS
10
3.02
20
0.683814
11
3.02086
21
0.683388
0
LINE
8
BLACK
6
CONTINUOUS
10
3.02086
20
0.683388
11
3.02325
21
0.681536
0
LINE
8
BLACK
6
CONTINUOUS
10
3.02325
20
0.681536
11
3.02544
21
0.68
0
LINE
8
BLACK
6
CONTINUOUS
10
3.02544
20
0.68
11
3.03
21
0.68
0
LINE
8
BLACK
6
CONTINUOUS
10
3.03
20
0.68
11
3.03
21
0.675283
0
LINE
8
BLACK
6
CONTINUOUS
10
3.03
20
0.675283
11
3.03119
21
0.674021
0
LINE
8
BLACK
6
CONTINUOUS
10
3.03119
20
0.674021
11
3.0317
21
0.673202
0
LINE
8
BLACK
6
CONTINUOUS
10
3.0317
20
0.673202
11
3.03233
21
0.672469
0
LINE
8
BLACK
6
CONTINUOUS
10
3.03233
20
0.672469
11
3.03379
21
0.669827
0
LINE
8
BLACK
6
CONTINUOUS
10
3.03379
20
0.669827
11
3.03539
21
0.667259
0
LINE
8
BLACK
6
CONTINUOUS
10
3.03539
20
0.667259
11
3.03572
21
0.666353
0
LINE
8
BLACK
6
CONTINUOUS
10
3.03572
20
0.666353
11
3.03619
21
0.66551
0
LINE
8
BLACK
6
CONTINUOUS
10
3.03619
20
0.66551
11
3.03709
21
0.662627
0
LINE
8
BLACK
6
CONTINUOUS
10
3.03709
20
0.662627
11
3.03813
21
0.659791
0
LINE
8
BLACK
6
CONTINUOUS
10
3.03813
20
0.659791
11
3.03828
21
0.658837
0
LINE
8
BLACK
6
CONTINUOUS
10
3.03828
20
0.658837
11
3.03857
21
0.657916
0
LINE
8
BLACK
6
CONTINUOUS
10
3.03857
20
0.657916
11
3.03887
21
0.654911
0
LINE
8
BLACK
6
CONTINUOUS
10
3.03887
20
0.654911
11
3.03932
21
0.651923
0
LINE
8
BLACK
6
CONTINUOUS
10
3.03932
20
0.651923
11
3.03927
21
0.65096
0
LINE
8
BLACK
6
CONTINUOUS
10
3.03927
20
0.65096
11
3.03937
21
0.65
0
LINE
8
BLACK
6
CONTINUOUS
10
3.03937
20
0.65
11
3.03937
21
0.45
0
LINE
8
BLACK
6
CONTINUOUS
10
3.03937
20
0.45
11
3.03915
21
0.445885
0
LINE
8
BLACK
6
CONTINUOUS
10
3.03915
20
0.445885
11
3.03753
21
0.438096
0
LINE
8
BLACK
6
CONTINUOUS
10
3.03753
20
0.438096
11
3.03437
21
0.430793
0
LINE
8
BLACK
6
CONTINUOUS
10
3.03437
20
0.430793
11
3.03
21
0.424556
0
LINE
8
BLACK
6
CONTINUOUS
10
3.03
20
0.424556
11
3.03
21
0.42
0
LINE
8
BLACK
6
CONTINUOUS
10
3.03
20
0.42
11
3.02528
21
0.42
0
LINE
8
BLACK
6
CONTINUOUS
10
3.02528
20
0.42
11
3.02402
21
0.418807
0
LINE
8
BLACK
6
CONTINUOUS
10
3.02402
20
0.418807
11
3.01726
21
0.414614
0
LINE
8
BLACK
6
CONTINUOUS
10
3.01726
20
0.414614
11
3.00979
21
0.411867
0
LINE
8
BLACK
6
CONTINUOUS
10
3.00979
20
0.411867
11
3.00192
21
0.410677
0
LINE
8
BLACK
6
CONTINUOUS
10
3.00192
20
0.410677
11
2.99398
21
0.411093
0
LINE
8
BLACK
6
CONTINUOUS
10
2.99398
20
0.411093
11
2.98628
21
0.413099
0
LINE
8
BLACK
6
CONTINUOUS
10
2.98628
20
0.413099
11
2.97914
21
0.416612
0
LINE
8
BLACK
6
CONTINUOUS
10
2.97914
20
0.416612
11
2.97477
21
0.42
0
LINE
8
BLACK
6
CONTINUOUS
10
2.97477
20
0.42
11
2.97
21
0.42
0
LINE
8
BLACK
6
CONTINUOUS
10
2.97
20
0.42
11
2.97
21
0.424814
0
LINE
8
BLACK
6
CONTINUOUS
10
2.97
20
0.424814
11
2.96767
21
0.427531
0
LINE
8
BLACK
6
CONTINUOUS
10
2.96767
20
0.427531
11
2.96381
21
0.43449
0
LINE
8
BLACK
6
CONTINUOUS
10
2.96381
20
0.43449
11
2.96143
21
0.442084
0
LINE
8
BLACK
6
CONTINUOUS
10
2.96143
20
0.442084
11
2.96063
21
0.45
0
LINE
8
BLACK
6
CONTINUOUS
10
2.96063
20
0.45
11
2.96063
21
0.61063
0
LINE
8
BLACK
6
CONTINUOUS
10
2.96063
20
0.61063
11
2.76417
21
0.61063
0
LINE
8
BLACK
6
CONTINUOUS
10
2.76417
20
0.61063
11
2.76417
21
0.583071
0
LINE
8
BLACK
6
CONTINUOUS
10
2.76417
20
0.583071
11
2.68937
21
0.583071
0
LINE
8
BLACK
6
CONTINUOUS
10
2.68937
20
0.583071
11
2.68937
21
0.638221
0
LINE
8
BLACK
6
CONTINUOUS
10
2.68937
20
0.638221
11
2.68864
21
0.640209
0
LINE
8
BLACK
6
CONTINUOUS
10
2.68864
20
0.640209
11
2.68745
21
0.648077
0
LINE
8
BLACK
6
CONTINUOUS
10
2.68745
20
0.648077
11
2.68787
21
0.656023
0
LINE
8
BLACK
6
CONTINUOUS
10
2.68787
20
0.656023
11
2.68937
21
0.661801
0
LINE
8
BLACK
6
CONTINUOUS
10
2.68937
20
0.661801
11
2.68937
21
0.716929
0
LINE
8
BLACK
6
CONTINUOUS
10
2.68937
20
0.716929
11
2.76417
21
0.716929
0
LINE
8
BLACK
6
CONTINUOUS
10
2.76417
20
0.716929
11
2.76417
21
0.68937
0
LINE
8
BLACK
6
CONTINUOUS
10
3.03915
20
0.745885
11
3.03753
21
0.738096
0
LINE
8
BLACK
6
CONTINUOUS
10
3.03753
20
0.738096
11
3.03437
21
0.730793
0
LINE
8
BLACK
6
CONTINUOUS
10
3.03437
20
0.730793
11
3.03
21
0.724556
0
LINE
8
BLACK
6
CONTINUOUS
10
3.03
20
0.724556
11
3.03
21
0.72
0
LINE
8
BLACK
6
CONTINUOUS
10
3.03
20
0.72
11
3.02528
21
0.72
0
LINE
8
BLACK
6
CONTINUOUS
10
3.02528
20
0.72
11
3.02402
21
0.718807
0
LINE
8
BLACK
6
CONTINUOUS
10
3.02402
20
0.718807
11
3.01726
21
0.714614
0
LINE
8
BLACK
6
CONTINUOUS
10
3.01726
20
0.714614
11
3.00979
21
0.711867
0
LINE
8
BLACK
6
CONTINUOUS
10
3.00979
20
0.711867
11
3.00192
21
0.710677
0
LINE
8
BLACK
6
CONTINUOUS
10
3.00192
20
0.710677
11
2.99398
21
0.711093
0
LINE
8
BLACK
6
CONTINUOUS
10
2.99398
20
0.711093
11
2.98628
21
0.713099
0
LINE
8
BLACK
6
CONTINUOUS
10
2.98628
20
0.713099
11
2.97914
21
0.716612
0
LINE
8
BLACK
6
CONTINUOUS
10
2.97914
20
0.716612
11
2.97477
21
0.72
0
LINE
8
BLACK
6
CONTINUOUS
10
2.97477
20
0.72
11
2.97
21
0.72
0
LINE
8
BLACK
6
CONTINUOUS
10
2.97
20
0.72
11
2.97
21
0.724814
0
LINE
8
BLACK
6
CONTINUOUS
10
2.97
20
0.724814
11
2.96767
21
0.727531
0
LINE
8
BLACK
6
CONTINUOUS
10
2.96767
20
0.727531
11
2.96381
21
0.73449
0
LINE
8
BLACK
6
CONTINUOUS
10
2.96381
20
0.73449
11
2.96143
21
0.742084
0
LINE
8
BLACK
6
CONTINUOUS
10
2.96143
20
0.742084
11
2.96063
21
0.75
0
LINE
8
BLACK
6
CONTINUOUS
10
2.96063
20
0.75
11
2.96063
21
1.00869
0
LINE
8
BLACK
6
CONTINUOUS
10
2.96063
20
1.00869
11
2.96046
21
1.00886
0
LINE
8
BLACK
6
CONTINUOUS
10
2.96046
20
1.00886
11
2.725
21
1.00886
0
LINE
8
BLACK
6
CONTINUOUS
10
2.725
20
1.00886
11
2.72088
21
1.00907
0
LINE
8
BLACK
6
CONTINUOUS
10
2.72088
20
1.00907
11
2.7131
21
1.0107
0
LINE
8
BLACK
6
CONTINUOUS
10
2.7131
20
1.0107
11
2.71281
21
1.01083
0
LINE
8
BLACK
6
CONTINUOUS
10
2.71281
20
1.01083
11
2.65807
21
1.01083
0
LINE
8
BLACK
6
CONTINUOUS
10
2.65807
20
1.01083
11
2.65807
21
1.08563
0
LINE
8
BLACK
6
CONTINUOUS
10
2.65807
20
1.08563
11
2.71337
21
1.08563
0
LINE
8
BLACK
6
CONTINUOUS
10
2.71337
20
1.08563
11
2.71708
21
1.08679
0
LINE
8
BLACK
6
CONTINUOUS
10
2.71708
20
1.08679
11
2.725
21
1.0876
0
LINE
8
BLACK
6
CONTINUOUS
10
2.725
20
1.0876
11
2.97677
21
1.0876
0
LINE
8
BLACK
6
CONTINUOUS
10
2.97677
20
1.0876
11
2.98089
21
1.08738
0
LINE
8
BLACK
6
CONTINUOUS
10
2.98089
20
1.08738
11
2.9823
21
1.08709
0
LINE
8
BLACK
6
CONTINUOUS
10
2.9823
20
1.08709
11
2.98374
21
1.08698
0
LINE
8
BLACK
6
CONTINUOUS
10
2.98374
20
1.08698
11
2.98619
21
1.08628
0
LINE
8
BLACK
6
CONTINUOUS
10
2.98619
20
1.08628
11
2.98868
21
1.08576
0
LINE
8
BLACK
6
CONTINUOUS
10
2.98868
20
1.08576
11
2.99
21
1.08518
0
LINE
8
BLACK
6
CONTINUOUS
10
2.99
20
1.08518
11
2.99139
21
1.08478
0
LINE
8
BLACK
6
CONTINUOUS
10
2.99139
20
1.08478
11
2.99365
21
1.08361
0
LINE
8
BLACK
6
CONTINUOUS
10
2.99365
20
1.08361
11
2.99598
21
1.0826
0
LINE
8
BLACK
6
CONTINUOUS
10
2.99598
20
1.0826
11
2.99716
21
1.08177
0
LINE
8
BLACK
6
CONTINUOUS
10
2.99716
20
1.08177
11
2.99844
21
1.0811
0
LINE
8
BLACK
6
CONTINUOUS
10
2.99844
20
1.0811
11
3.00041
21
1.07949
0
LINE
8
BLACK
6
CONTINUOUS
10
3.00041
20
1.07949
11
3.0025
21
1.07803
0
LINE
8
BLACK
6
CONTINUOUS
10
3.0025
20
1.07803
11
3.00349
21
1.07698
0
LINE
8
BLACK
6
CONTINUOUS
10
3.00349
20
1.07698
11
3.00461
21
1.07607
0
LINE
8
BLACK
6
CONTINUOUS
10
3.00461
20
1.07607
11
3.02784
21
1.05284
0
LINE
8
BLACK
6
CONTINUOUS
10
3.02784
20
1.05284
11
3.0306
21
1.04978
0
LINE
8
BLACK
6
CONTINUOUS
10
3.0306
20
1.04978
11
3.03139
21
1.04857
0
LINE
8
BLACK
6
CONTINUOUS
10
3.03139
20
1.04857
11
3.03233
21
1.04747
0
LINE
8
BLACK
6
CONTINUOUS
10
3.03233
20
1.04747
11
3.03356
21
1.04525
0
LINE
8
BLACK
6
CONTINUOUS
10
3.03356
20
1.04525
11
3.03495
21
1.04312
0
LINE
8
BLACK
6
CONTINUOUS
10
3.03495
20
1.04312
11
3.03549
21
1.04177
0
LINE
8
BLACK
6
CONTINUOUS
10
3.03549
20
1.04177
11
3.03619
21
1.04051
0
LINE
8
BLACK
6
CONTINUOUS
10
3.03619
20
1.04051
11
3.03695
21
1.03808
0
LINE
8
BLACK
6
CONTINUOUS
10
3.03695
20
1.03808
11
3.03788
21
1.03572
0
LINE
8
BLACK
6
CONTINUOUS
10
3.03788
20
1.03572
11
3.03813
21
1.0343
0
LINE
8
BLACK
6
CONTINUOUS
10
3.03813
20
1.0343
11
3.03857
21
1.03292
0
LINE
8
BLACK
6
CONTINUOUS
10
3.03857
20
1.03292
11
3.03882
21
1.03039
0
LINE
8
BLACK
6
CONTINUOUS
10
3.03882
20
1.03039
11
3.03926
21
1.02788
0
LINE
8
BLACK
6
CONTINUOUS
10
3.03926
20
1.02788
11
3.03922
21
1.02644
0
LINE
8
BLACK
6
CONTINUOUS
10
3.03922
20
1.02644
11
3.03937
21
1.025
0
LINE
8
BLACK
6
CONTINUOUS
10
3.03937
20
1.025
11
3.03937
21
0.75
0
LINE
8
BLACK
6
CONTINUOUS
10
3.03937
20
0.75
11
3.03915
21
0.745885
0
CIRCLE
8
BLACK
10
3.125
20
2.925
40
0.00787402
0
CIRCLE
8
BLACK
10
1.975
20
2.225
40
0.00787402
0
CIRCLE
8
BLACK
10
2.06752
20
3.25
40
0.00787402
0
CIRCLE
8
BLACK
10
0.225
20
2.7
40
0.00787402
0
CIRCLE
8
BLACK
10
1.375
20
1.35
40
0.00787402
0
CIRCLE
8
BLACK
10
0.25
20
1.425
40
0.00787402
0
CIRCLE
8
BLACK
10
2.625
20
3.05
40
0.00787402
0
CIRCLE
8
BLACK
10
1.625
20
2.2
40
0.00787402
0
CIRCLE
8
BLACK
10
2.125
20
1.1
40
0.00787402
0
CIRCLE
8
BLACK
10
2.45
20
0.9
40
0.00787402
0
CIRCLE
8
BLACK
10
0.175
20
1.425
40
0.00787402
0
CIRCLE
8
BLACK
10
1.2
20
3.275
40
0.00787402
0
CIRCLE
8
BLACK
10
2.075
20
3.5815
40
0.00787402
0
CIRCLE
8
BLACK
10
2.9
20
3.625
40
0.00787402
0
CIRCLE
8
BLACK
10
1.525
20
2.3
40
0.00787402
0
CIRCLE
8
BLACK
10
2.25593
20
2.90593
40
0.00787402
0
CIRCLE
8
BLACK
10
1.375
20
1.4
40
0.00787402
0
CIRCLE
8
BLACK
10
2.625
20
2.65
40
0.00787402
0
CIRCLE
8
BLACK
10
3.125
20
2.825
40
0.00787402
0
CIRCLE
8
BLACK
10
1.675
20
1.1
40
0.00787402
0
CIRCLE
8
BLACK
10
2.7
20
3.05
40
0.00787402
0
CIRCLE
8
BLACK
10
2.275
20
3.625
40
0.00787402
0
CIRCLE
8
BLACK
10
1.05
20
2.275
40
0.00787402
0
CIRCLE
8
BLACK
10
2.075
20
1.05
40
0.00787402
0
CIRCLE
8
BLACK
10
0.175
20
1.3
40
0.00787402
0
CIRCLE
8
BLACK
10
2.35
20
0.75
40
0.00787402
0
CIRCLE
8
BLACK
10
1.625
20
2.05
40
0.00787402
0
CIRCLE
8
BLACK
10
0.325
20
2.7
40
0.00787402
0
CIRCLE
8
BLACK
10
1.65
20
0.15
40
0.00787402
0
CIRCLE
8
BLACK
10
2.825
20
3.625
40
0.00787402
0
CIRCLE
8
BLACK
10
1.825
20
2.25
40
0.00787402
0
CIRCLE
8
BLACK
10
2.06752
20
3.375
40
0.00787402
0
CIRCLE
8
BLACK
10
2.375
20
3.075
40
0.00787402
0
CIRCLE
8
BLACK
10
0.95
20
2.225
40
0.00787402
0
CIRCLE
8
BLACK
10
2.05
20
2.475
40
0.00787402
0
CIRCLE
8
BLACK
10
1.575
20
3.15
40
0.00787402
0
CIRCLE
8
BLACK
10
1.725
20
3.4
40
0.00787402
0
CIRCLE
8
BLACK
10
1.725
20
3.525
40
0.00787402
0
CIRCLE
8
BLACK
10
1.45
20
0.15
40
0.00787402
0
CIRCLE
8
BLACK
10
1.6
20
3.5
40
0.00787402
0
CIRCLE
8
BLACK
10
2.325
20
3.625
40
0.00787402
0
CIRCLE
8
BLACK
10
1.375
20
1.1
40
0.00787402
0
CIRCLE
8
BLACK
10
3
20
2.65
40
0.00787402
0
CIRCLE
8
BLACK
10
1.975
20
2.3
40
0.00787402
0
CIRCLE
8
BLACK
10
2.8
20
2.975
40
0.00787402
0
CIRCLE
8
BLACK
10
2.075
20
1.1
40
0.00787402
0
CIRCLE
8
BLACK
10
1.25
20
3.175
40
0.00787402
0
CIRCLE
8
BLACK
10
2.575
20
1.725
40
0.00787402
0
CIRCLE
8
BLACK
10
1.225
20
1.975
40
0.00787402
0
CIRCLE
8
BLACK
10
1.325
20
2.275
40
0.00787402
0
CIRCLE
8
BLACK
10
1.375
20
1.825
40
0.00787402
0
CIRCLE
8
BLACK
10
1.675
20
3.775
40
0.00787402
0
CIRCLE
8
BLACK
10
2.9
20
2.65
40
0.00787402
0
CIRCLE
8
BLACK
10
2.5
20
0.85
40
0.00787402
0
CIRCLE
8
BLACK
10
2.55
20
0.85
40
0.00787402
0
CIRCLE
8
BLACK
10
1.075
20
1.225
40
0.00787402
0
CIRCLE
8
BLACK
10
1.725
20
2
40
0.00787402
0
CIRCLE
8
BLACK
10
2.625
20
2.9
40
0.00787402
0
CIRCLE
8
BLACK
10
1.675
20
1.375
40
0.00787402
0
CIRCLE
8
BLACK
10
2.375
20
3.125
40
0.00787402
0
CIRCLE
8
BLACK
10
2.15
20
3.375
40
0.00787402
0
CIRCLE
8
BLACK
10
2.125
20
1
40
0.00787402
0
CIRCLE
8
BLACK
10
1.35
20
3.175
40
0.00787402
0
CIRCLE
8
BLACK
10
1.525
20
2.475
40
0.00787402
0
CIRCLE
8
BLACK
10
1.825
20
2.35
40
0.00787402
0
CIRCLE
8
BLACK
10
1.825
20
2.3
40
0.00787402
0
CIRCLE
8
BLACK
10
0.875
20
2.25
40
0.00787402
0
CIRCLE
8
BLACK
10
2.5
20
0.9
40
0.00787402
0
CIRCLE
8
BLACK
10
0.975
20
1.25
40
0.00787402
0
CIRCLE
8
BLACK
10
1.525
20
3.15
40
0.00787402
0
CIRCLE
8
BLACK
10
1.825
20
2.175
40
0.00787402
0
CIRCLE
8
BLACK
10
0.175
20
1.225
40
0.00787402
0
CIRCLE
8
BLACK
10
1.6
20
3.45
40
0.00787402
0
CIRCLE
8
BLACK
10
1.825
20
1.95
40
0.00787402
0
CIRCLE
8
BLACK
10
1.025
20
1.3
40
0.00787402
0
CIRCLE
8
BLACK
10
2.4
20
1.775
40
0.00787402
0
CIRCLE
8
BLACK
10
1.975
20
1.05
40
0.00787402
0
CIRCLE
8
BLACK
10
1.325
20
2.125
40
0.00787402
0
CIRCLE
8
BLACK
10
1.15
20
3.275
40
0.00787402
0
CIRCLE
8
BLACK
10
1.925
20
3.325
40
0.00787402
0
CIRCLE
8
BLACK
10
2.025
20
1.05
40
0.00787402
0
CIRCLE
8
BLACK
10
1.525
20
3.1
40
0.00787402
0
CIRCLE
8
BLACK
10
1.225
20
2.225
40
0.00787402
0
CIRCLE
8
BLACK
10
0.075
20
1.425
40
0.00787402
0
CIRCLE
8
BLACK
10
0.725
20
2.25
40
0.00787402
0
CIRCLE
8
BLACK
10
2.125
20
1.85
40
0.00787402
0
CIRCLE
8
BLACK
10
1.2
20
3.175
40
0.00787402
0
CIRCLE
8
BLACK
10
1.675
20
1.3
40
0.00787402
0
CIRCLE
8
BLACK
10
1.725
20
2.125
40
0.00787402
0
CIRCLE
8
BLACK
10
2.5
20
0.8
40
0.00787402
0
CIRCLE
8
BLACK
10
1.725
20
2.05
40
0.00787402
0
CIRCLE
8
BLACK
10
2.55
20
0.8
40
0.00787402
0
CIRCLE
8
BLACK
10
2.175
20
1.1
40
0.00787402
0
CIRCLE
8
BLACK
10
1.675
20
1.175
40
0.00787402
0
CIRCLE
8
BLACK
10
1.125
20
2.325
40
0.00787402
0
CIRCLE
8
BLACK
10
2.3065
20
2.75
40
0.00787402
0
CIRCLE
8
BLACK
10
2.85
20
2.925
40
0.00787402
0
CIRCLE
8
BLACK
10
2.41791
20
2.925
40
0.00787402
0
CIRCLE
8
BLACK
10
1.45
20
1.825
40
0.00787402
0
CIRCLE
8
BLACK
10
2.35
20
1.775
40
0.00787402
0
CIRCLE
8
BLACK
10
2.125
20
2.4
40
0.00787402
0
CIRCLE
8
BLACK
10
1.525
20
2.15
40
0.00787402
0
CIRCLE
8
BLACK
10
1.55
20
3.4
40
0.00787402
0
CIRCLE
8
BLACK
10
2.05
20
2.55
40
0.00787402
0
CIRCLE
8
BLACK
10
2.28093
20
2.88093
40
0.00787402
0
CIRCLE
8
BLACK
10
1.575
20
3.1
40
0.00787402
0
CIRCLE
8
BLACK
10
1.325
20
1.975
40
0.00787402
0
CIRCLE
8
BLACK
10
1.375
20
1.775
40
0.00787402
0
CIRCLE
8
BLACK
10
1.55
20
0.15
40
0.00787402
0
CIRCLE
8
BLACK
10
3.125
20
2.875
40
0.00787402
0
CIRCLE
8
BLACK
10
2.175
20
1
40
0.00787402
0
CIRCLE
8
BLACK
10
1.675
20
1.225
40
0.00787402
0
CIRCLE
8
BLACK
10
2.125
20
1.95
40
0.00787402
0
CIRCLE
8
BLACK
10
1.55
20
3.5
40
0.00787402
0
CIRCLE
8
BLACK
10
2.325
20
3.575
40
0.00787402
0
CIRCLE
8
BLACK
10
1.15
20
3.175
40
0.00787402
0
CIRCLE
8
BLACK
10
2.225
20
3.4
40
0.00787402
0
CIRCLE
8
BLACK
10
1.625
20
2
40
0.00787402
0
CIRCLE
8
BLACK
10
1.975
20
2.35
40
0.00787402
0
CIRCLE
8
BLACK
10
1.825
20
2.1
40
0.00787402
0
CIRCLE
8
BLACK
10
2.825
20
3.5315
40
0.00787402
0
CIRCLE
8
BLACK
10
0.825
20
2.25
40
0.00787402
0
CIRCLE
8
BLACK
10
2.125
20
1.75
40
0.00787402
0
CIRCLE
8
BLACK
10
3.1
20
2.65
40
0.00787402
0
CIRCLE
8
BLACK
10
2.525
20
3.225
40
0.00787402
0
CIRCLE
8
BLACK
10
2.325
20
3.525
40
0.00787402
0
CIRCLE
8
BLACK
10
2.125
20
1.05
40
0.00787402
0
CIRCLE
8
BLACK
10
2.3065
20
2.8
40
0.00787402
0
CIRCLE
8
BLACK
10
0.25
20
1.375
40
0.00787402
0
CIRCLE
8
BLACK
10
2.15
20
3.325
40
0.00787402
0
CIRCLE
8
BLACK
10
2.075
20
1
40
0.00787402
0
CIRCLE
8
BLACK
10
2.8
20
2.65
40
0.00787402
0
CIRCLE
8
BLACK
10
1.625
20
2.25
40
0.00787402
0
CIRCLE
8
BLACK
10
1.325
20
2.2
40
0.00787402
0
CIRCLE
8
BLACK
10
1.5
20
1.825
40
0.00787402
0
CIRCLE
8
BLACK
10
1.3
20
3.175
40
0.00787402
0
CIRCLE
8
BLACK
10
2.325
20
3.075
40
0.00787402
0
CIRCLE
8
BLACK
10
1.725
20
2.25
40
0.00787402
0
CIRCLE
8
BLACK
10
1.225
20
2.125
40
0.00787402
0
CIRCLE
8
BLACK
10
2.025
20
1.1
40
0.00787402
0
CIRCLE
8
BLACK
10
1.925
20
3.375
40
0.00787402
0
CIRCLE
8
BLACK
10
1.525
20
2
40
0.00787402
0
CIRCLE
8
BLACK
10
2.425
20
1.625
40
0.00787402
0
CIRCLE
8
BLACK
10
1.55
20
3.35
40
0.00787402
0
CIRCLE
8
BLACK
10
2.825
20
3.575
40
0.00787402
0
CIRCLE
8
BLACK
10
1.95
20
3.425
40
0.00787402
0
CIRCLE
8
BLACK
10
1.375
20
1.25
40
0.00787402
0
CIRCLE
8
BLACK
10
1.85
20
3.3
40
0.00787402
0
CIRCLE
8
BLACK
10
1.5
20
1.775
40
0.00787402
0
CIRCLE
8
BLACK
10
0.225
20
2.8
40
0.00787402
0
CIRCLE
8
BLACK
10
1.025
20
1.25
40
0.00787402
0
CIRCLE
8
BLACK
10
2.05
20
2.625
40
0.00787402
0
CIRCLE
8
BLACK
10
1.875
20
3.45
40
0.00787402
0
CIRCLE
8
BLACK
10
1.25
20
0.15
40
0.00787402
0
CIRCLE
8
BLACK
10
1.225
20
2.05
40
0.00787402
0
CIRCLE
8
BLACK
10
0.175
20
1.375
40
0.00787402
0
CIRCLE
8
BLACK
10
1.525
20
2.075
40
0.00787402
0
CIRCLE
8
BLACK
10
0.325
20
2.8
40
0.00787402
0
CIRCLE
8
BLACK
10
1.375
20
1.175
40
0.00787402
0
CIRCLE
8
BLACK
10
1.975
20
1.1
40
0.00787402
0
CIRCLE
8
BLACK
10
1.75
20
3.325
40
0.00787402
0
CIRCLE
8
BLACK
10
2.625
20
2.7
40
0.00787402
0
CIRCLE
8
BLACK
10
1.6
20
3.35
40
0.00787402
0
CIRCLE
8
BLACK
10
1.075
20
1.275
40
0.00787402
0
CIRCLE
8
BLACK
10
0.975
20
1.3
40
0.00787402
0
CIRCLE
8
BLACK
10
1.625
20
2.1
40
0.00787402
0
CIRCLE
8
BLACK
10
2.3435
20
2.775
40
0.00787402
0
CIRCLE
8
BLACK
10
1
20
2.225
40
0.00787402
0
CIRCLE
8
BLACK
10
2.55
20
0.9
40
0.00787402
0
CIRCLE
8
BLACK
10
1.725
20
2.2
40
0.00787402
0
CIRCLE
8
BLACK
10
1.525
20
2.225
40
0.00787402
0
CIRCLE
8
BLACK
10
1.45
20
1.775
40
0.00787402
0
CIRCLE
8
BLACK
10
2.175
20
1.05
40
0.00787402
0
CIRCLE
8
BLACK
10
1.6
20
3.4
40
0.00787402
0
CIRCLE
8
BLACK
10
1.625
20
2.15
40
0.00787402
0
CIRCLE
8
BLACK
10
0.45
20
2.8
40
0.00787402
0
CIRCLE
8
BLACK
10
0.25
20
1.225
40
0.00787402
0
CIRCLE
8
BLACK
10
0.45
20
2.7
40
0.00787402
0
CIRCLE
8
BLACK
10
1.55
20
3.45
40
0.00787402
0
CIRCLE
8
BLACK
10
3.125
20
2.775
40
0.00787402
0
CIRCLE
8
BLACK
10
1.525
20
2.35
40
0.00787402
0
CIRCLE
8
BLACK
10
1.675
20
3.825
40
0.00787402
0
CIRCLE
8
BLACK
10
2.35
20
0.825
40
0.00787402
0
CIRCLE
8
BLACK
10
2
20
3.45
40
0.00787402
0
CIRCLE
8
BLACK
10
1.825
20
2.025
40
0.00787402
0
CIRCLE
8
BLACK
10
2.625
20
2.975
40
0.00787402
0
CIRCLE
8
BLACK
10
0.725
20
2.175
40
0.00787402
0
CIRCLE
8
BLACK
10
0.725
20
2.1
40
0.00787402
0
CIRCLE
8
BLACK
10
2.525
20
1.55
40
0.00787402
0
CIRCLE
8
BLACK
10
0.25
20
1.3
40
0.00787402
0
CIRCLE
8
BLACK
10
1.35
20
0.15
40
0.00787402
0
CIRCLE
8
BLACK
10
2.4
20
2.4
40
0.00787402
0
CIRCLE
8
BLACK
10
2.6
20
2.4125
40
0.00787402
0
CIRCLE
8
BLACK
10
1.35
20
2.775
40
0.00787402
0
CIRCLE
8
BLACK
10
2.32931
20
1.60431
40
0.00787402
0
CIRCLE
8
BLACK
10
2.59547
20
1.9
40
0.00787402
0
CIRCLE
8
BLACK
10
1.35
20
2.975
40
0.00787402
0
CIRCLE
8
BLACK
10
1.975
20
2.8935
40
0.00787402
0
CIRCLE
8
BLACK
10
2.225
20
3.125
40
0.00787402
0
CIRCLE
8
BLACK
10
2.6185
20
1.975
40
0.00787402
0
CIRCLE
8
BLACK
10
2.69
20
2.05
40
0.00787402
0
CIRCLE
8
BLACK
10
2.275
20
3.375
40
0.00787402
0
CIRCLE
8
BLACK
10
2.525
20
3.4
40
0.00787402
0
CIRCLE
8
BLACK
10
2.625
20
3.4
40
0.00787402
0
CIRCLE
8
BLACK
10
1.775
20
1.75
40
0.00787402
0
CIRCLE
8
BLACK
10
1.575
20
1.75
40
0.00787402
0
CIRCLE
8
BLACK
10
2.38477
20
3.29023
40
0.00787402
0
CIRCLE
8
BLACK
10
2.675
20
3.45
40
0.00787402
0
CIRCLE
8
BLACK
10
2.44941
20
3.45
40
0.00787402
0
CIRCLE
8
BLACK
10
1.275
20
1.75
40
0.00787402
0
CIRCLE
8
BLACK
10
1.175
20
1.75
40
0.00787402
0
CIRCLE
8
BLACK
10
2.325
20
3.325
40
0.00787402
0
CIRCLE
8
BLACK
10
0.625
20
0.525
40
0.00787402
0
CIRCLE
8
BLACK
10
1.8
20
3.15
40
0.00787402
0
CIRCLE
8
BLACK
10
2.1935
20
3.075
40
0.00787402
0
CIRCLE
8
BLACK
10
2.15
20
2.3
40
0.00787402
0
CIRCLE
8
BLACK
10
2.28799
20
2.3
40
0.00787402
0
CIRCLE
8
BLACK
10
2.49454
20
1.39454
40
0.00787402
0
CIRCLE
8
BLACK
10
2.9
20
3.275
40
0.00787402
0
CIRCLE
8
BLACK
10
2.75
20
3.3375
40
0.00787402
  0
ENDSEC
  0
EOF
