  0
SECTION
  2
HEADER
  9
$ANGBASE
  50
0.0
  9
$ANGDIR
  70
1
  9
$MEASUREMENT
  70
0
  0
ENDSEC
  0
SECTION
  2
TABLES
  0
TABLE
  2
LTYPE
  70
4
  0
LTYPE
  5
40F
  2
CONTINUOUS
  70
0
  3
Solid line
  72
65
  73
0
  40
0.0
  0
LTYPE
  5
410
  2
DASHDOT
 70
0
  3
Dash Dot ____ _ ____ _
 72
65
 73
4
 40
2.0
 49
1.25
 49
-0.25
 49
0.25
 49
-0.25
  0
LTYPE
  5
411
  2
DASHED
 70
0
  3
Dashed __ __ __ __ __
 72
65
 73
2
 40
0.75
 49
0.5
 49
-0.25
  0
LTYPE
  5
43B
  2
DOTTED
 70
0
  3
Dotted .  .  .  .
 72
65
 73
2
 40
0.2
 49
0.0
 49
-0.2
  0
ENDTAB
  0
TABLE
  2
STYLE
  70
4
  0
STYLE
  2
KICAD
  70
0
  40
0
  41
1
  42
1
  50
0
  71
0
  3
isocp.shx
  0
STYLE
  2
KICADB
  70
0
  40
0
  41
1
  42
1
  50
0
  71
0
  3
isocp.shx
  0
STYLE
  2
KICADI
  70
0
  40
0
  41
1
  42
1
  50
15
  71
0
  3
isocp.shx
  0
STYLE
  2
KICADBI
  70
0
  40
0
  41
1
  42
1
  50
15
  71
0
  3
isocp.shx
  0
ENDTAB
  0
TABLE
  2
LAYER
  70
1
  0
LAYER
  2
BLACK
  70
0
  62
7
  6
CONTINUOUS
  0
ENDTAB
  0
ENDSEC
  0
SECTION
  2
ENTITIES
0
LINE
8
BLACK
6
CONTINUOUS
10
2.22946
20
0.147248
11
2.23868
21
0.144081
0
LINE
8
BLACK
6
CONTINUOUS
10
2.23868
20
0.144081
11
2.24726
21
0.139439
0
LINE
8
BLACK
6
CONTINUOUS
10
2.24726
20
0.139439
11
2.25496
21
0.133448
0
LINE
8
BLACK
6
CONTINUOUS
10
2.25496
20
0.133448
11
2.26156
21
0.126272
0
LINE
8
BLACK
6
CONTINUOUS
10
2.26156
20
0.126272
11
2.2669
21
0.118107
0
LINE
8
BLACK
6
CONTINUOUS
10
2.2669
20
0.118107
11
2.27082
21
0.109175
0
LINE
8
BLACK
6
CONTINUOUS
10
2.27082
20
0.109175
11
2.27321
21
0.0997202
0
LINE
8
BLACK
6
CONTINUOUS
10
2.27321
20
0.0997202
11
2.27402
21
0.09
0
LINE
8
BLACK
6
CONTINUOUS
10
2.27402
20
0.09
11
2.27321
21
0.0802798
0
LINE
8
BLACK
6
CONTINUOUS
10
2.27321
20
0.0802798
11
2.27082
21
0.0708248
0
LINE
8
BLACK
6
CONTINUOUS
10
2.27082
20
0.0708248
11
2.2669
21
0.0618929
0
LINE
8
BLACK
6
CONTINUOUS
10
2.2669
20
0.0618929
11
2.26156
21
0.0537276
0
LINE
8
BLACK
6
CONTINUOUS
10
2.26156
20
0.0537276
11
2.25496
21
0.0465517
0
LINE
8
BLACK
6
CONTINUOUS
10
2.25496
20
0.0465517
11
2.24726
21
0.040561
0
LINE
8
BLACK
6
CONTINUOUS
10
2.24726
20
0.040561
11
2.23868
21
0.0359189
0
LINE
8
BLACK
6
CONTINUOUS
10
2.23868
20
0.0359189
11
2.22946
21
0.032752
0
LINE
8
BLACK
6
CONTINUOUS
10
2.22946
20
0.032752
11
2.21984
21
0.0311466
0
LINE
8
BLACK
6
CONTINUOUS
10
2.21984
20
0.0311466
11
2.21008
21
0.0311466
0
LINE
8
BLACK
6
CONTINUOUS
10
2.21008
20
0.0311466
11
2.20046
21
0.032752
0
LINE
8
BLACK
6
CONTINUOUS
10
2.20046
20
0.032752
11
2.19124
21
0.0359189
0
LINE
8
BLACK
6
CONTINUOUS
10
2.19124
20
0.0359189
11
2.18266
21
0.040561
0
LINE
8
BLACK
6
CONTINUOUS
10
2.18266
20
0.040561
11
2.17496
21
0.0465517
0
LINE
8
BLACK
6
CONTINUOUS
10
2.17496
20
0.0465517
11
2.16836
21
0.0537276
0
LINE
8
BLACK
6
CONTINUOUS
10
2.16836
20
0.0537276
11
2.16302
21
0.0618929
0
LINE
8
BLACK
6
CONTINUOUS
10
2.16302
20
0.0618929
11
2.15911
21
0.0708248
0
LINE
8
BLACK
6
CONTINUOUS
10
2.15911
20
0.0708248
11
2.15671
21
0.0802798
0
LINE
8
BLACK
6
CONTINUOUS
10
2.15671
20
0.0802798
11
2.15591
21
0.09
0
LINE
8
BLACK
6
CONTINUOUS
10
2.15591
20
0.09
11
2.15671
21
0.0997202
0
LINE
8
BLACK
6
CONTINUOUS
10
2.15671
20
0.0997202
11
2.15911
21
0.109175
0
LINE
8
BLACK
6
CONTINUOUS
10
2.15911
20
0.109175
11
2.16302
21
0.118107
0
LINE
8
BLACK
6
CONTINUOUS
10
2.16302
20
0.118107
11
2.16836
21
0.126272
0
LINE
8
BLACK
6
CONTINUOUS
10
2.16836
20
0.126272
11
2.17496
21
0.133448
0
LINE
8
BLACK
6
CONTINUOUS
10
2.17496
20
0.133448
11
2.18266
21
0.139439
0
LINE
8
BLACK
6
CONTINUOUS
10
2.18266
20
0.139439
11
2.19124
21
0.144081
0
LINE
8
BLACK
6
CONTINUOUS
10
2.19124
20
0.144081
11
2.20046
21
0.147248
0
LINE
8
BLACK
6
CONTINUOUS
10
2.20046
20
0.147248
11
2.21008
21
0.148853
0
LINE
8
BLACK
6
CONTINUOUS
10
2.21008
20
0.148853
11
2.21984
21
0.148853
0
LINE
8
BLACK
6
CONTINUOUS
10
2.21984
20
0.148853
11
2.22946
21
0.147248
0
LINE
8
BLACK
6
CONTINUOUS
10
2.74954
20
0.147248
11
2.75876
21
0.144081
0
LINE
8
BLACK
6
CONTINUOUS
10
2.75876
20
0.144081
11
2.76734
21
0.139439
0
LINE
8
BLACK
6
CONTINUOUS
10
2.76734
20
0.139439
11
2.77504
21
0.133448
0
LINE
8
BLACK
6
CONTINUOUS
10
2.77504
20
0.133448
11
2.78164
21
0.126272
0
LINE
8
BLACK
6
CONTINUOUS
10
2.78164
20
0.126272
11
2.78698
21
0.118107
0
LINE
8
BLACK
6
CONTINUOUS
10
2.78698
20
0.118107
11
2.79089
21
0.109175
0
LINE
8
BLACK
6
CONTINUOUS
10
2.79089
20
0.109175
11
2.79329
21
0.0997202
0
LINE
8
BLACK
6
CONTINUOUS
10
2.79329
20
0.0997202
11
2.79409
21
0.09
0
LINE
8
BLACK
6
CONTINUOUS
10
2.79409
20
0.09
11
2.79329
21
0.0802798
0
LINE
8
BLACK
6
CONTINUOUS
10
2.79329
20
0.0802798
11
2.79089
21
0.0708248
0
LINE
8
BLACK
6
CONTINUOUS
10
2.79089
20
0.0708248
11
2.78698
21
0.0618929
0
LINE
8
BLACK
6
CONTINUOUS
10
2.78698
20
0.0618929
11
2.78164
21
0.0537276
0
LINE
8
BLACK
6
CONTINUOUS
10
2.78164
20
0.0537276
11
2.77504
21
0.0465517
0
LINE
8
BLACK
6
CONTINUOUS
10
2.77504
20
0.0465517
11
2.76734
21
0.040561
0
LINE
8
BLACK
6
CONTINUOUS
10
2.76734
20
0.040561
11
2.75876
21
0.0359189
0
LINE
8
BLACK
6
CONTINUOUS
10
2.75876
20
0.0359189
11
2.74954
21
0.032752
0
LINE
8
BLACK
6
CONTINUOUS
10
2.74954
20
0.032752
11
2.73992
21
0.0311466
0
LINE
8
BLACK
6
CONTINUOUS
10
2.73992
20
0.0311466
11
2.73016
21
0.0311466
0
LINE
8
BLACK
6
CONTINUOUS
10
2.73016
20
0.0311466
11
2.72054
21
0.032752
0
LINE
8
BLACK
6
CONTINUOUS
10
2.72054
20
0.032752
11
2.71132
21
0.0359189
0
LINE
8
BLACK
6
CONTINUOUS
10
2.71132
20
0.0359189
11
2.70274
21
0.040561
0
LINE
8
BLACK
6
CONTINUOUS
10
2.70274
20
0.040561
11
2.69504
21
0.0465517
0
LINE
8
BLACK
6
CONTINUOUS
10
2.69504
20
0.0465517
11
2.68844
21
0.0537276
0
LINE
8
BLACK
6
CONTINUOUS
10
2.68844
20
0.0537276
11
2.6831
21
0.0618929
0
LINE
8
BLACK
6
CONTINUOUS
10
2.6831
20
0.0618929
11
2.67918
21
0.0708248
0
LINE
8
BLACK
6
CONTINUOUS
10
2.67918
20
0.0708248
11
2.67679
21
0.0802798
0
LINE
8
BLACK
6
CONTINUOUS
10
2.67679
20
0.0802798
11
2.67598
21
0.09
0
LINE
8
BLACK
6
CONTINUOUS
10
2.67598
20
0.09
11
2.67679
21
0.0997202
0
LINE
8
BLACK
6
CONTINUOUS
10
2.67679
20
0.0997202
11
2.67918
21
0.109175
0
LINE
8
BLACK
6
CONTINUOUS
10
2.67918
20
0.109175
11
2.6831
21
0.118107
0
LINE
8
BLACK
6
CONTINUOUS
10
2.6831
20
0.118107
11
2.68844
21
0.126272
0
LINE
8
BLACK
6
CONTINUOUS
10
2.68844
20
0.126272
11
2.69504
21
0.133448
0
LINE
8
BLACK
6
CONTINUOUS
10
2.69504
20
0.133448
11
2.70274
21
0.139439
0
LINE
8
BLACK
6
CONTINUOUS
10
2.70274
20
0.139439
11
2.71132
21
0.144081
0
LINE
8
BLACK
6
CONTINUOUS
10
2.71132
20
0.144081
11
2.72054
21
0.147248
0
LINE
8
BLACK
6
CONTINUOUS
10
2.72054
20
0.147248
11
2.73016
21
0.148853
0
LINE
8
BLACK
6
CONTINUOUS
10
2.73016
20
0.148853
11
2.73992
21
0.148853
0
LINE
8
BLACK
6
CONTINUOUS
10
2.73992
20
0.148853
11
2.74954
21
0.147248
0
LINE
8
BLACK
6
CONTINUOUS
10
0.22051
20
0.316316
11
0.233874
21
0.313148
0
LINE
8
BLACK
6
CONTINUOUS
10
0.233874
20
0.313148
11
0.246781
21
0.308451
0
LINE
8
BLACK
6
CONTINUOUS
10
0.246781
20
0.308451
11
0.259055
21
0.302286
0
LINE
8
BLACK
6
CONTINUOUS
10
0.259055
20
0.302286
11
0.270531
21
0.294739
0
LINE
8
BLACK
6
CONTINUOUS
10
0.270531
20
0.294739
11
0.281052
21
0.28591
0
LINE
8
BLACK
6
CONTINUOUS
10
0.281052
20
0.28591
11
0.290478
21
0.27592
0
LINE
8
BLACK
6
CONTINUOUS
10
0.290478
20
0.27592
11
0.29868
21
0.264903
0
LINE
8
BLACK
6
CONTINUOUS
10
0.29868
20
0.264903
11
0.305547
21
0.253008
0
LINE
8
BLACK
6
CONTINUOUS
10
0.305547
20
0.253008
11
0.310987
21
0.240396
0
LINE
8
BLACK
6
CONTINUOUS
10
0.310987
20
0.240396
11
0.314927
21
0.227238
0
LINE
8
BLACK
6
CONTINUOUS
10
0.314927
20
0.227238
11
0.317312
21
0.213712
0
LINE
8
BLACK
6
CONTINUOUS
10
0.317312
20
0.213712
11
0.31811
21
0.2
0
LINE
8
BLACK
6
CONTINUOUS
10
0.31811
20
0.2
11
0.317312
21
0.186288
0
LINE
8
BLACK
6
CONTINUOUS
10
0.317312
20
0.186288
11
0.314927
21
0.172762
0
LINE
8
BLACK
6
CONTINUOUS
10
0.314927
20
0.172762
11
0.310987
21
0.159604
0
LINE
8
BLACK
6
CONTINUOUS
10
0.310987
20
0.159604
11
0.305547
21
0.146992
0
LINE
8
BLACK
6
CONTINUOUS
10
0.305547
20
0.146992
11
0.29868
21
0.135097
0
LINE
8
BLACK
6
CONTINUOUS
10
0.29868
20
0.135097
11
0.290478
21
0.12408
0
LINE
8
BLACK
6
CONTINUOUS
10
0.290478
20
0.12408
11
0.281052
21
0.11409
0
LINE
8
BLACK
6
CONTINUOUS
10
0.281052
20
0.11409
11
0.270531
21
0.105261
0
LINE
8
BLACK
6
CONTINUOUS
10
0.270531
20
0.105261
11
0.259055
21
0.0977135
0
LINE
8
BLACK
6
CONTINUOUS
10
0.259055
20
0.0977135
11
0.246781
21
0.0915493
0
LINE
8
BLACK
6
CONTINUOUS
10
0.246781
20
0.0915493
11
0.233874
21
0.0868516
0
LINE
8
BLACK
6
CONTINUOUS
10
0.233874
20
0.0868516
11
0.22051
21
0.0836841
0
LINE
8
BLACK
6
CONTINUOUS
10
0.22051
20
0.0836841
11
0.206867
21
0.0820896
0
LINE
8
BLACK
6
CONTINUOUS
10
0.206867
20
0.0820896
11
0.193133
21
0.0820896
0
LINE
8
BLACK
6
CONTINUOUS
10
0.193133
20
0.0820896
11
0.17949
21
0.0836841
0
LINE
8
BLACK
6
CONTINUOUS
10
0.17949
20
0.0836841
11
0.166126
21
0.0868516
0
LINE
8
BLACK
6
CONTINUOUS
10
0.166126
20
0.0868516
11
0.153219
21
0.0915493
0
LINE
8
BLACK
6
CONTINUOUS
10
0.153219
20
0.0915493
11
0.140945
21
0.0977135
0
LINE
8
BLACK
6
CONTINUOUS
10
0.140945
20
0.0977135
11
0.129469
21
0.105261
0
LINE
8
BLACK
6
CONTINUOUS
10
0.129469
20
0.105261
11
0.118948
21
0.11409
0
LINE
8
BLACK
6
CONTINUOUS
10
0.118948
20
0.11409
11
0.109522
21
0.12408
0
LINE
8
BLACK
6
CONTINUOUS
10
0.109522
20
0.12408
11
0.10132
21
0.135097
0
LINE
8
BLACK
6
CONTINUOUS
10
0.10132
20
0.135097
11
0.0944528
21
0.146992
0
LINE
8
BLACK
6
CONTINUOUS
10
0.0944528
20
0.146992
11
0.0890127
21
0.159604
0
LINE
8
BLACK
6
CONTINUOUS
10
0.0890127
20
0.159604
11
0.0850734
21
0.172762
0
LINE
8
BLACK
6
CONTINUOUS
10
0.0850734
20
0.172762
11
0.0826884
21
0.186288
0
LINE
8
BLACK
6
CONTINUOUS
10
0.0826884
20
0.186288
11
0.0818898
21
0.2
0
LINE
8
BLACK
6
CONTINUOUS
10
0.0818898
20
0.2
11
0.0826884
21
0.213712
0
LINE
8
BLACK
6
CONTINUOUS
10
0.0826884
20
0.213712
11
0.0850734
21
0.227238
0
LINE
8
BLACK
6
CONTINUOUS
10
0.0850734
20
0.227238
11
0.0890127
21
0.240396
0
LINE
8
BLACK
6
CONTINUOUS
10
0.0890127
20
0.240396
11
0.0944528
21
0.253008
0
LINE
8
BLACK
6
CONTINUOUS
10
0.0944528
20
0.253008
11
0.10132
21
0.264903
0
LINE
8
BLACK
6
CONTINUOUS
10
0.10132
20
0.264903
11
0.109522
21
0.27592
0
LINE
8
BLACK
6
CONTINUOUS
10
0.109522
20
0.27592
11
0.118948
21
0.28591
0
LINE
8
BLACK
6
CONTINUOUS
10
0.118948
20
0.28591
11
0.129469
21
0.294739
0
LINE
8
BLACK
6
CONTINUOUS
10
0.129469
20
0.294739
11
0.140945
21
0.302286
0
LINE
8
BLACK
6
CONTINUOUS
10
0.140945
20
0.302286
11
0.153219
21
0.308451
0
LINE
8
BLACK
6
CONTINUOUS
10
0.153219
20
0.308451
11
0.166126
21
0.313148
0
LINE
8
BLACK
6
CONTINUOUS
10
0.166126
20
0.313148
11
0.17949
21
0.316316
0
LINE
8
BLACK
6
CONTINUOUS
10
0.17949
20
0.316316
11
0.193133
21
0.31791
0
LINE
8
BLACK
6
CONTINUOUS
10
0.193133
20
0.31791
11
0.206867
21
0.31791
0
LINE
8
BLACK
6
CONTINUOUS
10
0.206867
20
0.31791
11
0.22051
21
0.316316
0
LINE
8
BLACK
6
CONTINUOUS
10
0.510433
20
0.164567
11
0.439567
21
0.164567
0
LINE
8
BLACK
6
CONTINUOUS
10
0.439567
20
0.164567
11
0.439567
21
0.235433
0
LINE
8
BLACK
6
CONTINUOUS
10
0.439567
20
0.235433
11
0.510433
21
0.235433
0
LINE
8
BLACK
6
CONTINUOUS
10
0.510433
20
0.235433
11
0.510433
21
0.164567
0
LINE
8
BLACK
6
CONTINUOUS
10
0.585949
20
0.233699
11
0.592717
21
0.230686
0
LINE
8
BLACK
6
CONTINUOUS
10
0.592717
20
0.230686
11
0.598709
21
0.226332
0
LINE
8
BLACK
6
CONTINUOUS
10
0.598709
20
0.226332
11
0.603666
21
0.220827
0
LINE
8
BLACK
6
CONTINUOUS
10
0.603666
20
0.220827
11
0.60737
21
0.214412
0
LINE
8
BLACK
6
CONTINUOUS
10
0.60737
20
0.214412
11
0.609659
21
0.207367
0
LINE
8
BLACK
6
CONTINUOUS
10
0.609659
20
0.207367
11
0.610433
21
0.2
0
LINE
8
BLACK
6
CONTINUOUS
10
0.610433
20
0.2
11
0.609659
21
0.192633
0
LINE
8
BLACK
6
CONTINUOUS
10
0.609659
20
0.192633
11
0.60737
21
0.185588
0
LINE
8
BLACK
6
CONTINUOUS
10
0.60737
20
0.185588
11
0.603666
21
0.179173
0
LINE
8
BLACK
6
CONTINUOUS
10
0.603666
20
0.179173
11
0.598709
21
0.173668
0
LINE
8
BLACK
6
CONTINUOUS
10
0.598709
20
0.173668
11
0.592717
21
0.169314
0
LINE
8
BLACK
6
CONTINUOUS
10
0.592717
20
0.169314
11
0.585949
21
0.166301
0
LINE
8
BLACK
6
CONTINUOUS
10
0.585949
20
0.166301
11
0.578704
21
0.164761
0
LINE
8
BLACK
6
CONTINUOUS
10
0.578704
20
0.164761
11
0.571296
21
0.164761
0
LINE
8
BLACK
6
CONTINUOUS
10
0.571296
20
0.164761
11
0.564051
21
0.166301
0
LINE
8
BLACK
6
CONTINUOUS
10
0.564051
20
0.166301
11
0.557283
21
0.169314
0
LINE
8
BLACK
6
CONTINUOUS
10
0.557283
20
0.169314
11
0.551291
21
0.173668
0
LINE
8
BLACK
6
CONTINUOUS
10
0.551291
20
0.173668
11
0.546334
21
0.179173
0
LINE
8
BLACK
6
CONTINUOUS
10
0.546334
20
0.179173
11
0.54263
21
0.185588
0
LINE
8
BLACK
6
CONTINUOUS
10
0.54263
20
0.185588
11
0.540341
21
0.192633
0
LINE
8
BLACK
6
CONTINUOUS
10
0.540341
20
0.192633
11
0.539567
21
0.2
0
LINE
8
BLACK
6
CONTINUOUS
10
0.539567
20
0.2
11
0.540341
21
0.207367
0
LINE
8
BLACK
6
CONTINUOUS
10
0.540341
20
0.207367
11
0.54263
21
0.214412
0
LINE
8
BLACK
6
CONTINUOUS
10
0.54263
20
0.214412
11
0.546334
21
0.220827
0
LINE
8
BLACK
6
CONTINUOUS
10
0.546334
20
0.220827
11
0.551291
21
0.226332
0
LINE
8
BLACK
6
CONTINUOUS
10
0.551291
20
0.226332
11
0.557283
21
0.230686
0
LINE
8
BLACK
6
CONTINUOUS
10
0.557283
20
0.230686
11
0.564051
21
0.233699
0
LINE
8
BLACK
6
CONTINUOUS
10
0.564051
20
0.233699
11
0.571296
21
0.235239
0
LINE
8
BLACK
6
CONTINUOUS
10
0.571296
20
0.235239
11
0.578704
21
0.235239
0
LINE
8
BLACK
6
CONTINUOUS
10
0.578704
20
0.235239
11
0.585949
21
0.233699
0
LINE
8
BLACK
6
CONTINUOUS
10
0.805
20
0.22
11
0.745
21
0.22
0
LINE
8
BLACK
6
CONTINUOUS
10
0.745
20
0.22
11
0.745
21
0.28
0
LINE
8
BLACK
6
CONTINUOUS
10
0.745
20
0.28
11
0.805
21
0.28
0
LINE
8
BLACK
6
CONTINUOUS
10
0.805
20
0.28
11
0.805
21
0.22
0
LINE
8
BLACK
6
CONTINUOUS
10
0.805
20
0.32
11
0.745
21
0.32
0
LINE
8
BLACK
6
CONTINUOUS
10
0.745
20
0.32
11
0.745
21
0.38
0
LINE
8
BLACK
6
CONTINUOUS
10
0.745
20
0.38
11
0.805
21
0.38
0
LINE
8
BLACK
6
CONTINUOUS
10
0.805
20
0.38
11
0.805
21
0.32
0
LINE
8
BLACK
6
CONTINUOUS
10
2.30446
20
0.522445
11
2.31368
21
0.519278
0
LINE
8
BLACK
6
CONTINUOUS
10
2.31368
20
0.519278
11
2.32226
21
0.514636
0
LINE
8
BLACK
6
CONTINUOUS
10
2.32226
20
0.514636
11
2.32996
21
0.508645
0
LINE
8
BLACK
6
CONTINUOUS
10
2.32996
20
0.508645
11
2.33656
21
0.501469
0
LINE
8
BLACK
6
CONTINUOUS
10
2.33656
20
0.501469
11
2.3419
21
0.493304
0
LINE
8
BLACK
6
CONTINUOUS
10
2.3419
20
0.493304
11
2.34582
21
0.484372
0
LINE
8
BLACK
6
CONTINUOUS
10
2.34582
20
0.484372
11
2.34821
21
0.474917
0
LINE
8
BLACK
6
CONTINUOUS
10
2.34821
20
0.474917
11
2.34902
21
0.465197
0
LINE
8
BLACK
6
CONTINUOUS
10
2.34902
20
0.465197
11
2.34821
21
0.455477
0
LINE
8
BLACK
6
CONTINUOUS
10
2.34821
20
0.455477
11
2.34582
21
0.446022
0
LINE
8
BLACK
6
CONTINUOUS
10
2.34582
20
0.446022
11
2.3419
21
0.43709
0
LINE
8
BLACK
6
CONTINUOUS
10
2.3419
20
0.43709
11
2.33656
21
0.428924
0
LINE
8
BLACK
6
CONTINUOUS
10
2.33656
20
0.428924
11
2.32996
21
0.421749
0
LINE
8
BLACK
6
CONTINUOUS
10
2.32996
20
0.421749
11
2.32226
21
0.415758
0
LINE
8
BLACK
6
CONTINUOUS
10
2.32226
20
0.415758
11
2.31368
21
0.411116
0
LINE
8
BLACK
6
CONTINUOUS
10
2.31368
20
0.411116
11
2.30446
21
0.407949
0
LINE
8
BLACK
6
CONTINUOUS
10
2.30446
20
0.407949
11
2.29484
21
0.406343
0
LINE
8
BLACK
6
CONTINUOUS
10
2.29484
20
0.406343
11
2.28508
21
0.406343
0
LINE
8
BLACK
6
CONTINUOUS
10
2.28508
20
0.406343
11
2.27546
21
0.407949
0
LINE
8
BLACK
6
CONTINUOUS
10
2.27546
20
0.407949
11
2.26624
21
0.411116
0
LINE
8
BLACK
6
CONTINUOUS
10
2.26624
20
0.411116
11
2.25766
21
0.415758
0
LINE
8
BLACK
6
CONTINUOUS
10
2.25766
20
0.415758
11
2.24996
21
0.421749
0
LINE
8
BLACK
6
CONTINUOUS
10
2.24996
20
0.421749
11
2.24336
21
0.428924
0
LINE
8
BLACK
6
CONTINUOUS
10
2.24336
20
0.428924
11
2.23802
21
0.43709
0
LINE
8
BLACK
6
CONTINUOUS
10
2.23802
20
0.43709
11
2.23411
21
0.446022
0
LINE
8
BLACK
6
CONTINUOUS
10
2.23411
20
0.446022
11
2.23171
21
0.455477
0
LINE
8
BLACK
6
CONTINUOUS
10
2.23171
20
0.455477
11
2.23091
21
0.465197
0
LINE
8
BLACK
6
CONTINUOUS
10
2.23091
20
0.465197
11
2.23171
21
0.474917
0
LINE
8
BLACK
6
CONTINUOUS
10
2.23171
20
0.474917
11
2.23411
21
0.484372
0
LINE
8
BLACK
6
CONTINUOUS
10
2.23411
20
0.484372
11
2.23802
21
0.493304
0
LINE
8
BLACK
6
CONTINUOUS
10
2.23802
20
0.493304
11
2.24336
21
0.501469
0
LINE
8
BLACK
6
CONTINUOUS
10
2.24336
20
0.501469
11
2.24996
21
0.508645
0
LINE
8
BLACK
6
CONTINUOUS
10
2.24996
20
0.508645
11
2.25766
21
0.514636
0
LINE
8
BLACK
6
CONTINUOUS
10
2.25766
20
0.514636
11
2.26624
21
0.519278
0
LINE
8
BLACK
6
CONTINUOUS
10
2.26624
20
0.519278
11
2.27546
21
0.522445
0
LINE
8
BLACK
6
CONTINUOUS
10
2.27546
20
0.522445
11
2.28508
21
0.52405
0
LINE
8
BLACK
6
CONTINUOUS
10
2.28508
20
0.52405
11
2.29484
21
0.52405
0
LINE
8
BLACK
6
CONTINUOUS
10
2.29484
20
0.52405
11
2.30446
21
0.522445
0
LINE
8
BLACK
6
CONTINUOUS
10
2.4895
20
0.522445
11
2.49872
21
0.519278
0
LINE
8
BLACK
6
CONTINUOUS
10
2.49872
20
0.519278
11
2.5073
21
0.514636
0
LINE
8
BLACK
6
CONTINUOUS
10
2.5073
20
0.514636
11
2.515
21
0.508645
0
LINE
8
BLACK
6
CONTINUOUS
10
2.515
20
0.508645
11
2.5216
21
0.501469
0
LINE
8
BLACK
6
CONTINUOUS
10
2.5216
20
0.501469
11
2.52694
21
0.493304
0
LINE
8
BLACK
6
CONTINUOUS
10
2.52694
20
0.493304
11
2.53086
21
0.484372
0
LINE
8
BLACK
6
CONTINUOUS
10
2.53086
20
0.484372
11
2.53325
21
0.474917
0
LINE
8
BLACK
6
CONTINUOUS
10
2.53325
20
0.474917
11
2.53406
21
0.465197
0
LINE
8
BLACK
6
CONTINUOUS
10
2.53406
20
0.465197
11
2.53325
21
0.455477
0
LINE
8
BLACK
6
CONTINUOUS
10
2.53325
20
0.455477
11
2.53086
21
0.446022
0
LINE
8
BLACK
6
CONTINUOUS
10
2.53086
20
0.446022
11
2.52694
21
0.43709
0
LINE
8
BLACK
6
CONTINUOUS
10
2.52694
20
0.43709
11
2.5216
21
0.428924
0
LINE
8
BLACK
6
CONTINUOUS
10
2.5216
20
0.428924
11
2.515
21
0.421749
0
LINE
8
BLACK
6
CONTINUOUS
10
2.515
20
0.421749
11
2.5073
21
0.415758
0
LINE
8
BLACK
6
CONTINUOUS
10
2.5073
20
0.415758
11
2.49872
21
0.411116
0
LINE
8
BLACK
6
CONTINUOUS
10
2.49872
20
0.411116
11
2.4895
21
0.407949
0
LINE
8
BLACK
6
CONTINUOUS
10
2.4895
20
0.407949
11
2.47988
21
0.406343
0
LINE
8
BLACK
6
CONTINUOUS
10
2.47988
20
0.406343
11
2.47012
21
0.406343
0
LINE
8
BLACK
6
CONTINUOUS
10
2.47012
20
0.406343
11
2.4605
21
0.407949
0
LINE
8
BLACK
6
CONTINUOUS
10
2.4605
20
0.407949
11
2.45128
21
0.411116
0
LINE
8
BLACK
6
CONTINUOUS
10
2.45128
20
0.411116
11
2.4427
21
0.415758
0
LINE
8
BLACK
6
CONTINUOUS
10
2.4427
20
0.415758
11
2.435
21
0.421749
0
LINE
8
BLACK
6
CONTINUOUS
10
2.435
20
0.421749
11
2.4284
21
0.428924
0
LINE
8
BLACK
6
CONTINUOUS
10
2.4284
20
0.428924
11
2.42306
21
0.43709
0
LINE
8
BLACK
6
CONTINUOUS
10
2.42306
20
0.43709
11
2.41914
21
0.446022
0
LINE
8
BLACK
6
CONTINUOUS
10
2.41914
20
0.446022
11
2.41675
21
0.455477
0
LINE
8
BLACK
6
CONTINUOUS
10
2.41675
20
0.455477
11
2.41594
21
0.465197
0
LINE
8
BLACK
6
CONTINUOUS
10
2.41594
20
0.465197
11
2.41675
21
0.474917
0
LINE
8
BLACK
6
CONTINUOUS
10
2.41675
20
0.474917
11
2.41914
21
0.484372
0
LINE
8
BLACK
6
CONTINUOUS
10
2.41914
20
0.484372
11
2.42306
21
0.493304
0
LINE
8
BLACK
6
CONTINUOUS
10
2.42306
20
0.493304
11
2.4284
21
0.501469
0
LINE
8
BLACK
6
CONTINUOUS
10
2.4284
20
0.501469
11
2.435
21
0.508645
0
LINE
8
BLACK
6
CONTINUOUS
10
2.435
20
0.508645
11
2.4427
21
0.514636
0
LINE
8
BLACK
6
CONTINUOUS
10
2.4427
20
0.514636
11
2.45128
21
0.519278
0
LINE
8
BLACK
6
CONTINUOUS
10
2.45128
20
0.519278
11
2.4605
21
0.522445
0
LINE
8
BLACK
6
CONTINUOUS
10
2.4605
20
0.522445
11
2.47012
21
0.52405
0
LINE
8
BLACK
6
CONTINUOUS
10
2.47012
20
0.52405
11
2.47988
21
0.52405
0
LINE
8
BLACK
6
CONTINUOUS
10
2.47988
20
0.52405
11
2.4895
21
0.522445
0
LINE
8
BLACK
6
CONTINUOUS
10
2.67454
20
0.522445
11
2.68376
21
0.519278
0
LINE
8
BLACK
6
CONTINUOUS
10
2.68376
20
0.519278
11
2.69234
21
0.514636
0
LINE
8
BLACK
6
CONTINUOUS
10
2.69234
20
0.514636
11
2.70004
21
0.508645
0
LINE
8
BLACK
6
CONTINUOUS
10
2.70004
20
0.508645
11
2.70664
21
0.501469
0
LINE
8
BLACK
6
CONTINUOUS
10
2.70664
20
0.501469
11
2.71198
21
0.493304
0
LINE
8
BLACK
6
CONTINUOUS
10
2.71198
20
0.493304
11
2.71589
21
0.484372
0
LINE
8
BLACK
6
CONTINUOUS
10
2.71589
20
0.484372
11
2.71829
21
0.474917
0
LINE
8
BLACK
6
CONTINUOUS
10
2.71829
20
0.474917
11
2.71909
21
0.465197
0
LINE
8
BLACK
6
CONTINUOUS
10
2.71909
20
0.465197
11
2.71829
21
0.455477
0
LINE
8
BLACK
6
CONTINUOUS
10
2.71829
20
0.455477
11
2.71589
21
0.446022
0
LINE
8
BLACK
6
CONTINUOUS
10
2.71589
20
0.446022
11
2.71198
21
0.43709
0
LINE
8
BLACK
6
CONTINUOUS
10
2.71198
20
0.43709
11
2.70664
21
0.428924
0
LINE
8
BLACK
6
CONTINUOUS
10
2.70664
20
0.428924
11
2.70004
21
0.421749
0
LINE
8
BLACK
6
CONTINUOUS
10
2.70004
20
0.421749
11
2.69234
21
0.415758
0
LINE
8
BLACK
6
CONTINUOUS
10
2.69234
20
0.415758
11
2.68376
21
0.411116
0
LINE
8
BLACK
6
CONTINUOUS
10
2.68376
20
0.411116
11
2.67454
21
0.407949
0
LINE
8
BLACK
6
CONTINUOUS
10
2.67454
20
0.407949
11
2.66492
21
0.406343
0
LINE
8
BLACK
6
CONTINUOUS
10
2.66492
20
0.406343
11
2.65516
21
0.406343
0
LINE
8
BLACK
6
CONTINUOUS
10
2.65516
20
0.406343
11
2.64554
21
0.407949
0
LINE
8
BLACK
6
CONTINUOUS
10
2.64554
20
0.407949
11
2.63632
21
0.411116
0
LINE
8
BLACK
6
CONTINUOUS
10
2.63632
20
0.411116
11
2.62774
21
0.415758
0
LINE
8
BLACK
6
CONTINUOUS
10
2.62774
20
0.415758
11
2.62004
21
0.421749
0
LINE
8
BLACK
6
CONTINUOUS
10
2.62004
20
0.421749
11
2.61344
21
0.428924
0
LINE
8
BLACK
6
CONTINUOUS
10
2.61344
20
0.428924
11
2.6081
21
0.43709
0
LINE
8
BLACK
6
CONTINUOUS
10
2.6081
20
0.43709
11
2.60418
21
0.446022
0
LINE
8
BLACK
6
CONTINUOUS
10
2.60418
20
0.446022
11
2.60179
21
0.455477
0
LINE
8
BLACK
6
CONTINUOUS
10
2.60179
20
0.455477
11
2.60098
21
0.465197
0
LINE
8
BLACK
6
CONTINUOUS
10
2.60098
20
0.465197
11
2.60179
21
0.474917
0
LINE
8
BLACK
6
CONTINUOUS
10
2.60179
20
0.474917
11
2.60418
21
0.484372
0
LINE
8
BLACK
6
CONTINUOUS
10
2.60418
20
0.484372
11
2.6081
21
0.493304
0
LINE
8
BLACK
6
CONTINUOUS
10
2.6081
20
0.493304
11
2.61344
21
0.501469
0
LINE
8
BLACK
6
CONTINUOUS
10
2.61344
20
0.501469
11
2.62004
21
0.508645
0
LINE
8
BLACK
6
CONTINUOUS
10
2.62004
20
0.508645
11
2.62774
21
0.514636
0
LINE
8
BLACK
6
CONTINUOUS
10
2.62774
20
0.514636
11
2.63632
21
0.519278
0
LINE
8
BLACK
6
CONTINUOUS
10
2.63632
20
0.519278
11
2.64554
21
0.522445
0
LINE
8
BLACK
6
CONTINUOUS
10
2.64554
20
0.522445
11
2.65516
21
0.52405
0
LINE
8
BLACK
6
CONTINUOUS
10
2.65516
20
0.52405
11
2.66492
21
0.52405
0
LINE
8
BLACK
6
CONTINUOUS
10
2.66492
20
0.52405
11
2.67454
21
0.522445
0
LINE
8
BLACK
6
CONTINUOUS
10
2.93
20
0.42
11
2.87
21
0.42
0
LINE
8
BLACK
6
CONTINUOUS
10
2.87
20
0.42
11
2.87
21
0.48
0
LINE
8
BLACK
6
CONTINUOUS
10
2.87
20
0.48
11
2.93
21
0.48
0
LINE
8
BLACK
6
CONTINUOUS
10
2.93
20
0.48
11
2.93
21
0.42
0
LINE
8
BLACK
6
CONTINUOUS
10
3.03
20
0.42
11
2.97
21
0.42
0
LINE
8
BLACK
6
CONTINUOUS
10
2.97
20
0.42
11
2.97
21
0.48
0
LINE
8
BLACK
6
CONTINUOUS
10
2.97
20
0.48
11
3.03
21
0.48
0
LINE
8
BLACK
6
CONTINUOUS
10
3.03
20
0.48
11
3.03
21
0.42
0
LINE
8
BLACK
6
CONTINUOUS
10
3.13
20
0.42
11
3.07
21
0.42
0
LINE
8
BLACK
6
CONTINUOUS
10
3.07
20
0.42
11
3.07
21
0.48
0
LINE
8
BLACK
6
CONTINUOUS
10
3.07
20
0.48
11
3.13
21
0.48
0
LINE
8
BLACK
6
CONTINUOUS
10
3.13
20
0.48
11
3.13
21
0.42
0
LINE
8
BLACK
6
CONTINUOUS
10
2.93
20
0.52
11
2.87
21
0.52
0
LINE
8
BLACK
6
CONTINUOUS
10
2.87
20
0.52
11
2.87
21
0.58
0
LINE
8
BLACK
6
CONTINUOUS
10
2.87
20
0.58
11
2.93
21
0.58
0
LINE
8
BLACK
6
CONTINUOUS
10
2.93
20
0.58
11
2.93
21
0.52
0
LINE
8
BLACK
6
CONTINUOUS
10
3.03
20
0.52
11
2.97
21
0.52
0
LINE
8
BLACK
6
CONTINUOUS
10
2.97
20
0.52
11
2.97
21
0.58
0
LINE
8
BLACK
6
CONTINUOUS
10
2.97
20
0.58
11
3.03
21
0.58
0
LINE
8
BLACK
6
CONTINUOUS
10
3.03
20
0.58
11
3.03
21
0.52
0
LINE
8
BLACK
6
CONTINUOUS
10
3.13
20
0.52
11
3.07
21
0.52
0
LINE
8
BLACK
6
CONTINUOUS
10
3.07
20
0.52
11
3.07
21
0.58
0
LINE
8
BLACK
6
CONTINUOUS
10
3.07
20
0.58
11
3.13
21
0.58
0
LINE
8
BLACK
6
CONTINUOUS
10
3.13
20
0.58
11
3.13
21
0.52
0
LINE
8
BLACK
6
CONTINUOUS
10
3.03
20
0.62
11
2.97
21
0.62
0
LINE
8
BLACK
6
CONTINUOUS
10
2.97
20
0.62
11
2.97
21
0.68
0
LINE
8
BLACK
6
CONTINUOUS
10
2.97
20
0.68
11
3.03
21
0.68
0
LINE
8
BLACK
6
CONTINUOUS
10
3.03
20
0.68
11
3.03
21
0.62
0
LINE
8
BLACK
6
CONTINUOUS
10
3.03
20
0.72
11
2.97
21
0.72
0
LINE
8
BLACK
6
CONTINUOUS
10
2.97
20
0.72
11
2.97
21
0.78
0
LINE
8
BLACK
6
CONTINUOUS
10
2.97
20
0.78
11
3.03
21
0.78
0
LINE
8
BLACK
6
CONTINUOUS
10
3.03
20
0.78
11
3.03
21
0.72
0
LINE
8
BLACK
6
CONTINUOUS
10
2.93
20
0.82
11
2.87
21
0.82
0
LINE
8
BLACK
6
CONTINUOUS
10
2.87
20
0.82
11
2.87
21
0.88
0
LINE
8
BLACK
6
CONTINUOUS
10
2.87
20
0.88
11
2.93
21
0.88
0
LINE
8
BLACK
6
CONTINUOUS
10
2.93
20
0.88
11
2.93
21
0.82
0
LINE
8
BLACK
6
CONTINUOUS
10
3.03
20
0.82
11
2.97
21
0.82
0
LINE
8
BLACK
6
CONTINUOUS
10
2.97
20
0.82
11
2.97
21
0.88
0
LINE
8
BLACK
6
CONTINUOUS
10
2.97
20
0.88
11
3.03
21
0.88
0
LINE
8
BLACK
6
CONTINUOUS
10
3.03
20
0.88
11
3.03
21
0.82
0
LINE
8
BLACK
6
CONTINUOUS
10
3.13
20
0.82
11
3.07
21
0.82
0
LINE
8
BLACK
6
CONTINUOUS
10
3.07
20
0.82
11
3.07
21
0.88
0
LINE
8
BLACK
6
CONTINUOUS
10
3.07
20
0.88
11
3.13
21
0.88
0
LINE
8
BLACK
6
CONTINUOUS
10
3.13
20
0.88
11
3.13
21
0.82
0
LINE
8
BLACK
6
CONTINUOUS
10
1.08299
20
0.941927
11
1.08965
21
0.939597
0
LINE
8
BLACK
6
CONTINUOUS
10
1.08965
20
0.939597
11
1.09562
21
0.935845
0
LINE
8
BLACK
6
CONTINUOUS
10
1.09562
20
0.935845
11
1.10061
21
0.930858
0
LINE
8
BLACK
6
CONTINUOUS
10
1.10061
20
0.930858
11
1.10436
21
0.924886
0
LINE
8
BLACK
6
CONTINUOUS
10
1.10436
20
0.924886
11
1.10669
21
0.918229
0
LINE
8
BLACK
6
CONTINUOUS
10
1.10669
20
0.918229
11
1.10748
21
0.91122
0
LINE
8
BLACK
6
CONTINUOUS
10
1.10748
20
0.91122
11
1.10669
21
0.904212
0
LINE
8
BLACK
6
CONTINUOUS
10
1.10669
20
0.904212
11
1.10436
21
0.897555
0
LINE
8
BLACK
6
CONTINUOUS
10
1.10436
20
0.897555
11
1.10061
21
0.891583
0
LINE
8
BLACK
6
CONTINUOUS
10
1.10061
20
0.891583
11
1.09562
21
0.886596
0
LINE
8
BLACK
6
CONTINUOUS
10
1.09562
20
0.886596
11
1.08965
21
0.882844
0
LINE
8
BLACK
6
CONTINUOUS
10
1.08965
20
0.882844
11
1.08299
21
0.880514
0
LINE
8
BLACK
6
CONTINUOUS
10
1.08299
20
0.880514
11
1.07598
21
0.879724
0
LINE
8
BLACK
6
CONTINUOUS
10
1.07598
20
0.879724
11
1.06898
21
0.880514
0
LINE
8
BLACK
6
CONTINUOUS
10
1.06898
20
0.880514
11
1.06232
21
0.882844
0
LINE
8
BLACK
6
CONTINUOUS
10
1.06232
20
0.882844
11
1.05635
21
0.886596
0
LINE
8
BLACK
6
CONTINUOUS
10
1.05635
20
0.886596
11
1.05136
21
0.891583
0
LINE
8
BLACK
6
CONTINUOUS
10
1.05136
20
0.891583
11
1.04761
21
0.897555
0
LINE
8
BLACK
6
CONTINUOUS
10
1.04761
20
0.897555
11
1.04528
21
0.904212
0
LINE
8
BLACK
6
CONTINUOUS
10
1.04528
20
0.904212
11
1.04449
21
0.91122
0
LINE
8
BLACK
6
CONTINUOUS
10
1.04449
20
0.91122
11
1.04528
21
0.918229
0
LINE
8
BLACK
6
CONTINUOUS
10
1.04528
20
0.918229
11
1.04761
21
0.924886
0
LINE
8
BLACK
6
CONTINUOUS
10
1.04761
20
0.924886
11
1.05136
21
0.930858
0
LINE
8
BLACK
6
CONTINUOUS
10
1.05136
20
0.930858
11
1.05635
21
0.935845
0
LINE
8
BLACK
6
CONTINUOUS
10
1.05635
20
0.935845
11
1.06232
21
0.939597
0
LINE
8
BLACK
6
CONTINUOUS
10
1.06232
20
0.939597
11
1.06898
21
0.941927
0
LINE
8
BLACK
6
CONTINUOUS
10
1.06898
20
0.941927
11
1.07598
21
0.942717
0
LINE
8
BLACK
6
CONTINUOUS
10
1.07598
20
0.942717
11
1.08299
21
0.941927
0
LINE
8
BLACK
6
CONTINUOUS
10
1.90836
20
0.932136
11
1.91358
21
0.929973
0
LINE
8
BLACK
6
CONTINUOUS
10
1.91358
20
0.929973
11
1.91807
21
0.926532
0
LINE
8
BLACK
6
CONTINUOUS
10
1.91807
20
0.926532
11
1.92151
21
0.922047
0
LINE
8
BLACK
6
CONTINUOUS
10
1.92151
20
0.922047
11
1.92367
21
0.916825
0
LINE
8
BLACK
6
CONTINUOUS
10
1.92367
20
0.916825
11
1.92441
21
0.91122
0
LINE
8
BLACK
6
CONTINUOUS
10
1.92441
20
0.91122
11
1.92367
21
0.905616
0
LINE
8
BLACK
6
CONTINUOUS
10
1.92367
20
0.905616
11
1.92151
21
0.900394
0
LINE
8
BLACK
6
CONTINUOUS
10
1.92151
20
0.900394
11
1.91807
21
0.895909
0
LINE
8
BLACK
6
CONTINUOUS
10
1.91807
20
0.895909
11
1.91358
21
0.892468
0
LINE
8
BLACK
6
CONTINUOUS
10
1.91358
20
0.892468
11
1.90836
21
0.890305
0
LINE
8
BLACK
6
CONTINUOUS
10
1.90836
20
0.890305
11
1.90276
21
0.889567
0
LINE
8
BLACK
6
CONTINUOUS
10
1.90276
20
0.889567
11
1.89715
21
0.890305
0
LINE
8
BLACK
6
CONTINUOUS
10
1.89715
20
0.890305
11
1.89193
21
0.892468
0
LINE
8
BLACK
6
CONTINUOUS
10
1.89193
20
0.892468
11
1.88744
21
0.895909
0
LINE
8
BLACK
6
CONTINUOUS
10
1.88744
20
0.895909
11
1.884
21
0.900394
0
LINE
8
BLACK
6
CONTINUOUS
10
1.884
20
0.900394
11
1.88184
21
0.905616
0
LINE
8
BLACK
6
CONTINUOUS
10
1.88184
20
0.905616
11
1.8811
21
0.91122
0
LINE
8
BLACK
6
CONTINUOUS
10
1.8811
20
0.91122
11
1.88184
21
0.916825
0
LINE
8
BLACK
6
CONTINUOUS
10
1.88184
20
0.916825
11
1.884
21
0.922047
0
LINE
8
BLACK
6
CONTINUOUS
10
1.884
20
0.922047
11
1.88744
21
0.926532
0
LINE
8
BLACK
6
CONTINUOUS
10
1.88744
20
0.926532
11
1.89193
21
0.929973
0
LINE
8
BLACK
6
CONTINUOUS
10
1.89193
20
0.929973
11
1.89715
21
0.932136
0
LINE
8
BLACK
6
CONTINUOUS
10
1.89715
20
0.932136
11
1.90276
21
0.932874
0
LINE
8
BLACK
6
CONTINUOUS
10
1.90276
20
0.932874
11
1.90836
21
0.932136
0
LINE
8
BLACK
6
CONTINUOUS
10
2.93
20
0.92
11
2.87
21
0.92
0
LINE
8
BLACK
6
CONTINUOUS
10
2.87
20
0.92
11
2.87
21
0.98
0
LINE
8
BLACK
6
CONTINUOUS
10
2.87
20
0.98
11
2.93
21
0.98
0
LINE
8
BLACK
6
CONTINUOUS
10
2.93
20
0.98
11
2.93
21
0.92
0
LINE
8
BLACK
6
CONTINUOUS
10
3.03
20
0.92
11
2.97
21
0.92
0
LINE
8
BLACK
6
CONTINUOUS
10
2.97
20
0.92
11
2.97
21
0.98
0
LINE
8
BLACK
6
CONTINUOUS
10
2.97
20
0.98
11
3.03
21
0.98
0
LINE
8
BLACK
6
CONTINUOUS
10
3.03
20
0.98
11
3.03
21
0.92
0
LINE
8
BLACK
6
CONTINUOUS
10
3.13
20
0.92
11
3.07
21
0.92
0
LINE
8
BLACK
6
CONTINUOUS
10
3.07
20
0.92
11
3.07
21
0.98
0
LINE
8
BLACK
6
CONTINUOUS
10
3.07
20
0.98
11
3.13
21
0.98
0
LINE
8
BLACK
6
CONTINUOUS
10
3.13
20
0.98
11
3.13
21
0.92
0
LINE
8
BLACK
6
CONTINUOUS
10
2.93
20
1.12
11
2.87
21
1.12
0
LINE
8
BLACK
6
CONTINUOUS
10
2.87
20
1.12
11
2.87
21
1.18
0
LINE
8
BLACK
6
CONTINUOUS
10
2.87
20
1.18
11
2.93
21
1.18
0
LINE
8
BLACK
6
CONTINUOUS
10
2.93
20
1.18
11
2.93
21
1.12
0
LINE
8
BLACK
6
CONTINUOUS
10
3.03
20
1.12
11
2.97
21
1.12
0
LINE
8
BLACK
6
CONTINUOUS
10
2.97
20
1.12
11
2.97
21
1.18
0
LINE
8
BLACK
6
CONTINUOUS
10
2.97
20
1.18
11
3.03
21
1.18
0
LINE
8
BLACK
6
CONTINUOUS
10
3.03
20
1.18
11
3.03
21
1.12
0
LINE
8
BLACK
6
CONTINUOUS
10
0.735775
20
1.38782
11
0.747139
21
1.38556
0
LINE
8
BLACK
6
CONTINUOUS
10
0.747139
20
1.38556
11
0.758112
21
1.38184
0
LINE
8
BLACK
6
CONTINUOUS
10
0.758112
20
1.38184
11
0.768504
21
1.37671
0
LINE
8
BLACK
6
CONTINUOUS
10
0.768504
20
1.37671
11
0.778138
21
1.37028
0
LINE
8
BLACK
6
CONTINUOUS
10
0.778138
20
1.37028
11
0.78685
21
1.36264
0
LINE
8
BLACK
6
CONTINUOUS
10
0.78685
20
1.36264
11
0.79449
21
1.35393
0
LINE
8
BLACK
6
CONTINUOUS
10
0.79449
20
1.35393
11
0.800927
21
1.34429
0
LINE
8
BLACK
6
CONTINUOUS
10
0.800927
20
1.34429
11
0.806052
21
1.3339
0
LINE
8
BLACK
6
CONTINUOUS
10
0.806052
20
1.3339
11
0.809777
21
1.32293
0
LINE
8
BLACK
6
CONTINUOUS
10
0.809777
20
1.32293
11
0.812037
21
1.31156
0
LINE
8
BLACK
6
CONTINUOUS
10
0.812037
20
1.31156
11
0.812795
21
1.3
0
LINE
8
BLACK
6
CONTINUOUS
10
0.812795
20
1.3
11
0.812037
21
1.28844
0
LINE
8
BLACK
6
CONTINUOUS
10
0.812037
20
1.28844
11
0.809777
21
1.27707
0
LINE
8
BLACK
6
CONTINUOUS
10
0.809777
20
1.27707
11
0.806052
21
1.2661
0
LINE
8
BLACK
6
CONTINUOUS
10
0.806052
20
1.2661
11
0.800927
21
1.25571
0
LINE
8
BLACK
6
CONTINUOUS
10
0.800927
20
1.25571
11
0.79449
21
1.24607
0
LINE
8
BLACK
6
CONTINUOUS
10
0.79449
20
1.24607
11
0.78685
21
1.23736
0
LINE
8
BLACK
6
CONTINUOUS
10
0.78685
20
1.23736
11
0.778138
21
1.22972
0
LINE
8
BLACK
6
CONTINUOUS
10
0.778138
20
1.22972
11
0.768504
21
1.22329
0
LINE
8
BLACK
6
CONTINUOUS
10
0.768504
20
1.22329
11
0.758112
21
1.21816
0
LINE
8
BLACK
6
CONTINUOUS
10
0.758112
20
1.21816
11
0.747139
21
1.21444
0
LINE
8
BLACK
6
CONTINUOUS
10
0.747139
20
1.21444
11
0.735775
21
1.21218
0
LINE
8
BLACK
6
CONTINUOUS
10
0.735775
20
1.21218
11
0.724213
21
1.21142
0
LINE
8
BLACK
6
CONTINUOUS
10
0.724213
20
1.21142
11
0.71265
21
1.21218
0
LINE
8
BLACK
6
CONTINUOUS
10
0.71265
20
1.21218
11
0.701286
21
1.21444
0
LINE
8
BLACK
6
CONTINUOUS
10
0.701286
20
1.21444
11
0.690313
21
1.21816
0
LINE
8
BLACK
6
CONTINUOUS
10
0.690313
20
1.21816
11
0.679921
21
1.22329
0
LINE
8
BLACK
6
CONTINUOUS
10
0.679921
20
1.22329
11
0.670287
21
1.22972
0
LINE
8
BLACK
6
CONTINUOUS
10
0.670287
20
1.22972
11
0.661575
21
1.23736
0
LINE
8
BLACK
6
CONTINUOUS
10
0.661575
20
1.23736
11
0.653935
21
1.24607
0
LINE
8
BLACK
6
CONTINUOUS
10
0.653935
20
1.24607
11
0.647498
21
1.25571
0
LINE
8
BLACK
6
CONTINUOUS
10
0.647498
20
1.25571
11
0.642373
21
1.2661
0
LINE
8
BLACK
6
CONTINUOUS
10
0.642373
20
1.2661
11
0.638648
21
1.27707
0
LINE
8
BLACK
6
CONTINUOUS
10
0.638648
20
1.27707
11
0.636388
21
1.28844
0
LINE
8
BLACK
6
CONTINUOUS
10
0.636388
20
1.28844
11
0.63563
21
1.3
0
LINE
8
BLACK
6
CONTINUOUS
10
0.63563
20
1.3
11
0.636388
21
1.31156
0
LINE
8
BLACK
6
CONTINUOUS
10
0.636388
20
1.31156
11
0.638648
21
1.32293
0
LINE
8
BLACK
6
CONTINUOUS
10
0.638648
20
1.32293
11
0.642373
21
1.3339
0
LINE
8
BLACK
6
CONTINUOUS
10
0.642373
20
1.3339
11
0.647498
21
1.34429
0
LINE
8
BLACK
6
CONTINUOUS
10
0.647498
20
1.34429
11
0.653935
21
1.35393
0
LINE
8
BLACK
6
CONTINUOUS
10
0.653935
20
1.35393
11
0.661575
21
1.36264
0
LINE
8
BLACK
6
CONTINUOUS
10
0.661575
20
1.36264
11
0.670287
21
1.37028
0
LINE
8
BLACK
6
CONTINUOUS
10
0.670287
20
1.37028
11
0.679921
21
1.37671
0
LINE
8
BLACK
6
CONTINUOUS
10
0.679921
20
1.37671
11
0.690313
21
1.38184
0
LINE
8
BLACK
6
CONTINUOUS
10
0.690313
20
1.38184
11
0.701286
21
1.38556
0
LINE
8
BLACK
6
CONTINUOUS
10
0.701286
20
1.38556
11
0.71265
21
1.38782
0
LINE
8
BLACK
6
CONTINUOUS
10
0.71265
20
1.38782
11
0.724213
21
1.38858
0
LINE
8
BLACK
6
CONTINUOUS
10
0.724213
20
1.38858
11
0.735775
21
1.38782
0
LINE
8
BLACK
6
CONTINUOUS
10
2.13735
20
1.38782
11
2.14871
21
1.38556
0
LINE
8
BLACK
6
CONTINUOUS
10
2.14871
20
1.38556
11
2.15969
21
1.38184
0
LINE
8
BLACK
6
CONTINUOUS
10
2.15969
20
1.38184
11
2.17008
21
1.37671
0
LINE
8
BLACK
6
CONTINUOUS
10
2.17008
20
1.37671
11
2.17971
21
1.37028
0
LINE
8
BLACK
6
CONTINUOUS
10
2.17971
20
1.37028
11
2.18842
21
1.36264
0
LINE
8
BLACK
6
CONTINUOUS
10
2.18842
20
1.36264
11
2.19606
21
1.35393
0
LINE
8
BLACK
6
CONTINUOUS
10
2.19606
20
1.35393
11
2.2025
21
1.34429
0
LINE
8
BLACK
6
CONTINUOUS
10
2.2025
20
1.34429
11
2.20763
21
1.3339
0
LINE
8
BLACK
6
CONTINUOUS
10
2.20763
20
1.3339
11
2.21135
21
1.32293
0
LINE
8
BLACK
6
CONTINUOUS
10
2.21135
20
1.32293
11
2.21361
21
1.31156
0
LINE
8
BLACK
6
CONTINUOUS
10
2.21361
20
1.31156
11
2.21437
21
1.3
0
LINE
8
BLACK
6
CONTINUOUS
10
2.21437
20
1.3
11
2.21361
21
1.28844
0
LINE
8
BLACK
6
CONTINUOUS
10
2.21361
20
1.28844
11
2.21135
21
1.27707
0
LINE
8
BLACK
6
CONTINUOUS
10
2.21135
20
1.27707
11
2.20763
21
1.2661
0
LINE
8
BLACK
6
CONTINUOUS
10
2.20763
20
1.2661
11
2.2025
21
1.25571
0
LINE
8
BLACK
6
CONTINUOUS
10
2.2025
20
1.25571
11
2.19606
21
1.24607
0
LINE
8
BLACK
6
CONTINUOUS
10
2.19606
20
1.24607
11
2.18842
21
1.23736
0
LINE
8
BLACK
6
CONTINUOUS
10
2.18842
20
1.23736
11
2.17971
21
1.22972
0
LINE
8
BLACK
6
CONTINUOUS
10
2.17971
20
1.22972
11
2.17008
21
1.22329
0
LINE
8
BLACK
6
CONTINUOUS
10
2.17008
20
1.22329
11
2.15969
21
1.21816
0
LINE
8
BLACK
6
CONTINUOUS
10
2.15969
20
1.21816
11
2.14871
21
1.21444
0
LINE
8
BLACK
6
CONTINUOUS
10
2.14871
20
1.21444
11
2.13735
21
1.21218
0
LINE
8
BLACK
6
CONTINUOUS
10
2.13735
20
1.21218
11
2.12579
21
1.21142
0
LINE
8
BLACK
6
CONTINUOUS
10
2.12579
20
1.21142
11
2.11423
21
1.21218
0
LINE
8
BLACK
6
CONTINUOUS
10
2.11423
20
1.21218
11
2.10286
21
1.21444
0
LINE
8
BLACK
6
CONTINUOUS
10
2.10286
20
1.21444
11
2.09189
21
1.21816
0
LINE
8
BLACK
6
CONTINUOUS
10
2.09189
20
1.21816
11
2.0815
21
1.22329
0
LINE
8
BLACK
6
CONTINUOUS
10
2.0815
20
1.22329
11
2.07186
21
1.22972
0
LINE
8
BLACK
6
CONTINUOUS
10
2.07186
20
1.22972
11
2.06315
21
1.23736
0
LINE
8
BLACK
6
CONTINUOUS
10
2.06315
20
1.23736
11
2.05551
21
1.24607
0
LINE
8
BLACK
6
CONTINUOUS
10
2.05551
20
1.24607
11
2.04907
21
1.25571
0
LINE
8
BLACK
6
CONTINUOUS
10
2.04907
20
1.25571
11
2.04395
21
1.2661
0
LINE
8
BLACK
6
CONTINUOUS
10
2.04395
20
1.2661
11
2.04022
21
1.27707
0
LINE
8
BLACK
6
CONTINUOUS
10
2.04022
20
1.27707
11
2.03796
21
1.28844
0
LINE
8
BLACK
6
CONTINUOUS
10
2.03796
20
1.28844
11
2.0372
21
1.3
0
LINE
8
BLACK
6
CONTINUOUS
10
2.0372
20
1.3
11
2.03796
21
1.31156
0
LINE
8
BLACK
6
CONTINUOUS
10
2.03796
20
1.31156
11
2.04022
21
1.32293
0
LINE
8
BLACK
6
CONTINUOUS
10
2.04022
20
1.32293
11
2.04395
21
1.3339
0
LINE
8
BLACK
6
CONTINUOUS
10
2.04395
20
1.3339
11
2.04907
21
1.34429
0
LINE
8
BLACK
6
CONTINUOUS
10
2.04907
20
1.34429
11
2.05551
21
1.35393
0
LINE
8
BLACK
6
CONTINUOUS
10
2.05551
20
1.35393
11
2.06315
21
1.36264
0
LINE
8
BLACK
6
CONTINUOUS
10
2.06315
20
1.36264
11
2.07186
21
1.37028
0
LINE
8
BLACK
6
CONTINUOUS
10
2.07186
20
1.37028
11
2.0815
21
1.37671
0
LINE
8
BLACK
6
CONTINUOUS
10
2.0815
20
1.37671
11
2.09189
21
1.38184
0
LINE
8
BLACK
6
CONTINUOUS
10
2.09189
20
1.38184
11
2.10286
21
1.38556
0
LINE
8
BLACK
6
CONTINUOUS
10
2.10286
20
1.38556
11
2.11423
21
1.38782
0
LINE
8
BLACK
6
CONTINUOUS
10
2.11423
20
1.38782
11
2.12579
21
1.38858
0
LINE
8
BLACK
6
CONTINUOUS
10
2.12579
20
1.38858
11
2.13735
21
1.38782
0
LINE
8
BLACK
6
CONTINUOUS
10
2.93
20
1.22
11
2.87
21
1.22
0
LINE
8
BLACK
6
CONTINUOUS
10
2.87
20
1.22
11
2.87
21
1.28
0
LINE
8
BLACK
6
CONTINUOUS
10
2.87
20
1.28
11
2.93
21
1.28
0
LINE
8
BLACK
6
CONTINUOUS
10
2.93
20
1.28
11
2.93
21
1.22
0
LINE
8
BLACK
6
CONTINUOUS
10
3.03
20
1.22
11
2.97
21
1.22
0
LINE
8
BLACK
6
CONTINUOUS
10
2.97
20
1.22
11
2.97
21
1.28
0
LINE
8
BLACK
6
CONTINUOUS
10
2.97
20
1.28
11
3.03
21
1.28
0
LINE
8
BLACK
6
CONTINUOUS
10
3.03
20
1.28
11
3.03
21
1.22
0
LINE
8
BLACK
6
CONTINUOUS
10
0.104806
20
1.34846
11
0.113092
21
1.34624
0
LINE
8
BLACK
6
CONTINUOUS
10
0.113092
20
1.34624
11
0.120866
21
1.34262
0
LINE
8
BLACK
6
CONTINUOUS
10
0.120866
20
1.34262
11
0.127893
21
1.3377
0
LINE
8
BLACK
6
CONTINUOUS
10
0.127893
20
1.3377
11
0.133959
21
1.33163
0
LINE
8
BLACK
6
CONTINUOUS
10
0.133959
20
1.33163
11
0.138879
21
1.32461
0
LINE
8
BLACK
6
CONTINUOUS
10
0.138879
20
1.32461
11
0.142505
21
1.31683
0
LINE
8
BLACK
6
CONTINUOUS
10
0.142505
20
1.31683
11
0.144725
21
1.30855
0
LINE
8
BLACK
6
CONTINUOUS
10
0.144725
20
1.30855
11
0.145472
21
1.3
0
LINE
8
BLACK
6
CONTINUOUS
10
0.145472
20
1.3
11
0.144725
21
1.29145
0
LINE
8
BLACK
6
CONTINUOUS
10
0.144725
20
1.29145
11
0.142505
21
1.28317
0
LINE
8
BLACK
6
CONTINUOUS
10
0.142505
20
1.28317
11
0.138879
21
1.27539
0
LINE
8
BLACK
6
CONTINUOUS
10
0.138879
20
1.27539
11
0.133959
21
1.26837
0
LINE
8
BLACK
6
CONTINUOUS
10
0.133959
20
1.26837
11
0.127893
21
1.2623
0
LINE
8
BLACK
6
CONTINUOUS
10
0.127893
20
1.2623
11
0.120866
21
1.25738
0
LINE
8
BLACK
6
CONTINUOUS
10
0.120866
20
1.25738
11
0.113092
21
1.25376
0
LINE
8
BLACK
6
CONTINUOUS
10
0.113092
20
1.25376
11
0.104806
21
1.25154
0
LINE
8
BLACK
6
CONTINUOUS
10
0.104806
20
1.25154
11
0.0962598
21
1.25079
0
LINE
8
BLACK
6
CONTINUOUS
10
0.0962598
20
1.25079
11
0.0877142
21
1.25154
0
LINE
8
BLACK
6
CONTINUOUS
10
0.0877142
20
1.25154
11
0.0794281
21
1.25376
0
LINE
8
BLACK
6
CONTINUOUS
10
0.0794281
20
1.25376
11
0.0716535
21
1.25738
0
LINE
8
BLACK
6
CONTINUOUS
10
0.0716535
20
1.25738
11
0.0646266
21
1.2623
0
LINE
8
BLACK
6
CONTINUOUS
10
0.0646266
20
1.2623
11
0.0585608
21
1.26837
0
LINE
8
BLACK
6
CONTINUOUS
10
0.0585608
20
1.26837
11
0.0536405
21
1.27539
0
LINE
8
BLACK
6
CONTINUOUS
10
0.0536405
20
1.27539
11
0.0500151
21
1.28317
0
LINE
8
BLACK
6
CONTINUOUS
10
0.0500151
20
1.28317
11
0.0477949
21
1.29145
0
LINE
8
BLACK
6
CONTINUOUS
10
0.0477949
20
1.29145
11
0.0470472
21
1.3
0
LINE
8
BLACK
6
CONTINUOUS
10
0.0470472
20
1.3
11
0.0477949
21
1.30855
0
LINE
8
BLACK
6
CONTINUOUS
10
0.0477949
20
1.30855
11
0.0500151
21
1.31683
0
LINE
8
BLACK
6
CONTINUOUS
10
0.0500151
20
1.31683
11
0.0536405
21
1.32461
0
LINE
8
BLACK
6
CONTINUOUS
10
0.0536405
20
1.32461
11
0.0585608
21
1.33163
0
LINE
8
BLACK
6
CONTINUOUS
10
0.0585608
20
1.33163
11
0.0646266
21
1.3377
0
LINE
8
BLACK
6
CONTINUOUS
10
0.0646266
20
1.3377
11
0.0716535
21
1.34262
0
LINE
8
BLACK
6
CONTINUOUS
10
0.0716535
20
1.34262
11
0.0794281
21
1.34624
0
LINE
8
BLACK
6
CONTINUOUS
10
0.0794281
20
1.34624
11
0.0877142
21
1.34846
0
LINE
8
BLACK
6
CONTINUOUS
10
0.0877142
20
1.34846
11
0.0962598
21
1.34921
0
LINE
8
BLACK
6
CONTINUOUS
10
0.0962598
20
1.34921
11
0.104806
21
1.34846
0
LINE
8
BLACK
6
CONTINUOUS
10
2.76229
20
1.34846
11
2.77057
21
1.34624
0
LINE
8
BLACK
6
CONTINUOUS
10
2.77057
20
1.34624
11
2.77835
21
1.34262
0
LINE
8
BLACK
6
CONTINUOUS
10
2.77835
20
1.34262
11
2.78537
21
1.3377
0
LINE
8
BLACK
6
CONTINUOUS
10
2.78537
20
1.3377
11
2.79144
21
1.33163
0
LINE
8
BLACK
6
CONTINUOUS
10
2.79144
20
1.33163
11
2.79636
21
1.32461
0
LINE
8
BLACK
6
CONTINUOUS
10
2.79636
20
1.32461
11
2.79998
21
1.31683
0
LINE
8
BLACK
6
CONTINUOUS
10
2.79998
20
1.31683
11
2.80221
21
1.30855
0
LINE
8
BLACK
6
CONTINUOUS
10
2.80221
20
1.30855
11
2.80295
21
1.3
0
LINE
8
BLACK
6
CONTINUOUS
10
2.80295
20
1.3
11
2.80221
21
1.29145
0
LINE
8
BLACK
6
CONTINUOUS
10
2.80221
20
1.29145
11
2.79998
21
1.28317
0
LINE
8
BLACK
6
CONTINUOUS
10
2.79998
20
1.28317
11
2.79636
21
1.27539
0
LINE
8
BLACK
6
CONTINUOUS
10
2.79636
20
1.27539
11
2.79144
21
1.26837
0
LINE
8
BLACK
6
CONTINUOUS
10
2.79144
20
1.26837
11
2.78537
21
1.2623
0
LINE
8
BLACK
6
CONTINUOUS
10
2.78537
20
1.2623
11
2.77835
21
1.25738
0
LINE
8
BLACK
6
CONTINUOUS
10
2.77835
20
1.25738
11
2.77057
21
1.25376
0
LINE
8
BLACK
6
CONTINUOUS
10
2.77057
20
1.25376
11
2.76229
21
1.25154
0
LINE
8
BLACK
6
CONTINUOUS
10
2.76229
20
1.25154
11
2.75374
21
1.25079
0
LINE
8
BLACK
6
CONTINUOUS
10
2.75374
20
1.25079
11
2.74519
21
1.25154
0
LINE
8
BLACK
6
CONTINUOUS
10
2.74519
20
1.25154
11
2.73691
21
1.25376
0
LINE
8
BLACK
6
CONTINUOUS
10
2.73691
20
1.25376
11
2.72913
21
1.25738
0
LINE
8
BLACK
6
CONTINUOUS
10
2.72913
20
1.25738
11
2.72211
21
1.2623
0
LINE
8
BLACK
6
CONTINUOUS
10
2.72211
20
1.2623
11
2.71604
21
1.26837
0
LINE
8
BLACK
6
CONTINUOUS
10
2.71604
20
1.26837
11
2.71112
21
1.27539
0
LINE
8
BLACK
6
CONTINUOUS
10
2.71112
20
1.27539
11
2.7075
21
1.28317
0
LINE
8
BLACK
6
CONTINUOUS
10
2.7075
20
1.28317
11
2.70528
21
1.29145
0
LINE
8
BLACK
6
CONTINUOUS
10
2.70528
20
1.29145
11
2.70453
21
1.3
0
LINE
8
BLACK
6
CONTINUOUS
10
2.70453
20
1.3
11
2.70528
21
1.30855
0
LINE
8
BLACK
6
CONTINUOUS
10
2.70528
20
1.30855
11
2.7075
21
1.31683
0
LINE
8
BLACK
6
CONTINUOUS
10
2.7075
20
1.31683
11
2.71112
21
1.32461
0
LINE
8
BLACK
6
CONTINUOUS
10
2.71112
20
1.32461
11
2.71604
21
1.33163
0
LINE
8
BLACK
6
CONTINUOUS
10
2.71604
20
1.33163
11
2.72211
21
1.3377
0
LINE
8
BLACK
6
CONTINUOUS
10
2.72211
20
1.3377
11
2.72913
21
1.34262
0
LINE
8
BLACK
6
CONTINUOUS
10
2.72913
20
1.34262
11
2.73691
21
1.34624
0
LINE
8
BLACK
6
CONTINUOUS
10
2.73691
20
1.34624
11
2.74519
21
1.34846
0
LINE
8
BLACK
6
CONTINUOUS
10
2.74519
20
1.34846
11
2.75374
21
1.34921
0
LINE
8
BLACK
6
CONTINUOUS
10
2.75374
20
1.34921
11
2.76229
21
1.34846
0
LINE
8
BLACK
6
CONTINUOUS
10
2.93
20
1.32
11
2.87
21
1.32
0
LINE
8
BLACK
6
CONTINUOUS
10
2.87
20
1.32
11
2.87
21
1.38
0
LINE
8
BLACK
6
CONTINUOUS
10
2.87
20
1.38
11
2.93
21
1.38
0
LINE
8
BLACK
6
CONTINUOUS
10
2.93
20
1.38
11
2.93
21
1.32
0
LINE
8
BLACK
6
CONTINUOUS
10
3.03
20
1.32
11
2.97
21
1.32
0
LINE
8
BLACK
6
CONTINUOUS
10
2.97
20
1.32
11
2.97
21
1.38
0
LINE
8
BLACK
6
CONTINUOUS
10
2.97
20
1.38
11
3.03
21
1.38
0
LINE
8
BLACK
6
CONTINUOUS
10
3.03
20
1.38
11
3.03
21
1.32
0
LINE
8
BLACK
6
CONTINUOUS
10
1.08299
20
1.39193
11
1.08965
21
1.3896
0
LINE
8
BLACK
6
CONTINUOUS
10
1.08965
20
1.3896
11
1.09562
21
1.38585
0
LINE
8
BLACK
6
CONTINUOUS
10
1.09562
20
1.38585
11
1.10061
21
1.38086
0
LINE
8
BLACK
6
CONTINUOUS
10
1.10061
20
1.38086
11
1.10436
21
1.37489
0
LINE
8
BLACK
6
CONTINUOUS
10
1.10436
20
1.37489
11
1.10669
21
1.36823
0
LINE
8
BLACK
6
CONTINUOUS
10
1.10669
20
1.36823
11
1.10748
21
1.36122
0
LINE
8
BLACK
6
CONTINUOUS
10
1.10748
20
1.36122
11
1.10669
21
1.35421
0
LINE
8
BLACK
6
CONTINUOUS
10
1.10669
20
1.35421
11
1.10436
21
1.34755
0
LINE
8
BLACK
6
CONTINUOUS
10
1.10436
20
1.34755
11
1.10061
21
1.34158
0
LINE
8
BLACK
6
CONTINUOUS
10
1.10061
20
1.34158
11
1.09562
21
1.3366
0
LINE
8
BLACK
6
CONTINUOUS
10
1.09562
20
1.3366
11
1.08965
21
1.33284
0
LINE
8
BLACK
6
CONTINUOUS
10
1.08965
20
1.33284
11
1.08299
21
1.33051
0
LINE
8
BLACK
6
CONTINUOUS
10
1.08299
20
1.33051
11
1.07598
21
1.32972
0
LINE
8
BLACK
6
CONTINUOUS
10
1.07598
20
1.32972
11
1.06898
21
1.33051
0
LINE
8
BLACK
6
CONTINUOUS
10
1.06898
20
1.33051
11
1.06232
21
1.33284
0
LINE
8
BLACK
6
CONTINUOUS
10
1.06232
20
1.33284
11
1.05635
21
1.3366
0
LINE
8
BLACK
6
CONTINUOUS
10
1.05635
20
1.3366
11
1.05136
21
1.34158
0
LINE
8
BLACK
6
CONTINUOUS
10
1.05136
20
1.34158
11
1.04761
21
1.34755
0
LINE
8
BLACK
6
CONTINUOUS
10
1.04761
20
1.34755
11
1.04528
21
1.35421
0
LINE
8
BLACK
6
CONTINUOUS
10
1.04528
20
1.35421
11
1.04449
21
1.36122
0
LINE
8
BLACK
6
CONTINUOUS
10
1.04449
20
1.36122
11
1.04528
21
1.36823
0
LINE
8
BLACK
6
CONTINUOUS
10
1.04528
20
1.36823
11
1.04761
21
1.37489
0
LINE
8
BLACK
6
CONTINUOUS
10
1.04761
20
1.37489
11
1.05136
21
1.38086
0
LINE
8
BLACK
6
CONTINUOUS
10
1.05136
20
1.38086
11
1.05635
21
1.38585
0
LINE
8
BLACK
6
CONTINUOUS
10
1.05635
20
1.38585
11
1.06232
21
1.3896
0
LINE
8
BLACK
6
CONTINUOUS
10
1.06232
20
1.3896
11
1.06898
21
1.39193
0
LINE
8
BLACK
6
CONTINUOUS
10
1.06898
20
1.39193
11
1.07598
21
1.39272
0
LINE
8
BLACK
6
CONTINUOUS
10
1.07598
20
1.39272
11
1.08299
21
1.39193
0
LINE
8
BLACK
6
CONTINUOUS
10
1.90836
20
1.38214
11
1.91358
21
1.37997
0
LINE
8
BLACK
6
CONTINUOUS
10
1.91358
20
1.37997
11
1.91807
21
1.37653
0
LINE
8
BLACK
6
CONTINUOUS
10
1.91807
20
1.37653
11
1.92151
21
1.37205
0
LINE
8
BLACK
6
CONTINUOUS
10
1.92151
20
1.37205
11
1.92367
21
1.36682
0
LINE
8
BLACK
6
CONTINUOUS
10
1.92367
20
1.36682
11
1.92441
21
1.36122
0
LINE
8
BLACK
6
CONTINUOUS
10
1.92441
20
1.36122
11
1.92367
21
1.35562
0
LINE
8
BLACK
6
CONTINUOUS
10
1.92367
20
1.35562
11
1.92151
21
1.35039
0
LINE
8
BLACK
6
CONTINUOUS
10
1.92151
20
1.35039
11
1.91807
21
1.34591
0
LINE
8
BLACK
6
CONTINUOUS
10
1.91807
20
1.34591
11
1.91358
21
1.34247
0
LINE
8
BLACK
6
CONTINUOUS
10
1.91358
20
1.34247
11
1.90836
21
1.3403
0
LINE
8
BLACK
6
CONTINUOUS
10
1.90836
20
1.3403
11
1.90276
21
1.33957
0
LINE
8
BLACK
6
CONTINUOUS
10
1.90276
20
1.33957
11
1.89715
21
1.3403
0
LINE
8
BLACK
6
CONTINUOUS
10
1.89715
20
1.3403
11
1.89193
21
1.34247
0
LINE
8
BLACK
6
CONTINUOUS
10
1.89193
20
1.34247
11
1.88744
21
1.34591
0
LINE
8
BLACK
6
CONTINUOUS
10
1.88744
20
1.34591
11
1.884
21
1.35039
0
LINE
8
BLACK
6
CONTINUOUS
10
1.884
20
1.35039
11
1.88184
21
1.35562
0
LINE
8
BLACK
6
CONTINUOUS
10
1.88184
20
1.35562
11
1.8811
21
1.36122
0
LINE
8
BLACK
6
CONTINUOUS
10
1.8811
20
1.36122
11
1.88184
21
1.36682
0
LINE
8
BLACK
6
CONTINUOUS
10
1.88184
20
1.36682
11
1.884
21
1.37205
0
LINE
8
BLACK
6
CONTINUOUS
10
1.884
20
1.37205
11
1.88744
21
1.37653
0
LINE
8
BLACK
6
CONTINUOUS
10
1.88744
20
1.37653
11
1.89193
21
1.37997
0
LINE
8
BLACK
6
CONTINUOUS
10
1.89193
20
1.37997
11
1.89715
21
1.38214
0
LINE
8
BLACK
6
CONTINUOUS
10
1.89715
20
1.38214
11
1.90276
21
1.38287
0
LINE
8
BLACK
6
CONTINUOUS
10
1.90276
20
1.38287
11
1.90836
21
1.38214
0
LINE
8
BLACK
6
CONTINUOUS
10
2.93
20
1.445
11
2.87
21
1.445
0
LINE
8
BLACK
6
CONTINUOUS
10
2.87
20
1.445
11
2.87
21
1.505
0
LINE
8
BLACK
6
CONTINUOUS
10
2.87
20
1.505
11
2.93
21
1.505
0
LINE
8
BLACK
6
CONTINUOUS
10
2.93
20
1.505
11
2.93
21
1.445
0
LINE
8
BLACK
6
CONTINUOUS
10
3.03
20
1.445
11
2.97
21
1.445
0
LINE
8
BLACK
6
CONTINUOUS
10
2.97
20
1.445
11
2.97
21
1.505
0
LINE
8
BLACK
6
CONTINUOUS
10
2.97
20
1.505
11
3.03
21
1.505
0
LINE
8
BLACK
6
CONTINUOUS
10
3.03
20
1.505
11
3.03
21
1.445
0
LINE
8
BLACK
6
CONTINUOUS
10
2.93
20
1.545
11
2.87
21
1.545
0
LINE
8
BLACK
6
CONTINUOUS
10
2.87
20
1.545
11
2.87
21
1.605
0
LINE
8
BLACK
6
CONTINUOUS
10
2.87
20
1.605
11
2.93
21
1.605
0
LINE
8
BLACK
6
CONTINUOUS
10
2.93
20
1.605
11
2.93
21
1.545
0
LINE
8
BLACK
6
CONTINUOUS
10
3.03
20
1.545
11
2.97
21
1.545
0
LINE
8
BLACK
6
CONTINUOUS
10
2.97
20
1.545
11
2.97
21
1.605
0
LINE
8
BLACK
6
CONTINUOUS
10
2.97
20
1.605
11
3.03
21
1.605
0
LINE
8
BLACK
6
CONTINUOUS
10
3.03
20
1.605
11
3.03
21
1.545
0
LINE
8
BLACK
6
CONTINUOUS
10
2.93
20
1.695
11
2.87
21
1.695
0
LINE
8
BLACK
6
CONTINUOUS
10
2.87
20
1.695
11
2.87
21
1.755
0
LINE
8
BLACK
6
CONTINUOUS
10
2.87
20
1.755
11
2.93
21
1.755
0
LINE
8
BLACK
6
CONTINUOUS
10
2.93
20
1.755
11
2.93
21
1.695
0
LINE
8
BLACK
6
CONTINUOUS
10
3.03
20
1.695
11
2.97
21
1.695
0
LINE
8
BLACK
6
CONTINUOUS
10
2.97
20
1.695
11
2.97
21
1.755
0
LINE
8
BLACK
6
CONTINUOUS
10
2.97
20
1.755
11
3.03
21
1.755
0
LINE
8
BLACK
6
CONTINUOUS
10
3.03
20
1.755
11
3.03
21
1.695
0
LINE
8
BLACK
6
CONTINUOUS
10
2.93
20
1.795
11
2.87
21
1.795
0
LINE
8
BLACK
6
CONTINUOUS
10
2.87
20
1.795
11
2.87
21
1.855
0
LINE
8
BLACK
6
CONTINUOUS
10
2.87
20
1.855
11
2.93
21
1.855
0
LINE
8
BLACK
6
CONTINUOUS
10
2.93
20
1.855
11
2.93
21
1.795
0
LINE
8
BLACK
6
CONTINUOUS
10
3.03
20
1.795
11
2.97
21
1.795
0
LINE
8
BLACK
6
CONTINUOUS
10
2.97
20
1.795
11
2.97
21
1.855
0
LINE
8
BLACK
6
CONTINUOUS
10
2.97
20
1.855
11
3.03
21
1.855
0
LINE
8
BLACK
6
CONTINUOUS
10
3.03
20
1.855
11
3.03
21
1.795
0
LINE
8
BLACK
6
CONTINUOUS
10
2.93
20
1.895
11
2.87
21
1.895
0
LINE
8
BLACK
6
CONTINUOUS
10
2.87
20
1.895
11
2.87
21
1.955
0
LINE
8
BLACK
6
CONTINUOUS
10
2.87
20
1.955
11
2.93
21
1.955
0
LINE
8
BLACK
6
CONTINUOUS
10
2.93
20
1.955
11
2.93
21
1.895
0
LINE
8
BLACK
6
CONTINUOUS
10
3.03
20
1.895
11
2.97
21
1.895
0
LINE
8
BLACK
6
CONTINUOUS
10
2.97
20
1.895
11
2.97
21
1.955
0
LINE
8
BLACK
6
CONTINUOUS
10
2.97
20
1.955
11
3.03
21
1.955
0
LINE
8
BLACK
6
CONTINUOUS
10
3.03
20
1.955
11
3.03
21
1.895
0
LINE
8
BLACK
6
CONTINUOUS
10
2.93
20
1.995
11
2.87
21
1.995
0
LINE
8
BLACK
6
CONTINUOUS
10
2.87
20
1.995
11
2.87
21
2.055
0
LINE
8
BLACK
6
CONTINUOUS
10
2.87
20
2.055
11
2.93
21
2.055
0
LINE
8
BLACK
6
CONTINUOUS
10
2.93
20
2.055
11
2.93
21
1.995
0
LINE
8
BLACK
6
CONTINUOUS
10
3.03
20
1.995
11
2.97
21
1.995
0
LINE
8
BLACK
6
CONTINUOUS
10
2.97
20
1.995
11
2.97
21
2.055
0
LINE
8
BLACK
6
CONTINUOUS
10
2.97
20
2.055
11
3.03
21
2.055
0
LINE
8
BLACK
6
CONTINUOUS
10
3.03
20
2.055
11
3.03
21
1.995
0
LINE
8
BLACK
6
CONTINUOUS
10
2.93
20
2.095
11
2.87
21
2.095
0
LINE
8
BLACK
6
CONTINUOUS
10
2.87
20
2.095
11
2.87
21
2.155
0
LINE
8
BLACK
6
CONTINUOUS
10
2.87
20
2.155
11
2.93
21
2.155
0
LINE
8
BLACK
6
CONTINUOUS
10
2.93
20
2.155
11
2.93
21
2.095
0
LINE
8
BLACK
6
CONTINUOUS
10
3.03
20
2.095
11
2.97
21
2.095
0
LINE
8
BLACK
6
CONTINUOUS
10
2.97
20
2.095
11
2.97
21
2.155
0
LINE
8
BLACK
6
CONTINUOUS
10
2.97
20
2.155
11
3.03
21
2.155
0
LINE
8
BLACK
6
CONTINUOUS
10
3.03
20
2.155
11
3.03
21
2.095
0
LINE
8
BLACK
6
CONTINUOUS
10
2.93
20
2.245
11
2.87
21
2.245
0
LINE
8
BLACK
6
CONTINUOUS
10
2.87
20
2.245
11
2.87
21
2.305
0
LINE
8
BLACK
6
CONTINUOUS
10
2.87
20
2.305
11
2.93
21
2.305
0
LINE
8
BLACK
6
CONTINUOUS
10
2.93
20
2.305
11
2.93
21
2.245
0
LINE
8
BLACK
6
CONTINUOUS
10
3.03
20
2.245
11
2.97
21
2.245
0
LINE
8
BLACK
6
CONTINUOUS
10
2.97
20
2.245
11
2.97
21
2.305
0
LINE
8
BLACK
6
CONTINUOUS
10
2.97
20
2.305
11
3.03
21
2.305
0
LINE
8
BLACK
6
CONTINUOUS
10
3.03
20
2.305
11
3.03
21
2.245
0
LINE
8
BLACK
6
CONTINUOUS
10
2.93
20
2.345
11
2.87
21
2.345
0
LINE
8
BLACK
6
CONTINUOUS
10
2.87
20
2.345
11
2.87
21
2.405
0
LINE
8
BLACK
6
CONTINUOUS
10
2.87
20
2.405
11
2.93
21
2.405
0
LINE
8
BLACK
6
CONTINUOUS
10
2.93
20
2.405
11
2.93
21
2.345
0
LINE
8
BLACK
6
CONTINUOUS
10
3.03
20
2.345
11
2.97
21
2.345
0
LINE
8
BLACK
6
CONTINUOUS
10
2.97
20
2.345
11
2.97
21
2.405
0
LINE
8
BLACK
6
CONTINUOUS
10
2.97
20
2.405
11
3.03
21
2.405
0
LINE
8
BLACK
6
CONTINUOUS
10
3.03
20
2.405
11
3.03
21
2.345
0
LINE
8
BLACK
6
CONTINUOUS
10
2.93
20
2.445
11
2.87
21
2.445
0
LINE
8
BLACK
6
CONTINUOUS
10
2.87
20
2.445
11
2.87
21
2.505
0
LINE
8
BLACK
6
CONTINUOUS
10
2.87
20
2.505
11
2.93
21
2.505
0
LINE
8
BLACK
6
CONTINUOUS
10
2.93
20
2.505
11
2.93
21
2.445
0
LINE
8
BLACK
6
CONTINUOUS
10
3.03
20
2.445
11
2.97
21
2.445
0
LINE
8
BLACK
6
CONTINUOUS
10
2.97
20
2.445
11
2.97
21
2.505
0
LINE
8
BLACK
6
CONTINUOUS
10
2.97
20
2.505
11
3.03
21
2.505
0
LINE
8
BLACK
6
CONTINUOUS
10
3.03
20
2.505
11
3.03
21
2.445
0
LINE
8
BLACK
6
CONTINUOUS
10
2.93
20
2.545
11
2.87
21
2.545
0
LINE
8
BLACK
6
CONTINUOUS
10
2.87
20
2.545
11
2.87
21
2.605
0
LINE
8
BLACK
6
CONTINUOUS
10
2.87
20
2.605
11
2.93
21
2.605
0
LINE
8
BLACK
6
CONTINUOUS
10
2.93
20
2.605
11
2.93
21
2.545
0
LINE
8
BLACK
6
CONTINUOUS
10
3.03
20
2.545
11
2.97
21
2.545
0
LINE
8
BLACK
6
CONTINUOUS
10
2.97
20
2.545
11
2.97
21
2.605
0
LINE
8
BLACK
6
CONTINUOUS
10
2.97
20
2.605
11
3.03
21
2.605
0
LINE
8
BLACK
6
CONTINUOUS
10
3.03
20
2.605
11
3.03
21
2.545
0
LINE
8
BLACK
6
CONTINUOUS
10
0.735775
20
2.88782
11
0.747139
21
2.88556
0
LINE
8
BLACK
6
CONTINUOUS
10
0.747139
20
2.88556
11
0.758112
21
2.88184
0
LINE
8
BLACK
6
CONTINUOUS
10
0.758112
20
2.88184
11
0.768504
21
2.87671
0
LINE
8
BLACK
6
CONTINUOUS
10
0.768504
20
2.87671
11
0.778138
21
2.87028
0
LINE
8
BLACK
6
CONTINUOUS
10
0.778138
20
2.87028
11
0.78685
21
2.86264
0
LINE
8
BLACK
6
CONTINUOUS
10
0.78685
20
2.86264
11
0.79449
21
2.85393
0
LINE
8
BLACK
6
CONTINUOUS
10
0.79449
20
2.85393
11
0.800927
21
2.84429
0
LINE
8
BLACK
6
CONTINUOUS
10
0.800927
20
2.84429
11
0.806052
21
2.8339
0
LINE
8
BLACK
6
CONTINUOUS
10
0.806052
20
2.8339
11
0.809777
21
2.82293
0
LINE
8
BLACK
6
CONTINUOUS
10
0.809777
20
2.82293
11
0.812037
21
2.81156
0
LINE
8
BLACK
6
CONTINUOUS
10
0.812037
20
2.81156
11
0.812795
21
2.8
0
LINE
8
BLACK
6
CONTINUOUS
10
0.812795
20
2.8
11
0.812037
21
2.78844
0
LINE
8
BLACK
6
CONTINUOUS
10
0.812037
20
2.78844
11
0.809777
21
2.77707
0
LINE
8
BLACK
6
CONTINUOUS
10
0.809777
20
2.77707
11
0.806052
21
2.7661
0
LINE
8
BLACK
6
CONTINUOUS
10
0.806052
20
2.7661
11
0.800927
21
2.75571
0
LINE
8
BLACK
6
CONTINUOUS
10
0.800927
20
2.75571
11
0.79449
21
2.74607
0
LINE
8
BLACK
6
CONTINUOUS
10
0.79449
20
2.74607
11
0.78685
21
2.73736
0
LINE
8
BLACK
6
CONTINUOUS
10
0.78685
20
2.73736
11
0.778138
21
2.72972
0
LINE
8
BLACK
6
CONTINUOUS
10
0.778138
20
2.72972
11
0.768504
21
2.72329
0
LINE
8
BLACK
6
CONTINUOUS
10
0.768504
20
2.72329
11
0.758112
21
2.71816
0
LINE
8
BLACK
6
CONTINUOUS
10
0.758112
20
2.71816
11
0.747139
21
2.71444
0
LINE
8
BLACK
6
CONTINUOUS
10
0.747139
20
2.71444
11
0.735775
21
2.71218
0
LINE
8
BLACK
6
CONTINUOUS
10
0.735775
20
2.71218
11
0.724213
21
2.71142
0
LINE
8
BLACK
6
CONTINUOUS
10
0.724213
20
2.71142
11
0.71265
21
2.71218
0
LINE
8
BLACK
6
CONTINUOUS
10
0.71265
20
2.71218
11
0.701286
21
2.71444
0
LINE
8
BLACK
6
CONTINUOUS
10
0.701286
20
2.71444
11
0.690313
21
2.71816
0
LINE
8
BLACK
6
CONTINUOUS
10
0.690313
20
2.71816
11
0.679921
21
2.72329
0
LINE
8
BLACK
6
CONTINUOUS
10
0.679921
20
2.72329
11
0.670287
21
2.72972
0
LINE
8
BLACK
6
CONTINUOUS
10
0.670287
20
2.72972
11
0.661575
21
2.73736
0
LINE
8
BLACK
6
CONTINUOUS
10
0.661575
20
2.73736
11
0.653935
21
2.74607
0
LINE
8
BLACK
6
CONTINUOUS
10
0.653935
20
2.74607
11
0.647498
21
2.75571
0
LINE
8
BLACK
6
CONTINUOUS
10
0.647498
20
2.75571
11
0.642373
21
2.7661
0
LINE
8
BLACK
6
CONTINUOUS
10
0.642373
20
2.7661
11
0.638648
21
2.77707
0
LINE
8
BLACK
6
CONTINUOUS
10
0.638648
20
2.77707
11
0.636388
21
2.78844
0
LINE
8
BLACK
6
CONTINUOUS
10
0.636388
20
2.78844
11
0.63563
21
2.8
0
LINE
8
BLACK
6
CONTINUOUS
10
0.63563
20
2.8
11
0.636388
21
2.81156
0
LINE
8
BLACK
6
CONTINUOUS
10
0.636388
20
2.81156
11
0.638648
21
2.82293
0
LINE
8
BLACK
6
CONTINUOUS
10
0.638648
20
2.82293
11
0.642373
21
2.8339
0
LINE
8
BLACK
6
CONTINUOUS
10
0.642373
20
2.8339
11
0.647498
21
2.84429
0
LINE
8
BLACK
6
CONTINUOUS
10
0.647498
20
2.84429
11
0.653935
21
2.85393
0
LINE
8
BLACK
6
CONTINUOUS
10
0.653935
20
2.85393
11
0.661575
21
2.86264
0
LINE
8
BLACK
6
CONTINUOUS
10
0.661575
20
2.86264
11
0.670287
21
2.87028
0
LINE
8
BLACK
6
CONTINUOUS
10
0.670287
20
2.87028
11
0.679921
21
2.87671
0
LINE
8
BLACK
6
CONTINUOUS
10
0.679921
20
2.87671
11
0.690313
21
2.88184
0
LINE
8
BLACK
6
CONTINUOUS
10
0.690313
20
2.88184
11
0.701286
21
2.88556
0
LINE
8
BLACK
6
CONTINUOUS
10
0.701286
20
2.88556
11
0.71265
21
2.88782
0
LINE
8
BLACK
6
CONTINUOUS
10
0.71265
20
2.88782
11
0.724213
21
2.88858
0
LINE
8
BLACK
6
CONTINUOUS
10
0.724213
20
2.88858
11
0.735775
21
2.88782
0
LINE
8
BLACK
6
CONTINUOUS
10
2.13735
20
2.88782
11
2.14871
21
2.88556
0
LINE
8
BLACK
6
CONTINUOUS
10
2.14871
20
2.88556
11
2.15969
21
2.88184
0
LINE
8
BLACK
6
CONTINUOUS
10
2.15969
20
2.88184
11
2.17008
21
2.87671
0
LINE
8
BLACK
6
CONTINUOUS
10
2.17008
20
2.87671
11
2.17971
21
2.87028
0
LINE
8
BLACK
6
CONTINUOUS
10
2.17971
20
2.87028
11
2.18842
21
2.86264
0
LINE
8
BLACK
6
CONTINUOUS
10
2.18842
20
2.86264
11
2.19606
21
2.85393
0
LINE
8
BLACK
6
CONTINUOUS
10
2.19606
20
2.85393
11
2.2025
21
2.84429
0
LINE
8
BLACK
6
CONTINUOUS
10
2.2025
20
2.84429
11
2.20763
21
2.8339
0
LINE
8
BLACK
6
CONTINUOUS
10
2.20763
20
2.8339
11
2.21135
21
2.82293
0
LINE
8
BLACK
6
CONTINUOUS
10
2.21135
20
2.82293
11
2.21361
21
2.81156
0
LINE
8
BLACK
6
CONTINUOUS
10
2.21361
20
2.81156
11
2.21437
21
2.8
0
LINE
8
BLACK
6
CONTINUOUS
10
2.21437
20
2.8
11
2.21361
21
2.78844
0
LINE
8
BLACK
6
CONTINUOUS
10
2.21361
20
2.78844
11
2.21135
21
2.77707
0
LINE
8
BLACK
6
CONTINUOUS
10
2.21135
20
2.77707
11
2.20763
21
2.7661
0
LINE
8
BLACK
6
CONTINUOUS
10
2.20763
20
2.7661
11
2.2025
21
2.75571
0
LINE
8
BLACK
6
CONTINUOUS
10
2.2025
20
2.75571
11
2.19606
21
2.74607
0
LINE
8
BLACK
6
CONTINUOUS
10
2.19606
20
2.74607
11
2.18842
21
2.73736
0
LINE
8
BLACK
6
CONTINUOUS
10
2.18842
20
2.73736
11
2.17971
21
2.72972
0
LINE
8
BLACK
6
CONTINUOUS
10
2.17971
20
2.72972
11
2.17008
21
2.72329
0
LINE
8
BLACK
6
CONTINUOUS
10
2.17008
20
2.72329
11
2.15969
21
2.71816
0
LINE
8
BLACK
6
CONTINUOUS
10
2.15969
20
2.71816
11
2.14871
21
2.71444
0
LINE
8
BLACK
6
CONTINUOUS
10
2.14871
20
2.71444
11
2.13735
21
2.71218
0
LINE
8
BLACK
6
CONTINUOUS
10
2.13735
20
2.71218
11
2.12579
21
2.71142
0
LINE
8
BLACK
6
CONTINUOUS
10
2.12579
20
2.71142
11
2.11423
21
2.71218
0
LINE
8
BLACK
6
CONTINUOUS
10
2.11423
20
2.71218
11
2.10286
21
2.71444
0
LINE
8
BLACK
6
CONTINUOUS
10
2.10286
20
2.71444
11
2.09189
21
2.71816
0
LINE
8
BLACK
6
CONTINUOUS
10
2.09189
20
2.71816
11
2.0815
21
2.72329
0
LINE
8
BLACK
6
CONTINUOUS
10
2.0815
20
2.72329
11
2.07186
21
2.72972
0
LINE
8
BLACK
6
CONTINUOUS
10
2.07186
20
2.72972
11
2.06315
21
2.73736
0
LINE
8
BLACK
6
CONTINUOUS
10
2.06315
20
2.73736
11
2.05551
21
2.74607
0
LINE
8
BLACK
6
CONTINUOUS
10
2.05551
20
2.74607
11
2.04907
21
2.75571
0
LINE
8
BLACK
6
CONTINUOUS
10
2.04907
20
2.75571
11
2.04395
21
2.7661
0
LINE
8
BLACK
6
CONTINUOUS
10
2.04395
20
2.7661
11
2.04022
21
2.77707
0
LINE
8
BLACK
6
CONTINUOUS
10
2.04022
20
2.77707
11
2.03796
21
2.78844
0
LINE
8
BLACK
6
CONTINUOUS
10
2.03796
20
2.78844
11
2.0372
21
2.8
0
LINE
8
BLACK
6
CONTINUOUS
10
2.0372
20
2.8
11
2.03796
21
2.81156
0
LINE
8
BLACK
6
CONTINUOUS
10
2.03796
20
2.81156
11
2.04022
21
2.82293
0
LINE
8
BLACK
6
CONTINUOUS
10
2.04022
20
2.82293
11
2.04395
21
2.8339
0
LINE
8
BLACK
6
CONTINUOUS
10
2.04395
20
2.8339
11
2.04907
21
2.84429
0
LINE
8
BLACK
6
CONTINUOUS
10
2.04907
20
2.84429
11
2.05551
21
2.85393
0
LINE
8
BLACK
6
CONTINUOUS
10
2.05551
20
2.85393
11
2.06315
21
2.86264
0
LINE
8
BLACK
6
CONTINUOUS
10
2.06315
20
2.86264
11
2.07186
21
2.87028
0
LINE
8
BLACK
6
CONTINUOUS
10
2.07186
20
2.87028
11
2.0815
21
2.87671
0
LINE
8
BLACK
6
CONTINUOUS
10
2.0815
20
2.87671
11
2.09189
21
2.88184
0
LINE
8
BLACK
6
CONTINUOUS
10
2.09189
20
2.88184
11
2.10286
21
2.88556
0
LINE
8
BLACK
6
CONTINUOUS
10
2.10286
20
2.88556
11
2.11423
21
2.88782
0
LINE
8
BLACK
6
CONTINUOUS
10
2.11423
20
2.88782
11
2.12579
21
2.88858
0
LINE
8
BLACK
6
CONTINUOUS
10
2.12579
20
2.88858
11
2.13735
21
2.88782
0
LINE
8
BLACK
6
CONTINUOUS
10
0.104806
20
2.84846
11
0.113092
21
2.84624
0
LINE
8
BLACK
6
CONTINUOUS
10
0.113092
20
2.84624
11
0.120866
21
2.84262
0
LINE
8
BLACK
6
CONTINUOUS
10
0.120866
20
2.84262
11
0.127893
21
2.8377
0
LINE
8
BLACK
6
CONTINUOUS
10
0.127893
20
2.8377
11
0.133959
21
2.83163
0
LINE
8
BLACK
6
CONTINUOUS
10
0.133959
20
2.83163
11
0.138879
21
2.82461
0
LINE
8
BLACK
6
CONTINUOUS
10
0.138879
20
2.82461
11
0.142505
21
2.81683
0
LINE
8
BLACK
6
CONTINUOUS
10
0.142505
20
2.81683
11
0.144725
21
2.80855
0
LINE
8
BLACK
6
CONTINUOUS
10
0.144725
20
2.80855
11
0.145472
21
2.8
0
LINE
8
BLACK
6
CONTINUOUS
10
0.145472
20
2.8
11
0.144725
21
2.79145
0
LINE
8
BLACK
6
CONTINUOUS
10
0.144725
20
2.79145
11
0.142505
21
2.78317
0
LINE
8
BLACK
6
CONTINUOUS
10
0.142505
20
2.78317
11
0.138879
21
2.77539
0
LINE
8
BLACK
6
CONTINUOUS
10
0.138879
20
2.77539
11
0.133959
21
2.76837
0
LINE
8
BLACK
6
CONTINUOUS
10
0.133959
20
2.76837
11
0.127893
21
2.7623
0
LINE
8
BLACK
6
CONTINUOUS
10
0.127893
20
2.7623
11
0.120866
21
2.75738
0
LINE
8
BLACK
6
CONTINUOUS
10
0.120866
20
2.75738
11
0.113092
21
2.75376
0
LINE
8
BLACK
6
CONTINUOUS
10
0.113092
20
2.75376
11
0.104806
21
2.75154
0
LINE
8
BLACK
6
CONTINUOUS
10
0.104806
20
2.75154
11
0.0962598
21
2.75079
0
LINE
8
BLACK
6
CONTINUOUS
10
0.0962598
20
2.75079
11
0.0877142
21
2.75154
0
LINE
8
BLACK
6
CONTINUOUS
10
0.0877142
20
2.75154
11
0.0794281
21
2.75376
0
LINE
8
BLACK
6
CONTINUOUS
10
0.0794281
20
2.75376
11
0.0716535
21
2.75738
0
LINE
8
BLACK
6
CONTINUOUS
10
0.0716535
20
2.75738
11
0.0646266
21
2.7623
0
LINE
8
BLACK
6
CONTINUOUS
10
0.0646266
20
2.7623
11
0.0585608
21
2.76837
0
LINE
8
BLACK
6
CONTINUOUS
10
0.0585608
20
2.76837
11
0.0536405
21
2.77539
0
LINE
8
BLACK
6
CONTINUOUS
10
0.0536405
20
2.77539
11
0.0500151
21
2.78317
0
LINE
8
BLACK
6
CONTINUOUS
10
0.0500151
20
2.78317
11
0.0477949
21
2.79145
0
LINE
8
BLACK
6
CONTINUOUS
10
0.0477949
20
2.79145
11
0.0470472
21
2.8
0
LINE
8
BLACK
6
CONTINUOUS
10
0.0470472
20
2.8
11
0.0477949
21
2.80855
0
LINE
8
BLACK
6
CONTINUOUS
10
0.0477949
20
2.80855
11
0.0500151
21
2.81683
0
LINE
8
BLACK
6
CONTINUOUS
10
0.0500151
20
2.81683
11
0.0536405
21
2.82461
0
LINE
8
BLACK
6
CONTINUOUS
10
0.0536405
20
2.82461
11
0.0585608
21
2.83163
0
LINE
8
BLACK
6
CONTINUOUS
10
0.0585608
20
2.83163
11
0.0646266
21
2.8377
0
LINE
8
BLACK
6
CONTINUOUS
10
0.0646266
20
2.8377
11
0.0716535
21
2.84262
0
LINE
8
BLACK
6
CONTINUOUS
10
0.0716535
20
2.84262
11
0.0794281
21
2.84624
0
LINE
8
BLACK
6
CONTINUOUS
10
0.0794281
20
2.84624
11
0.0877142
21
2.84846
0
LINE
8
BLACK
6
CONTINUOUS
10
0.0877142
20
2.84846
11
0.0962598
21
2.84921
0
LINE
8
BLACK
6
CONTINUOUS
10
0.0962598
20
2.84921
11
0.104806
21
2.84846
0
LINE
8
BLACK
6
CONTINUOUS
10
2.76229
20
2.84846
11
2.77057
21
2.84624
0
LINE
8
BLACK
6
CONTINUOUS
10
2.77057
20
2.84624
11
2.77835
21
2.84262
0
LINE
8
BLACK
6
CONTINUOUS
10
2.77835
20
2.84262
11
2.78537
21
2.8377
0
LINE
8
BLACK
6
CONTINUOUS
10
2.78537
20
2.8377
11
2.79144
21
2.83163
0
LINE
8
BLACK
6
CONTINUOUS
10
2.79144
20
2.83163
11
2.79636
21
2.82461
0
LINE
8
BLACK
6
CONTINUOUS
10
2.79636
20
2.82461
11
2.79998
21
2.81683
0
LINE
8
BLACK
6
CONTINUOUS
10
2.79998
20
2.81683
11
2.80221
21
2.80855
0
LINE
8
BLACK
6
CONTINUOUS
10
2.80221
20
2.80855
11
2.80295
21
2.8
0
LINE
8
BLACK
6
CONTINUOUS
10
2.80295
20
2.8
11
2.80221
21
2.79145
0
LINE
8
BLACK
6
CONTINUOUS
10
2.80221
20
2.79145
11
2.79998
21
2.78317
0
LINE
8
BLACK
6
CONTINUOUS
10
2.79998
20
2.78317
11
2.79636
21
2.77539
0
LINE
8
BLACK
6
CONTINUOUS
10
2.79636
20
2.77539
11
2.79144
21
2.76837
0
LINE
8
BLACK
6
CONTINUOUS
10
2.79144
20
2.76837
11
2.78537
21
2.7623
0
LINE
8
BLACK
6
CONTINUOUS
10
2.78537
20
2.7623
11
2.77835
21
2.75738
0
LINE
8
BLACK
6
CONTINUOUS
10
2.77835
20
2.75738
11
2.77057
21
2.75376
0
LINE
8
BLACK
6
CONTINUOUS
10
2.77057
20
2.75376
11
2.76229
21
2.75154
0
LINE
8
BLACK
6
CONTINUOUS
10
2.76229
20
2.75154
11
2.75374
21
2.75079
0
LINE
8
BLACK
6
CONTINUOUS
10
2.75374
20
2.75079
11
2.74519
21
2.75154
0
LINE
8
BLACK
6
CONTINUOUS
10
2.74519
20
2.75154
11
2.73691
21
2.75376
0
LINE
8
BLACK
6
CONTINUOUS
10
2.73691
20
2.75376
11
2.72913
21
2.75738
0
LINE
8
BLACK
6
CONTINUOUS
10
2.72913
20
2.75738
11
2.72211
21
2.7623
0
LINE
8
BLACK
6
CONTINUOUS
10
2.72211
20
2.7623
11
2.71604
21
2.76837
0
LINE
8
BLACK
6
CONTINUOUS
10
2.71604
20
2.76837
11
2.71112
21
2.77539
0
LINE
8
BLACK
6
CONTINUOUS
10
2.71112
20
2.77539
11
2.7075
21
2.78317
0
LINE
8
BLACK
6
CONTINUOUS
10
2.7075
20
2.78317
11
2.70528
21
2.79145
0
LINE
8
BLACK
6
CONTINUOUS
10
2.70528
20
2.79145
11
2.70453
21
2.8
0
LINE
8
BLACK
6
CONTINUOUS
10
2.70453
20
2.8
11
2.70528
21
2.80855
0
LINE
8
BLACK
6
CONTINUOUS
10
2.70528
20
2.80855
11
2.7075
21
2.81683
0
LINE
8
BLACK
6
CONTINUOUS
10
2.7075
20
2.81683
11
2.71112
21
2.82461
0
LINE
8
BLACK
6
CONTINUOUS
10
2.71112
20
2.82461
11
2.71604
21
2.83163
0
LINE
8
BLACK
6
CONTINUOUS
10
2.71604
20
2.83163
11
2.72211
21
2.8377
0
LINE
8
BLACK
6
CONTINUOUS
10
2.72211
20
2.8377
11
2.72913
21
2.84262
0
LINE
8
BLACK
6
CONTINUOUS
10
2.72913
20
2.84262
11
2.73691
21
2.84624
0
LINE
8
BLACK
6
CONTINUOUS
10
2.73691
20
2.84624
11
2.74519
21
2.84846
0
LINE
8
BLACK
6
CONTINUOUS
10
2.74519
20
2.84846
11
2.75374
21
2.84921
0
LINE
8
BLACK
6
CONTINUOUS
10
2.75374
20
2.84921
11
2.76229
21
2.84846
0
LINE
8
BLACK
6
CONTINUOUS
10
2.95658
20
2.83271
11
2.96282
21
2.83052
0
LINE
8
BLACK
6
CONTINUOUS
10
2.96282
20
2.83052
11
2.96842
21
2.827
0
LINE
8
BLACK
6
CONTINUOUS
10
2.96842
20
2.827
11
2.9731
21
2.82232
0
LINE
8
BLACK
6
CONTINUOUS
10
2.9731
20
2.82232
11
2.97662
21
2.81672
0
LINE
8
BLACK
6
CONTINUOUS
10
2.97662
20
2.81672
11
2.97881
21
2.81048
0
LINE
8
BLACK
6
CONTINUOUS
10
2.97881
20
2.81048
11
2.97955
21
2.8039
0
LINE
8
BLACK
6
CONTINUOUS
10
2.97955
20
2.8039
11
2.97881
21
2.79732
0
LINE
8
BLACK
6
CONTINUOUS
10
2.97881
20
2.79732
11
2.97662
21
2.79108
0
LINE
8
BLACK
6
CONTINUOUS
10
2.97662
20
2.79108
11
2.9731
21
2.78548
0
LINE
8
BLACK
6
CONTINUOUS
10
2.9731
20
2.78548
11
2.96842
21
2.7808
0
LINE
8
BLACK
6
CONTINUOUS
10
2.96842
20
2.7808
11
2.96282
21
2.77728
0
LINE
8
BLACK
6
CONTINUOUS
10
2.96282
20
2.77728
11
2.95658
21
2.77509
0
LINE
8
BLACK
6
CONTINUOUS
10
2.95658
20
2.77509
11
2.95
21
2.77435
0
LINE
8
BLACK
6
CONTINUOUS
10
2.95
20
2.77435
11
2.94342
21
2.77509
0
LINE
8
BLACK
6
CONTINUOUS
10
2.94342
20
2.77509
11
2.93718
21
2.77728
0
LINE
8
BLACK
6
CONTINUOUS
10
2.93718
20
2.77728
11
2.93158
21
2.7808
0
LINE
8
BLACK
6
CONTINUOUS
10
2.93158
20
2.7808
11
2.9269
21
2.78548
0
LINE
8
BLACK
6
CONTINUOUS
10
2.9269
20
2.78548
11
2.92338
21
2.79108
0
LINE
8
BLACK
6
CONTINUOUS
10
2.92338
20
2.79108
11
2.92119
21
2.79732
0
LINE
8
BLACK
6
CONTINUOUS
10
2.92119
20
2.79732
11
2.92045
21
2.8039
0
LINE
8
BLACK
6
CONTINUOUS
10
2.92045
20
2.8039
11
2.92119
21
2.81048
0
LINE
8
BLACK
6
CONTINUOUS
10
2.92119
20
2.81048
11
2.92338
21
2.81672
0
LINE
8
BLACK
6
CONTINUOUS
10
2.92338
20
2.81672
11
2.9269
21
2.82232
0
LINE
8
BLACK
6
CONTINUOUS
10
2.9269
20
2.82232
11
2.93158
21
2.827
0
LINE
8
BLACK
6
CONTINUOUS
10
2.93158
20
2.827
11
2.93718
21
2.83052
0
LINE
8
BLACK
6
CONTINUOUS
10
2.93718
20
2.83052
11
2.94342
21
2.83271
0
LINE
8
BLACK
6
CONTINUOUS
10
2.94342
20
2.83271
11
2.95
21
2.83345
0
LINE
8
BLACK
6
CONTINUOUS
10
2.95
20
2.83345
11
2.95658
21
2.83271
0
LINE
8
BLACK
6
CONTINUOUS
10
2.95658
20
3.02491
11
2.96282
21
3.02272
0
LINE
8
BLACK
6
CONTINUOUS
10
2.96282
20
3.02272
11
2.96842
21
3.0192
0
LINE
8
BLACK
6
CONTINUOUS
10
2.96842
20
3.0192
11
2.9731
21
3.01452
0
LINE
8
BLACK
6
CONTINUOUS
10
2.9731
20
3.01452
11
2.97662
21
3.00892
0
LINE
8
BLACK
6
CONTINUOUS
10
2.97662
20
3.00892
11
2.97881
21
3.00268
0
LINE
8
BLACK
6
CONTINUOUS
10
2.97881
20
3.00268
11
2.97955
21
2.9961
0
LINE
8
BLACK
6
CONTINUOUS
10
2.97955
20
2.9961
11
2.97881
21
2.98952
0
LINE
8
BLACK
6
CONTINUOUS
10
2.97881
20
2.98952
11
2.97662
21
2.98328
0
LINE
8
BLACK
6
CONTINUOUS
10
2.97662
20
2.98328
11
2.9731
21
2.97768
0
LINE
8
BLACK
6
CONTINUOUS
10
2.9731
20
2.97768
11
2.96842
21
2.973
0
LINE
8
BLACK
6
CONTINUOUS
10
2.96842
20
2.973
11
2.96282
21
2.96948
0
LINE
8
BLACK
6
CONTINUOUS
10
2.96282
20
2.96948
11
2.95658
21
2.96729
0
LINE
8
BLACK
6
CONTINUOUS
10
2.95658
20
2.96729
11
2.95
21
2.96655
0
LINE
8
BLACK
6
CONTINUOUS
10
2.95
20
2.96655
11
2.94342
21
2.96729
0
LINE
8
BLACK
6
CONTINUOUS
10
2.94342
20
2.96729
11
2.93718
21
2.96948
0
LINE
8
BLACK
6
CONTINUOUS
10
2.93718
20
2.96948
11
2.93158
21
2.973
0
LINE
8
BLACK
6
CONTINUOUS
10
2.93158
20
2.973
11
2.9269
21
2.97768
0
LINE
8
BLACK
6
CONTINUOUS
10
2.9269
20
2.97768
11
2.92338
21
2.98328
0
LINE
8
BLACK
6
CONTINUOUS
10
2.92338
20
2.98328
11
2.92119
21
2.98952
0
LINE
8
BLACK
6
CONTINUOUS
10
2.92119
20
2.98952
11
2.92045
21
2.9961
0
LINE
8
BLACK
6
CONTINUOUS
10
2.92045
20
2.9961
11
2.92119
21
3.00268
0
LINE
8
BLACK
6
CONTINUOUS
10
2.92119
20
3.00268
11
2.92338
21
3.00892
0
LINE
8
BLACK
6
CONTINUOUS
10
2.92338
20
3.00892
11
2.9269
21
3.01452
0
LINE
8
BLACK
6
CONTINUOUS
10
2.9269
20
3.01452
11
2.93158
21
3.0192
0
LINE
8
BLACK
6
CONTINUOUS
10
2.93158
20
3.0192
11
2.93718
21
3.02272
0
LINE
8
BLACK
6
CONTINUOUS
10
2.93718
20
3.02272
11
2.94342
21
3.02491
0
LINE
8
BLACK
6
CONTINUOUS
10
2.94342
20
3.02491
11
2.95
21
3.02565
0
LINE
8
BLACK
6
CONTINUOUS
10
2.95
20
3.02565
11
2.95658
21
3.02491
0
LINE
8
BLACK
6
CONTINUOUS
10
2.93
20
3.17
11
2.87
21
3.17
0
LINE
8
BLACK
6
CONTINUOUS
10
2.87
20
3.17
11
2.87
21
3.23
0
LINE
8
BLACK
6
CONTINUOUS
10
2.87
20
3.23
11
2.93
21
3.23
0
LINE
8
BLACK
6
CONTINUOUS
10
2.93
20
3.23
11
2.93
21
3.17
0
LINE
8
BLACK
6
CONTINUOUS
10
3.03
20
3.17
11
2.97
21
3.17
0
LINE
8
BLACK
6
CONTINUOUS
10
2.97
20
3.17
11
2.97
21
3.23
0
LINE
8
BLACK
6
CONTINUOUS
10
2.97
20
3.23
11
3.03
21
3.23
0
LINE
8
BLACK
6
CONTINUOUS
10
3.03
20
3.23
11
3.03
21
3.17
0
LINE
8
BLACK
6
CONTINUOUS
10
2.93
20
3.32
11
2.87
21
3.32
0
LINE
8
BLACK
6
CONTINUOUS
10
2.87
20
3.32
11
2.87
21
3.38
0
LINE
8
BLACK
6
CONTINUOUS
10
2.87
20
3.38
11
2.93
21
3.38
0
LINE
8
BLACK
6
CONTINUOUS
10
2.93
20
3.38
11
2.93
21
3.32
0
LINE
8
BLACK
6
CONTINUOUS
10
3.03
20
3.32
11
2.97
21
3.32
0
LINE
8
BLACK
6
CONTINUOUS
10
2.97
20
3.32
11
2.97
21
3.38
0
LINE
8
BLACK
6
CONTINUOUS
10
2.97
20
3.38
11
3.03
21
3.38
0
LINE
8
BLACK
6
CONTINUOUS
10
3.03
20
3.38
11
3.03
21
3.32
0
LINE
8
BLACK
6
CONTINUOUS
10
2.93
20
3.42
11
2.87
21
3.42
0
LINE
8
BLACK
6
CONTINUOUS
10
2.87
20
3.42
11
2.87
21
3.48
0
LINE
8
BLACK
6
CONTINUOUS
10
2.87
20
3.48
11
2.93
21
3.48
0
LINE
8
BLACK
6
CONTINUOUS
10
2.93
20
3.48
11
2.93
21
3.42
0
LINE
8
BLACK
6
CONTINUOUS
10
3.03
20
3.42
11
2.97
21
3.42
0
LINE
8
BLACK
6
CONTINUOUS
10
2.97
20
3.42
11
2.97
21
3.48
0
LINE
8
BLACK
6
CONTINUOUS
10
2.97
20
3.48
11
3.03
21
3.48
0
LINE
8
BLACK
6
CONTINUOUS
10
3.03
20
3.48
11
3.03
21
3.42
0
LINE
8
BLACK
6
CONTINUOUS
10
2.93
20
3.52
11
2.87
21
3.52
0
LINE
8
BLACK
6
CONTINUOUS
10
2.87
20
3.52
11
2.87
21
3.58
0
LINE
8
BLACK
6
CONTINUOUS
10
2.87
20
3.58
11
2.93
21
3.58
0
LINE
8
BLACK
6
CONTINUOUS
10
2.93
20
3.58
11
2.93
21
3.52
0
LINE
8
BLACK
6
CONTINUOUS
10
3.03
20
3.52
11
2.97
21
3.52
0
LINE
8
BLACK
6
CONTINUOUS
10
2.97
20
3.52
11
2.97
21
3.58
0
LINE
8
BLACK
6
CONTINUOUS
10
2.97
20
3.58
11
3.03
21
3.58
0
LINE
8
BLACK
6
CONTINUOUS
10
3.03
20
3.58
11
3.03
21
3.52
0
LINE
8
BLACK
6
CONTINUOUS
10
0.53
20
3.62
11
0.47
21
3.62
0
LINE
8
BLACK
6
CONTINUOUS
10
0.47
20
3.62
11
0.47
21
3.68
0
LINE
8
BLACK
6
CONTINUOUS
10
0.47
20
3.68
11
0.53
21
3.68
0
LINE
8
BLACK
6
CONTINUOUS
10
0.53
20
3.68
11
0.53
21
3.62
0
LINE
8
BLACK
6
CONTINUOUS
10
0.63
20
3.62
11
0.57
21
3.62
0
LINE
8
BLACK
6
CONTINUOUS
10
0.57
20
3.62
11
0.57
21
3.68
0
LINE
8
BLACK
6
CONTINUOUS
10
0.57
20
3.68
11
0.63
21
3.68
0
LINE
8
BLACK
6
CONTINUOUS
10
0.63
20
3.68
11
0.63
21
3.62
0
LINE
8
BLACK
6
CONTINUOUS
10
0.73
20
3.62
11
0.67
21
3.62
0
LINE
8
BLACK
6
CONTINUOUS
10
0.67
20
3.62
11
0.67
21
3.68
0
LINE
8
BLACK
6
CONTINUOUS
10
0.67
20
3.68
11
0.73
21
3.68
0
LINE
8
BLACK
6
CONTINUOUS
10
0.73
20
3.68
11
0.73
21
3.62
0
LINE
8
BLACK
6
CONTINUOUS
10
0.83
20
3.62
11
0.77
21
3.62
0
LINE
8
BLACK
6
CONTINUOUS
10
0.77
20
3.62
11
0.77
21
3.68
0
LINE
8
BLACK
6
CONTINUOUS
10
0.77
20
3.68
11
0.83
21
3.68
0
LINE
8
BLACK
6
CONTINUOUS
10
0.83
20
3.68
11
0.83
21
3.62
0
LINE
8
BLACK
6
CONTINUOUS
10
0.93
20
3.62
11
0.87
21
3.62
0
LINE
8
BLACK
6
CONTINUOUS
10
0.87
20
3.62
11
0.87
21
3.68
0
LINE
8
BLACK
6
CONTINUOUS
10
0.87
20
3.68
11
0.93
21
3.68
0
LINE
8
BLACK
6
CONTINUOUS
10
0.93
20
3.68
11
0.93
21
3.62
0
LINE
8
BLACK
6
CONTINUOUS
10
1.605
20
3.62
11
1.545
21
3.62
0
LINE
8
BLACK
6
CONTINUOUS
10
1.545
20
3.62
11
1.545
21
3.68
0
LINE
8
BLACK
6
CONTINUOUS
10
1.545
20
3.68
11
1.605
21
3.68
0
LINE
8
BLACK
6
CONTINUOUS
10
1.605
20
3.68
11
1.605
21
3.62
0
LINE
8
BLACK
6
CONTINUOUS
10
1.805
20
3.62
11
1.745
21
3.62
0
LINE
8
BLACK
6
CONTINUOUS
10
1.745
20
3.62
11
1.745
21
3.68
0
LINE
8
BLACK
6
CONTINUOUS
10
1.745
20
3.68
11
1.805
21
3.68
0
LINE
8
BLACK
6
CONTINUOUS
10
1.805
20
3.68
11
1.805
21
3.62
0
LINE
8
BLACK
6
CONTINUOUS
10
1.905
20
3.62
11
1.845
21
3.62
0
LINE
8
BLACK
6
CONTINUOUS
10
1.845
20
3.62
11
1.845
21
3.68
0
LINE
8
BLACK
6
CONTINUOUS
10
1.845
20
3.68
11
1.905
21
3.68
0
LINE
8
BLACK
6
CONTINUOUS
10
1.905
20
3.68
11
1.905
21
3.62
0
LINE
8
BLACK
6
CONTINUOUS
10
2.005
20
3.62
11
1.945
21
3.62
0
LINE
8
BLACK
6
CONTINUOUS
10
1.945
20
3.62
11
1.945
21
3.68
0
LINE
8
BLACK
6
CONTINUOUS
10
1.945
20
3.68
11
2.005
21
3.68
0
LINE
8
BLACK
6
CONTINUOUS
10
2.005
20
3.68
11
2.005
21
3.62
0
LINE
8
BLACK
6
CONTINUOUS
10
2.105
20
3.62
11
2.045
21
3.62
0
LINE
8
BLACK
6
CONTINUOUS
10
2.045
20
3.62
11
2.045
21
3.68
0
LINE
8
BLACK
6
CONTINUOUS
10
2.045
20
3.68
11
2.105
21
3.68
0
LINE
8
BLACK
6
CONTINUOUS
10
2.105
20
3.68
11
2.105
21
3.62
0
LINE
8
BLACK
6
CONTINUOUS
10
2.205
20
3.62
11
2.145
21
3.62
0
LINE
8
BLACK
6
CONTINUOUS
10
2.145
20
3.62
11
2.145
21
3.68
0
LINE
8
BLACK
6
CONTINUOUS
10
2.145
20
3.68
11
2.205
21
3.68
0
LINE
8
BLACK
6
CONTINUOUS
10
2.205
20
3.68
11
2.205
21
3.62
0
LINE
8
BLACK
6
CONTINUOUS
10
2.505
20
3.62
11
2.445
21
3.62
0
LINE
8
BLACK
6
CONTINUOUS
10
2.445
20
3.62
11
2.445
21
3.68
0
LINE
8
BLACK
6
CONTINUOUS
10
2.445
20
3.68
11
2.505
21
3.68
0
LINE
8
BLACK
6
CONTINUOUS
10
2.505
20
3.68
11
2.505
21
3.62
0
LINE
8
BLACK
6
CONTINUOUS
10
2.605
20
3.62
11
2.545
21
3.62
0
LINE
8
BLACK
6
CONTINUOUS
10
2.545
20
3.62
11
2.545
21
3.68
0
LINE
8
BLACK
6
CONTINUOUS
10
2.545
20
3.68
11
2.605
21
3.68
0
LINE
8
BLACK
6
CONTINUOUS
10
2.605
20
3.68
11
2.605
21
3.62
0
LINE
8
BLACK
6
CONTINUOUS
10
2.705
20
3.62
11
2.645
21
3.62
0
LINE
8
BLACK
6
CONTINUOUS
10
2.645
20
3.62
11
2.645
21
3.68
0
LINE
8
BLACK
6
CONTINUOUS
10
2.645
20
3.68
11
2.705
21
3.68
0
LINE
8
BLACK
6
CONTINUOUS
10
2.705
20
3.68
11
2.705
21
3.62
0
LINE
8
BLACK
6
CONTINUOUS
10
3.02051
20
3.90372
11
3.03387
21
3.90055
0
LINE
8
BLACK
6
CONTINUOUS
10
3.03387
20
3.90055
11
3.04678
21
3.89585
0
LINE
8
BLACK
6
CONTINUOUS
10
3.04678
20
3.89585
11
3.05906
21
3.88969
0
LINE
8
BLACK
6
CONTINUOUS
10
3.05906
20
3.88969
11
3.07053
21
3.88214
0
LINE
8
BLACK
6
CONTINUOUS
10
3.07053
20
3.88214
11
3.08105
21
3.87331
0
LINE
8
BLACK
6
CONTINUOUS
10
3.08105
20
3.87331
11
3.09048
21
3.86332
0
LINE
8
BLACK
6
CONTINUOUS
10
3.09048
20
3.86332
11
3.09868
21
3.8523
0
LINE
8
BLACK
6
CONTINUOUS
10
3.09868
20
3.8523
11
3.10555
21
3.84041
0
LINE
8
BLACK
6
CONTINUOUS
10
3.10555
20
3.84041
11
3.11099
21
3.8278
0
LINE
8
BLACK
6
CONTINUOUS
10
3.11099
20
3.8278
11
3.11493
21
3.81464
0
LINE
8
BLACK
6
CONTINUOUS
10
3.11493
20
3.81464
11
3.11731
21
3.80111
0
LINE
8
BLACK
6
CONTINUOUS
10
3.11731
20
3.80111
11
3.11811
21
3.7874
0
LINE
8
BLACK
6
CONTINUOUS
10
3.11811
20
3.7874
11
3.11731
21
3.77369
0
LINE
8
BLACK
6
CONTINUOUS
10
3.11731
20
3.77369
11
3.11493
21
3.76016
0
LINE
8
BLACK
6
CONTINUOUS
10
3.11493
20
3.76016
11
3.11099
21
3.74701
0
LINE
8
BLACK
6
CONTINUOUS
10
3.11099
20
3.74701
11
3.10555
21
3.73439
0
LINE
8
BLACK
6
CONTINUOUS
10
3.10555
20
3.73439
11
3.09868
21
3.7225
0
LINE
8
BLACK
6
CONTINUOUS
10
3.09868
20
3.7225
11
3.09048
21
3.71148
0
LINE
8
BLACK
6
CONTINUOUS
10
3.09048
20
3.71148
11
3.08105
21
3.70149
0
LINE
8
BLACK
6
CONTINUOUS
10
3.08105
20
3.70149
11
3.07053
21
3.69266
0
LINE
8
BLACK
6
CONTINUOUS
10
3.07053
20
3.69266
11
3.05906
21
3.68512
0
LINE
8
BLACK
6
CONTINUOUS
10
3.05906
20
3.68512
11
3.04678
21
3.67895
0
LINE
8
BLACK
6
CONTINUOUS
10
3.04678
20
3.67895
11
3.03387
21
3.67425
0
LINE
8
BLACK
6
CONTINUOUS
10
3.03387
20
3.67425
11
3.02051
21
3.67109
0
LINE
8
BLACK
6
CONTINUOUS
10
3.02051
20
3.67109
11
3.00687
21
3.66949
0
LINE
8
BLACK
6
CONTINUOUS
10
3.00687
20
3.66949
11
2.99313
21
3.66949
0
LINE
8
BLACK
6
CONTINUOUS
10
2.99313
20
3.66949
11
2.97949
21
3.67109
0
LINE
8
BLACK
6
CONTINUOUS
10
2.97949
20
3.67109
11
2.96613
21
3.67425
0
LINE
8
BLACK
6
CONTINUOUS
10
2.96613
20
3.67425
11
2.95322
21
3.67895
0
LINE
8
BLACK
6
CONTINUOUS
10
2.95322
20
3.67895
11
2.94094
21
3.68512
0
LINE
8
BLACK
6
CONTINUOUS
10
2.94094
20
3.68512
11
2.92947
21
3.69266
0
LINE
8
BLACK
6
CONTINUOUS
10
2.92947
20
3.69266
11
2.91895
21
3.70149
0
LINE
8
BLACK
6
CONTINUOUS
10
2.91895
20
3.70149
11
2.90952
21
3.71148
0
LINE
8
BLACK
6
CONTINUOUS
10
2.90952
20
3.71148
11
2.90132
21
3.7225
0
LINE
8
BLACK
6
CONTINUOUS
10
2.90132
20
3.7225
11
2.89445
21
3.73439
0
LINE
8
BLACK
6
CONTINUOUS
10
2.89445
20
3.73439
11
2.88901
21
3.74701
0
LINE
8
BLACK
6
CONTINUOUS
10
2.88901
20
3.74701
11
2.88507
21
3.76016
0
LINE
8
BLACK
6
CONTINUOUS
10
2.88507
20
3.76016
11
2.88269
21
3.77369
0
LINE
8
BLACK
6
CONTINUOUS
10
2.88269
20
3.77369
11
2.88189
21
3.7874
0
LINE
8
BLACK
6
CONTINUOUS
10
2.88189
20
3.7874
11
2.88269
21
3.80111
0
LINE
8
BLACK
6
CONTINUOUS
10
2.88269
20
3.80111
11
2.88507
21
3.81464
0
LINE
8
BLACK
6
CONTINUOUS
10
2.88507
20
3.81464
11
2.88901
21
3.8278
0
LINE
8
BLACK
6
CONTINUOUS
10
2.88901
20
3.8278
11
2.89445
21
3.84041
0
LINE
8
BLACK
6
CONTINUOUS
10
2.89445
20
3.84041
11
2.90132
21
3.8523
0
LINE
8
BLACK
6
CONTINUOUS
10
2.90132
20
3.8523
11
2.90952
21
3.86332
0
LINE
8
BLACK
6
CONTINUOUS
10
2.90952
20
3.86332
11
2.91895
21
3.87331
0
LINE
8
BLACK
6
CONTINUOUS
10
2.91895
20
3.87331
11
2.92947
21
3.88214
0
LINE
8
BLACK
6
CONTINUOUS
10
2.92947
20
3.88214
11
2.94094
21
3.88969
0
LINE
8
BLACK
6
CONTINUOUS
10
2.94094
20
3.88969
11
2.95322
21
3.89585
0
LINE
8
BLACK
6
CONTINUOUS
10
2.95322
20
3.89585
11
2.96613
21
3.90055
0
LINE
8
BLACK
6
CONTINUOUS
10
2.96613
20
3.90055
11
2.97949
21
3.90372
0
LINE
8
BLACK
6
CONTINUOUS
10
2.97949
20
3.90372
11
2.99313
21
3.90531
0
LINE
8
BLACK
6
CONTINUOUS
10
2.99313
20
3.90531
11
3.00687
21
3.90531
0
LINE
8
BLACK
6
CONTINUOUS
10
3.00687
20
3.90531
11
3.02051
21
3.90372
0
LINE
8
BLACK
6
CONTINUOUS
10
0.22051
20
3.91632
11
0.233874
21
3.91315
0
LINE
8
BLACK
6
CONTINUOUS
10
0.233874
20
3.91315
11
0.246781
21
3.90845
0
LINE
8
BLACK
6
CONTINUOUS
10
0.246781
20
3.90845
11
0.259055
21
3.90229
0
LINE
8
BLACK
6
CONTINUOUS
10
0.259055
20
3.90229
11
0.270531
21
3.89474
0
LINE
8
BLACK
6
CONTINUOUS
10
0.270531
20
3.89474
11
0.281052
21
3.88591
0
LINE
8
BLACK
6
CONTINUOUS
10
0.281052
20
3.88591
11
0.290478
21
3.87592
0
LINE
8
BLACK
6
CONTINUOUS
10
0.290478
20
3.87592
11
0.29868
21
3.8649
0
LINE
8
BLACK
6
CONTINUOUS
10
0.29868
20
3.8649
11
0.305547
21
3.85301
0
LINE
8
BLACK
6
CONTINUOUS
10
0.305547
20
3.85301
11
0.310987
21
3.8404
0
LINE
8
BLACK
6
CONTINUOUS
10
0.310987
20
3.8404
11
0.314927
21
3.82724
0
LINE
8
BLACK
6
CONTINUOUS
10
0.314927
20
3.82724
11
0.317312
21
3.81371
0
LINE
8
BLACK
6
CONTINUOUS
10
0.317312
20
3.81371
11
0.31811
21
3.8
0
LINE
8
BLACK
6
CONTINUOUS
10
0.31811
20
3.8
11
0.317312
21
3.78629
0
LINE
8
BLACK
6
CONTINUOUS
10
0.317312
20
3.78629
11
0.314927
21
3.77276
0
LINE
8
BLACK
6
CONTINUOUS
10
0.314927
20
3.77276
11
0.310987
21
3.7596
0
LINE
8
BLACK
6
CONTINUOUS
10
0.310987
20
3.7596
11
0.305547
21
3.74699
0
LINE
8
BLACK
6
CONTINUOUS
10
0.305547
20
3.74699
11
0.29868
21
3.7351
0
LINE
8
BLACK
6
CONTINUOUS
10
0.29868
20
3.7351
11
0.290478
21
3.72408
0
LINE
8
BLACK
6
CONTINUOUS
10
0.290478
20
3.72408
11
0.281052
21
3.71409
0
LINE
8
BLACK
6
CONTINUOUS
10
0.281052
20
3.71409
11
0.270531
21
3.70526
0
LINE
8
BLACK
6
CONTINUOUS
10
0.270531
20
3.70526
11
0.259055
21
3.69771
0
LINE
8
BLACK
6
CONTINUOUS
10
0.259055
20
3.69771
11
0.246781
21
3.69155
0
LINE
8
BLACK
6
CONTINUOUS
10
0.246781
20
3.69155
11
0.233874
21
3.68685
0
LINE
8
BLACK
6
CONTINUOUS
10
0.233874
20
3.68685
11
0.22051
21
3.68368
0
LINE
8
BLACK
6
CONTINUOUS
10
0.22051
20
3.68368
11
0.206867
21
3.68209
0
LINE
8
BLACK
6
CONTINUOUS
10
0.206867
20
3.68209
11
0.193133
21
3.68209
0
LINE
8
BLACK
6
CONTINUOUS
10
0.193133
20
3.68209
11
0.17949
21
3.68368
0
LINE
8
BLACK
6
CONTINUOUS
10
0.17949
20
3.68368
11
0.166126
21
3.68685
0
LINE
8
BLACK
6
CONTINUOUS
10
0.166126
20
3.68685
11
0.153219
21
3.69155
0
LINE
8
BLACK
6
CONTINUOUS
10
0.153219
20
3.69155
11
0.140945
21
3.69771
0
LINE
8
BLACK
6
CONTINUOUS
10
0.140945
20
3.69771
11
0.129469
21
3.70526
0
LINE
8
BLACK
6
CONTINUOUS
10
0.129469
20
3.70526
11
0.118948
21
3.71409
0
LINE
8
BLACK
6
CONTINUOUS
10
0.118948
20
3.71409
11
0.109522
21
3.72408
0
LINE
8
BLACK
6
CONTINUOUS
10
0.109522
20
3.72408
11
0.10132
21
3.7351
0
LINE
8
BLACK
6
CONTINUOUS
10
0.10132
20
3.7351
11
0.0944528
21
3.74699
0
LINE
8
BLACK
6
CONTINUOUS
10
0.0944528
20
3.74699
11
0.0890127
21
3.7596
0
LINE
8
BLACK
6
CONTINUOUS
10
0.0890127
20
3.7596
11
0.0850734
21
3.77276
0
LINE
8
BLACK
6
CONTINUOUS
10
0.0850734
20
3.77276
11
0.0826884
21
3.78629
0
LINE
8
BLACK
6
CONTINUOUS
10
0.0826884
20
3.78629
11
0.0818898
21
3.8
0
LINE
8
BLACK
6
CONTINUOUS
10
0.0818898
20
3.8
11
0.0826884
21
3.81371
0
LINE
8
BLACK
6
CONTINUOUS
10
0.0826884
20
3.81371
11
0.0850734
21
3.82724
0
LINE
8
BLACK
6
CONTINUOUS
10
0.0850734
20
3.82724
11
0.0890127
21
3.8404
0
LINE
8
BLACK
6
CONTINUOUS
10
0.0890127
20
3.8404
11
0.0944528
21
3.85301
0
LINE
8
BLACK
6
CONTINUOUS
10
0.0944528
20
3.85301
11
0.10132
21
3.8649
0
LINE
8
BLACK
6
CONTINUOUS
10
0.10132
20
3.8649
11
0.109522
21
3.87592
0
LINE
8
BLACK
6
CONTINUOUS
10
0.109522
20
3.87592
11
0.118948
21
3.88591
0
LINE
8
BLACK
6
CONTINUOUS
10
0.118948
20
3.88591
11
0.129469
21
3.89474
0
LINE
8
BLACK
6
CONTINUOUS
10
0.129469
20
3.89474
11
0.140945
21
3.90229
0
LINE
8
BLACK
6
CONTINUOUS
10
0.140945
20
3.90229
11
0.153219
21
3.90845
0
LINE
8
BLACK
6
CONTINUOUS
10
0.153219
20
3.90845
11
0.166126
21
3.91315
0
LINE
8
BLACK
6
CONTINUOUS
10
0.166126
20
3.91315
11
0.17949
21
3.91632
0
LINE
8
BLACK
6
CONTINUOUS
10
0.17949
20
3.91632
11
0.193133
21
3.91791
0
LINE
8
BLACK
6
CONTINUOUS
10
0.193133
20
3.91791
11
0.206867
21
3.91791
0
LINE
8
BLACK
6
CONTINUOUS
10
0.206867
20
3.91791
11
0.22051
21
3.91632
0
LINE
8
BLACK
6
CONTINUOUS
10
0.53
20
3.72
11
0.47
21
3.72
0
LINE
8
BLACK
6
CONTINUOUS
10
0.47
20
3.72
11
0.47
21
3.78
0
LINE
8
BLACK
6
CONTINUOUS
10
0.47
20
3.78
11
0.53
21
3.78
0
LINE
8
BLACK
6
CONTINUOUS
10
0.53
20
3.78
11
0.53
21
3.72
0
LINE
8
BLACK
6
CONTINUOUS
10
0.63
20
3.72
11
0.57
21
3.72
0
LINE
8
BLACK
6
CONTINUOUS
10
0.57
20
3.72
11
0.57
21
3.78
0
LINE
8
BLACK
6
CONTINUOUS
10
0.57
20
3.78
11
0.63
21
3.78
0
LINE
8
BLACK
6
CONTINUOUS
10
0.63
20
3.78
11
0.63
21
3.72
0
LINE
8
BLACK
6
CONTINUOUS
10
0.73
20
3.72
11
0.67
21
3.72
0
LINE
8
BLACK
6
CONTINUOUS
10
0.67
20
3.72
11
0.67
21
3.78
0
LINE
8
BLACK
6
CONTINUOUS
10
0.67
20
3.78
11
0.73
21
3.78
0
LINE
8
BLACK
6
CONTINUOUS
10
0.73
20
3.78
11
0.73
21
3.72
0
LINE
8
BLACK
6
CONTINUOUS
10
0.83
20
3.72
11
0.77
21
3.72
0
LINE
8
BLACK
6
CONTINUOUS
10
0.77
20
3.72
11
0.77
21
3.78
0
LINE
8
BLACK
6
CONTINUOUS
10
0.77
20
3.78
11
0.83
21
3.78
0
LINE
8
BLACK
6
CONTINUOUS
10
0.83
20
3.78
11
0.83
21
3.72
0
LINE
8
BLACK
6
CONTINUOUS
10
0.93
20
3.72
11
0.87
21
3.72
0
LINE
8
BLACK
6
CONTINUOUS
10
0.87
20
3.72
11
0.87
21
3.78
0
LINE
8
BLACK
6
CONTINUOUS
10
0.87
20
3.78
11
0.93
21
3.78
0
LINE
8
BLACK
6
CONTINUOUS
10
0.93
20
3.78
11
0.93
21
3.72
0
LINE
8
BLACK
6
CONTINUOUS
10
1.605
20
3.72
11
1.545
21
3.72
0
LINE
8
BLACK
6
CONTINUOUS
10
1.545
20
3.72
11
1.545
21
3.78
0
LINE
8
BLACK
6
CONTINUOUS
10
1.545
20
3.78
11
1.605
21
3.78
0
LINE
8
BLACK
6
CONTINUOUS
10
1.605
20
3.78
11
1.605
21
3.72
0
LINE
8
BLACK
6
CONTINUOUS
10
1.805
20
3.72
11
1.745
21
3.72
0
LINE
8
BLACK
6
CONTINUOUS
10
1.745
20
3.72
11
1.745
21
3.78
0
LINE
8
BLACK
6
CONTINUOUS
10
1.745
20
3.78
11
1.805
21
3.78
0
LINE
8
BLACK
6
CONTINUOUS
10
1.805
20
3.78
11
1.805
21
3.72
0
LINE
8
BLACK
6
CONTINUOUS
10
1.905
20
3.72
11
1.845
21
3.72
0
LINE
8
BLACK
6
CONTINUOUS
10
1.845
20
3.72
11
1.845
21
3.78
0
LINE
8
BLACK
6
CONTINUOUS
10
1.845
20
3.78
11
1.905
21
3.78
0
LINE
8
BLACK
6
CONTINUOUS
10
1.905
20
3.78
11
1.905
21
3.72
0
LINE
8
BLACK
6
CONTINUOUS
10
2.005
20
3.72
11
1.945
21
3.72
0
LINE
8
BLACK
6
CONTINUOUS
10
1.945
20
3.72
11
1.945
21
3.78
0
LINE
8
BLACK
6
CONTINUOUS
10
1.945
20
3.78
11
2.005
21
3.78
0
LINE
8
BLACK
6
CONTINUOUS
10
2.005
20
3.78
11
2.005
21
3.72
0
LINE
8
BLACK
6
CONTINUOUS
10
2.105
20
3.72
11
2.045
21
3.72
0
LINE
8
BLACK
6
CONTINUOUS
10
2.045
20
3.72
11
2.045
21
3.78
0
LINE
8
BLACK
6
CONTINUOUS
10
2.045
20
3.78
11
2.105
21
3.78
0
LINE
8
BLACK
6
CONTINUOUS
10
2.105
20
3.78
11
2.105
21
3.72
0
LINE
8
BLACK
6
CONTINUOUS
10
2.205
20
3.72
11
2.145
21
3.72
0
LINE
8
BLACK
6
CONTINUOUS
10
2.145
20
3.72
11
2.145
21
3.78
0
LINE
8
BLACK
6
CONTINUOUS
10
2.145
20
3.78
11
2.205
21
3.78
0
LINE
8
BLACK
6
CONTINUOUS
10
2.205
20
3.78
11
2.205
21
3.72
0
LINE
8
BLACK
6
CONTINUOUS
10
2.505
20
3.72
11
2.445
21
3.72
0
LINE
8
BLACK
6
CONTINUOUS
10
2.445
20
3.72
11
2.445
21
3.78
0
LINE
8
BLACK
6
CONTINUOUS
10
2.445
20
3.78
11
2.505
21
3.78
0
LINE
8
BLACK
6
CONTINUOUS
10
2.505
20
3.78
11
2.505
21
3.72
0
LINE
8
BLACK
6
CONTINUOUS
10
2.605
20
3.72
11
2.545
21
3.72
0
LINE
8
BLACK
6
CONTINUOUS
10
2.545
20
3.72
11
2.545
21
3.78
0
LINE
8
BLACK
6
CONTINUOUS
10
2.545
20
3.78
11
2.605
21
3.78
0
LINE
8
BLACK
6
CONTINUOUS
10
2.605
20
3.78
11
2.605
21
3.72
0
LINE
8
BLACK
6
CONTINUOUS
10
2.705
20
3.72
11
2.645
21
3.72
0
LINE
8
BLACK
6
CONTINUOUS
10
2.645
20
3.72
11
2.645
21
3.78
0
LINE
8
BLACK
6
CONTINUOUS
10
2.645
20
3.78
11
2.705
21
3.78
0
LINE
8
BLACK
6
CONTINUOUS
10
2.705
20
3.78
11
2.705
21
3.72
  0
ENDSEC
  0
EOF
