  0
SECTION
  2
HEADER
  9
$ANGBASE
  50
0.0
  9
$ANGDIR
  70
1
  9
$MEASUREMENT
  70
0
  0
ENDSEC
  0
SECTION
  2
TABLES
  0
TABLE
  2
LTYPE
  70
4
  0
LTYPE
  5
40F
  2
CONTINUOUS
  70
0
  3
Solid line
  72
65
  73
0
  40
0.0
  0
LTYPE
  5
410
  2
DASHDOT
 70
0
  3
Dash Dot ____ _ ____ _
 72
65
 73
4
 40
2.0
 49
1.25
 49
-0.25
 49
0.25
 49
-0.25
  0
LTYPE
  5
411
  2
DASHED
 70
0
  3
Dashed __ __ __ __ __
 72
65
 73
2
 40
0.75
 49
0.5
 49
-0.25
  0
LTYPE
  5
43B
  2
DOTTED
 70
0
  3
Dotted .  .  .  .
 72
65
 73
2
 40
0.2
 49
0.0
 49
-0.2
  0
ENDTAB
  0
TABLE
  2
STYLE
  70
4
  0
STYLE
  2
KICAD
  70
0
  40
0
  41
1
  42
1
  50
0
  71
0
  3
isocp.shx
  0
STYLE
  2
KICADB
  70
0
  40
0
  41
1
  42
1
  50
0
  71
0
  3
isocp.shx
  0
STYLE
  2
KICADI
  70
0
  40
0
  41
1
  42
1
  50
15
  71
0
  3
isocp.shx
  0
STYLE
  2
KICADBI
  70
0
  40
0
  41
1
  42
1
  50
15
  71
0
  3
isocp.shx
  0
ENDTAB
  0
TABLE
  2
LAYER
  70
1
  0
LAYER
  2
BLACK
  70
0
  62
7
  6
CONTINUOUS
  0
ENDTAB
  0
ENDSEC
  0
SECTION
  2
ENTITIES
0
LINE
8
BLACK
6
CONTINUOUS
10
2.7406
20
0.148793
11
2.75012
21
0.147096
0
LINE
8
BLACK
6
CONTINUOUS
10
2.75012
20
0.147096
11
2.75925
21
0.143865
0
LINE
8
BLACK
6
CONTINUOUS
10
2.75925
20
0.143865
11
2.76772
21
0.139188
0
LINE
8
BLACK
6
CONTINUOUS
10
2.76772
20
0.139188
11
2.77531
21
0.13319
0
LINE
8
BLACK
6
CONTINUOUS
10
2.77531
20
0.13319
11
2.78183
21
0.126032
0
LINE
8
BLACK
6
CONTINUOUS
10
2.78183
20
0.126032
11
2.78708
21
0.117907
0
LINE
8
BLACK
6
CONTINUOUS
10
2.78708
20
0.117907
11
2.79094
21
0.109031
0
LINE
8
BLACK
6
CONTINUOUS
10
2.79094
20
0.109031
11
2.7933
21
0.0996452
0
LINE
8
BLACK
6
CONTINUOUS
10
2.7933
20
0.0996452
11
2.79409
21
0.09
0
LINE
8
BLACK
6
CONTINUOUS
10
2.79409
20
0.09
11
2.79402
21
0.0871152
0
LINE
8
BLACK
6
CONTINUOUS
10
2.79402
20
0.0871152
11
2.79276
21
0.0775202
0
LINE
8
BLACK
6
CONTINUOUS
10
2.79276
20
0.0775202
11
2.78995
21
0.0682604
0
LINE
8
BLACK
6
CONTINUOUS
10
2.78995
20
0.0682604
11
2.78566
21
0.0595844
0
LINE
8
BLACK
6
CONTINUOUS
10
2.78566
20
0.0595844
11
2.78001
21
0.0517252
0
LINE
8
BLACK
6
CONTINUOUS
10
2.78001
20
0.0517252
11
2.77316
21
0.0448939
0
LINE
8
BLACK
6
CONTINUOUS
10
2.77316
20
0.0448939
11
2.76528
21
0.039274
0
LINE
8
BLACK
6
CONTINUOUS
10
2.76528
20
0.039274
11
2.75659
21
0.0350164
0
LINE
8
BLACK
6
CONTINUOUS
10
2.75659
20
0.0350164
11
2.74732
21
0.0322354
0
LINE
8
BLACK
6
CONTINUOUS
10
2.74732
20
0.0322354
11
2.73772
21
0.0310057
0
LINE
8
BLACK
6
CONTINUOUS
10
2.73772
20
0.0310057
11
2.72805
21
0.0313603
0
LINE
8
BLACK
6
CONTINUOUS
10
2.72805
20
0.0313603
11
2.71856
21
0.0332897
0
LINE
8
BLACK
6
CONTINUOUS
10
2.71856
20
0.0332897
11
2.70952
21
0.0367422
0
LINE
8
BLACK
6
CONTINUOUS
10
2.70952
20
0.0367422
11
2.70117
21
0.0416249
0
LINE
8
BLACK
6
CONTINUOUS
10
2.70117
20
0.0416249
11
2.69372
21
0.0478067
0
LINE
8
BLACK
6
CONTINUOUS
10
2.69372
20
0.0478067
11
2.68738
21
0.0551217
0
LINE
8
BLACK
6
CONTINUOUS
10
2.68738
20
0.0551217
11
2.68233
21
0.0633734
0
LINE
8
BLACK
6
CONTINUOUS
10
2.68233
20
0.0633734
11
2.67869
21
0.0723401
0
LINE
8
BLACK
6
CONTINUOUS
10
2.67869
20
0.0723401
11
2.67656
21
0.0817811
0
LINE
8
BLACK
6
CONTINUOUS
10
2.67656
20
0.0817811
11
2.676
21
0.0914428
0
LINE
8
BLACK
6
CONTINUOUS
10
2.676
20
0.0914428
11
2.67703
21
0.101066
0
LINE
8
BLACK
6
CONTINUOUS
10
2.67703
20
0.101066
11
2.67962
21
0.110392
0
LINE
8
BLACK
6
CONTINUOUS
10
2.67962
20
0.110392
11
2.68369
21
0.11917
0
LINE
8
BLACK
6
CONTINUOUS
10
2.68369
20
0.11917
11
2.68914
21
0.127165
0
LINE
8
BLACK
6
CONTINUOUS
10
2.68914
20
0.127165
11
2.69583
21
0.134161
0
LINE
8
BLACK
6
CONTINUOUS
10
2.69583
20
0.134161
11
2.70357
21
0.139972
0
LINE
8
BLACK
6
CONTINUOUS
10
2.70357
20
0.139972
11
2.71215
21
0.144441
0
LINE
8
BLACK
6
CONTINUOUS
10
2.71215
20
0.144441
11
2.72135
21
0.147447
0
LINE
8
BLACK
6
CONTINUOUS
10
2.72135
20
0.147447
11
2.73092
21
0.148911
0
LINE
8
BLACK
6
CONTINUOUS
10
2.73092
20
0.148911
11
2.7406
21
0.148793
0
LINE
8
BLACK
6
CONTINUOUS
10
2.22052
20
0.148793
11
2.23005
21
0.147096
0
LINE
8
BLACK
6
CONTINUOUS
10
2.23005
20
0.147096
11
2.23917
21
0.143865
0
LINE
8
BLACK
6
CONTINUOUS
10
2.23917
20
0.143865
11
2.24764
21
0.139188
0
LINE
8
BLACK
6
CONTINUOUS
10
2.24764
20
0.139188
11
2.25524
21
0.13319
0
LINE
8
BLACK
6
CONTINUOUS
10
2.25524
20
0.13319
11
2.26175
21
0.126032
0
LINE
8
BLACK
6
CONTINUOUS
10
2.26175
20
0.126032
11
2.26701
21
0.117907
0
LINE
8
BLACK
6
CONTINUOUS
10
2.26701
20
0.117907
11
2.27087
21
0.109031
0
LINE
8
BLACK
6
CONTINUOUS
10
2.27087
20
0.109031
11
2.27322
21
0.0996452
0
LINE
8
BLACK
6
CONTINUOUS
10
2.27322
20
0.0996452
11
2.27402
21
0.09
0
LINE
8
BLACK
6
CONTINUOUS
10
2.27402
20
0.09
11
2.27395
21
0.0871152
0
LINE
8
BLACK
6
CONTINUOUS
10
2.27395
20
0.0871152
11
2.27268
21
0.0775202
0
LINE
8
BLACK
6
CONTINUOUS
10
2.27268
20
0.0775202
11
2.26987
21
0.0682604
0
LINE
8
BLACK
6
CONTINUOUS
10
2.26987
20
0.0682604
11
2.26558
21
0.0595844
0
LINE
8
BLACK
6
CONTINUOUS
10
2.26558
20
0.0595844
11
2.25993
21
0.0517252
0
LINE
8
BLACK
6
CONTINUOUS
10
2.25993
20
0.0517252
11
2.25308
21
0.0448939
0
LINE
8
BLACK
6
CONTINUOUS
10
2.25308
20
0.0448939
11
2.2452
21
0.039274
0
LINE
8
BLACK
6
CONTINUOUS
10
2.2452
20
0.039274
11
2.23651
21
0.0350164
0
LINE
8
BLACK
6
CONTINUOUS
10
2.23651
20
0.0350164
11
2.22724
21
0.0322354
0
LINE
8
BLACK
6
CONTINUOUS
10
2.22724
20
0.0322354
11
2.21764
21
0.0310057
0
LINE
8
BLACK
6
CONTINUOUS
10
2.21764
20
0.0310057
11
2.20797
21
0.0313603
0
LINE
8
BLACK
6
CONTINUOUS
10
2.20797
20
0.0313603
11
2.19848
21
0.0332897
0
LINE
8
BLACK
6
CONTINUOUS
10
2.19848
20
0.0332897
11
2.18944
21
0.0367422
0
LINE
8
BLACK
6
CONTINUOUS
10
2.18944
20
0.0367422
11
2.18109
21
0.0416249
0
LINE
8
BLACK
6
CONTINUOUS
10
2.18109
20
0.0416249
11
2.17364
21
0.0478067
0
LINE
8
BLACK
6
CONTINUOUS
10
2.17364
20
0.0478067
11
2.16731
21
0.0551217
0
LINE
8
BLACK
6
CONTINUOUS
10
2.16731
20
0.0551217
11
2.16225
21
0.0633734
0
LINE
8
BLACK
6
CONTINUOUS
10
2.16225
20
0.0633734
11
2.15861
21
0.0723401
0
LINE
8
BLACK
6
CONTINUOUS
10
2.15861
20
0.0723401
11
2.15648
21
0.0817811
0
LINE
8
BLACK
6
CONTINUOUS
10
2.15648
20
0.0817811
11
2.15592
21
0.0914428
0
LINE
8
BLACK
6
CONTINUOUS
10
2.15592
20
0.0914428
11
2.15695
21
0.101066
0
LINE
8
BLACK
6
CONTINUOUS
10
2.15695
20
0.101066
11
2.15954
21
0.110392
0
LINE
8
BLACK
6
CONTINUOUS
10
2.15954
20
0.110392
11
2.16361
21
0.11917
0
LINE
8
BLACK
6
CONTINUOUS
10
2.16361
20
0.11917
11
2.16907
21
0.127165
0
LINE
8
BLACK
6
CONTINUOUS
10
2.16907
20
0.127165
11
2.17575
21
0.134161
0
LINE
8
BLACK
6
CONTINUOUS
10
2.17575
20
0.134161
11
2.18349
21
0.139972
0
LINE
8
BLACK
6
CONTINUOUS
10
2.18349
20
0.139972
11
2.19208
21
0.144441
0
LINE
8
BLACK
6
CONTINUOUS
10
2.19208
20
0.144441
11
2.20127
21
0.147447
0
LINE
8
BLACK
6
CONTINUOUS
10
2.20127
20
0.147447
11
2.21084
21
0.148911
0
LINE
8
BLACK
6
CONTINUOUS
10
2.21084
20
0.148911
11
2.22052
21
0.148793
0
LINE
8
BLACK
6
CONTINUOUS
10
0.0343176
20
3.96298
11
0.0354015
21
3.9646
0
LINE
8
BLACK
6
CONTINUOUS
10
0.0354015
20
3.9646
11
0.0370236
21
3.96568
0
LINE
8
BLACK
6
CONTINUOUS
10
0.0370236
20
3.96568
11
0.038937
21
3.96606
0
LINE
8
BLACK
6
CONTINUOUS
10
0.038937
20
3.96606
11
3.16106
21
3.96606
0
LINE
8
BLACK
6
CONTINUOUS
10
3.16106
20
3.96606
11
3.16298
21
3.96568
0
LINE
8
BLACK
6
CONTINUOUS
10
3.16298
20
3.96568
11
3.1646
21
3.9646
0
LINE
8
BLACK
6
CONTINUOUS
10
3.1646
20
3.9646
11
3.16568
21
3.96298
0
LINE
8
BLACK
6
CONTINUOUS
10
3.16568
20
3.96298
11
3.16606
21
3.96106
0
LINE
8
BLACK
6
CONTINUOUS
10
3.16606
20
3.96106
11
3.16606
21
0.038937
0
LINE
8
BLACK
6
CONTINUOUS
10
3.16606
20
0.038937
11
3.16568
21
0.0370236
0
LINE
8
BLACK
6
CONTINUOUS
10
3.16568
20
0.0370236
11
3.1646
21
0.0354015
0
LINE
8
BLACK
6
CONTINUOUS
10
3.1646
20
0.0354015
11
3.16298
21
0.0343176
0
LINE
8
BLACK
6
CONTINUOUS
10
3.16298
20
0.0343176
11
3.16106
21
0.033937
0
LINE
8
BLACK
6
CONTINUOUS
10
3.16106
20
0.033937
11
2.80285
21
0.033937
0
LINE
8
BLACK
6
CONTINUOUS
10
2.80285
20
0.033937
11
2.80093
21
0.0343176
0
LINE
8
BLACK
6
CONTINUOUS
10
2.80093
20
0.0343176
11
2.79931
21
0.0354015
0
LINE
8
BLACK
6
CONTINUOUS
10
2.79931
20
0.0354015
11
2.79823
21
0.0370236
0
LINE
8
BLACK
6
CONTINUOUS
10
2.79823
20
0.0370236
11
2.79785
21
0.038937
0
LINE
8
BLACK
6
CONTINUOUS
10
2.79785
20
0.038937
11
2.79823
21
0.0408504
0
LINE
8
BLACK
6
CONTINUOUS
10
2.79823
20
0.0408504
11
2.79931
21
0.0424726
0
LINE
8
BLACK
6
CONTINUOUS
10
2.79931
20
0.0424726
11
2.80206
21
0.0452189
0
LINE
8
BLACK
6
CONTINUOUS
10
2.80206
20
0.0452189
11
2.81409
21
0.074275
0
LINE
8
BLACK
6
CONTINUOUS
10
2.81409
20
0.074275
11
2.81409
21
0.105725
0
LINE
8
BLACK
6
CONTINUOUS
10
2.81409
20
0.105725
11
2.80206
21
0.134781
0
LINE
8
BLACK
6
CONTINUOUS
10
2.80206
20
0.134781
11
2.77982
21
0.15702
0
LINE
8
BLACK
6
CONTINUOUS
10
2.77982
20
0.15702
11
2.75076
21
0.169055
0
LINE
8
BLACK
6
CONTINUOUS
10
2.75076
20
0.169055
11
2.71931
21
0.169055
0
LINE
8
BLACK
6
CONTINUOUS
10
2.71931
20
0.169055
11
2.69026
21
0.15702
0
LINE
8
BLACK
6
CONTINUOUS
10
2.69026
20
0.15702
11
2.66802
21
0.134781
0
LINE
8
BLACK
6
CONTINUOUS
10
2.66802
20
0.134781
11
2.65598
21
0.105725
0
LINE
8
BLACK
6
CONTINUOUS
10
2.65598
20
0.105725
11
2.65598
21
0.074275
0
LINE
8
BLACK
6
CONTINUOUS
10
2.65598
20
0.074275
11
2.66802
21
0.0452189
0
LINE
8
BLACK
6
CONTINUOUS
10
2.66802
20
0.0452189
11
2.67077
21
0.0424726
0
LINE
8
BLACK
6
CONTINUOUS
10
2.67077
20
0.0424726
11
2.67185
21
0.0408504
0
LINE
8
BLACK
6
CONTINUOUS
10
2.67185
20
0.0408504
11
2.67223
21
0.038937
0
LINE
8
BLACK
6
CONTINUOUS
10
2.67223
20
0.038937
11
2.67185
21
0.0370236
0
LINE
8
BLACK
6
CONTINUOUS
10
2.67185
20
0.0370236
11
2.67077
21
0.0354015
0
LINE
8
BLACK
6
CONTINUOUS
10
2.67077
20
0.0354015
11
2.66914
21
0.0343176
0
LINE
8
BLACK
6
CONTINUOUS
10
2.66914
20
0.0343176
11
2.66723
21
0.033937
0
LINE
8
BLACK
6
CONTINUOUS
10
2.66723
20
0.033937
11
2.28277
21
0.033937
0
LINE
8
BLACK
6
CONTINUOUS
10
2.28277
20
0.033937
11
2.28086
21
0.0343176
0
LINE
8
BLACK
6
CONTINUOUS
10
2.28086
20
0.0343176
11
2.27923
21
0.0354015
0
LINE
8
BLACK
6
CONTINUOUS
10
2.27923
20
0.0354015
11
2.27815
21
0.0370236
0
LINE
8
BLACK
6
CONTINUOUS
10
2.27815
20
0.0370236
11
2.27777
21
0.038937
0
LINE
8
BLACK
6
CONTINUOUS
10
2.27777
20
0.038937
11
2.27815
21
0.0408504
0
LINE
8
BLACK
6
CONTINUOUS
10
2.27815
20
0.0408504
11
2.27923
21
0.0424726
0
LINE
8
BLACK
6
CONTINUOUS
10
2.27923
20
0.0424726
11
2.28198
21
0.0452189
0
LINE
8
BLACK
6
CONTINUOUS
10
2.28198
20
0.0452189
11
2.29402
21
0.074275
0
LINE
8
BLACK
6
CONTINUOUS
10
2.29402
20
0.074275
11
2.29402
21
0.105725
0
LINE
8
BLACK
6
CONTINUOUS
10
2.29402
20
0.105725
11
2.28198
21
0.134781
0
LINE
8
BLACK
6
CONTINUOUS
10
2.28198
20
0.134781
11
2.25974
21
0.15702
0
LINE
8
BLACK
6
CONTINUOUS
10
2.25974
20
0.15702
11
2.23069
21
0.169055
0
LINE
8
BLACK
6
CONTINUOUS
10
2.23069
20
0.169055
11
2.19924
21
0.169055
0
LINE
8
BLACK
6
CONTINUOUS
10
2.19924
20
0.169055
11
2.17018
21
0.15702
0
LINE
8
BLACK
6
CONTINUOUS
10
2.17018
20
0.15702
11
2.14794
21
0.134781
0
LINE
8
BLACK
6
CONTINUOUS
10
2.14794
20
0.134781
11
2.13591
21
0.105725
0
LINE
8
BLACK
6
CONTINUOUS
10
2.13591
20
0.105725
11
2.13591
21
0.074275
0
LINE
8
BLACK
6
CONTINUOUS
10
2.13591
20
0.074275
11
2.14794
21
0.0452189
0
LINE
8
BLACK
6
CONTINUOUS
10
2.14794
20
0.0452189
11
2.15069
21
0.0424726
0
LINE
8
BLACK
6
CONTINUOUS
10
2.15069
20
0.0424726
11
2.15177
21
0.0408504
0
LINE
8
BLACK
6
CONTINUOUS
10
2.15177
20
0.0408504
11
2.15215
21
0.038937
0
LINE
8
BLACK
6
CONTINUOUS
10
2.15215
20
0.038937
11
2.15177
21
0.0370236
0
LINE
8
BLACK
6
CONTINUOUS
10
2.15177
20
0.0370236
11
2.15069
21
0.0354015
0
LINE
8
BLACK
6
CONTINUOUS
10
2.15069
20
0.0354015
11
2.14907
21
0.0343176
0
LINE
8
BLACK
6
CONTINUOUS
10
2.14907
20
0.0343176
11
2.14715
21
0.033937
0
LINE
8
BLACK
6
CONTINUOUS
10
2.14715
20
0.033937
11
0.038937
21
0.033937
0
LINE
8
BLACK
6
CONTINUOUS
10
0.038937
20
0.033937
11
0.0370236
21
0.0343176
0
LINE
8
BLACK
6
CONTINUOUS
10
0.0370236
20
0.0343176
11
0.0354015
21
0.0354015
0
LINE
8
BLACK
6
CONTINUOUS
10
0.0354015
20
0.0354015
11
0.0343176
21
0.0370236
0
LINE
8
BLACK
6
CONTINUOUS
10
0.0343176
20
0.0370236
11
0.033937
21
0.038937
0
LINE
8
BLACK
6
CONTINUOUS
10
0.033937
20
0.038937
11
0.033937
21
3.96106
0
LINE
8
BLACK
6
CONTINUOUS
10
0.033937
20
3.96106
11
0.0343176
21
3.96298
0
LINE
8
BLACK
6
CONTINUOUS
10
0.662706
20
2.70795
11
0.702614
21
2.69142
0
LINE
8
BLACK
6
CONTINUOUS
10
0.702614
20
2.69142
11
0.745811
21
2.69142
0
LINE
8
BLACK
6
CONTINUOUS
10
0.745811
20
2.69142
11
0.78572
21
2.70795
0
LINE
8
BLACK
6
CONTINUOUS
10
0.78572
20
2.70795
11
0.816265
21
2.73849
0
LINE
8
BLACK
6
CONTINUOUS
10
0.816265
20
2.73849
11
0.832795
21
2.7784
0
LINE
8
BLACK
6
CONTINUOUS
10
0.832795
20
2.7784
11
0.832795
21
2.8216
0
LINE
8
BLACK
6
CONTINUOUS
10
0.832795
20
2.8216
11
0.816265
21
2.86151
0
LINE
8
BLACK
6
CONTINUOUS
10
0.816265
20
2.86151
11
0.78572
21
2.89205
0
LINE
8
BLACK
6
CONTINUOUS
10
0.78572
20
2.89205
11
0.745811
21
2.90858
0
LINE
8
BLACK
6
CONTINUOUS
10
0.745811
20
2.90858
11
0.702614
21
2.90858
0
LINE
8
BLACK
6
CONTINUOUS
10
0.702614
20
2.90858
11
0.662706
21
2.89205
0
LINE
8
BLACK
6
CONTINUOUS
10
0.662706
20
2.89205
11
0.632161
21
2.86151
0
LINE
8
BLACK
6
CONTINUOUS
10
0.632161
20
2.86151
11
0.61563
21
2.8216
0
LINE
8
BLACK
6
CONTINUOUS
10
0.61563
20
2.8216
11
0.61563
21
2.7784
0
LINE
8
BLACK
6
CONTINUOUS
10
0.61563
20
2.7784
11
0.632161
21
2.73849
0
LINE
8
BLACK
6
CONTINUOUS
10
0.632161
20
2.73849
11
0.662706
21
2.70795
0
LINE
8
BLACK
6
CONTINUOUS
10
0.735775
20
2.88782
11
0.747139
21
2.88556
0
LINE
8
BLACK
6
CONTINUOUS
10
0.747139
20
2.88556
11
0.758112
21
2.88184
0
LINE
8
BLACK
6
CONTINUOUS
10
0.758112
20
2.88184
11
0.768504
21
2.87671
0
LINE
8
BLACK
6
CONTINUOUS
10
0.768504
20
2.87671
11
0.778138
21
2.87028
0
LINE
8
BLACK
6
CONTINUOUS
10
0.778138
20
2.87028
11
0.78685
21
2.86264
0
LINE
8
BLACK
6
CONTINUOUS
10
0.78685
20
2.86264
11
0.79449
21
2.85393
0
LINE
8
BLACK
6
CONTINUOUS
10
0.79449
20
2.85393
11
0.800927
21
2.84429
0
LINE
8
BLACK
6
CONTINUOUS
10
0.800927
20
2.84429
11
0.806052
21
2.8339
0
LINE
8
BLACK
6
CONTINUOUS
10
0.806052
20
2.8339
11
0.809777
21
2.82293
0
LINE
8
BLACK
6
CONTINUOUS
10
0.809777
20
2.82293
11
0.812037
21
2.81156
0
LINE
8
BLACK
6
CONTINUOUS
10
0.812037
20
2.81156
11
0.812795
21
2.8
0
LINE
8
BLACK
6
CONTINUOUS
10
0.812795
20
2.8
11
0.812037
21
2.78844
0
LINE
8
BLACK
6
CONTINUOUS
10
0.812037
20
2.78844
11
0.809777
21
2.77707
0
LINE
8
BLACK
6
CONTINUOUS
10
0.809777
20
2.77707
11
0.806052
21
2.7661
0
LINE
8
BLACK
6
CONTINUOUS
10
0.806052
20
2.7661
11
0.800927
21
2.75571
0
LINE
8
BLACK
6
CONTINUOUS
10
0.800927
20
2.75571
11
0.79449
21
2.74607
0
LINE
8
BLACK
6
CONTINUOUS
10
0.79449
20
2.74607
11
0.78685
21
2.73736
0
LINE
8
BLACK
6
CONTINUOUS
10
0.78685
20
2.73736
11
0.778138
21
2.72972
0
LINE
8
BLACK
6
CONTINUOUS
10
0.778138
20
2.72972
11
0.768504
21
2.72329
0
LINE
8
BLACK
6
CONTINUOUS
10
0.768504
20
2.72329
11
0.758112
21
2.71816
0
LINE
8
BLACK
6
CONTINUOUS
10
0.758112
20
2.71816
11
0.747139
21
2.71444
0
LINE
8
BLACK
6
CONTINUOUS
10
0.747139
20
2.71444
11
0.735775
21
2.71218
0
LINE
8
BLACK
6
CONTINUOUS
10
0.735775
20
2.71218
11
0.724213
21
2.71142
0
LINE
8
BLACK
6
CONTINUOUS
10
0.724213
20
2.71142
11
0.71265
21
2.71218
0
LINE
8
BLACK
6
CONTINUOUS
10
0.71265
20
2.71218
11
0.701286
21
2.71444
0
LINE
8
BLACK
6
CONTINUOUS
10
0.701286
20
2.71444
11
0.690313
21
2.71816
0
LINE
8
BLACK
6
CONTINUOUS
10
0.690313
20
2.71816
11
0.679921
21
2.72329
0
LINE
8
BLACK
6
CONTINUOUS
10
0.679921
20
2.72329
11
0.670287
21
2.72972
0
LINE
8
BLACK
6
CONTINUOUS
10
0.670287
20
2.72972
11
0.661575
21
2.73736
0
LINE
8
BLACK
6
CONTINUOUS
10
0.661575
20
2.73736
11
0.653935
21
2.74607
0
LINE
8
BLACK
6
CONTINUOUS
10
0.653935
20
2.74607
11
0.647498
21
2.75571
0
LINE
8
BLACK
6
CONTINUOUS
10
0.647498
20
2.75571
11
0.642373
21
2.7661
0
LINE
8
BLACK
6
CONTINUOUS
10
0.642373
20
2.7661
11
0.638648
21
2.77707
0
LINE
8
BLACK
6
CONTINUOUS
10
0.638648
20
2.77707
11
0.636388
21
2.78844
0
LINE
8
BLACK
6
CONTINUOUS
10
0.636388
20
2.78844
11
0.63563
21
2.8
0
LINE
8
BLACK
6
CONTINUOUS
10
0.63563
20
2.8
11
0.636388
21
2.81156
0
LINE
8
BLACK
6
CONTINUOUS
10
0.636388
20
2.81156
11
0.638648
21
2.82293
0
LINE
8
BLACK
6
CONTINUOUS
10
0.638648
20
2.82293
11
0.642373
21
2.8339
0
LINE
8
BLACK
6
CONTINUOUS
10
0.642373
20
2.8339
11
0.647498
21
2.84429
0
LINE
8
BLACK
6
CONTINUOUS
10
0.647498
20
2.84429
11
0.653935
21
2.85393
0
LINE
8
BLACK
6
CONTINUOUS
10
0.653935
20
2.85393
11
0.661575
21
2.86264
0
LINE
8
BLACK
6
CONTINUOUS
10
0.661575
20
2.86264
11
0.670287
21
2.87028
0
LINE
8
BLACK
6
CONTINUOUS
10
0.670287
20
2.87028
11
0.679921
21
2.87671
0
LINE
8
BLACK
6
CONTINUOUS
10
0.679921
20
2.87671
11
0.690313
21
2.88184
0
LINE
8
BLACK
6
CONTINUOUS
10
0.690313
20
2.88184
11
0.701286
21
2.88556
0
LINE
8
BLACK
6
CONTINUOUS
10
0.701286
20
2.88556
11
0.71265
21
2.88782
0
LINE
8
BLACK
6
CONTINUOUS
10
0.71265
20
2.88782
11
0.724213
21
2.88858
0
LINE
8
BLACK
6
CONTINUOUS
10
0.724213
20
2.88858
11
0.735775
21
2.88782
0
CIRCLE
8
BLACK
10
3.125
20
2.925
40
0.00787402
0
CIRCLE
8
BLACK
10
1.975
20
2.225
40
0.00787402
0
CIRCLE
8
BLACK
10
2.06752
20
3.25
40
0.00787402
0
CIRCLE
8
BLACK
10
0.225
20
2.7
40
0.00787402
0
CIRCLE
8
BLACK
10
1.375
20
1.35
40
0.00787402
0
CIRCLE
8
BLACK
10
0.25
20
1.425
40
0.00787402
0
CIRCLE
8
BLACK
10
2.625
20
3.05
40
0.00787402
0
CIRCLE
8
BLACK
10
1.625
20
2.2
40
0.00787402
0
CIRCLE
8
BLACK
10
2.125
20
1.1
40
0.00787402
0
CIRCLE
8
BLACK
10
2.45
20
0.9
40
0.00787402
0
CIRCLE
8
BLACK
10
0.175
20
1.425
40
0.00787402
0
CIRCLE
8
BLACK
10
1.2
20
3.275
40
0.00787402
0
CIRCLE
8
BLACK
10
2.075
20
3.5815
40
0.00787402
0
CIRCLE
8
BLACK
10
2.9
20
3.625
40
0.00787402
0
CIRCLE
8
BLACK
10
1.525
20
2.3
40
0.00787402
0
CIRCLE
8
BLACK
10
2.25593
20
2.90593
40
0.00787402
0
CIRCLE
8
BLACK
10
1.375
20
1.4
40
0.00787402
0
CIRCLE
8
BLACK
10
2.625
20
2.65
40
0.00787402
0
CIRCLE
8
BLACK
10
3.125
20
2.825
40
0.00787402
0
CIRCLE
8
BLACK
10
1.675
20
1.1
40
0.00787402
0
CIRCLE
8
BLACK
10
2.7
20
3.05
40
0.00787402
0
CIRCLE
8
BLACK
10
2.275
20
3.625
40
0.00787402
0
CIRCLE
8
BLACK
10
1.05
20
2.275
40
0.00787402
0
CIRCLE
8
BLACK
10
2.075
20
1.05
40
0.00787402
0
CIRCLE
8
BLACK
10
0.175
20
1.3
40
0.00787402
0
CIRCLE
8
BLACK
10
2.35
20
0.75
40
0.00787402
0
CIRCLE
8
BLACK
10
1.625
20
2.05
40
0.00787402
0
CIRCLE
8
BLACK
10
0.325
20
2.7
40
0.00787402
0
CIRCLE
8
BLACK
10
1.65
20
0.15
40
0.00787402
0
CIRCLE
8
BLACK
10
2.825
20
3.625
40
0.00787402
0
CIRCLE
8
BLACK
10
1.825
20
2.25
40
0.00787402
0
CIRCLE
8
BLACK
10
2.06752
20
3.375
40
0.00787402
0
CIRCLE
8
BLACK
10
2.375
20
3.075
40
0.00787402
0
CIRCLE
8
BLACK
10
0.95
20
2.225
40
0.00787402
0
CIRCLE
8
BLACK
10
2.05
20
2.475
40
0.00787402
0
CIRCLE
8
BLACK
10
1.575
20
3.15
40
0.00787402
0
CIRCLE
8
BLACK
10
1.725
20
3.4
40
0.00787402
0
CIRCLE
8
BLACK
10
1.725
20
3.525
40
0.00787402
0
CIRCLE
8
BLACK
10
1.45
20
0.15
40
0.00787402
0
CIRCLE
8
BLACK
10
1.6
20
3.5
40
0.00787402
0
CIRCLE
8
BLACK
10
2.325
20
3.625
40
0.00787402
0
CIRCLE
8
BLACK
10
1.375
20
1.1
40
0.00787402
0
CIRCLE
8
BLACK
10
3
20
2.65
40
0.00787402
0
CIRCLE
8
BLACK
10
1.975
20
2.3
40
0.00787402
0
CIRCLE
8
BLACK
10
2.8
20
2.975
40
0.00787402
0
CIRCLE
8
BLACK
10
2.075
20
1.1
40
0.00787402
0
CIRCLE
8
BLACK
10
1.25
20
3.175
40
0.00787402
0
CIRCLE
8
BLACK
10
2.575
20
1.725
40
0.00787402
0
CIRCLE
8
BLACK
10
1.225
20
1.975
40
0.00787402
0
CIRCLE
8
BLACK
10
1.325
20
2.275
40
0.00787402
0
CIRCLE
8
BLACK
10
1.375
20
1.825
40
0.00787402
0
CIRCLE
8
BLACK
10
1.675
20
3.775
40
0.00787402
0
CIRCLE
8
BLACK
10
2.9
20
2.65
40
0.00787402
0
CIRCLE
8
BLACK
10
2.5
20
0.85
40
0.00787402
0
CIRCLE
8
BLACK
10
2.55
20
0.85
40
0.00787402
0
CIRCLE
8
BLACK
10
1.075
20
1.225
40
0.00787402
0
CIRCLE
8
BLACK
10
1.725
20
2
40
0.00787402
0
CIRCLE
8
BLACK
10
2.625
20
2.9
40
0.00787402
0
CIRCLE
8
BLACK
10
1.675
20
1.375
40
0.00787402
0
CIRCLE
8
BLACK
10
2.375
20
3.125
40
0.00787402
0
CIRCLE
8
BLACK
10
2.15
20
3.375
40
0.00787402
0
CIRCLE
8
BLACK
10
2.125
20
1
40
0.00787402
0
CIRCLE
8
BLACK
10
1.35
20
3.175
40
0.00787402
0
CIRCLE
8
BLACK
10
1.525
20
2.475
40
0.00787402
0
CIRCLE
8
BLACK
10
1.825
20
2.35
40
0.00787402
0
CIRCLE
8
BLACK
10
1.825
20
2.3
40
0.00787402
0
CIRCLE
8
BLACK
10
0.875
20
2.25
40
0.00787402
0
CIRCLE
8
BLACK
10
2.5
20
0.9
40
0.00787402
0
CIRCLE
8
BLACK
10
0.975
20
1.25
40
0.00787402
0
CIRCLE
8
BLACK
10
1.525
20
3.15
40
0.00787402
0
CIRCLE
8
BLACK
10
1.825
20
2.175
40
0.00787402
0
CIRCLE
8
BLACK
10
0.175
20
1.225
40
0.00787402
0
CIRCLE
8
BLACK
10
1.6
20
3.45
40
0.00787402
0
CIRCLE
8
BLACK
10
1.825
20
1.95
40
0.00787402
0
CIRCLE
8
BLACK
10
1.025
20
1.3
40
0.00787402
0
CIRCLE
8
BLACK
10
2.4
20
1.775
40
0.00787402
0
CIRCLE
8
BLACK
10
1.975
20
1.05
40
0.00787402
0
CIRCLE
8
BLACK
10
1.325
20
2.125
40
0.00787402
0
CIRCLE
8
BLACK
10
1.15
20
3.275
40
0.00787402
0
CIRCLE
8
BLACK
10
1.925
20
3.325
40
0.00787402
0
CIRCLE
8
BLACK
10
2.025
20
1.05
40
0.00787402
0
CIRCLE
8
BLACK
10
1.525
20
3.1
40
0.00787402
0
CIRCLE
8
BLACK
10
1.225
20
2.225
40
0.00787402
0
CIRCLE
8
BLACK
10
0.075
20
1.425
40
0.00787402
0
CIRCLE
8
BLACK
10
0.725
20
2.25
40
0.00787402
0
CIRCLE
8
BLACK
10
2.125
20
1.85
40
0.00787402
0
CIRCLE
8
BLACK
10
1.2
20
3.175
40
0.00787402
0
CIRCLE
8
BLACK
10
1.675
20
1.3
40
0.00787402
0
CIRCLE
8
BLACK
10
1.725
20
2.125
40
0.00787402
0
CIRCLE
8
BLACK
10
2.5
20
0.8
40
0.00787402
0
CIRCLE
8
BLACK
10
1.725
20
2.05
40
0.00787402
0
CIRCLE
8
BLACK
10
2.55
20
0.8
40
0.00787402
0
CIRCLE
8
BLACK
10
2.175
20
1.1
40
0.00787402
0
CIRCLE
8
BLACK
10
1.675
20
1.175
40
0.00787402
0
CIRCLE
8
BLACK
10
1.125
20
2.325
40
0.00787402
0
CIRCLE
8
BLACK
10
2.3065
20
2.75
40
0.00787402
0
CIRCLE
8
BLACK
10
2.85
20
2.925
40
0.00787402
0
CIRCLE
8
BLACK
10
2.41791
20
2.925
40
0.00787402
0
CIRCLE
8
BLACK
10
1.45
20
1.825
40
0.00787402
0
CIRCLE
8
BLACK
10
2.35
20
1.775
40
0.00787402
0
CIRCLE
8
BLACK
10
2.125
20
2.4
40
0.00787402
0
CIRCLE
8
BLACK
10
1.525
20
2.15
40
0.00787402
0
CIRCLE
8
BLACK
10
1.55
20
3.4
40
0.00787402
0
CIRCLE
8
BLACK
10
2.05
20
2.55
40
0.00787402
0
CIRCLE
8
BLACK
10
2.28093
20
2.88093
40
0.00787402
0
CIRCLE
8
BLACK
10
1.575
20
3.1
40
0.00787402
0
CIRCLE
8
BLACK
10
1.325
20
1.975
40
0.00787402
0
CIRCLE
8
BLACK
10
1.375
20
1.775
40
0.00787402
0
CIRCLE
8
BLACK
10
1.55
20
0.15
40
0.00787402
0
CIRCLE
8
BLACK
10
3.125
20
2.875
40
0.00787402
0
CIRCLE
8
BLACK
10
2.175
20
1
40
0.00787402
0
CIRCLE
8
BLACK
10
1.675
20
1.225
40
0.00787402
0
CIRCLE
8
BLACK
10
2.125
20
1.95
40
0.00787402
0
CIRCLE
8
BLACK
10
1.55
20
3.5
40
0.00787402
0
CIRCLE
8
BLACK
10
2.325
20
3.575
40
0.00787402
0
CIRCLE
8
BLACK
10
1.15
20
3.175
40
0.00787402
0
CIRCLE
8
BLACK
10
2.225
20
3.4
40
0.00787402
0
CIRCLE
8
BLACK
10
1.625
20
2
40
0.00787402
0
CIRCLE
8
BLACK
10
1.975
20
2.35
40
0.00787402
0
CIRCLE
8
BLACK
10
1.825
20
2.1
40
0.00787402
0
CIRCLE
8
BLACK
10
2.825
20
3.5315
40
0.00787402
0
CIRCLE
8
BLACK
10
0.825
20
2.25
40
0.00787402
0
CIRCLE
8
BLACK
10
2.125
20
1.75
40
0.00787402
0
CIRCLE
8
BLACK
10
3.1
20
2.65
40
0.00787402
0
CIRCLE
8
BLACK
10
2.525
20
3.225
40
0.00787402
0
CIRCLE
8
BLACK
10
2.325
20
3.525
40
0.00787402
0
CIRCLE
8
BLACK
10
2.125
20
1.05
40
0.00787402
0
CIRCLE
8
BLACK
10
2.3065
20
2.8
40
0.00787402
0
CIRCLE
8
BLACK
10
0.25
20
1.375
40
0.00787402
0
CIRCLE
8
BLACK
10
2.15
20
3.325
40
0.00787402
0
CIRCLE
8
BLACK
10
2.075
20
1
40
0.00787402
0
CIRCLE
8
BLACK
10
2.8
20
2.65
40
0.00787402
0
CIRCLE
8
BLACK
10
1.625
20
2.25
40
0.00787402
0
CIRCLE
8
BLACK
10
1.325
20
2.2
40
0.00787402
0
CIRCLE
8
BLACK
10
1.5
20
1.825
40
0.00787402
0
CIRCLE
8
BLACK
10
1.3
20
3.175
40
0.00787402
0
CIRCLE
8
BLACK
10
2.325
20
3.075
40
0.00787402
0
CIRCLE
8
BLACK
10
1.725
20
2.25
40
0.00787402
0
CIRCLE
8
BLACK
10
1.225
20
2.125
40
0.00787402
0
CIRCLE
8
BLACK
10
2.025
20
1.1
40
0.00787402
0
CIRCLE
8
BLACK
10
1.925
20
3.375
40
0.00787402
0
CIRCLE
8
BLACK
10
1.525
20
2
40
0.00787402
0
CIRCLE
8
BLACK
10
2.425
20
1.625
40
0.00787402
0
CIRCLE
8
BLACK
10
1.55
20
3.35
40
0.00787402
0
CIRCLE
8
BLACK
10
2.825
20
3.575
40
0.00787402
0
CIRCLE
8
BLACK
10
1.95
20
3.425
40
0.00787402
0
CIRCLE
8
BLACK
10
1.375
20
1.25
40
0.00787402
0
CIRCLE
8
BLACK
10
1.85
20
3.3
40
0.00787402
0
CIRCLE
8
BLACK
10
1.5
20
1.775
40
0.00787402
0
CIRCLE
8
BLACK
10
0.225
20
2.8
40
0.00787402
0
CIRCLE
8
BLACK
10
1.025
20
1.25
40
0.00787402
0
CIRCLE
8
BLACK
10
2.05
20
2.625
40
0.00787402
0
CIRCLE
8
BLACK
10
1.875
20
3.45
40
0.00787402
0
CIRCLE
8
BLACK
10
1.25
20
0.15
40
0.00787402
0
CIRCLE
8
BLACK
10
1.225
20
2.05
40
0.00787402
0
CIRCLE
8
BLACK
10
0.175
20
1.375
40
0.00787402
0
CIRCLE
8
BLACK
10
1.525
20
2.075
40
0.00787402
0
CIRCLE
8
BLACK
10
0.325
20
2.8
40
0.00787402
0
CIRCLE
8
BLACK
10
1.375
20
1.175
40
0.00787402
0
CIRCLE
8
BLACK
10
1.975
20
1.1
40
0.00787402
0
CIRCLE
8
BLACK
10
1.75
20
3.325
40
0.00787402
0
CIRCLE
8
BLACK
10
2.625
20
2.7
40
0.00787402
0
CIRCLE
8
BLACK
10
1.6
20
3.35
40
0.00787402
0
CIRCLE
8
BLACK
10
1.075
20
1.275
40
0.00787402
0
CIRCLE
8
BLACK
10
0.975
20
1.3
40
0.00787402
0
CIRCLE
8
BLACK
10
1.625
20
2.1
40
0.00787402
0
CIRCLE
8
BLACK
10
2.3435
20
2.775
40
0.00787402
0
CIRCLE
8
BLACK
10
1
20
2.225
40
0.00787402
0
CIRCLE
8
BLACK
10
2.55
20
0.9
40
0.00787402
0
CIRCLE
8
BLACK
10
1.725
20
2.2
40
0.00787402
0
CIRCLE
8
BLACK
10
1.525
20
2.225
40
0.00787402
0
CIRCLE
8
BLACK
10
1.45
20
1.775
40
0.00787402
0
CIRCLE
8
BLACK
10
2.175
20
1.05
40
0.00787402
0
CIRCLE
8
BLACK
10
1.6
20
3.4
40
0.00787402
0
CIRCLE
8
BLACK
10
1.625
20
2.15
40
0.00787402
0
CIRCLE
8
BLACK
10
0.45
20
2.8
40
0.00787402
0
CIRCLE
8
BLACK
10
0.25
20
1.225
40
0.00787402
0
CIRCLE
8
BLACK
10
0.45
20
2.7
40
0.00787402
0
CIRCLE
8
BLACK
10
1.55
20
3.45
40
0.00787402
0
CIRCLE
8
BLACK
10
3.125
20
2.775
40
0.00787402
0
CIRCLE
8
BLACK
10
1.525
20
2.35
40
0.00787402
0
CIRCLE
8
BLACK
10
1.675
20
3.825
40
0.00787402
0
CIRCLE
8
BLACK
10
2.35
20
0.825
40
0.00787402
0
CIRCLE
8
BLACK
10
2
20
3.45
40
0.00787402
0
CIRCLE
8
BLACK
10
1.825
20
2.025
40
0.00787402
0
CIRCLE
8
BLACK
10
2.625
20
2.975
40
0.00787402
0
CIRCLE
8
BLACK
10
0.725
20
2.175
40
0.00787402
0
CIRCLE
8
BLACK
10
0.725
20
2.1
40
0.00787402
0
CIRCLE
8
BLACK
10
2.525
20
1.55
40
0.00787402
0
CIRCLE
8
BLACK
10
0.25
20
1.3
40
0.00787402
0
CIRCLE
8
BLACK
10
1.35
20
0.15
40
0.00787402
0
CIRCLE
8
BLACK
10
2.4
20
2.4
40
0.00787402
0
CIRCLE
8
BLACK
10
2.6
20
2.4125
40
0.00787402
0
CIRCLE
8
BLACK
10
1.35
20
2.775
40
0.00787402
0
CIRCLE
8
BLACK
10
2.32931
20
1.60431
40
0.00787402
0
CIRCLE
8
BLACK
10
2.59547
20
1.9
40
0.00787402
0
CIRCLE
8
BLACK
10
1.35
20
2.975
40
0.00787402
0
CIRCLE
8
BLACK
10
1.975
20
2.8935
40
0.00787402
0
CIRCLE
8
BLACK
10
2.225
20
3.125
40
0.00787402
0
CIRCLE
8
BLACK
10
2.6185
20
1.975
40
0.00787402
0
CIRCLE
8
BLACK
10
2.69
20
2.05
40
0.00787402
0
CIRCLE
8
BLACK
10
2.275
20
3.375
40
0.00787402
0
CIRCLE
8
BLACK
10
2.525
20
3.4
40
0.00787402
0
CIRCLE
8
BLACK
10
2.625
20
3.4
40
0.00787402
0
CIRCLE
8
BLACK
10
1.775
20
1.75
40
0.00787402
0
CIRCLE
8
BLACK
10
1.575
20
1.75
40
0.00787402
0
CIRCLE
8
BLACK
10
2.38477
20
3.29023
40
0.00787402
0
CIRCLE
8
BLACK
10
2.675
20
3.45
40
0.00787402
0
CIRCLE
8
BLACK
10
2.44941
20
3.45
40
0.00787402
0
CIRCLE
8
BLACK
10
1.275
20
1.75
40
0.00787402
0
CIRCLE
8
BLACK
10
1.175
20
1.75
40
0.00787402
0
CIRCLE
8
BLACK
10
2.325
20
3.325
40
0.00787402
0
CIRCLE
8
BLACK
10
0.625
20
0.525
40
0.00787402
0
CIRCLE
8
BLACK
10
1.8
20
3.15
40
0.00787402
0
CIRCLE
8
BLACK
10
2.1935
20
3.075
40
0.00787402
0
CIRCLE
8
BLACK
10
2.15
20
2.3
40
0.00787402
0
CIRCLE
8
BLACK
10
2.28799
20
2.3
40
0.00787402
0
CIRCLE
8
BLACK
10
2.49454
20
1.39454
40
0.00787402
0
CIRCLE
8
BLACK
10
2.9
20
3.275
40
0.00787402
0
CIRCLE
8
BLACK
10
2.75
20
3.3375
40
0.00787402
  0
ENDSEC
  0
EOF
