  0
SECTION
  2
HEADER
  9
$ANGBASE
  50
0.0
  9
$ANGDIR
  70
1
  9
$MEASUREMENT
  70
0
  0
ENDSEC
  0
SECTION
  2
TABLES
  0
TABLE
  2
LTYPE
  70
4
  0
LTYPE
  5
40F
  2
CONTINUOUS
  70
0
  3
Solid line
  72
65
  73
0
  40
0.0
  0
LTYPE
  5
410
  2
DASHDOT
 70
0
  3
Dash Dot ____ _ ____ _
 72
65
 73
4
 40
2.0
 49
1.25
 49
-0.25
 49
0.25
 49
-0.25
  0
LTYPE
  5
411
  2
DASHED
 70
0
  3
Dashed __ __ __ __ __
 72
65
 73
2
 40
0.75
 49
0.5
 49
-0.25
  0
LTYPE
  5
43B
  2
DOTTED
 70
0
  3
Dotted .  .  .  .
 72
65
 73
2
 40
0.2
 49
0.0
 49
-0.2
  0
ENDTAB
  0
TABLE
  2
STYLE
  70
4
  0
STYLE
  2
KICAD
  70
0
  40
0
  41
1
  42
1
  50
0
  71
0
  3
isocp.shx
  0
STYLE
  2
KICADB
  70
0
  40
0
  41
1
  42
1
  50
0
  71
0
  3
isocp.shx
  0
STYLE
  2
KICADI
  70
0
  40
0
  41
1
  42
1
  50
15
  71
0
  3
isocp.shx
  0
STYLE
  2
KICADBI
  70
0
  40
0
  41
1
  42
1
  50
15
  71
0
  3
isocp.shx
  0
ENDTAB
  0
TABLE
  2
LAYER
  70
1
  0
LAYER
  2
BLACK
  70
0
  62
7
  6
CONTINUOUS
  0
ENDTAB
  0
ENDSEC
  0
SECTION
  2
ENTITIES
0
LINE
8
BLACK
6
CONTINUOUS
10
0.22051
20
0.316316
11
0.233874
21
0.313148
0
LINE
8
BLACK
6
CONTINUOUS
10
0.233874
20
0.313148
11
0.246781
21
0.308451
0
LINE
8
BLACK
6
CONTINUOUS
10
0.246781
20
0.308451
11
0.259055
21
0.302286
0
LINE
8
BLACK
6
CONTINUOUS
10
0.259055
20
0.302286
11
0.270531
21
0.294739
0
LINE
8
BLACK
6
CONTINUOUS
10
0.270531
20
0.294739
11
0.281052
21
0.28591
0
LINE
8
BLACK
6
CONTINUOUS
10
0.281052
20
0.28591
11
0.290478
21
0.27592
0
LINE
8
BLACK
6
CONTINUOUS
10
0.290478
20
0.27592
11
0.29868
21
0.264903
0
LINE
8
BLACK
6
CONTINUOUS
10
0.29868
20
0.264903
11
0.305547
21
0.253008
0
LINE
8
BLACK
6
CONTINUOUS
10
0.305547
20
0.253008
11
0.310987
21
0.240396
0
LINE
8
BLACK
6
CONTINUOUS
10
0.310987
20
0.240396
11
0.314927
21
0.227238
0
LINE
8
BLACK
6
CONTINUOUS
10
0.314927
20
0.227238
11
0.317312
21
0.213712
0
LINE
8
BLACK
6
CONTINUOUS
10
0.317312
20
0.213712
11
0.31811
21
0.2
0
LINE
8
BLACK
6
CONTINUOUS
10
0.31811
20
0.2
11
0.317312
21
0.186288
0
LINE
8
BLACK
6
CONTINUOUS
10
0.317312
20
0.186288
11
0.314927
21
0.172762
0
LINE
8
BLACK
6
CONTINUOUS
10
0.314927
20
0.172762
11
0.310987
21
0.159604
0
LINE
8
BLACK
6
CONTINUOUS
10
0.310987
20
0.159604
11
0.305547
21
0.146992
0
LINE
8
BLACK
6
CONTINUOUS
10
0.305547
20
0.146992
11
0.29868
21
0.135097
0
LINE
8
BLACK
6
CONTINUOUS
10
0.29868
20
0.135097
11
0.290478
21
0.12408
0
LINE
8
BLACK
6
CONTINUOUS
10
0.290478
20
0.12408
11
0.281052
21
0.11409
0
LINE
8
BLACK
6
CONTINUOUS
10
0.281052
20
0.11409
11
0.270531
21
0.105261
0
LINE
8
BLACK
6
CONTINUOUS
10
0.270531
20
0.105261
11
0.259055
21
0.0977135
0
LINE
8
BLACK
6
CONTINUOUS
10
0.259055
20
0.0977135
11
0.246781
21
0.0915493
0
LINE
8
BLACK
6
CONTINUOUS
10
0.246781
20
0.0915493
11
0.233874
21
0.0868516
0
LINE
8
BLACK
6
CONTINUOUS
10
0.233874
20
0.0868516
11
0.22051
21
0.0836841
0
LINE
8
BLACK
6
CONTINUOUS
10
0.22051
20
0.0836841
11
0.206867
21
0.0820896
0
LINE
8
BLACK
6
CONTINUOUS
10
0.206867
20
0.0820896
11
0.193133
21
0.0820896
0
LINE
8
BLACK
6
CONTINUOUS
10
0.193133
20
0.0820896
11
0.17949
21
0.0836841
0
LINE
8
BLACK
6
CONTINUOUS
10
0.17949
20
0.0836841
11
0.166126
21
0.0868516
0
LINE
8
BLACK
6
CONTINUOUS
10
0.166126
20
0.0868516
11
0.153219
21
0.0915493
0
LINE
8
BLACK
6
CONTINUOUS
10
0.153219
20
0.0915493
11
0.140945
21
0.0977135
0
LINE
8
BLACK
6
CONTINUOUS
10
0.140945
20
0.0977135
11
0.129469
21
0.105261
0
LINE
8
BLACK
6
CONTINUOUS
10
0.129469
20
0.105261
11
0.118948
21
0.11409
0
LINE
8
BLACK
6
CONTINUOUS
10
0.118948
20
0.11409
11
0.109522
21
0.12408
0
LINE
8
BLACK
6
CONTINUOUS
10
0.109522
20
0.12408
11
0.10132
21
0.135097
0
LINE
8
BLACK
6
CONTINUOUS
10
0.10132
20
0.135097
11
0.0944528
21
0.146992
0
LINE
8
BLACK
6
CONTINUOUS
10
0.0944528
20
0.146992
11
0.0890127
21
0.159604
0
LINE
8
BLACK
6
CONTINUOUS
10
0.0890127
20
0.159604
11
0.0850734
21
0.172762
0
LINE
8
BLACK
6
CONTINUOUS
10
0.0850734
20
0.172762
11
0.0826884
21
0.186288
0
LINE
8
BLACK
6
CONTINUOUS
10
0.0826884
20
0.186288
11
0.0818898
21
0.2
0
LINE
8
BLACK
6
CONTINUOUS
10
0.0818898
20
0.2
11
0.0826884
21
0.213712
0
LINE
8
BLACK
6
CONTINUOUS
10
0.0826884
20
0.213712
11
0.0850734
21
0.227238
0
LINE
8
BLACK
6
CONTINUOUS
10
0.0850734
20
0.227238
11
0.0890127
21
0.240396
0
LINE
8
BLACK
6
CONTINUOUS
10
0.0890127
20
0.240396
11
0.0944528
21
0.253008
0
LINE
8
BLACK
6
CONTINUOUS
10
0.0944528
20
0.253008
11
0.10132
21
0.264903
0
LINE
8
BLACK
6
CONTINUOUS
10
0.10132
20
0.264903
11
0.109522
21
0.27592
0
LINE
8
BLACK
6
CONTINUOUS
10
0.109522
20
0.27592
11
0.118948
21
0.28591
0
LINE
8
BLACK
6
CONTINUOUS
10
0.118948
20
0.28591
11
0.129469
21
0.294739
0
LINE
8
BLACK
6
CONTINUOUS
10
0.129469
20
0.294739
11
0.140945
21
0.302286
0
LINE
8
BLACK
6
CONTINUOUS
10
0.140945
20
0.302286
11
0.153219
21
0.308451
0
LINE
8
BLACK
6
CONTINUOUS
10
0.153219
20
0.308451
11
0.166126
21
0.313148
0
LINE
8
BLACK
6
CONTINUOUS
10
0.166126
20
0.313148
11
0.17949
21
0.316316
0
LINE
8
BLACK
6
CONTINUOUS
10
0.17949
20
0.316316
11
0.193133
21
0.31791
0
LINE
8
BLACK
6
CONTINUOUS
10
0.193133
20
0.31791
11
0.206867
21
0.31791
0
LINE
8
BLACK
6
CONTINUOUS
10
0.206867
20
0.31791
11
0.22051
21
0.316316
0
LINE
8
BLACK
6
CONTINUOUS
10
2.42984
20
0.739883
11
2.4342
21
0.737661
0
LINE
8
BLACK
6
CONTINUOUS
10
2.4342
20
0.737661
11
2.43766
21
0.734198
0
LINE
8
BLACK
6
CONTINUOUS
10
2.43766
20
0.734198
11
2.43988
21
0.729836
0
LINE
8
BLACK
6
CONTINUOUS
10
2.43988
20
0.729836
11
2.44065
21
0.725
0
LINE
8
BLACK
6
CONTINUOUS
10
2.44065
20
0.725
11
2.43988
21
0.720164
0
LINE
8
BLACK
6
CONTINUOUS
10
2.43988
20
0.720164
11
2.43766
21
0.715802
0
LINE
8
BLACK
6
CONTINUOUS
10
2.43766
20
0.715802
11
2.4342
21
0.712339
0
LINE
8
BLACK
6
CONTINUOUS
10
2.4342
20
0.712339
11
2.42984
21
0.710117
0
LINE
8
BLACK
6
CONTINUOUS
10
2.42984
20
0.710117
11
2.425
21
0.709351
0
LINE
8
BLACK
6
CONTINUOUS
10
2.425
20
0.709351
11
2.42016
21
0.710117
0
LINE
8
BLACK
6
CONTINUOUS
10
2.42016
20
0.710117
11
2.4158
21
0.712339
0
LINE
8
BLACK
6
CONTINUOUS
10
2.4158
20
0.712339
11
2.41234
21
0.715802
0
LINE
8
BLACK
6
CONTINUOUS
10
2.41234
20
0.715802
11
2.41012
21
0.720164
0
LINE
8
BLACK
6
CONTINUOUS
10
2.41012
20
0.720164
11
2.40935
21
0.725
0
LINE
8
BLACK
6
CONTINUOUS
10
2.40935
20
0.725
11
2.41012
21
0.729836
0
LINE
8
BLACK
6
CONTINUOUS
10
2.41012
20
0.729836
11
2.41234
21
0.734198
0
LINE
8
BLACK
6
CONTINUOUS
10
2.41234
20
0.734198
11
2.4158
21
0.737661
0
LINE
8
BLACK
6
CONTINUOUS
10
2.4158
20
0.737661
11
2.42016
21
0.739883
0
LINE
8
BLACK
6
CONTINUOUS
10
2.42016
20
0.739883
11
2.425
21
0.740649
0
LINE
8
BLACK
6
CONTINUOUS
10
2.425
20
0.740649
11
2.42984
21
0.739883
0
LINE
8
BLACK
6
CONTINUOUS
10
2.4245
20
0.724503
11
2.425
21
0.724297
0
LINE
8
BLACK
6
CONTINUOUS
10
2.425
20
0.724297
11
2.4255
21
0.724503
0
LINE
8
BLACK
6
CONTINUOUS
10
2.4255
20
0.724503
11
2.4257
21
0.725
0
LINE
8
BLACK
6
CONTINUOUS
10
2.4257
20
0.725
11
2.4255
21
0.725497
0
LINE
8
BLACK
6
CONTINUOUS
10
2.4255
20
0.725497
11
2.425
21
0.725703
0
LINE
8
BLACK
6
CONTINUOUS
10
2.425
20
0.725703
11
2.4245
21
0.725497
0
LINE
8
BLACK
6
CONTINUOUS
10
2.4245
20
0.725497
11
2.4243
21
0.725
0
LINE
8
BLACK
6
CONTINUOUS
10
2.4243
20
0.725
11
2.4245
21
0.724503
0
LINE
8
BLACK
6
CONTINUOUS
10
3.02051
20
3.90372
11
3.03387
21
3.90055
0
LINE
8
BLACK
6
CONTINUOUS
10
3.03387
20
3.90055
11
3.04678
21
3.89585
0
LINE
8
BLACK
6
CONTINUOUS
10
3.04678
20
3.89585
11
3.05906
21
3.88969
0
LINE
8
BLACK
6
CONTINUOUS
10
3.05906
20
3.88969
11
3.07053
21
3.88214
0
LINE
8
BLACK
6
CONTINUOUS
10
3.07053
20
3.88214
11
3.08105
21
3.87331
0
LINE
8
BLACK
6
CONTINUOUS
10
3.08105
20
3.87331
11
3.09048
21
3.86332
0
LINE
8
BLACK
6
CONTINUOUS
10
3.09048
20
3.86332
11
3.09868
21
3.8523
0
LINE
8
BLACK
6
CONTINUOUS
10
3.09868
20
3.8523
11
3.10555
21
3.84041
0
LINE
8
BLACK
6
CONTINUOUS
10
3.10555
20
3.84041
11
3.11099
21
3.8278
0
LINE
8
BLACK
6
CONTINUOUS
10
3.11099
20
3.8278
11
3.11493
21
3.81464
0
LINE
8
BLACK
6
CONTINUOUS
10
3.11493
20
3.81464
11
3.11731
21
3.80111
0
LINE
8
BLACK
6
CONTINUOUS
10
3.11731
20
3.80111
11
3.11811
21
3.7874
0
LINE
8
BLACK
6
CONTINUOUS
10
3.11811
20
3.7874
11
3.11731
21
3.77369
0
LINE
8
BLACK
6
CONTINUOUS
10
3.11731
20
3.77369
11
3.11493
21
3.76016
0
LINE
8
BLACK
6
CONTINUOUS
10
3.11493
20
3.76016
11
3.11099
21
3.74701
0
LINE
8
BLACK
6
CONTINUOUS
10
3.11099
20
3.74701
11
3.10555
21
3.73439
0
LINE
8
BLACK
6
CONTINUOUS
10
3.10555
20
3.73439
11
3.09868
21
3.7225
0
LINE
8
BLACK
6
CONTINUOUS
10
3.09868
20
3.7225
11
3.09048
21
3.71148
0
LINE
8
BLACK
6
CONTINUOUS
10
3.09048
20
3.71148
11
3.08105
21
3.70149
0
LINE
8
BLACK
6
CONTINUOUS
10
3.08105
20
3.70149
11
3.07053
21
3.69266
0
LINE
8
BLACK
6
CONTINUOUS
10
3.07053
20
3.69266
11
3.05906
21
3.68512
0
LINE
8
BLACK
6
CONTINUOUS
10
3.05906
20
3.68512
11
3.04678
21
3.67895
0
LINE
8
BLACK
6
CONTINUOUS
10
3.04678
20
3.67895
11
3.03387
21
3.67425
0
LINE
8
BLACK
6
CONTINUOUS
10
3.03387
20
3.67425
11
3.02051
21
3.67109
0
LINE
8
BLACK
6
CONTINUOUS
10
3.02051
20
3.67109
11
3.00687
21
3.66949
0
LINE
8
BLACK
6
CONTINUOUS
10
3.00687
20
3.66949
11
2.99313
21
3.66949
0
LINE
8
BLACK
6
CONTINUOUS
10
2.99313
20
3.66949
11
2.97949
21
3.67109
0
LINE
8
BLACK
6
CONTINUOUS
10
2.97949
20
3.67109
11
2.96613
21
3.67425
0
LINE
8
BLACK
6
CONTINUOUS
10
2.96613
20
3.67425
11
2.95322
21
3.67895
0
LINE
8
BLACK
6
CONTINUOUS
10
2.95322
20
3.67895
11
2.94094
21
3.68512
0
LINE
8
BLACK
6
CONTINUOUS
10
2.94094
20
3.68512
11
2.92947
21
3.69266
0
LINE
8
BLACK
6
CONTINUOUS
10
2.92947
20
3.69266
11
2.91895
21
3.70149
0
LINE
8
BLACK
6
CONTINUOUS
10
2.91895
20
3.70149
11
2.90952
21
3.71148
0
LINE
8
BLACK
6
CONTINUOUS
10
2.90952
20
3.71148
11
2.90132
21
3.7225
0
LINE
8
BLACK
6
CONTINUOUS
10
2.90132
20
3.7225
11
2.89445
21
3.73439
0
LINE
8
BLACK
6
CONTINUOUS
10
2.89445
20
3.73439
11
2.88901
21
3.74701
0
LINE
8
BLACK
6
CONTINUOUS
10
2.88901
20
3.74701
11
2.88507
21
3.76016
0
LINE
8
BLACK
6
CONTINUOUS
10
2.88507
20
3.76016
11
2.88269
21
3.77369
0
LINE
8
BLACK
6
CONTINUOUS
10
2.88269
20
3.77369
11
2.88189
21
3.7874
0
LINE
8
BLACK
6
CONTINUOUS
10
2.88189
20
3.7874
11
2.88269
21
3.80111
0
LINE
8
BLACK
6
CONTINUOUS
10
2.88269
20
3.80111
11
2.88507
21
3.81464
0
LINE
8
BLACK
6
CONTINUOUS
10
2.88507
20
3.81464
11
2.88901
21
3.8278
0
LINE
8
BLACK
6
CONTINUOUS
10
2.88901
20
3.8278
11
2.89445
21
3.84041
0
LINE
8
BLACK
6
CONTINUOUS
10
2.89445
20
3.84041
11
2.90132
21
3.8523
0
LINE
8
BLACK
6
CONTINUOUS
10
2.90132
20
3.8523
11
2.90952
21
3.86332
0
LINE
8
BLACK
6
CONTINUOUS
10
2.90952
20
3.86332
11
2.91895
21
3.87331
0
LINE
8
BLACK
6
CONTINUOUS
10
2.91895
20
3.87331
11
2.92947
21
3.88214
0
LINE
8
BLACK
6
CONTINUOUS
10
2.92947
20
3.88214
11
2.94094
21
3.88969
0
LINE
8
BLACK
6
CONTINUOUS
10
2.94094
20
3.88969
11
2.95322
21
3.89585
0
LINE
8
BLACK
6
CONTINUOUS
10
2.95322
20
3.89585
11
2.96613
21
3.90055
0
LINE
8
BLACK
6
CONTINUOUS
10
2.96613
20
3.90055
11
2.97949
21
3.90372
0
LINE
8
BLACK
6
CONTINUOUS
10
2.97949
20
3.90372
11
2.99313
21
3.90531
0
LINE
8
BLACK
6
CONTINUOUS
10
2.99313
20
3.90531
11
3.00687
21
3.90531
0
LINE
8
BLACK
6
CONTINUOUS
10
3.00687
20
3.90531
11
3.02051
21
3.90372
0
LINE
8
BLACK
6
CONTINUOUS
10
0.22051
20
3.91632
11
0.233874
21
3.91315
0
LINE
8
BLACK
6
CONTINUOUS
10
0.233874
20
3.91315
11
0.246781
21
3.90845
0
LINE
8
BLACK
6
CONTINUOUS
10
0.246781
20
3.90845
11
0.259055
21
3.90229
0
LINE
8
BLACK
6
CONTINUOUS
10
0.259055
20
3.90229
11
0.270531
21
3.89474
0
LINE
8
BLACK
6
CONTINUOUS
10
0.270531
20
3.89474
11
0.281052
21
3.88591
0
LINE
8
BLACK
6
CONTINUOUS
10
0.281052
20
3.88591
11
0.290478
21
3.87592
0
LINE
8
BLACK
6
CONTINUOUS
10
0.290478
20
3.87592
11
0.29868
21
3.8649
0
LINE
8
BLACK
6
CONTINUOUS
10
0.29868
20
3.8649
11
0.305547
21
3.85301
0
LINE
8
BLACK
6
CONTINUOUS
10
0.305547
20
3.85301
11
0.310987
21
3.8404
0
LINE
8
BLACK
6
CONTINUOUS
10
0.310987
20
3.8404
11
0.314927
21
3.82724
0
LINE
8
BLACK
6
CONTINUOUS
10
0.314927
20
3.82724
11
0.317312
21
3.81371
0
LINE
8
BLACK
6
CONTINUOUS
10
0.317312
20
3.81371
11
0.31811
21
3.8
0
LINE
8
BLACK
6
CONTINUOUS
10
0.31811
20
3.8
11
0.317312
21
3.78629
0
LINE
8
BLACK
6
CONTINUOUS
10
0.317312
20
3.78629
11
0.314927
21
3.77276
0
LINE
8
BLACK
6
CONTINUOUS
10
0.314927
20
3.77276
11
0.310987
21
3.7596
0
LINE
8
BLACK
6
CONTINUOUS
10
0.310987
20
3.7596
11
0.305547
21
3.74699
0
LINE
8
BLACK
6
CONTINUOUS
10
0.305547
20
3.74699
11
0.29868
21
3.7351
0
LINE
8
BLACK
6
CONTINUOUS
10
0.29868
20
3.7351
11
0.290478
21
3.72408
0
LINE
8
BLACK
6
CONTINUOUS
10
0.290478
20
3.72408
11
0.281052
21
3.71409
0
LINE
8
BLACK
6
CONTINUOUS
10
0.281052
20
3.71409
11
0.270531
21
3.70526
0
LINE
8
BLACK
6
CONTINUOUS
10
0.270531
20
3.70526
11
0.259055
21
3.69771
0
LINE
8
BLACK
6
CONTINUOUS
10
0.259055
20
3.69771
11
0.246781
21
3.69155
0
LINE
8
BLACK
6
CONTINUOUS
10
0.246781
20
3.69155
11
0.233874
21
3.68685
0
LINE
8
BLACK
6
CONTINUOUS
10
0.233874
20
3.68685
11
0.22051
21
3.68368
0
LINE
8
BLACK
6
CONTINUOUS
10
0.22051
20
3.68368
11
0.206867
21
3.68209
0
LINE
8
BLACK
6
CONTINUOUS
10
0.206867
20
3.68209
11
0.193133
21
3.68209
0
LINE
8
BLACK
6
CONTINUOUS
10
0.193133
20
3.68209
11
0.17949
21
3.68368
0
LINE
8
BLACK
6
CONTINUOUS
10
0.17949
20
3.68368
11
0.166126
21
3.68685
0
LINE
8
BLACK
6
CONTINUOUS
10
0.166126
20
3.68685
11
0.153219
21
3.69155
0
LINE
8
BLACK
6
CONTINUOUS
10
0.153219
20
3.69155
11
0.140945
21
3.69771
0
LINE
8
BLACK
6
CONTINUOUS
10
0.140945
20
3.69771
11
0.129469
21
3.70526
0
LINE
8
BLACK
6
CONTINUOUS
10
0.129469
20
3.70526
11
0.118948
21
3.71409
0
LINE
8
BLACK
6
CONTINUOUS
10
0.118948
20
3.71409
11
0.109522
21
3.72408
0
LINE
8
BLACK
6
CONTINUOUS
10
0.109522
20
3.72408
11
0.10132
21
3.7351
0
LINE
8
BLACK
6
CONTINUOUS
10
0.10132
20
3.7351
11
0.0944528
21
3.74699
0
LINE
8
BLACK
6
CONTINUOUS
10
0.0944528
20
3.74699
11
0.0890127
21
3.7596
0
LINE
8
BLACK
6
CONTINUOUS
10
0.0890127
20
3.7596
11
0.0850734
21
3.77276
0
LINE
8
BLACK
6
CONTINUOUS
10
0.0850734
20
3.77276
11
0.0826884
21
3.78629
0
LINE
8
BLACK
6
CONTINUOUS
10
0.0826884
20
3.78629
11
0.0818898
21
3.8
0
LINE
8
BLACK
6
CONTINUOUS
10
0.0818898
20
3.8
11
0.0826884
21
3.81371
0
LINE
8
BLACK
6
CONTINUOUS
10
0.0826884
20
3.81371
11
0.0850734
21
3.82724
0
LINE
8
BLACK
6
CONTINUOUS
10
0.0850734
20
3.82724
11
0.0890127
21
3.8404
0
LINE
8
BLACK
6
CONTINUOUS
10
0.0890127
20
3.8404
11
0.0944528
21
3.85301
0
LINE
8
BLACK
6
CONTINUOUS
10
0.0944528
20
3.85301
11
0.10132
21
3.8649
0
LINE
8
BLACK
6
CONTINUOUS
10
0.10132
20
3.8649
11
0.109522
21
3.87592
0
LINE
8
BLACK
6
CONTINUOUS
10
0.109522
20
3.87592
11
0.118948
21
3.88591
0
LINE
8
BLACK
6
CONTINUOUS
10
0.118948
20
3.88591
11
0.129469
21
3.89474
0
LINE
8
BLACK
6
CONTINUOUS
10
0.129469
20
3.89474
11
0.140945
21
3.90229
0
LINE
8
BLACK
6
CONTINUOUS
10
0.140945
20
3.90229
11
0.153219
21
3.90845
0
LINE
8
BLACK
6
CONTINUOUS
10
0.153219
20
3.90845
11
0.166126
21
3.91315
0
LINE
8
BLACK
6
CONTINUOUS
10
0.166126
20
3.91315
11
0.17949
21
3.91632
0
LINE
8
BLACK
6
CONTINUOUS
10
0.17949
20
3.91632
11
0.193133
21
3.91791
0
LINE
8
BLACK
6
CONTINUOUS
10
0.193133
20
3.91791
11
0.206867
21
3.91791
0
LINE
8
BLACK
6
CONTINUOUS
10
0.206867
20
3.91791
11
0.22051
21
3.91632
  0
ENDSEC
  0
EOF
