<?xml version='1.0' encoding='ASCII' standalone='yes'?>
<svg xmlns:svg="http://www.w3.org/2000/svg" xmlns="http://www.w3.org/2000/svg" xmlns:xlink="http://www.w3.org/1999/xlink" version="1.1" width="297.0022mm" height="210.0072mm" viewBox="0.0000 0.0000 297.0022 210.0072">
<title>SVG Image created as DATALOGGER01-B_Fab.svg date 2023/09/11 01:09:45 </title>
  <desc>Image generated by PCBNEW </desc>
<g style="fill:#000084; fill-opacity:1.0000;stroke:#000084; stroke-opacity:1.0000; stroke-linecap:round; stroke-linejoin:round;" transform="translate(0 0) scale(1 1)">
</g>
<g style="fill:#000084; fill-opacity:0.0;  stroke:#000084; stroke-width:0.0000; stroke-opacity:1;  stroke-linecap:round; stroke-linejoin:round;">
</g>
<g style="fill:#000084; fill-opacity:0.01;  stroke:#000084; stroke-width:0.3110; stroke-opacity:1;  stroke-linecap:round; stroke-linejoin:round;">
<text x="102.4239" y="102.0700" transform="scale(-1 1) translate(-204.847834 0)" textLength="18.0913" font-size="2.7643" lengthAdjust="spacingAndGlyphs" text-anchor="middle" opacity="0.01" style="font-family:monospace">PCF85263A</text>
<g class="stroked-text"><desc>PCF85263A</desc>
<path d="M94.1311 101.9763 L94.1311 99.9031 "/>
<path d="M94.1311 99.9031 L94.9209 99.9031 "/>
<path d="M94.9209 99.9031 L95.1183 100.0018 "/>
<path d="M95.1183 100.0018 L95.2170 100.1006 "/>
<path d="M95.2170 100.1006 L95.3158 100.2980 "/>
<path d="M95.3158 100.2980 L95.3158 100.5942 "/>
<path d="M95.3158 100.5942 L95.2170 100.7916 "/>
<path d="M95.2170 100.7916 L95.1183 100.8904 "/>
<path d="M95.1183 100.8904 L94.9209 100.9891 "/>
<path d="M94.9209 100.9891 L94.1311 100.9891 "/>
<path d="M97.3890 101.7789 L97.2902 101.8776 "/>
<path d="M97.2902 101.8776 L96.9941 101.9763 "/>
<path d="M96.9941 101.9763 L96.7966 101.9763 "/>
<path d="M96.7966 101.9763 L96.5004 101.8776 "/>
<path d="M96.5004 101.8776 L96.3030 101.6802 "/>
<path d="M96.3030 101.6802 L96.2043 101.4827 "/>
<path d="M96.2043 101.4827 L96.1056 101.0878 "/>
<path d="M96.1056 101.0878 L96.1056 100.7916 "/>
<path d="M96.1056 100.7916 L96.2043 100.3967 "/>
<path d="M96.2043 100.3967 L96.3030 100.1993 "/>
<path d="M96.3030 100.1993 L96.5004 100.0018 "/>
<path d="M96.5004 100.0018 L96.7966 99.9031 "/>
<path d="M96.7966 99.9031 L96.9941 99.9031 "/>
<path d="M96.9941 99.9031 L97.2902 100.0018 "/>
<path d="M97.2902 100.0018 L97.3890 100.1006 "/>
<path d="M98.9686 100.8904 L98.2775 100.8904 "/>
<path d="M98.2775 101.9763 L98.2775 99.9031 "/>
<path d="M98.2775 99.9031 L99.2647 99.9031 "/>
<path d="M100.3507 100.7916 L100.1533 100.6929 "/>
<path d="M100.1533 100.6929 L100.0545 100.5942 "/>
<path d="M100.0545 100.5942 L99.9558 100.3967 "/>
<path d="M99.9558 100.3967 L99.9558 100.2980 "/>
<path d="M99.9558 100.2980 L100.0545 100.1006 "/>
<path d="M100.0545 100.1006 L100.1533 100.0018 "/>
<path d="M100.1533 100.0018 L100.3507 99.9031 "/>
<path d="M100.3507 99.9031 L100.7456 99.9031 "/>
<path d="M100.7456 99.9031 L100.9431 100.0018 "/>
<path d="M100.9431 100.0018 L101.0418 100.1006 "/>
<path d="M101.0418 100.1006 L101.1405 100.2980 "/>
<path d="M101.1405 100.2980 L101.1405 100.3967 "/>
<path d="M101.1405 100.3967 L101.0418 100.5942 "/>
<path d="M101.0418 100.5942 L100.9431 100.6929 "/>
<path d="M100.9431 100.6929 L100.7456 100.7916 "/>
<path d="M100.7456 100.7916 L100.3507 100.7916 "/>
<path d="M100.3507 100.7916 L100.1533 100.8904 "/>
<path d="M100.1533 100.8904 L100.0545 100.9891 "/>
<path d="M100.0545 100.9891 L99.9558 101.1865 "/>
<path d="M99.9558 101.1865 L99.9558 101.5814 "/>
<path d="M99.9558 101.5814 L100.0545 101.7789 "/>
<path d="M100.0545 101.7789 L100.1533 101.8776 "/>
<path d="M100.1533 101.8776 L100.3507 101.9763 "/>
<path d="M100.3507 101.9763 L100.7456 101.9763 "/>
<path d="M100.7456 101.9763 L100.9431 101.8776 "/>
<path d="M100.9431 101.8776 L101.0418 101.7789 "/>
<path d="M101.0418 101.7789 L101.1405 101.5814 "/>
<path d="M101.1405 101.5814 L101.1405 101.1865 "/>
<path d="M101.1405 101.1865 L101.0418 100.9891 "/>
<path d="M101.0418 100.9891 L100.9431 100.8904 "/>
<path d="M100.9431 100.8904 L100.7456 100.7916 "/>
<path d="M103.0163 99.9031 L102.0290 99.9031 "/>
<path d="M102.0290 99.9031 L101.9303 100.8904 "/>
<path d="M101.9303 100.8904 L102.0290 100.7916 "/>
<path d="M102.0290 100.7916 L102.2265 100.6929 "/>
<path d="M102.2265 100.6929 L102.7201 100.6929 "/>
<path d="M102.7201 100.6929 L102.9175 100.7916 "/>
<path d="M102.9175 100.7916 L103.0163 100.8904 "/>
<path d="M103.0163 100.8904 L103.1150 101.0878 "/>
<path d="M103.1150 101.0878 L103.1150 101.5814 "/>
<path d="M103.1150 101.5814 L103.0163 101.7789 "/>
<path d="M103.0163 101.7789 L102.9175 101.8776 "/>
<path d="M102.9175 101.8776 L102.7201 101.9763 "/>
<path d="M102.7201 101.9763 L102.2265 101.9763 "/>
<path d="M102.2265 101.9763 L102.0290 101.8776 "/>
<path d="M102.0290 101.8776 L101.9303 101.7789 "/>
<path d="M103.9048 100.1006 L104.0035 100.0018 "/>
<path d="M104.0035 100.0018 L104.2010 99.9031 "/>
<path d="M104.2010 99.9031 L104.6946 99.9031 "/>
<path d="M104.6946 99.9031 L104.8920 100.0018 "/>
<path d="M104.8920 100.0018 L104.9908 100.1006 "/>
<path d="M104.9908 100.1006 L105.0895 100.2980 "/>
<path d="M105.0895 100.2980 L105.0895 100.4955 "/>
<path d="M105.0895 100.4955 L104.9908 100.7916 "/>
<path d="M104.9908 100.7916 L103.8061 101.9763 "/>
<path d="M103.8061 101.9763 L105.0895 101.9763 "/>
<path d="M106.8665 99.9031 L106.4716 99.9031 "/>
<path d="M106.4716 99.9031 L106.2742 100.0018 "/>
<path d="M106.2742 100.0018 L106.1754 100.1006 "/>
<path d="M106.1754 100.1006 L105.9780 100.3967 "/>
<path d="M105.9780 100.3967 L105.8793 100.7916 "/>
<path d="M105.8793 100.7916 L105.8793 101.5814 "/>
<path d="M105.8793 101.5814 L105.9780 101.7789 "/>
<path d="M105.9780 101.7789 L106.0767 101.8776 "/>
<path d="M106.0767 101.8776 L106.2742 101.9763 "/>
<path d="M106.2742 101.9763 L106.6691 101.9763 "/>
<path d="M106.6691 101.9763 L106.8665 101.8776 "/>
<path d="M106.8665 101.8776 L106.9652 101.7789 "/>
<path d="M106.9652 101.7789 L107.0640 101.5814 "/>
<path d="M107.0640 101.5814 L107.0640 101.0878 "/>
<path d="M107.0640 101.0878 L106.9652 100.8904 "/>
<path d="M106.9652 100.8904 L106.8665 100.7916 "/>
<path d="M106.8665 100.7916 L106.6691 100.6929 "/>
<path d="M106.6691 100.6929 L106.2742 100.6929 "/>
<path d="M106.2742 100.6929 L106.0767 100.7916 "/>
<path d="M106.0767 100.7916 L105.9780 100.8904 "/>
<path d="M105.9780 100.8904 L105.8793 101.0878 "/>
<path d="M107.7550 99.9031 L109.0385 99.9031 "/>
<path d="M109.0385 99.9031 L108.3474 100.6929 "/>
<path d="M108.3474 100.6929 L108.6436 100.6929 "/>
<path d="M108.6436 100.6929 L108.8410 100.7916 "/>
<path d="M108.8410 100.7916 L108.9397 100.8904 "/>
<path d="M108.9397 100.8904 L109.0385 101.0878 "/>
<path d="M109.0385 101.0878 L109.0385 101.5814 "/>
<path d="M109.0385 101.5814 L108.9397 101.7789 "/>
<path d="M108.9397 101.7789 L108.8410 101.8776 "/>
<path d="M108.8410 101.8776 L108.6436 101.9763 "/>
<path d="M108.6436 101.9763 L108.0512 101.9763 "/>
<path d="M108.0512 101.9763 L107.8538 101.8776 "/>
<path d="M107.8538 101.8776 L107.7550 101.7789 "/>
<path d="M109.8283 101.3840 L110.8155 101.3840 "/>
<path d="M109.6308 101.9763 L110.3219 99.9031 "/>
<path d="M110.3219 99.9031 L111.0129 101.9763 "/>
</g><text x="156.4000" y="166.9927" transform="scale(-1 1) translate(-312.800091 0)" textLength="13.6487" font-size="2.7643" lengthAdjust="spacingAndGlyphs" text-anchor="middle" opacity="0.01" style="font-family:monospace">MCC-SD</text>
<g class="stroked-text"><desc>MCC-SD</desc>
<path d="M150.3285 166.8990 L150.3285 164.8258 "/>
<path d="M150.3285 164.8258 L151.0196 166.3067 "/>
<path d="M151.0196 166.3067 L151.7106 164.8258 "/>
<path d="M151.7106 164.8258 L151.7106 166.8990 "/>
<path d="M153.8826 166.7016 L153.7838 166.8003 "/>
<path d="M153.7838 166.8003 L153.4877 166.8990 "/>
<path d="M153.4877 166.8990 L153.2902 166.8990 "/>
<path d="M153.2902 166.8990 L152.9941 166.8003 "/>
<path d="M152.9941 166.8003 L152.7966 166.6029 "/>
<path d="M152.7966 166.6029 L152.6979 166.4054 "/>
<path d="M152.6979 166.4054 L152.5992 166.0105 "/>
<path d="M152.5992 166.0105 L152.5992 165.7143 "/>
<path d="M152.5992 165.7143 L152.6979 165.3194 "/>
<path d="M152.6979 165.3194 L152.7966 165.1220 "/>
<path d="M152.7966 165.1220 L152.9941 164.9245 "/>
<path d="M152.9941 164.9245 L153.2902 164.8258 "/>
<path d="M153.2902 164.8258 L153.4877 164.8258 "/>
<path d="M153.4877 164.8258 L153.7838 164.9245 "/>
<path d="M153.7838 164.9245 L153.8826 165.0233 "/>
<path d="M155.9558 166.7016 L155.8571 166.8003 "/>
<path d="M155.8571 166.8003 L155.5609 166.8990 "/>
<path d="M155.5609 166.8990 L155.3634 166.8990 "/>
<path d="M155.3634 166.8990 L155.0673 166.8003 "/>
<path d="M155.0673 166.8003 L154.8698 166.6029 "/>
<path d="M154.8698 166.6029 L154.7711 166.4054 "/>
<path d="M154.7711 166.4054 L154.6724 166.0105 "/>
<path d="M154.6724 166.0105 L154.6724 165.7143 "/>
<path d="M154.6724 165.7143 L154.7711 165.3194 "/>
<path d="M154.7711 165.3194 L154.8698 165.1220 "/>
<path d="M154.8698 165.1220 L155.0673 164.9245 "/>
<path d="M155.0673 164.9245 L155.3634 164.8258 "/>
<path d="M155.3634 164.8258 L155.5609 164.8258 "/>
<path d="M155.5609 164.8258 L155.8571 164.9245 "/>
<path d="M155.8571 164.9245 L155.9558 165.0233 "/>
<path d="M156.8443 166.1092 L158.4239 166.1092 "/>
<path d="M159.3124 166.8003 L159.6086 166.8990 "/>
<path d="M159.6086 166.8990 L160.1022 166.8990 "/>
<path d="M160.1022 166.8990 L160.2997 166.8003 "/>
<path d="M160.2997 166.8003 L160.3984 166.7016 "/>
<path d="M160.3984 166.7016 L160.4971 166.5041 "/>
<path d="M160.4971 166.5041 L160.4971 166.3067 "/>
<path d="M160.4971 166.3067 L160.3984 166.1092 "/>
<path d="M160.3984 166.1092 L160.2997 166.0105 "/>
<path d="M160.2997 166.0105 L160.1022 165.9118 "/>
<path d="M160.1022 165.9118 L159.7073 165.8131 "/>
<path d="M159.7073 165.8131 L159.5099 165.7143 "/>
<path d="M159.5099 165.7143 L159.4111 165.6156 "/>
<path d="M159.4111 165.6156 L159.3124 165.4182 "/>
<path d="M159.3124 165.4182 L159.3124 165.2207 "/>
<path d="M159.3124 165.2207 L159.4111 165.0233 "/>
<path d="M159.4111 165.0233 L159.5099 164.9245 "/>
<path d="M159.5099 164.9245 L159.7073 164.8258 "/>
<path d="M159.7073 164.8258 L160.2009 164.8258 "/>
<path d="M160.2009 164.8258 L160.4971 164.9245 "/>
<path d="M161.3856 166.8990 L161.3856 164.8258 "/>
<path d="M161.3856 164.8258 L161.8793 164.8258 "/>
<path d="M161.8793 164.8258 L162.1754 164.9245 "/>
<path d="M162.1754 164.9245 L162.3729 165.1220 "/>
<path d="M162.3729 165.1220 L162.4716 165.3194 "/>
<path d="M162.4716 165.3194 L162.5703 165.7143 "/>
<path d="M162.5703 165.7143 L162.5703 166.0105 "/>
<path d="M162.5703 166.0105 L162.4716 166.4054 "/>
<path d="M162.4716 166.4054 L162.3729 166.6029 "/>
<path d="M162.3729 166.6029 L162.1754 166.8003 "/>
<path d="M162.1754 166.8003 L161.8793 166.8990 "/>
<path d="M161.8793 166.8990 L161.3856 166.8990 "/>
</g><text x="156.4000" y="162.8463" transform="scale(-1 1) translate(-312.800091 0)" textLength="4.0724" font-size="2.7643" lengthAdjust="spacingAndGlyphs" text-anchor="middle" opacity="0.01" style="font-family:monospace">J7</text>
<g class="stroked-text"><desc>J7</desc>
<path d="M155.7090 160.6794 L155.7090 162.1603 "/>
<path d="M155.7090 162.1603 L155.6103 162.4564 "/>
<path d="M155.6103 162.4564 L155.4128 162.6539 "/>
<path d="M155.4128 162.6539 L155.1166 162.7526 "/>
<path d="M155.1166 162.7526 L154.9192 162.7526 "/>
<path d="M156.4988 160.6794 L157.8809 160.6794 "/>
<path d="M157.8809 160.6794 L156.9924 162.7526 "/>
</g><text x="97.1372" y="134.5158" transform="scale(-1 1) translate(-194.274442 0)" textLength="22.7313" font-size="2.7643" lengthAdjust="spacingAndGlyphs" text-anchor="middle" opacity="0.01" style="font-family:monospace">TPS22965-Q1</text>
<g class="stroked-text"><desc>TPS22965-Q1</desc>
<path d="M86.2282 132.3489 L87.4129 132.3489 "/>
<path d="M86.8205 134.4221 L86.8205 132.3489 "/>
<path d="M88.1039 134.4221 L88.1039 132.3489 "/>
<path d="M88.1039 132.3489 L88.8937 132.3489 "/>
<path d="M88.8937 132.3489 L89.0912 132.4476 "/>
<path d="M89.0912 132.4476 L89.1899 132.5464 "/>
<path d="M89.1899 132.5464 L89.2886 132.7438 "/>
<path d="M89.2886 132.7438 L89.2886 133.0400 "/>
<path d="M89.2886 133.0400 L89.1899 133.2374 "/>
<path d="M89.1899 133.2374 L89.0912 133.3362 "/>
<path d="M89.0912 133.3362 L88.8937 133.4349 "/>
<path d="M88.8937 133.4349 L88.1039 133.4349 "/>
<path d="M90.0784 134.3234 L90.3746 134.4221 "/>
<path d="M90.3746 134.4221 L90.8682 134.4221 "/>
<path d="M90.8682 134.4221 L91.0657 134.3234 "/>
<path d="M91.0657 134.3234 L91.1644 134.2247 "/>
<path d="M91.1644 134.2247 L91.2631 134.0272 "/>
<path d="M91.2631 134.0272 L91.2631 133.8298 "/>
<path d="M91.2631 133.8298 L91.1644 133.6323 "/>
<path d="M91.1644 133.6323 L91.0657 133.5336 "/>
<path d="M91.0657 133.5336 L90.8682 133.4349 "/>
<path d="M90.8682 133.4349 L90.4733 133.3362 "/>
<path d="M90.4733 133.3362 L90.2759 133.2374 "/>
<path d="M90.2759 133.2374 L90.1771 133.1387 "/>
<path d="M90.1771 133.1387 L90.0784 132.9413 "/>
<path d="M90.0784 132.9413 L90.0784 132.7438 "/>
<path d="M90.0784 132.7438 L90.1771 132.5464 "/>
<path d="M90.1771 132.5464 L90.2759 132.4476 "/>
<path d="M90.2759 132.4476 L90.4733 132.3489 "/>
<path d="M90.4733 132.3489 L90.9669 132.3489 "/>
<path d="M90.9669 132.3489 L91.2631 132.4476 "/>
<path d="M92.0529 132.5464 L92.1516 132.4476 "/>
<path d="M92.1516 132.4476 L92.3491 132.3489 "/>
<path d="M92.3491 132.3489 L92.8427 132.3489 "/>
<path d="M92.8427 132.3489 L93.0402 132.4476 "/>
<path d="M93.0402 132.4476 L93.1389 132.5464 "/>
<path d="M93.1389 132.5464 L93.2376 132.7438 "/>
<path d="M93.2376 132.7438 L93.2376 132.9413 "/>
<path d="M93.2376 132.9413 L93.1389 133.2374 "/>
<path d="M93.1389 133.2374 L91.9542 134.4221 "/>
<path d="M91.9542 134.4221 L93.2376 134.4221 "/>
<path d="M94.0274 132.5464 L94.1261 132.4476 "/>
<path d="M94.1261 132.4476 L94.3236 132.3489 "/>
<path d="M94.3236 132.3489 L94.8172 132.3489 "/>
<path d="M94.8172 132.3489 L95.0146 132.4476 "/>
<path d="M95.0146 132.4476 L95.1134 132.5464 "/>
<path d="M95.1134 132.5464 L95.2121 132.7438 "/>
<path d="M95.2121 132.7438 L95.2121 132.9413 "/>
<path d="M95.2121 132.9413 L95.1134 133.2374 "/>
<path d="M95.1134 133.2374 L93.9287 134.4221 "/>
<path d="M93.9287 134.4221 L95.2121 134.4221 "/>
<path d="M96.1993 134.4221 L96.5942 134.4221 "/>
<path d="M96.5942 134.4221 L96.7917 134.3234 "/>
<path d="M96.7917 134.3234 L96.8904 134.2247 "/>
<path d="M96.8904 134.2247 L97.0879 133.9285 "/>
<path d="M97.0879 133.9285 L97.1866 133.5336 "/>
<path d="M97.1866 133.5336 L97.1866 132.7438 "/>
<path d="M97.1866 132.7438 L97.0879 132.5464 "/>
<path d="M97.0879 132.5464 L96.9891 132.4476 "/>
<path d="M96.9891 132.4476 L96.7917 132.3489 "/>
<path d="M96.7917 132.3489 L96.3968 132.3489 "/>
<path d="M96.3968 132.3489 L96.1993 132.4476 "/>
<path d="M96.1993 132.4476 L96.1006 132.5464 "/>
<path d="M96.1006 132.5464 L96.0019 132.7438 "/>
<path d="M96.0019 132.7438 L96.0019 133.2374 "/>
<path d="M96.0019 133.2374 L96.1006 133.4349 "/>
<path d="M96.1006 133.4349 L96.1993 133.5336 "/>
<path d="M96.1993 133.5336 L96.3968 133.6323 "/>
<path d="M96.3968 133.6323 L96.7917 133.6323 "/>
<path d="M96.7917 133.6323 L96.9891 133.5336 "/>
<path d="M96.9891 133.5336 L97.0879 133.4349 "/>
<path d="M97.0879 133.4349 L97.1866 133.2374 "/>
<path d="M98.9636 132.3489 L98.5687 132.3489 "/>
<path d="M98.5687 132.3489 L98.3713 132.4476 "/>
<path d="M98.3713 132.4476 L98.2726 132.5464 "/>
<path d="M98.2726 132.5464 L98.0751 132.8425 "/>
<path d="M98.0751 132.8425 L97.9764 133.2374 "/>
<path d="M97.9764 133.2374 L97.9764 134.0272 "/>
<path d="M97.9764 134.0272 L98.0751 134.2247 "/>
<path d="M98.0751 134.2247 L98.1738 134.3234 "/>
<path d="M98.1738 134.3234 L98.3713 134.4221 "/>
<path d="M98.3713 134.4221 L98.7662 134.4221 "/>
<path d="M98.7662 134.4221 L98.9636 134.3234 "/>
<path d="M98.9636 134.3234 L99.0623 134.2247 "/>
<path d="M99.0623 134.2247 L99.1611 134.0272 "/>
<path d="M99.1611 134.0272 L99.1611 133.5336 "/>
<path d="M99.1611 133.5336 L99.0623 133.3362 "/>
<path d="M99.0623 133.3362 L98.9636 133.2374 "/>
<path d="M98.9636 133.2374 L98.7662 133.1387 "/>
<path d="M98.7662 133.1387 L98.3713 133.1387 "/>
<path d="M98.3713 133.1387 L98.1738 133.2374 "/>
<path d="M98.1738 133.2374 L98.0751 133.3362 "/>
<path d="M98.0751 133.3362 L97.9764 133.5336 "/>
<path d="M101.0368 132.3489 L100.0496 132.3489 "/>
<path d="M100.0496 132.3489 L99.9509 133.3362 "/>
<path d="M99.9509 133.3362 L100.0496 133.2374 "/>
<path d="M100.0496 133.2374 L100.2470 133.1387 "/>
<path d="M100.2470 133.1387 L100.7407 133.1387 "/>
<path d="M100.7407 133.1387 L100.9381 133.2374 "/>
<path d="M100.9381 133.2374 L101.0368 133.3362 "/>
<path d="M101.0368 133.3362 L101.1356 133.5336 "/>
<path d="M101.1356 133.5336 L101.1356 134.0272 "/>
<path d="M101.1356 134.0272 L101.0368 134.2247 "/>
<path d="M101.0368 134.2247 L100.9381 134.3234 "/>
<path d="M100.9381 134.3234 L100.7407 134.4221 "/>
<path d="M100.7407 134.4221 L100.2470 134.4221 "/>
<path d="M100.2470 134.4221 L100.0496 134.3234 "/>
<path d="M100.0496 134.3234 L99.9509 134.2247 "/>
<path d="M102.0241 133.6323 L103.6037 133.6323 "/>
<path d="M105.9731 134.6196 L105.7756 134.5209 "/>
<path d="M105.7756 134.5209 L105.5782 134.3234 "/>
<path d="M105.5782 134.3234 L105.2820 134.0272 "/>
<path d="M105.2820 134.0272 L105.0845 133.9285 "/>
<path d="M105.0845 133.9285 L104.8871 133.9285 "/>
<path d="M104.9858 134.4221 L104.7884 134.3234 "/>
<path d="M104.7884 134.3234 L104.5909 134.1260 "/>
<path d="M104.5909 134.1260 L104.4922 133.7311 "/>
<path d="M104.4922 133.7311 L104.4922 133.0400 "/>
<path d="M104.4922 133.0400 L104.5909 132.6451 "/>
<path d="M104.5909 132.6451 L104.7884 132.4476 "/>
<path d="M104.7884 132.4476 L104.9858 132.3489 "/>
<path d="M104.9858 132.3489 L105.3807 132.3489 "/>
<path d="M105.3807 132.3489 L105.5782 132.4476 "/>
<path d="M105.5782 132.4476 L105.7756 132.6451 "/>
<path d="M105.7756 132.6451 L105.8743 133.0400 "/>
<path d="M105.8743 133.0400 L105.8743 133.7311 "/>
<path d="M105.8743 133.7311 L105.7756 134.1260 "/>
<path d="M105.7756 134.1260 L105.5782 134.3234 "/>
<path d="M105.5782 134.3234 L105.3807 134.4221 "/>
<path d="M105.3807 134.4221 L104.9858 134.4221 "/>
<path d="M107.8488 134.4221 L106.6641 134.4221 "/>
<path d="M107.2565 134.4221 L107.2565 132.3489 "/>
<path d="M107.2565 132.3489 L107.0590 132.6451 "/>
<path d="M107.0590 132.6451 L106.8616 132.8425 "/>
<path d="M106.8616 132.8425 L106.6641 132.9413 "/>
</g></g>
<g style="fill:#000084; fill-opacity:0.01;  stroke:#000084; stroke-width:0.2073; stroke-opacity:1;  stroke-linecap:round; stroke-linejoin:round;">
<text x="97.1580" y="138.6415" transform="scale(-1 1) translate(-194.315906 0)" textLength="3.2342" font-size="1.9350" lengthAdjust="spacingAndGlyphs" text-anchor="middle" opacity="0.01" style="font-family:monospace">U2</text>
<g class="stroked-text"><desc>U2</desc>
<path d="M96.0522 137.1252 L96.0522 138.3000 "/>
<path d="M96.0522 138.3000 L96.1213 138.4383 "/>
<path d="M96.1213 138.4383 L96.1905 138.5074 "/>
<path d="M96.1905 138.5074 L96.3287 138.5765 "/>
<path d="M96.3287 138.5765 L96.6051 138.5765 "/>
<path d="M96.6051 138.5765 L96.7433 138.5074 "/>
<path d="M96.7433 138.5074 L96.8124 138.4383 "/>
<path d="M96.8124 138.4383 L96.8815 138.3000 "/>
<path d="M96.8815 138.3000 L96.8815 137.1252 "/>
<path d="M97.5035 137.2634 L97.5726 137.1943 "/>
<path d="M97.5726 137.1943 L97.7108 137.1252 "/>
<path d="M97.7108 137.1252 L98.0563 137.1252 "/>
<path d="M98.0563 137.1252 L98.1946 137.1943 "/>
<path d="M98.1946 137.1943 L98.2637 137.2634 "/>
<path d="M98.2637 137.2634 L98.3328 137.4016 "/>
<path d="M98.3328 137.4016 L98.3328 137.5399 "/>
<path d="M98.3328 137.5399 L98.2637 137.7472 "/>
<path d="M98.2637 137.7472 L97.4344 138.5765 "/>
<path d="M97.4344 138.5765 L98.3328 138.5765 "/>
</g></g>
<g style="fill:#000084; fill-opacity:0.01;  stroke:#000084; stroke-width:0.3110; stroke-opacity:1;  stroke-linecap:round; stroke-linejoin:round;">
<text x="115.5888" y="56.9776" transform="scale(-1 1) translate(-231.177653 0)" textLength="28.4573" font-size="2.7643" lengthAdjust="spacingAndGlyphs" text-anchor="middle" opacity="0.01" style="font-family:monospace">ATMEGA1284P-AU</text>
<g class="stroked-text"><desc>ATMEGA1284P-AU</desc>
<path d="M102.0142 56.2916 L103.0015 56.2916 "/>
<path d="M101.8168 56.8839 L102.5078 54.8107 "/>
<path d="M102.5078 54.8107 L103.1989 56.8839 "/>
<path d="M103.5938 54.8107 L104.7785 54.8107 "/>
<path d="M104.1862 56.8839 L104.1862 54.8107 "/>
<path d="M105.4696 56.8839 L105.4696 54.8107 "/>
<path d="M105.4696 54.8107 L106.1606 56.2916 "/>
<path d="M106.1606 56.2916 L106.8517 54.8107 "/>
<path d="M106.8517 54.8107 L106.8517 56.8839 "/>
<path d="M107.8390 55.7980 L108.5300 55.7980 "/>
<path d="M108.8262 56.8839 L107.8390 56.8839 "/>
<path d="M107.8390 56.8839 L107.8390 54.8107 "/>
<path d="M107.8390 54.8107 L108.8262 54.8107 "/>
<path d="M110.8007 54.9094 L110.6032 54.8107 "/>
<path d="M110.6032 54.8107 L110.3071 54.8107 "/>
<path d="M110.3071 54.8107 L110.0109 54.9094 "/>
<path d="M110.0109 54.9094 L109.8134 55.1069 "/>
<path d="M109.8134 55.1069 L109.7147 55.3043 "/>
<path d="M109.7147 55.3043 L109.6160 55.6992 "/>
<path d="M109.6160 55.6992 L109.6160 55.9954 "/>
<path d="M109.6160 55.9954 L109.7147 56.3903 "/>
<path d="M109.7147 56.3903 L109.8134 56.5877 "/>
<path d="M109.8134 56.5877 L110.0109 56.7852 "/>
<path d="M110.0109 56.7852 L110.3071 56.8839 "/>
<path d="M110.3071 56.8839 L110.5045 56.8839 "/>
<path d="M110.5045 56.8839 L110.8007 56.7852 "/>
<path d="M110.8007 56.7852 L110.8994 56.6865 "/>
<path d="M110.8994 56.6865 L110.8994 55.9954 "/>
<path d="M110.8994 55.9954 L110.5045 55.9954 "/>
<path d="M111.6892 56.2916 L112.6765 56.2916 "/>
<path d="M111.4918 56.8839 L112.1828 54.8107 "/>
<path d="M112.1828 54.8107 L112.8739 56.8839 "/>
<path d="M114.6509 56.8839 L113.4663 56.8839 "/>
<path d="M114.0586 56.8839 L114.0586 54.8107 "/>
<path d="M114.0586 54.8107 L113.8612 55.1069 "/>
<path d="M113.8612 55.1069 L113.6637 55.3043 "/>
<path d="M113.6637 55.3043 L113.4663 55.4031 "/>
<path d="M115.4407 55.0082 L115.5395 54.9094 "/>
<path d="M115.5395 54.9094 L115.7369 54.8107 "/>
<path d="M115.7369 54.8107 L116.2305 54.8107 "/>
<path d="M116.2305 54.8107 L116.4280 54.9094 "/>
<path d="M116.4280 54.9094 L116.5267 55.0082 "/>
<path d="M116.5267 55.0082 L116.6254 55.2056 "/>
<path d="M116.6254 55.2056 L116.6254 55.4031 "/>
<path d="M116.6254 55.4031 L116.5267 55.6992 "/>
<path d="M116.5267 55.6992 L115.3420 56.8839 "/>
<path d="M115.3420 56.8839 L116.6254 56.8839 "/>
<path d="M117.8101 55.6992 L117.6127 55.6005 "/>
<path d="M117.6127 55.6005 L117.5140 55.5018 "/>
<path d="M117.5140 55.5018 L117.4152 55.3043 "/>
<path d="M117.4152 55.3043 L117.4152 55.2056 "/>
<path d="M117.4152 55.2056 L117.5140 55.0082 "/>
<path d="M117.5140 55.0082 L117.6127 54.9094 "/>
<path d="M117.6127 54.9094 L117.8101 54.8107 "/>
<path d="M117.8101 54.8107 L118.2050 54.8107 "/>
<path d="M118.2050 54.8107 L118.4025 54.9094 "/>
<path d="M118.4025 54.9094 L118.5012 55.0082 "/>
<path d="M118.5012 55.0082 L118.5999 55.2056 "/>
<path d="M118.5999 55.2056 L118.5999 55.3043 "/>
<path d="M118.5999 55.3043 L118.5012 55.5018 "/>
<path d="M118.5012 55.5018 L118.4025 55.6005 "/>
<path d="M118.4025 55.6005 L118.2050 55.6992 "/>
<path d="M118.2050 55.6992 L117.8101 55.6992 "/>
<path d="M117.8101 55.6992 L117.6127 55.7980 "/>
<path d="M117.6127 55.7980 L117.5140 55.8967 "/>
<path d="M117.5140 55.8967 L117.4152 56.0941 "/>
<path d="M117.4152 56.0941 L117.4152 56.4890 "/>
<path d="M117.4152 56.4890 L117.5140 56.6865 "/>
<path d="M117.5140 56.6865 L117.6127 56.7852 "/>
<path d="M117.6127 56.7852 L117.8101 56.8839 "/>
<path d="M117.8101 56.8839 L118.2050 56.8839 "/>
<path d="M118.2050 56.8839 L118.4025 56.7852 "/>
<path d="M118.4025 56.7852 L118.5012 56.6865 "/>
<path d="M118.5012 56.6865 L118.5999 56.4890 "/>
<path d="M118.5999 56.4890 L118.5999 56.0941 "/>
<path d="M118.5999 56.0941 L118.5012 55.8967 "/>
<path d="M118.5012 55.8967 L118.4025 55.7980 "/>
<path d="M118.4025 55.7980 L118.2050 55.6992 "/>
<path d="M120.3770 55.5018 L120.3770 56.8839 "/>
<path d="M119.8833 54.7120 L119.3897 56.1929 "/>
<path d="M119.3897 56.1929 L120.6731 56.1929 "/>
<path d="M121.4629 56.8839 L121.4629 54.8107 "/>
<path d="M121.4629 54.8107 L122.2527 54.8107 "/>
<path d="M122.2527 54.8107 L122.4502 54.9094 "/>
<path d="M122.4502 54.9094 L122.5489 55.0082 "/>
<path d="M122.5489 55.0082 L122.6476 55.2056 "/>
<path d="M122.6476 55.2056 L122.6476 55.5018 "/>
<path d="M122.6476 55.5018 L122.5489 55.6992 "/>
<path d="M122.5489 55.6992 L122.4502 55.7980 "/>
<path d="M122.4502 55.7980 L122.2527 55.8967 "/>
<path d="M122.2527 55.8967 L121.4629 55.8967 "/>
<path d="M123.5362 56.0941 L125.1157 56.0941 "/>
<path d="M126.0043 56.2916 L126.9915 56.2916 "/>
<path d="M125.8068 56.8839 L126.4979 54.8107 "/>
<path d="M126.4979 54.8107 L127.1890 56.8839 "/>
<path d="M127.8800 54.8107 L127.8800 56.4890 "/>
<path d="M127.8800 56.4890 L127.9788 56.6865 "/>
<path d="M127.9788 56.6865 L128.0775 56.7852 "/>
<path d="M128.0775 56.7852 L128.2749 56.8839 "/>
<path d="M128.2749 56.8839 L128.6698 56.8839 "/>
<path d="M128.6698 56.8839 L128.8673 56.7852 "/>
<path d="M128.8673 56.7852 L128.9660 56.6865 "/>
<path d="M128.9660 56.6865 L129.0647 56.4890 "/>
<path d="M129.0647 56.4890 L129.0647 54.8107 "/>
</g><text x="115.5888" y="41.5322" transform="scale(-1 1) translate(-231.177653 0)" textLength="4.6647" font-size="2.7643" lengthAdjust="spacingAndGlyphs" text-anchor="middle" opacity="0.01" style="font-family:monospace">U3</text>
<g class="stroked-text"><desc>U3</desc>
<path d="M114.0092 39.3653 L114.0092 41.0436 "/>
<path d="M114.0092 41.0436 L114.1080 41.2410 "/>
<path d="M114.1080 41.2410 L114.2067 41.3398 "/>
<path d="M114.2067 41.3398 L114.4041 41.4385 "/>
<path d="M114.4041 41.4385 L114.7990 41.4385 "/>
<path d="M114.7990 41.4385 L114.9965 41.3398 "/>
<path d="M114.9965 41.3398 L115.0952 41.2410 "/>
<path d="M115.0952 41.2410 L115.1939 41.0436 "/>
<path d="M115.1939 41.0436 L115.1939 39.3653 "/>
<path d="M115.9837 39.3653 L117.2671 39.3653 "/>
<path d="M117.2671 39.3653 L116.5761 40.1551 "/>
<path d="M116.5761 40.1551 L116.8722 40.1551 "/>
<path d="M116.8722 40.1551 L117.0697 40.2538 "/>
<path d="M117.0697 40.2538 L117.1684 40.3525 "/>
<path d="M117.1684 40.3525 L117.2671 40.5500 "/>
<path d="M117.2671 40.5500 L117.2671 41.0436 "/>
<path d="M117.2671 41.0436 L117.1684 41.2410 "/>
<path d="M117.1684 41.2410 L117.0697 41.3398 "/>
<path d="M117.0697 41.3398 L116.8722 41.4385 "/>
<path d="M116.8722 41.4385 L116.2799 41.4385 "/>
<path d="M116.2799 41.4385 L116.0825 41.3398 "/>
<path d="M116.0825 41.3398 L115.9837 41.2410 "/>
</g><text x="157.0583" y="29.1084" transform="scale(-1 1) translate(-314.116582 0)" textLength="34.3808" font-size="2.7643" lengthAdjust="spacingAndGlyphs" text-anchor="middle" opacity="0.01" style="font-family:monospace">ISL21080CIH320Z-TK</text>
<g class="stroked-text"><desc>ISL21080CIH320Z-TK</desc>
<path d="M140.6207 29.0147 L140.6207 26.9415 "/>
<path d="M141.5092 28.9160 L141.8054 29.0147 "/>
<path d="M141.8054 29.0147 L142.2990 29.0147 "/>
<path d="M142.2990 29.0147 L142.4964 28.9160 "/>
<path d="M142.4964 28.9160 L142.5952 28.8173 "/>
<path d="M142.5952 28.8173 L142.6939 28.6198 "/>
<path d="M142.6939 28.6198 L142.6939 28.4224 "/>
<path d="M142.6939 28.4224 L142.5952 28.2249 "/>
<path d="M142.5952 28.2249 L142.4964 28.1262 "/>
<path d="M142.4964 28.1262 L142.2990 28.0275 "/>
<path d="M142.2990 28.0275 L141.9041 27.9288 "/>
<path d="M141.9041 27.9288 L141.7066 27.8301 "/>
<path d="M141.7066 27.8301 L141.6079 27.7313 "/>
<path d="M141.6079 27.7313 L141.5092 27.5339 "/>
<path d="M141.5092 27.5339 L141.5092 27.3364 "/>
<path d="M141.5092 27.3364 L141.6079 27.1390 "/>
<path d="M141.6079 27.1390 L141.7066 27.0403 "/>
<path d="M141.7066 27.0403 L141.9041 26.9415 "/>
<path d="M141.9041 26.9415 L142.3977 26.9415 "/>
<path d="M142.3977 26.9415 L142.6939 27.0403 "/>
<path d="M144.5696 29.0147 L143.5824 29.0147 "/>
<path d="M143.5824 29.0147 L143.5824 26.9415 "/>
<path d="M145.1620 27.1390 L145.2607 27.0403 "/>
<path d="M145.2607 27.0403 L145.4582 26.9415 "/>
<path d="M145.4582 26.9415 L145.9518 26.9415 "/>
<path d="M145.9518 26.9415 L146.1492 27.0403 "/>
<path d="M146.1492 27.0403 L146.2480 27.1390 "/>
<path d="M146.2480 27.1390 L146.3467 27.3364 "/>
<path d="M146.3467 27.3364 L146.3467 27.5339 "/>
<path d="M146.3467 27.5339 L146.2480 27.8301 "/>
<path d="M146.2480 27.8301 L145.0633 29.0147 "/>
<path d="M145.0633 29.0147 L146.3467 29.0147 "/>
<path d="M148.3212 29.0147 L147.1365 29.0147 "/>
<path d="M147.7288 29.0147 L147.7288 26.9415 "/>
<path d="M147.7288 26.9415 L147.5314 27.2377 "/>
<path d="M147.5314 27.2377 L147.3339 27.4352 "/>
<path d="M147.3339 27.4352 L147.1365 27.5339 "/>
<path d="M149.6046 26.9415 L149.8020 26.9415 "/>
<path d="M149.8020 26.9415 L149.9995 27.0403 "/>
<path d="M149.9995 27.0403 L150.0982 27.1390 "/>
<path d="M150.0982 27.1390 L150.1969 27.3364 "/>
<path d="M150.1969 27.3364 L150.2957 27.7313 "/>
<path d="M150.2957 27.7313 L150.2957 28.2249 "/>
<path d="M150.2957 28.2249 L150.1969 28.6198 "/>
<path d="M150.1969 28.6198 L150.0982 28.8173 "/>
<path d="M150.0982 28.8173 L149.9995 28.9160 "/>
<path d="M149.9995 28.9160 L149.8020 29.0147 "/>
<path d="M149.8020 29.0147 L149.6046 29.0147 "/>
<path d="M149.6046 29.0147 L149.4071 28.9160 "/>
<path d="M149.4071 28.9160 L149.3084 28.8173 "/>
<path d="M149.3084 28.8173 L149.2097 28.6198 "/>
<path d="M149.2097 28.6198 L149.1110 28.2249 "/>
<path d="M149.1110 28.2249 L149.1110 27.7313 "/>
<path d="M149.1110 27.7313 L149.2097 27.3364 "/>
<path d="M149.2097 27.3364 L149.3084 27.1390 "/>
<path d="M149.3084 27.1390 L149.4071 27.0403 "/>
<path d="M149.4071 27.0403 L149.6046 26.9415 "/>
<path d="M151.4804 27.8301 L151.2829 27.7313 "/>
<path d="M151.2829 27.7313 L151.1842 27.6326 "/>
<path d="M151.1842 27.6326 L151.0855 27.4352 "/>
<path d="M151.0855 27.4352 L151.0855 27.3364 "/>
<path d="M151.0855 27.3364 L151.1842 27.1390 "/>
<path d="M151.1842 27.1390 L151.2829 27.0403 "/>
<path d="M151.2829 27.0403 L151.4804 26.9415 "/>
<path d="M151.4804 26.9415 L151.8753 26.9415 "/>
<path d="M151.8753 26.9415 L152.0727 27.0403 "/>
<path d="M152.0727 27.0403 L152.1714 27.1390 "/>
<path d="M152.1714 27.1390 L152.2702 27.3364 "/>
<path d="M152.2702 27.3364 L152.2702 27.4352 "/>
<path d="M152.2702 27.4352 L152.1714 27.6326 "/>
<path d="M152.1714 27.6326 L152.0727 27.7313 "/>
<path d="M152.0727 27.7313 L151.8753 27.8301 "/>
<path d="M151.8753 27.8301 L151.4804 27.8301 "/>
<path d="M151.4804 27.8301 L151.2829 27.9288 "/>
<path d="M151.2829 27.9288 L151.1842 28.0275 "/>
<path d="M151.1842 28.0275 L151.0855 28.2249 "/>
<path d="M151.0855 28.2249 L151.0855 28.6198 "/>
<path d="M151.0855 28.6198 L151.1842 28.8173 "/>
<path d="M151.1842 28.8173 L151.2829 28.9160 "/>
<path d="M151.2829 28.9160 L151.4804 29.0147 "/>
<path d="M151.4804 29.0147 L151.8753 29.0147 "/>
<path d="M151.8753 29.0147 L152.0727 28.9160 "/>
<path d="M152.0727 28.9160 L152.1714 28.8173 "/>
<path d="M152.1714 28.8173 L152.2702 28.6198 "/>
<path d="M152.2702 28.6198 L152.2702 28.2249 "/>
<path d="M152.2702 28.2249 L152.1714 28.0275 "/>
<path d="M152.1714 28.0275 L152.0727 27.9288 "/>
<path d="M152.0727 27.9288 L151.8753 27.8301 "/>
<path d="M153.5536 26.9415 L153.7510 26.9415 "/>
<path d="M153.7510 26.9415 L153.9485 27.0403 "/>
<path d="M153.9485 27.0403 L154.0472 27.1390 "/>
<path d="M154.0472 27.1390 L154.1459 27.3364 "/>
<path d="M154.1459 27.3364 L154.2446 27.7313 "/>
<path d="M154.2446 27.7313 L154.2446 28.2249 "/>
<path d="M154.2446 28.2249 L154.1459 28.6198 "/>
<path d="M154.1459 28.6198 L154.0472 28.8173 "/>
<path d="M154.0472 28.8173 L153.9485 28.9160 "/>
<path d="M153.9485 28.9160 L153.7510 29.0147 "/>
<path d="M153.7510 29.0147 L153.5536 29.0147 "/>
<path d="M153.5536 29.0147 L153.3561 28.9160 "/>
<path d="M153.3561 28.9160 L153.2574 28.8173 "/>
<path d="M153.2574 28.8173 L153.1587 28.6198 "/>
<path d="M153.1587 28.6198 L153.0600 28.2249 "/>
<path d="M153.0600 28.2249 L153.0600 27.7313 "/>
<path d="M153.0600 27.7313 L153.1587 27.3364 "/>
<path d="M153.1587 27.3364 L153.2574 27.1390 "/>
<path d="M153.2574 27.1390 L153.3561 27.0403 "/>
<path d="M153.3561 27.0403 L153.5536 26.9415 "/>
<path d="M156.3179 28.8173 L156.2191 28.9160 "/>
<path d="M156.2191 28.9160 L155.9230 29.0147 "/>
<path d="M155.9230 29.0147 L155.7255 29.0147 "/>
<path d="M155.7255 29.0147 L155.4293 28.9160 "/>
<path d="M155.4293 28.9160 L155.2319 28.7186 "/>
<path d="M155.2319 28.7186 L155.1332 28.5211 "/>
<path d="M155.1332 28.5211 L155.0344 28.1262 "/>
<path d="M155.0344 28.1262 L155.0344 27.8301 "/>
<path d="M155.0344 27.8301 L155.1332 27.4352 "/>
<path d="M155.1332 27.4352 L155.2319 27.2377 "/>
<path d="M155.2319 27.2377 L155.4293 27.0403 "/>
<path d="M155.4293 27.0403 L155.7255 26.9415 "/>
<path d="M155.7255 26.9415 L155.9230 26.9415 "/>
<path d="M155.9230 26.9415 L156.2191 27.0403 "/>
<path d="M156.2191 27.0403 L156.3179 27.1390 "/>
<path d="M157.2064 29.0147 L157.2064 26.9415 "/>
<path d="M158.1936 29.0147 L158.1936 26.9415 "/>
<path d="M158.1936 27.9288 L159.3783 27.9288 "/>
<path d="M159.3783 29.0147 L159.3783 26.9415 "/>
<path d="M160.1681 26.9415 L161.4515 26.9415 "/>
<path d="M161.4515 26.9415 L160.7605 27.7313 "/>
<path d="M160.7605 27.7313 L161.0566 27.7313 "/>
<path d="M161.0566 27.7313 L161.2541 27.8301 "/>
<path d="M161.2541 27.8301 L161.3528 27.9288 "/>
<path d="M161.3528 27.9288 L161.4515 28.1262 "/>
<path d="M161.4515 28.1262 L161.4515 28.6198 "/>
<path d="M161.4515 28.6198 L161.3528 28.8173 "/>
<path d="M161.3528 28.8173 L161.2541 28.9160 "/>
<path d="M161.2541 28.9160 L161.0566 29.0147 "/>
<path d="M161.0566 29.0147 L160.4643 29.0147 "/>
<path d="M160.4643 29.0147 L160.2668 28.9160 "/>
<path d="M160.2668 28.9160 L160.1681 28.8173 "/>
<path d="M162.2413 27.1390 L162.3401 27.0403 "/>
<path d="M162.3401 27.0403 L162.5375 26.9415 "/>
<path d="M162.5375 26.9415 L163.0311 26.9415 "/>
<path d="M163.0311 26.9415 L163.2286 27.0403 "/>
<path d="M163.2286 27.0403 L163.3273 27.1390 "/>
<path d="M163.3273 27.1390 L163.4260 27.3364 "/>
<path d="M163.4260 27.3364 L163.4260 27.5339 "/>
<path d="M163.4260 27.5339 L163.3273 27.8301 "/>
<path d="M163.3273 27.8301 L162.1426 29.0147 "/>
<path d="M162.1426 29.0147 L163.4260 29.0147 "/>
<path d="M164.7094 26.9415 L164.9069 26.9415 "/>
<path d="M164.9069 26.9415 L165.1043 27.0403 "/>
<path d="M165.1043 27.0403 L165.2031 27.1390 "/>
<path d="M165.2031 27.1390 L165.3018 27.3364 "/>
<path d="M165.3018 27.3364 L165.4005 27.7313 "/>
<path d="M165.4005 27.7313 L165.4005 28.2249 "/>
<path d="M165.4005 28.2249 L165.3018 28.6198 "/>
<path d="M165.3018 28.6198 L165.2031 28.8173 "/>
<path d="M165.2031 28.8173 L165.1043 28.9160 "/>
<path d="M165.1043 28.9160 L164.9069 29.0147 "/>
<path d="M164.9069 29.0147 L164.7094 29.0147 "/>
<path d="M164.7094 29.0147 L164.5120 28.9160 "/>
<path d="M164.5120 28.9160 L164.4133 28.8173 "/>
<path d="M164.4133 28.8173 L164.3145 28.6198 "/>
<path d="M164.3145 28.6198 L164.2158 28.2249 "/>
<path d="M164.2158 28.2249 L164.2158 27.7313 "/>
<path d="M164.2158 27.7313 L164.3145 27.3364 "/>
<path d="M164.3145 27.3364 L164.4133 27.1390 "/>
<path d="M164.4133 27.1390 L164.5120 27.0403 "/>
<path d="M164.5120 27.0403 L164.7094 26.9415 "/>
<path d="M166.0916 26.9415 L167.4737 26.9415 "/>
<path d="M167.4737 26.9415 L166.0916 29.0147 "/>
<path d="M166.0916 29.0147 L167.4737 29.0147 "/>
<path d="M168.2635 28.2249 L169.8431 28.2249 "/>
<path d="M170.5342 26.9415 L171.7189 26.9415 "/>
<path d="M171.1265 29.0147 L171.1265 26.9415 "/>
<path d="M172.4099 29.0147 L172.4099 26.9415 "/>
<path d="M173.5946 29.0147 L172.7061 27.8301 "/>
<path d="M173.5946 26.9415 L172.4099 28.1262 "/>
</g></g>
<g style="fill:#000084; fill-opacity:0.0;  stroke:#000084; stroke-width:0.1555; stroke-opacity:1;  stroke-linecap:round; stroke-linejoin:round;">
<g transform="rotate(-90.000000 157.0583 33.2548)">
<text x="157.0583" y="33.7731" transform="scale(-1 1) translate(-314.116582 0)" textLength="2.3324" font-size="1.3821" lengthAdjust="spacingAndGlyphs" text-anchor="middle" opacity="0.01" style="font-family:monospace">U1</text>
</g>
<g class="stroked-text"><desc>U1</desc>
<path d="M157.6234 32.4650 L156.7843 32.4650 "/>
<path d="M156.7843 32.4650 L156.6855 32.5144 "/>
<path d="M156.6855 32.5144 L156.6362 32.5638 "/>
<path d="M156.6362 32.5638 L156.5868 32.6625 "/>
<path d="M156.5868 32.6625 L156.5868 32.8599 "/>
<path d="M156.5868 32.8599 L156.6362 32.9587 "/>
<path d="M156.6362 32.9587 L156.6855 33.0080 "/>
<path d="M156.6855 33.0080 L156.7843 33.0574 "/>
<path d="M156.7843 33.0574 L157.6234 33.0574 "/>
<path d="M156.5868 34.0940 L156.5868 33.5017 "/>
<path d="M156.5868 33.7978 L157.6234 33.7978 "/>
<path d="M157.6234 33.7978 L157.4753 33.6991 "/>
<path d="M157.4753 33.6991 L157.3766 33.6004 "/>
<path d="M157.3766 33.6004 L157.3273 33.5017 "/>
</g></g>
<g style="fill:#000084; fill-opacity:0.01;  stroke:#000084; stroke-width:0.3110; stroke-opacity:1;  stroke-linecap:round; stroke-linejoin:round;">
<text x="155.0836" y="99.7376" transform="scale(-1 1) translate(-310.167109 0)" textLength="31.4191" font-size="2.7643" lengthAdjust="spacingAndGlyphs" text-anchor="middle" opacity="0.01" style="font-family:monospace">Battery_Cell-device</text>
<g class="stroked-text"><desc>Battery_Cell-device</desc>
<path d="M140.8179 98.5580 L141.1140 98.6567 "/>
<path d="M141.1140 98.6567 L141.2128 98.7554 "/>
<path d="M141.2128 98.7554 L141.3115 98.9529 "/>
<path d="M141.3115 98.9529 L141.3115 99.2491 "/>
<path d="M141.3115 99.2491 L141.2128 99.4465 "/>
<path d="M141.2128 99.4465 L141.1140 99.5452 "/>
<path d="M141.1140 99.5452 L140.9166 99.6440 "/>
<path d="M140.9166 99.6440 L140.1268 99.6440 "/>
<path d="M140.1268 99.6440 L140.1268 97.5708 "/>
<path d="M140.1268 97.5708 L140.8179 97.5708 "/>
<path d="M140.8179 97.5708 L141.0153 97.6695 "/>
<path d="M141.0153 97.6695 L141.1140 97.7682 "/>
<path d="M141.1140 97.7682 L141.2128 97.9656 "/>
<path d="M141.2128 97.9656 L141.2128 98.1631 "/>
<path d="M141.2128 98.1631 L141.1140 98.3605 "/>
<path d="M141.1140 98.3605 L141.0153 98.4593 "/>
<path d="M141.0153 98.4593 L140.8179 98.5580 "/>
<path d="M140.8179 98.5580 L140.1268 98.5580 "/>
<path d="M143.0885 99.6440 L143.0885 98.5580 "/>
<path d="M143.0885 98.5580 L142.9898 98.3605 "/>
<path d="M142.9898 98.3605 L142.7924 98.2618 "/>
<path d="M142.7924 98.2618 L142.3975 98.2618 "/>
<path d="M142.3975 98.2618 L142.2000 98.3605 "/>
<path d="M143.0885 99.5452 L142.8911 99.6440 "/>
<path d="M142.8911 99.6440 L142.3975 99.6440 "/>
<path d="M142.3975 99.6440 L142.2000 99.5452 "/>
<path d="M142.2000 99.5452 L142.1013 99.3478 "/>
<path d="M142.1013 99.3478 L142.1013 99.1503 "/>
<path d="M142.1013 99.1503 L142.2000 98.9529 "/>
<path d="M142.2000 98.9529 L142.3975 98.8542 "/>
<path d="M142.3975 98.8542 L142.8911 98.8542 "/>
<path d="M142.8911 98.8542 L143.0885 98.7554 "/>
<path d="M143.7796 98.2618 L144.5694 98.2618 "/>
<path d="M144.0758 97.5708 L144.0758 99.3478 "/>
<path d="M144.0758 99.3478 L144.1745 99.5452 "/>
<path d="M144.1745 99.5452 L144.3719 99.6440 "/>
<path d="M144.3719 99.6440 L144.5694 99.6440 "/>
<path d="M144.9643 98.2618 L145.7541 98.2618 "/>
<path d="M145.2605 97.5708 L145.2605 99.3478 "/>
<path d="M145.2605 99.3478 L145.3592 99.5452 "/>
<path d="M145.3592 99.5452 L145.5566 99.6440 "/>
<path d="M145.5566 99.6440 L145.7541 99.6440 "/>
<path d="M147.2350 99.5452 L147.0375 99.6440 "/>
<path d="M147.0375 99.6440 L146.6426 99.6440 "/>
<path d="M146.6426 99.6440 L146.4452 99.5452 "/>
<path d="M146.4452 99.5452 L146.3464 99.3478 "/>
<path d="M146.3464 99.3478 L146.3464 98.5580 "/>
<path d="M146.3464 98.5580 L146.4452 98.3605 "/>
<path d="M146.4452 98.3605 L146.6426 98.2618 "/>
<path d="M146.6426 98.2618 L147.0375 98.2618 "/>
<path d="M147.0375 98.2618 L147.2350 98.3605 "/>
<path d="M147.2350 98.3605 L147.3337 98.5580 "/>
<path d="M147.3337 98.5580 L147.3337 98.7554 "/>
<path d="M147.3337 98.7554 L146.3464 98.9529 "/>
<path d="M148.2222 99.6440 L148.2222 98.2618 "/>
<path d="M148.2222 98.6567 L148.3209 98.4593 "/>
<path d="M148.3209 98.4593 L148.4197 98.3605 "/>
<path d="M148.4197 98.3605 L148.6171 98.2618 "/>
<path d="M148.6171 98.2618 L148.8146 98.2618 "/>
<path d="M149.3082 98.2618 L149.8018 99.6440 "/>
<path d="M150.2954 98.2618 L149.8018 99.6440 "/>
<path d="M149.8018 99.6440 L149.6043 100.1376 "/>
<path d="M149.6043 100.1376 L149.5056 100.2363 "/>
<path d="M149.5056 100.2363 L149.3082 100.3350 "/>
<path d="M150.5916 99.8414 L152.1712 99.8414 "/>
<path d="M153.8495 99.4465 L153.7508 99.5452 "/>
<path d="M153.7508 99.5452 L153.4546 99.6440 "/>
<path d="M153.4546 99.6440 L153.2572 99.6440 "/>
<path d="M153.2572 99.6440 L152.9610 99.5452 "/>
<path d="M152.9610 99.5452 L152.7635 99.3478 "/>
<path d="M152.7635 99.3478 L152.6648 99.1503 "/>
<path d="M152.6648 99.1503 L152.5661 98.7554 "/>
<path d="M152.5661 98.7554 L152.5661 98.4593 "/>
<path d="M152.5661 98.4593 L152.6648 98.0644 "/>
<path d="M152.6648 98.0644 L152.7635 97.8669 "/>
<path d="M152.7635 97.8669 L152.9610 97.6695 "/>
<path d="M152.9610 97.6695 L153.2572 97.5708 "/>
<path d="M153.2572 97.5708 L153.4546 97.5708 "/>
<path d="M153.4546 97.5708 L153.7508 97.6695 "/>
<path d="M153.7508 97.6695 L153.8495 97.7682 "/>
<path d="M155.5278 99.5452 L155.3304 99.6440 "/>
<path d="M155.3304 99.6440 L154.9355 99.6440 "/>
<path d="M154.9355 99.6440 L154.7380 99.5452 "/>
<path d="M154.7380 99.5452 L154.6393 99.3478 "/>
<path d="M154.6393 99.3478 L154.6393 98.5580 "/>
<path d="M154.6393 98.5580 L154.7380 98.3605 "/>
<path d="M154.7380 98.3605 L154.9355 98.2618 "/>
<path d="M154.9355 98.2618 L155.3304 98.2618 "/>
<path d="M155.3304 98.2618 L155.5278 98.3605 "/>
<path d="M155.5278 98.3605 L155.6265 98.5580 "/>
<path d="M155.6265 98.5580 L155.6265 98.7554 "/>
<path d="M155.6265 98.7554 L154.6393 98.9529 "/>
<path d="M156.8112 99.6440 L156.6138 99.5452 "/>
<path d="M156.6138 99.5452 L156.5151 99.3478 "/>
<path d="M156.5151 99.3478 L156.5151 97.5708 "/>
<path d="M157.8972 99.6440 L157.6998 99.5452 "/>
<path d="M157.6998 99.5452 L157.6010 99.3478 "/>
<path d="M157.6010 99.3478 L157.6010 97.5708 "/>
<path d="M158.6870 98.8542 L160.2666 98.8542 "/>
<path d="M162.1424 99.6440 L162.1424 97.5708 "/>
<path d="M162.1424 99.5452 L161.9449 99.6440 "/>
<path d="M161.9449 99.6440 L161.5500 99.6440 "/>
<path d="M161.5500 99.6440 L161.3526 99.5452 "/>
<path d="M161.3526 99.5452 L161.2538 99.4465 "/>
<path d="M161.2538 99.4465 L161.1551 99.2491 "/>
<path d="M161.1551 99.2491 L161.1551 98.6567 "/>
<path d="M161.1551 98.6567 L161.2538 98.4593 "/>
<path d="M161.2538 98.4593 L161.3526 98.3605 "/>
<path d="M161.3526 98.3605 L161.5500 98.2618 "/>
<path d="M161.5500 98.2618 L161.9449 98.2618 "/>
<path d="M161.9449 98.2618 L162.1424 98.3605 "/>
<path d="M163.9194 99.5452 L163.7220 99.6440 "/>
<path d="M163.7220 99.6440 L163.3271 99.6440 "/>
<path d="M163.3271 99.6440 L163.1296 99.5452 "/>
<path d="M163.1296 99.5452 L163.0309 99.3478 "/>
<path d="M163.0309 99.3478 L163.0309 98.5580 "/>
<path d="M163.0309 98.5580 L163.1296 98.3605 "/>
<path d="M163.1296 98.3605 L163.3271 98.2618 "/>
<path d="M163.3271 98.2618 L163.7220 98.2618 "/>
<path d="M163.7220 98.2618 L163.9194 98.3605 "/>
<path d="M163.9194 98.3605 L164.0181 98.5580 "/>
<path d="M164.0181 98.5580 L164.0181 98.7554 "/>
<path d="M164.0181 98.7554 L163.0309 98.9529 "/>
<path d="M164.7092 98.2618 L165.2028 99.6440 "/>
<path d="M165.2028 99.6440 L165.6964 98.2618 "/>
<path d="M166.4862 99.6440 L166.4862 98.2618 "/>
<path d="M166.4862 97.5708 L166.3875 97.6695 "/>
<path d="M166.3875 97.6695 L166.4862 97.7682 "/>
<path d="M166.4862 97.7682 L166.5850 97.6695 "/>
<path d="M166.5850 97.6695 L166.4862 97.5708 "/>
<path d="M166.4862 97.5708 L166.4862 97.7682 "/>
<path d="M168.3620 99.5452 L168.1646 99.6440 "/>
<path d="M168.1646 99.6440 L167.7697 99.6440 "/>
<path d="M167.7697 99.6440 L167.5722 99.5452 "/>
<path d="M167.5722 99.5452 L167.4735 99.4465 "/>
<path d="M167.4735 99.4465 L167.3748 99.2491 "/>
<path d="M167.3748 99.2491 L167.3748 98.6567 "/>
<path d="M167.3748 98.6567 L167.4735 98.4593 "/>
<path d="M167.4735 98.4593 L167.5722 98.3605 "/>
<path d="M167.5722 98.3605 L167.7697 98.2618 "/>
<path d="M167.7697 98.2618 L168.1646 98.2618 "/>
<path d="M168.1646 98.2618 L168.3620 98.3605 "/>
<path d="M170.0403 99.5452 L169.8429 99.6440 "/>
<path d="M169.8429 99.6440 L169.4480 99.6440 "/>
<path d="M169.4480 99.6440 L169.2505 99.5452 "/>
<path d="M169.2505 99.5452 L169.1518 99.3478 "/>
<path d="M169.1518 99.3478 L169.1518 98.5580 "/>
<path d="M169.1518 98.5580 L169.2505 98.3605 "/>
<path d="M169.2505 98.3605 L169.4480 98.2618 "/>
<path d="M169.4480 98.2618 L169.8429 98.2618 "/>
<path d="M169.8429 98.2618 L170.0403 98.3605 "/>
<path d="M170.0403 98.3605 L170.1390 98.5580 "/>
<path d="M170.1390 98.5580 L170.1390 98.7554 "/>
<path d="M170.1390 98.7554 L169.1518 98.9529 "/>
</g><text x="172.0995" y="39.4745" transform="scale(-1 1) translate(-344.198918 0)" textLength="47.4124" font-size="2.7643" lengthAdjust="spacingAndGlyphs" text-anchor="middle" opacity="0.01" style="font-family:monospace">LM4041CIM3-1.2(neosazovat)</text>
<g class="stroked-text"><desc>LM4041CIM3-1.2(neosazovat)</desc>
<path d="M150.1333 39.3808 L149.1460 39.3808 "/>
<path d="M149.1460 39.3808 L149.1460 37.3076 "/>
<path d="M150.8243 39.3808 L150.8243 37.3076 "/>
<path d="M150.8243 37.3076 L151.5154 38.7885 "/>
<path d="M151.5154 38.7885 L152.2065 37.3076 "/>
<path d="M152.2065 37.3076 L152.2065 39.3808 "/>
<path d="M154.0822 37.9987 L154.0822 39.3808 "/>
<path d="M153.5886 37.2089 L153.0950 38.6897 "/>
<path d="M153.0950 38.6897 L154.3784 38.6897 "/>
<path d="M155.5631 37.3076 L155.7606 37.3076 "/>
<path d="M155.7606 37.3076 L155.9580 37.4063 "/>
<path d="M155.9580 37.4063 L156.0567 37.5051 "/>
<path d="M156.0567 37.5051 L156.1555 37.7025 "/>
<path d="M156.1555 37.7025 L156.2542 38.0974 "/>
<path d="M156.2542 38.0974 L156.2542 38.5910 "/>
<path d="M156.2542 38.5910 L156.1555 38.9859 "/>
<path d="M156.1555 38.9859 L156.0567 39.1834 "/>
<path d="M156.0567 39.1834 L155.9580 39.2821 "/>
<path d="M155.9580 39.2821 L155.7606 39.3808 "/>
<path d="M155.7606 39.3808 L155.5631 39.3808 "/>
<path d="M155.5631 39.3808 L155.3657 39.2821 "/>
<path d="M155.3657 39.2821 L155.2669 39.1834 "/>
<path d="M155.2669 39.1834 L155.1682 38.9859 "/>
<path d="M155.1682 38.9859 L155.0695 38.5910 "/>
<path d="M155.0695 38.5910 L155.0695 38.0974 "/>
<path d="M155.0695 38.0974 L155.1682 37.7025 "/>
<path d="M155.1682 37.7025 L155.2669 37.5051 "/>
<path d="M155.2669 37.5051 L155.3657 37.4063 "/>
<path d="M155.3657 37.4063 L155.5631 37.3076 "/>
<path d="M158.0312 37.9987 L158.0312 39.3808 "/>
<path d="M157.5376 37.2089 L157.0440 38.6897 "/>
<path d="M157.0440 38.6897 L158.3274 38.6897 "/>
<path d="M160.2032 39.3808 L159.0185 39.3808 "/>
<path d="M159.6108 39.3808 L159.6108 37.3076 "/>
<path d="M159.6108 37.3076 L159.4134 37.6038 "/>
<path d="M159.4134 37.6038 L159.2159 37.8012 "/>
<path d="M159.2159 37.8012 L159.0185 37.8999 "/>
<path d="M162.2764 39.1834 L162.1776 39.2821 "/>
<path d="M162.1776 39.2821 L161.8815 39.3808 "/>
<path d="M161.8815 39.3808 L161.6840 39.3808 "/>
<path d="M161.6840 39.3808 L161.3879 39.2821 "/>
<path d="M161.3879 39.2821 L161.1904 39.0846 "/>
<path d="M161.1904 39.0846 L161.0917 38.8872 "/>
<path d="M161.0917 38.8872 L160.9930 38.4923 "/>
<path d="M160.9930 38.4923 L160.9930 38.1961 "/>
<path d="M160.9930 38.1961 L161.0917 37.8012 "/>
<path d="M161.0917 37.8012 L161.1904 37.6038 "/>
<path d="M161.1904 37.6038 L161.3879 37.4063 "/>
<path d="M161.3879 37.4063 L161.6840 37.3076 "/>
<path d="M161.6840 37.3076 L161.8815 37.3076 "/>
<path d="M161.8815 37.3076 L162.1776 37.4063 "/>
<path d="M162.1776 37.4063 L162.2764 37.5051 "/>
<path d="M163.1649 39.3808 L163.1649 37.3076 "/>
<path d="M164.1521 39.3808 L164.1521 37.3076 "/>
<path d="M164.1521 37.3076 L164.8432 38.7885 "/>
<path d="M164.8432 38.7885 L165.5343 37.3076 "/>
<path d="M165.5343 37.3076 L165.5343 39.3808 "/>
<path d="M166.3241 37.3076 L167.6075 37.3076 "/>
<path d="M167.6075 37.3076 L166.9164 38.0974 "/>
<path d="M166.9164 38.0974 L167.2126 38.0974 "/>
<path d="M167.2126 38.0974 L167.4100 38.1961 "/>
<path d="M167.4100 38.1961 L167.5088 38.2948 "/>
<path d="M167.5088 38.2948 L167.6075 38.4923 "/>
<path d="M167.6075 38.4923 L167.6075 38.9859 "/>
<path d="M167.6075 38.9859 L167.5088 39.1834 "/>
<path d="M167.5088 39.1834 L167.4100 39.2821 "/>
<path d="M167.4100 39.2821 L167.2126 39.3808 "/>
<path d="M167.2126 39.3808 L166.6203 39.3808 "/>
<path d="M166.6203 39.3808 L166.4228 39.2821 "/>
<path d="M166.4228 39.2821 L166.3241 39.1834 "/>
<path d="M168.4960 38.5910 L170.0756 38.5910 "/>
<path d="M172.1488 39.3808 L170.9641 39.3808 "/>
<path d="M171.5565 39.3808 L171.5565 37.3076 "/>
<path d="M171.5565 37.3076 L171.3590 37.6038 "/>
<path d="M171.3590 37.6038 L171.1616 37.8012 "/>
<path d="M171.1616 37.8012 L170.9641 37.8999 "/>
<path d="M173.0373 39.1834 L173.1361 39.2821 "/>
<path d="M173.1361 39.2821 L173.0373 39.3808 "/>
<path d="M173.0373 39.3808 L172.9386 39.2821 "/>
<path d="M172.9386 39.2821 L173.0373 39.1834 "/>
<path d="M173.0373 39.1834 L173.0373 39.3808 "/>
<path d="M173.9259 37.5051 L174.0246 37.4063 "/>
<path d="M174.0246 37.4063 L174.2220 37.3076 "/>
<path d="M174.2220 37.3076 L174.7157 37.3076 "/>
<path d="M174.7157 37.3076 L174.9131 37.4063 "/>
<path d="M174.9131 37.4063 L175.0118 37.5051 "/>
<path d="M175.0118 37.5051 L175.1106 37.7025 "/>
<path d="M175.1106 37.7025 L175.1106 37.8999 "/>
<path d="M175.1106 37.8999 L175.0118 38.1961 "/>
<path d="M175.0118 38.1961 L173.8271 39.3808 "/>
<path d="M173.8271 39.3808 L175.1106 39.3808 "/>
<path d="M176.5914 40.1706 L176.4927 40.0719 "/>
<path d="M176.4927 40.0719 L176.2952 39.7757 "/>
<path d="M176.2952 39.7757 L176.1965 39.5783 "/>
<path d="M176.1965 39.5783 L176.0978 39.2821 "/>
<path d="M176.0978 39.2821 L175.9991 38.7885 "/>
<path d="M175.9991 38.7885 L175.9991 38.3936 "/>
<path d="M175.9991 38.3936 L176.0978 37.8999 "/>
<path d="M176.0978 37.8999 L176.1965 37.6038 "/>
<path d="M176.1965 37.6038 L176.2952 37.4063 "/>
<path d="M176.2952 37.4063 L176.4927 37.1102 "/>
<path d="M176.4927 37.1102 L176.5914 37.0114 "/>
<path d="M177.3812 37.9987 L177.3812 39.3808 "/>
<path d="M177.3812 38.1961 L177.4799 38.0974 "/>
<path d="M177.4799 38.0974 L177.6774 37.9987 "/>
<path d="M177.6774 37.9987 L177.9736 37.9987 "/>
<path d="M177.9736 37.9987 L178.1710 38.0974 "/>
<path d="M178.1710 38.0974 L178.2697 38.2948 "/>
<path d="M178.2697 38.2948 L178.2697 39.3808 "/>
<path d="M180.0468 39.2821 L179.8493 39.3808 "/>
<path d="M179.8493 39.3808 L179.4544 39.3808 "/>
<path d="M179.4544 39.3808 L179.2570 39.2821 "/>
<path d="M179.2570 39.2821 L179.1583 39.0846 "/>
<path d="M179.1583 39.0846 L179.1583 38.2948 "/>
<path d="M179.1583 38.2948 L179.2570 38.0974 "/>
<path d="M179.2570 38.0974 L179.4544 37.9987 "/>
<path d="M179.4544 37.9987 L179.8493 37.9987 "/>
<path d="M179.8493 37.9987 L180.0468 38.0974 "/>
<path d="M180.0468 38.0974 L180.1455 38.2948 "/>
<path d="M180.1455 38.2948 L180.1455 38.4923 "/>
<path d="M180.1455 38.4923 L179.1583 38.6897 "/>
<path d="M181.3302 39.3808 L181.1327 39.2821 "/>
<path d="M181.1327 39.2821 L181.0340 39.1834 "/>
<path d="M181.0340 39.1834 L180.9353 38.9859 "/>
<path d="M180.9353 38.9859 L180.9353 38.3936 "/>
<path d="M180.9353 38.3936 L181.0340 38.1961 "/>
<path d="M181.0340 38.1961 L181.1327 38.0974 "/>
<path d="M181.1327 38.0974 L181.3302 37.9987 "/>
<path d="M181.3302 37.9987 L181.6264 37.9987 "/>
<path d="M181.6264 37.9987 L181.8238 38.0974 "/>
<path d="M181.8238 38.0974 L181.9225 38.1961 "/>
<path d="M181.9225 38.1961 L182.0213 38.3936 "/>
<path d="M182.0213 38.3936 L182.0213 38.9859 "/>
<path d="M182.0213 38.9859 L181.9225 39.1834 "/>
<path d="M181.9225 39.1834 L181.8238 39.2821 "/>
<path d="M181.8238 39.2821 L181.6264 39.3808 "/>
<path d="M181.6264 39.3808 L181.3302 39.3808 "/>
<path d="M182.8111 39.2821 L183.0085 39.3808 "/>
<path d="M183.0085 39.3808 L183.4034 39.3808 "/>
<path d="M183.4034 39.3808 L183.6009 39.2821 "/>
<path d="M183.6009 39.2821 L183.6996 39.0846 "/>
<path d="M183.6996 39.0846 L183.6996 38.9859 "/>
<path d="M183.6996 38.9859 L183.6009 38.7885 "/>
<path d="M183.6009 38.7885 L183.4034 38.6897 "/>
<path d="M183.4034 38.6897 L183.1072 38.6897 "/>
<path d="M183.1072 38.6897 L182.9098 38.5910 "/>
<path d="M182.9098 38.5910 L182.8111 38.3936 "/>
<path d="M182.8111 38.3936 L182.8111 38.2948 "/>
<path d="M182.8111 38.2948 L182.9098 38.0974 "/>
<path d="M182.9098 38.0974 L183.1072 37.9987 "/>
<path d="M183.1072 37.9987 L183.4034 37.9987 "/>
<path d="M183.4034 37.9987 L183.6009 38.0974 "/>
<path d="M185.4766 39.3808 L185.4766 38.2948 "/>
<path d="M185.4766 38.2948 L185.3779 38.0974 "/>
<path d="M185.3779 38.0974 L185.1805 37.9987 "/>
<path d="M185.1805 37.9987 L184.7856 37.9987 "/>
<path d="M184.7856 37.9987 L184.5881 38.0974 "/>
<path d="M185.4766 39.2821 L185.2792 39.3808 "/>
<path d="M185.2792 39.3808 L184.7856 39.3808 "/>
<path d="M184.7856 39.3808 L184.5881 39.2821 "/>
<path d="M184.5881 39.2821 L184.4894 39.0846 "/>
<path d="M184.4894 39.0846 L184.4894 38.8872 "/>
<path d="M184.4894 38.8872 L184.5881 38.6897 "/>
<path d="M184.5881 38.6897 L184.7856 38.5910 "/>
<path d="M184.7856 38.5910 L185.2792 38.5910 "/>
<path d="M185.2792 38.5910 L185.4766 38.4923 "/>
<path d="M186.2664 37.9987 L187.3524 37.9987 "/>
<path d="M187.3524 37.9987 L186.2664 39.3808 "/>
<path d="M186.2664 39.3808 L187.3524 39.3808 "/>
<path d="M188.4384 39.3808 L188.2409 39.2821 "/>
<path d="M188.2409 39.2821 L188.1422 39.1834 "/>
<path d="M188.1422 39.1834 L188.0435 38.9859 "/>
<path d="M188.0435 38.9859 L188.0435 38.3936 "/>
<path d="M188.0435 38.3936 L188.1422 38.1961 "/>
<path d="M188.1422 38.1961 L188.2409 38.0974 "/>
<path d="M188.2409 38.0974 L188.4384 37.9987 "/>
<path d="M188.4384 37.9987 L188.7345 37.9987 "/>
<path d="M188.7345 37.9987 L188.9320 38.0974 "/>
<path d="M188.9320 38.0974 L189.0307 38.1961 "/>
<path d="M189.0307 38.1961 L189.1294 38.3936 "/>
<path d="M189.1294 38.3936 L189.1294 38.9859 "/>
<path d="M189.1294 38.9859 L189.0307 39.1834 "/>
<path d="M189.0307 39.1834 L188.9320 39.2821 "/>
<path d="M188.9320 39.2821 L188.7345 39.3808 "/>
<path d="M188.7345 39.3808 L188.4384 39.3808 "/>
<path d="M189.8205 37.9987 L190.3141 39.3808 "/>
<path d="M190.3141 39.3808 L190.8077 37.9987 "/>
<path d="M192.4861 39.3808 L192.4861 38.2948 "/>
<path d="M192.4861 38.2948 L192.3873 38.0974 "/>
<path d="M192.3873 38.0974 L192.1899 37.9987 "/>
<path d="M192.1899 37.9987 L191.7950 37.9987 "/>
<path d="M191.7950 37.9987 L191.5975 38.0974 "/>
<path d="M192.4861 39.2821 L192.2886 39.3808 "/>
<path d="M192.2886 39.3808 L191.7950 39.3808 "/>
<path d="M191.7950 39.3808 L191.5975 39.2821 "/>
<path d="M191.5975 39.2821 L191.4988 39.0846 "/>
<path d="M191.4988 39.0846 L191.4988 38.8872 "/>
<path d="M191.4988 38.8872 L191.5975 38.6897 "/>
<path d="M191.5975 38.6897 L191.7950 38.5910 "/>
<path d="M191.7950 38.5910 L192.2886 38.5910 "/>
<path d="M192.2886 38.5910 L192.4861 38.4923 "/>
<path d="M193.1771 37.9987 L193.9669 37.9987 "/>
<path d="M193.4733 37.3076 L193.4733 39.0846 "/>
<path d="M193.4733 39.0846 L193.5720 39.2821 "/>
<path d="M193.5720 39.2821 L193.7695 39.3808 "/>
<path d="M193.7695 39.3808 L193.9669 39.3808 "/>
<path d="M194.4606 40.1706 L194.5593 40.0719 "/>
<path d="M194.5593 40.0719 L194.7567 39.7757 "/>
<path d="M194.7567 39.7757 L194.8555 39.5783 "/>
<path d="M194.8555 39.5783 L194.9542 39.2821 "/>
<path d="M194.9542 39.2821 L195.0529 38.7885 "/>
<path d="M195.0529 38.7885 L195.0529 38.3936 "/>
<path d="M195.0529 38.3936 L194.9542 37.8999 "/>
<path d="M194.9542 37.8999 L194.8555 37.6038 "/>
<path d="M194.8555 37.6038 L194.7567 37.4063 "/>
<path d="M194.7567 37.4063 L194.5593 37.1102 "/>
<path d="M194.5593 37.1102 L194.4606 37.0114 "/>
</g></g>
<g style="fill:#000084; fill-opacity:0.0;  stroke:#000084; stroke-width:0.1555; stroke-opacity:1;  stroke-linecap:round; stroke-linejoin:round;">
<g transform="rotate(-90.000000 172.0995 33.2548)">
<text x="172.0995" y="33.7731" transform="scale(-1 1) translate(-344.198918 0)" textLength="2.3324" font-size="1.3821" lengthAdjust="spacingAndGlyphs" text-anchor="middle" opacity="0.01" style="font-family:monospace">U5</text>
</g>
<g class="stroked-text"><desc>U5</desc>
<path d="M172.6646 32.4650 L171.8254 32.4650 "/>
<path d="M171.8254 32.4650 L171.7267 32.5144 "/>
<path d="M171.7267 32.5144 L171.6774 32.5638 "/>
<path d="M171.6774 32.5638 L171.6280 32.6625 "/>
<path d="M171.6280 32.6625 L171.6280 32.8599 "/>
<path d="M171.6280 32.8599 L171.6774 32.9587 "/>
<path d="M171.6774 32.9587 L171.7267 33.0080 "/>
<path d="M171.7267 33.0080 L171.8254 33.0574 "/>
<path d="M171.8254 33.0574 L172.6646 33.0574 "/>
<path d="M172.6646 34.0446 L172.6646 33.5510 "/>
<path d="M172.6646 33.5510 L172.1710 33.5017 "/>
<path d="M172.1710 33.5017 L172.2203 33.5510 "/>
<path d="M172.2203 33.5510 L172.2697 33.6497 "/>
<path d="M172.2697 33.6497 L172.2697 33.8966 "/>
<path d="M172.2697 33.8966 L172.2203 33.9953 "/>
<path d="M172.2203 33.9953 L172.1710 34.0446 "/>
<path d="M172.1710 34.0446 L172.0723 34.0940 "/>
<path d="M172.0723 34.0940 L171.8254 34.0940 "/>
<path d="M171.8254 34.0940 L171.7267 34.0446 "/>
<path d="M171.7267 34.0446 L171.6774 33.9953 "/>
<path d="M171.6774 33.9953 L171.6280 33.8966 "/>
<path d="M171.6280 33.8966 L171.6280 33.6497 "/>
<path d="M171.6280 33.6497 L171.6774 33.5510 "/>
<path d="M171.6774 33.5510 L171.7267 33.5017 "/>
</g></g>
<g style="fill:#000084; fill-opacity:0.01;  stroke:#000084; stroke-width:0.3110; stroke-opacity:1;  stroke-linecap:round; stroke-linejoin:round;">
<text x="156.4000" y="190.6895" transform="scale(-1 1) translate(-312.800091 0)" textLength="43.1673" font-size="2.7643" lengthAdjust="spacingAndGlyphs" text-anchor="middle" opacity="0.01" style="font-family:monospace">MCC-SD (kouka z modulu)</text>
<g class="stroked-text"><desc>MCC-SD (kouka z modulu)</desc>
<path d="M135.5692 190.5959 L135.5692 188.5227 "/>
<path d="M135.5692 188.5227 L136.2603 190.0035 "/>
<path d="M136.2603 190.0035 L136.9513 188.5227 "/>
<path d="M136.9513 188.5227 L136.9513 190.5959 "/>
<path d="M139.1233 190.3984 L139.0245 190.4971 "/>
<path d="M139.0245 190.4971 L138.7284 190.5959 "/>
<path d="M138.7284 190.5959 L138.5309 190.5959 "/>
<path d="M138.5309 190.5959 L138.2347 190.4971 "/>
<path d="M138.2347 190.4971 L138.0373 190.2997 "/>
<path d="M138.0373 190.2997 L137.9386 190.1022 "/>
<path d="M137.9386 190.1022 L137.8398 189.7073 "/>
<path d="M137.8398 189.7073 L137.8398 189.4112 "/>
<path d="M137.8398 189.4112 L137.9386 189.0163 "/>
<path d="M137.9386 189.0163 L138.0373 188.8188 "/>
<path d="M138.0373 188.8188 L138.2347 188.6214 "/>
<path d="M138.2347 188.6214 L138.5309 188.5227 "/>
<path d="M138.5309 188.5227 L138.7284 188.5227 "/>
<path d="M138.7284 188.5227 L139.0245 188.6214 "/>
<path d="M139.0245 188.6214 L139.1233 188.7201 "/>
<path d="M141.1965 190.3984 L141.0977 190.4971 "/>
<path d="M141.0977 190.4971 L140.8016 190.5959 "/>
<path d="M140.8016 190.5959 L140.6041 190.5959 "/>
<path d="M140.6041 190.5959 L140.3080 190.4971 "/>
<path d="M140.3080 190.4971 L140.1105 190.2997 "/>
<path d="M140.1105 190.2997 L140.0118 190.1022 "/>
<path d="M140.0118 190.1022 L139.9131 189.7073 "/>
<path d="M139.9131 189.7073 L139.9131 189.4112 "/>
<path d="M139.9131 189.4112 L140.0118 189.0163 "/>
<path d="M140.0118 189.0163 L140.1105 188.8188 "/>
<path d="M140.1105 188.8188 L140.3080 188.6214 "/>
<path d="M140.3080 188.6214 L140.6041 188.5227 "/>
<path d="M140.6041 188.5227 L140.8016 188.5227 "/>
<path d="M140.8016 188.5227 L141.0977 188.6214 "/>
<path d="M141.0977 188.6214 L141.1965 188.7201 "/>
<path d="M142.0850 189.8061 L143.6646 189.8061 "/>
<path d="M144.5531 190.4971 L144.8493 190.5959 "/>
<path d="M144.8493 190.5959 L145.3429 190.5959 "/>
<path d="M145.3429 190.5959 L145.5404 190.4971 "/>
<path d="M145.5404 190.4971 L145.6391 190.3984 "/>
<path d="M145.6391 190.3984 L145.7378 190.2010 "/>
<path d="M145.7378 190.2010 L145.7378 190.0035 "/>
<path d="M145.7378 190.0035 L145.6391 189.8061 "/>
<path d="M145.6391 189.8061 L145.5404 189.7073 "/>
<path d="M145.5404 189.7073 L145.3429 189.6086 "/>
<path d="M145.3429 189.6086 L144.9480 189.5099 "/>
<path d="M144.9480 189.5099 L144.7506 189.4112 "/>
<path d="M144.7506 189.4112 L144.6518 189.3124 "/>
<path d="M144.6518 189.3124 L144.5531 189.1150 "/>
<path d="M144.5531 189.1150 L144.5531 188.9176 "/>
<path d="M144.5531 188.9176 L144.6518 188.7201 "/>
<path d="M144.6518 188.7201 L144.7506 188.6214 "/>
<path d="M144.7506 188.6214 L144.9480 188.5227 "/>
<path d="M144.9480 188.5227 L145.4416 188.5227 "/>
<path d="M145.4416 188.5227 L145.7378 188.6214 "/>
<path d="M146.6263 190.5959 L146.6263 188.5227 "/>
<path d="M146.6263 188.5227 L147.1199 188.5227 "/>
<path d="M147.1199 188.5227 L147.4161 188.6214 "/>
<path d="M147.4161 188.6214 L147.6136 188.8188 "/>
<path d="M147.6136 188.8188 L147.7123 189.0163 "/>
<path d="M147.7123 189.0163 L147.8110 189.4112 "/>
<path d="M147.8110 189.4112 L147.8110 189.7073 "/>
<path d="M147.8110 189.7073 L147.7123 190.1022 "/>
<path d="M147.7123 190.1022 L147.6136 190.2997 "/>
<path d="M147.6136 190.2997 L147.4161 190.4971 "/>
<path d="M147.4161 190.4971 L147.1199 190.5959 "/>
<path d="M147.1199 190.5959 L146.6263 190.5959 "/>
<path d="M150.8715 191.3857 L150.7727 191.2869 "/>
<path d="M150.7727 191.2869 L150.5753 190.9908 "/>
<path d="M150.5753 190.9908 L150.4766 190.7933 "/>
<path d="M150.4766 190.7933 L150.3779 190.4971 "/>
<path d="M150.3779 190.4971 L150.2791 190.0035 "/>
<path d="M150.2791 190.0035 L150.2791 189.6086 "/>
<path d="M150.2791 189.6086 L150.3779 189.1150 "/>
<path d="M150.3779 189.1150 L150.4766 188.8188 "/>
<path d="M150.4766 188.8188 L150.5753 188.6214 "/>
<path d="M150.5753 188.6214 L150.7727 188.3252 "/>
<path d="M150.7727 188.3252 L150.8715 188.2265 "/>
<path d="M151.6613 190.5959 L151.6613 188.5227 "/>
<path d="M151.8587 189.8061 L152.4511 190.5959 "/>
<path d="M152.4511 189.2137 L151.6613 190.0035 "/>
<path d="M153.6358 190.5959 L153.4383 190.4971 "/>
<path d="M153.4383 190.4971 L153.3396 190.3984 "/>
<path d="M153.3396 190.3984 L153.2409 190.2010 "/>
<path d="M153.2409 190.2010 L153.2409 189.6086 "/>
<path d="M153.2409 189.6086 L153.3396 189.4112 "/>
<path d="M153.3396 189.4112 L153.4383 189.3124 "/>
<path d="M153.4383 189.3124 L153.6358 189.2137 "/>
<path d="M153.6358 189.2137 L153.9319 189.2137 "/>
<path d="M153.9319 189.2137 L154.1294 189.3124 "/>
<path d="M154.1294 189.3124 L154.2281 189.4112 "/>
<path d="M154.2281 189.4112 L154.3268 189.6086 "/>
<path d="M154.3268 189.6086 L154.3268 190.2010 "/>
<path d="M154.3268 190.2010 L154.2281 190.3984 "/>
<path d="M154.2281 190.3984 L154.1294 190.4971 "/>
<path d="M154.1294 190.4971 L153.9319 190.5959 "/>
<path d="M153.9319 190.5959 L153.6358 190.5959 "/>
<path d="M156.1039 189.2137 L156.1039 190.5959 "/>
<path d="M155.2154 189.2137 L155.2154 190.2997 "/>
<path d="M155.2154 190.2997 L155.3141 190.4971 "/>
<path d="M155.3141 190.4971 L155.5115 190.5959 "/>
<path d="M155.5115 190.5959 L155.8077 190.5959 "/>
<path d="M155.8077 190.5959 L156.0051 190.4971 "/>
<path d="M156.0051 190.4971 L156.1039 190.3984 "/>
<path d="M157.0911 190.5959 L157.0911 188.5227 "/>
<path d="M157.2886 189.8061 L157.8809 190.5959 "/>
<path d="M157.8809 189.2137 L157.0911 190.0035 "/>
<path d="M159.6580 190.5959 L159.6580 189.5099 "/>
<path d="M159.6580 189.5099 L159.5592 189.3124 "/>
<path d="M159.5592 189.3124 L159.3618 189.2137 "/>
<path d="M159.3618 189.2137 L158.9669 189.2137 "/>
<path d="M158.9669 189.2137 L158.7694 189.3124 "/>
<path d="M159.6580 190.4971 L159.4605 190.5959 "/>
<path d="M159.4605 190.5959 L158.9669 190.5959 "/>
<path d="M158.9669 190.5959 L158.7694 190.4971 "/>
<path d="M158.7694 190.4971 L158.6707 190.2997 "/>
<path d="M158.6707 190.2997 L158.6707 190.1022 "/>
<path d="M158.6707 190.1022 L158.7694 189.9048 "/>
<path d="M158.7694 189.9048 L158.9669 189.8061 "/>
<path d="M158.9669 189.8061 L159.4605 189.8061 "/>
<path d="M159.4605 189.8061 L159.6580 189.7073 "/>
<path d="M162.0273 189.2137 L163.1133 189.2137 "/>
<path d="M163.1133 189.2137 L162.0273 190.5959 "/>
<path d="M162.0273 190.5959 L163.1133 190.5959 "/>
<path d="M165.4827 190.5959 L165.4827 189.2137 "/>
<path d="M165.4827 189.4112 L165.5814 189.3124 "/>
<path d="M165.5814 189.3124 L165.7789 189.2137 "/>
<path d="M165.7789 189.2137 L166.0750 189.2137 "/>
<path d="M166.0750 189.2137 L166.2725 189.3124 "/>
<path d="M166.2725 189.3124 L166.3712 189.5099 "/>
<path d="M166.3712 189.5099 L166.3712 190.5959 "/>
<path d="M166.3712 189.5099 L166.4699 189.3124 "/>
<path d="M166.4699 189.3124 L166.6674 189.2137 "/>
<path d="M166.6674 189.2137 L166.9636 189.2137 "/>
<path d="M166.9636 189.2137 L167.1610 189.3124 "/>
<path d="M167.1610 189.3124 L167.2597 189.5099 "/>
<path d="M167.2597 189.5099 L167.2597 190.5959 "/>
<path d="M168.5432 190.5959 L168.3457 190.4971 "/>
<path d="M168.3457 190.4971 L168.2470 190.3984 "/>
<path d="M168.2470 190.3984 L168.1483 190.2010 "/>
<path d="M168.1483 190.2010 L168.1483 189.6086 "/>
<path d="M168.1483 189.6086 L168.2470 189.4112 "/>
<path d="M168.2470 189.4112 L168.3457 189.3124 "/>
<path d="M168.3457 189.3124 L168.5432 189.2137 "/>
<path d="M168.5432 189.2137 L168.8393 189.2137 "/>
<path d="M168.8393 189.2137 L169.0368 189.3124 "/>
<path d="M169.0368 189.3124 L169.1355 189.4112 "/>
<path d="M169.1355 189.4112 L169.2342 189.6086 "/>
<path d="M169.2342 189.6086 L169.2342 190.2010 "/>
<path d="M169.2342 190.2010 L169.1355 190.3984 "/>
<path d="M169.1355 190.3984 L169.0368 190.4971 "/>
<path d="M169.0368 190.4971 L168.8393 190.5959 "/>
<path d="M168.8393 190.5959 L168.5432 190.5959 "/>
<path d="M171.0113 190.5959 L171.0113 188.5227 "/>
<path d="M171.0113 190.4971 L170.8138 190.5959 "/>
<path d="M170.8138 190.5959 L170.4189 190.5959 "/>
<path d="M170.4189 190.5959 L170.2215 190.4971 "/>
<path d="M170.2215 190.4971 L170.1228 190.3984 "/>
<path d="M170.1228 190.3984 L170.0240 190.2010 "/>
<path d="M170.0240 190.2010 L170.0240 189.6086 "/>
<path d="M170.0240 189.6086 L170.1228 189.4112 "/>
<path d="M170.1228 189.4112 L170.2215 189.3124 "/>
<path d="M170.2215 189.3124 L170.4189 189.2137 "/>
<path d="M170.4189 189.2137 L170.8138 189.2137 "/>
<path d="M170.8138 189.2137 L171.0113 189.3124 "/>
<path d="M172.8870 189.2137 L172.8870 190.5959 "/>
<path d="M171.9985 189.2137 L171.9985 190.2997 "/>
<path d="M171.9985 190.2997 L172.0972 190.4971 "/>
<path d="M172.0972 190.4971 L172.2947 190.5959 "/>
<path d="M172.2947 190.5959 L172.5909 190.5959 "/>
<path d="M172.5909 190.5959 L172.7883 190.4971 "/>
<path d="M172.7883 190.4971 L172.8870 190.3984 "/>
<path d="M174.1705 190.5959 L173.9730 190.4971 "/>
<path d="M173.9730 190.4971 L173.8743 190.2997 "/>
<path d="M173.8743 190.2997 L173.8743 188.5227 "/>
<path d="M175.8488 189.2137 L175.8488 190.5959 "/>
<path d="M174.9603 189.2137 L174.9603 190.2997 "/>
<path d="M174.9603 190.2997 L175.0590 190.4971 "/>
<path d="M175.0590 190.4971 L175.2564 190.5959 "/>
<path d="M175.2564 190.5959 L175.5526 190.5959 "/>
<path d="M175.5526 190.5959 L175.7500 190.4971 "/>
<path d="M175.7500 190.4971 L175.8488 190.3984 "/>
<path d="M176.6386 191.3857 L176.7373 191.2869 "/>
<path d="M176.7373 191.2869 L176.9347 190.9908 "/>
<path d="M176.9347 190.9908 L177.0335 190.7933 "/>
<path d="M177.0335 190.7933 L177.1322 190.4971 "/>
<path d="M177.1322 190.4971 L177.2309 190.0035 "/>
<path d="M177.2309 190.0035 L177.2309 189.6086 "/>
<path d="M177.2309 189.6086 L177.1322 189.1150 "/>
<path d="M177.1322 189.1150 L177.0335 188.8188 "/>
<path d="M177.0335 188.8188 L176.9347 188.6214 "/>
<path d="M176.9347 188.6214 L176.7373 188.3252 "/>
<path d="M176.7373 188.3252 L176.6386 188.2265 "/>
</g><text x="156.4000" y="186.5431" transform="scale(-1 1) translate(-312.800091 0)" textLength="6.0469" font-size="2.7643" lengthAdjust="spacingAndGlyphs" text-anchor="middle" opacity="0.01" style="font-family:monospace">J34</text>
<g class="stroked-text"><desc>J34</desc>
<path d="M154.7217 184.3762 L154.7217 185.8571 "/>
<path d="M154.7217 185.8571 L154.6230 186.1533 "/>
<path d="M154.6230 186.1533 L154.4256 186.3507 "/>
<path d="M154.4256 186.3507 L154.1294 186.4494 "/>
<path d="M154.1294 186.4494 L153.9319 186.4494 "/>
<path d="M155.5115 184.3762 L156.7949 184.3762 "/>
<path d="M156.7949 184.3762 L156.1039 185.1660 "/>
<path d="M156.1039 185.1660 L156.4000 185.1660 "/>
<path d="M156.4000 185.1660 L156.5975 185.2647 "/>
<path d="M156.5975 185.2647 L156.6962 185.3635 "/>
<path d="M156.6962 185.3635 L156.7949 185.5609 "/>
<path d="M156.7949 185.5609 L156.7949 186.0545 "/>
<path d="M156.7949 186.0545 L156.6962 186.2520 "/>
<path d="M156.6962 186.2520 L156.5975 186.3507 "/>
<path d="M156.5975 186.3507 L156.4000 186.4494 "/>
<path d="M156.4000 186.4494 L155.8077 186.4494 "/>
<path d="M155.8077 186.4494 L155.6103 186.3507 "/>
<path d="M155.6103 186.3507 L155.5115 186.2520 "/>
<path d="M158.5720 185.0673 L158.5720 186.4494 "/>
<path d="M158.0784 184.2775 L157.5847 185.7584 "/>
<path d="M157.5847 185.7584 L158.8682 185.7584 "/>
</g></g>
<g style="fill:#000084; fill-opacity:0.01;  stroke:#000084; stroke-width:0.1659; stroke-opacity:1;  stroke-linecap:round; stroke-linejoin:round;">
<g transform="rotate(-90.000000 107.6899 79.3320)">
<text x="107.6899" y="79.8503" transform="scale(-1 1) translate(-215.379761 0)" textLength="3.3013" font-size="1.3821" lengthAdjust="spacingAndGlyphs" text-anchor="middle" opacity="0.01" style="font-family:monospace">C22</text>
</g>
<g class="stroked-text"><desc>C22</desc>
<path d="M107.3177 78.6656 L107.2683 78.6163 "/>
<path d="M107.2683 78.6163 L107.2190 78.4682 "/>
<path d="M107.2190 78.4682 L107.2190 78.3695 "/>
<path d="M107.2190 78.3695 L107.2683 78.2214 "/>
<path d="M107.2683 78.2214 L107.3670 78.1227 "/>
<path d="M107.3670 78.1227 L107.4658 78.0733 "/>
<path d="M107.4658 78.0733 L107.6632 78.0239 "/>
<path d="M107.6632 78.0239 L107.8113 78.0239 "/>
<path d="M107.8113 78.0239 L108.0087 78.0733 "/>
<path d="M108.0087 78.0733 L108.1075 78.1227 "/>
<path d="M108.1075 78.1227 L108.2062 78.2214 "/>
<path d="M108.2062 78.2214 L108.2556 78.3695 "/>
<path d="M108.2556 78.3695 L108.2556 78.4682 "/>
<path d="M108.2556 78.4682 L108.2062 78.6163 "/>
<path d="M108.2062 78.6163 L108.1568 78.6656 "/>
<path d="M108.1568 79.0605 L108.2062 79.1099 "/>
<path d="M108.2062 79.1099 L108.2556 79.2086 "/>
<path d="M108.2556 79.2086 L108.2556 79.4554 "/>
<path d="M108.2556 79.4554 L108.2062 79.5542 "/>
<path d="M108.2062 79.5542 L108.1568 79.6035 "/>
<path d="M108.1568 79.6035 L108.0581 79.6529 "/>
<path d="M108.0581 79.6529 L107.9594 79.6529 "/>
<path d="M107.9594 79.6529 L107.8113 79.6035 "/>
<path d="M107.8113 79.6035 L107.2190 79.0112 "/>
<path d="M107.2190 79.0112 L107.2190 79.6529 "/>
<path d="M108.1568 80.0478 L108.2062 80.0971 "/>
<path d="M108.2062 80.0971 L108.2556 80.1959 "/>
<path d="M108.2556 80.1959 L108.2556 80.4427 "/>
<path d="M108.2556 80.4427 L108.2062 80.5414 "/>
<path d="M108.2062 80.5414 L108.1568 80.5908 "/>
<path d="M108.1568 80.5908 L108.0581 80.6401 "/>
<path d="M108.0581 80.6401 L107.9594 80.6401 "/>
<path d="M107.9594 80.6401 L107.8113 80.5908 "/>
<path d="M107.8113 80.5908 L107.2190 79.9984 "/>
<path d="M107.2190 79.9984 L107.2190 80.6401 "/>
</g><g transform="rotate(-90.000000 95.8415 85.2562)">
<text x="95.8415" y="85.7745" transform="scale(-1 1) translate(-191.682924 0)" textLength="3.3013" font-size="1.3821" lengthAdjust="spacingAndGlyphs" text-anchor="middle" opacity="0.01" style="font-family:monospace">R11</text>
</g>
<g class="stroked-text"><desc>R11</desc>
<path d="M95.3705 84.5898 L95.8642 84.2443 "/>
<path d="M95.3705 83.9975 L96.4071 83.9975 "/>
<path d="M96.4071 83.9975 L96.4071 84.3924 "/>
<path d="M96.4071 84.3924 L96.3578 84.4911 "/>
<path d="M96.3578 84.4911 L96.3084 84.5405 "/>
<path d="M96.3084 84.5405 L96.2097 84.5898 "/>
<path d="M96.2097 84.5898 L96.0616 84.5898 "/>
<path d="M96.0616 84.5898 L95.9629 84.5405 "/>
<path d="M95.9629 84.5405 L95.9135 84.4911 "/>
<path d="M95.9135 84.4911 L95.8642 84.3924 "/>
<path d="M95.8642 84.3924 L95.8642 83.9975 "/>
<path d="M95.3705 85.5771 L95.3705 84.9847 "/>
<path d="M95.3705 85.2809 L96.4071 85.2809 "/>
<path d="M96.4071 85.2809 L96.2591 85.1822 "/>
<path d="M96.2591 85.1822 L96.1603 85.0835 "/>
<path d="M96.1603 85.0835 L96.1110 84.9847 "/>
<path d="M95.3705 86.5643 L95.3705 85.9720 "/>
<path d="M95.3705 86.2682 L96.4071 86.2682 "/>
<path d="M96.4071 86.2682 L96.2591 86.1694 "/>
<path d="M96.2591 86.1694 L96.1603 86.0707 "/>
<path d="M96.1603 86.0707 L96.1110 85.9720 "/>
</g><g transform="rotate(-90.000000 91.8920 85.2562)">
<text x="91.8920" y="85.7745" transform="scale(-1 1) translate(-183.783979 0)" textLength="3.3013" font-size="1.3821" lengthAdjust="spacingAndGlyphs" text-anchor="middle" opacity="0.01" style="font-family:monospace">R12</text>
</g>
<g class="stroked-text"><desc>R12</desc>
<path d="M91.4211 84.5898 L91.9147 84.2443 "/>
<path d="M91.4211 83.9975 L92.4577 83.9975 "/>
<path d="M92.4577 83.9975 L92.4577 84.3924 "/>
<path d="M92.4577 84.3924 L92.4083 84.4911 "/>
<path d="M92.4083 84.4911 L92.3589 84.5405 "/>
<path d="M92.3589 84.5405 L92.2602 84.5898 "/>
<path d="M92.2602 84.5898 L92.1121 84.5898 "/>
<path d="M92.1121 84.5898 L92.0134 84.5405 "/>
<path d="M92.0134 84.5405 L91.9640 84.4911 "/>
<path d="M91.9640 84.4911 L91.9147 84.3924 "/>
<path d="M91.9147 84.3924 L91.9147 83.9975 "/>
<path d="M91.4211 85.5771 L91.4211 84.9847 "/>
<path d="M91.4211 85.2809 L92.4577 85.2809 "/>
<path d="M92.4577 85.2809 L92.3096 85.1822 "/>
<path d="M92.3096 85.1822 L92.2109 85.0835 "/>
<path d="M92.2109 85.0835 L92.1615 84.9847 "/>
<path d="M92.3589 85.9720 L92.4083 86.0213 "/>
<path d="M92.4083 86.0213 L92.4577 86.1201 "/>
<path d="M92.4577 86.1201 L92.4577 86.3669 "/>
<path d="M92.4577 86.3669 L92.4083 86.4656 "/>
<path d="M92.4083 86.4656 L92.3589 86.5150 "/>
<path d="M92.3589 86.5150 L92.2602 86.5643 "/>
<path d="M92.2602 86.5643 L92.1615 86.5643 "/>
<path d="M92.1615 86.5643 L92.0134 86.5150 "/>
<path d="M92.0134 86.5150 L91.4211 85.9226 "/>
<path d="M91.4211 85.9226 L91.4211 86.5643 "/>
</g><g transform="rotate(-90.000000 102.4239 80.6485)">
<text x="102.4239" y="81.1668" transform="scale(-1 1) translate(-204.847834 0)" textLength="3.3013" font-size="1.3821" lengthAdjust="spacingAndGlyphs" text-anchor="middle" opacity="0.01" style="font-family:monospace">R15</text>
</g>
<g class="stroked-text"><desc>R15</desc>
<path d="M101.9530 79.9821 L102.4466 79.6366 "/>
<path d="M101.9530 79.3898 L102.9896 79.3898 "/>
<path d="M102.9896 79.3898 L102.9896 79.7847 "/>
<path d="M102.9896 79.7847 L102.9402 79.8834 "/>
<path d="M102.9402 79.8834 L102.8909 79.9328 "/>
<path d="M102.8909 79.9328 L102.7921 79.9821 "/>
<path d="M102.7921 79.9821 L102.6441 79.9821 "/>
<path d="M102.6441 79.9821 L102.5453 79.9328 "/>
<path d="M102.5453 79.9328 L102.4960 79.8834 "/>
<path d="M102.4960 79.8834 L102.4466 79.7847 "/>
<path d="M102.4466 79.7847 L102.4466 79.3898 "/>
<path d="M101.9530 80.9694 L101.9530 80.3770 "/>
<path d="M101.9530 80.6732 L102.9896 80.6732 "/>
<path d="M102.9896 80.6732 L102.8415 80.5745 "/>
<path d="M102.8415 80.5745 L102.7428 80.4757 "/>
<path d="M102.7428 80.4757 L102.6934 80.3770 "/>
<path d="M102.9896 81.9073 L102.9896 81.4136 "/>
<path d="M102.9896 81.4136 L102.4960 81.3643 "/>
<path d="M102.4960 81.3643 L102.5453 81.4136 "/>
<path d="M102.5453 81.4136 L102.5947 81.5124 "/>
<path d="M102.5947 81.5124 L102.5947 81.7592 "/>
<path d="M102.5947 81.7592 L102.5453 81.8579 "/>
<path d="M102.5453 81.8579 L102.4960 81.9073 "/>
<path d="M102.4960 81.9073 L102.3972 81.9566 "/>
<path d="M102.3972 81.9566 L102.1504 81.9566 "/>
<path d="M102.1504 81.9566 L102.0517 81.9073 "/>
<path d="M102.0517 81.9073 L102.0023 81.8579 "/>
<path d="M102.0023 81.8579 L101.9530 81.7592 "/>
<path d="M101.9530 81.7592 L101.9530 81.5124 "/>
<path d="M101.9530 81.5124 L102.0023 81.4136 "/>
<path d="M102.0023 81.4136 L102.0517 81.3643 "/>
</g><text x="103.0822" y="87.0910" transform="scale(-1 1) translate(-206.164325 0)" textLength="3.3013" font-size="1.3821" lengthAdjust="spacingAndGlyphs" text-anchor="middle" opacity="0.01" style="font-family:monospace">R16</text>
<g class="stroked-text"><desc>R16</desc>
<path d="M102.4158 87.0437 L102.0702 86.5500 "/>
<path d="M101.8234 87.0437 L101.8234 86.0070 "/>
<path d="M101.8234 86.0070 L102.2183 86.0070 "/>
<path d="M102.2183 86.0070 L102.3170 86.0564 "/>
<path d="M102.3170 86.0564 L102.3664 86.1058 "/>
<path d="M102.3664 86.1058 L102.4158 86.2045 "/>
<path d="M102.4158 86.2045 L102.4158 86.3526 "/>
<path d="M102.4158 86.3526 L102.3664 86.4513 "/>
<path d="M102.3664 86.4513 L102.3170 86.5007 "/>
<path d="M102.3170 86.5007 L102.2183 86.5500 "/>
<path d="M102.2183 86.5500 L101.8234 86.5500 "/>
<path d="M103.4030 87.0437 L102.8107 87.0437 "/>
<path d="M103.1068 87.0437 L103.1068 86.0070 "/>
<path d="M103.1068 86.0070 L103.0081 86.1551 "/>
<path d="M103.0081 86.1551 L102.9094 86.2539 "/>
<path d="M102.9094 86.2539 L102.8107 86.3032 "/>
<path d="M104.2915 86.0070 L104.0941 86.0070 "/>
<path d="M104.0941 86.0070 L103.9954 86.0564 "/>
<path d="M103.9954 86.0564 L103.9460 86.1058 "/>
<path d="M103.9460 86.1058 L103.8473 86.2539 "/>
<path d="M103.8473 86.2539 L103.7979 86.4513 "/>
<path d="M103.7979 86.4513 L103.7979 86.8462 "/>
<path d="M103.7979 86.8462 L103.8473 86.9449 "/>
<path d="M103.8473 86.9449 L103.8966 86.9943 "/>
<path d="M103.8966 86.9943 L103.9954 87.0437 "/>
<path d="M103.9954 87.0437 L104.1928 87.0437 "/>
<path d="M104.1928 87.0437 L104.2915 86.9943 "/>
<path d="M104.2915 86.9943 L104.3409 86.9449 "/>
<path d="M104.3409 86.9449 L104.3903 86.8462 "/>
<path d="M104.3903 86.8462 L104.3903 86.5994 "/>
<path d="M104.3903 86.5994 L104.3409 86.5007 "/>
<path d="M104.3409 86.5007 L104.2915 86.4513 "/>
<path d="M104.2915 86.4513 L104.1928 86.4019 "/>
<path d="M104.1928 86.4019 L103.9954 86.4019 "/>
<path d="M103.9954 86.4019 L103.8966 86.4513 "/>
<path d="M103.8966 86.4513 L103.8473 86.5007 "/>
<path d="M103.8473 86.5007 L103.7979 86.5994 "/>
</g></g>
<g style="fill:#000084; fill-opacity:0.01;  stroke:#000084; stroke-width:0.3110; stroke-opacity:1;  stroke-linecap:round; stroke-linejoin:round;">
<text x="98.4744" y="102.7645" transform="scale(-1 1) translate(-196.948888 0)" textLength="26.8777" font-size="2.7643" lengthAdjust="spacingAndGlyphs" text-anchor="middle" opacity="0.01" style="font-family:monospace">AT24CS64-SSHM</text>
<g class="stroked-text"><desc>AT24CS64-SSHM</desc>
<path d="M85.6896 102.0785 L86.6769 102.0785 "/>
<path d="M85.4922 102.6709 L86.1832 100.5976 "/>
<path d="M86.1832 100.5976 L86.8743 102.6709 "/>
<path d="M87.2692 100.5976 L88.4539 100.5976 "/>
<path d="M87.8616 102.6709 L87.8616 100.5976 "/>
<path d="M89.0463 100.7951 L89.1450 100.6964 "/>
<path d="M89.1450 100.6964 L89.3424 100.5976 "/>
<path d="M89.3424 100.5976 L89.8361 100.5976 "/>
<path d="M89.8361 100.5976 L90.0335 100.6964 "/>
<path d="M90.0335 100.6964 L90.1322 100.7951 "/>
<path d="M90.1322 100.7951 L90.2310 100.9925 "/>
<path d="M90.2310 100.9925 L90.2310 101.1900 "/>
<path d="M90.2310 101.1900 L90.1322 101.4862 "/>
<path d="M90.1322 101.4862 L88.9475 102.6709 "/>
<path d="M88.9475 102.6709 L90.2310 102.6709 "/>
<path d="M92.0080 101.2887 L92.0080 102.6709 "/>
<path d="M91.5144 100.4989 L91.0207 101.9798 "/>
<path d="M91.0207 101.9798 L92.3042 101.9798 "/>
<path d="M94.2787 102.4734 L94.1799 102.5721 "/>
<path d="M94.1799 102.5721 L93.8838 102.6709 "/>
<path d="M93.8838 102.6709 L93.6863 102.6709 "/>
<path d="M93.6863 102.6709 L93.3901 102.5721 "/>
<path d="M93.3901 102.5721 L93.1927 102.3747 "/>
<path d="M93.1927 102.3747 L93.0940 102.1772 "/>
<path d="M93.0940 102.1772 L92.9952 101.7823 "/>
<path d="M92.9952 101.7823 L92.9952 101.4862 "/>
<path d="M92.9952 101.4862 L93.0940 101.0913 "/>
<path d="M93.0940 101.0913 L93.1927 100.8938 "/>
<path d="M93.1927 100.8938 L93.3901 100.6964 "/>
<path d="M93.3901 100.6964 L93.6863 100.5976 "/>
<path d="M93.6863 100.5976 L93.8838 100.5976 "/>
<path d="M93.8838 100.5976 L94.1799 100.6964 "/>
<path d="M94.1799 100.6964 L94.2787 100.7951 "/>
<path d="M95.0685 102.5721 L95.3646 102.6709 "/>
<path d="M95.3646 102.6709 L95.8582 102.6709 "/>
<path d="M95.8582 102.6709 L96.0557 102.5721 "/>
<path d="M96.0557 102.5721 L96.1544 102.4734 "/>
<path d="M96.1544 102.4734 L96.2531 102.2760 "/>
<path d="M96.2531 102.2760 L96.2531 102.0785 "/>
<path d="M96.2531 102.0785 L96.1544 101.8811 "/>
<path d="M96.1544 101.8811 L96.0557 101.7823 "/>
<path d="M96.0557 101.7823 L95.8582 101.6836 "/>
<path d="M95.8582 101.6836 L95.4633 101.5849 "/>
<path d="M95.4633 101.5849 L95.2659 101.4862 "/>
<path d="M95.2659 101.4862 L95.1672 101.3874 "/>
<path d="M95.1672 101.3874 L95.0685 101.1900 "/>
<path d="M95.0685 101.1900 L95.0685 100.9925 "/>
<path d="M95.0685 100.9925 L95.1672 100.7951 "/>
<path d="M95.1672 100.7951 L95.2659 100.6964 "/>
<path d="M95.2659 100.6964 L95.4633 100.5976 "/>
<path d="M95.4633 100.5976 L95.9570 100.5976 "/>
<path d="M95.9570 100.5976 L96.2531 100.6964 "/>
<path d="M98.0302 100.5976 L97.6353 100.5976 "/>
<path d="M97.6353 100.5976 L97.4378 100.6964 "/>
<path d="M97.4378 100.6964 L97.3391 100.7951 "/>
<path d="M97.3391 100.7951 L97.1417 101.0913 "/>
<path d="M97.1417 101.0913 L97.0429 101.4862 "/>
<path d="M97.0429 101.4862 L97.0429 102.2760 "/>
<path d="M97.0429 102.2760 L97.1417 102.4734 "/>
<path d="M97.1417 102.4734 L97.2404 102.5721 "/>
<path d="M97.2404 102.5721 L97.4378 102.6709 "/>
<path d="M97.4378 102.6709 L97.8327 102.6709 "/>
<path d="M97.8327 102.6709 L98.0302 102.5721 "/>
<path d="M98.0302 102.5721 L98.1289 102.4734 "/>
<path d="M98.1289 102.4734 L98.2276 102.2760 "/>
<path d="M98.2276 102.2760 L98.2276 101.7823 "/>
<path d="M98.2276 101.7823 L98.1289 101.5849 "/>
<path d="M98.1289 101.5849 L98.0302 101.4862 "/>
<path d="M98.0302 101.4862 L97.8327 101.3874 "/>
<path d="M97.8327 101.3874 L97.4378 101.3874 "/>
<path d="M97.4378 101.3874 L97.2404 101.4862 "/>
<path d="M97.2404 101.4862 L97.1417 101.5849 "/>
<path d="M97.1417 101.5849 L97.0429 101.7823 "/>
<path d="M100.0047 101.2887 L100.0047 102.6709 "/>
<path d="M99.5111 100.4989 L99.0174 101.9798 "/>
<path d="M99.0174 101.9798 L100.3008 101.9798 "/>
<path d="M101.0906 101.8811 L102.6702 101.8811 "/>
<path d="M103.5588 102.5721 L103.8549 102.6709 "/>
<path d="M103.8549 102.6709 L104.3486 102.6709 "/>
<path d="M104.3486 102.6709 L104.5460 102.5721 "/>
<path d="M104.5460 102.5721 L104.6447 102.4734 "/>
<path d="M104.6447 102.4734 L104.7434 102.2760 "/>
<path d="M104.7434 102.2760 L104.7434 102.0785 "/>
<path d="M104.7434 102.0785 L104.6447 101.8811 "/>
<path d="M104.6447 101.8811 L104.5460 101.7823 "/>
<path d="M104.5460 101.7823 L104.3486 101.6836 "/>
<path d="M104.3486 101.6836 L103.9537 101.5849 "/>
<path d="M103.9537 101.5849 L103.7562 101.4862 "/>
<path d="M103.7562 101.4862 L103.6575 101.3874 "/>
<path d="M103.6575 101.3874 L103.5588 101.1900 "/>
<path d="M103.5588 101.1900 L103.5588 100.9925 "/>
<path d="M103.5588 100.9925 L103.6575 100.7951 "/>
<path d="M103.6575 100.7951 L103.7562 100.6964 "/>
<path d="M103.7562 100.6964 L103.9537 100.5976 "/>
<path d="M103.9537 100.5976 L104.4473 100.5976 "/>
<path d="M104.4473 100.5976 L104.7434 100.6964 "/>
<path d="M105.5332 102.5721 L105.8294 102.6709 "/>
<path d="M105.8294 102.6709 L106.3230 102.6709 "/>
<path d="M106.3230 102.6709 L106.5205 102.5721 "/>
<path d="M106.5205 102.5721 L106.6192 102.4734 "/>
<path d="M106.6192 102.4734 L106.7179 102.2760 "/>
<path d="M106.7179 102.2760 L106.7179 102.0785 "/>
<path d="M106.7179 102.0785 L106.6192 101.8811 "/>
<path d="M106.6192 101.8811 L106.5205 101.7823 "/>
<path d="M106.5205 101.7823 L106.3230 101.6836 "/>
<path d="M106.3230 101.6836 L105.9281 101.5849 "/>
<path d="M105.9281 101.5849 L105.7307 101.4862 "/>
<path d="M105.7307 101.4862 L105.6320 101.3874 "/>
<path d="M105.6320 101.3874 L105.5332 101.1900 "/>
<path d="M105.5332 101.1900 L105.5332 100.9925 "/>
<path d="M105.5332 100.9925 L105.6320 100.7951 "/>
<path d="M105.6320 100.7951 L105.7307 100.6964 "/>
<path d="M105.7307 100.6964 L105.9281 100.5976 "/>
<path d="M105.9281 100.5976 L106.4218 100.5976 "/>
<path d="M106.4218 100.5976 L106.7179 100.6964 "/>
<path d="M107.6065 102.6709 L107.6065 100.5976 "/>
<path d="M107.6065 101.5849 L108.7912 101.5849 "/>
<path d="M108.7912 102.6709 L108.7912 100.5976 "/>
<path d="M109.7784 102.6709 L109.7784 100.5976 "/>
<path d="M109.7784 100.5976 L110.4695 102.0785 "/>
<path d="M110.4695 102.0785 L111.1605 100.5976 "/>
<path d="M111.1605 100.5976 L111.1605 102.6709 "/>
</g><text x="98.4744" y="95.5083" transform="scale(-1 1) translate(-196.948888 0)" textLength="4.6647" font-size="2.7643" lengthAdjust="spacingAndGlyphs" text-anchor="middle" opacity="0.01" style="font-family:monospace">U6</text>
<g class="stroked-text"><desc>U6</desc>
<path d="M96.8949 93.3414 L96.8949 95.0197 "/>
<path d="M96.8949 95.0197 L96.9936 95.2172 "/>
<path d="M96.9936 95.2172 L97.0923 95.3159 "/>
<path d="M97.0923 95.3159 L97.2898 95.4146 "/>
<path d="M97.2898 95.4146 L97.6846 95.4146 "/>
<path d="M97.6846 95.4146 L97.8821 95.3159 "/>
<path d="M97.8821 95.3159 L97.9808 95.2172 "/>
<path d="M97.9808 95.2172 L98.0795 95.0197 "/>
<path d="M98.0795 95.0197 L98.0795 93.3414 "/>
<path d="M99.9553 93.3414 L99.5604 93.3414 "/>
<path d="M99.5604 93.3414 L99.3630 93.4401 "/>
<path d="M99.3630 93.4401 L99.2642 93.5388 "/>
<path d="M99.2642 93.5388 L99.0668 93.8350 "/>
<path d="M99.0668 93.8350 L98.9681 94.2299 "/>
<path d="M98.9681 94.2299 L98.9681 95.0197 "/>
<path d="M98.9681 95.0197 L99.0668 95.2172 "/>
<path d="M99.0668 95.2172 L99.1655 95.3159 "/>
<path d="M99.1655 95.3159 L99.3630 95.4146 "/>
<path d="M99.3630 95.4146 L99.7579 95.4146 "/>
<path d="M99.7579 95.4146 L99.9553 95.3159 "/>
<path d="M99.9553 95.3159 L100.0540 95.2172 "/>
<path d="M100.0540 95.2172 L100.1528 95.0197 "/>
<path d="M100.1528 95.0197 L100.1528 94.5261 "/>
<path d="M100.1528 94.5261 L100.0540 94.3286 "/>
<path d="M100.0540 94.3286 L99.9553 94.2299 "/>
<path d="M99.9553 94.2299 L99.7579 94.1312 "/>
<path d="M99.7579 94.1312 L99.3630 94.1312 "/>
<path d="M99.3630 94.1312 L99.1655 94.2299 "/>
<path d="M99.1655 94.2299 L99.0668 94.3286 "/>
<path d="M99.0668 94.3286 L98.9681 94.5261 "/>
</g><path d="M105.5337 109.4299 L105.5337 103.2103 "/>
<path d="M99.3141 109.4299 L105.5337 109.4299 "/>
<path d="M99.3141 103.2103 L99.3141 109.4299 "/>
<path d="M105.5337 103.2103 L99.3141 103.2103 "/>
</g>
<g style="fill:#000084; fill-opacity:0.0;  stroke:#000084; stroke-width:0.2073; stroke-opacity:1;  stroke-linecap:round; stroke-linejoin:round;">
<path d="M179.3091 145.1929 L179.3091 133.6658 "/>
<path d="M128.9300 133.6658 L128.9300 185.4961 "/>
<path d="M128.9300 185.4961 L184.0775 185.4961 "/>
<path d="M184.0775 185.4961 L184.0775 149.9612 "/>
<path d="M179.3091 133.6658 L128.9300 133.6658 "/>
<path d="M184.0775 149.9612 L179.3091 145.1929 "/>
<path d="M95.0847 135.8427 L99.2312 135.8427 "/>
<path d="M99.2312 135.8427 L99.2312 138.9525 "/>
<path d="M98.1946 139.9891 L95.0847 139.9891 "/>
<path d="M95.0847 139.9891 L95.0847 135.8427 "/>
<path d="M98.1946 139.9891 L99.2312 138.9525 "/>
</g>
<g style="fill:#000084; fill-opacity:0.0;  stroke:#000084; stroke-width:0.3110; stroke-opacity:1;  stroke-linecap:round; stroke-linejoin:round;">
<path d="M125.9549 50.8616 L105.2228 50.8616 "/>
<path d="M125.9549 30.1295 L125.9549 50.8616 "/>
<path d="M107.2960 30.1295 L125.9549 30.1295 "/>
<path d="M105.2228 50.8616 L105.2228 32.2027 "/>
<path d="M105.2228 32.2027 L107.2960 30.1295 "/>
</g>
<g style="fill:#000084; fill-opacity:0.0;  stroke:#000084; stroke-width:0.2073; stroke-opacity:1;  stroke-linecap:round; stroke-linejoin:round;">
<path d="M157.3693 36.4061 L155.6070 36.4061 "/>
<path d="M155.6070 36.4061 L155.6070 30.1036 "/>
<path d="M158.5095 35.2244 L158.5095 30.1450 "/>
<path d="M158.5095 30.1036 L155.6070 30.1036 "/>
<path d="M158.5095 35.2244 L157.3693 36.4061 "/>
<path d="M170.6482 31.2853 L170.6482 36.3647 "/>
<path d="M170.6482 31.2853 L171.7885 30.1036 "/>
<path d="M170.6482 36.4061 L173.5507 36.4061 "/>
<path d="M173.5507 30.1036 L173.5507 36.4061 "/>
<path d="M171.7885 30.1036 L173.5507 30.1036 "/>
<path d="M184.0775 173.6581 L179.3091 168.8897 "/>
<path d="M128.9300 157.3626 L128.9300 209.1930 "/>
<path d="M184.0775 209.1930 L184.0775 173.6581 "/>
<path d="M179.3091 168.8897 L179.3091 157.3626 "/>
<path d="M179.3091 157.3626 L128.9300 157.3626 "/>
<path d="M128.9300 209.1930 L184.0775 209.1930 "/>
<path d="M106.4460 81.4052 L106.4460 77.2588 "/>
<path d="M108.9338 77.2588 L108.9338 81.4052 "/>
<path d="M108.9338 81.4052 L106.4460 81.4052 "/>
<path d="M106.4460 77.2588 L108.9338 77.2588 "/>
<path d="M94.5975 87.3294 L94.5975 83.1830 "/>
<path d="M97.0854 87.3294 L94.5975 87.3294 "/>
<path d="M97.0854 83.1830 L97.0854 87.3294 "/>
<path d="M94.5975 83.1830 L97.0854 83.1830 "/>
<path d="M93.1359 87.3294 L90.6481 87.3294 "/>
<path d="M93.1359 83.1830 L93.1359 87.3294 "/>
<path d="M90.6481 87.3294 L90.6481 83.1830 "/>
<path d="M90.6481 83.1830 L93.1359 83.1830 "/>
<path d="M103.6678 82.7217 L101.1800 82.7217 "/>
<path d="M101.1800 78.5753 L103.6678 78.5753 "/>
<path d="M101.1800 82.7217 L101.1800 78.5753 "/>
<path d="M103.6678 78.5753 L103.6678 82.7217 "/>
<path d="M101.0089 85.3288 L105.1554 85.3288 "/>
<path d="M101.0089 87.8167 L101.0089 85.3288 "/>
<path d="M105.1554 85.3288 L105.1554 87.8167 "/>
<path d="M105.1554 87.8167 L101.0089 87.8167 "/>
<path d="M102.5172 89.3923 L102.5172 99.5510 "/>
<path d="M102.5172 99.5510 L94.4317 99.5510 "/>
<path d="M96.5049 89.3923 L102.5172 89.3923 "/>
<path d="M94.4317 91.4655 L96.5049 89.3923 "/>
<path d="M94.4317 99.5510 L94.4317 91.4655 "/>
<g>
</g>
<g>
</g>
<g>
</g>
<g>
</g>
<g>
</g>
<g>
</g>
<g>
</g>
<g>
</g>
<g>
</g>
<g>
</g>
<g>
</g>
<g>
</g>
<g>
</g>
<g>
</g>
<g>
</g>
<g>
</g>
<g>
</g>
<g>
</g>
<g>
</g>
<g>
</g>
<g>
</g>
<g>
</g>
<g>
</g>
<g>
</g>
<g>
</g>
<g>
</g>
<g>
</g>
<g>
</g>
<g>
</g>
<g>
</g>
<g>
</g>
<g>
</g>
<g>
</g>
<g>
</g>
<g>
</g>
<g>
</g>
<g>
</g>
<g>
</g>
<g>
</g>
<g>
</g>
<g>
</g>
<g>
</g>
<g>
</g>
<g>
</g>
<g>
</g>
<g>
</g>
<g>
</g>
<g>
</g>
<g>
</g>
<g>
</g>
<g>
</g>
<g>
</g>
<g>
</g>
<g>
</g>
<g>
</g>
<g>
</g>
<g>
</g>
<g>
</g>
<g>
</g>
<g>
</g>
<g>
</g>
<g>
</g>
<g>
</g>
<g>
</g>
<g>
</g>
<g>
</g>
<g>
</g>
<g>
</g>
<g>
</g>
<g>
</g>
<g>
</g>
<g>
</g>
<g>
</g>
<g>
</g>
<g>
</g>
<g>
</g>
<g>
</g>
<g>
</g>
<g>
</g>
<g>
</g>
<g>
</g>
<g>
</g>
<g>
</g>
<g>
</g>
<g>
</g>
<g>
</g>
<g>
</g>
<g>
</g>
<g>
</g>
<g>
</g>
<g>
</g>
<g>
</g>
<g>
</g>
</g> 
<svg:g><svg:g><svg:title>SVG Image created as DATALOGGER01-Edge_Cuts.svg date 2023/09/11 01:09:45 </svg:title>
  <svg:desc>Image generated by PCBNEW </svg:desc>
<svg:g style="fill:#C2C200; fill-opacity:1.0000;stroke:#C2C200; stroke-opacity:1.0000; stroke-linecap:round; stroke-linejoin:round;" transform="translate(0 0) scale(1 1)">
</svg:g>
<svg:g style="fill:#C2C200; fill-opacity:0.0;  stroke:#C2C200; stroke-width:0.0000; stroke-opacity:1;  stroke-linecap:round; stroke-linejoin:round;">
</svg:g>
<svg:g style="fill:#C2C200; fill-opacity:0.0;  stroke:#C2C200; stroke-width:0.4146; stroke-opacity:1;  stroke-linecap:round; stroke-linejoin:round;">
<svg:path d="M64.7723 209.7963 L64.7723 0.2109 "/>
<svg:path d="M232.2299 209.7963 L232.2299 0.2109 "/>
<svg:path d="M232.2299 0.2109 L64.7723 0.2109 "/>
<svg:path d="M232.2299 209.7963 L64.7723 209.7963 "/>
<svg:g>
</svg:g>
<svg:g>
</svg:g>
<svg:g>
</svg:g>
<svg:g>
</svg:g>
<svg:g>
</svg:g>
<svg:g>
</svg:g>
<svg:g>
</svg:g>
<svg:g>
</svg:g>
<svg:g>
</svg:g>
<svg:g>
</svg:g>
<svg:g>
</svg:g>
<svg:g>
</svg:g>
<svg:g>
</svg:g>
<svg:g>
</svg:g>
<svg:g>
</svg:g>
<svg:g>
</svg:g>
<svg:g>
</svg:g>
<svg:g>
</svg:g>
<svg:g>
</svg:g>
<svg:g>
</svg:g>
<svg:g>
</svg:g>
<svg:g>
</svg:g>
<svg:g>
</svg:g>
<svg:g>
</svg:g>
<svg:g>
</svg:g>
<svg:g>
</svg:g>
<svg:g>
</svg:g>
<svg:g>
</svg:g>
<svg:g>
</svg:g>
<svg:g>
</svg:g>
<svg:g>
</svg:g>
<svg:g>
</svg:g>
<svg:g>
</svg:g>
<svg:g>
</svg:g>
<svg:g>
</svg:g>
<svg:g>
</svg:g>
<svg:g>
</svg:g>
<svg:g>
</svg:g>
<svg:g>
</svg:g>
<svg:g>
</svg:g>
<svg:g>
</svg:g>
<svg:g>
</svg:g>
<svg:g>
</svg:g>
<svg:g>
</svg:g>
<svg:g>
</svg:g>
<svg:g>
</svg:g>
<svg:g>
</svg:g>
<svg:g>
</svg:g>
<svg:g>
</svg:g>
<svg:g>
</svg:g>
<svg:g>
</svg:g>
<svg:g>
</svg:g>
<svg:g>
</svg:g>
<svg:g>
</svg:g>
<svg:g>
</svg:g>
<svg:g>
</svg:g>
<svg:g>
</svg:g>
<svg:g>
</svg:g>
<svg:g>
</svg:g>
<svg:g>
</svg:g>
<svg:g>
</svg:g>
<svg:g>
</svg:g>
<svg:g>
</svg:g>
<svg:g>
</svg:g>
<svg:g>
</svg:g>
<svg:g>
</svg:g>
<svg:g>
</svg:g>
<svg:g>
</svg:g>
<svg:g>
</svg:g>
<svg:g>
</svg:g>
<svg:g>
</svg:g>
<svg:g>
</svg:g>
<svg:g>
</svg:g>
<svg:g>
</svg:g>
<svg:g>
</svg:g>
<svg:g>
</svg:g>
<svg:g>
</svg:g>
<svg:g>
</svg:g>
<svg:g>
</svg:g>
<svg:g>
</svg:g>
<svg:g>
</svg:g>
<svg:g>
</svg:g>
<svg:g>
</svg:g>
<svg:g>
</svg:g>
<svg:g>
</svg:g>
<svg:g>
</svg:g>
<svg:g>
</svg:g>
<svg:g>
</svg:g>
<svg:g>
</svg:g>
<svg:g>
</svg:g>
<svg:g>
</svg:g>
<svg:g>
</svg:g>
<svg:g>
</svg:g>
</svg:g> 
</svg:g></svg:g></svg>
