<?xml version='1.0' encoding='ASCII' standalone='yes'?>
<svg xmlns:svg="http://www.w3.org/2000/svg" xmlns="http://www.w3.org/2000/svg" xmlns:xlink="http://www.w3.org/1999/xlink" version="1.1" width="297.0022mm" height="210.0072mm" viewBox="0.0000 0.0000 297.0022 210.0072">
<title>SVG Image created as DATALOGGER01-F_Fab.svg date 2023/07/08 01:47:11 </title>
  <desc>Image generated by PCBNEW </desc>
<g style="fill:#848484; fill-opacity:1.0000;stroke:#848484; stroke-opacity:1.0000; stroke-linecap:round; stroke-linejoin:round;" transform="translate(0 0) scale(1 1)">
</g>
<g style="fill:#848484; fill-opacity:0.0;  stroke:#848484; stroke-width:0.0000; stroke-opacity:1;  stroke-linecap:round; stroke-linejoin:round;">
</g>
<g style="fill:#848484; fill-opacity:0.01;  stroke:#848484; stroke-width:0.3110; stroke-opacity:1;  stroke-linecap:round; stroke-linejoin:round;">
<text x="139.2857" y="64.9491" textLength="12.3085" font-size="2.7643" lengthAdjust="spacingAndGlyphs" text-anchor="middle" opacity="0.01" style="font-family:monospace">BX0037</text>
<g class="stroked-text"><desc>BX0037</desc>
<path d="M134.4975 63.7695 L134.7937 63.8682 "/>
<path d="M134.7937 63.8682 L134.8924 63.9669 "/>
<path d="M134.8924 63.9669 L134.9911 64.1644 "/>
<path d="M134.9911 64.1644 L134.9911 64.4605 "/>
<path d="M134.9911 64.4605 L134.8924 64.6580 "/>
<path d="M134.8924 64.6580 L134.7937 64.7567 "/>
<path d="M134.7937 64.7567 L134.5963 64.8554 "/>
<path d="M134.5963 64.8554 L133.8065 64.8554 "/>
<path d="M133.8065 64.8554 L133.8065 62.7822 "/>
<path d="M133.8065 62.7822 L134.4975 62.7822 "/>
<path d="M134.4975 62.7822 L134.6950 62.8809 "/>
<path d="M134.6950 62.8809 L134.7937 62.9797 "/>
<path d="M134.7937 62.9797 L134.8924 63.1771 "/>
<path d="M134.8924 63.1771 L134.8924 63.3746 "/>
<path d="M134.8924 63.3746 L134.7937 63.5720 "/>
<path d="M134.7937 63.5720 L134.6950 63.6707 "/>
<path d="M134.6950 63.6707 L134.4975 63.7695 "/>
<path d="M134.4975 63.7695 L133.8065 63.7695 "/>
<path d="M135.6822 62.7822 L137.0644 64.8554 "/>
<path d="M137.0644 62.7822 L135.6822 64.8554 "/>
<path d="M138.2491 62.7822 L138.4465 62.7822 "/>
<path d="M138.4465 62.7822 L138.6440 62.8809 "/>
<path d="M138.6440 62.8809 L138.7427 62.9797 "/>
<path d="M138.7427 62.9797 L138.8414 63.1771 "/>
<path d="M138.8414 63.1771 L138.9401 63.5720 "/>
<path d="M138.9401 63.5720 L138.9401 64.0656 "/>
<path d="M138.9401 64.0656 L138.8414 64.4605 "/>
<path d="M138.8414 64.4605 L138.7427 64.6580 "/>
<path d="M138.7427 64.6580 L138.6440 64.7567 "/>
<path d="M138.6440 64.7567 L138.4465 64.8554 "/>
<path d="M138.4465 64.8554 L138.2491 64.8554 "/>
<path d="M138.2491 64.8554 L138.0516 64.7567 "/>
<path d="M138.0516 64.7567 L137.9529 64.6580 "/>
<path d="M137.9529 64.6580 L137.8542 64.4605 "/>
<path d="M137.8542 64.4605 L137.7554 64.0656 "/>
<path d="M137.7554 64.0656 L137.7554 63.5720 "/>
<path d="M137.7554 63.5720 L137.8542 63.1771 "/>
<path d="M137.8542 63.1771 L137.9529 62.9797 "/>
<path d="M137.9529 62.9797 L138.0516 62.8809 "/>
<path d="M138.0516 62.8809 L138.2491 62.7822 "/>
<path d="M140.2235 62.7822 L140.4210 62.7822 "/>
<path d="M140.4210 62.7822 L140.6184 62.8809 "/>
<path d="M140.6184 62.8809 L140.7172 62.9797 "/>
<path d="M140.7172 62.9797 L140.8159 63.1771 "/>
<path d="M140.8159 63.1771 L140.9146 63.5720 "/>
<path d="M140.9146 63.5720 L140.9146 64.0656 "/>
<path d="M140.9146 64.0656 L140.8159 64.4605 "/>
<path d="M140.8159 64.4605 L140.7172 64.6580 "/>
<path d="M140.7172 64.6580 L140.6184 64.7567 "/>
<path d="M140.6184 64.7567 L140.4210 64.8554 "/>
<path d="M140.4210 64.8554 L140.2235 64.8554 "/>
<path d="M140.2235 64.8554 L140.0261 64.7567 "/>
<path d="M140.0261 64.7567 L139.9274 64.6580 "/>
<path d="M139.9274 64.6580 L139.8286 64.4605 "/>
<path d="M139.8286 64.4605 L139.7299 64.0656 "/>
<path d="M139.7299 64.0656 L139.7299 63.5720 "/>
<path d="M139.7299 63.5720 L139.8286 63.1771 "/>
<path d="M139.8286 63.1771 L139.9274 62.9797 "/>
<path d="M139.9274 62.9797 L140.0261 62.8809 "/>
<path d="M140.0261 62.8809 L140.2235 62.7822 "/>
<path d="M141.6057 62.7822 L142.8891 62.7822 "/>
<path d="M142.8891 62.7822 L142.1980 63.5720 "/>
<path d="M142.1980 63.5720 L142.4942 63.5720 "/>
<path d="M142.4942 63.5720 L142.6917 63.6707 "/>
<path d="M142.6917 63.6707 L142.7904 63.7695 "/>
<path d="M142.7904 63.7695 L142.8891 63.9669 "/>
<path d="M142.8891 63.9669 L142.8891 64.4605 "/>
<path d="M142.8891 64.4605 L142.7904 64.6580 "/>
<path d="M142.7904 64.6580 L142.6917 64.7567 "/>
<path d="M142.6917 64.7567 L142.4942 64.8554 "/>
<path d="M142.4942 64.8554 L141.9019 64.8554 "/>
<path d="M141.9019 64.8554 L141.7044 64.7567 "/>
<path d="M141.7044 64.7567 L141.6057 64.6580 "/>
<path d="M143.5802 62.7822 L144.9623 62.7822 "/>
<path d="M144.9623 62.7822 L144.0738 64.8554 "/>
</g><text x="139.2857" y="143.9386" textLength="12.3085" font-size="2.7643" lengthAdjust="spacingAndGlyphs" text-anchor="middle" opacity="0.01" style="font-family:monospace">BX0037</text>
<g class="stroked-text"><desc>BX0037</desc>
<path d="M134.4975 142.7589 L134.7937 142.8576 "/>
<path d="M134.7937 142.8576 L134.8924 142.9564 "/>
<path d="M134.8924 142.9564 L134.9911 143.1538 "/>
<path d="M134.9911 143.1538 L134.9911 143.4500 "/>
<path d="M134.9911 143.4500 L134.8924 143.6474 "/>
<path d="M134.8924 143.6474 L134.7937 143.7462 "/>
<path d="M134.7937 143.7462 L134.5963 143.8449 "/>
<path d="M134.5963 143.8449 L133.8065 143.8449 "/>
<path d="M133.8065 143.8449 L133.8065 141.7717 "/>
<path d="M133.8065 141.7717 L134.4975 141.7717 "/>
<path d="M134.4975 141.7717 L134.6950 141.8704 "/>
<path d="M134.6950 141.8704 L134.7937 141.9691 "/>
<path d="M134.7937 141.9691 L134.8924 142.1666 "/>
<path d="M134.8924 142.1666 L134.8924 142.3640 "/>
<path d="M134.8924 142.3640 L134.7937 142.5615 "/>
<path d="M134.7937 142.5615 L134.6950 142.6602 "/>
<path d="M134.6950 142.6602 L134.4975 142.7589 "/>
<path d="M134.4975 142.7589 L133.8065 142.7589 "/>
<path d="M135.6822 141.7717 L137.0644 143.8449 "/>
<path d="M137.0644 141.7717 L135.6822 143.8449 "/>
<path d="M138.2491 141.7717 L138.4465 141.7717 "/>
<path d="M138.4465 141.7717 L138.6440 141.8704 "/>
<path d="M138.6440 141.8704 L138.7427 141.9691 "/>
<path d="M138.7427 141.9691 L138.8414 142.1666 "/>
<path d="M138.8414 142.1666 L138.9401 142.5615 "/>
<path d="M138.9401 142.5615 L138.9401 143.0551 "/>
<path d="M138.9401 143.0551 L138.8414 143.4500 "/>
<path d="M138.8414 143.4500 L138.7427 143.6474 "/>
<path d="M138.7427 143.6474 L138.6440 143.7462 "/>
<path d="M138.6440 143.7462 L138.4465 143.8449 "/>
<path d="M138.4465 143.8449 L138.2491 143.8449 "/>
<path d="M138.2491 143.8449 L138.0516 143.7462 "/>
<path d="M138.0516 143.7462 L137.9529 143.6474 "/>
<path d="M137.9529 143.6474 L137.8542 143.4500 "/>
<path d="M137.8542 143.4500 L137.7554 143.0551 "/>
<path d="M137.7554 143.0551 L137.7554 142.5615 "/>
<path d="M137.7554 142.5615 L137.8542 142.1666 "/>
<path d="M137.8542 142.1666 L137.9529 141.9691 "/>
<path d="M137.9529 141.9691 L138.0516 141.8704 "/>
<path d="M138.0516 141.8704 L138.2491 141.7717 "/>
<path d="M140.2235 141.7717 L140.4210 141.7717 "/>
<path d="M140.4210 141.7717 L140.6184 141.8704 "/>
<path d="M140.6184 141.8704 L140.7172 141.9691 "/>
<path d="M140.7172 141.9691 L140.8159 142.1666 "/>
<path d="M140.8159 142.1666 L140.9146 142.5615 "/>
<path d="M140.9146 142.5615 L140.9146 143.0551 "/>
<path d="M140.9146 143.0551 L140.8159 143.4500 "/>
<path d="M140.8159 143.4500 L140.7172 143.6474 "/>
<path d="M140.7172 143.6474 L140.6184 143.7462 "/>
<path d="M140.6184 143.7462 L140.4210 143.8449 "/>
<path d="M140.4210 143.8449 L140.2235 143.8449 "/>
<path d="M140.2235 143.8449 L140.0261 143.7462 "/>
<path d="M140.0261 143.7462 L139.9274 143.6474 "/>
<path d="M139.9274 143.6474 L139.8286 143.4500 "/>
<path d="M139.8286 143.4500 L139.7299 143.0551 "/>
<path d="M139.7299 143.0551 L139.7299 142.5615 "/>
<path d="M139.7299 142.5615 L139.8286 142.1666 "/>
<path d="M139.8286 142.1666 L139.9274 141.9691 "/>
<path d="M139.9274 141.9691 L140.0261 141.8704 "/>
<path d="M140.0261 141.8704 L140.2235 141.7717 "/>
<path d="M141.6057 141.7717 L142.8891 141.7717 "/>
<path d="M142.8891 141.7717 L142.1980 142.5615 "/>
<path d="M142.1980 142.5615 L142.4942 142.5615 "/>
<path d="M142.4942 142.5615 L142.6917 142.6602 "/>
<path d="M142.6917 142.6602 L142.7904 142.7589 "/>
<path d="M142.7904 142.7589 L142.8891 142.9564 "/>
<path d="M142.8891 142.9564 L142.8891 143.4500 "/>
<path d="M142.8891 143.4500 L142.7904 143.6474 "/>
<path d="M142.7904 143.6474 L142.6917 143.7462 "/>
<path d="M142.6917 143.7462 L142.4942 143.8449 "/>
<path d="M142.4942 143.8449 L141.9019 143.8449 "/>
<path d="M141.9019 143.8449 L141.7044 143.7462 "/>
<path d="M141.7044 143.7462 L141.6057 143.6474 "/>
<path d="M143.5802 141.7717 L144.9623 141.7717 "/>
<path d="M144.9623 141.7717 L144.0738 143.8449 "/>
</g><g transform="rotate(-90.000000 90.8554 199.7909)">
<text x="90.8554" y="200.8276" textLength="43.2092" font-size="2.7643" lengthAdjust="spacingAndGlyphs" text-anchor="middle" opacity="0.01" style="font-family:monospace">HLMP-K150+FIX-LED-313</text>
</g>
<g class="stroked-text"><desc>HLMP-K150+FIX-LED-313</desc>
<path d="M91.7983 220.7205 L89.7251 220.7205 "/>
<path d="M90.7123 220.7205 L90.7123 219.5358 "/>
<path d="M91.7983 219.5358 L89.7251 219.5358 "/>
<path d="M91.7983 217.5614 L91.7983 218.5486 "/>
<path d="M91.7983 218.5486 L89.7251 218.5486 "/>
<path d="M91.7983 216.8703 L89.7251 216.8703 "/>
<path d="M89.7251 216.8703 L91.2060 216.1792 "/>
<path d="M91.2060 216.1792 L89.7251 215.4881 "/>
<path d="M89.7251 215.4881 L91.7983 215.4881 "/>
<path d="M91.7983 214.5009 L89.7251 214.5009 "/>
<path d="M89.7251 214.5009 L89.7251 213.7111 "/>
<path d="M89.7251 213.7111 L89.8238 213.5136 "/>
<path d="M89.8238 213.5136 L89.9226 213.4149 "/>
<path d="M89.9226 213.4149 L90.1200 213.3162 "/>
<path d="M90.1200 213.3162 L90.4162 213.3162 "/>
<path d="M90.4162 213.3162 L90.6136 213.4149 "/>
<path d="M90.6136 213.4149 L90.7123 213.5136 "/>
<path d="M90.7123 213.5136 L90.8111 213.7111 "/>
<path d="M90.8111 213.7111 L90.8111 214.5009 "/>
<path d="M91.0085 212.4277 L91.0085 210.8481 "/>
<path d="M91.7983 209.8608 L89.7251 209.8608 "/>
<path d="M91.7983 208.6761 L90.6136 209.5647 "/>
<path d="M89.7251 208.6761 L90.9098 209.8608 "/>
<path d="M91.7983 206.7017 L91.7983 207.8864 "/>
<path d="M91.7983 207.2940 L89.7251 207.2940 "/>
<path d="M89.7251 207.2940 L90.0213 207.4915 "/>
<path d="M90.0213 207.4915 L90.2187 207.6889 "/>
<path d="M90.2187 207.6889 L90.3175 207.8864 "/>
<path d="M89.7251 204.8259 L89.7251 205.8131 "/>
<path d="M89.7251 205.8131 L90.7123 205.9119 "/>
<path d="M90.7123 205.9119 L90.6136 205.8131 "/>
<path d="M90.6136 205.8131 L90.5149 205.6157 "/>
<path d="M90.5149 205.6157 L90.5149 205.1221 "/>
<path d="M90.5149 205.1221 L90.6136 204.9246 "/>
<path d="M90.6136 204.9246 L90.7123 204.8259 "/>
<path d="M90.7123 204.8259 L90.9098 204.7272 "/>
<path d="M90.9098 204.7272 L91.4034 204.7272 "/>
<path d="M91.4034 204.7272 L91.6009 204.8259 "/>
<path d="M91.6009 204.8259 L91.6996 204.9246 "/>
<path d="M91.6996 204.9246 L91.7983 205.1221 "/>
<path d="M91.7983 205.1221 L91.7983 205.6157 "/>
<path d="M91.7983 205.6157 L91.6996 205.8131 "/>
<path d="M91.6996 205.8131 L91.6009 205.9119 "/>
<path d="M89.7251 203.4438 L89.7251 203.2463 "/>
<path d="M89.7251 203.2463 L89.8238 203.0489 "/>
<path d="M89.8238 203.0489 L89.9226 202.9501 "/>
<path d="M89.9226 202.9501 L90.1200 202.8514 "/>
<path d="M90.1200 202.8514 L90.5149 202.7527 "/>
<path d="M90.5149 202.7527 L91.0085 202.7527 "/>
<path d="M91.0085 202.7527 L91.4034 202.8514 "/>
<path d="M91.4034 202.8514 L91.6009 202.9501 "/>
<path d="M91.6009 202.9501 L91.6996 203.0489 "/>
<path d="M91.6996 203.0489 L91.7983 203.2463 "/>
<path d="M91.7983 203.2463 L91.7983 203.4438 "/>
<path d="M91.7983 203.4438 L91.6996 203.6412 "/>
<path d="M91.6996 203.6412 L91.6009 203.7399 "/>
<path d="M91.6009 203.7399 L91.4034 203.8386 "/>
<path d="M91.4034 203.8386 L91.0085 203.9374 "/>
<path d="M91.0085 203.9374 L90.5149 203.9374 "/>
<path d="M90.5149 203.9374 L90.1200 203.8386 "/>
<path d="M90.1200 203.8386 L89.9226 203.7399 "/>
<path d="M89.9226 203.7399 L89.8238 203.6412 "/>
<path d="M89.8238 203.6412 L89.7251 203.4438 "/>
<path d="M91.0085 201.8642 L91.0085 200.2846 "/>
<path d="M91.7983 201.0744 L90.2187 201.0744 "/>
<path d="M90.7123 198.6063 L90.7123 199.2973 "/>
<path d="M91.7983 199.2973 L89.7251 199.2973 "/>
<path d="M89.7251 199.2973 L89.7251 198.3101 "/>
<path d="M91.7983 197.5203 L89.7251 197.5203 "/>
<path d="M89.7251 196.7305 L91.7983 195.3483 "/>
<path d="M89.7251 195.3483 L91.7983 196.7305 "/>
<path d="M91.0085 194.5585 L91.0085 192.9790 "/>
<path d="M91.7983 191.0045 L91.7983 191.9917 "/>
<path d="M91.7983 191.9917 L89.7251 191.9917 "/>
<path d="M90.7123 190.3134 L90.7123 189.6223 "/>
<path d="M91.7983 189.3262 L91.7983 190.3134 "/>
<path d="M91.7983 190.3134 L89.7251 190.3134 "/>
<path d="M89.7251 190.3134 L89.7251 189.3262 "/>
<path d="M91.7983 188.4376 L89.7251 188.4376 "/>
<path d="M89.7251 188.4376 L89.7251 187.9440 "/>
<path d="M89.7251 187.9440 L89.8238 187.6478 "/>
<path d="M89.8238 187.6478 L90.0213 187.4504 "/>
<path d="M90.0213 187.4504 L90.2187 187.3517 "/>
<path d="M90.2187 187.3517 L90.6136 187.2529 "/>
<path d="M90.6136 187.2529 L90.9098 187.2529 "/>
<path d="M90.9098 187.2529 L91.3047 187.3517 "/>
<path d="M91.3047 187.3517 L91.5021 187.4504 "/>
<path d="M91.5021 187.4504 L91.6996 187.6478 "/>
<path d="M91.6996 187.6478 L91.7983 187.9440 "/>
<path d="M91.7983 187.9440 L91.7983 188.4376 "/>
<path d="M91.0085 186.3644 L91.0085 184.7848 "/>
<path d="M89.7251 183.9950 L89.7251 182.7116 "/>
<path d="M89.7251 182.7116 L90.5149 183.4027 "/>
<path d="M90.5149 183.4027 L90.5149 183.1065 "/>
<path d="M90.5149 183.1065 L90.6136 182.9091 "/>
<path d="M90.6136 182.9091 L90.7123 182.8103 "/>
<path d="M90.7123 182.8103 L90.9098 182.7116 "/>
<path d="M90.9098 182.7116 L91.4034 182.7116 "/>
<path d="M91.4034 182.7116 L91.6009 182.8103 "/>
<path d="M91.6009 182.8103 L91.6996 182.9091 "/>
<path d="M91.6996 182.9091 L91.7983 183.1065 "/>
<path d="M91.7983 183.1065 L91.7983 183.6989 "/>
<path d="M91.7983 183.6989 L91.6996 183.8963 "/>
<path d="M91.6996 183.8963 L91.6009 183.9950 "/>
<path d="M91.7983 180.7371 L91.7983 181.9218 "/>
<path d="M91.7983 181.3295 L89.7251 181.3295 "/>
<path d="M89.7251 181.3295 L90.0213 181.5269 "/>
<path d="M90.0213 181.5269 L90.2187 181.7244 "/>
<path d="M90.2187 181.7244 L90.3175 181.9218 "/>
<path d="M89.7251 180.0460 L89.7251 178.7626 "/>
<path d="M89.7251 178.7626 L90.5149 179.4537 "/>
<path d="M90.5149 179.4537 L90.5149 179.1575 "/>
<path d="M90.5149 179.1575 L90.6136 178.9601 "/>
<path d="M90.6136 178.9601 L90.7123 178.8614 "/>
<path d="M90.7123 178.8614 L90.9098 178.7626 "/>
<path d="M90.9098 178.7626 L91.4034 178.7626 "/>
<path d="M91.4034 178.7626 L91.6009 178.8614 "/>
<path d="M91.6009 178.8614 L91.6996 178.9601 "/>
<path d="M91.6996 178.9601 L91.7983 179.1575 "/>
<path d="M91.7983 179.1575 L91.7983 179.7499 "/>
<path d="M91.7983 179.7499 L91.6996 179.9473 "/>
<path d="M91.6996 179.9473 L91.6009 180.0460 "/>
</g><g transform="rotate(-90.000000 211.6927 57.6099)">
<text x="211.6927" y="58.6465" textLength="10.5314" font-size="2.7643" lengthAdjust="spacingAndGlyphs" text-anchor="middle" opacity="0.01" style="font-family:monospace">16MHz</text>
</g>
<g class="stroked-text"><desc>16MHz</desc>
<path d="M212.6356 61.1146 L212.6356 62.2993 "/>
<path d="M212.6356 61.7070 L210.5624 61.7070 "/>
<path d="M210.5624 61.7070 L210.8586 61.9044 "/>
<path d="M210.8586 61.9044 L211.0560 62.1019 "/>
<path d="M211.0560 62.1019 L211.1547 62.2993 "/>
<path d="M210.5624 59.3376 L210.5624 59.7325 "/>
<path d="M210.5624 59.7325 L210.6611 59.9299 "/>
<path d="M210.6611 59.9299 L210.7598 60.0287 "/>
<path d="M210.7598 60.0287 L211.0560 60.2261 "/>
<path d="M211.0560 60.2261 L211.4509 60.3248 "/>
<path d="M211.4509 60.3248 L212.2407 60.3248 "/>
<path d="M212.2407 60.3248 L212.4382 60.2261 "/>
<path d="M212.4382 60.2261 L212.5369 60.1274 "/>
<path d="M212.5369 60.1274 L212.6356 59.9299 "/>
<path d="M212.6356 59.9299 L212.6356 59.5351 "/>
<path d="M212.6356 59.5351 L212.5369 59.3376 "/>
<path d="M212.5369 59.3376 L212.4382 59.2389 "/>
<path d="M212.4382 59.2389 L212.2407 59.1402 "/>
<path d="M212.2407 59.1402 L211.7471 59.1402 "/>
<path d="M211.7471 59.1402 L211.5496 59.2389 "/>
<path d="M211.5496 59.2389 L211.4509 59.3376 "/>
<path d="M211.4509 59.3376 L211.3522 59.5351 "/>
<path d="M211.3522 59.5351 L211.3522 59.9299 "/>
<path d="M211.3522 59.9299 L211.4509 60.1274 "/>
<path d="M211.4509 60.1274 L211.5496 60.2261 "/>
<path d="M211.5496 60.2261 L211.7471 60.3248 "/>
<path d="M212.6356 58.2516 L210.5624 58.2516 "/>
<path d="M210.5624 58.2516 L212.0433 57.5606 "/>
<path d="M212.0433 57.5606 L210.5624 56.8695 "/>
<path d="M210.5624 56.8695 L212.6356 56.8695 "/>
<path d="M212.6356 55.8822 L210.5624 55.8822 "/>
<path d="M211.5496 55.8822 L211.5496 54.6976 "/>
<path d="M212.6356 54.6976 L210.5624 54.6976 "/>
<path d="M211.2535 53.9078 L211.2535 52.8218 "/>
<path d="M211.2535 52.8218 L212.6356 53.9078 "/>
<path d="M212.6356 53.9078 L212.6356 52.8218 "/>
</g><text x="194.5783" y="193.4552" textLength="26.7222" font-size="2.7643" lengthAdjust="spacingAndGlyphs" text-anchor="middle" opacity="0.01" style="font-family:monospace">5MS1S102AM6QE</text>
<g class="stroked-text"><desc>5MS1S102AM6QE</desc>
<path d="M182.8794 191.2883 L181.8922 191.2883 "/>
<path d="M181.8922 191.2883 L181.7935 192.2756 "/>
<path d="M181.7935 192.2756 L181.8922 192.1768 "/>
<path d="M181.8922 192.1768 L182.0896 192.0781 "/>
<path d="M182.0896 192.0781 L182.5833 192.0781 "/>
<path d="M182.5833 192.0781 L182.7807 192.1768 "/>
<path d="M182.7807 192.1768 L182.8794 192.2756 "/>
<path d="M182.8794 192.2756 L182.9782 192.4730 "/>
<path d="M182.9782 192.4730 L182.9782 192.9666 "/>
<path d="M182.9782 192.9666 L182.8794 193.1641 "/>
<path d="M182.8794 193.1641 L182.7807 193.2628 "/>
<path d="M182.7807 193.2628 L182.5833 193.3615 "/>
<path d="M182.5833 193.3615 L182.0896 193.3615 "/>
<path d="M182.0896 193.3615 L181.8922 193.2628 "/>
<path d="M181.8922 193.2628 L181.7935 193.1641 "/>
<path d="M183.8667 193.3615 L183.8667 191.2883 "/>
<path d="M183.8667 191.2883 L184.5577 192.7692 "/>
<path d="M184.5577 192.7692 L185.2488 191.2883 "/>
<path d="M185.2488 191.2883 L185.2488 193.3615 "/>
<path d="M186.1373 193.2628 L186.4335 193.3615 "/>
<path d="M186.4335 193.3615 L186.9271 193.3615 "/>
<path d="M186.9271 193.3615 L187.1246 193.2628 "/>
<path d="M187.1246 193.2628 L187.2233 193.1641 "/>
<path d="M187.2233 193.1641 L187.3220 192.9666 "/>
<path d="M187.3220 192.9666 L187.3220 192.7692 "/>
<path d="M187.3220 192.7692 L187.2233 192.5717 "/>
<path d="M187.2233 192.5717 L187.1246 192.4730 "/>
<path d="M187.1246 192.4730 L186.9271 192.3743 "/>
<path d="M186.9271 192.3743 L186.5322 192.2756 "/>
<path d="M186.5322 192.2756 L186.3348 192.1768 "/>
<path d="M186.3348 192.1768 L186.2361 192.0781 "/>
<path d="M186.2361 192.0781 L186.1373 191.8807 "/>
<path d="M186.1373 191.8807 L186.1373 191.6832 "/>
<path d="M186.1373 191.6832 L186.2361 191.4858 "/>
<path d="M186.2361 191.4858 L186.3348 191.3870 "/>
<path d="M186.3348 191.3870 L186.5322 191.2883 "/>
<path d="M186.5322 191.2883 L187.0259 191.2883 "/>
<path d="M187.0259 191.2883 L187.3220 191.3870 "/>
<path d="M189.2965 193.3615 L188.1118 193.3615 "/>
<path d="M188.7042 193.3615 L188.7042 191.2883 "/>
<path d="M188.7042 191.2883 L188.5067 191.5845 "/>
<path d="M188.5067 191.5845 L188.3093 191.7819 "/>
<path d="M188.3093 191.7819 L188.1118 191.8807 "/>
<path d="M190.0863 193.2628 L190.3825 193.3615 "/>
<path d="M190.3825 193.3615 L190.8761 193.3615 "/>
<path d="M190.8761 193.3615 L191.0736 193.2628 "/>
<path d="M191.0736 193.2628 L191.1723 193.1641 "/>
<path d="M191.1723 193.1641 L191.2710 192.9666 "/>
<path d="M191.2710 192.9666 L191.2710 192.7692 "/>
<path d="M191.2710 192.7692 L191.1723 192.5717 "/>
<path d="M191.1723 192.5717 L191.0736 192.4730 "/>
<path d="M191.0736 192.4730 L190.8761 192.3743 "/>
<path d="M190.8761 192.3743 L190.4812 192.2756 "/>
<path d="M190.4812 192.2756 L190.2838 192.1768 "/>
<path d="M190.2838 192.1768 L190.1850 192.0781 "/>
<path d="M190.1850 192.0781 L190.0863 191.8807 "/>
<path d="M190.0863 191.8807 L190.0863 191.6832 "/>
<path d="M190.0863 191.6832 L190.1850 191.4858 "/>
<path d="M190.1850 191.4858 L190.2838 191.3870 "/>
<path d="M190.2838 191.3870 L190.4812 191.2883 "/>
<path d="M190.4812 191.2883 L190.9748 191.2883 "/>
<path d="M190.9748 191.2883 L191.2710 191.3870 "/>
<path d="M193.2455 193.3615 L192.0608 193.3615 "/>
<path d="M192.6532 193.3615 L192.6532 191.2883 "/>
<path d="M192.6532 191.2883 L192.4557 191.5845 "/>
<path d="M192.4557 191.5845 L192.2583 191.7819 "/>
<path d="M192.2583 191.7819 L192.0608 191.8807 "/>
<path d="M194.5289 191.2883 L194.7264 191.2883 "/>
<path d="M194.7264 191.2883 L194.9238 191.3870 "/>
<path d="M194.9238 191.3870 L195.0225 191.4858 "/>
<path d="M195.0225 191.4858 L195.1213 191.6832 "/>
<path d="M195.1213 191.6832 L195.2200 192.0781 "/>
<path d="M195.2200 192.0781 L195.2200 192.5717 "/>
<path d="M195.2200 192.5717 L195.1213 192.9666 "/>
<path d="M195.1213 192.9666 L195.0225 193.1641 "/>
<path d="M195.0225 193.1641 L194.9238 193.2628 "/>
<path d="M194.9238 193.2628 L194.7264 193.3615 "/>
<path d="M194.7264 193.3615 L194.5289 193.3615 "/>
<path d="M194.5289 193.3615 L194.3315 193.2628 "/>
<path d="M194.3315 193.2628 L194.2327 193.1641 "/>
<path d="M194.2327 193.1641 L194.1340 192.9666 "/>
<path d="M194.1340 192.9666 L194.0353 192.5717 "/>
<path d="M194.0353 192.5717 L194.0353 192.0781 "/>
<path d="M194.0353 192.0781 L194.1340 191.6832 "/>
<path d="M194.1340 191.6832 L194.2327 191.4858 "/>
<path d="M194.2327 191.4858 L194.3315 191.3870 "/>
<path d="M194.3315 191.3870 L194.5289 191.2883 "/>
<path d="M196.0098 191.4858 L196.1085 191.3870 "/>
<path d="M196.1085 191.3870 L196.3060 191.2883 "/>
<path d="M196.3060 191.2883 L196.7996 191.2883 "/>
<path d="M196.7996 191.2883 L196.9970 191.3870 "/>
<path d="M196.9970 191.3870 L197.0958 191.4858 "/>
<path d="M197.0958 191.4858 L197.1945 191.6832 "/>
<path d="M197.1945 191.6832 L197.1945 191.8807 "/>
<path d="M197.1945 191.8807 L197.0958 192.1768 "/>
<path d="M197.0958 192.1768 L195.9111 193.3615 "/>
<path d="M195.9111 193.3615 L197.1945 193.3615 "/>
<path d="M197.9843 192.7692 L198.9715 192.7692 "/>
<path d="M197.7868 193.3615 L198.4779 191.2883 "/>
<path d="M198.4779 191.2883 L199.1690 193.3615 "/>
<path d="M199.8600 193.3615 L199.8600 191.2883 "/>
<path d="M199.8600 191.2883 L200.5511 192.7692 "/>
<path d="M200.5511 192.7692 L201.2422 191.2883 "/>
<path d="M201.2422 191.2883 L201.2422 193.3615 "/>
<path d="M203.1179 191.2883 L202.7231 191.2883 "/>
<path d="M202.7231 191.2883 L202.5256 191.3870 "/>
<path d="M202.5256 191.3870 L202.4269 191.4858 "/>
<path d="M202.4269 191.4858 L202.2294 191.7819 "/>
<path d="M202.2294 191.7819 L202.1307 192.1768 "/>
<path d="M202.1307 192.1768 L202.1307 192.9666 "/>
<path d="M202.1307 192.9666 L202.2294 193.1641 "/>
<path d="M202.2294 193.1641 L202.3282 193.2628 "/>
<path d="M202.3282 193.2628 L202.5256 193.3615 "/>
<path d="M202.5256 193.3615 L202.9205 193.3615 "/>
<path d="M202.9205 193.3615 L203.1179 193.2628 "/>
<path d="M203.1179 193.2628 L203.2167 193.1641 "/>
<path d="M203.2167 193.1641 L203.3154 192.9666 "/>
<path d="M203.3154 192.9666 L203.3154 192.4730 "/>
<path d="M203.3154 192.4730 L203.2167 192.2756 "/>
<path d="M203.2167 192.2756 L203.1179 192.1768 "/>
<path d="M203.1179 192.1768 L202.9205 192.0781 "/>
<path d="M202.9205 192.0781 L202.5256 192.0781 "/>
<path d="M202.5256 192.0781 L202.3282 192.1768 "/>
<path d="M202.3282 192.1768 L202.2294 192.2756 "/>
<path d="M202.2294 192.2756 L202.1307 192.4730 "/>
<path d="M205.5861 193.5590 L205.3886 193.4603 "/>
<path d="M205.3886 193.4603 L205.1912 193.2628 "/>
<path d="M205.1912 193.2628 L204.8950 192.9666 "/>
<path d="M204.8950 192.9666 L204.6975 192.8679 "/>
<path d="M204.6975 192.8679 L204.5001 192.8679 "/>
<path d="M204.5988 193.3615 L204.4014 193.2628 "/>
<path d="M204.4014 193.2628 L204.2039 193.0654 "/>
<path d="M204.2039 193.0654 L204.1052 192.6705 "/>
<path d="M204.1052 192.6705 L204.1052 191.9794 "/>
<path d="M204.1052 191.9794 L204.2039 191.5845 "/>
<path d="M204.2039 191.5845 L204.4014 191.3870 "/>
<path d="M204.4014 191.3870 L204.5988 191.2883 "/>
<path d="M204.5988 191.2883 L204.9937 191.2883 "/>
<path d="M204.9937 191.2883 L205.1912 191.3870 "/>
<path d="M205.1912 191.3870 L205.3886 191.5845 "/>
<path d="M205.3886 191.5845 L205.4873 191.9794 "/>
<path d="M205.4873 191.9794 L205.4873 192.6705 "/>
<path d="M205.4873 192.6705 L205.3886 193.0654 "/>
<path d="M205.3886 193.0654 L205.1912 193.2628 "/>
<path d="M205.1912 193.2628 L204.9937 193.3615 "/>
<path d="M204.9937 193.3615 L204.5988 193.3615 "/>
<path d="M206.3759 192.2756 L207.0669 192.2756 "/>
<path d="M207.3631 193.3615 L206.3759 193.3615 "/>
<path d="M206.3759 193.3615 L206.3759 191.2883 "/>
<path d="M206.3759 191.2883 L207.3631 191.2883 "/>
</g><path d="M194.5783 207.6567 L194.5783 217.4008 "/>
<path d="M188.3586 217.4008 L188.3586 207.6567 "/>
<path d="M188.3586 217.4008 L194.5783 217.4008 "/>
<g>
</g>
<g>
</g>
<g>
</g>
<g>
</g>
<g>
</g>
<g>
</g>
<g>
</g>
<g>
</g>
<g>
</g>
<g>
</g>
<g>
</g>
<g>
</g>
<g>
</g>
<g>
</g>
<g>
</g>
<g>
</g>
<g>
</g>
<g>
</g>
<g>
</g>
<g>
</g>
<g>
</g>
<g>
</g>
<g>
</g>
<g>
</g>
<g>
</g>
<g>
</g>
<g>
</g>
<g>
</g>
<g>
</g>
<g>
</g>
<g>
</g>
<g>
</g>
<g>
</g>
<g>
</g>
<g>
</g>
<g>
</g>
<g>
</g>
<g>
</g>
<g>
</g>
<g>
</g>
<g>
</g>
<g>
</g>
<g>
</g>
<g>
</g>
<g>
</g>
<g>
</g>
<g>
</g>
<g>
</g>
<g>
</g>
<g>
</g>
<g>
</g>
<g>
</g>
<g>
</g>
<g>
</g>
<g>
</g>
<g>
</g>
<g>
</g>
<g>
</g>
<g>
</g>
<g>
</g>
<g>
</g>
<g>
</g>
<g>
</g>
<g>
</g>
<g>
</g>
<g>
</g>
<g>
</g>
<g>
</g>
<g>
</g>
<g>
</g>
<g>
</g>
<g>
</g>
<g>
</g>
<g>
</g>
<g>
</g>
<g>
</g>
<g>
</g>
<g>
</g>
<g>
</g>
<g>
</g>
<g>
</g>
<g>
</g>
<g>
</g>
<g>
</g>
<g>
</g>
<g>
</g>
<g>
</g>
<g>
</g>
<g>
</g>
<g>
</g>
<g>
</g>
<g>
</g>
<g>
</g>
</g> 
<svg:g><svg:g><svg:title>SVG Image created as DATALOGGER01-Edge_Cuts.svg date 2023/07/08 01:47:11 </svg:title>
  <svg:desc>Image generated by PCBNEW </svg:desc>
<svg:g style="fill:#C2C200; fill-opacity:1.0000;stroke:#C2C200; stroke-opacity:1.0000; stroke-linecap:round; stroke-linejoin:round;" transform="translate(0 0) scale(1 1)">
</svg:g>
<svg:g style="fill:#C2C200; fill-opacity:0.0;  stroke:#C2C200; stroke-width:0.0000; stroke-opacity:1;  stroke-linecap:round; stroke-linejoin:round;">
</svg:g>
<svg:g style="fill:#C2C200; fill-opacity:0.0;  stroke:#C2C200; stroke-width:0.4146; stroke-opacity:1;  stroke-linecap:round; stroke-linejoin:round;">
<svg:path d="M232.2299 209.7963 L232.2299 0.2109 "/>
<svg:path d="M64.7723 209.7963 L64.7723 0.2109 "/>
<svg:path d="M64.7723 0.2109 L232.2299 0.2109 "/>
<svg:path d="M64.7723 209.7963 L232.2299 209.7963 "/>
<svg:g>
</svg:g>
<svg:g>
</svg:g>
<svg:g>
</svg:g>
<svg:g>
</svg:g>
<svg:g>
</svg:g>
<svg:g>
</svg:g>
<svg:g>
</svg:g>
<svg:g>
</svg:g>
<svg:g>
</svg:g>
<svg:g>
</svg:g>
<svg:g>
</svg:g>
<svg:g>
</svg:g>
<svg:g>
</svg:g>
<svg:g>
</svg:g>
<svg:g>
</svg:g>
<svg:g>
</svg:g>
<svg:g>
</svg:g>
<svg:g>
</svg:g>
<svg:g>
</svg:g>
<svg:g>
</svg:g>
<svg:g>
</svg:g>
<svg:g>
</svg:g>
<svg:g>
</svg:g>
<svg:g>
</svg:g>
<svg:g>
</svg:g>
<svg:g>
</svg:g>
<svg:g>
</svg:g>
<svg:g>
</svg:g>
<svg:g>
</svg:g>
<svg:g>
</svg:g>
<svg:g>
</svg:g>
<svg:g>
</svg:g>
<svg:g>
</svg:g>
<svg:g>
</svg:g>
<svg:g>
</svg:g>
<svg:g>
</svg:g>
<svg:g>
</svg:g>
<svg:g>
</svg:g>
<svg:g>
</svg:g>
<svg:g>
</svg:g>
<svg:g>
</svg:g>
<svg:g>
</svg:g>
<svg:g>
</svg:g>
<svg:g>
</svg:g>
<svg:g>
</svg:g>
<svg:g>
</svg:g>
<svg:g>
</svg:g>
<svg:g>
</svg:g>
<svg:g>
</svg:g>
<svg:g>
</svg:g>
<svg:g>
</svg:g>
<svg:g>
</svg:g>
<svg:g>
</svg:g>
<svg:g>
</svg:g>
<svg:g>
</svg:g>
<svg:g>
</svg:g>
<svg:g>
</svg:g>
<svg:g>
</svg:g>
<svg:g>
</svg:g>
<svg:g>
</svg:g>
<svg:g>
</svg:g>
<svg:g>
</svg:g>
<svg:g>
</svg:g>
<svg:g>
</svg:g>
<svg:g>
</svg:g>
<svg:g>
</svg:g>
<svg:g>
</svg:g>
<svg:g>
</svg:g>
<svg:g>
</svg:g>
<svg:g>
</svg:g>
<svg:g>
</svg:g>
<svg:g>
</svg:g>
<svg:g>
</svg:g>
<svg:g>
</svg:g>
<svg:g>
</svg:g>
<svg:g>
</svg:g>
<svg:g>
</svg:g>
<svg:g>
</svg:g>
<svg:g>
</svg:g>
<svg:g>
</svg:g>
<svg:g>
</svg:g>
<svg:g>
</svg:g>
<svg:g>
</svg:g>
<svg:g>
</svg:g>
<svg:g>
</svg:g>
<svg:g>
</svg:g>
<svg:g>
</svg:g>
<svg:g>
</svg:g>
<svg:g>
</svg:g>
<svg:g>
</svg:g>
<svg:g>
</svg:g>
<svg:g>
</svg:g>
<svg:g>
</svg:g>
</svg:g> 
</svg:g></svg:g></svg>
