<?xml version='1.0' encoding='ASCII' standalone='yes'?>
<svg xmlns:svg="http://www.w3.org/2000/svg" xmlns="http://www.w3.org/2000/svg" xmlns:xlink="http://www.w3.org/1999/xlink" version="1.1" width="29.700220cm" height="21.000720cm" viewBox="0 0 2970022 2100072">
<title>SVG Picture created as DATALOGGER01-F_Fab.svg date 2023/07/05 12:37:14 </title>
  <desc>Picture generated by PCBNEW </desc>
<g style="fill:#848484; fill-opacity:1.000000;stroke:#848484; stroke-opacity:1.000000; stroke-linecap:round; stroke-linejoin:round;" transform="translate(0 0) scale(1 1)">
</g>
<g style="fill:#848484; fill-opacity:0.0;  stroke:#848484; stroke-width:0.000000; stroke-opacity:1;  stroke-linecap:round; stroke-linejoin:round;">
</g>
<g style="fill:#848484; fill-opacity:0.01;  stroke:#848484; stroke-width:2950.147204; stroke-opacity:1;  stroke-linecap:round; stroke-linejoin:round;">
<text x="1572433.699448" y="616144.753627" textLength="117158.310884" font-size="26223.524150" lengthAdjust="spacingAndGlyphs" text-anchor="middle" opacity="0.01" style="font-family:monospace">BX0037</text>
<g class="stroked-text"><desc>BX0037</desc>
<path d="M1617856 604906 L1615046 605842 L1614110 606779 L1613173 608652 L1613173 611461 L1614110 613335 L1615046 614271 L1616920 615208 L1624412 615208 L1624412 595540 L1617856 595540 L1615983 596477 L1615046 597413 L1614110 599286 L1614110 601159 L1615046 603032 L1615983 603969 L1617856 604906 L1624412 604906 "/>
<path d="M1606617 595540 L1593506 615208 "/>
<path d="M1593506 595540 L1606617 615208 "/>
<path d="M1582267 595540 L1580394 595540 L1578521 596477 L1577584 597413 L1576648 599286 L1575711 603032 L1575711 607715 L1576648 611461 L1577584 613335 L1578521 614271 L1580394 615208 L1582267 615208 L1584140 614271 L1585077 613335 L1586013 611461 L1586950 607715 L1586950 603032 L1586013 599286 L1585077 597413 L1584140 596477 L1582267 595540 "/>
<path d="M1563536 595540 L1561663 595540 L1559790 596477 L1558853 597413 L1557917 599286 L1556980 603032 L1556980 607715 L1557917 611461 L1558853 613335 L1559790 614271 L1561663 615208 L1563536 615208 L1565409 614271 L1566346 613335 L1567282 611461 L1568219 607715 L1568219 603032 L1567282 599286 L1566346 597413 L1565409 596477 L1563536 595540 "/>
<path d="M1550424 595540 L1538249 595540 L1544805 603032 L1541995 603032 L1540122 603969 L1539186 604906 L1538249 606779 L1538249 611461 L1539186 613335 L1540122 614271 L1541995 615208 L1547615 615208 L1549488 614271 L1550424 613335 "/>
<path d="M1531693 595540 L1518581 595540 L1527010 615208 "/>
</g><text x="1572433.699448" y="1365482.143541" textLength="117158.310884" font-size="26223.524150" lengthAdjust="spacingAndGlyphs" text-anchor="middle" opacity="0.01" style="font-family:monospace">BX0037</text>
<g class="stroked-text"><desc>BX0037</desc>
<path d="M1617856 1354243 L1615046 1355180 L1614110 1356116 L1613173 1357989 L1613173 1360799 L1614110 1362672 L1615046 1363609 L1616920 1364545 L1624412 1364545 L1624412 1344877 L1617856 1344877 L1615983 1345814 L1615046 1346751 L1614110 1348624 L1614110 1350497 L1615046 1352370 L1615983 1353306 L1617856 1354243 L1624412 1354243 "/>
<path d="M1606617 1344877 L1593506 1364545 "/>
<path d="M1593506 1344877 L1606617 1364545 "/>
<path d="M1582267 1344877 L1580394 1344877 L1578521 1345814 L1577584 1346751 L1576648 1348624 L1575711 1352370 L1575711 1357053 L1576648 1360799 L1577584 1362672 L1578521 1363609 L1580394 1364545 L1582267 1364545 L1584140 1363609 L1585077 1362672 L1586013 1360799 L1586950 1357053 L1586950 1352370 L1586013 1348624 L1585077 1346751 L1584140 1345814 L1582267 1344877 "/>
<path d="M1563536 1344877 L1561663 1344877 L1559790 1345814 L1558853 1346751 L1557917 1348624 L1556980 1352370 L1556980 1357053 L1557917 1360799 L1558853 1362672 L1559790 1363609 L1561663 1364545 L1563536 1364545 L1565409 1363609 L1566346 1362672 L1567282 1360799 L1568219 1357053 L1568219 1352370 L1567282 1348624 L1566346 1346751 L1565409 1345814 L1563536 1344877 "/>
<path d="M1550424 1344877 L1538249 1344877 L1544805 1352370 L1541995 1352370 L1540122 1353306 L1539186 1354243 L1538249 1356116 L1538249 1360799 L1539186 1362672 L1540122 1363609 L1541995 1364545 L1547615 1364545 L1549488 1363609 L1550424 1362672 "/>
<path d="M1531693 1344877 L1518581 1344877 L1527010 1364545 "/>
</g><g transform="rotate(-90.000000 2031869.957411 1895328.581449)">
<text x="2031869.957411" y="1905162.405463" textLength="410299.923859" font-size="26223.524150" lengthAdjust="spacingAndGlyphs" text-anchor="middle" opacity="0.01" style="font-family:monospace">HLMP-K150+FIX-LED-313</text>
</g>
<g class="stroked-text"><desc>HLMP-K150+FIX-LED-313</desc>
<path d="M2022972 2093878 L2042640 2093878 "/>
<path d="M2033274 2093878 L2033274 2082639 "/>
<path d="M2022972 2082639 L2042640 2082639 "/>
<path d="M2022972 2063908 L2022972 2073273 L2042640 2073273 "/>
<path d="M2022972 2057352 L2042640 2057352 L2028592 2050796 L2042640 2044240 L2022972 2044240 "/>
<path d="M2022972 2034875 L2042640 2034875 L2042640 2027382 L2041703 2025509 L2040767 2024573 L2038894 2023636 L2036084 2023636 L2034211 2024573 L2033274 2025509 L2032338 2027382 L2032338 2034875 "/>
<path d="M2030465 2015207 L2030465 2000222 "/>
<path d="M2022972 1990857 L2042640 1990857 "/>
<path d="M2022972 1979618 L2034211 1988047 "/>
<path d="M2042640 1979618 L2031401 1990857 "/>
<path d="M2022972 1960887 L2022972 1972126 "/>
<path d="M2022972 1966506 L2042640 1966506 L2039830 1968379 L2037957 1970252 L2037021 1972126 "/>
<path d="M2042640 1943092 L2042640 1952458 L2033274 1953394 L2034211 1952458 L2035147 1950585 L2035147 1945902 L2034211 1944029 L2033274 1943092 L2031401 1942156 L2026718 1942156 L2024845 1943092 L2023909 1944029 L2022972 1945902 L2022972 1950585 L2023909 1952458 L2024845 1953394 "/>
<path d="M2042640 1929981 L2042640 1928107 L2041703 1926234 L2040767 1925298 L2038894 1924361 L2035147 1923425 L2030465 1923425 L2026718 1924361 L2024845 1925298 L2023909 1926234 L2022972 1928107 L2022972 1929981 L2023909 1931854 L2024845 1932790 L2026718 1933727 L2030465 1934663 L2035147 1934663 L2038894 1933727 L2040767 1932790 L2041703 1931854 L2042640 1929981 "/>
<path d="M2030465 1914996 L2030465 1900011 "/>
<path d="M2022972 1907503 L2037957 1907503 "/>
<path d="M2033274 1884089 L2033274 1890645 "/>
<path d="M2022972 1890645 L2042640 1890645 L2042640 1881280 "/>
<path d="M2022972 1873787 L2042640 1873787 "/>
<path d="M2042640 1866295 L2022972 1853183 "/>
<path d="M2042640 1853183 L2022972 1866295 "/>
<path d="M2030465 1845691 L2030465 1830706 "/>
<path d="M2022972 1811975 L2022972 1821340 L2042640 1821340 "/>
<path d="M2033274 1805419 L2033274 1798863 "/>
<path d="M2022972 1796053 L2022972 1805419 L2042640 1805419 L2042640 1796053 "/>
<path d="M2022972 1787624 L2042640 1787624 L2042640 1782942 L2041703 1780132 L2039830 1778259 L2037957 1777322 L2034211 1776386 L2031401 1776386 L2027655 1777322 L2025782 1778259 L2023909 1780132 L2022972 1782942 L2022972 1787624 "/>
<path d="M2030465 1767957 L2030465 1752972 "/>
<path d="M2042640 1745479 L2042640 1733304 L2035147 1739860 L2035147 1737050 L2034211 1735177 L2033274 1734241 L2031401 1733304 L2026718 1733304 L2024845 1734241 L2023909 1735177 L2022972 1737050 L2022972 1742670 L2023909 1744543 L2024845 1745479 "/>
<path d="M2022972 1714573 L2022972 1725812 "/>
<path d="M2022972 1720192 L2042640 1720192 L2039830 1722065 L2037957 1723939 L2037021 1725812 "/>
<path d="M2042640 1708017 L2042640 1695842 L2035147 1702398 L2035147 1699588 L2034211 1697715 L2033274 1696778 L2031401 1695842 L2026718 1695842 L2024845 1696778 L2023909 1697715 L2022972 1699588 L2022972 1705207 L2023909 1707081 L2024845 1708017 "/>
</g><g transform="rotate(-90.000000 885541.092027 546521.279604)">
<text x="885541.092027" y="556355.103618" textLength="100300.324049" font-size="26223.524150" lengthAdjust="spacingAndGlyphs" text-anchor="middle" opacity="0.01" style="font-family:monospace">16MHz</text>
</g>
<g class="stroked-text"><desc>16MHz</desc>
<path d="M876643 579768 L876643 591007 "/>
<path d="M876643 585388 L896311 585388 L893501 587261 L891628 589134 L890692 591007 "/>
<path d="M896311 562910 L896311 566657 L895374 568530 L894438 569466 L891628 571339 L887882 572276 L880390 572276 L878516 571339 L877580 570403 L876643 568530 L876643 564784 L877580 562910 L878516 561974 L880390 561037 L885072 561037 L886945 561974 L887882 562910 L888819 564784 L888819 568530 L887882 570403 L886945 571339 L885072 572276 "/>
<path d="M876643 552608 L896311 552608 L882263 546052 L896311 539497 L876643 539497 "/>
<path d="M876643 530131 L896311 530131 "/>
<path d="M886945 530131 L886945 518892 "/>
<path d="M876643 518892 L896311 518892 "/>
<path d="M889755 511400 L889755 501098 L876643 511400 L876643 501098 "/>
</g><text x="1047897.526509" y="1835224.249071" textLength="253895.293357" font-size="26223.524150" lengthAdjust="spacingAndGlyphs" text-anchor="middle" opacity="0.01" style="font-family:monospace">5MS1S102AM6QE</text>
<g class="stroked-text"><desc>5MS1S102AM6QE</desc>
<path d="M1158879 1814620 L1168244 1814620 L1169181 1823985 L1168244 1823049 L1166371 1822112 L1161688 1822112 L1159815 1823049 L1158879 1823985 L1157942 1825858 L1157942 1830541 L1158879 1832414 L1159815 1833351 L1161688 1834287 L1166371 1834287 L1168244 1833351 L1169181 1832414 "/>
<path d="M1149513 1834287 L1149513 1814620 L1142957 1828668 L1136401 1814620 L1136401 1834287 "/>
<path d="M1127972 1833351 L1125163 1834287 L1120480 1834287 L1118607 1833351 L1117670 1832414 L1116734 1830541 L1116734 1828668 L1117670 1826795 L1118607 1825858 L1120480 1824922 L1124226 1823985 L1126099 1823049 L1127036 1822112 L1127972 1820239 L1127972 1818366 L1127036 1816493 L1126099 1815556 L1124226 1814620 L1119543 1814620 L1116734 1815556 "/>
<path d="M1098003 1834287 L1109241 1834287 "/>
<path d="M1103622 1834287 L1103622 1814620 L1105495 1817429 L1107368 1819302 L1109241 1820239 "/>
<path d="M1090510 1833351 L1087701 1834287 L1083018 1834287 L1081145 1833351 L1080208 1832414 L1079272 1830541 L1079272 1828668 L1080208 1826795 L1081145 1825858 L1083018 1824922 L1086764 1823985 L1088637 1823049 L1089574 1822112 L1090510 1820239 L1090510 1818366 L1089574 1816493 L1088637 1815556 L1086764 1814620 L1082081 1814620 L1079272 1815556 "/>
<path d="M1060541 1834287 L1071779 1834287 "/>
<path d="M1066160 1834287 L1066160 1814620 L1068033 1817429 L1069906 1819302 L1071779 1820239 "/>
<path d="M1048365 1814620 L1046492 1814620 L1044619 1815556 L1043683 1816493 L1042746 1818366 L1041809 1822112 L1041809 1826795 L1042746 1830541 L1043683 1832414 L1044619 1833351 L1046492 1834287 L1048365 1834287 L1050238 1833351 L1051175 1832414 L1052112 1830541 L1053048 1826795 L1053048 1822112 L1052112 1818366 L1051175 1816493 L1050238 1815556 L1048365 1814620 "/>
<path d="M1034317 1816493 L1033380 1815556 L1031507 1814620 L1026825 1814620 L1024951 1815556 L1024015 1816493 L1023078 1818366 L1023078 1820239 L1024015 1823049 L1035254 1834287 L1023078 1834287 "/>
<path d="M1015586 1828668 L1006220 1828668 "/>
<path d="M1017459 1834287 L1010903 1814620 L1004347 1834287 "/>
<path d="M997791 1834287 L997791 1814620 L991235 1828668 L984680 1814620 L984680 1834287 "/>
<path d="M966885 1814620 L970631 1814620 L972504 1815556 L973441 1816493 L975314 1819302 L976251 1823049 L976251 1830541 L975314 1832414 L974377 1833351 L972504 1834287 L968758 1834287 L966885 1833351 L965949 1832414 L965012 1830541 L965012 1825858 L965949 1823985 L966885 1823049 L968758 1822112 L972504 1822112 L974377 1823049 L975314 1823985 L976251 1825858 "/>
<path d="M943471 1836160 L945344 1835224 L947217 1833351 L950027 1830541 L951900 1829604 L953773 1829604 "/>
<path d="M952837 1834287 L954710 1833351 L956583 1831478 L957520 1827731 L957520 1821175 L956583 1817429 L954710 1815556 L952837 1814620 L949091 1814620 L947217 1815556 L945344 1817429 L944408 1821175 L944408 1827731 L945344 1831478 L947217 1833351 L949091 1834287 L952837 1834287 "/>
<path d="M935979 1823985 L929423 1823985 "/>
<path d="M926613 1834287 L935979 1834287 L935979 1814620 L926613 1814620 "/>
</g><path d="M1047897 1969947 L1047897 2062385 "/>
<path d="M1106900 2062385 L1106900 1969947 "/>
<path d="M1106900 2062385 L1047897 2062385 "/>
<g>
</g>
<g>
</g>
<g>
</g>
<g>
</g>
<g>
</g>
<g>
</g>
<g>
</g>
<g>
</g>
<g>
</g>
<g>
</g>
<g>
</g>
<g>
</g>
<g>
</g>
<g>
</g>
<g>
</g>
<g>
</g>
<g>
</g>
<g>
</g>
<g>
</g>
<g>
</g>
<g>
</g>
<g>
</g>
<g>
</g>
<g>
</g>
<g>
</g>
<g>
</g>
<g>
</g>
<g>
</g>
<g>
</g>
<g>
</g>
<g>
</g>
<g>
</g>
<g>
</g>
<g>
</g>
<g>
</g>
<g>
</g>
<g>
</g>
<g>
</g>
<g>
</g>
<g>
</g>
<g>
</g>
<g>
</g>
<g>
</g>
<g>
</g>
<g>
</g>
<g>
</g>
<g>
</g>
<g>
</g>
<g>
</g>
<g>
</g>
<g>
</g>
<g>
</g>
<g>
</g>
<g>
</g>
<g>
</g>
<g>
</g>
<g>
</g>
<g>
</g>
<g>
</g>
<g>
</g>
<g>
</g>
<g>
</g>
<g>
</g>
<g>
</g>
<g>
</g>
<g>
</g>
<g>
</g>
<g>
</g>
<g>
</g>
<g>
</g>
<g>
</g>
<g>
</g>
<g>
</g>
<g>
</g>
<g>
</g>
<g>
</g>
<g>
</g>
<g>
</g>
<g>
</g>
<g>
</g>
<g>
</g>
<g>
</g>
<g>
</g>
<g>
</g>
<g>
</g>
<g>
</g>
<g>
</g>
<g>
</g>
<g>
</g>
<g>
</g>
<g>
</g>
<g>
</g>
<g>
</g>
</g> 
<svg:g><svg:g><svg:title>SVG Picture created as DATALOGGER01-Edge_Cuts.svg date 2023/07/05 12:37:14 </svg:title>
  <svg:desc>Picture generated by PCBNEW </svg:desc>
<svg:g style="fill:#C2C200; fill-opacity:1.000000;stroke:#C2C200; stroke-opacity:1.000000; stroke-linecap:round; stroke-linejoin:round;" transform="translate(0 0) scale(1 1)">
</svg:g>
<svg:g style="fill:#C2C200; fill-opacity:0.0;  stroke:#C2C200; stroke-width:0.000000; stroke-opacity:1;  stroke-linecap:round; stroke-linejoin:round;">
</svg:g>
<svg:g style="fill:#C2C200; fill-opacity:0.0;  stroke:#C2C200; stroke-width:3933.529606; stroke-opacity:1;  stroke-linecap:round; stroke-linejoin:round;">
<svg:path d="M690713 1990244 L690713 2002 "/>
<svg:path d="M2279308 1990244 L2279308 2002 "/>
<svg:path d="M2279308 2002 L690713 2002 "/>
<svg:path d="M2279308 1990244 L690713 1990244 "/>
<svg:g>
</svg:g>
<svg:g>
</svg:g>
<svg:g>
</svg:g>
<svg:g>
</svg:g>
<svg:g>
</svg:g>
<svg:g>
</svg:g>
<svg:g>
</svg:g>
<svg:g>
</svg:g>
<svg:g>
</svg:g>
<svg:g>
</svg:g>
<svg:g>
</svg:g>
<svg:g>
</svg:g>
<svg:g>
</svg:g>
<svg:g>
</svg:g>
<svg:g>
</svg:g>
<svg:g>
</svg:g>
<svg:g>
</svg:g>
<svg:g>
</svg:g>
<svg:g>
</svg:g>
<svg:g>
</svg:g>
<svg:g>
</svg:g>
<svg:g>
</svg:g>
<svg:g>
</svg:g>
<svg:g>
</svg:g>
<svg:g>
</svg:g>
<svg:g>
</svg:g>
<svg:g>
</svg:g>
<svg:g>
</svg:g>
<svg:g>
</svg:g>
<svg:g>
</svg:g>
<svg:g>
</svg:g>
<svg:g>
</svg:g>
<svg:g>
</svg:g>
<svg:g>
</svg:g>
<svg:g>
</svg:g>
<svg:g>
</svg:g>
<svg:g>
</svg:g>
<svg:g>
</svg:g>
<svg:g>
</svg:g>
<svg:g>
</svg:g>
<svg:g>
</svg:g>
<svg:g>
</svg:g>
<svg:g>
</svg:g>
<svg:g>
</svg:g>
<svg:g>
</svg:g>
<svg:g>
</svg:g>
<svg:g>
</svg:g>
<svg:g>
</svg:g>
<svg:g>
</svg:g>
<svg:g>
</svg:g>
<svg:g>
</svg:g>
<svg:g>
</svg:g>
<svg:g>
</svg:g>
<svg:g>
</svg:g>
<svg:g>
</svg:g>
<svg:g>
</svg:g>
<svg:g>
</svg:g>
<svg:g>
</svg:g>
<svg:g>
</svg:g>
<svg:g>
</svg:g>
<svg:g>
</svg:g>
<svg:g>
</svg:g>
<svg:g>
</svg:g>
<svg:g>
</svg:g>
<svg:g>
</svg:g>
<svg:g>
</svg:g>
<svg:g>
</svg:g>
<svg:g>
</svg:g>
<svg:g>
</svg:g>
<svg:g>
</svg:g>
<svg:g>
</svg:g>
<svg:g>
</svg:g>
<svg:g>
</svg:g>
<svg:g>
</svg:g>
<svg:g>
</svg:g>
<svg:g>
</svg:g>
<svg:g>
</svg:g>
<svg:g>
</svg:g>
<svg:g>
</svg:g>
<svg:g>
</svg:g>
<svg:g>
</svg:g>
<svg:g>
</svg:g>
<svg:g>
</svg:g>
<svg:g>
</svg:g>
<svg:g>
</svg:g>
<svg:g>
</svg:g>
<svg:g>
</svg:g>
<svg:g>
</svg:g>
<svg:g>
</svg:g>
<svg:g>
</svg:g>
<svg:g>
</svg:g>
<svg:g>
</svg:g>
<svg:g>
</svg:g>
</svg:g> 
</svg:g></svg:g></svg>
