<?xml version='1.0' encoding='ASCII' standalone='yes'?>
<svg xmlns:svg="http://www.w3.org/2000/svg" xmlns="http://www.w3.org/2000/svg" xmlns:xlink="http://www.w3.org/1999/xlink" version="1.1" width="29.700220cm" height="21.000720cm" viewBox="0 0 2970022 2100072">
<title>SVG Picture created as DATALOGGER01-B_Fab.svg date 2023/07/05 12:37:14 </title>
  <desc>Picture generated by PCBNEW </desc>
<g style="fill:#000084; fill-opacity:1.000000;stroke:#000084; stroke-opacity:1.000000; stroke-linecap:round; stroke-linejoin:round;" transform="translate(0 0) scale(1 1)">
</g>
<g style="fill:#000084; fill-opacity:0.0;  stroke:#000084; stroke-width:0.000000; stroke-opacity:1;  stroke-linecap:round; stroke-linejoin:round;">
</g>
<g style="fill:#000084; fill-opacity:0.01;  stroke:#000084; stroke-width:3109.821111; stroke-opacity:1;  stroke-linecap:round; stroke-linejoin:round;">
<text x="1945782.830826" y="1020700.011847" transform="scale(-1 1) translate(-3891565.661651 0)" textLength="175729.543301" font-size="27642.847411" lengthAdjust="spacingAndGlyphs" text-anchor="middle" opacity="0.01" style="font-family:monospace">PCF85263A</text>
<g class="stroked-text"><desc>PCF85263A</desc>
<path d="M2028711 1019712 L2028711 998980 L2020813 998980 L2018838 999967 L2017851 1000955 L2016864 1002929 L2016864 1005891 L2017851 1007865 L2018838 1008853 L2020813 1009840 L2028711 1009840 "/>
<path d="M1996132 1017738 L1997119 1018725 L2000081 1019712 L2002055 1019712 L2005017 1018725 L2006991 1016751 L2007979 1014776 L2008966 1010827 L2008966 1007865 L2007979 1003916 L2006991 1001942 L2005017 999967 L2002055 998980 L2000081 998980 L1997119 999967 L1996132 1000955 "/>
<path d="M1980336 1008853 L1987247 1008853 "/>
<path d="M1987247 1019712 L1987247 998980 L1977374 998980 "/>
<path d="M1966514 1007865 L1968489 1006878 L1969476 1005891 L1970463 1003916 L1970463 1002929 L1969476 1000955 L1968489 999967 L1966514 998980 L1962565 998980 L1960591 999967 L1959604 1000955 L1958617 1002929 L1958617 1003916 L1959604 1005891 L1960591 1006878 L1962565 1007865 L1966514 1007865 L1968489 1008853 L1969476 1009840 L1970463 1011814 L1970463 1015763 L1969476 1017738 L1968489 1018725 L1966514 1019712 L1962565 1019712 L1960591 1018725 L1959604 1017738 L1958617 1015763 L1958617 1011814 L1959604 1009840 L1960591 1008853 L1962565 1007865 "/>
<path d="M1939859 998980 L1949731 998980 L1950719 1008853 L1949731 1007865 L1947757 1006878 L1942821 1006878 L1940846 1007865 L1939859 1008853 L1938872 1010827 L1938872 1015763 L1939859 1017738 L1940846 1018725 L1942821 1019712 L1947757 1019712 L1949731 1018725 L1950719 1017738 "/>
<path d="M1930974 1000955 L1929986 999967 L1928012 998980 L1923076 998980 L1921101 999967 L1920114 1000955 L1919127 1002929 L1919127 1004904 L1920114 1007865 L1931961 1019712 L1919127 1019712 "/>
<path d="M1901356 998980 L1905305 998980 L1907280 999967 L1908267 1000955 L1910242 1003916 L1911229 1007865 L1911229 1015763 L1910242 1017738 L1909254 1018725 L1907280 1019712 L1903331 1019712 L1901356 1018725 L1900369 1017738 L1899382 1015763 L1899382 1010827 L1900369 1008853 L1901356 1007865 L1903331 1006878 L1907280 1006878 L1909254 1007865 L1910242 1008853 L1911229 1010827 "/>
<path d="M1892471 998980 L1879637 998980 L1886548 1006878 L1883586 1006878 L1881611 1007865 L1880624 1008853 L1879637 1010827 L1879637 1015763 L1880624 1017738 L1881611 1018725 L1883586 1019712 L1889509 1019712 L1891484 1018725 L1892471 1017738 "/>
<path d="M1871739 1013789 L1861867 1013789 "/>
<path d="M1873713 1019712 L1866803 998980 L1859892 1019712 "/>
</g><text x="1406021.546618" y="1669926.999171" transform="scale(-1 1) translate(-2812043.093235 0)" textLength="127260.783675" font-size="27642.847411" lengthAdjust="spacingAndGlyphs" text-anchor="middle" opacity="0.01" style="font-family:monospace">MCC-SD</text>
<g class="stroked-text"><desc>MCC-SD</desc>
<path d="M1466737 1668939 L1466737 1648207 L1459826 1663016 L1452915 1648207 L1452915 1668939 "/>
<path d="M1431196 1666965 L1432183 1667952 L1435145 1668939 L1437119 1668939 L1440081 1667952 L1442055 1665978 L1443043 1664003 L1444030 1660054 L1444030 1657092 L1443043 1653143 L1442055 1651169 L1440081 1649194 L1437119 1648207 L1435145 1648207 L1432183 1649194 L1431196 1650182 "/>
<path d="M1410464 1666965 L1411451 1667952 L1414413 1668939 L1416387 1668939 L1419349 1667952 L1421323 1665978 L1422311 1664003 L1423298 1660054 L1423298 1657092 L1422311 1653143 L1421323 1651169 L1419349 1649194 L1416387 1648207 L1414413 1648207 L1411451 1649194 L1410464 1650182 "/>
<path d="M1401578 1661041 L1385783 1661041 "/>
<path d="M1376897 1667952 L1373936 1668939 L1368999 1668939 L1367025 1667952 L1366038 1666965 L1365050 1664990 L1365050 1663016 L1366038 1661041 L1367025 1660054 L1368999 1659067 L1372948 1658080 L1374923 1657092 L1375910 1656105 L1376897 1654131 L1376897 1652156 L1375910 1650182 L1374923 1649194 L1372948 1648207 L1368012 1648207 L1365050 1649194 "/>
<path d="M1356165 1668939 L1356165 1648207 L1351229 1648207 L1348267 1649194 L1346293 1651169 L1345305 1653143 L1344318 1657092 L1344318 1660054 L1345305 1664003 L1346293 1665978 L1348267 1667952 L1351229 1668939 L1356165 1668939 "/>
</g><text x="1406021.546618" y="1628462.717687" transform="scale(-1 1) translate(-2812043.093235 0)" textLength="31498.051179" font-size="27642.847411" lengthAdjust="spacingAndGlyphs" text-anchor="middle" opacity="0.01" style="font-family:monospace">J7</text>
<g class="stroked-text"><desc>J7</desc>
<path d="M1412932 1606743 L1412932 1621551 L1413919 1624513 L1415893 1626488 L1418855 1627475 L1420830 1627475 "/>
<path d="M1405034 1606743 L1391212 1606743 L1400098 1627475 "/>
</g><text x="1998649.789717" y="1345158.014453" transform="scale(-1 1) translate(-3997299.579434 0)" textLength="218087.317853" font-size="27642.847411" lengthAdjust="spacingAndGlyphs" text-anchor="middle" opacity="0.01" style="font-family:monospace">TPS22965-Q1</text>
<g class="stroked-text"><desc>TPS22965-Q1</desc>
<path d="M2107740 1323438 L2095893 1323438 "/>
<path d="M2101816 1344170 L2101816 1323438 "/>
<path d="M2088982 1344170 L2088982 1323438 L2081084 1323438 L2079110 1324425 L2078122 1325413 L2077135 1327387 L2077135 1330349 L2078122 1332323 L2079110 1333311 L2081084 1334298 L2088982 1334298 "/>
<path d="M2069237 1343183 L2066276 1344170 L2061339 1344170 L2059365 1343183 L2058378 1342196 L2057390 1340221 L2057390 1338247 L2058378 1336272 L2059365 1335285 L2061339 1334298 L2065288 1333311 L2067263 1332323 L2068250 1331336 L2069237 1329362 L2069237 1327387 L2068250 1325413 L2067263 1324425 L2065288 1323438 L2060352 1323438 L2057390 1324425 "/>
<path d="M2049492 1325413 L2048505 1324425 L2046531 1323438 L2041594 1323438 L2039620 1324425 L2038633 1325413 L2037645 1327387 L2037645 1329362 L2038633 1332323 L2050480 1344170 L2037645 1344170 "/>
<path d="M2029748 1325413 L2028760 1324425 L2026786 1323438 L2021850 1323438 L2019875 1324425 L2018888 1325413 L2017901 1327387 L2017901 1329362 L2018888 1332323 L2030735 1344170 L2017901 1344170 "/>
<path d="M2008028 1344170 L2004079 1344170 L2002105 1343183 L2001117 1342196 L1999143 1339234 L1998156 1335285 L1998156 1327387 L1999143 1325413 L2000130 1324425 L2002105 1323438 L2006054 1323438 L2008028 1324425 L2009015 1325413 L2010003 1327387 L2010003 1332323 L2009015 1334298 L2008028 1335285 L2006054 1336272 L2002105 1336272 L2000130 1335285 L1999143 1334298 L1998156 1332323 "/>
<path d="M1980385 1323438 L1984334 1323438 L1986309 1324425 L1987296 1325413 L1989270 1328374 L1990258 1332323 L1990258 1340221 L1989270 1342196 L1988283 1343183 L1986309 1344170 L1982360 1344170 L1980385 1343183 L1979398 1342196 L1978411 1340221 L1978411 1335285 L1979398 1333311 L1980385 1332323 L1982360 1331336 L1986309 1331336 L1988283 1332323 L1989270 1333311 L1990258 1335285 "/>
<path d="M1959653 1323438 L1969526 1323438 L1970513 1333311 L1969526 1332323 L1967551 1331336 L1962615 1331336 L1960640 1332323 L1959653 1333311 L1958666 1335285 L1958666 1340221 L1959653 1342196 L1960640 1343183 L1962615 1344170 L1967551 1344170 L1969526 1343183 L1970513 1342196 "/>
<path d="M1949781 1336272 L1933985 1336272 "/>
<path d="M1910291 1346145 L1912265 1345158 L1914240 1343183 L1917202 1340221 L1919176 1339234 L1921151 1339234 "/>
<path d="M1920163 1344170 L1922138 1343183 L1924112 1341209 L1925100 1337260 L1925100 1330349 L1924112 1326400 L1922138 1324425 L1920163 1323438 L1916214 1323438 L1914240 1324425 L1912265 1326400 L1911278 1330349 L1911278 1337260 L1912265 1341209 L1914240 1343183 L1916214 1344170 L1920163 1344170 "/>
<path d="M1891533 1344170 L1903380 1344170 "/>
<path d="M1897457 1344170 L1897457 1323438 L1899431 1326400 L1901406 1328374 L1903380 1329362 "/>
</g></g>
<g style="fill:#000084; fill-opacity:0.01;  stroke:#000084; stroke-width:2073.214074; stroke-opacity:1;  stroke-linecap:round; stroke-linejoin:round;">
<text x="1998442.468309" y="1386414.974529" transform="scale(-1 1) translate(-3996884.936619 0)" textLength="24982.229594" font-size="19349.991115" lengthAdjust="spacingAndGlyphs" text-anchor="middle" opacity="0.01" style="font-family:monospace">U2</text>
<g class="stroked-text"><desc>U2</desc>
<path d="M2009499 1371211 L2009499 1382959 L2008808 1384341 L2008117 1385032 L2006735 1385723 L2003971 1385723 L2002588 1385032 L2001897 1384341 L2001206 1382959 L2001206 1371211 "/>
<path d="M1994987 1372593 L1994296 1371902 L1992913 1371211 L1989458 1371211 L1988076 1371902 L1987385 1372593 L1986694 1373975 L1986694 1375357 L1987385 1377431 L1995678 1385723 L1986694 1385723 "/>
</g></g>
<g style="fill:#000084; fill-opacity:0.01;  stroke:#000084; stroke-width:3109.821111; stroke-opacity:1;  stroke-linecap:round; stroke-linejoin:round;">
<text x="1814133.737116" y="569775.950717" transform="scale(-1 1) translate(-3628267.474233 0)" textLength="276695.089444" font-size="27642.847411" lengthAdjust="spacingAndGlyphs" text-anchor="middle" opacity="0.01" style="font-family:monospace">ATMEGA1284P-AU</text>
<g class="stroked-text"><desc>ATMEGA1284P-AU</desc>
<path d="M1949879 562865 L1940007 562865 "/>
<path d="M1951854 568788 L1944943 548056 L1938032 568788 "/>
<path d="M1934083 548056 L1922237 548056 "/>
<path d="M1928160 568788 L1928160 548056 "/>
<path d="M1915326 568788 L1915326 548056 L1908415 562865 L1901504 548056 L1901504 568788 "/>
<path d="M1891632 557929 L1884721 557929 "/>
<path d="M1881759 568788 L1891632 568788 L1891632 548056 L1881759 548056 "/>
<path d="M1862015 549043 L1863989 548056 L1866951 548056 L1869913 549043 L1871887 551018 L1872874 552992 L1873862 556941 L1873862 559903 L1872874 563852 L1871887 565826 L1869913 567801 L1866951 568788 L1864976 568788 L1862015 567801 L1861027 566814 L1861027 559903 L1864976 559903 "/>
<path d="M1853129 562865 L1843257 562865 "/>
<path d="M1855104 568788 L1848193 548056 L1841282 568788 "/>
<path d="M1823512 568788 L1835359 568788 "/>
<path d="M1829436 568788 L1829436 548056 L1831410 551018 L1833385 552992 L1835359 553980 "/>
<path d="M1815614 550031 L1814627 549043 L1812652 548056 L1807716 548056 L1805742 549043 L1804754 550031 L1803767 552005 L1803767 553980 L1804754 556941 L1816601 568788 L1803767 568788 "/>
<path d="M1791920 556941 L1793895 555954 L1794882 554967 L1795869 552992 L1795869 552005 L1794882 550031 L1793895 549043 L1791920 548056 L1787971 548056 L1785997 549043 L1785010 550031 L1784022 552005 L1784022 552992 L1785010 554967 L1785997 555954 L1787971 556941 L1791920 556941 L1793895 557929 L1794882 558916 L1795869 560890 L1795869 564839 L1794882 566814 L1793895 567801 L1791920 568788 L1787971 568788 L1785997 567801 L1785010 566814 L1784022 564839 L1784022 560890 L1785010 558916 L1785997 557929 L1787971 556941 "/>
<path d="M1766252 554967 L1766252 568788 "/>
<path d="M1771188 547069 L1776124 561877 L1763290 561877 "/>
<path d="M1755392 568788 L1755392 548056 L1747494 548056 L1745520 549043 L1744532 550031 L1743545 552005 L1743545 554967 L1744532 556941 L1745520 557929 L1747494 558916 L1755392 558916 "/>
<path d="M1734660 560890 L1718864 560890 "/>
<path d="M1709979 562865 L1700106 562865 "/>
<path d="M1711953 568788 L1705043 548056 L1698132 568788 "/>
<path d="M1691221 548056 L1691221 564839 L1690234 566814 L1689247 567801 L1687272 568788 L1683323 568788 L1681349 567801 L1680362 566814 L1679374 564839 L1679374 548056 "/>
</g><text x="1814133.737116" y="415321.502192" transform="scale(-1 1) translate(-3628267.474233 0)" textLength="37421.514039" font-size="27642.847411" lengthAdjust="spacingAndGlyphs" text-anchor="middle" opacity="0.01" style="font-family:monospace">U3</text>
<g class="stroked-text"><desc>U3</desc>
<path d="M1829929 393602 L1829929 410385 L1828942 412359 L1827955 413346 L1825980 414334 L1822031 414334 L1820057 413346 L1819069 412359 L1818082 410385 L1818082 393602 "/>
<path d="M1810184 393602 L1797350 393602 L1804261 401500 L1801299 401500 L1799325 402487 L1798337 403474 L1797350 405449 L1797350 410385 L1798337 412359 L1799325 413346 L1801299 414334 L1807223 414334 L1809197 413346 L1810184 412359 "/>
</g><text x="1399439.091932" y="291084.148798" transform="scale(-1 1) translate(-2798878.183864 0)" textLength="334582.191091" font-size="27642.847411" lengthAdjust="spacingAndGlyphs" text-anchor="middle" opacity="0.01" style="font-family:monospace">ISL21080CIH320Z-TK</text>
<g class="stroked-text"><desc>ISL21080CIH320Z-TK</desc>
<path d="M1563815 290096 L1563815 269364 "/>
<path d="M1554930 289109 L1551968 290096 L1547032 290096 L1545057 289109 L1544070 288122 L1543083 286147 L1543083 284173 L1544070 282198 L1545057 281211 L1547032 280224 L1550981 279237 L1552955 278249 L1553942 277262 L1554930 275288 L1554930 273313 L1553942 271339 L1552955 270352 L1550981 269364 L1546044 269364 L1543083 270352 "/>
<path d="M1524325 290096 L1534198 290096 L1534198 269364 "/>
<path d="M1518402 271339 L1517414 270352 L1515440 269364 L1510504 269364 L1508529 270352 L1507542 271339 L1506555 273313 L1506555 275288 L1507542 278249 L1519389 290096 L1506555 290096 "/>
<path d="M1486810 290096 L1498657 290096 "/>
<path d="M1492733 290096 L1492733 269364 L1494708 272326 L1496682 274300 L1498657 275288 "/>
<path d="M1473976 269364 L1472001 269364 L1470027 270352 L1469039 271339 L1468052 273313 L1467065 277262 L1467065 282198 L1468052 286147 L1469039 288122 L1470027 289109 L1472001 290096 L1473976 290096 L1475950 289109 L1476937 288122 L1477925 286147 L1478912 282198 L1478912 277262 L1477925 273313 L1476937 271339 L1475950 270352 L1473976 269364 "/>
<path d="M1455218 278249 L1457192 277262 L1458180 276275 L1459167 274300 L1459167 273313 L1458180 271339 L1457192 270352 L1455218 269364 L1451269 269364 L1449294 270352 L1448307 271339 L1447320 273313 L1447320 274300 L1448307 276275 L1449294 277262 L1451269 278249 L1455218 278249 L1457192 279237 L1458180 280224 L1459167 282198 L1459167 286147 L1458180 288122 L1457192 289109 L1455218 290096 L1451269 290096 L1449294 289109 L1448307 288122 L1447320 286147 L1447320 282198 L1448307 280224 L1449294 279237 L1451269 278249 "/>
<path d="M1434486 269364 L1432511 269364 L1430537 270352 L1429550 271339 L1428562 273313 L1427575 277262 L1427575 282198 L1428562 286147 L1429550 288122 L1430537 289109 L1432511 290096 L1434486 290096 L1436460 289109 L1437448 288122 L1438435 286147 L1439422 282198 L1439422 277262 L1438435 273313 L1437448 271339 L1436460 270352 L1434486 269364 "/>
<path d="M1406843 288122 L1407830 289109 L1410792 290096 L1412766 290096 L1415728 289109 L1417703 287135 L1418690 285160 L1419677 281211 L1419677 278249 L1418690 274300 L1417703 272326 L1415728 270352 L1412766 269364 L1410792 269364 L1407830 270352 L1406843 271339 "/>
<path d="M1397958 290096 L1397958 269364 "/>
<path d="M1388085 290096 L1388085 269364 "/>
<path d="M1388085 279237 L1376238 279237 "/>
<path d="M1376238 290096 L1376238 269364 "/>
<path d="M1368340 269364 L1355506 269364 L1362417 277262 L1359455 277262 L1357481 278249 L1356493 279237 L1355506 281211 L1355506 286147 L1356493 288122 L1357481 289109 L1359455 290096 L1365379 290096 L1367353 289109 L1368340 288122 "/>
<path d="M1347608 271339 L1346621 270352 L1344646 269364 L1339710 269364 L1337736 270352 L1336749 271339 L1335761 273313 L1335761 275288 L1336749 278249 L1348595 290096 L1335761 290096 "/>
<path d="M1322927 269364 L1320953 269364 L1318978 270352 L1317991 271339 L1317004 273313 L1316016 277262 L1316016 282198 L1317004 286147 L1317991 288122 L1318978 289109 L1320953 290096 L1322927 290096 L1324902 289109 L1325889 288122 L1326876 286147 L1327863 282198 L1327863 277262 L1326876 273313 L1325889 271339 L1324902 270352 L1322927 269364 "/>
<path d="M1309106 269364 L1295284 269364 L1309106 290096 L1295284 290096 "/>
<path d="M1287386 282198 L1271590 282198 "/>
<path d="M1264680 269364 L1252833 269364 "/>
<path d="M1258756 290096 L1258756 269364 "/>
<path d="M1245922 290096 L1245922 269364 "/>
<path d="M1234075 290096 L1242960 278249 "/>
<path d="M1234075 269364 L1245922 281211 "/>
</g></g>
<g style="fill:#000084; fill-opacity:0.0;  stroke:#000084; stroke-width:1554.910556; stroke-opacity:1;  stroke-linecap:round; stroke-linejoin:round;">
<g transform="rotate(-90.000000 1399439.091932 332548.430281)">
<text x="1399439.091932" y="337731.465466" transform="scale(-1 1) translate(-2798878.183864 0)" textLength="16689.373297" font-size="13821.413340" lengthAdjust="spacingAndGlyphs" text-anchor="middle" opacity="0.01" style="font-family:monospace">U1</text>
</g>
<g class="stroked-text"><desc>U1</desc>
<path d="M1393762 324650 L1402154 324650 L1403141 325144 L1403634 325637 L1404128 326624 L1404128 328599 L1403634 329586 L1403141 330080 L1402154 330573 L1393762 330573 "/>
<path d="M1404128 340939 L1404128 335016 "/>
<path d="M1404128 337978 L1393762 337978 L1395243 336991 L1396230 336003 L1396724 335016 "/>
</g></g>
<g style="fill:#000084; fill-opacity:0.01;  stroke:#000084; stroke-width:3109.821111; stroke-opacity:1;  stroke-linecap:round; stroke-linejoin:round;">
<text x="1419186.455989" y="997376.353513" transform="scale(-1 1) translate(-2838372.911977 0)" textLength="306986.239782" font-size="27642.847411" lengthAdjust="spacingAndGlyphs" text-anchor="middle" opacity="0.01" style="font-family:monospace">Battery_Cell-device</text>
<g class="stroked-text"><desc>Battery_Cell-device</desc>
<path d="M1561843 985529 L1558881 986516 L1557894 987503 L1556907 989478 L1556907 992440 L1557894 994414 L1558881 995401 L1560856 996389 L1568754 996389 L1568754 975656 L1561843 975656 L1559868 976644 L1558881 977631 L1557894 979605 L1557894 981580 L1558881 983554 L1559868 984542 L1561843 985529 L1568754 985529 "/>
<path d="M1539136 996389 L1539136 985529 L1540123 983554 L1542098 982567 L1546047 982567 L1548021 983554 "/>
<path d="M1539136 995401 L1541111 996389 L1546047 996389 L1548021 995401 L1549009 993427 L1549009 991452 L1548021 989478 L1546047 988491 L1541111 988491 L1539136 987503 "/>
<path d="M1532225 982567 L1524328 982567 "/>
<path d="M1529264 975656 L1529264 993427 L1528276 995401 L1526302 996389 L1524328 996389 "/>
<path d="M1520379 982567 L1512481 982567 "/>
<path d="M1517417 975656 L1517417 993427 L1516430 995401 L1514455 996389 L1512481 996389 "/>
<path d="M1497672 995401 L1499646 996389 L1503595 996389 L1505570 995401 L1506557 993427 L1506557 985529 L1505570 983554 L1503595 982567 L1499646 982567 L1497672 983554 L1496685 985529 L1496685 987503 L1506557 989478 "/>
<path d="M1487799 996389 L1487799 982567 "/>
<path d="M1487799 986516 L1486812 984542 L1485825 983554 L1483850 982567 L1481876 982567 "/>
<path d="M1476940 982567 L1472004 996389 "/>
<path d="M1467067 982567 L1472004 996389 L1473978 1001325 L1474965 1002312 L1476940 1003299 "/>
<path d="M1464106 998363 L1448310 998363 "/>
<path d="M1431527 994414 L1432514 995401 L1435475 996389 L1437450 996389 L1440412 995401 L1442386 993427 L1443373 991452 L1444361 987503 L1444361 984542 L1443373 980593 L1442386 978618 L1440412 976644 L1437450 975656 L1435475 975656 L1432514 976644 L1431527 977631 "/>
<path d="M1414743 995401 L1416718 996389 L1420667 996389 L1422641 995401 L1423629 993427 L1423629 985529 L1422641 983554 L1420667 982567 L1416718 982567 L1414743 983554 L1413756 985529 L1413756 987503 L1423629 989478 "/>
<path d="M1401909 996389 L1403884 995401 L1404871 993427 L1404871 975656 "/>
<path d="M1391049 996389 L1393024 995401 L1394011 993427 L1394011 975656 "/>
<path d="M1383152 988491 L1367356 988491 "/>
<path d="M1348598 996389 L1348598 975656 "/>
<path d="M1348598 995401 L1350572 996389 L1354521 996389 L1356496 995401 L1357483 994414 L1358470 992440 L1358470 986516 L1357483 984542 L1356496 983554 L1354521 982567 L1350572 982567 L1348598 983554 "/>
<path d="M1330828 995401 L1332802 996389 L1336751 996389 L1338725 995401 L1339713 993427 L1339713 985529 L1338725 983554 L1336751 982567 L1332802 982567 L1330828 983554 L1329840 985529 L1329840 987503 L1339713 989478 "/>
<path d="M1322930 982567 L1317993 996389 L1313057 982567 "/>
<path d="M1305159 996389 L1305159 982567 "/>
<path d="M1305159 975656 L1306146 976644 L1305159 977631 L1304172 976644 L1305159 975656 L1305159 977631 "/>
<path d="M1286402 995401 L1288376 996389 L1292325 996389 L1294299 995401 L1295287 994414 L1296274 992440 L1296274 986516 L1295287 984542 L1294299 983554 L1292325 982567 L1288376 982567 L1286402 983554 "/>
<path d="M1269618 995401 L1271593 996389 L1275542 996389 L1277516 995401 L1278504 993427 L1278504 985529 L1277516 983554 L1275542 982567 L1271593 982567 L1269618 983554 L1268631 985529 L1268631 987503 L1278504 989478 "/>
</g><text x="1249027.410852" y="394744.852506" transform="scale(-1 1) translate(-2498054.821704 0)" textLength="464898.519133" font-size="27642.847411" lengthAdjust="spacingAndGlyphs" text-anchor="middle" opacity="0.01" style="font-family:monospace">LM4041CIM3-1.2(neosazovat)</text>
<g class="stroked-text"><desc>LM4041CIM3-1.2(neosazovat)</desc>
<path d="M1468689 393757 L1478561 393757 L1478561 373025 "/>
<path d="M1461778 393757 L1461778 373025 L1454867 387834 L1447957 373025 L1447957 393757 "/>
<path d="M1429199 379936 L1429199 393757 "/>
<path d="M1434135 372038 L1439072 386846 L1426237 386846 "/>
<path d="M1414390 373025 L1412416 373025 L1410441 374012 L1409454 374999 L1408467 376974 L1407480 380923 L1407480 385859 L1408467 389808 L1409454 391783 L1410441 392770 L1412416 393757 L1414390 393757 L1416365 392770 L1417352 391783 L1418339 389808 L1419327 385859 L1419327 380923 L1418339 376974 L1417352 374999 L1416365 374012 L1414390 373025 "/>
<path d="M1389709 379936 L1389709 393757 "/>
<path d="M1394646 372038 L1399582 386846 L1386748 386846 "/>
<path d="M1367990 393757 L1379837 393757 "/>
<path d="M1373913 393757 L1373913 373025 L1375888 375987 L1377862 377961 L1379837 378948 "/>
<path d="M1347258 391783 L1348245 392770 L1351207 393757 L1353181 393757 L1356143 392770 L1358117 390795 L1359105 388821 L1360092 384872 L1360092 381910 L1359105 377961 L1358117 375987 L1356143 374012 L1353181 373025 L1351207 373025 L1348245 374012 L1347258 374999 "/>
<path d="M1338373 393757 L1338373 373025 "/>
<path d="M1328500 393757 L1328500 373025 L1321589 387834 L1314679 373025 L1314679 393757 "/>
<path d="M1306781 373025 L1293947 373025 L1300857 380923 L1297896 380923 L1295921 381910 L1294934 382897 L1293947 384872 L1293947 389808 L1294934 391783 L1295921 392770 L1297896 393757 L1303819 393757 L1305793 392770 L1306781 391783 "/>
<path d="M1285061 385859 L1269265 385859 "/>
<path d="M1248533 393757 L1260380 393757 "/>
<path d="M1254457 393757 L1254457 373025 L1256431 375987 L1258406 377961 L1260380 378948 "/>
<path d="M1239648 391783 L1238661 392770 L1239648 393757 L1240635 392770 L1239648 391783 L1239648 393757 "/>
<path d="M1230763 374999 L1229776 374012 L1227801 373025 L1222865 373025 L1220890 374012 L1219903 374999 L1218916 376974 L1218916 378948 L1219903 381910 L1231750 393757 L1218916 393757 "/>
<path d="M1204107 401655 L1205095 400668 L1207069 397706 L1208056 395732 L1209043 392770 L1210031 387834 L1210031 383885 L1209043 378948 L1208056 375987 L1207069 374012 L1205095 371050 L1204107 370063 "/>
<path d="M1196209 379936 L1196209 393757 "/>
<path d="M1196209 381910 L1195222 380923 L1193248 379936 L1190286 379936 L1188311 380923 L1187324 382897 L1187324 393757 "/>
<path d="M1169554 392770 L1171528 393757 L1175477 393757 L1177452 392770 L1178439 390795 L1178439 382897 L1177452 380923 L1175477 379936 L1171528 379936 L1169554 380923 L1168566 382897 L1168566 384872 L1178439 386846 "/>
<path d="M1156720 393757 L1158694 392770 L1159681 391783 L1160668 389808 L1160668 383885 L1159681 381910 L1158694 380923 L1156720 379936 L1153758 379936 L1151783 380923 L1150796 381910 L1149809 383885 L1149809 389808 L1150796 391783 L1151783 392770 L1153758 393757 L1156720 393757 "/>
<path d="M1141911 392770 L1139936 393757 L1135987 393757 L1134013 392770 L1133026 390795 L1133026 389808 L1134013 387834 L1135987 386846 L1138949 386846 L1140924 385859 L1141911 383885 L1141911 382897 L1140924 380923 L1138949 379936 L1135987 379936 L1134013 380923 "/>
<path d="M1115255 393757 L1115255 382897 L1116242 380923 L1118217 379936 L1122166 379936 L1124140 380923 "/>
<path d="M1115255 392770 L1117230 393757 L1122166 393757 L1124140 392770 L1125128 390795 L1125128 388821 L1124140 386846 L1122166 385859 L1117230 385859 L1115255 384872 "/>
<path d="M1107357 379936 L1096498 379936 L1107357 393757 L1096498 393757 "/>
<path d="M1085638 393757 L1087612 392770 L1088600 391783 L1089587 389808 L1089587 383885 L1088600 381910 L1087612 380923 L1085638 379936 L1082676 379936 L1080702 380923 L1079714 381910 L1078727 383885 L1078727 389808 L1079714 391783 L1080702 392770 L1082676 393757 L1085638 393757 "/>
<path d="M1071816 379936 L1066880 393757 L1061944 379936 "/>
<path d="M1045161 393757 L1045161 382897 L1046148 380923 L1048123 379936 L1052072 379936 L1054046 380923 "/>
<path d="M1045161 392770 L1047135 393757 L1052072 393757 L1054046 392770 L1055033 390795 L1055033 388821 L1054046 386846 L1052072 385859 L1047135 385859 L1045161 384872 "/>
<path d="M1038250 379936 L1030352 379936 "/>
<path d="M1035288 373025 L1035288 390795 L1034301 392770 L1032327 393757 L1030352 393757 "/>
<path d="M1025416 401655 L1024429 400668 L1022454 397706 L1021467 395732 L1020480 392770 L1019492 387834 L1019492 383885 L1020480 378948 L1021467 375987 L1022454 374012 L1024429 371050 L1025416 370063 "/>
</g></g>
<g style="fill:#000084; fill-opacity:0.0;  stroke:#000084; stroke-width:1554.910556; stroke-opacity:1;  stroke-linecap:round; stroke-linejoin:round;">
<g transform="rotate(-90.000000 1249027.410852 332548.430281)">
<text x="1249027.410852" y="337731.465466" transform="scale(-1 1) translate(-2498054.821704 0)" textLength="16689.373297" font-size="13821.413340" lengthAdjust="spacingAndGlyphs" text-anchor="middle" opacity="0.01" style="font-family:monospace">U5</text>
</g>
<g class="stroked-text"><desc>U5</desc>
<path d="M1243350 324650 L1251742 324650 L1252729 325144 L1253223 325637 L1253716 326624 L1253716 328599 L1253223 329586 L1252729 330080 L1251742 330573 L1243350 330573 "/>
<path d="M1243350 340446 L1243350 335510 L1248286 335016 L1247793 335510 L1247299 336497 L1247299 338965 L1247793 339952 L1248286 340446 L1249274 340939 L1251742 340939 L1252729 340446 L1253223 339952 L1253716 338965 L1253716 336497 L1253223 335510 L1252729 335016 "/>
</g></g>
<g style="fill:#000084; fill-opacity:0.01;  stroke:#000084; stroke-width:3109.821111; stroke-opacity:1;  stroke-linecap:round; stroke-linejoin:round;">
<text x="1406021.546618" y="1906895.367847" transform="scale(-1 1) translate(-2812043.093235 0)" textLength="424468.377562" font-size="27642.847411" lengthAdjust="spacingAndGlyphs" text-anchor="middle" opacity="0.01" style="font-family:monospace">MCC-SD (kouka z modulu)</text>
<g class="stroked-text"><desc>MCC-SD (kouka z modulu)</desc>
<path d="M1614330 1905908 L1614330 1885175 L1607419 1899984 L1600508 1885175 L1600508 1905908 "/>
<path d="M1578789 1903933 L1579776 1904920 L1582738 1905908 L1584712 1905908 L1587674 1904920 L1589649 1902946 L1590636 1900971 L1591623 1897022 L1591623 1894061 L1590636 1890112 L1589649 1888137 L1587674 1886163 L1584712 1885175 L1582738 1885175 L1579776 1886163 L1578789 1887150 "/>
<path d="M1558057 1903933 L1559044 1904920 L1562006 1905908 L1563980 1905908 L1566942 1904920 L1568916 1902946 L1569904 1900971 L1570891 1897022 L1570891 1894061 L1569904 1890112 L1568916 1888137 L1566942 1886163 L1563980 1885175 L1562006 1885175 L1559044 1886163 L1558057 1887150 "/>
<path d="M1549172 1898010 L1533376 1898010 "/>
<path d="M1524490 1904920 L1521529 1905908 L1516592 1905908 L1514618 1904920 L1513631 1903933 L1512643 1901959 L1512643 1899984 L1513631 1898010 L1514618 1897022 L1516592 1896035 L1520541 1895048 L1522516 1894061 L1523503 1893073 L1524490 1891099 L1524490 1889124 L1523503 1887150 L1522516 1886163 L1520541 1885175 L1515605 1885175 L1512643 1886163 "/>
<path d="M1503758 1905908 L1503758 1885175 L1498822 1885175 L1495860 1886163 L1493886 1888137 L1492899 1890112 L1491911 1894061 L1491911 1897022 L1492899 1900971 L1493886 1902946 L1495860 1904920 L1498822 1905908 L1503758 1905908 "/>
<path d="M1461307 1913806 L1462294 1912818 L1464268 1909857 L1465256 1907882 L1466243 1904920 L1467230 1899984 L1467230 1896035 L1466243 1891099 L1465256 1888137 L1464268 1886163 L1462294 1883201 L1461307 1882214 "/>
<path d="M1453409 1905908 L1453409 1885175 "/>
<path d="M1451434 1898010 L1445511 1905908 "/>
<path d="M1445511 1892086 L1453409 1899984 "/>
<path d="M1433664 1905908 L1435638 1904920 L1436626 1903933 L1437613 1901959 L1437613 1896035 L1436626 1894061 L1435638 1893073 L1433664 1892086 L1430702 1892086 L1428728 1893073 L1427740 1894061 L1426753 1896035 L1426753 1901959 L1427740 1903933 L1428728 1904920 L1430702 1905908 L1433664 1905908 "/>
<path d="M1408983 1892086 L1408983 1905908 "/>
<path d="M1417868 1892086 L1417868 1902946 L1416881 1904920 L1414906 1905908 L1411945 1905908 L1409970 1904920 L1408983 1903933 "/>
<path d="M1399110 1905908 L1399110 1885175 "/>
<path d="M1397136 1898010 L1391212 1905908 "/>
<path d="M1391212 1892086 L1399110 1899984 "/>
<path d="M1373442 1905908 L1373442 1895048 L1374429 1893073 L1376404 1892086 L1380353 1892086 L1382327 1893073 "/>
<path d="M1373442 1904920 L1375416 1905908 L1380353 1905908 L1382327 1904920 L1383314 1902946 L1383314 1900971 L1382327 1898997 L1380353 1898010 L1375416 1898010 L1373442 1897022 "/>
<path d="M1349748 1892086 L1338888 1892086 L1349748 1905908 L1338888 1905908 "/>
<path d="M1315195 1905908 L1315195 1892086 "/>
<path d="M1315195 1894061 L1314207 1893073 L1312233 1892086 L1309271 1892086 L1307297 1893073 L1306309 1895048 L1306309 1905908 "/>
<path d="M1306309 1895048 L1305322 1893073 L1303348 1892086 L1300386 1892086 L1298411 1893073 L1297424 1895048 L1297424 1905908 "/>
<path d="M1284590 1905908 L1286564 1904920 L1287552 1903933 L1288539 1901959 L1288539 1896035 L1287552 1894061 L1286564 1893073 L1284590 1892086 L1281628 1892086 L1279654 1893073 L1278666 1894061 L1277679 1896035 L1277679 1901959 L1278666 1903933 L1279654 1904920 L1281628 1905908 L1284590 1905908 "/>
<path d="M1259909 1905908 L1259909 1885175 "/>
<path d="M1259909 1904920 L1261883 1905908 L1265832 1905908 L1267807 1904920 L1268794 1903933 L1269781 1901959 L1269781 1896035 L1268794 1894061 L1267807 1893073 L1265832 1892086 L1261883 1892086 L1259909 1893073 "/>
<path d="M1241151 1892086 L1241151 1905908 "/>
<path d="M1250036 1892086 L1250036 1902946 L1249049 1904920 L1247075 1905908 L1244113 1905908 L1242138 1904920 L1241151 1903933 "/>
<path d="M1228317 1905908 L1230291 1904920 L1231279 1902946 L1231279 1885175 "/>
<path d="M1211534 1892086 L1211534 1905908 "/>
<path d="M1220419 1892086 L1220419 1902946 L1219432 1904920 L1217457 1905908 L1214496 1905908 L1212521 1904920 L1211534 1903933 "/>
<path d="M1203636 1913806 L1202649 1912818 L1200674 1909857 L1199687 1907882 L1198700 1904920 L1197712 1899984 L1197712 1896035 L1198700 1891099 L1199687 1888137 L1200674 1886163 L1202649 1883201 L1203636 1882214 "/>
</g><text x="1406021.546618" y="1865431.086364" transform="scale(-1 1) translate(-2812043.093235 0)" textLength="51242.948110" font-size="27642.847411" lengthAdjust="spacingAndGlyphs" text-anchor="middle" opacity="0.01" style="font-family:monospace">J34</text>
<g class="stroked-text"><desc>J34</desc>
<path d="M1422804 1843711 L1422804 1858520 L1423791 1861482 L1425766 1863456 L1428728 1864443 L1430702 1864443 "/>
<path d="M1414906 1843711 L1402072 1843711 L1408983 1851609 L1406021 1851609 L1404047 1852596 L1403059 1853584 L1402072 1855558 L1402072 1860494 L1403059 1862469 L1404047 1863456 L1406021 1864443 L1411945 1864443 L1413919 1863456 L1414906 1862469 "/>
<path d="M1384302 1850622 L1384302 1864443 "/>
<path d="M1389238 1842724 L1394174 1857533 L1381340 1857533 "/>
</g></g>
<g style="fill:#000084; fill-opacity:0.01;  stroke:#000084; stroke-width:1658.571259; stroke-opacity:1;  stroke-linecap:round; stroke-linejoin:round;">
<g transform="rotate(-90.000000 1893123.193342 793320.258263)">
<text x="1893123.193342" y="798503.293449" transform="scale(-1 1) translate(-3786246.386684 0)" textLength="26068.199858" font-size="13821.413340" lengthAdjust="spacingAndGlyphs" text-anchor="middle" opacity="0.01" style="font-family:monospace">C22</text>
</g>
<g class="stroked-text"><desc>C22</desc>
<path d="M1896825 786656 L1897318 786162 L1897812 784681 L1897812 783694 L1897318 782213 L1896331 781226 L1895344 780732 L1893369 780239 L1891889 780239 L1889914 780732 L1888927 781226 L1887940 782213 L1887446 783694 L1887446 784681 L1887940 786162 L1888433 786656 "/>
<path d="M1888433 790605 L1887940 791098 L1887446 792086 L1887446 794554 L1887940 795541 L1888433 796035 L1889421 796528 L1890408 796528 L1891889 796035 L1897812 790111 L1897812 796528 "/>
<path d="M1888433 800477 L1887940 800971 L1887446 801958 L1887446 804426 L1887940 805414 L1888433 805907 L1889421 806401 L1890408 806401 L1891889 805907 L1897812 799984 L1897812 806401 "/>
</g><g transform="rotate(-90.000000 2011607.377680 852562.350432)">
<text x="2011607.377680" y="857745.385618" transform="scale(-1 1) translate(-4023214.755361 0)" textLength="27954.824665" font-size="13821.413340" lengthAdjust="spacingAndGlyphs" text-anchor="middle" opacity="0.01" style="font-family:monospace">R11</text>
</g>
<g class="stroked-text"><desc>R11</desc>
<path d="M2016296 845898 L2011360 842443 "/>
<path d="M2016296 839974 L2005930 839974 L2005930 843923 L2006424 844911 L2006917 845404 L2007905 845898 L2009386 845898 L2010373 845404 L2010866 844911 L2011360 843923 L2011360 839974 "/>
<path d="M2016296 855770 L2016296 849847 "/>
<path d="M2016296 852809 L2005930 852809 L2007411 851821 L2008398 850834 L2008892 849847 "/>
<path d="M2016296 865643 L2016296 859719 "/>
<path d="M2016296 862681 L2005930 862681 L2007411 861694 L2008398 860707 L2008892 859719 "/>
</g><g transform="rotate(-90.000000 2051102.105793 852562.350432)">
<text x="2051102.105793" y="857745.385618" transform="scale(-1 1) translate(-4102204.211586 0)" textLength="27954.824665" font-size="13821.413340" lengthAdjust="spacingAndGlyphs" text-anchor="middle" opacity="0.01" style="font-family:monospace">R12</text>
</g>
<g class="stroked-text"><desc>R12</desc>
<path d="M2055791 845898 L2050855 842443 "/>
<path d="M2055791 839974 L2045425 839974 L2045425 843923 L2045919 844911 L2046412 845404 L2047399 845898 L2048880 845898 L2049868 845404 L2050361 844911 L2050855 843923 L2050855 839974 "/>
<path d="M2055791 855770 L2055791 849847 "/>
<path d="M2055791 852809 L2045425 852809 L2046906 851821 L2047893 850834 L2048387 849847 "/>
<path d="M2046412 859719 L2045919 860213 L2045425 861200 L2045425 863668 L2045919 864656 L2046412 865149 L2047399 865643 L2048387 865643 L2049868 865149 L2055791 859226 L2055791 865643 "/>
</g><g transform="rotate(-90.000000 1945782.830826 806485.167634)">
<text x="1945782.830826" y="811668.202820" transform="scale(-1 1) translate(-3891565.661651 0)" textLength="27954.824665" font-size="13821.413340" lengthAdjust="spacingAndGlyphs" text-anchor="middle" opacity="0.01" style="font-family:monospace">R15</text>
</g>
<g class="stroked-text"><desc>R15</desc>
<path d="M1950472 799821 L1945536 796365 "/>
<path d="M1950472 793897 L1940106 793897 L1940106 797846 L1940599 798834 L1941093 799327 L1942080 799821 L1943561 799821 L1944548 799327 L1945042 798834 L1945536 797846 L1945536 793897 "/>
<path d="M1950472 809693 L1950472 803770 "/>
<path d="M1950472 806731 L1940106 806731 L1941587 805744 L1942574 804757 L1943067 803770 "/>
<path d="M1940106 819072 L1940106 814136 L1945042 813642 L1944548 814136 L1944055 815123 L1944055 817591 L1944548 818578 L1945042 819072 L1946029 819566 L1948497 819566 L1949484 819072 L1949978 818578 L1950472 817591 L1950472 815123 L1949978 814136 L1949484 813642 "/>
</g><text x="1939200.376140" y="870910.294989" transform="scale(-1 1) translate(-3878400.752281 0)" textLength="27954.824665" font-size="13821.413340" lengthAdjust="spacingAndGlyphs" text-anchor="middle" opacity="0.01" style="font-family:monospace">R16</text>
<g class="stroked-text"><desc>R16</desc>
<path d="M1945864 870416 L1949319 865480 "/>
<path d="M1951787 870416 L1951787 860050 L1947838 860050 L1946851 860544 L1946357 861037 L1945864 862025 L1945864 863505 L1946357 864493 L1946851 864986 L1947838 865480 L1951787 865480 "/>
<path d="M1935991 870416 L1941915 870416 "/>
<path d="M1938953 870416 L1938953 860050 L1939940 861531 L1940928 862518 L1941915 863012 "/>
<path d="M1927106 860050 L1929081 860050 L1930068 860544 L1930561 861037 L1931549 862518 L1932042 864493 L1932042 868442 L1931549 869429 L1931055 869923 L1930068 870416 L1928093 870416 L1927106 869923 L1926613 869429 L1926119 868442 L1926119 865974 L1926613 864986 L1927106 864493 L1928093 863999 L1930068 863999 L1931055 864493 L1931549 864986 L1932042 865974 "/>
</g></g>
<g style="fill:#000084; fill-opacity:0.01;  stroke:#000084; stroke-width:3109.821111; stroke-opacity:1;  stroke-linecap:round; stroke-linejoin:round;">
<text x="1985277.558939" y="1027645.278995" transform="scale(-1 1) translate(-3970555.117877 0)" textLength="261438.224144" font-size="27642.847411" lengthAdjust="spacingAndGlyphs" text-anchor="middle" opacity="0.01" style="font-family:monospace">AT24CS64-SSHM</text>
<g class="stroked-text"><desc>AT24CS64-SSHM</desc>
<path d="M2113125 1020734 L2103253 1020734 "/>
<path d="M2115100 1026658 L2108189 1005925 L2101278 1026658 "/>
<path d="M2097329 1005925 L2085482 1005925 "/>
<path d="M2091406 1026658 L2091406 1005925 "/>
<path d="M2079559 1007900 L2078572 1006913 L2076597 1005925 L2071661 1005925 L2069686 1006913 L2068699 1007900 L2067712 1009874 L2067712 1011849 L2068699 1014811 L2080546 1026658 L2067712 1026658 "/>
<path d="M2049942 1012836 L2049942 1026658 "/>
<path d="M2054878 1004938 L2059814 1019747 L2046980 1019747 "/>
<path d="M2027235 1024683 L2028222 1025670 L2031184 1026658 L2033158 1026658 L2036120 1025670 L2038095 1023696 L2039082 1021721 L2040069 1017772 L2040069 1014811 L2039082 1010862 L2038095 1008887 L2036120 1006913 L2033158 1005925 L2031184 1005925 L2028222 1006913 L2027235 1007900 "/>
<path d="M2019337 1025670 L2016375 1026658 L2011439 1026658 L2009465 1025670 L2008477 1024683 L2007490 1022709 L2007490 1020734 L2008477 1018760 L2009465 1017772 L2011439 1016785 L2015388 1015798 L2017363 1014811 L2018350 1013823 L2019337 1011849 L2019337 1009874 L2018350 1007900 L2017363 1006913 L2015388 1005925 L2010452 1005925 L2007490 1006913 "/>
<path d="M1989720 1005925 L1993669 1005925 L1995643 1006913 L1996630 1007900 L1998605 1010862 L1999592 1014811 L1999592 1022709 L1998605 1024683 L1997618 1025670 L1995643 1026658 L1991694 1026658 L1989720 1025670 L1988732 1024683 L1987745 1022709 L1987745 1017772 L1988732 1015798 L1989720 1014811 L1991694 1013823 L1995643 1013823 L1997618 1014811 L1998605 1015798 L1999592 1017772 "/>
<path d="M1969975 1012836 L1969975 1026658 "/>
<path d="M1974911 1004938 L1979847 1019747 L1967013 1019747 "/>
<path d="M1959115 1018760 L1943319 1018760 "/>
<path d="M1934434 1025670 L1931472 1026658 L1926536 1026658 L1924561 1025670 L1923574 1024683 L1922587 1022709 L1922587 1020734 L1923574 1018760 L1924561 1017772 L1926536 1016785 L1930485 1015798 L1932459 1014811 L1933447 1013823 L1934434 1011849 L1934434 1009874 L1933447 1007900 L1932459 1006913 L1930485 1005925 L1925549 1005925 L1922587 1006913 "/>
<path d="M1914689 1025670 L1911727 1026658 L1906791 1026658 L1904817 1025670 L1903829 1024683 L1902842 1022709 L1902842 1020734 L1903829 1018760 L1904817 1017772 L1906791 1016785 L1910740 1015798 L1912715 1014811 L1913702 1013823 L1914689 1011849 L1914689 1009874 L1913702 1007900 L1912715 1006913 L1910740 1005925 L1905804 1005925 L1902842 1006913 "/>
<path d="M1893957 1026658 L1893957 1005925 "/>
<path d="M1893957 1015798 L1882110 1015798 "/>
<path d="M1882110 1026658 L1882110 1005925 "/>
<path d="M1872238 1026658 L1872238 1005925 L1865327 1020734 L1858416 1005925 L1858416 1026658 "/>
</g><text x="1985277.558939" y="955082.786400" transform="scale(-1 1) translate(-3970555.117877 0)" textLength="37421.514039" font-size="27642.847411" lengthAdjust="spacingAndGlyphs" text-anchor="middle" opacity="0.01" style="font-family:monospace">U6</text>
<g class="stroked-text"><desc>U6</desc>
<path d="M2001073 933363 L2001073 950146 L2000086 952121 L1999098 953108 L1997124 954095 L1993175 954095 L1991201 953108 L1990213 952121 L1989226 950146 L1989226 933363 "/>
<path d="M1970468 933363 L1974417 933363 L1976392 934350 L1977379 935337 L1979354 938299 L1980341 942248 L1980341 950146 L1979354 952121 L1978366 953108 L1976392 954095 L1972443 954095 L1970468 953108 L1969481 952121 L1968494 950146 L1968494 945210 L1969481 943235 L1970468 942248 L1972443 941261 L1976392 941261 L1978366 942248 L1979354 943235 L1980341 945210 "/>
</g><path d="M1914684 1094299 L1914684 1032102 "/>
<path d="M1976881 1094299 L1914684 1094299 "/>
<path d="M1976881 1032102 L1976881 1094299 "/>
<path d="M1914684 1032102 L1976881 1032102 "/>
</g>
<g style="fill:#000084; fill-opacity:0.0;  stroke:#000084; stroke-width:2073.214074; stroke-opacity:1;  stroke-linecap:round; stroke-linejoin:round;">
<path d="M1176931 1451928 L1176931 1336657 "/>
<path d="M1680722 1336657 L1680722 1854961 "/>
<path d="M1680722 1854961 L1129247 1854961 "/>
<path d="M1129247 1854961 L1129247 1499612 "/>
<path d="M1176931 1336657 L1680722 1336657 "/>
<path d="M1129247 1499612 L1176931 1451928 "/>
<path d="M2019174 1358426 L1977710 1358426 "/>
<path d="M1977710 1358426 L1977710 1389524 "/>
<path d="M1988076 1399890 L2019174 1399890 "/>
<path d="M2019174 1399890 L2019174 1358426 "/>
<path d="M1988076 1399890 L1977710 1389524 "/>
</g>
<g style="fill:#000084; fill-opacity:0.0;  stroke:#000084; stroke-width:3109.821111; stroke-opacity:1;  stroke-linecap:round; stroke-linejoin:round;">
<path d="M1710473 508616 L1917794 508616 "/>
<path d="M1710473 301294 L1710473 508616 "/>
<path d="M1897062 301294 L1710473 301294 "/>
<path d="M1917794 508616 L1917794 322026 "/>
<path d="M1917794 322026 L1897062 301294 "/>
</g>
<g style="fill:#000084; fill-opacity:0.0;  stroke:#000084; stroke-width:2073.214074; stroke-opacity:1;  stroke-linecap:round; stroke-linejoin:round;">
<path d="M1396329 364061 L1413951 364061 "/>
<path d="M1413951 364061 L1413951 301035 "/>
<path d="M1384926 352243 L1384926 301450 "/>
<path d="M1384926 301035 L1413951 301035 "/>
<path d="M1384926 352243 L1396329 364061 "/>
<path d="M1263539 312852 L1263539 363646 "/>
<path d="M1263539 312852 L1252137 301035 "/>
<path d="M1263539 364061 L1234514 364061 "/>
<path d="M1234514 301035 L1234514 364061 "/>
<path d="M1252137 301035 L1234514 301035 "/>
<path d="M1129247 1736580 L1176931 1688896 "/>
<path d="M1680722 1573626 L1680722 2091929 "/>
<path d="M1129247 2091929 L1129247 1736580 "/>
<path d="M1176931 1688896 L1176931 1573626 "/>
<path d="M1176931 1573626 L1680722 1573626 "/>
<path d="M1680722 2091929 L1129247 2091929 "/>
<path d="M1905562 814052 L1905562 772588 "/>
<path d="M1880683 772588 L1880683 814052 "/>
<path d="M1880683 814052 L1905562 814052 "/>
<path d="M1905562 772588 L1880683 772588 "/>
<path d="M2024046 873294 L2024046 831830 "/>
<path d="M1999168 873294 L2024046 873294 "/>
<path d="M1999168 831830 L1999168 873294 "/>
<path d="M2024046 831830 L1999168 831830 "/>
<path d="M2038662 873294 L2063541 873294 "/>
<path d="M2038662 831830 L2038662 873294 "/>
<path d="M2063541 873294 L2063541 831830 "/>
<path d="M2063541 831830 L2038662 831830 "/>
<path d="M1933343 827217 L1958222 827217 "/>
<path d="M1958222 785753 L1933343 785753 "/>
<path d="M1958222 827217 L1958222 785753 "/>
<path d="M1933343 785753 L1933343 827217 "/>
<path d="M1959932 853287 L1918468 853287 "/>
<path d="M1959932 878166 L1959932 853287 "/>
<path d="M1918468 853287 L1918468 878166 "/>
<path d="M1918468 878166 L1959932 878166 "/>
<path d="M1944849 893922 L1944849 995510 "/>
<path d="M1944849 995510 L2025705 995510 "/>
<path d="M2004973 893922 L1944849 893922 "/>
<path d="M2025705 914655 L2004973 893922 "/>
<path d="M2025705 995510 L2025705 914655 "/>
<g>
</g>
<g>
</g>
<g>
</g>
<g>
</g>
<g>
</g>
<g>
</g>
<g>
</g>
<g>
</g>
<g>
</g>
<g>
</g>
<g>
</g>
<g>
</g>
<g>
</g>
<g>
</g>
<g>
</g>
<g>
</g>
<g>
</g>
<g>
</g>
<g>
</g>
<g>
</g>
<g>
</g>
<g>
</g>
<g>
</g>
<g>
</g>
<g>
</g>
<g>
</g>
<g>
</g>
<g>
</g>
<g>
</g>
<g>
</g>
<g>
</g>
<g>
</g>
<g>
</g>
<g>
</g>
<g>
</g>
<g>
</g>
<g>
</g>
<g>
</g>
<g>
</g>
<g>
</g>
<g>
</g>
<g>
</g>
<g>
</g>
<g>
</g>
<g>
</g>
<g>
</g>
<g>
</g>
<g>
</g>
<g>
</g>
<g>
</g>
<g>
</g>
<g>
</g>
<g>
</g>
<g>
</g>
<g>
</g>
<g>
</g>
<g>
</g>
<g>
</g>
<g>
</g>
<g>
</g>
<g>
</g>
<g>
</g>
<g>
</g>
<g>
</g>
<g>
</g>
<g>
</g>
<g>
</g>
<g>
</g>
<g>
</g>
<g>
</g>
<g>
</g>
<g>
</g>
<g>
</g>
<g>
</g>
<g>
</g>
<g>
</g>
<g>
</g>
<g>
</g>
<g>
</g>
<g>
</g>
<g>
</g>
<g>
</g>
<g>
</g>
<g>
</g>
<g>
</g>
<g>
</g>
<g>
</g>
<g>
</g>
<g>
</g>
<g>
</g>
<g>
</g>
<g>
</g>
<g>
</g>
</g> 
<svg:g><svg:g><svg:title>SVG Picture created as DATALOGGER01-Edge_Cuts.svg date 2023/07/05 12:37:14 </svg:title>
  <svg:desc>Picture generated by PCBNEW </svg:desc>
<svg:g style="fill:#C2C200; fill-opacity:1.000000;stroke:#C2C200; stroke-opacity:1.000000; stroke-linecap:round; stroke-linejoin:round;" transform="translate(0 0) scale(1 1)">
</svg:g>
<svg:g style="fill:#C2C200; fill-opacity:0.0;  stroke:#C2C200; stroke-width:0.000000; stroke-opacity:1;  stroke-linecap:round; stroke-linejoin:round;">
</svg:g>
<svg:g style="fill:#C2C200; fill-opacity:0.0;  stroke:#C2C200; stroke-width:4146.428148; stroke-opacity:1;  stroke-linecap:round; stroke-linejoin:round;">
<svg:path d="M2322299 2097962 L2322299 2109 "/>
<svg:path d="M647722 2097962 L647722 2109 "/>
<svg:path d="M647722 2109 L2322299 2109 "/>
<svg:path d="M647722 2097962 L2322299 2097962 "/>
<svg:g>
</svg:g>
<svg:g>
</svg:g>
<svg:g>
</svg:g>
<svg:g>
</svg:g>
<svg:g>
</svg:g>
<svg:g>
</svg:g>
<svg:g>
</svg:g>
<svg:g>
</svg:g>
<svg:g>
</svg:g>
<svg:g>
</svg:g>
<svg:g>
</svg:g>
<svg:g>
</svg:g>
<svg:g>
</svg:g>
<svg:g>
</svg:g>
<svg:g>
</svg:g>
<svg:g>
</svg:g>
<svg:g>
</svg:g>
<svg:g>
</svg:g>
<svg:g>
</svg:g>
<svg:g>
</svg:g>
<svg:g>
</svg:g>
<svg:g>
</svg:g>
<svg:g>
</svg:g>
<svg:g>
</svg:g>
<svg:g>
</svg:g>
<svg:g>
</svg:g>
<svg:g>
</svg:g>
<svg:g>
</svg:g>
<svg:g>
</svg:g>
<svg:g>
</svg:g>
<svg:g>
</svg:g>
<svg:g>
</svg:g>
<svg:g>
</svg:g>
<svg:g>
</svg:g>
<svg:g>
</svg:g>
<svg:g>
</svg:g>
<svg:g>
</svg:g>
<svg:g>
</svg:g>
<svg:g>
</svg:g>
<svg:g>
</svg:g>
<svg:g>
</svg:g>
<svg:g>
</svg:g>
<svg:g>
</svg:g>
<svg:g>
</svg:g>
<svg:g>
</svg:g>
<svg:g>
</svg:g>
<svg:g>
</svg:g>
<svg:g>
</svg:g>
<svg:g>
</svg:g>
<svg:g>
</svg:g>
<svg:g>
</svg:g>
<svg:g>
</svg:g>
<svg:g>
</svg:g>
<svg:g>
</svg:g>
<svg:g>
</svg:g>
<svg:g>
</svg:g>
<svg:g>
</svg:g>
<svg:g>
</svg:g>
<svg:g>
</svg:g>
<svg:g>
</svg:g>
<svg:g>
</svg:g>
<svg:g>
</svg:g>
<svg:g>
</svg:g>
<svg:g>
</svg:g>
<svg:g>
</svg:g>
<svg:g>
</svg:g>
<svg:g>
</svg:g>
<svg:g>
</svg:g>
<svg:g>
</svg:g>
<svg:g>
</svg:g>
<svg:g>
</svg:g>
<svg:g>
</svg:g>
<svg:g>
</svg:g>
<svg:g>
</svg:g>
<svg:g>
</svg:g>
<svg:g>
</svg:g>
<svg:g>
</svg:g>
<svg:g>
</svg:g>
<svg:g>
</svg:g>
<svg:g>
</svg:g>
<svg:g>
</svg:g>
<svg:g>
</svg:g>
<svg:g>
</svg:g>
<svg:g>
</svg:g>
<svg:g>
</svg:g>
<svg:g>
</svg:g>
<svg:g>
</svg:g>
<svg:g>
</svg:g>
<svg:g>
</svg:g>
<svg:g>
</svg:g>
<svg:g>
</svg:g>
<svg:g>
</svg:g>
<svg:g>
</svg:g>
</svg:g> 
</svg:g></svg:g></svg>
