<?xml version='1.0' encoding='ASCII' standalone='yes'?>
<svg xmlns:svg="http://www.w3.org/2000/svg" xmlns="http://www.w3.org/2000/svg" xmlns:xlink="http://www.w3.org/1999/xlink" version="1.1" width="297.0022mm" height="210.0072mm" viewBox="0.0000 0.0000 297.0022 210.0072">
<title>SVG Image created as DATALOGGER01-B_Fab.svg date 2023/07/05 13:16:59 </title>
  <desc>Image generated by PCBNEW </desc>
<g style="fill:#000084; fill-opacity:1.0000;stroke:#000084; stroke-opacity:1.0000; stroke-linecap:round; stroke-linejoin:round;" transform="translate(0 0) scale(1 1)">
</g>
<g style="fill:#000084; fill-opacity:0.0;  stroke:#000084; stroke-width:0.0000; stroke-opacity:1;  stroke-linecap:round; stroke-linejoin:round;">
</g>
<g style="fill:#000084; fill-opacity:0.01;  stroke:#000084; stroke-width:0.3110; stroke-opacity:1;  stroke-linecap:round; stroke-linejoin:round;">
<text x="194.5783" y="102.0700" transform="scale(-1 1) translate(-389.156566 0)" textLength="17.9358" font-size="2.7643" lengthAdjust="spacingAndGlyphs" text-anchor="middle" opacity="0.01" style="font-family:monospace">PCF85263A</text>
<g class="stroked-text"><desc>PCF85263A</desc>
<path d="M202.8711 101.9763 L202.8711 99.9031 "/>
<path d="M202.8711 99.9031 L202.0813 99.9031 "/>
<path d="M202.0813 99.9031 L201.8839 100.0018 "/>
<path d="M201.8839 100.0018 L201.7852 100.1006 "/>
<path d="M201.7852 100.1006 L201.6864 100.2980 "/>
<path d="M201.6864 100.2980 L201.6864 100.5942 "/>
<path d="M201.6864 100.5942 L201.7852 100.7916 "/>
<path d="M201.7852 100.7916 L201.8839 100.8904 "/>
<path d="M201.8839 100.8904 L202.0813 100.9891 "/>
<path d="M202.0813 100.9891 L202.8711 100.9891 "/>
<path d="M199.6132 101.7789 L199.7120 101.8776 "/>
<path d="M199.7120 101.8776 L200.0081 101.9763 "/>
<path d="M200.0081 101.9763 L200.2056 101.9763 "/>
<path d="M200.2056 101.9763 L200.5018 101.8776 "/>
<path d="M200.5018 101.8776 L200.6992 101.6802 "/>
<path d="M200.6992 101.6802 L200.7979 101.4827 "/>
<path d="M200.7979 101.4827 L200.8966 101.0878 "/>
<path d="M200.8966 101.0878 L200.8966 100.7916 "/>
<path d="M200.8966 100.7916 L200.7979 100.3967 "/>
<path d="M200.7979 100.3967 L200.6992 100.1993 "/>
<path d="M200.6992 100.1993 L200.5018 100.0018 "/>
<path d="M200.5018 100.0018 L200.2056 99.9031 "/>
<path d="M200.2056 99.9031 L200.0081 99.9031 "/>
<path d="M200.0081 99.9031 L199.7120 100.0018 "/>
<path d="M199.7120 100.0018 L199.6132 100.1006 "/>
<path d="M198.0336 100.8904 L198.7247 100.8904 "/>
<path d="M198.7247 101.9763 L198.7247 99.9031 "/>
<path d="M198.7247 99.9031 L197.7375 99.9031 "/>
<path d="M196.6515 100.7916 L196.8489 100.6929 "/>
<path d="M196.8489 100.6929 L196.9477 100.5942 "/>
<path d="M196.9477 100.5942 L197.0464 100.3967 "/>
<path d="M197.0464 100.3967 L197.0464 100.2980 "/>
<path d="M197.0464 100.2980 L196.9477 100.1006 "/>
<path d="M196.9477 100.1006 L196.8489 100.0018 "/>
<path d="M196.8489 100.0018 L196.6515 99.9031 "/>
<path d="M196.6515 99.9031 L196.2566 99.9031 "/>
<path d="M196.2566 99.9031 L196.0591 100.0018 "/>
<path d="M196.0591 100.0018 L195.9604 100.1006 "/>
<path d="M195.9604 100.1006 L195.8617 100.2980 "/>
<path d="M195.8617 100.2980 L195.8617 100.3967 "/>
<path d="M195.8617 100.3967 L195.9604 100.5942 "/>
<path d="M195.9604 100.5942 L196.0591 100.6929 "/>
<path d="M196.0591 100.6929 L196.2566 100.7916 "/>
<path d="M196.2566 100.7916 L196.6515 100.7916 "/>
<path d="M196.6515 100.7916 L196.8489 100.8904 "/>
<path d="M196.8489 100.8904 L196.9477 100.9891 "/>
<path d="M196.9477 100.9891 L197.0464 101.1865 "/>
<path d="M197.0464 101.1865 L197.0464 101.5814 "/>
<path d="M197.0464 101.5814 L196.9477 101.7789 "/>
<path d="M196.9477 101.7789 L196.8489 101.8776 "/>
<path d="M196.8489 101.8776 L196.6515 101.9763 "/>
<path d="M196.6515 101.9763 L196.2566 101.9763 "/>
<path d="M196.2566 101.9763 L196.0591 101.8776 "/>
<path d="M196.0591 101.8776 L195.9604 101.7789 "/>
<path d="M195.9604 101.7789 L195.8617 101.5814 "/>
<path d="M195.8617 101.5814 L195.8617 101.1865 "/>
<path d="M195.8617 101.1865 L195.9604 100.9891 "/>
<path d="M195.9604 100.9891 L196.0591 100.8904 "/>
<path d="M196.0591 100.8904 L196.2566 100.7916 "/>
<path d="M193.9859 99.9031 L194.9732 99.9031 "/>
<path d="M194.9732 99.9031 L195.0719 100.8904 "/>
<path d="M195.0719 100.8904 L194.9732 100.7916 "/>
<path d="M194.9732 100.7916 L194.7757 100.6929 "/>
<path d="M194.7757 100.6929 L194.2821 100.6929 "/>
<path d="M194.2821 100.6929 L194.0847 100.7916 "/>
<path d="M194.0847 100.7916 L193.9859 100.8904 "/>
<path d="M193.9859 100.8904 L193.8872 101.0878 "/>
<path d="M193.8872 101.0878 L193.8872 101.5814 "/>
<path d="M193.8872 101.5814 L193.9859 101.7789 "/>
<path d="M193.9859 101.7789 L194.0847 101.8776 "/>
<path d="M194.0847 101.8776 L194.2821 101.9763 "/>
<path d="M194.2821 101.9763 L194.7757 101.9763 "/>
<path d="M194.7757 101.9763 L194.9732 101.8776 "/>
<path d="M194.9732 101.8776 L195.0719 101.7789 "/>
<path d="M193.0974 100.1006 L192.9987 100.0018 "/>
<path d="M192.9987 100.0018 L192.8012 99.9031 "/>
<path d="M192.8012 99.9031 L192.3076 99.9031 "/>
<path d="M192.3076 99.9031 L192.1102 100.0018 "/>
<path d="M192.1102 100.0018 L192.0114 100.1006 "/>
<path d="M192.0114 100.1006 L191.9127 100.2980 "/>
<path d="M191.9127 100.2980 L191.9127 100.4955 "/>
<path d="M191.9127 100.4955 L192.0114 100.7916 "/>
<path d="M192.0114 100.7916 L193.1961 101.9763 "/>
<path d="M193.1961 101.9763 L191.9127 101.9763 "/>
<path d="M190.1357 99.9031 L190.5306 99.9031 "/>
<path d="M190.5306 99.9031 L190.7280 100.0018 "/>
<path d="M190.7280 100.0018 L190.8268 100.1006 "/>
<path d="M190.8268 100.1006 L191.0242 100.3967 "/>
<path d="M191.0242 100.3967 L191.1229 100.7916 "/>
<path d="M191.1229 100.7916 L191.1229 101.5814 "/>
<path d="M191.1229 101.5814 L191.0242 101.7789 "/>
<path d="M191.0242 101.7789 L190.9255 101.8776 "/>
<path d="M190.9255 101.8776 L190.7280 101.9763 "/>
<path d="M190.7280 101.9763 L190.3331 101.9763 "/>
<path d="M190.3331 101.9763 L190.1357 101.8776 "/>
<path d="M190.1357 101.8776 L190.0370 101.7789 "/>
<path d="M190.0370 101.7789 L189.9382 101.5814 "/>
<path d="M189.9382 101.5814 L189.9382 101.0878 "/>
<path d="M189.9382 101.0878 L190.0370 100.8904 "/>
<path d="M190.0370 100.8904 L190.1357 100.7916 "/>
<path d="M190.1357 100.7916 L190.3331 100.6929 "/>
<path d="M190.3331 100.6929 L190.7280 100.6929 "/>
<path d="M190.7280 100.6929 L190.9255 100.7916 "/>
<path d="M190.9255 100.7916 L191.0242 100.8904 "/>
<path d="M191.0242 100.8904 L191.1229 101.0878 "/>
<path d="M189.2472 99.9031 L187.9637 99.9031 "/>
<path d="M187.9637 99.9031 L188.6548 100.6929 "/>
<path d="M188.6548 100.6929 L188.3586 100.6929 "/>
<path d="M188.3586 100.6929 L188.1612 100.7916 "/>
<path d="M188.1612 100.7916 L188.0625 100.8904 "/>
<path d="M188.0625 100.8904 L187.9637 101.0878 "/>
<path d="M187.9637 101.0878 L187.9637 101.5814 "/>
<path d="M187.9637 101.5814 L188.0625 101.7789 "/>
<path d="M188.0625 101.7789 L188.1612 101.8776 "/>
<path d="M188.1612 101.8776 L188.3586 101.9763 "/>
<path d="M188.3586 101.9763 L188.9510 101.9763 "/>
<path d="M188.9510 101.9763 L189.1484 101.8776 "/>
<path d="M189.1484 101.8776 L189.2472 101.7789 "/>
<path d="M187.1739 101.3840 L186.1867 101.3840 "/>
<path d="M187.3714 101.9763 L186.6803 99.9031 "/>
<path d="M186.6803 99.9031 L185.9893 101.9763 "/>
</g><text x="140.6022" y="166.9927" transform="scale(-1 1) translate(-281.204309 0)" textLength="13.4932" font-size="2.7643" lengthAdjust="spacingAndGlyphs" text-anchor="middle" opacity="0.01" style="font-family:monospace">MCC-SD</text>
<g class="stroked-text"><desc>MCC-SD</desc>
<path d="M146.6737 166.8990 L146.6737 164.8258 "/>
<path d="M146.6737 164.8258 L145.9826 166.3067 "/>
<path d="M145.9826 166.3067 L145.2916 164.8258 "/>
<path d="M145.2916 164.8258 L145.2916 166.8990 "/>
<path d="M143.1196 166.7016 L143.2184 166.8003 "/>
<path d="M143.2184 166.8003 L143.5145 166.8990 "/>
<path d="M143.5145 166.8990 L143.7120 166.8990 "/>
<path d="M143.7120 166.8990 L144.0081 166.8003 "/>
<path d="M144.0081 166.8003 L144.2056 166.6029 "/>
<path d="M144.2056 166.6029 L144.3043 166.4054 "/>
<path d="M144.3043 166.4054 L144.4030 166.0105 "/>
<path d="M144.4030 166.0105 L144.4030 165.7143 "/>
<path d="M144.4030 165.7143 L144.3043 165.3194 "/>
<path d="M144.3043 165.3194 L144.2056 165.1220 "/>
<path d="M144.2056 165.1220 L144.0081 164.9245 "/>
<path d="M144.0081 164.9245 L143.7120 164.8258 "/>
<path d="M143.7120 164.8258 L143.5145 164.8258 "/>
<path d="M143.5145 164.8258 L143.2184 164.9245 "/>
<path d="M143.2184 164.9245 L143.1196 165.0233 "/>
<path d="M141.0464 166.7016 L141.1451 166.8003 "/>
<path d="M141.1451 166.8003 L141.4413 166.8990 "/>
<path d="M141.4413 166.8990 L141.6388 166.8990 "/>
<path d="M141.6388 166.8990 L141.9349 166.8003 "/>
<path d="M141.9349 166.8003 L142.1324 166.6029 "/>
<path d="M142.1324 166.6029 L142.2311 166.4054 "/>
<path d="M142.2311 166.4054 L142.3298 166.0105 "/>
<path d="M142.3298 166.0105 L142.3298 165.7143 "/>
<path d="M142.3298 165.7143 L142.2311 165.3194 "/>
<path d="M142.2311 165.3194 L142.1324 165.1220 "/>
<path d="M142.1324 165.1220 L141.9349 164.9245 "/>
<path d="M141.9349 164.9245 L141.6388 164.8258 "/>
<path d="M141.6388 164.8258 L141.4413 164.8258 "/>
<path d="M141.4413 164.8258 L141.1451 164.9245 "/>
<path d="M141.1451 164.9245 L141.0464 165.0233 "/>
<path d="M140.1579 166.1092 L138.5783 166.1092 "/>
<path d="M137.6898 166.8003 L137.3936 166.8990 "/>
<path d="M137.3936 166.8990 L136.9000 166.8990 "/>
<path d="M136.9000 166.8990 L136.7025 166.8003 "/>
<path d="M136.7025 166.8003 L136.6038 166.7016 "/>
<path d="M136.6038 166.7016 L136.5051 166.5041 "/>
<path d="M136.5051 166.5041 L136.5051 166.3067 "/>
<path d="M136.5051 166.3067 L136.6038 166.1092 "/>
<path d="M136.6038 166.1092 L136.7025 166.0105 "/>
<path d="M136.7025 166.0105 L136.9000 165.9118 "/>
<path d="M136.9000 165.9118 L137.2949 165.8131 "/>
<path d="M137.2949 165.8131 L137.4923 165.7143 "/>
<path d="M137.4923 165.7143 L137.5911 165.6156 "/>
<path d="M137.5911 165.6156 L137.6898 165.4182 "/>
<path d="M137.6898 165.4182 L137.6898 165.2207 "/>
<path d="M137.6898 165.2207 L137.5911 165.0233 "/>
<path d="M137.5911 165.0233 L137.4923 164.9245 "/>
<path d="M137.4923 164.9245 L137.2949 164.8258 "/>
<path d="M137.2949 164.8258 L136.8013 164.8258 "/>
<path d="M136.8013 164.8258 L136.5051 164.9245 "/>
<path d="M135.6166 166.8990 L135.6166 164.8258 "/>
<path d="M135.6166 164.8258 L135.1229 164.8258 "/>
<path d="M135.1229 164.8258 L134.8268 164.9245 "/>
<path d="M134.8268 164.9245 L134.6293 165.1220 "/>
<path d="M134.6293 165.1220 L134.5306 165.3194 "/>
<path d="M134.5306 165.3194 L134.4319 165.7143 "/>
<path d="M134.4319 165.7143 L134.4319 166.0105 "/>
<path d="M134.4319 166.0105 L134.5306 166.4054 "/>
<path d="M134.5306 166.4054 L134.6293 166.6029 "/>
<path d="M134.6293 166.6029 L134.8268 166.8003 "/>
<path d="M134.8268 166.8003 L135.1229 166.8990 "/>
<path d="M135.1229 166.8990 L135.6166 166.8990 "/>
</g><text x="140.6022" y="162.8463" transform="scale(-1 1) translate(-281.204309 0)" textLength="3.9169" font-size="2.7643" lengthAdjust="spacingAndGlyphs" text-anchor="middle" opacity="0.01" style="font-family:monospace">J7</text>
<g class="stroked-text"><desc>J7</desc>
<path d="M141.2932 160.6794 L141.2932 162.1603 "/>
<path d="M141.2932 162.1603 L141.3919 162.4564 "/>
<path d="M141.3919 162.4564 L141.5894 162.6539 "/>
<path d="M141.5894 162.6539 L141.8856 162.7526 "/>
<path d="M141.8856 162.7526 L142.0830 162.7526 "/>
<path d="M140.5034 160.6794 L139.1213 160.6794 "/>
<path d="M139.1213 160.6794 L140.0098 162.7526 "/>
</g><text x="199.8650" y="134.5158" transform="scale(-1 1) translate(-399.729958 0)" textLength="22.5758" font-size="2.7643" lengthAdjust="spacingAndGlyphs" text-anchor="middle" opacity="0.01" style="font-family:monospace">TPS22965-Q1</text>
<g class="stroked-text"><desc>TPS22965-Q1</desc>
<path d="M210.7740 132.3489 L209.5893 132.3489 "/>
<path d="M210.1817 134.4221 L210.1817 132.3489 "/>
<path d="M208.8983 134.4221 L208.8983 132.3489 "/>
<path d="M208.8983 132.3489 L208.1085 132.3489 "/>
<path d="M208.1085 132.3489 L207.9110 132.4476 "/>
<path d="M207.9110 132.4476 L207.8123 132.5464 "/>
<path d="M207.8123 132.5464 L207.7136 132.7438 "/>
<path d="M207.7136 132.7438 L207.7136 133.0400 "/>
<path d="M207.7136 133.0400 L207.8123 133.2374 "/>
<path d="M207.8123 133.2374 L207.9110 133.3362 "/>
<path d="M207.9110 133.3362 L208.1085 133.4349 "/>
<path d="M208.1085 133.4349 L208.8983 133.4349 "/>
<path d="M206.9238 134.3234 L206.6276 134.4221 "/>
<path d="M206.6276 134.4221 L206.1340 134.4221 "/>
<path d="M206.1340 134.4221 L205.9365 134.3234 "/>
<path d="M205.9365 134.3234 L205.8378 134.2247 "/>
<path d="M205.8378 134.2247 L205.7391 134.0272 "/>
<path d="M205.7391 134.0272 L205.7391 133.8298 "/>
<path d="M205.7391 133.8298 L205.8378 133.6323 "/>
<path d="M205.8378 133.6323 L205.9365 133.5336 "/>
<path d="M205.9365 133.5336 L206.1340 133.4349 "/>
<path d="M206.1340 133.4349 L206.5289 133.3362 "/>
<path d="M206.5289 133.3362 L206.7263 133.2374 "/>
<path d="M206.7263 133.2374 L206.8251 133.1387 "/>
<path d="M206.8251 133.1387 L206.9238 132.9413 "/>
<path d="M206.9238 132.9413 L206.9238 132.7438 "/>
<path d="M206.9238 132.7438 L206.8251 132.5464 "/>
<path d="M206.8251 132.5464 L206.7263 132.4476 "/>
<path d="M206.7263 132.4476 L206.5289 132.3489 "/>
<path d="M206.5289 132.3489 L206.0353 132.3489 "/>
<path d="M206.0353 132.3489 L205.7391 132.4476 "/>
<path d="M204.9493 132.5464 L204.8506 132.4476 "/>
<path d="M204.8506 132.4476 L204.6531 132.3489 "/>
<path d="M204.6531 132.3489 L204.1595 132.3489 "/>
<path d="M204.1595 132.3489 L203.9620 132.4476 "/>
<path d="M203.9620 132.4476 L203.8633 132.5464 "/>
<path d="M203.8633 132.5464 L203.7646 132.7438 "/>
<path d="M203.7646 132.7438 L203.7646 132.9413 "/>
<path d="M203.7646 132.9413 L203.8633 133.2374 "/>
<path d="M203.8633 133.2374 L205.0480 134.4221 "/>
<path d="M205.0480 134.4221 L203.7646 134.4221 "/>
<path d="M202.9748 132.5464 L202.8761 132.4476 "/>
<path d="M202.8761 132.4476 L202.6786 132.3489 "/>
<path d="M202.6786 132.3489 L202.1850 132.3489 "/>
<path d="M202.1850 132.3489 L201.9876 132.4476 "/>
<path d="M201.9876 132.4476 L201.8888 132.5464 "/>
<path d="M201.8888 132.5464 L201.7901 132.7438 "/>
<path d="M201.7901 132.7438 L201.7901 132.9413 "/>
<path d="M201.7901 132.9413 L201.8888 133.2374 "/>
<path d="M201.8888 133.2374 L203.0735 134.4221 "/>
<path d="M203.0735 134.4221 L201.7901 134.4221 "/>
<path d="M200.8029 134.4221 L200.4080 134.4221 "/>
<path d="M200.4080 134.4221 L200.2105 134.3234 "/>
<path d="M200.2105 134.3234 L200.1118 134.2247 "/>
<path d="M200.1118 134.2247 L199.9143 133.9285 "/>
<path d="M199.9143 133.9285 L199.8156 133.5336 "/>
<path d="M199.8156 133.5336 L199.8156 132.7438 "/>
<path d="M199.8156 132.7438 L199.9143 132.5464 "/>
<path d="M199.9143 132.5464 L200.0131 132.4476 "/>
<path d="M200.0131 132.4476 L200.2105 132.3489 "/>
<path d="M200.2105 132.3489 L200.6054 132.3489 "/>
<path d="M200.6054 132.3489 L200.8029 132.4476 "/>
<path d="M200.8029 132.4476 L200.9016 132.5464 "/>
<path d="M200.9016 132.5464 L201.0003 132.7438 "/>
<path d="M201.0003 132.7438 L201.0003 133.2374 "/>
<path d="M201.0003 133.2374 L200.9016 133.4349 "/>
<path d="M200.9016 133.4349 L200.8029 133.5336 "/>
<path d="M200.8029 133.5336 L200.6054 133.6323 "/>
<path d="M200.6054 133.6323 L200.2105 133.6323 "/>
<path d="M200.2105 133.6323 L200.0131 133.5336 "/>
<path d="M200.0131 133.5336 L199.9143 133.4349 "/>
<path d="M199.9143 133.4349 L199.8156 133.2374 "/>
<path d="M198.0386 132.3489 L198.4335 132.3489 "/>
<path d="M198.4335 132.3489 L198.6309 132.4476 "/>
<path d="M198.6309 132.4476 L198.7296 132.5464 "/>
<path d="M198.7296 132.5464 L198.9271 132.8425 "/>
<path d="M198.9271 132.8425 L199.0258 133.2374 "/>
<path d="M199.0258 133.2374 L199.0258 134.0272 "/>
<path d="M199.0258 134.0272 L198.9271 134.2247 "/>
<path d="M198.9271 134.2247 L198.8284 134.3234 "/>
<path d="M198.8284 134.3234 L198.6309 134.4221 "/>
<path d="M198.6309 134.4221 L198.2360 134.4221 "/>
<path d="M198.2360 134.4221 L198.0386 134.3234 "/>
<path d="M198.0386 134.3234 L197.9399 134.2247 "/>
<path d="M197.9399 134.2247 L197.8411 134.0272 "/>
<path d="M197.8411 134.0272 L197.8411 133.5336 "/>
<path d="M197.8411 133.5336 L197.9399 133.3362 "/>
<path d="M197.9399 133.3362 L198.0386 133.2374 "/>
<path d="M198.0386 133.2374 L198.2360 133.1387 "/>
<path d="M198.2360 133.1387 L198.6309 133.1387 "/>
<path d="M198.6309 133.1387 L198.8284 133.2374 "/>
<path d="M198.8284 133.2374 L198.9271 133.3362 "/>
<path d="M198.9271 133.3362 L199.0258 133.5336 "/>
<path d="M195.9654 132.3489 L196.9526 132.3489 "/>
<path d="M196.9526 132.3489 L197.0513 133.3362 "/>
<path d="M197.0513 133.3362 L196.9526 133.2374 "/>
<path d="M196.9526 133.2374 L196.7552 133.1387 "/>
<path d="M196.7552 133.1387 L196.2615 133.1387 "/>
<path d="M196.2615 133.1387 L196.0641 133.2374 "/>
<path d="M196.0641 133.2374 L195.9654 133.3362 "/>
<path d="M195.9654 133.3362 L195.8666 133.5336 "/>
<path d="M195.8666 133.5336 L195.8666 134.0272 "/>
<path d="M195.8666 134.0272 L195.9654 134.2247 "/>
<path d="M195.9654 134.2247 L196.0641 134.3234 "/>
<path d="M196.0641 134.3234 L196.2615 134.4221 "/>
<path d="M196.2615 134.4221 L196.7552 134.4221 "/>
<path d="M196.7552 134.4221 L196.9526 134.3234 "/>
<path d="M196.9526 134.3234 L197.0513 134.2247 "/>
<path d="M194.9781 133.6323 L193.3985 133.6323 "/>
<path d="M191.0291 134.6196 L191.2266 134.5209 "/>
<path d="M191.2266 134.5209 L191.4240 134.3234 "/>
<path d="M191.4240 134.3234 L191.7202 134.0272 "/>
<path d="M191.7202 134.0272 L191.9177 133.9285 "/>
<path d="M191.9177 133.9285 L192.1151 133.9285 "/>
<path d="M192.0164 134.4221 L192.2138 134.3234 "/>
<path d="M192.2138 134.3234 L192.4113 134.1260 "/>
<path d="M192.4113 134.1260 L192.5100 133.7311 "/>
<path d="M192.5100 133.7311 L192.5100 133.0400 "/>
<path d="M192.5100 133.0400 L192.4113 132.6451 "/>
<path d="M192.4113 132.6451 L192.2138 132.4476 "/>
<path d="M192.2138 132.4476 L192.0164 132.3489 "/>
<path d="M192.0164 132.3489 L191.6215 132.3489 "/>
<path d="M191.6215 132.3489 L191.4240 132.4476 "/>
<path d="M191.4240 132.4476 L191.2266 132.6451 "/>
<path d="M191.2266 132.6451 L191.1279 133.0400 "/>
<path d="M191.1279 133.0400 L191.1279 133.7311 "/>
<path d="M191.1279 133.7311 L191.2266 134.1260 "/>
<path d="M191.2266 134.1260 L191.4240 134.3234 "/>
<path d="M191.4240 134.3234 L191.6215 134.4221 "/>
<path d="M191.6215 134.4221 L192.0164 134.4221 "/>
<path d="M189.1534 134.4221 L190.3381 134.4221 "/>
<path d="M189.7457 134.4221 L189.7457 132.3489 "/>
<path d="M189.7457 132.3489 L189.9432 132.6451 "/>
<path d="M189.9432 132.6451 L190.1406 132.8425 "/>
<path d="M190.1406 132.8425 L190.3381 132.9413 "/>
</g></g>
<g style="fill:#000084; fill-opacity:0.01;  stroke:#000084; stroke-width:0.2073; stroke-opacity:1;  stroke-linecap:round; stroke-linejoin:round;">
<text x="199.8442" y="138.6415" transform="scale(-1 1) translate(-399.688494 0)" textLength="3.1306" font-size="1.9350" lengthAdjust="spacingAndGlyphs" text-anchor="middle" opacity="0.01" style="font-family:monospace">U2</text>
<g class="stroked-text"><desc>U2</desc>
<path d="M200.9500 137.1252 L200.9500 138.3000 "/>
<path d="M200.9500 138.3000 L200.8809 138.4383 "/>
<path d="M200.8809 138.4383 L200.8117 138.5074 "/>
<path d="M200.8117 138.5074 L200.6735 138.5765 "/>
<path d="M200.6735 138.5765 L200.3971 138.5765 "/>
<path d="M200.3971 138.5765 L200.2589 138.5074 "/>
<path d="M200.2589 138.5074 L200.1898 138.4383 "/>
<path d="M200.1898 138.4383 L200.1207 138.3000 "/>
<path d="M200.1207 138.3000 L200.1207 137.1252 "/>
<path d="M199.4987 137.2634 L199.4296 137.1943 "/>
<path d="M199.4296 137.1943 L199.2914 137.1252 "/>
<path d="M199.2914 137.1252 L198.9459 137.1252 "/>
<path d="M198.9459 137.1252 L198.8076 137.1943 "/>
<path d="M198.8076 137.1943 L198.7385 137.2634 "/>
<path d="M198.7385 137.2634 L198.6694 137.4016 "/>
<path d="M198.6694 137.4016 L198.6694 137.5399 "/>
<path d="M198.6694 137.5399 L198.7385 137.7472 "/>
<path d="M198.7385 137.7472 L199.5678 138.5765 "/>
<path d="M199.5678 138.5765 L198.6694 138.5765 "/>
</g></g>
<g style="fill:#000084; fill-opacity:0.01;  stroke:#000084; stroke-width:0.3110; stroke-opacity:1;  stroke-linecap:round; stroke-linejoin:round;">
<text x="181.4134" y="56.9776" transform="scale(-1 1) translate(-362.826747 0)" textLength="28.3018" font-size="2.7643" lengthAdjust="spacingAndGlyphs" text-anchor="middle" opacity="0.01" style="font-family:monospace">ATMEGA1284P-AU</text>
<g class="stroked-text"><desc>ATMEGA1284P-AU</desc>
<path d="M194.9880 56.2916 L194.0007 56.2916 "/>
<path d="M195.1854 56.8839 L194.4944 54.8107 "/>
<path d="M194.4944 54.8107 L193.8033 56.8839 "/>
<path d="M193.4084 54.8107 L192.2237 54.8107 "/>
<path d="M192.8160 56.8839 L192.8160 54.8107 "/>
<path d="M191.5326 56.8839 L191.5326 54.8107 "/>
<path d="M191.5326 54.8107 L190.8416 56.2916 "/>
<path d="M190.8416 56.2916 L190.1505 54.8107 "/>
<path d="M190.1505 54.8107 L190.1505 56.8839 "/>
<path d="M189.1632 55.7980 L188.4722 55.7980 "/>
<path d="M188.1760 56.8839 L189.1632 56.8839 "/>
<path d="M189.1632 56.8839 L189.1632 54.8107 "/>
<path d="M189.1632 54.8107 L188.1760 54.8107 "/>
<path d="M186.2015 54.9094 L186.3990 54.8107 "/>
<path d="M186.3990 54.8107 L186.6951 54.8107 "/>
<path d="M186.6951 54.8107 L186.9913 54.9094 "/>
<path d="M186.9913 54.9094 L187.1888 55.1069 "/>
<path d="M187.1888 55.1069 L187.2875 55.3043 "/>
<path d="M187.2875 55.3043 L187.3862 55.6992 "/>
<path d="M187.3862 55.6992 L187.3862 55.9954 "/>
<path d="M187.3862 55.9954 L187.2875 56.3903 "/>
<path d="M187.2875 56.3903 L187.1888 56.5877 "/>
<path d="M187.1888 56.5877 L186.9913 56.7852 "/>
<path d="M186.9913 56.7852 L186.6951 56.8839 "/>
<path d="M186.6951 56.8839 L186.4977 56.8839 "/>
<path d="M186.4977 56.8839 L186.2015 56.7852 "/>
<path d="M186.2015 56.7852 L186.1028 56.6865 "/>
<path d="M186.1028 56.6865 L186.1028 55.9954 "/>
<path d="M186.1028 55.9954 L186.4977 55.9954 "/>
<path d="M185.3130 56.2916 L184.3257 56.2916 "/>
<path d="M185.5104 56.8839 L184.8194 54.8107 "/>
<path d="M184.8194 54.8107 L184.1283 56.8839 "/>
<path d="M182.3513 56.8839 L183.5359 56.8839 "/>
<path d="M182.9436 56.8839 L182.9436 54.8107 "/>
<path d="M182.9436 54.8107 L183.1410 55.1069 "/>
<path d="M183.1410 55.1069 L183.3385 55.3043 "/>
<path d="M183.3385 55.3043 L183.5359 55.4031 "/>
<path d="M181.5615 55.0082 L181.4627 54.9094 "/>
<path d="M181.4627 54.9094 L181.2653 54.8107 "/>
<path d="M181.2653 54.8107 L180.7717 54.8107 "/>
<path d="M180.7717 54.8107 L180.5742 54.9094 "/>
<path d="M180.5742 54.9094 L180.4755 55.0082 "/>
<path d="M180.4755 55.0082 L180.3768 55.2056 "/>
<path d="M180.3768 55.2056 L180.3768 55.4031 "/>
<path d="M180.3768 55.4031 L180.4755 55.6992 "/>
<path d="M180.4755 55.6992 L181.6602 56.8839 "/>
<path d="M181.6602 56.8839 L180.3768 56.8839 "/>
<path d="M179.1921 55.6992 L179.3895 55.6005 "/>
<path d="M179.3895 55.6005 L179.4882 55.5018 "/>
<path d="M179.4882 55.5018 L179.5870 55.3043 "/>
<path d="M179.5870 55.3043 L179.5870 55.2056 "/>
<path d="M179.5870 55.2056 L179.4882 55.0082 "/>
<path d="M179.4882 55.0082 L179.3895 54.9094 "/>
<path d="M179.3895 54.9094 L179.1921 54.8107 "/>
<path d="M179.1921 54.8107 L178.7972 54.8107 "/>
<path d="M178.7972 54.8107 L178.5997 54.9094 "/>
<path d="M178.5997 54.9094 L178.5010 55.0082 "/>
<path d="M178.5010 55.0082 L178.4023 55.2056 "/>
<path d="M178.4023 55.2056 L178.4023 55.3043 "/>
<path d="M178.4023 55.3043 L178.5010 55.5018 "/>
<path d="M178.5010 55.5018 L178.5997 55.6005 "/>
<path d="M178.5997 55.6005 L178.7972 55.6992 "/>
<path d="M178.7972 55.6992 L179.1921 55.6992 "/>
<path d="M179.1921 55.6992 L179.3895 55.7980 "/>
<path d="M179.3895 55.7980 L179.4882 55.8967 "/>
<path d="M179.4882 55.8967 L179.5870 56.0941 "/>
<path d="M179.5870 56.0941 L179.5870 56.4890 "/>
<path d="M179.5870 56.4890 L179.4882 56.6865 "/>
<path d="M179.4882 56.6865 L179.3895 56.7852 "/>
<path d="M179.3895 56.7852 L179.1921 56.8839 "/>
<path d="M179.1921 56.8839 L178.7972 56.8839 "/>
<path d="M178.7972 56.8839 L178.5997 56.7852 "/>
<path d="M178.5997 56.7852 L178.5010 56.6865 "/>
<path d="M178.5010 56.6865 L178.4023 56.4890 "/>
<path d="M178.4023 56.4890 L178.4023 56.0941 "/>
<path d="M178.4023 56.0941 L178.5010 55.8967 "/>
<path d="M178.5010 55.8967 L178.5997 55.7980 "/>
<path d="M178.5997 55.7980 L178.7972 55.6992 "/>
<path d="M176.6252 55.5018 L176.6252 56.8839 "/>
<path d="M177.1189 54.7120 L177.6125 56.1929 "/>
<path d="M177.6125 56.1929 L176.3291 56.1929 "/>
<path d="M175.5393 56.8839 L175.5393 54.8107 "/>
<path d="M175.5393 54.8107 L174.7495 54.8107 "/>
<path d="M174.7495 54.8107 L174.5520 54.9094 "/>
<path d="M174.5520 54.9094 L174.4533 55.0082 "/>
<path d="M174.4533 55.0082 L174.3546 55.2056 "/>
<path d="M174.3546 55.2056 L174.3546 55.5018 "/>
<path d="M174.3546 55.5018 L174.4533 55.6992 "/>
<path d="M174.4533 55.6992 L174.5520 55.7980 "/>
<path d="M174.5520 55.7980 L174.7495 55.8967 "/>
<path d="M174.7495 55.8967 L175.5393 55.8967 "/>
<path d="M173.4660 56.0941 L171.8865 56.0941 "/>
<path d="M170.9979 56.2916 L170.0107 56.2916 "/>
<path d="M171.1954 56.8839 L170.5043 54.8107 "/>
<path d="M170.5043 54.8107 L169.8132 56.8839 "/>
<path d="M169.1222 54.8107 L169.1222 56.4890 "/>
<path d="M169.1222 56.4890 L169.0234 56.6865 "/>
<path d="M169.0234 56.6865 L168.9247 56.7852 "/>
<path d="M168.9247 56.7852 L168.7273 56.8839 "/>
<path d="M168.7273 56.8839 L168.3324 56.8839 "/>
<path d="M168.3324 56.8839 L168.1349 56.7852 "/>
<path d="M168.1349 56.7852 L168.0362 56.6865 "/>
<path d="M168.0362 56.6865 L167.9375 56.4890 "/>
<path d="M167.9375 56.4890 L167.9375 54.8107 "/>
</g><text x="181.4134" y="41.5322" transform="scale(-1 1) translate(-362.826747 0)" textLength="4.5092" font-size="2.7643" lengthAdjust="spacingAndGlyphs" text-anchor="middle" opacity="0.01" style="font-family:monospace">U3</text>
<g class="stroked-text"><desc>U3</desc>
<path d="M182.9930 39.3653 L182.9930 41.0436 "/>
<path d="M182.9930 41.0436 L182.8942 41.2410 "/>
<path d="M182.8942 41.2410 L182.7955 41.3398 "/>
<path d="M182.7955 41.3398 L182.5981 41.4385 "/>
<path d="M182.5981 41.4385 L182.2032 41.4385 "/>
<path d="M182.2032 41.4385 L182.0057 41.3398 "/>
<path d="M182.0057 41.3398 L181.9070 41.2410 "/>
<path d="M181.9070 41.2410 L181.8083 41.0436 "/>
<path d="M181.8083 41.0436 L181.8083 39.3653 "/>
<path d="M181.0185 39.3653 L179.7351 39.3653 "/>
<path d="M179.7351 39.3653 L180.4261 40.1551 "/>
<path d="M180.4261 40.1551 L180.1300 40.1551 "/>
<path d="M180.1300 40.1551 L179.9325 40.2538 "/>
<path d="M179.9325 40.2538 L179.8338 40.3525 "/>
<path d="M179.8338 40.3525 L179.7351 40.5500 "/>
<path d="M179.7351 40.5500 L179.7351 41.0436 "/>
<path d="M179.7351 41.0436 L179.8338 41.2410 "/>
<path d="M179.8338 41.2410 L179.9325 41.3398 "/>
<path d="M179.9325 41.3398 L180.1300 41.4385 "/>
<path d="M180.1300 41.4385 L180.7223 41.4385 "/>
<path d="M180.7223 41.4385 L180.9197 41.3398 "/>
<path d="M180.9197 41.3398 L181.0185 41.2410 "/>
</g><text x="139.9439" y="29.1084" transform="scale(-1 1) translate(-279.887818 0)" textLength="34.2253" font-size="2.7643" lengthAdjust="spacingAndGlyphs" text-anchor="middle" opacity="0.01" style="font-family:monospace">ISL21080CIH320Z-TK</text>
<g class="stroked-text"><desc>ISL21080CIH320Z-TK</desc>
<path d="M156.3815 29.0147 L156.3815 26.9415 "/>
<path d="M155.4930 28.9160 L155.1968 29.0147 "/>
<path d="M155.1968 29.0147 L154.7032 29.0147 "/>
<path d="M154.7032 29.0147 L154.5058 28.9160 "/>
<path d="M154.5058 28.9160 L154.4070 28.8173 "/>
<path d="M154.4070 28.8173 L154.3083 28.6198 "/>
<path d="M154.3083 28.6198 L154.3083 28.4224 "/>
<path d="M154.3083 28.4224 L154.4070 28.2249 "/>
<path d="M154.4070 28.2249 L154.5058 28.1262 "/>
<path d="M154.5058 28.1262 L154.7032 28.0275 "/>
<path d="M154.7032 28.0275 L155.0981 27.9288 "/>
<path d="M155.0981 27.9288 L155.2956 27.8301 "/>
<path d="M155.2956 27.8301 L155.3943 27.7313 "/>
<path d="M155.3943 27.7313 L155.4930 27.5339 "/>
<path d="M155.4930 27.5339 L155.4930 27.3364 "/>
<path d="M155.4930 27.3364 L155.3943 27.1390 "/>
<path d="M155.3943 27.1390 L155.2956 27.0403 "/>
<path d="M155.2956 27.0403 L155.0981 26.9415 "/>
<path d="M155.0981 26.9415 L154.6045 26.9415 "/>
<path d="M154.6045 26.9415 L154.3083 27.0403 "/>
<path d="M152.4326 29.0147 L153.4198 29.0147 "/>
<path d="M153.4198 29.0147 L153.4198 26.9415 "/>
<path d="M151.8402 27.1390 L151.7415 27.0403 "/>
<path d="M151.7415 27.0403 L151.5440 26.9415 "/>
<path d="M151.5440 26.9415 L151.0504 26.9415 "/>
<path d="M151.0504 26.9415 L150.8530 27.0403 "/>
<path d="M150.8530 27.0403 L150.7542 27.1390 "/>
<path d="M150.7542 27.1390 L150.6555 27.3364 "/>
<path d="M150.6555 27.3364 L150.6555 27.5339 "/>
<path d="M150.6555 27.5339 L150.7542 27.8301 "/>
<path d="M150.7542 27.8301 L151.9389 29.0147 "/>
<path d="M151.9389 29.0147 L150.6555 29.0147 "/>
<path d="M148.6810 29.0147 L149.8657 29.0147 "/>
<path d="M149.2734 29.0147 L149.2734 26.9415 "/>
<path d="M149.2734 26.9415 L149.4708 27.2377 "/>
<path d="M149.4708 27.2377 L149.6683 27.4352 "/>
<path d="M149.6683 27.4352 L149.8657 27.5339 "/>
<path d="M147.3976 26.9415 L147.2002 26.9415 "/>
<path d="M147.2002 26.9415 L147.0027 27.0403 "/>
<path d="M147.0027 27.0403 L146.9040 27.1390 "/>
<path d="M146.9040 27.1390 L146.8053 27.3364 "/>
<path d="M146.8053 27.3364 L146.7065 27.7313 "/>
<path d="M146.7065 27.7313 L146.7065 28.2249 "/>
<path d="M146.7065 28.2249 L146.8053 28.6198 "/>
<path d="M146.8053 28.6198 L146.9040 28.8173 "/>
<path d="M146.9040 28.8173 L147.0027 28.9160 "/>
<path d="M147.0027 28.9160 L147.2002 29.0147 "/>
<path d="M147.2002 29.0147 L147.3976 29.0147 "/>
<path d="M147.3976 29.0147 L147.5951 28.9160 "/>
<path d="M147.5951 28.9160 L147.6938 28.8173 "/>
<path d="M147.6938 28.8173 L147.7925 28.6198 "/>
<path d="M147.7925 28.6198 L147.8912 28.2249 "/>
<path d="M147.8912 28.2249 L147.8912 27.7313 "/>
<path d="M147.8912 27.7313 L147.7925 27.3364 "/>
<path d="M147.7925 27.3364 L147.6938 27.1390 "/>
<path d="M147.6938 27.1390 L147.5951 27.0403 "/>
<path d="M147.5951 27.0403 L147.3976 26.9415 "/>
<path d="M145.5218 27.8301 L145.7193 27.7313 "/>
<path d="M145.7193 27.7313 L145.8180 27.6326 "/>
<path d="M145.8180 27.6326 L145.9167 27.4352 "/>
<path d="M145.9167 27.4352 L145.9167 27.3364 "/>
<path d="M145.9167 27.3364 L145.8180 27.1390 "/>
<path d="M145.8180 27.1390 L145.7193 27.0403 "/>
<path d="M145.7193 27.0403 L145.5218 26.9415 "/>
<path d="M145.5218 26.9415 L145.1269 26.9415 "/>
<path d="M145.1269 26.9415 L144.9295 27.0403 "/>
<path d="M144.9295 27.0403 L144.8308 27.1390 "/>
<path d="M144.8308 27.1390 L144.7320 27.3364 "/>
<path d="M144.7320 27.3364 L144.7320 27.4352 "/>
<path d="M144.7320 27.4352 L144.8308 27.6326 "/>
<path d="M144.8308 27.6326 L144.9295 27.7313 "/>
<path d="M144.9295 27.7313 L145.1269 27.8301 "/>
<path d="M145.1269 27.8301 L145.5218 27.8301 "/>
<path d="M145.5218 27.8301 L145.7193 27.9288 "/>
<path d="M145.7193 27.9288 L145.8180 28.0275 "/>
<path d="M145.8180 28.0275 L145.9167 28.2249 "/>
<path d="M145.9167 28.2249 L145.9167 28.6198 "/>
<path d="M145.9167 28.6198 L145.8180 28.8173 "/>
<path d="M145.8180 28.8173 L145.7193 28.9160 "/>
<path d="M145.7193 28.9160 L145.5218 29.0147 "/>
<path d="M145.5218 29.0147 L145.1269 29.0147 "/>
<path d="M145.1269 29.0147 L144.9295 28.9160 "/>
<path d="M144.9295 28.9160 L144.8308 28.8173 "/>
<path d="M144.8308 28.8173 L144.7320 28.6198 "/>
<path d="M144.7320 28.6198 L144.7320 28.2249 "/>
<path d="M144.7320 28.2249 L144.8308 28.0275 "/>
<path d="M144.8308 28.0275 L144.9295 27.9288 "/>
<path d="M144.9295 27.9288 L145.1269 27.8301 "/>
<path d="M143.4486 26.9415 L143.2512 26.9415 "/>
<path d="M143.2512 26.9415 L143.0537 27.0403 "/>
<path d="M143.0537 27.0403 L142.9550 27.1390 "/>
<path d="M142.9550 27.1390 L142.8563 27.3364 "/>
<path d="M142.8563 27.3364 L142.7576 27.7313 "/>
<path d="M142.7576 27.7313 L142.7576 28.2249 "/>
<path d="M142.7576 28.2249 L142.8563 28.6198 "/>
<path d="M142.8563 28.6198 L142.9550 28.8173 "/>
<path d="M142.9550 28.8173 L143.0537 28.9160 "/>
<path d="M143.0537 28.9160 L143.2512 29.0147 "/>
<path d="M143.2512 29.0147 L143.4486 29.0147 "/>
<path d="M143.4486 29.0147 L143.6461 28.9160 "/>
<path d="M143.6461 28.9160 L143.7448 28.8173 "/>
<path d="M143.7448 28.8173 L143.8435 28.6198 "/>
<path d="M143.8435 28.6198 L143.9422 28.2249 "/>
<path d="M143.9422 28.2249 L143.9422 27.7313 "/>
<path d="M143.9422 27.7313 L143.8435 27.3364 "/>
<path d="M143.8435 27.3364 L143.7448 27.1390 "/>
<path d="M143.7448 27.1390 L143.6461 27.0403 "/>
<path d="M143.6461 27.0403 L143.4486 26.9415 "/>
<path d="M140.6843 28.8173 L140.7831 28.9160 "/>
<path d="M140.7831 28.9160 L141.0792 29.0147 "/>
<path d="M141.0792 29.0147 L141.2767 29.0147 "/>
<path d="M141.2767 29.0147 L141.5729 28.9160 "/>
<path d="M141.5729 28.9160 L141.7703 28.7186 "/>
<path d="M141.7703 28.7186 L141.8690 28.5211 "/>
<path d="M141.8690 28.5211 L141.9678 28.1262 "/>
<path d="M141.9678 28.1262 L141.9678 27.8301 "/>
<path d="M141.9678 27.8301 L141.8690 27.4352 "/>
<path d="M141.8690 27.4352 L141.7703 27.2377 "/>
<path d="M141.7703 27.2377 L141.5729 27.0403 "/>
<path d="M141.5729 27.0403 L141.2767 26.9415 "/>
<path d="M141.2767 26.9415 L141.0792 26.9415 "/>
<path d="M141.0792 26.9415 L140.7831 27.0403 "/>
<path d="M140.7831 27.0403 L140.6843 27.1390 "/>
<path d="M139.7958 29.0147 L139.7958 26.9415 "/>
<path d="M138.8086 29.0147 L138.8086 26.9415 "/>
<path d="M138.8086 27.9288 L137.6239 27.9288 "/>
<path d="M137.6239 29.0147 L137.6239 26.9415 "/>
<path d="M136.8341 26.9415 L135.5507 26.9415 "/>
<path d="M135.5507 26.9415 L136.2417 27.7313 "/>
<path d="M136.2417 27.7313 L135.9456 27.7313 "/>
<path d="M135.9456 27.7313 L135.7481 27.8301 "/>
<path d="M135.7481 27.8301 L135.6494 27.9288 "/>
<path d="M135.6494 27.9288 L135.5507 28.1262 "/>
<path d="M135.5507 28.1262 L135.5507 28.6198 "/>
<path d="M135.5507 28.6198 L135.6494 28.8173 "/>
<path d="M135.6494 28.8173 L135.7481 28.9160 "/>
<path d="M135.7481 28.9160 L135.9456 29.0147 "/>
<path d="M135.9456 29.0147 L136.5379 29.0147 "/>
<path d="M136.5379 29.0147 L136.7354 28.9160 "/>
<path d="M136.7354 28.9160 L136.8341 28.8173 "/>
<path d="M134.7609 27.1390 L134.6621 27.0403 "/>
<path d="M134.6621 27.0403 L134.4647 26.9415 "/>
<path d="M134.4647 26.9415 L133.9711 26.9415 "/>
<path d="M133.9711 26.9415 L133.7736 27.0403 "/>
<path d="M133.7736 27.0403 L133.6749 27.1390 "/>
<path d="M133.6749 27.1390 L133.5762 27.3364 "/>
<path d="M133.5762 27.3364 L133.5762 27.5339 "/>
<path d="M133.5762 27.5339 L133.6749 27.8301 "/>
<path d="M133.6749 27.8301 L134.8596 29.0147 "/>
<path d="M134.8596 29.0147 L133.5762 29.0147 "/>
<path d="M132.2928 26.9415 L132.0953 26.9415 "/>
<path d="M132.0953 26.9415 L131.8979 27.0403 "/>
<path d="M131.8979 27.0403 L131.7991 27.1390 "/>
<path d="M131.7991 27.1390 L131.7004 27.3364 "/>
<path d="M131.7004 27.3364 L131.6017 27.7313 "/>
<path d="M131.6017 27.7313 L131.6017 28.2249 "/>
<path d="M131.6017 28.2249 L131.7004 28.6198 "/>
<path d="M131.7004 28.6198 L131.7991 28.8173 "/>
<path d="M131.7991 28.8173 L131.8979 28.9160 "/>
<path d="M131.8979 28.9160 L132.0953 29.0147 "/>
<path d="M132.0953 29.0147 L132.2928 29.0147 "/>
<path d="M132.2928 29.0147 L132.4902 28.9160 "/>
<path d="M132.4902 28.9160 L132.5889 28.8173 "/>
<path d="M132.5889 28.8173 L132.6877 28.6198 "/>
<path d="M132.6877 28.6198 L132.7864 28.2249 "/>
<path d="M132.7864 28.2249 L132.7864 27.7313 "/>
<path d="M132.7864 27.7313 L132.6877 27.3364 "/>
<path d="M132.6877 27.3364 L132.5889 27.1390 "/>
<path d="M132.5889 27.1390 L132.4902 27.0403 "/>
<path d="M132.4902 27.0403 L132.2928 26.9415 "/>
<path d="M130.9106 26.9415 L129.5285 26.9415 "/>
<path d="M129.5285 26.9415 L130.9106 29.0147 "/>
<path d="M130.9106 29.0147 L129.5285 29.0147 "/>
<path d="M128.7387 28.2249 L127.1591 28.2249 "/>
<path d="M126.4680 26.9415 L125.2833 26.9415 "/>
<path d="M125.8757 29.0147 L125.8757 26.9415 "/>
<path d="M124.5923 29.0147 L124.5923 26.9415 "/>
<path d="M123.4076 29.0147 L124.2961 27.8301 "/>
<path d="M123.4076 26.9415 L124.5923 28.1262 "/>
</g></g>
<g style="fill:#000084; fill-opacity:0.0;  stroke:#000084; stroke-width:0.1555; stroke-opacity:1;  stroke-linecap:round; stroke-linejoin:round;">
<g transform="rotate(-90.000000 139.9439 33.2548)">
<text x="139.9439" y="33.7731" transform="scale(-1 1) translate(-279.887818 0)" textLength="2.2546" font-size="1.3821" lengthAdjust="spacingAndGlyphs" text-anchor="middle" opacity="0.01" style="font-family:monospace">U1</text>
</g>
<g class="stroked-text"><desc>U1</desc>
<path d="M139.3788 32.4650 L140.2179 32.4650 "/>
<path d="M140.2179 32.4650 L140.3167 32.5144 "/>
<path d="M140.3167 32.5144 L140.3660 32.5638 "/>
<path d="M140.3660 32.5638 L140.4154 32.6625 "/>
<path d="M140.4154 32.6625 L140.4154 32.8599 "/>
<path d="M140.4154 32.8599 L140.3660 32.9587 "/>
<path d="M140.3660 32.9587 L140.3167 33.0080 "/>
<path d="M140.3167 33.0080 L140.2179 33.0574 "/>
<path d="M140.2179 33.0574 L139.3788 33.0574 "/>
<path d="M140.4154 34.0940 L140.4154 33.5017 "/>
<path d="M140.4154 33.7978 L139.3788 33.7978 "/>
<path d="M139.3788 33.7978 L139.5269 33.6991 "/>
<path d="M139.5269 33.6991 L139.6256 33.6004 "/>
<path d="M139.6256 33.6004 L139.6749 33.5017 "/>
</g></g>
<g style="fill:#000084; fill-opacity:0.01;  stroke:#000084; stroke-width:0.3110; stroke-opacity:1;  stroke-linecap:round; stroke-linejoin:round;">
<text x="141.9186" y="99.7376" transform="scale(-1 1) translate(-283.837291 0)" textLength="31.2636" font-size="2.7643" lengthAdjust="spacingAndGlyphs" text-anchor="middle" opacity="0.01" style="font-family:monospace">Battery_Cell-device</text>
<g class="stroked-text"><desc>Battery_Cell-device</desc>
<path d="M156.1843 98.5580 L155.8882 98.6567 "/>
<path d="M155.8882 98.6567 L155.7894 98.7554 "/>
<path d="M155.7894 98.7554 L155.6907 98.9529 "/>
<path d="M155.6907 98.9529 L155.6907 99.2491 "/>
<path d="M155.6907 99.2491 L155.7894 99.4465 "/>
<path d="M155.7894 99.4465 L155.8882 99.5452 "/>
<path d="M155.8882 99.5452 L156.0856 99.6440 "/>
<path d="M156.0856 99.6440 L156.8754 99.6440 "/>
<path d="M156.8754 99.6440 L156.8754 97.5708 "/>
<path d="M156.8754 97.5708 L156.1843 97.5708 "/>
<path d="M156.1843 97.5708 L155.9869 97.6695 "/>
<path d="M155.9869 97.6695 L155.8882 97.7682 "/>
<path d="M155.8882 97.7682 L155.7894 97.9656 "/>
<path d="M155.7894 97.9656 L155.7894 98.1631 "/>
<path d="M155.7894 98.1631 L155.8882 98.3605 "/>
<path d="M155.8882 98.3605 L155.9869 98.4593 "/>
<path d="M155.9869 98.4593 L156.1843 98.5580 "/>
<path d="M156.1843 98.5580 L156.8754 98.5580 "/>
<path d="M153.9137 99.6440 L153.9137 98.5580 "/>
<path d="M153.9137 98.5580 L154.0124 98.3605 "/>
<path d="M154.0124 98.3605 L154.2098 98.2618 "/>
<path d="M154.2098 98.2618 L154.6047 98.2618 "/>
<path d="M154.6047 98.2618 L154.8022 98.3605 "/>
<path d="M153.9137 99.5452 L154.1111 99.6440 "/>
<path d="M154.1111 99.6440 L154.6047 99.6440 "/>
<path d="M154.6047 99.6440 L154.8022 99.5452 "/>
<path d="M154.8022 99.5452 L154.9009 99.3478 "/>
<path d="M154.9009 99.3478 L154.9009 99.1503 "/>
<path d="M154.9009 99.1503 L154.8022 98.9529 "/>
<path d="M154.8022 98.9529 L154.6047 98.8542 "/>
<path d="M154.6047 98.8542 L154.1111 98.8542 "/>
<path d="M154.1111 98.8542 L153.9137 98.7554 "/>
<path d="M153.2226 98.2618 L152.4328 98.2618 "/>
<path d="M152.9264 97.5708 L152.9264 99.3478 "/>
<path d="M152.9264 99.3478 L152.8277 99.5452 "/>
<path d="M152.8277 99.5452 L152.6303 99.6440 "/>
<path d="M152.6303 99.6440 L152.4328 99.6440 "/>
<path d="M152.0379 98.2618 L151.2481 98.2618 "/>
<path d="M151.7417 97.5708 L151.7417 99.3478 "/>
<path d="M151.7417 99.3478 L151.6430 99.5452 "/>
<path d="M151.6430 99.5452 L151.4456 99.6440 "/>
<path d="M151.4456 99.6440 L151.2481 99.6440 "/>
<path d="M149.7672 99.5452 L149.9647 99.6440 "/>
<path d="M149.9647 99.6440 L150.3596 99.6440 "/>
<path d="M150.3596 99.6440 L150.5570 99.5452 "/>
<path d="M150.5570 99.5452 L150.6558 99.3478 "/>
<path d="M150.6558 99.3478 L150.6558 98.5580 "/>
<path d="M150.6558 98.5580 L150.5570 98.3605 "/>
<path d="M150.5570 98.3605 L150.3596 98.2618 "/>
<path d="M150.3596 98.2618 L149.9647 98.2618 "/>
<path d="M149.9647 98.2618 L149.7672 98.3605 "/>
<path d="M149.7672 98.3605 L149.6685 98.5580 "/>
<path d="M149.6685 98.5580 L149.6685 98.7554 "/>
<path d="M149.6685 98.7554 L150.6558 98.9529 "/>
<path d="M148.7800 99.6440 L148.7800 98.2618 "/>
<path d="M148.7800 98.6567 L148.6813 98.4593 "/>
<path d="M148.6813 98.4593 L148.5825 98.3605 "/>
<path d="M148.5825 98.3605 L148.3851 98.2618 "/>
<path d="M148.3851 98.2618 L148.1876 98.2618 "/>
<path d="M147.6940 98.2618 L147.2004 99.6440 "/>
<path d="M146.7068 98.2618 L147.2004 99.6440 "/>
<path d="M147.2004 99.6440 L147.3979 100.1376 "/>
<path d="M147.3979 100.1376 L147.4966 100.2363 "/>
<path d="M147.4966 100.2363 L147.6940 100.3350 "/>
<path d="M146.4106 99.8414 L144.8310 99.8414 "/>
<path d="M143.1527 99.4465 L143.2514 99.5452 "/>
<path d="M143.2514 99.5452 L143.5476 99.6440 "/>
<path d="M143.5476 99.6440 L143.7450 99.6440 "/>
<path d="M143.7450 99.6440 L144.0412 99.5452 "/>
<path d="M144.0412 99.5452 L144.2387 99.3478 "/>
<path d="M144.2387 99.3478 L144.3374 99.1503 "/>
<path d="M144.3374 99.1503 L144.4361 98.7554 "/>
<path d="M144.4361 98.7554 L144.4361 98.4593 "/>
<path d="M144.4361 98.4593 L144.3374 98.0644 "/>
<path d="M144.3374 98.0644 L144.2387 97.8669 "/>
<path d="M144.2387 97.8669 L144.0412 97.6695 "/>
<path d="M144.0412 97.6695 L143.7450 97.5708 "/>
<path d="M143.7450 97.5708 L143.5476 97.5708 "/>
<path d="M143.5476 97.5708 L143.2514 97.6695 "/>
<path d="M143.2514 97.6695 L143.1527 97.7682 "/>
<path d="M141.4744 99.5452 L141.6718 99.6440 "/>
<path d="M141.6718 99.6440 L142.0667 99.6440 "/>
<path d="M142.0667 99.6440 L142.2642 99.5452 "/>
<path d="M142.2642 99.5452 L142.3629 99.3478 "/>
<path d="M142.3629 99.3478 L142.3629 98.5580 "/>
<path d="M142.3629 98.5580 L142.2642 98.3605 "/>
<path d="M142.2642 98.3605 L142.0667 98.2618 "/>
<path d="M142.0667 98.2618 L141.6718 98.2618 "/>
<path d="M141.6718 98.2618 L141.4744 98.3605 "/>
<path d="M141.4744 98.3605 L141.3757 98.5580 "/>
<path d="M141.3757 98.5580 L141.3757 98.7554 "/>
<path d="M141.3757 98.7554 L142.3629 98.9529 "/>
<path d="M140.1910 99.6440 L140.3884 99.5452 "/>
<path d="M140.3884 99.5452 L140.4871 99.3478 "/>
<path d="M140.4871 99.3478 L140.4871 97.5708 "/>
<path d="M139.1050 99.6440 L139.3024 99.5452 "/>
<path d="M139.3024 99.5452 L139.4012 99.3478 "/>
<path d="M139.4012 99.3478 L139.4012 97.5708 "/>
<path d="M138.3152 98.8542 L136.7356 98.8542 "/>
<path d="M134.8598 99.6440 L134.8598 97.5708 "/>
<path d="M134.8598 99.5452 L135.0573 99.6440 "/>
<path d="M135.0573 99.6440 L135.4522 99.6440 "/>
<path d="M135.4522 99.6440 L135.6496 99.5452 "/>
<path d="M135.6496 99.5452 L135.7484 99.4465 "/>
<path d="M135.7484 99.4465 L135.8471 99.2491 "/>
<path d="M135.8471 99.2491 L135.8471 98.6567 "/>
<path d="M135.8471 98.6567 L135.7484 98.4593 "/>
<path d="M135.7484 98.4593 L135.6496 98.3605 "/>
<path d="M135.6496 98.3605 L135.4522 98.2618 "/>
<path d="M135.4522 98.2618 L135.0573 98.2618 "/>
<path d="M135.0573 98.2618 L134.8598 98.3605 "/>
<path d="M133.0828 99.5452 L133.2802 99.6440 "/>
<path d="M133.2802 99.6440 L133.6751 99.6440 "/>
<path d="M133.6751 99.6440 L133.8726 99.5452 "/>
<path d="M133.8726 99.5452 L133.9713 99.3478 "/>
<path d="M133.9713 99.3478 L133.9713 98.5580 "/>
<path d="M133.9713 98.5580 L133.8726 98.3605 "/>
<path d="M133.8726 98.3605 L133.6751 98.2618 "/>
<path d="M133.6751 98.2618 L133.2802 98.2618 "/>
<path d="M133.2802 98.2618 L133.0828 98.3605 "/>
<path d="M133.0828 98.3605 L132.9841 98.5580 "/>
<path d="M132.9841 98.5580 L132.9841 98.7554 "/>
<path d="M132.9841 98.7554 L133.9713 98.9529 "/>
<path d="M132.2930 98.2618 L131.7994 99.6440 "/>
<path d="M131.7994 99.6440 L131.3058 98.2618 "/>
<path d="M130.5160 99.6440 L130.5160 98.2618 "/>
<path d="M130.5160 97.5708 L130.6147 97.6695 "/>
<path d="M130.6147 97.6695 L130.5160 97.7682 "/>
<path d="M130.5160 97.7682 L130.4172 97.6695 "/>
<path d="M130.4172 97.6695 L130.5160 97.5708 "/>
<path d="M130.5160 97.5708 L130.5160 97.7682 "/>
<path d="M128.6402 99.5452 L128.8376 99.6440 "/>
<path d="M128.8376 99.6440 L129.2325 99.6440 "/>
<path d="M129.2325 99.6440 L129.4300 99.5452 "/>
<path d="M129.4300 99.5452 L129.5287 99.4465 "/>
<path d="M129.5287 99.4465 L129.6274 99.2491 "/>
<path d="M129.6274 99.2491 L129.6274 98.6567 "/>
<path d="M129.6274 98.6567 L129.5287 98.4593 "/>
<path d="M129.5287 98.4593 L129.4300 98.3605 "/>
<path d="M129.4300 98.3605 L129.2325 98.2618 "/>
<path d="M129.2325 98.2618 L128.8376 98.2618 "/>
<path d="M128.8376 98.2618 L128.6402 98.3605 "/>
<path d="M126.9619 99.5452 L127.1593 99.6440 "/>
<path d="M127.1593 99.6440 L127.5542 99.6440 "/>
<path d="M127.5542 99.6440 L127.7517 99.5452 "/>
<path d="M127.7517 99.5452 L127.8504 99.3478 "/>
<path d="M127.8504 99.3478 L127.8504 98.5580 "/>
<path d="M127.8504 98.5580 L127.7517 98.3605 "/>
<path d="M127.7517 98.3605 L127.5542 98.2618 "/>
<path d="M127.5542 98.2618 L127.1593 98.2618 "/>
<path d="M127.1593 98.2618 L126.9619 98.3605 "/>
<path d="M126.9619 98.3605 L126.8632 98.5580 "/>
<path d="M126.8632 98.5580 L126.8632 98.7554 "/>
<path d="M126.8632 98.7554 L127.8504 98.9529 "/>
</g><text x="124.9027" y="39.4745" transform="scale(-1 1) translate(-249.805482 0)" textLength="47.2569" font-size="2.7643" lengthAdjust="spacingAndGlyphs" text-anchor="middle" opacity="0.01" style="font-family:monospace">LM4041CIM3-1.2(neosazovat)</text>
<g class="stroked-text"><desc>LM4041CIM3-1.2(neosazovat)</desc>
<path d="M146.8689 39.3808 L147.8562 39.3808 "/>
<path d="M147.8562 39.3808 L147.8562 37.3076 "/>
<path d="M146.1779 39.3808 L146.1779 37.3076 "/>
<path d="M146.1779 37.3076 L145.4868 38.7885 "/>
<path d="M145.4868 38.7885 L144.7957 37.3076 "/>
<path d="M144.7957 37.3076 L144.7957 39.3808 "/>
<path d="M142.9200 37.9987 L142.9200 39.3808 "/>
<path d="M143.4136 37.2089 L143.9072 38.6897 "/>
<path d="M143.9072 38.6897 L142.6238 38.6897 "/>
<path d="M141.4391 37.3076 L141.2416 37.3076 "/>
<path d="M141.2416 37.3076 L141.0442 37.4063 "/>
<path d="M141.0442 37.4063 L140.9455 37.5051 "/>
<path d="M140.9455 37.5051 L140.8467 37.7025 "/>
<path d="M140.8467 37.7025 L140.7480 38.0974 "/>
<path d="M140.7480 38.0974 L140.7480 38.5910 "/>
<path d="M140.7480 38.5910 L140.8467 38.9859 "/>
<path d="M140.8467 38.9859 L140.9455 39.1834 "/>
<path d="M140.9455 39.1834 L141.0442 39.2821 "/>
<path d="M141.0442 39.2821 L141.2416 39.3808 "/>
<path d="M141.2416 39.3808 L141.4391 39.3808 "/>
<path d="M141.4391 39.3808 L141.6365 39.2821 "/>
<path d="M141.6365 39.2821 L141.7353 39.1834 "/>
<path d="M141.7353 39.1834 L141.8340 38.9859 "/>
<path d="M141.8340 38.9859 L141.9327 38.5910 "/>
<path d="M141.9327 38.5910 L141.9327 38.0974 "/>
<path d="M141.9327 38.0974 L141.8340 37.7025 "/>
<path d="M141.8340 37.7025 L141.7353 37.5051 "/>
<path d="M141.7353 37.5051 L141.6365 37.4063 "/>
<path d="M141.6365 37.4063 L141.4391 37.3076 "/>
<path d="M138.9710 37.9987 L138.9710 39.3808 "/>
<path d="M139.4646 37.2089 L139.9582 38.6897 "/>
<path d="M139.9582 38.6897 L138.6748 38.6897 "/>
<path d="M136.7990 39.3808 L137.9837 39.3808 "/>
<path d="M137.3914 39.3808 L137.3914 37.3076 "/>
<path d="M137.3914 37.3076 L137.5888 37.6038 "/>
<path d="M137.5888 37.6038 L137.7863 37.8012 "/>
<path d="M137.7863 37.8012 L137.9837 37.8999 "/>
<path d="M134.7258 39.1834 L134.8246 39.2821 "/>
<path d="M134.8246 39.2821 L135.1207 39.3808 "/>
<path d="M135.1207 39.3808 L135.3182 39.3808 "/>
<path d="M135.3182 39.3808 L135.6143 39.2821 "/>
<path d="M135.6143 39.2821 L135.8118 39.0846 "/>
<path d="M135.8118 39.0846 L135.9105 38.8872 "/>
<path d="M135.9105 38.8872 L136.0092 38.4923 "/>
<path d="M136.0092 38.4923 L136.0092 38.1961 "/>
<path d="M136.0092 38.1961 L135.9105 37.8012 "/>
<path d="M135.9105 37.8012 L135.8118 37.6038 "/>
<path d="M135.8118 37.6038 L135.6143 37.4063 "/>
<path d="M135.6143 37.4063 L135.3182 37.3076 "/>
<path d="M135.3182 37.3076 L135.1207 37.3076 "/>
<path d="M135.1207 37.3076 L134.8246 37.4063 "/>
<path d="M134.8246 37.4063 L134.7258 37.5051 "/>
<path d="M133.8373 39.3808 L133.8373 37.3076 "/>
<path d="M132.8501 39.3808 L132.8501 37.3076 "/>
<path d="M132.8501 37.3076 L132.1590 38.7885 "/>
<path d="M132.1590 38.7885 L131.4679 37.3076 "/>
<path d="M131.4679 37.3076 L131.4679 39.3808 "/>
<path d="M130.6781 37.3076 L129.3947 37.3076 "/>
<path d="M129.3947 37.3076 L130.0858 38.0974 "/>
<path d="M130.0858 38.0974 L129.7896 38.0974 "/>
<path d="M129.7896 38.0974 L129.5922 38.1961 "/>
<path d="M129.5922 38.1961 L129.4934 38.2948 "/>
<path d="M129.4934 38.2948 L129.3947 38.4923 "/>
<path d="M129.3947 38.4923 L129.3947 38.9859 "/>
<path d="M129.3947 38.9859 L129.4934 39.1834 "/>
<path d="M129.4934 39.1834 L129.5922 39.2821 "/>
<path d="M129.5922 39.2821 L129.7896 39.3808 "/>
<path d="M129.7896 39.3808 L130.3819 39.3808 "/>
<path d="M130.3819 39.3808 L130.5794 39.2821 "/>
<path d="M130.5794 39.2821 L130.6781 39.1834 "/>
<path d="M128.5062 38.5910 L126.9266 38.5910 "/>
<path d="M124.8534 39.3808 L126.0381 39.3808 "/>
<path d="M125.4457 39.3808 L125.4457 37.3076 "/>
<path d="M125.4457 37.3076 L125.6432 37.6038 "/>
<path d="M125.6432 37.6038 L125.8406 37.8012 "/>
<path d="M125.8406 37.8012 L126.0381 37.8999 "/>
<path d="M123.9649 39.1834 L123.8661 39.2821 "/>
<path d="M123.8661 39.2821 L123.9649 39.3808 "/>
<path d="M123.9649 39.3808 L124.0636 39.2821 "/>
<path d="M124.0636 39.2821 L123.9649 39.1834 "/>
<path d="M123.9649 39.1834 L123.9649 39.3808 "/>
<path d="M123.0763 37.5051 L122.9776 37.4063 "/>
<path d="M122.9776 37.4063 L122.7802 37.3076 "/>
<path d="M122.7802 37.3076 L122.2865 37.3076 "/>
<path d="M122.2865 37.3076 L122.0891 37.4063 "/>
<path d="M122.0891 37.4063 L121.9904 37.5051 "/>
<path d="M121.9904 37.5051 L121.8916 37.7025 "/>
<path d="M121.8916 37.7025 L121.8916 37.8999 "/>
<path d="M121.8916 37.8999 L121.9904 38.1961 "/>
<path d="M121.9904 38.1961 L123.1751 39.3808 "/>
<path d="M123.1751 39.3808 L121.8916 39.3808 "/>
<path d="M120.4108 40.1706 L120.5095 40.0719 "/>
<path d="M120.5095 40.0719 L120.7070 39.7757 "/>
<path d="M120.7070 39.7757 L120.8057 39.5783 "/>
<path d="M120.8057 39.5783 L120.9044 39.2821 "/>
<path d="M120.9044 39.2821 L121.0031 38.7885 "/>
<path d="M121.0031 38.7885 L121.0031 38.3936 "/>
<path d="M121.0031 38.3936 L120.9044 37.8999 "/>
<path d="M120.9044 37.8999 L120.8057 37.6038 "/>
<path d="M120.8057 37.6038 L120.7070 37.4063 "/>
<path d="M120.7070 37.4063 L120.5095 37.1102 "/>
<path d="M120.5095 37.1102 L120.4108 37.0114 "/>
<path d="M119.6210 37.9987 L119.6210 39.3808 "/>
<path d="M119.6210 38.1961 L119.5223 38.0974 "/>
<path d="M119.5223 38.0974 L119.3248 37.9987 "/>
<path d="M119.3248 37.9987 L119.0286 37.9987 "/>
<path d="M119.0286 37.9987 L118.8312 38.0974 "/>
<path d="M118.8312 38.0974 L118.7325 38.2948 "/>
<path d="M118.7325 38.2948 L118.7325 39.3808 "/>
<path d="M116.9554 39.2821 L117.1529 39.3808 "/>
<path d="M117.1529 39.3808 L117.5478 39.3808 "/>
<path d="M117.5478 39.3808 L117.7452 39.2821 "/>
<path d="M117.7452 39.2821 L117.8439 39.0846 "/>
<path d="M117.8439 39.0846 L117.8439 38.2948 "/>
<path d="M117.8439 38.2948 L117.7452 38.0974 "/>
<path d="M117.7452 38.0974 L117.5478 37.9987 "/>
<path d="M117.5478 37.9987 L117.1529 37.9987 "/>
<path d="M117.1529 37.9987 L116.9554 38.0974 "/>
<path d="M116.9554 38.0974 L116.8567 38.2948 "/>
<path d="M116.8567 38.2948 L116.8567 38.4923 "/>
<path d="M116.8567 38.4923 L117.8439 38.6897 "/>
<path d="M115.6720 39.3808 L115.8695 39.2821 "/>
<path d="M115.8695 39.2821 L115.9682 39.1834 "/>
<path d="M115.9682 39.1834 L116.0669 38.9859 "/>
<path d="M116.0669 38.9859 L116.0669 38.3936 "/>
<path d="M116.0669 38.3936 L115.9682 38.1961 "/>
<path d="M115.9682 38.1961 L115.8695 38.0974 "/>
<path d="M115.8695 38.0974 L115.6720 37.9987 "/>
<path d="M115.6720 37.9987 L115.3758 37.9987 "/>
<path d="M115.3758 37.9987 L115.1784 38.0974 "/>
<path d="M115.1784 38.0974 L115.0797 38.1961 "/>
<path d="M115.0797 38.1961 L114.9809 38.3936 "/>
<path d="M114.9809 38.3936 L114.9809 38.9859 "/>
<path d="M114.9809 38.9859 L115.0797 39.1834 "/>
<path d="M115.0797 39.1834 L115.1784 39.2821 "/>
<path d="M115.1784 39.2821 L115.3758 39.3808 "/>
<path d="M115.3758 39.3808 L115.6720 39.3808 "/>
<path d="M114.1911 39.2821 L113.9937 39.3808 "/>
<path d="M113.9937 39.3808 L113.5988 39.3808 "/>
<path d="M113.5988 39.3808 L113.4013 39.2821 "/>
<path d="M113.4013 39.2821 L113.3026 39.0846 "/>
<path d="M113.3026 39.0846 L113.3026 38.9859 "/>
<path d="M113.3026 38.9859 L113.4013 38.7885 "/>
<path d="M113.4013 38.7885 L113.5988 38.6897 "/>
<path d="M113.5988 38.6897 L113.8950 38.6897 "/>
<path d="M113.8950 38.6897 L114.0924 38.5910 "/>
<path d="M114.0924 38.5910 L114.1911 38.3936 "/>
<path d="M114.1911 38.3936 L114.1911 38.2948 "/>
<path d="M114.1911 38.2948 L114.0924 38.0974 "/>
<path d="M114.0924 38.0974 L113.8950 37.9987 "/>
<path d="M113.8950 37.9987 L113.5988 37.9987 "/>
<path d="M113.5988 37.9987 L113.4013 38.0974 "/>
<path d="M111.5256 39.3808 L111.5256 38.2948 "/>
<path d="M111.5256 38.2948 L111.6243 38.0974 "/>
<path d="M111.6243 38.0974 L111.8217 37.9987 "/>
<path d="M111.8217 37.9987 L112.2166 37.9987 "/>
<path d="M112.2166 37.9987 L112.4141 38.0974 "/>
<path d="M111.5256 39.2821 L111.7230 39.3808 "/>
<path d="M111.7230 39.3808 L112.2166 39.3808 "/>
<path d="M112.2166 39.3808 L112.4141 39.2821 "/>
<path d="M112.4141 39.2821 L112.5128 39.0846 "/>
<path d="M112.5128 39.0846 L112.5128 38.8872 "/>
<path d="M112.5128 38.8872 L112.4141 38.6897 "/>
<path d="M112.4141 38.6897 L112.2166 38.5910 "/>
<path d="M112.2166 38.5910 L111.7230 38.5910 "/>
<path d="M111.7230 38.5910 L111.5256 38.4923 "/>
<path d="M110.7358 37.9987 L109.6498 37.9987 "/>
<path d="M109.6498 37.9987 L110.7358 39.3808 "/>
<path d="M110.7358 39.3808 L109.6498 39.3808 "/>
<path d="M108.5638 39.3808 L108.7613 39.2821 "/>
<path d="M108.7613 39.2821 L108.8600 39.1834 "/>
<path d="M108.8600 39.1834 L108.9587 38.9859 "/>
<path d="M108.9587 38.9859 L108.9587 38.3936 "/>
<path d="M108.9587 38.3936 L108.8600 38.1961 "/>
<path d="M108.8600 38.1961 L108.7613 38.0974 "/>
<path d="M108.7613 38.0974 L108.5638 37.9987 "/>
<path d="M108.5638 37.9987 L108.2677 37.9987 "/>
<path d="M108.2677 37.9987 L108.0702 38.0974 "/>
<path d="M108.0702 38.0974 L107.9715 38.1961 "/>
<path d="M107.9715 38.1961 L107.8728 38.3936 "/>
<path d="M107.8728 38.3936 L107.8728 38.9859 "/>
<path d="M107.8728 38.9859 L107.9715 39.1834 "/>
<path d="M107.9715 39.1834 L108.0702 39.2821 "/>
<path d="M108.0702 39.2821 L108.2677 39.3808 "/>
<path d="M108.2677 39.3808 L108.5638 39.3808 "/>
<path d="M107.1817 37.9987 L106.6881 39.3808 "/>
<path d="M106.6881 39.3808 L106.1945 37.9987 "/>
<path d="M104.5161 39.3808 L104.5161 38.2948 "/>
<path d="M104.5161 38.2948 L104.6149 38.0974 "/>
<path d="M104.6149 38.0974 L104.8123 37.9987 "/>
<path d="M104.8123 37.9987 L105.2072 37.9987 "/>
<path d="M105.2072 37.9987 L105.4047 38.0974 "/>
<path d="M104.5161 39.2821 L104.7136 39.3808 "/>
<path d="M104.7136 39.3808 L105.2072 39.3808 "/>
<path d="M105.2072 39.3808 L105.4047 39.2821 "/>
<path d="M105.4047 39.2821 L105.5034 39.0846 "/>
<path d="M105.5034 39.0846 L105.5034 38.8872 "/>
<path d="M105.5034 38.8872 L105.4047 38.6897 "/>
<path d="M105.4047 38.6897 L105.2072 38.5910 "/>
<path d="M105.2072 38.5910 L104.7136 38.5910 "/>
<path d="M104.7136 38.5910 L104.5161 38.4923 "/>
<path d="M103.8251 37.9987 L103.0353 37.9987 "/>
<path d="M103.5289 37.3076 L103.5289 39.0846 "/>
<path d="M103.5289 39.0846 L103.4302 39.2821 "/>
<path d="M103.4302 39.2821 L103.2327 39.3808 "/>
<path d="M103.2327 39.3808 L103.0353 39.3808 "/>
<path d="M102.5416 40.1706 L102.4429 40.0719 "/>
<path d="M102.4429 40.0719 L102.2455 39.7757 "/>
<path d="M102.2455 39.7757 L102.1467 39.5783 "/>
<path d="M102.1467 39.5783 L102.0480 39.2821 "/>
<path d="M102.0480 39.2821 L101.9493 38.7885 "/>
<path d="M101.9493 38.7885 L101.9493 38.3936 "/>
<path d="M101.9493 38.3936 L102.0480 37.8999 "/>
<path d="M102.0480 37.8999 L102.1467 37.6038 "/>
<path d="M102.1467 37.6038 L102.2455 37.4063 "/>
<path d="M102.2455 37.4063 L102.4429 37.1102 "/>
<path d="M102.4429 37.1102 L102.5416 37.0114 "/>
</g></g>
<g style="fill:#000084; fill-opacity:0.0;  stroke:#000084; stroke-width:0.1555; stroke-opacity:1;  stroke-linecap:round; stroke-linejoin:round;">
<g transform="rotate(-90.000000 124.9027 33.2548)">
<text x="124.9027" y="33.7731" transform="scale(-1 1) translate(-249.805482 0)" textLength="2.2546" font-size="1.3821" lengthAdjust="spacingAndGlyphs" text-anchor="middle" opacity="0.01" style="font-family:monospace">U5</text>
</g>
<g class="stroked-text"><desc>U5</desc>
<path d="M124.3376 32.4650 L125.1768 32.4650 "/>
<path d="M125.1768 32.4650 L125.2755 32.5144 "/>
<path d="M125.2755 32.5144 L125.3248 32.5638 "/>
<path d="M125.3248 32.5638 L125.3742 32.6625 "/>
<path d="M125.3742 32.6625 L125.3742 32.8599 "/>
<path d="M125.3742 32.8599 L125.3248 32.9587 "/>
<path d="M125.3248 32.9587 L125.2755 33.0080 "/>
<path d="M125.2755 33.0080 L125.1768 33.0574 "/>
<path d="M125.1768 33.0574 L124.3376 33.0574 "/>
<path d="M124.3376 34.0446 L124.3376 33.5510 "/>
<path d="M124.3376 33.5510 L124.8312 33.5017 "/>
<path d="M124.8312 33.5017 L124.7819 33.5510 "/>
<path d="M124.7819 33.5510 L124.7325 33.6497 "/>
<path d="M124.7325 33.6497 L124.7325 33.8966 "/>
<path d="M124.7325 33.8966 L124.7819 33.9953 "/>
<path d="M124.7819 33.9953 L124.8312 34.0446 "/>
<path d="M124.8312 34.0446 L124.9299 34.0940 "/>
<path d="M124.9299 34.0940 L125.1768 34.0940 "/>
<path d="M125.1768 34.0940 L125.2755 34.0446 "/>
<path d="M125.2755 34.0446 L125.3248 33.9953 "/>
<path d="M125.3248 33.9953 L125.3742 33.8966 "/>
<path d="M125.3742 33.8966 L125.3742 33.6497 "/>
<path d="M125.3742 33.6497 L125.3248 33.5510 "/>
<path d="M125.3248 33.5510 L125.2755 33.5017 "/>
</g></g>
<g style="fill:#000084; fill-opacity:0.01;  stroke:#000084; stroke-width:0.3110; stroke-opacity:1;  stroke-linecap:round; stroke-linejoin:round;">
<text x="140.6022" y="190.6895" transform="scale(-1 1) translate(-281.204309 0)" textLength="43.0118" font-size="2.7643" lengthAdjust="spacingAndGlyphs" text-anchor="middle" opacity="0.01" style="font-family:monospace">MCC-SD (kouka z modulu)</text>
<g class="stroked-text"><desc>MCC-SD (kouka z modulu)</desc>
<path d="M161.4330 190.5959 L161.4330 188.5227 "/>
<path d="M161.4330 188.5227 L160.7419 190.0035 "/>
<path d="M160.7419 190.0035 L160.0509 188.5227 "/>
<path d="M160.0509 188.5227 L160.0509 190.5959 "/>
<path d="M157.8789 190.3984 L157.9777 190.4971 "/>
<path d="M157.9777 190.4971 L158.2738 190.5959 "/>
<path d="M158.2738 190.5959 L158.4713 190.5959 "/>
<path d="M158.4713 190.5959 L158.7675 190.4971 "/>
<path d="M158.7675 190.4971 L158.9649 190.2997 "/>
<path d="M158.9649 190.2997 L159.0636 190.1022 "/>
<path d="M159.0636 190.1022 L159.1624 189.7073 "/>
<path d="M159.1624 189.7073 L159.1624 189.4112 "/>
<path d="M159.1624 189.4112 L159.0636 189.0163 "/>
<path d="M159.0636 189.0163 L158.9649 188.8188 "/>
<path d="M158.9649 188.8188 L158.7675 188.6214 "/>
<path d="M158.7675 188.6214 L158.4713 188.5227 "/>
<path d="M158.4713 188.5227 L158.2738 188.5227 "/>
<path d="M158.2738 188.5227 L157.9777 188.6214 "/>
<path d="M157.9777 188.6214 L157.8789 188.7201 "/>
<path d="M155.8057 190.3984 L155.9045 190.4971 "/>
<path d="M155.9045 190.4971 L156.2006 190.5959 "/>
<path d="M156.2006 190.5959 L156.3981 190.5959 "/>
<path d="M156.3981 190.5959 L156.6942 190.4971 "/>
<path d="M156.6942 190.4971 L156.8917 190.2997 "/>
<path d="M156.8917 190.2997 L156.9904 190.1022 "/>
<path d="M156.9904 190.1022 L157.0891 189.7073 "/>
<path d="M157.0891 189.7073 L157.0891 189.4112 "/>
<path d="M157.0891 189.4112 L156.9904 189.0163 "/>
<path d="M156.9904 189.0163 L156.8917 188.8188 "/>
<path d="M156.8917 188.8188 L156.6942 188.6214 "/>
<path d="M156.6942 188.6214 L156.3981 188.5227 "/>
<path d="M156.3981 188.5227 L156.2006 188.5227 "/>
<path d="M156.2006 188.5227 L155.9045 188.6214 "/>
<path d="M155.9045 188.6214 L155.8057 188.7201 "/>
<path d="M154.9172 189.8061 L153.3376 189.8061 "/>
<path d="M152.4491 190.4971 L152.1529 190.5959 "/>
<path d="M152.1529 190.5959 L151.6593 190.5959 "/>
<path d="M151.6593 190.5959 L151.4618 190.4971 "/>
<path d="M151.4618 190.4971 L151.3631 190.3984 "/>
<path d="M151.3631 190.3984 L151.2644 190.2010 "/>
<path d="M151.2644 190.2010 L151.2644 190.0035 "/>
<path d="M151.2644 190.0035 L151.3631 189.8061 "/>
<path d="M151.3631 189.8061 L151.4618 189.7073 "/>
<path d="M151.4618 189.7073 L151.6593 189.6086 "/>
<path d="M151.6593 189.6086 L152.0542 189.5099 "/>
<path d="M152.0542 189.5099 L152.2516 189.4112 "/>
<path d="M152.2516 189.4112 L152.3504 189.3124 "/>
<path d="M152.3504 189.3124 L152.4491 189.1150 "/>
<path d="M152.4491 189.1150 L152.4491 188.9176 "/>
<path d="M152.4491 188.9176 L152.3504 188.7201 "/>
<path d="M152.3504 188.7201 L152.2516 188.6214 "/>
<path d="M152.2516 188.6214 L152.0542 188.5227 "/>
<path d="M152.0542 188.5227 L151.5606 188.5227 "/>
<path d="M151.5606 188.5227 L151.2644 188.6214 "/>
<path d="M150.3759 190.5959 L150.3759 188.5227 "/>
<path d="M150.3759 188.5227 L149.8823 188.5227 "/>
<path d="M149.8823 188.5227 L149.5861 188.6214 "/>
<path d="M149.5861 188.6214 L149.3886 188.8188 "/>
<path d="M149.3886 188.8188 L149.2899 189.0163 "/>
<path d="M149.2899 189.0163 L149.1912 189.4112 "/>
<path d="M149.1912 189.4112 L149.1912 189.7073 "/>
<path d="M149.1912 189.7073 L149.2899 190.1022 "/>
<path d="M149.2899 190.1022 L149.3886 190.2997 "/>
<path d="M149.3886 190.2997 L149.5861 190.4971 "/>
<path d="M149.5861 190.4971 L149.8823 190.5959 "/>
<path d="M149.8823 190.5959 L150.3759 190.5959 "/>
<path d="M146.1307 191.3857 L146.2295 191.2869 "/>
<path d="M146.2295 191.2869 L146.4269 190.9908 "/>
<path d="M146.4269 190.9908 L146.5256 190.7933 "/>
<path d="M146.5256 190.7933 L146.6243 190.4971 "/>
<path d="M146.6243 190.4971 L146.7231 190.0035 "/>
<path d="M146.7231 190.0035 L146.7231 189.6086 "/>
<path d="M146.7231 189.6086 L146.6243 189.1150 "/>
<path d="M146.6243 189.1150 L146.5256 188.8188 "/>
<path d="M146.5256 188.8188 L146.4269 188.6214 "/>
<path d="M146.4269 188.6214 L146.2295 188.3252 "/>
<path d="M146.2295 188.3252 L146.1307 188.2265 "/>
<path d="M145.3409 190.5959 L145.3409 188.5227 "/>
<path d="M145.1435 189.8061 L144.5511 190.5959 "/>
<path d="M144.5511 189.2137 L145.3409 190.0035 "/>
<path d="M143.3664 190.5959 L143.5639 190.4971 "/>
<path d="M143.5639 190.4971 L143.6626 190.3984 "/>
<path d="M143.6626 190.3984 L143.7613 190.2010 "/>
<path d="M143.7613 190.2010 L143.7613 189.6086 "/>
<path d="M143.7613 189.6086 L143.6626 189.4112 "/>
<path d="M143.6626 189.4112 L143.5639 189.3124 "/>
<path d="M143.5639 189.3124 L143.3664 189.2137 "/>
<path d="M143.3664 189.2137 L143.0703 189.2137 "/>
<path d="M143.0703 189.2137 L142.8728 189.3124 "/>
<path d="M142.8728 189.3124 L142.7741 189.4112 "/>
<path d="M142.7741 189.4112 L142.6754 189.6086 "/>
<path d="M142.6754 189.6086 L142.6754 190.2010 "/>
<path d="M142.6754 190.2010 L142.7741 190.3984 "/>
<path d="M142.7741 190.3984 L142.8728 190.4971 "/>
<path d="M142.8728 190.4971 L143.0703 190.5959 "/>
<path d="M143.0703 190.5959 L143.3664 190.5959 "/>
<path d="M140.8983 189.2137 L140.8983 190.5959 "/>
<path d="M141.7868 189.2137 L141.7868 190.2997 "/>
<path d="M141.7868 190.2997 L141.6881 190.4971 "/>
<path d="M141.6881 190.4971 L141.4907 190.5959 "/>
<path d="M141.4907 190.5959 L141.1945 190.5959 "/>
<path d="M141.1945 190.5959 L140.9971 190.4971 "/>
<path d="M140.9971 190.4971 L140.8983 190.3984 "/>
<path d="M139.9111 190.5959 L139.9111 188.5227 "/>
<path d="M139.7136 189.8061 L139.1213 190.5959 "/>
<path d="M139.1213 189.2137 L139.9111 190.0035 "/>
<path d="M137.3442 190.5959 L137.3442 189.5099 "/>
<path d="M137.3442 189.5099 L137.4430 189.3124 "/>
<path d="M137.4430 189.3124 L137.6404 189.2137 "/>
<path d="M137.6404 189.2137 L138.0353 189.2137 "/>
<path d="M138.0353 189.2137 L138.2328 189.3124 "/>
<path d="M137.3442 190.4971 L137.5417 190.5959 "/>
<path d="M137.5417 190.5959 L138.0353 190.5959 "/>
<path d="M138.0353 190.5959 L138.2328 190.4971 "/>
<path d="M138.2328 190.4971 L138.3315 190.2997 "/>
<path d="M138.3315 190.2997 L138.3315 190.1022 "/>
<path d="M138.3315 190.1022 L138.2328 189.9048 "/>
<path d="M138.2328 189.9048 L138.0353 189.8061 "/>
<path d="M138.0353 189.8061 L137.5417 189.8061 "/>
<path d="M137.5417 189.8061 L137.3442 189.7073 "/>
<path d="M134.9749 189.2137 L133.8889 189.2137 "/>
<path d="M133.8889 189.2137 L134.9749 190.5959 "/>
<path d="M134.9749 190.5959 L133.8889 190.5959 "/>
<path d="M131.5195 190.5959 L131.5195 189.2137 "/>
<path d="M131.5195 189.4112 L131.4208 189.3124 "/>
<path d="M131.4208 189.3124 L131.2233 189.2137 "/>
<path d="M131.2233 189.2137 L130.9272 189.2137 "/>
<path d="M130.9272 189.2137 L130.7297 189.3124 "/>
<path d="M130.7297 189.3124 L130.6310 189.5099 "/>
<path d="M130.6310 189.5099 L130.6310 190.5959 "/>
<path d="M130.6310 189.5099 L130.5323 189.3124 "/>
<path d="M130.5323 189.3124 L130.3348 189.2137 "/>
<path d="M130.3348 189.2137 L130.0386 189.2137 "/>
<path d="M130.0386 189.2137 L129.8412 189.3124 "/>
<path d="M129.8412 189.3124 L129.7425 189.5099 "/>
<path d="M129.7425 189.5099 L129.7425 190.5959 "/>
<path d="M128.4590 190.5959 L128.6565 190.4971 "/>
<path d="M128.6565 190.4971 L128.7552 190.3984 "/>
<path d="M128.7552 190.3984 L128.8539 190.2010 "/>
<path d="M128.8539 190.2010 L128.8539 189.6086 "/>
<path d="M128.8539 189.6086 L128.7552 189.4112 "/>
<path d="M128.7552 189.4112 L128.6565 189.3124 "/>
<path d="M128.6565 189.3124 L128.4590 189.2137 "/>
<path d="M128.4590 189.2137 L128.1629 189.2137 "/>
<path d="M128.1629 189.2137 L127.9654 189.3124 "/>
<path d="M127.9654 189.3124 L127.8667 189.4112 "/>
<path d="M127.8667 189.4112 L127.7680 189.6086 "/>
<path d="M127.7680 189.6086 L127.7680 190.2010 "/>
<path d="M127.7680 190.2010 L127.8667 190.3984 "/>
<path d="M127.8667 190.3984 L127.9654 190.4971 "/>
<path d="M127.9654 190.4971 L128.1629 190.5959 "/>
<path d="M128.1629 190.5959 L128.4590 190.5959 "/>
<path d="M125.9909 190.5959 L125.9909 188.5227 "/>
<path d="M125.9909 190.4971 L126.1884 190.5959 "/>
<path d="M126.1884 190.5959 L126.5833 190.5959 "/>
<path d="M126.5833 190.5959 L126.7807 190.4971 "/>
<path d="M126.7807 190.4971 L126.8794 190.3984 "/>
<path d="M126.8794 190.3984 L126.9782 190.2010 "/>
<path d="M126.9782 190.2010 L126.9782 189.6086 "/>
<path d="M126.9782 189.6086 L126.8794 189.4112 "/>
<path d="M126.8794 189.4112 L126.7807 189.3124 "/>
<path d="M126.7807 189.3124 L126.5833 189.2137 "/>
<path d="M126.5833 189.2137 L126.1884 189.2137 "/>
<path d="M126.1884 189.2137 L125.9909 189.3124 "/>
<path d="M124.1152 189.2137 L124.1152 190.5959 "/>
<path d="M125.0037 189.2137 L125.0037 190.2997 "/>
<path d="M125.0037 190.2997 L124.9050 190.4971 "/>
<path d="M124.9050 190.4971 L124.7075 190.5959 "/>
<path d="M124.7075 190.5959 L124.4113 190.5959 "/>
<path d="M124.4113 190.5959 L124.2139 190.4971 "/>
<path d="M124.2139 190.4971 L124.1152 190.3984 "/>
<path d="M122.8317 190.5959 L123.0292 190.4971 "/>
<path d="M123.0292 190.4971 L123.1279 190.2997 "/>
<path d="M123.1279 190.2997 L123.1279 188.5227 "/>
<path d="M121.1534 189.2137 L121.1534 190.5959 "/>
<path d="M122.0419 189.2137 L122.0419 190.2997 "/>
<path d="M122.0419 190.2997 L121.9432 190.4971 "/>
<path d="M121.9432 190.4971 L121.7458 190.5959 "/>
<path d="M121.7458 190.5959 L121.4496 190.5959 "/>
<path d="M121.4496 190.5959 L121.2522 190.4971 "/>
<path d="M121.2522 190.4971 L121.1534 190.3984 "/>
<path d="M120.3636 191.3857 L120.2649 191.2869 "/>
<path d="M120.2649 191.2869 L120.0675 190.9908 "/>
<path d="M120.0675 190.9908 L119.9687 190.7933 "/>
<path d="M119.9687 190.7933 L119.8700 190.4971 "/>
<path d="M119.8700 190.4971 L119.7713 190.0035 "/>
<path d="M119.7713 190.0035 L119.7713 189.6086 "/>
<path d="M119.7713 189.6086 L119.8700 189.1150 "/>
<path d="M119.8700 189.1150 L119.9687 188.8188 "/>
<path d="M119.9687 188.8188 L120.0675 188.6214 "/>
<path d="M120.0675 188.6214 L120.2649 188.3252 "/>
<path d="M120.2649 188.3252 L120.3636 188.2265 "/>
</g><text x="140.6022" y="186.5431" transform="scale(-1 1) translate(-281.204309 0)" textLength="5.8914" font-size="2.7643" lengthAdjust="spacingAndGlyphs" text-anchor="middle" opacity="0.01" style="font-family:monospace">J34</text>
<g class="stroked-text"><desc>J34</desc>
<path d="M142.2805 184.3762 L142.2805 185.8571 "/>
<path d="M142.2805 185.8571 L142.3792 186.1533 "/>
<path d="M142.3792 186.1533 L142.5766 186.3507 "/>
<path d="M142.5766 186.3507 L142.8728 186.4494 "/>
<path d="M142.8728 186.4494 L143.0703 186.4494 "/>
<path d="M141.4907 184.3762 L140.2073 184.3762 "/>
<path d="M140.2073 184.3762 L140.8983 185.1660 "/>
<path d="M140.8983 185.1660 L140.6022 185.1660 "/>
<path d="M140.6022 185.1660 L140.4047 185.2647 "/>
<path d="M140.4047 185.2647 L140.3060 185.3635 "/>
<path d="M140.3060 185.3635 L140.2073 185.5609 "/>
<path d="M140.2073 185.5609 L140.2073 186.0545 "/>
<path d="M140.2073 186.0545 L140.3060 186.2520 "/>
<path d="M140.3060 186.2520 L140.4047 186.3507 "/>
<path d="M140.4047 186.3507 L140.6022 186.4494 "/>
<path d="M140.6022 186.4494 L141.1945 186.4494 "/>
<path d="M141.1945 186.4494 L141.3919 186.3507 "/>
<path d="M141.3919 186.3507 L141.4907 186.2520 "/>
<path d="M138.4302 185.0673 L138.4302 186.4494 "/>
<path d="M138.9238 184.2775 L139.4175 185.7584 "/>
<path d="M139.4175 185.7584 L138.1340 185.7584 "/>
</g></g>
<g style="fill:#000084; fill-opacity:0.01;  stroke:#000084; stroke-width:0.1659; stroke-opacity:1;  stroke-linecap:round; stroke-linejoin:round;">
<g transform="rotate(-90.000000 189.3123 79.3320)">
<text x="189.3123" y="79.8503" transform="scale(-1 1) translate(-378.624639 0)" textLength="3.2184" font-size="1.3821" lengthAdjust="spacingAndGlyphs" text-anchor="middle" opacity="0.01" style="font-family:monospace">C22</text>
</g>
<g class="stroked-text"><desc>C22</desc>
<path d="M189.6845 78.6656 L189.7339 78.6163 "/>
<path d="M189.7339 78.6163 L189.7832 78.4682 "/>
<path d="M189.7832 78.4682 L189.7832 78.3695 "/>
<path d="M189.7832 78.3695 L189.7339 78.2214 "/>
<path d="M189.7339 78.2214 L189.6352 78.1227 "/>
<path d="M189.6352 78.1227 L189.5364 78.0733 "/>
<path d="M189.5364 78.0733 L189.3390 78.0239 "/>
<path d="M189.3390 78.0239 L189.1909 78.0239 "/>
<path d="M189.1909 78.0239 L188.9935 78.0733 "/>
<path d="M188.9935 78.0733 L188.8947 78.1227 "/>
<path d="M188.8947 78.1227 L188.7960 78.2214 "/>
<path d="M188.7960 78.2214 L188.7466 78.3695 "/>
<path d="M188.7466 78.3695 L188.7466 78.4682 "/>
<path d="M188.7466 78.4682 L188.7960 78.6163 "/>
<path d="M188.7960 78.6163 L188.8454 78.6656 "/>
<path d="M188.8454 79.0605 L188.7960 79.1099 "/>
<path d="M188.7960 79.1099 L188.7466 79.2086 "/>
<path d="M188.7466 79.2086 L188.7466 79.4554 "/>
<path d="M188.7466 79.4554 L188.7960 79.5542 "/>
<path d="M188.7960 79.5542 L188.8454 79.6035 "/>
<path d="M188.8454 79.6035 L188.9441 79.6529 "/>
<path d="M188.9441 79.6529 L189.0428 79.6529 "/>
<path d="M189.0428 79.6529 L189.1909 79.6035 "/>
<path d="M189.1909 79.6035 L189.7832 79.0112 "/>
<path d="M189.7832 79.0112 L189.7832 79.6529 "/>
<path d="M188.8454 80.0478 L188.7960 80.0971 "/>
<path d="M188.7960 80.0971 L188.7466 80.1959 "/>
<path d="M188.7466 80.1959 L188.7466 80.4427 "/>
<path d="M188.7466 80.4427 L188.7960 80.5414 "/>
<path d="M188.7960 80.5414 L188.8454 80.5908 "/>
<path d="M188.8454 80.5908 L188.9441 80.6401 "/>
<path d="M188.9441 80.6401 L189.0428 80.6401 "/>
<path d="M189.0428 80.6401 L189.1909 80.5908 "/>
<path d="M189.1909 80.5908 L189.7832 79.9984 "/>
<path d="M189.7832 79.9984 L189.7832 80.6401 "/>
</g><g transform="rotate(-90.000000 201.1607 85.2562)">
<text x="201.1607" y="85.7745" transform="scale(-1 1) translate(-402.321476 0)" textLength="3.2184" font-size="1.3821" lengthAdjust="spacingAndGlyphs" text-anchor="middle" opacity="0.01" style="font-family:monospace">R11</text>
</g>
<g class="stroked-text"><desc>R11</desc>
<path d="M201.6317 84.5898 L201.1380 84.2443 "/>
<path d="M201.6317 83.9975 L200.5951 83.9975 "/>
<path d="M200.5951 83.9975 L200.5951 84.3924 "/>
<path d="M200.5951 84.3924 L200.6444 84.4911 "/>
<path d="M200.6444 84.4911 L200.6938 84.5405 "/>
<path d="M200.6938 84.5405 L200.7925 84.5898 "/>
<path d="M200.7925 84.5898 L200.9406 84.5898 "/>
<path d="M200.9406 84.5898 L201.0393 84.5405 "/>
<path d="M201.0393 84.5405 L201.0887 84.4911 "/>
<path d="M201.0887 84.4911 L201.1380 84.3924 "/>
<path d="M201.1380 84.3924 L201.1380 83.9975 "/>
<path d="M201.6317 85.5771 L201.6317 84.9847 "/>
<path d="M201.6317 85.2809 L200.5951 85.2809 "/>
<path d="M200.5951 85.2809 L200.7431 85.1822 "/>
<path d="M200.7431 85.1822 L200.8419 85.0835 "/>
<path d="M200.8419 85.0835 L200.8912 84.9847 "/>
<path d="M201.6317 86.5643 L201.6317 85.9720 "/>
<path d="M201.6317 86.2682 L200.5951 86.2682 "/>
<path d="M200.5951 86.2682 L200.7431 86.1694 "/>
<path d="M200.7431 86.1694 L200.8419 86.0707 "/>
<path d="M200.8419 86.0707 L200.8912 85.9720 "/>
</g><g transform="rotate(-90.000000 205.1102 85.2562)">
<text x="205.1102" y="85.7745" transform="scale(-1 1) translate(-410.220421 0)" textLength="3.2184" font-size="1.3821" lengthAdjust="spacingAndGlyphs" text-anchor="middle" opacity="0.01" style="font-family:monospace">R12</text>
</g>
<g class="stroked-text"><desc>R12</desc>
<path d="M205.5811 84.5898 L205.0875 84.2443 "/>
<path d="M205.5811 83.9975 L204.5445 83.9975 "/>
<path d="M204.5445 83.9975 L204.5445 84.3924 "/>
<path d="M204.5445 84.3924 L204.5939 84.4911 "/>
<path d="M204.5939 84.4911 L204.6433 84.5405 "/>
<path d="M204.6433 84.5405 L204.7420 84.5898 "/>
<path d="M204.7420 84.5898 L204.8901 84.5898 "/>
<path d="M204.8901 84.5898 L204.9888 84.5405 "/>
<path d="M204.9888 84.5405 L205.0382 84.4911 "/>
<path d="M205.0382 84.4911 L205.0875 84.3924 "/>
<path d="M205.0875 84.3924 L205.0875 83.9975 "/>
<path d="M205.5811 85.5771 L205.5811 84.9847 "/>
<path d="M205.5811 85.2809 L204.5445 85.2809 "/>
<path d="M204.5445 85.2809 L204.6926 85.1822 "/>
<path d="M204.6926 85.1822 L204.7913 85.0835 "/>
<path d="M204.7913 85.0835 L204.8407 84.9847 "/>
<path d="M204.6433 85.9720 L204.5939 86.0213 "/>
<path d="M204.5939 86.0213 L204.5445 86.1201 "/>
<path d="M204.5445 86.1201 L204.5445 86.3669 "/>
<path d="M204.5445 86.3669 L204.5939 86.4656 "/>
<path d="M204.5939 86.4656 L204.6433 86.5150 "/>
<path d="M204.6433 86.5150 L204.7420 86.5643 "/>
<path d="M204.7420 86.5643 L204.8407 86.5643 "/>
<path d="M204.8407 86.5643 L204.9888 86.5150 "/>
<path d="M204.9888 86.5150 L205.5811 85.9226 "/>
<path d="M205.5811 85.9226 L205.5811 86.5643 "/>
</g><g transform="rotate(-90.000000 194.5783 80.6485)">
<text x="194.5783" y="81.1668" transform="scale(-1 1) translate(-389.156566 0)" textLength="3.2184" font-size="1.3821" lengthAdjust="spacingAndGlyphs" text-anchor="middle" opacity="0.01" style="font-family:monospace">R15</text>
</g>
<g class="stroked-text"><desc>R15</desc>
<path d="M195.0492 79.9821 L194.5556 79.6366 "/>
<path d="M195.0492 79.3898 L194.0126 79.3898 "/>
<path d="M194.0126 79.3898 L194.0126 79.7847 "/>
<path d="M194.0126 79.7847 L194.0620 79.8834 "/>
<path d="M194.0620 79.8834 L194.1113 79.9328 "/>
<path d="M194.1113 79.9328 L194.2101 79.9821 "/>
<path d="M194.2101 79.9821 L194.3581 79.9821 "/>
<path d="M194.3581 79.9821 L194.4569 79.9328 "/>
<path d="M194.4569 79.9328 L194.5062 79.8834 "/>
<path d="M194.5062 79.8834 L194.5556 79.7847 "/>
<path d="M194.5556 79.7847 L194.5556 79.3898 "/>
<path d="M195.0492 80.9694 L195.0492 80.3770 "/>
<path d="M195.0492 80.6732 L194.0126 80.6732 "/>
<path d="M194.0126 80.6732 L194.1607 80.5745 "/>
<path d="M194.1607 80.5745 L194.2594 80.4757 "/>
<path d="M194.2594 80.4757 L194.3088 80.3770 "/>
<path d="M194.0126 81.9073 L194.0126 81.4136 "/>
<path d="M194.0126 81.4136 L194.5062 81.3643 "/>
<path d="M194.5062 81.3643 L194.4569 81.4136 "/>
<path d="M194.4569 81.4136 L194.4075 81.5124 "/>
<path d="M194.4075 81.5124 L194.4075 81.7592 "/>
<path d="M194.4075 81.7592 L194.4569 81.8579 "/>
<path d="M194.4569 81.8579 L194.5062 81.9073 "/>
<path d="M194.5062 81.9073 L194.6050 81.9566 "/>
<path d="M194.6050 81.9566 L194.8518 81.9566 "/>
<path d="M194.8518 81.9566 L194.9505 81.9073 "/>
<path d="M194.9505 81.9073 L194.9999 81.8579 "/>
<path d="M194.9999 81.8579 L195.0492 81.7592 "/>
<path d="M195.0492 81.7592 L195.0492 81.5124 "/>
<path d="M195.0492 81.5124 L194.9999 81.4136 "/>
<path d="M194.9999 81.4136 L194.9505 81.3643 "/>
</g><text x="193.9200" y="87.0910" transform="scale(-1 1) translate(-387.840075 0)" textLength="3.2184" font-size="1.3821" lengthAdjust="spacingAndGlyphs" text-anchor="middle" opacity="0.01" style="font-family:monospace">R16</text>
<g class="stroked-text"><desc>R16</desc>
<path d="M194.5864 87.0437 L194.9320 86.5500 "/>
<path d="M195.1788 87.0437 L195.1788 86.0070 "/>
<path d="M195.1788 86.0070 L194.7839 86.0070 "/>
<path d="M194.7839 86.0070 L194.6852 86.0564 "/>
<path d="M194.6852 86.0564 L194.6358 86.1058 "/>
<path d="M194.6358 86.1058 L194.5864 86.2045 "/>
<path d="M194.5864 86.2045 L194.5864 86.3526 "/>
<path d="M194.5864 86.3526 L194.6358 86.4513 "/>
<path d="M194.6358 86.4513 L194.6852 86.5007 "/>
<path d="M194.6852 86.5007 L194.7839 86.5500 "/>
<path d="M194.7839 86.5500 L195.1788 86.5500 "/>
<path d="M193.5992 87.0437 L194.1915 87.0437 "/>
<path d="M193.8954 87.0437 L193.8954 86.0070 "/>
<path d="M193.8954 86.0070 L193.9941 86.1551 "/>
<path d="M193.9941 86.1551 L194.0928 86.2539 "/>
<path d="M194.0928 86.2539 L194.1915 86.3032 "/>
<path d="M192.7107 86.0070 L192.9081 86.0070 "/>
<path d="M192.9081 86.0070 L193.0068 86.0564 "/>
<path d="M193.0068 86.0564 L193.0562 86.1058 "/>
<path d="M193.0562 86.1058 L193.1549 86.2539 "/>
<path d="M193.1549 86.2539 L193.2043 86.4513 "/>
<path d="M193.2043 86.4513 L193.2043 86.8462 "/>
<path d="M193.2043 86.8462 L193.1549 86.9449 "/>
<path d="M193.1549 86.9449 L193.1056 86.9943 "/>
<path d="M193.1056 86.9943 L193.0068 87.0437 "/>
<path d="M193.0068 87.0437 L192.8094 87.0437 "/>
<path d="M192.8094 87.0437 L192.7107 86.9943 "/>
<path d="M192.7107 86.9943 L192.6613 86.9449 "/>
<path d="M192.6613 86.9449 L192.6119 86.8462 "/>
<path d="M192.6119 86.8462 L192.6119 86.5994 "/>
<path d="M192.6119 86.5994 L192.6613 86.5007 "/>
<path d="M192.6613 86.5007 L192.7107 86.4513 "/>
<path d="M192.7107 86.4513 L192.8094 86.4019 "/>
<path d="M192.8094 86.4019 L193.0068 86.4019 "/>
<path d="M193.0068 86.4019 L193.1056 86.4513 "/>
<path d="M193.1056 86.4513 L193.1549 86.5007 "/>
<path d="M193.1549 86.5007 L193.2043 86.5994 "/>
</g></g>
<g style="fill:#000084; fill-opacity:0.01;  stroke:#000084; stroke-width:0.3110; stroke-opacity:1;  stroke-linecap:round; stroke-linejoin:round;">
<text x="198.5278" y="102.7645" transform="scale(-1 1) translate(-397.055512 0)" textLength="26.7222" font-size="2.7643" lengthAdjust="spacingAndGlyphs" text-anchor="middle" opacity="0.01" style="font-family:monospace">AT24CS64-SSHM</text>
<g class="stroked-text"><desc>AT24CS64-SSHM</desc>
<path d="M211.3126 102.0785 L210.3253 102.0785 "/>
<path d="M211.5100 102.6709 L210.8190 100.5976 "/>
<path d="M210.8190 100.5976 L210.1279 102.6709 "/>
<path d="M209.7330 100.5976 L208.5483 100.5976 "/>
<path d="M209.1406 102.6709 L209.1406 100.5976 "/>
<path d="M207.9559 100.7951 L207.8572 100.6964 "/>
<path d="M207.8572 100.6964 L207.6598 100.5976 "/>
<path d="M207.6598 100.5976 L207.1661 100.5976 "/>
<path d="M207.1661 100.5976 L206.9687 100.6964 "/>
<path d="M206.9687 100.6964 L206.8700 100.7951 "/>
<path d="M206.8700 100.7951 L206.7712 100.9925 "/>
<path d="M206.7712 100.9925 L206.7712 101.1900 "/>
<path d="M206.7712 101.1900 L206.8700 101.4862 "/>
<path d="M206.8700 101.4862 L208.0547 102.6709 "/>
<path d="M208.0547 102.6709 L206.7712 102.6709 "/>
<path d="M204.9942 101.2887 L204.9942 102.6709 "/>
<path d="M205.4878 100.4989 L205.9815 101.9798 "/>
<path d="M205.9815 101.9798 L204.6980 101.9798 "/>
<path d="M202.7235 102.4734 L202.8223 102.5721 "/>
<path d="M202.8223 102.5721 L203.1184 102.6709 "/>
<path d="M203.1184 102.6709 L203.3159 102.6709 "/>
<path d="M203.3159 102.6709 L203.6121 102.5721 "/>
<path d="M203.6121 102.5721 L203.8095 102.3747 "/>
<path d="M203.8095 102.3747 L203.9082 102.1772 "/>
<path d="M203.9082 102.1772 L204.0070 101.7823 "/>
<path d="M204.0070 101.7823 L204.0070 101.4862 "/>
<path d="M204.0070 101.4862 L203.9082 101.0913 "/>
<path d="M203.9082 101.0913 L203.8095 100.8938 "/>
<path d="M203.8095 100.8938 L203.6121 100.6964 "/>
<path d="M203.6121 100.6964 L203.3159 100.5976 "/>
<path d="M203.3159 100.5976 L203.1184 100.5976 "/>
<path d="M203.1184 100.5976 L202.8223 100.6964 "/>
<path d="M202.8223 100.6964 L202.7235 100.7951 "/>
<path d="M201.9337 102.5721 L201.6376 102.6709 "/>
<path d="M201.6376 102.6709 L201.1440 102.6709 "/>
<path d="M201.1440 102.6709 L200.9465 102.5721 "/>
<path d="M200.9465 102.5721 L200.8478 102.4734 "/>
<path d="M200.8478 102.4734 L200.7491 102.2760 "/>
<path d="M200.7491 102.2760 L200.7491 102.0785 "/>
<path d="M200.7491 102.0785 L200.8478 101.8811 "/>
<path d="M200.8478 101.8811 L200.9465 101.7823 "/>
<path d="M200.9465 101.7823 L201.1440 101.6836 "/>
<path d="M201.1440 101.6836 L201.5389 101.5849 "/>
<path d="M201.5389 101.5849 L201.7363 101.4862 "/>
<path d="M201.7363 101.4862 L201.8350 101.3874 "/>
<path d="M201.8350 101.3874 L201.9337 101.1900 "/>
<path d="M201.9337 101.1900 L201.9337 100.9925 "/>
<path d="M201.9337 100.9925 L201.8350 100.7951 "/>
<path d="M201.8350 100.7951 L201.7363 100.6964 "/>
<path d="M201.7363 100.6964 L201.5389 100.5976 "/>
<path d="M201.5389 100.5976 L201.0452 100.5976 "/>
<path d="M201.0452 100.5976 L200.7491 100.6964 "/>
<path d="M198.9720 100.5976 L199.3669 100.5976 "/>
<path d="M199.3669 100.5976 L199.5644 100.6964 "/>
<path d="M199.5644 100.6964 L199.6631 100.7951 "/>
<path d="M199.6631 100.7951 L199.8605 101.0913 "/>
<path d="M199.8605 101.0913 L199.9593 101.4862 "/>
<path d="M199.9593 101.4862 L199.9593 102.2760 "/>
<path d="M199.9593 102.2760 L199.8605 102.4734 "/>
<path d="M199.8605 102.4734 L199.7618 102.5721 "/>
<path d="M199.7618 102.5721 L199.5644 102.6709 "/>
<path d="M199.5644 102.6709 L199.1695 102.6709 "/>
<path d="M199.1695 102.6709 L198.9720 102.5721 "/>
<path d="M198.9720 102.5721 L198.8733 102.4734 "/>
<path d="M198.8733 102.4734 L198.7746 102.2760 "/>
<path d="M198.7746 102.2760 L198.7746 101.7823 "/>
<path d="M198.7746 101.7823 L198.8733 101.5849 "/>
<path d="M198.8733 101.5849 L198.9720 101.4862 "/>
<path d="M198.9720 101.4862 L199.1695 101.3874 "/>
<path d="M199.1695 101.3874 L199.5644 101.3874 "/>
<path d="M199.5644 101.3874 L199.7618 101.4862 "/>
<path d="M199.7618 101.4862 L199.8605 101.5849 "/>
<path d="M199.8605 101.5849 L199.9593 101.7823 "/>
<path d="M196.9975 101.2887 L196.9975 102.6709 "/>
<path d="M197.4911 100.4989 L197.9848 101.9798 "/>
<path d="M197.9848 101.9798 L196.7014 101.9798 "/>
<path d="M195.9116 101.8811 L194.3320 101.8811 "/>
<path d="M193.4434 102.5721 L193.1473 102.6709 "/>
<path d="M193.1473 102.6709 L192.6536 102.6709 "/>
<path d="M192.6536 102.6709 L192.4562 102.5721 "/>
<path d="M192.4562 102.5721 L192.3575 102.4734 "/>
<path d="M192.3575 102.4734 L192.2588 102.2760 "/>
<path d="M192.2588 102.2760 L192.2588 102.0785 "/>
<path d="M192.2588 102.0785 L192.3575 101.8811 "/>
<path d="M192.3575 101.8811 L192.4562 101.7823 "/>
<path d="M192.4562 101.7823 L192.6536 101.6836 "/>
<path d="M192.6536 101.6836 L193.0485 101.5849 "/>
<path d="M193.0485 101.5849 L193.2460 101.4862 "/>
<path d="M193.2460 101.4862 L193.3447 101.3874 "/>
<path d="M193.3447 101.3874 L193.4434 101.1900 "/>
<path d="M193.4434 101.1900 L193.4434 100.9925 "/>
<path d="M193.4434 100.9925 L193.3447 100.7951 "/>
<path d="M193.3447 100.7951 L193.2460 100.6964 "/>
<path d="M193.2460 100.6964 L193.0485 100.5976 "/>
<path d="M193.0485 100.5976 L192.5549 100.5976 "/>
<path d="M192.5549 100.5976 L192.2588 100.6964 "/>
<path d="M191.4690 102.5721 L191.1728 102.6709 "/>
<path d="M191.1728 102.6709 L190.6792 102.6709 "/>
<path d="M190.6792 102.6709 L190.4817 102.5721 "/>
<path d="M190.4817 102.5721 L190.3830 102.4734 "/>
<path d="M190.3830 102.4734 L190.2843 102.2760 "/>
<path d="M190.2843 102.2760 L190.2843 102.0785 "/>
<path d="M190.2843 102.0785 L190.3830 101.8811 "/>
<path d="M190.3830 101.8811 L190.4817 101.7823 "/>
<path d="M190.4817 101.7823 L190.6792 101.6836 "/>
<path d="M190.6792 101.6836 L191.0741 101.5849 "/>
<path d="M191.0741 101.5849 L191.2715 101.4862 "/>
<path d="M191.2715 101.4862 L191.3702 101.3874 "/>
<path d="M191.3702 101.3874 L191.4690 101.1900 "/>
<path d="M191.4690 101.1900 L191.4690 100.9925 "/>
<path d="M191.4690 100.9925 L191.3702 100.7951 "/>
<path d="M191.3702 100.7951 L191.2715 100.6964 "/>
<path d="M191.2715 100.6964 L191.0741 100.5976 "/>
<path d="M191.0741 100.5976 L190.5804 100.5976 "/>
<path d="M190.5804 100.5976 L190.2843 100.6964 "/>
<path d="M189.3957 102.6709 L189.3957 100.5976 "/>
<path d="M189.3957 101.5849 L188.2110 101.5849 "/>
<path d="M188.2110 102.6709 L188.2110 100.5976 "/>
<path d="M187.2238 102.6709 L187.2238 100.5976 "/>
<path d="M187.2238 100.5976 L186.5327 102.0785 "/>
<path d="M186.5327 102.0785 L185.8417 100.5976 "/>
<path d="M185.8417 100.5976 L185.8417 102.6709 "/>
</g><text x="198.5278" y="95.5083" transform="scale(-1 1) translate(-397.055512 0)" textLength="4.5092" font-size="2.7643" lengthAdjust="spacingAndGlyphs" text-anchor="middle" opacity="0.01" style="font-family:monospace">U6</text>
<g class="stroked-text"><desc>U6</desc>
<path d="M200.1073 93.3414 L200.1073 95.0197 "/>
<path d="M200.1073 95.0197 L200.0086 95.2172 "/>
<path d="M200.0086 95.2172 L199.9099 95.3159 "/>
<path d="M199.9099 95.3159 L199.7124 95.4146 "/>
<path d="M199.7124 95.4146 L199.3176 95.4146 "/>
<path d="M199.3176 95.4146 L199.1201 95.3159 "/>
<path d="M199.1201 95.3159 L199.0214 95.2172 "/>
<path d="M199.0214 95.2172 L198.9227 95.0197 "/>
<path d="M198.9227 95.0197 L198.9227 93.3414 "/>
<path d="M197.0469 93.3414 L197.4418 93.3414 "/>
<path d="M197.4418 93.3414 L197.6392 93.4401 "/>
<path d="M197.6392 93.4401 L197.7380 93.5388 "/>
<path d="M197.7380 93.5388 L197.9354 93.8350 "/>
<path d="M197.9354 93.8350 L198.0341 94.2299 "/>
<path d="M198.0341 94.2299 L198.0341 95.0197 "/>
<path d="M198.0341 95.0197 L197.9354 95.2172 "/>
<path d="M197.9354 95.2172 L197.8367 95.3159 "/>
<path d="M197.8367 95.3159 L197.6392 95.4146 "/>
<path d="M197.6392 95.4146 L197.2443 95.4146 "/>
<path d="M197.2443 95.4146 L197.0469 95.3159 "/>
<path d="M197.0469 95.3159 L196.9482 95.2172 "/>
<path d="M196.9482 95.2172 L196.8494 95.0197 "/>
<path d="M196.8494 95.0197 L196.8494 94.5261 "/>
<path d="M196.8494 94.5261 L196.9482 94.3286 "/>
<path d="M196.9482 94.3286 L197.0469 94.2299 "/>
<path d="M197.0469 94.2299 L197.2443 94.1312 "/>
<path d="M197.2443 94.1312 L197.6392 94.1312 "/>
<path d="M197.6392 94.1312 L197.8367 94.2299 "/>
<path d="M197.8367 94.2299 L197.9354 94.3286 "/>
<path d="M197.9354 94.3286 L198.0341 94.5261 "/>
</g><path d="M191.4685 109.4299 L191.4685 103.2103 "/>
<path d="M197.6881 109.4299 L191.4685 109.4299 "/>
<path d="M197.6881 103.2103 L197.6881 109.4299 "/>
<path d="M191.4685 103.2103 L197.6881 103.2103 "/>
</g>
<g style="fill:#000084; fill-opacity:0.0;  stroke:#000084; stroke-width:0.2073; stroke-opacity:1;  stroke-linecap:round; stroke-linejoin:round;">
<path d="M117.6931 145.1929 L117.6931 133.6658 "/>
<path d="M168.0722 133.6658 L168.0722 185.4961 "/>
<path d="M168.0722 185.4961 L112.9247 185.4961 "/>
<path d="M112.9247 185.4961 L112.9247 149.9612 "/>
<path d="M117.6931 133.6658 L168.0722 133.6658 "/>
<path d="M112.9247 149.9612 L117.6931 145.1929 "/>
<path d="M201.9175 135.8427 L197.7710 135.8427 "/>
<path d="M197.7710 135.8427 L197.7710 138.9525 "/>
<path d="M198.8076 139.9891 L201.9175 139.9891 "/>
<path d="M201.9175 139.9891 L201.9175 135.8427 "/>
<path d="M198.8076 139.9891 L197.7710 138.9525 "/>
</g>
<g style="fill:#000084; fill-opacity:0.0;  stroke:#000084; stroke-width:0.3110; stroke-opacity:1;  stroke-linecap:round; stroke-linejoin:round;">
<path d="M171.0473 50.8616 L191.7794 50.8616 "/>
<path d="M171.0473 30.1295 L171.0473 50.8616 "/>
<path d="M189.7062 30.1295 L171.0473 30.1295 "/>
<path d="M191.7794 50.8616 L191.7794 32.2027 "/>
<path d="M191.7794 32.2027 L189.7062 30.1295 "/>
</g>
<g style="fill:#000084; fill-opacity:0.0;  stroke:#000084; stroke-width:0.2073; stroke-opacity:1;  stroke-linecap:round; stroke-linejoin:round;">
<path d="M139.6329 36.4061 L141.3952 36.4061 "/>
<path d="M141.3952 36.4061 L141.3952 30.1036 "/>
<path d="M138.4927 35.2244 L138.4927 30.1450 "/>
<path d="M138.4927 30.1036 L141.3952 30.1036 "/>
<path d="M138.4927 35.2244 L139.6329 36.4061 "/>
<path d="M126.3540 31.2853 L126.3540 36.3647 "/>
<path d="M126.3540 31.2853 L125.2137 30.1036 "/>
<path d="M126.3540 36.4061 L123.4515 36.4061 "/>
<path d="M123.4515 30.1036 L123.4515 36.4061 "/>
<path d="M125.2137 30.1036 L123.4515 30.1036 "/>
<path d="M112.9247 173.6581 L117.6931 168.8897 "/>
<path d="M168.0722 157.3626 L168.0722 209.1930 "/>
<path d="M112.9247 209.1930 L112.9247 173.6581 "/>
<path d="M117.6931 168.8897 L117.6931 157.3626 "/>
<path d="M117.6931 157.3626 L168.0722 157.3626 "/>
<path d="M168.0722 209.1930 L112.9247 209.1930 "/>
<path d="M190.5562 81.4052 L190.5562 77.2588 "/>
<path d="M188.0684 77.2588 L188.0684 81.4052 "/>
<path d="M188.0684 81.4052 L190.5562 81.4052 "/>
<path d="M190.5562 77.2588 L188.0684 77.2588 "/>
<path d="M202.4047 87.3294 L202.4047 83.1830 "/>
<path d="M199.9168 87.3294 L202.4047 87.3294 "/>
<path d="M199.9168 83.1830 L199.9168 87.3294 "/>
<path d="M202.4047 83.1830 L199.9168 83.1830 "/>
<path d="M203.8663 87.3294 L206.3541 87.3294 "/>
<path d="M203.8663 83.1830 L203.8663 87.3294 "/>
<path d="M206.3541 87.3294 L206.3541 83.1830 "/>
<path d="M206.3541 83.1830 L203.8663 83.1830 "/>
<path d="M193.3344 82.7217 L195.8222 82.7217 "/>
<path d="M195.8222 78.5753 L193.3344 78.5753 "/>
<path d="M195.8222 82.7217 L195.8222 78.5753 "/>
<path d="M193.3344 78.5753 L193.3344 82.7217 "/>
<path d="M195.9933 85.3288 L191.8468 85.3288 "/>
<path d="M195.9933 87.8167 L195.9933 85.3288 "/>
<path d="M191.8468 85.3288 L191.8468 87.8167 "/>
<path d="M191.8468 87.8167 L195.9933 87.8167 "/>
<path d="M194.4850 89.3923 L194.4850 99.5510 "/>
<path d="M194.4850 99.5510 L202.5705 99.5510 "/>
<path d="M200.4973 89.3923 L194.4850 89.3923 "/>
<path d="M202.5705 91.4655 L200.4973 89.3923 "/>
<path d="M202.5705 99.5510 L202.5705 91.4655 "/>
<g>
</g>
<g>
</g>
<g>
</g>
<g>
</g>
<g>
</g>
<g>
</g>
<g>
</g>
<g>
</g>
<g>
</g>
<g>
</g>
<g>
</g>
<g>
</g>
<g>
</g>
<g>
</g>
<g>
</g>
<g>
</g>
<g>
</g>
<g>
</g>
<g>
</g>
<g>
</g>
<g>
</g>
<g>
</g>
<g>
</g>
<g>
</g>
<g>
</g>
<g>
</g>
<g>
</g>
<g>
</g>
<g>
</g>
<g>
</g>
<g>
</g>
<g>
</g>
<g>
</g>
<g>
</g>
<g>
</g>
<g>
</g>
<g>
</g>
<g>
</g>
<g>
</g>
<g>
</g>
<g>
</g>
<g>
</g>
<g>
</g>
<g>
</g>
<g>
</g>
<g>
</g>
<g>
</g>
<g>
</g>
<g>
</g>
<g>
</g>
<g>
</g>
<g>
</g>
<g>
</g>
<g>
</g>
<g>
</g>
<g>
</g>
<g>
</g>
<g>
</g>
<g>
</g>
<g>
</g>
<g>
</g>
<g>
</g>
<g>
</g>
<g>
</g>
<g>
</g>
<g>
</g>
<g>
</g>
<g>
</g>
<g>
</g>
<g>
</g>
<g>
</g>
<g>
</g>
<g>
</g>
<g>
</g>
<g>
</g>
<g>
</g>
<g>
</g>
<g>
</g>
<g>
</g>
<g>
</g>
<g>
</g>
<g>
</g>
<g>
</g>
<g>
</g>
<g>
</g>
<g>
</g>
<g>
</g>
<g>
</g>
<g>
</g>
<g>
</g>
<g>
</g>
<g>
</g>
<g>
</g>
</g> 
<svg:g><svg:g><svg:title>SVG Image created as DATALOGGER01-Edge_Cuts.svg date 2023/07/05 13:16:59 </svg:title>
  <svg:desc>Image generated by PCBNEW </svg:desc>
<svg:g style="fill:#C2C200; fill-opacity:1.0000;stroke:#C2C200; stroke-opacity:1.0000; stroke-linecap:round; stroke-linejoin:round;" transform="translate(0 0) scale(1 1)">
</svg:g>
<svg:g style="fill:#C2C200; fill-opacity:0.0;  stroke:#C2C200; stroke-width:0.0000; stroke-opacity:1;  stroke-linecap:round; stroke-linejoin:round;">
</svg:g>
<svg:g style="fill:#C2C200; fill-opacity:0.0;  stroke:#C2C200; stroke-width:0.4146; stroke-opacity:1;  stroke-linecap:round; stroke-linejoin:round;">
<svg:path d="M232.2299 209.7963 L232.2299 0.2109 "/>
<svg:path d="M64.7723 209.7963 L64.7723 0.2109 "/>
<svg:path d="M64.7723 0.2109 L232.2299 0.2109 "/>
<svg:path d="M64.7723 209.7963 L232.2299 209.7963 "/>
<svg:g>
</svg:g>
<svg:g>
</svg:g>
<svg:g>
</svg:g>
<svg:g>
</svg:g>
<svg:g>
</svg:g>
<svg:g>
</svg:g>
<svg:g>
</svg:g>
<svg:g>
</svg:g>
<svg:g>
</svg:g>
<svg:g>
</svg:g>
<svg:g>
</svg:g>
<svg:g>
</svg:g>
<svg:g>
</svg:g>
<svg:g>
</svg:g>
<svg:g>
</svg:g>
<svg:g>
</svg:g>
<svg:g>
</svg:g>
<svg:g>
</svg:g>
<svg:g>
</svg:g>
<svg:g>
</svg:g>
<svg:g>
</svg:g>
<svg:g>
</svg:g>
<svg:g>
</svg:g>
<svg:g>
</svg:g>
<svg:g>
</svg:g>
<svg:g>
</svg:g>
<svg:g>
</svg:g>
<svg:g>
</svg:g>
<svg:g>
</svg:g>
<svg:g>
</svg:g>
<svg:g>
</svg:g>
<svg:g>
</svg:g>
<svg:g>
</svg:g>
<svg:g>
</svg:g>
<svg:g>
</svg:g>
<svg:g>
</svg:g>
<svg:g>
</svg:g>
<svg:g>
</svg:g>
<svg:g>
</svg:g>
<svg:g>
</svg:g>
<svg:g>
</svg:g>
<svg:g>
</svg:g>
<svg:g>
</svg:g>
<svg:g>
</svg:g>
<svg:g>
</svg:g>
<svg:g>
</svg:g>
<svg:g>
</svg:g>
<svg:g>
</svg:g>
<svg:g>
</svg:g>
<svg:g>
</svg:g>
<svg:g>
</svg:g>
<svg:g>
</svg:g>
<svg:g>
</svg:g>
<svg:g>
</svg:g>
<svg:g>
</svg:g>
<svg:g>
</svg:g>
<svg:g>
</svg:g>
<svg:g>
</svg:g>
<svg:g>
</svg:g>
<svg:g>
</svg:g>
<svg:g>
</svg:g>
<svg:g>
</svg:g>
<svg:g>
</svg:g>
<svg:g>
</svg:g>
<svg:g>
</svg:g>
<svg:g>
</svg:g>
<svg:g>
</svg:g>
<svg:g>
</svg:g>
<svg:g>
</svg:g>
<svg:g>
</svg:g>
<svg:g>
</svg:g>
<svg:g>
</svg:g>
<svg:g>
</svg:g>
<svg:g>
</svg:g>
<svg:g>
</svg:g>
<svg:g>
</svg:g>
<svg:g>
</svg:g>
<svg:g>
</svg:g>
<svg:g>
</svg:g>
<svg:g>
</svg:g>
<svg:g>
</svg:g>
<svg:g>
</svg:g>
<svg:g>
</svg:g>
<svg:g>
</svg:g>
<svg:g>
</svg:g>
<svg:g>
</svg:g>
<svg:g>
</svg:g>
<svg:g>
</svg:g>
<svg:g>
</svg:g>
<svg:g>
</svg:g>
<svg:g>
</svg:g>
<svg:g>
</svg:g>
<svg:g>
</svg:g>
</svg:g> 
</svg:g></svg:g></svg>
