<?xml version='1.0' encoding='ASCII' standalone='yes'?>
<svg xmlns:svg="http://www.w3.org/2000/svg" xmlns="http://www.w3.org/2000/svg" xmlns:xlink="http://www.w3.org/1999/xlink" version="1.1" width="297.0022mm" height="210.0072mm" viewBox="0.0000 0.0000 297.0022 210.0072">
<title>SVG Image created as DATALOGGER01-F_Fab.svg date 2023/07/05 15:04:14 </title>
  <desc>Image generated by PCBNEW </desc>
<g style="fill:#848484; fill-opacity:1.0000;stroke:#848484; stroke-opacity:1.0000; stroke-linecap:round; stroke-linejoin:round;" transform="translate(0 0) scale(1 1)">
</g>
<g style="fill:#848484; fill-opacity:0.0;  stroke:#848484; stroke-width:0.0000; stroke-opacity:1;  stroke-linecap:round; stroke-linejoin:round;">
</g>
<g style="fill:#848484; fill-opacity:0.01;  stroke:#848484; stroke-width:0.3110; stroke-opacity:1;  stroke-linecap:round; stroke-linejoin:round;">
<text x="157.7165" y="64.9491" textLength="12.3085" font-size="2.7643" lengthAdjust="spacingAndGlyphs" text-anchor="middle" opacity="0.01" style="font-family:monospace">BX0037</text>
<g class="stroked-text"><desc>BX0037</desc>
<path d="M162.5047 63.7695 L162.2085 63.8682 "/>
<path d="M162.2085 63.8682 L162.1098 63.9669 "/>
<path d="M162.1098 63.9669 L162.0111 64.1644 "/>
<path d="M162.0111 64.1644 L162.0111 64.4605 "/>
<path d="M162.0111 64.4605 L162.1098 64.6580 "/>
<path d="M162.1098 64.6580 L162.2085 64.7567 "/>
<path d="M162.2085 64.7567 L162.4059 64.8554 "/>
<path d="M162.4059 64.8554 L163.1957 64.8554 "/>
<path d="M163.1957 64.8554 L163.1957 62.7822 "/>
<path d="M163.1957 62.7822 L162.5047 62.7822 "/>
<path d="M162.5047 62.7822 L162.3072 62.8809 "/>
<path d="M162.3072 62.8809 L162.2085 62.9797 "/>
<path d="M162.2085 62.9797 L162.1098 63.1771 "/>
<path d="M162.1098 63.1771 L162.1098 63.3746 "/>
<path d="M162.1098 63.3746 L162.2085 63.5720 "/>
<path d="M162.2085 63.5720 L162.3072 63.6707 "/>
<path d="M162.3072 63.6707 L162.5047 63.7695 "/>
<path d="M162.5047 63.7695 L163.1957 63.7695 "/>
<path d="M161.3200 62.7822 L159.9378 64.8554 "/>
<path d="M159.9378 62.7822 L161.3200 64.8554 "/>
<path d="M158.7531 62.7822 L158.5557 62.7822 "/>
<path d="M158.5557 62.7822 L158.3582 62.8809 "/>
<path d="M158.3582 62.8809 L158.2595 62.9797 "/>
<path d="M158.2595 62.9797 L158.1608 63.1771 "/>
<path d="M158.1608 63.1771 L158.0621 63.5720 "/>
<path d="M158.0621 63.5720 L158.0621 64.0656 "/>
<path d="M158.0621 64.0656 L158.1608 64.4605 "/>
<path d="M158.1608 64.4605 L158.2595 64.6580 "/>
<path d="M158.2595 64.6580 L158.3582 64.7567 "/>
<path d="M158.3582 64.7567 L158.5557 64.8554 "/>
<path d="M158.5557 64.8554 L158.7531 64.8554 "/>
<path d="M158.7531 64.8554 L158.9506 64.7567 "/>
<path d="M158.9506 64.7567 L159.0493 64.6580 "/>
<path d="M159.0493 64.6580 L159.1480 64.4605 "/>
<path d="M159.1480 64.4605 L159.2468 64.0656 "/>
<path d="M159.2468 64.0656 L159.2468 63.5720 "/>
<path d="M159.2468 63.5720 L159.1480 63.1771 "/>
<path d="M159.1480 63.1771 L159.0493 62.9797 "/>
<path d="M159.0493 62.9797 L158.9506 62.8809 "/>
<path d="M158.9506 62.8809 L158.7531 62.7822 "/>
<path d="M156.7787 62.7822 L156.5812 62.7822 "/>
<path d="M156.5812 62.7822 L156.3838 62.8809 "/>
<path d="M156.3838 62.8809 L156.2850 62.9797 "/>
<path d="M156.2850 62.9797 L156.1863 63.1771 "/>
<path d="M156.1863 63.1771 L156.0876 63.5720 "/>
<path d="M156.0876 63.5720 L156.0876 64.0656 "/>
<path d="M156.0876 64.0656 L156.1863 64.4605 "/>
<path d="M156.1863 64.4605 L156.2850 64.6580 "/>
<path d="M156.2850 64.6580 L156.3838 64.7567 "/>
<path d="M156.3838 64.7567 L156.5812 64.8554 "/>
<path d="M156.5812 64.8554 L156.7787 64.8554 "/>
<path d="M156.7787 64.8554 L156.9761 64.7567 "/>
<path d="M156.9761 64.7567 L157.0748 64.6580 "/>
<path d="M157.0748 64.6580 L157.1736 64.4605 "/>
<path d="M157.1736 64.4605 L157.2723 64.0656 "/>
<path d="M157.2723 64.0656 L157.2723 63.5720 "/>
<path d="M157.2723 63.5720 L157.1736 63.1771 "/>
<path d="M157.1736 63.1771 L157.0748 62.9797 "/>
<path d="M157.0748 62.9797 L156.9761 62.8809 "/>
<path d="M156.9761 62.8809 L156.7787 62.7822 "/>
<path d="M155.3965 62.7822 L154.1131 62.7822 "/>
<path d="M154.1131 62.7822 L154.8042 63.5720 "/>
<path d="M154.8042 63.5720 L154.5080 63.5720 "/>
<path d="M154.5080 63.5720 L154.3105 63.6707 "/>
<path d="M154.3105 63.6707 L154.2118 63.7695 "/>
<path d="M154.2118 63.7695 L154.1131 63.9669 "/>
<path d="M154.1131 63.9669 L154.1131 64.4605 "/>
<path d="M154.1131 64.4605 L154.2118 64.6580 "/>
<path d="M154.2118 64.6580 L154.3105 64.7567 "/>
<path d="M154.3105 64.7567 L154.5080 64.8554 "/>
<path d="M154.5080 64.8554 L155.1003 64.8554 "/>
<path d="M155.1003 64.8554 L155.2978 64.7567 "/>
<path d="M155.2978 64.7567 L155.3965 64.6580 "/>
<path d="M153.4220 62.7822 L152.0399 62.7822 "/>
<path d="M152.0399 62.7822 L152.9284 64.8554 "/>
</g><text x="157.7165" y="143.9386" textLength="12.3085" font-size="2.7643" lengthAdjust="spacingAndGlyphs" text-anchor="middle" opacity="0.01" style="font-family:monospace">BX0037</text>
<g class="stroked-text"><desc>BX0037</desc>
<path d="M162.5047 142.7589 L162.2085 142.8576 "/>
<path d="M162.2085 142.8576 L162.1098 142.9564 "/>
<path d="M162.1098 142.9564 L162.0111 143.1538 "/>
<path d="M162.0111 143.1538 L162.0111 143.4500 "/>
<path d="M162.0111 143.4500 L162.1098 143.6474 "/>
<path d="M162.1098 143.6474 L162.2085 143.7462 "/>
<path d="M162.2085 143.7462 L162.4059 143.8449 "/>
<path d="M162.4059 143.8449 L163.1957 143.8449 "/>
<path d="M163.1957 143.8449 L163.1957 141.7717 "/>
<path d="M163.1957 141.7717 L162.5047 141.7717 "/>
<path d="M162.5047 141.7717 L162.3072 141.8704 "/>
<path d="M162.3072 141.8704 L162.2085 141.9691 "/>
<path d="M162.2085 141.9691 L162.1098 142.1666 "/>
<path d="M162.1098 142.1666 L162.1098 142.3640 "/>
<path d="M162.1098 142.3640 L162.2085 142.5615 "/>
<path d="M162.2085 142.5615 L162.3072 142.6602 "/>
<path d="M162.3072 142.6602 L162.5047 142.7589 "/>
<path d="M162.5047 142.7589 L163.1957 142.7589 "/>
<path d="M161.3200 141.7717 L159.9378 143.8449 "/>
<path d="M159.9378 141.7717 L161.3200 143.8449 "/>
<path d="M158.7531 141.7717 L158.5557 141.7717 "/>
<path d="M158.5557 141.7717 L158.3582 141.8704 "/>
<path d="M158.3582 141.8704 L158.2595 141.9691 "/>
<path d="M158.2595 141.9691 L158.1608 142.1666 "/>
<path d="M158.1608 142.1666 L158.0621 142.5615 "/>
<path d="M158.0621 142.5615 L158.0621 143.0551 "/>
<path d="M158.0621 143.0551 L158.1608 143.4500 "/>
<path d="M158.1608 143.4500 L158.2595 143.6474 "/>
<path d="M158.2595 143.6474 L158.3582 143.7462 "/>
<path d="M158.3582 143.7462 L158.5557 143.8449 "/>
<path d="M158.5557 143.8449 L158.7531 143.8449 "/>
<path d="M158.7531 143.8449 L158.9506 143.7462 "/>
<path d="M158.9506 143.7462 L159.0493 143.6474 "/>
<path d="M159.0493 143.6474 L159.1480 143.4500 "/>
<path d="M159.1480 143.4500 L159.2468 143.0551 "/>
<path d="M159.2468 143.0551 L159.2468 142.5615 "/>
<path d="M159.2468 142.5615 L159.1480 142.1666 "/>
<path d="M159.1480 142.1666 L159.0493 141.9691 "/>
<path d="M159.0493 141.9691 L158.9506 141.8704 "/>
<path d="M158.9506 141.8704 L158.7531 141.7717 "/>
<path d="M156.7787 141.7717 L156.5812 141.7717 "/>
<path d="M156.5812 141.7717 L156.3838 141.8704 "/>
<path d="M156.3838 141.8704 L156.2850 141.9691 "/>
<path d="M156.2850 141.9691 L156.1863 142.1666 "/>
<path d="M156.1863 142.1666 L156.0876 142.5615 "/>
<path d="M156.0876 142.5615 L156.0876 143.0551 "/>
<path d="M156.0876 143.0551 L156.1863 143.4500 "/>
<path d="M156.1863 143.4500 L156.2850 143.6474 "/>
<path d="M156.2850 143.6474 L156.3838 143.7462 "/>
<path d="M156.3838 143.7462 L156.5812 143.8449 "/>
<path d="M156.5812 143.8449 L156.7787 143.8449 "/>
<path d="M156.7787 143.8449 L156.9761 143.7462 "/>
<path d="M156.9761 143.7462 L157.0748 143.6474 "/>
<path d="M157.0748 143.6474 L157.1736 143.4500 "/>
<path d="M157.1736 143.4500 L157.2723 143.0551 "/>
<path d="M157.2723 143.0551 L157.2723 142.5615 "/>
<path d="M157.2723 142.5615 L157.1736 142.1666 "/>
<path d="M157.1736 142.1666 L157.0748 141.9691 "/>
<path d="M157.0748 141.9691 L156.9761 141.8704 "/>
<path d="M156.9761 141.8704 L156.7787 141.7717 "/>
<path d="M155.3965 141.7717 L154.1131 141.7717 "/>
<path d="M154.1131 141.7717 L154.8042 142.5615 "/>
<path d="M154.8042 142.5615 L154.5080 142.5615 "/>
<path d="M154.5080 142.5615 L154.3105 142.6602 "/>
<path d="M154.3105 142.6602 L154.2118 142.7589 "/>
<path d="M154.2118 142.7589 L154.1131 142.9564 "/>
<path d="M154.1131 142.9564 L154.1131 143.4500 "/>
<path d="M154.1131 143.4500 L154.2118 143.6474 "/>
<path d="M154.2118 143.6474 L154.3105 143.7462 "/>
<path d="M154.3105 143.7462 L154.5080 143.8449 "/>
<path d="M154.5080 143.8449 L155.1003 143.8449 "/>
<path d="M155.1003 143.8449 L155.2978 143.7462 "/>
<path d="M155.2978 143.7462 L155.3965 143.6474 "/>
<path d="M153.4220 141.7717 L152.0399 141.7717 "/>
<path d="M152.0399 141.7717 L152.9284 143.8449 "/>
</g><g transform="rotate(-90.000000 206.1468 199.7909)">
<text x="206.1468" y="200.8276" textLength="43.2092" font-size="2.7643" lengthAdjust="spacingAndGlyphs" text-anchor="middle" opacity="0.01" style="font-family:monospace">HLMP-K150+FIX-LED-313</text>
</g>
<g class="stroked-text"><desc>HLMP-K150+FIX-LED-313</desc>
<path d="M205.2039 220.7205 L207.2771 220.7205 "/>
<path d="M206.2899 220.7205 L206.2899 219.5358 "/>
<path d="M205.2039 219.5358 L207.2771 219.5358 "/>
<path d="M205.2039 217.5614 L205.2039 218.5486 "/>
<path d="M205.2039 218.5486 L207.2771 218.5486 "/>
<path d="M205.2039 216.8703 L207.2771 216.8703 "/>
<path d="M207.2771 216.8703 L205.7962 216.1792 "/>
<path d="M205.7962 216.1792 L207.2771 215.4881 "/>
<path d="M207.2771 215.4881 L205.2039 215.4881 "/>
<path d="M205.2039 214.5009 L207.2771 214.5009 "/>
<path d="M207.2771 214.5009 L207.2771 213.7111 "/>
<path d="M207.2771 213.7111 L207.1784 213.5136 "/>
<path d="M207.1784 213.5136 L207.0796 213.4149 "/>
<path d="M207.0796 213.4149 L206.8822 213.3162 "/>
<path d="M206.8822 213.3162 L206.5860 213.3162 "/>
<path d="M206.5860 213.3162 L206.3886 213.4149 "/>
<path d="M206.3886 213.4149 L206.2899 213.5136 "/>
<path d="M206.2899 213.5136 L206.1911 213.7111 "/>
<path d="M206.1911 213.7111 L206.1911 214.5009 "/>
<path d="M205.9937 212.4277 L205.9937 210.8481 "/>
<path d="M205.2039 209.8608 L207.2771 209.8608 "/>
<path d="M205.2039 208.6761 L206.3886 209.5647 "/>
<path d="M207.2771 208.6761 L206.0924 209.8608 "/>
<path d="M205.2039 206.7017 L205.2039 207.8864 "/>
<path d="M205.2039 207.2940 L207.2771 207.2940 "/>
<path d="M207.2771 207.2940 L206.9809 207.4915 "/>
<path d="M206.9809 207.4915 L206.7835 207.6889 "/>
<path d="M206.7835 207.6889 L206.6847 207.8864 "/>
<path d="M207.2771 204.8259 L207.2771 205.8131 "/>
<path d="M207.2771 205.8131 L206.2899 205.9119 "/>
<path d="M206.2899 205.9119 L206.3886 205.8131 "/>
<path d="M206.3886 205.8131 L206.4873 205.6157 "/>
<path d="M206.4873 205.6157 L206.4873 205.1221 "/>
<path d="M206.4873 205.1221 L206.3886 204.9246 "/>
<path d="M206.3886 204.9246 L206.2899 204.8259 "/>
<path d="M206.2899 204.8259 L206.0924 204.7272 "/>
<path d="M206.0924 204.7272 L205.5988 204.7272 "/>
<path d="M205.5988 204.7272 L205.4013 204.8259 "/>
<path d="M205.4013 204.8259 L205.3026 204.9246 "/>
<path d="M205.3026 204.9246 L205.2039 205.1221 "/>
<path d="M205.2039 205.1221 L205.2039 205.6157 "/>
<path d="M205.2039 205.6157 L205.3026 205.8131 "/>
<path d="M205.3026 205.8131 L205.4013 205.9119 "/>
<path d="M207.2771 203.4438 L207.2771 203.2463 "/>
<path d="M207.2771 203.2463 L207.1784 203.0489 "/>
<path d="M207.1784 203.0489 L207.0796 202.9501 "/>
<path d="M207.0796 202.9501 L206.8822 202.8514 "/>
<path d="M206.8822 202.8514 L206.4873 202.7527 "/>
<path d="M206.4873 202.7527 L205.9937 202.7527 "/>
<path d="M205.9937 202.7527 L205.5988 202.8514 "/>
<path d="M205.5988 202.8514 L205.4013 202.9501 "/>
<path d="M205.4013 202.9501 L205.3026 203.0489 "/>
<path d="M205.3026 203.0489 L205.2039 203.2463 "/>
<path d="M205.2039 203.2463 L205.2039 203.4438 "/>
<path d="M205.2039 203.4438 L205.3026 203.6412 "/>
<path d="M205.3026 203.6412 L205.4013 203.7399 "/>
<path d="M205.4013 203.7399 L205.5988 203.8386 "/>
<path d="M205.5988 203.8386 L205.9937 203.9374 "/>
<path d="M205.9937 203.9374 L206.4873 203.9374 "/>
<path d="M206.4873 203.9374 L206.8822 203.8386 "/>
<path d="M206.8822 203.8386 L207.0796 203.7399 "/>
<path d="M207.0796 203.7399 L207.1784 203.6412 "/>
<path d="M207.1784 203.6412 L207.2771 203.4438 "/>
<path d="M205.9937 201.8642 L205.9937 200.2846 "/>
<path d="M205.2039 201.0744 L206.7835 201.0744 "/>
<path d="M206.2899 198.6063 L206.2899 199.2973 "/>
<path d="M205.2039 199.2973 L207.2771 199.2973 "/>
<path d="M207.2771 199.2973 L207.2771 198.3101 "/>
<path d="M205.2039 197.5203 L207.2771 197.5203 "/>
<path d="M207.2771 196.7305 L205.2039 195.3483 "/>
<path d="M207.2771 195.3483 L205.2039 196.7305 "/>
<path d="M205.9937 194.5585 L205.9937 192.9790 "/>
<path d="M205.2039 191.0045 L205.2039 191.9917 "/>
<path d="M205.2039 191.9917 L207.2771 191.9917 "/>
<path d="M206.2899 190.3134 L206.2899 189.6223 "/>
<path d="M205.2039 189.3262 L205.2039 190.3134 "/>
<path d="M205.2039 190.3134 L207.2771 190.3134 "/>
<path d="M207.2771 190.3134 L207.2771 189.3262 "/>
<path d="M205.2039 188.4376 L207.2771 188.4376 "/>
<path d="M207.2771 188.4376 L207.2771 187.9440 "/>
<path d="M207.2771 187.9440 L207.1784 187.6478 "/>
<path d="M207.1784 187.6478 L206.9809 187.4504 "/>
<path d="M206.9809 187.4504 L206.7835 187.3517 "/>
<path d="M206.7835 187.3517 L206.3886 187.2529 "/>
<path d="M206.3886 187.2529 L206.0924 187.2529 "/>
<path d="M206.0924 187.2529 L205.6975 187.3517 "/>
<path d="M205.6975 187.3517 L205.5001 187.4504 "/>
<path d="M205.5001 187.4504 L205.3026 187.6478 "/>
<path d="M205.3026 187.6478 L205.2039 187.9440 "/>
<path d="M205.2039 187.9440 L205.2039 188.4376 "/>
<path d="M205.9937 186.3644 L205.9937 184.7848 "/>
<path d="M207.2771 183.9950 L207.2771 182.7116 "/>
<path d="M207.2771 182.7116 L206.4873 183.4027 "/>
<path d="M206.4873 183.4027 L206.4873 183.1065 "/>
<path d="M206.4873 183.1065 L206.3886 182.9091 "/>
<path d="M206.3886 182.9091 L206.2899 182.8103 "/>
<path d="M206.2899 182.8103 L206.0924 182.7116 "/>
<path d="M206.0924 182.7116 L205.5988 182.7116 "/>
<path d="M205.5988 182.7116 L205.4013 182.8103 "/>
<path d="M205.4013 182.8103 L205.3026 182.9091 "/>
<path d="M205.3026 182.9091 L205.2039 183.1065 "/>
<path d="M205.2039 183.1065 L205.2039 183.6989 "/>
<path d="M205.2039 183.6989 L205.3026 183.8963 "/>
<path d="M205.3026 183.8963 L205.4013 183.9950 "/>
<path d="M205.2039 180.7371 L205.2039 181.9218 "/>
<path d="M205.2039 181.3295 L207.2771 181.3295 "/>
<path d="M207.2771 181.3295 L206.9809 181.5269 "/>
<path d="M206.9809 181.5269 L206.7835 181.7244 "/>
<path d="M206.7835 181.7244 L206.6847 181.9218 "/>
<path d="M207.2771 180.0460 L207.2771 178.7626 "/>
<path d="M207.2771 178.7626 L206.4873 179.4537 "/>
<path d="M206.4873 179.4537 L206.4873 179.1575 "/>
<path d="M206.4873 179.1575 L206.3886 178.9601 "/>
<path d="M206.3886 178.9601 L206.2899 178.8614 "/>
<path d="M206.2899 178.8614 L206.0924 178.7626 "/>
<path d="M206.0924 178.7626 L205.5988 178.7626 "/>
<path d="M205.5988 178.7626 L205.4013 178.8614 "/>
<path d="M205.4013 178.8614 L205.3026 178.9601 "/>
<path d="M205.3026 178.9601 L205.2039 179.1575 "/>
<path d="M205.2039 179.1575 L205.2039 179.7499 "/>
<path d="M205.2039 179.7499 L205.3026 179.9473 "/>
<path d="M205.3026 179.9473 L205.4013 180.0460 "/>
</g><g transform="rotate(-90.000000 85.3095 57.6099)">
<text x="85.3095" y="58.6465" textLength="10.5314" font-size="2.7643" lengthAdjust="spacingAndGlyphs" text-anchor="middle" opacity="0.01" style="font-family:monospace">16MHz</text>
</g>
<g class="stroked-text"><desc>16MHz</desc>
<path d="M84.3666 61.1146 L84.3666 62.2993 "/>
<path d="M84.3666 61.7070 L86.4398 61.7070 "/>
<path d="M86.4398 61.7070 L86.1436 61.9044 "/>
<path d="M86.1436 61.9044 L85.9462 62.1019 "/>
<path d="M85.9462 62.1019 L85.8475 62.2993 "/>
<path d="M86.4398 59.3376 L86.4398 59.7325 "/>
<path d="M86.4398 59.7325 L86.3411 59.9299 "/>
<path d="M86.3411 59.9299 L86.2424 60.0287 "/>
<path d="M86.2424 60.0287 L85.9462 60.2261 "/>
<path d="M85.9462 60.2261 L85.5513 60.3248 "/>
<path d="M85.5513 60.3248 L84.7615 60.3248 "/>
<path d="M84.7615 60.3248 L84.5640 60.2261 "/>
<path d="M84.5640 60.2261 L84.4653 60.1274 "/>
<path d="M84.4653 60.1274 L84.3666 59.9299 "/>
<path d="M84.3666 59.9299 L84.3666 59.5351 "/>
<path d="M84.3666 59.5351 L84.4653 59.3376 "/>
<path d="M84.4653 59.3376 L84.5640 59.2389 "/>
<path d="M84.5640 59.2389 L84.7615 59.1402 "/>
<path d="M84.7615 59.1402 L85.2551 59.1402 "/>
<path d="M85.2551 59.1402 L85.4526 59.2389 "/>
<path d="M85.4526 59.2389 L85.5513 59.3376 "/>
<path d="M85.5513 59.3376 L85.6500 59.5351 "/>
<path d="M85.6500 59.5351 L85.6500 59.9299 "/>
<path d="M85.6500 59.9299 L85.5513 60.1274 "/>
<path d="M85.5513 60.1274 L85.4526 60.2261 "/>
<path d="M85.4526 60.2261 L85.2551 60.3248 "/>
<path d="M84.3666 58.2516 L86.4398 58.2516 "/>
<path d="M86.4398 58.2516 L84.9589 57.5606 "/>
<path d="M84.9589 57.5606 L86.4398 56.8695 "/>
<path d="M86.4398 56.8695 L84.3666 56.8695 "/>
<path d="M84.3666 55.8822 L86.4398 55.8822 "/>
<path d="M85.4526 55.8822 L85.4526 54.6976 "/>
<path d="M84.3666 54.6976 L86.4398 54.6976 "/>
<path d="M85.7487 53.9078 L85.7487 52.8218 "/>
<path d="M85.7487 52.8218 L84.3666 53.9078 "/>
<path d="M84.3666 53.9078 L84.3666 52.8218 "/>
</g><text x="102.4239" y="193.4552" textLength="26.7222" font-size="2.7643" lengthAdjust="spacingAndGlyphs" text-anchor="middle" opacity="0.01" style="font-family:monospace">5MS1S102AM6QE</text>
<g class="stroked-text"><desc>5MS1S102AM6QE</desc>
<path d="M114.1228 191.2883 L115.1100 191.2883 "/>
<path d="M115.1100 191.2883 L115.2087 192.2756 "/>
<path d="M115.2087 192.2756 L115.1100 192.1768 "/>
<path d="M115.1100 192.1768 L114.9126 192.0781 "/>
<path d="M114.9126 192.0781 L114.4189 192.0781 "/>
<path d="M114.4189 192.0781 L114.2215 192.1768 "/>
<path d="M114.2215 192.1768 L114.1228 192.2756 "/>
<path d="M114.1228 192.2756 L114.0240 192.4730 "/>
<path d="M114.0240 192.4730 L114.0240 192.9666 "/>
<path d="M114.0240 192.9666 L114.1228 193.1641 "/>
<path d="M114.1228 193.1641 L114.2215 193.2628 "/>
<path d="M114.2215 193.2628 L114.4189 193.3615 "/>
<path d="M114.4189 193.3615 L114.9126 193.3615 "/>
<path d="M114.9126 193.3615 L115.1100 193.2628 "/>
<path d="M115.1100 193.2628 L115.2087 193.1641 "/>
<path d="M113.1355 193.3615 L113.1355 191.2883 "/>
<path d="M113.1355 191.2883 L112.4445 192.7692 "/>
<path d="M112.4445 192.7692 L111.7534 191.2883 "/>
<path d="M111.7534 191.2883 L111.7534 193.3615 "/>
<path d="M110.8649 193.2628 L110.5687 193.3615 "/>
<path d="M110.5687 193.3615 L110.0751 193.3615 "/>
<path d="M110.0751 193.3615 L109.8776 193.2628 "/>
<path d="M109.8776 193.2628 L109.7789 193.1641 "/>
<path d="M109.7789 193.1641 L109.6802 192.9666 "/>
<path d="M109.6802 192.9666 L109.6802 192.7692 "/>
<path d="M109.6802 192.7692 L109.7789 192.5717 "/>
<path d="M109.7789 192.5717 L109.8776 192.4730 "/>
<path d="M109.8776 192.4730 L110.0751 192.3743 "/>
<path d="M110.0751 192.3743 L110.4700 192.2756 "/>
<path d="M110.4700 192.2756 L110.6674 192.1768 "/>
<path d="M110.6674 192.1768 L110.7661 192.0781 "/>
<path d="M110.7661 192.0781 L110.8649 191.8807 "/>
<path d="M110.8649 191.8807 L110.8649 191.6832 "/>
<path d="M110.8649 191.6832 L110.7661 191.4858 "/>
<path d="M110.7661 191.4858 L110.6674 191.3870 "/>
<path d="M110.6674 191.3870 L110.4700 191.2883 "/>
<path d="M110.4700 191.2883 L109.9763 191.2883 "/>
<path d="M109.9763 191.2883 L109.6802 191.3870 "/>
<path d="M107.7057 193.3615 L108.8904 193.3615 "/>
<path d="M108.2980 193.3615 L108.2980 191.2883 "/>
<path d="M108.2980 191.2883 L108.4955 191.5845 "/>
<path d="M108.4955 191.5845 L108.6929 191.7819 "/>
<path d="M108.6929 191.7819 L108.8904 191.8807 "/>
<path d="M106.9159 193.2628 L106.6197 193.3615 "/>
<path d="M106.6197 193.3615 L106.1261 193.3615 "/>
<path d="M106.1261 193.3615 L105.9286 193.2628 "/>
<path d="M105.9286 193.2628 L105.8299 193.1641 "/>
<path d="M105.8299 193.1641 L105.7312 192.9666 "/>
<path d="M105.7312 192.9666 L105.7312 192.7692 "/>
<path d="M105.7312 192.7692 L105.8299 192.5717 "/>
<path d="M105.8299 192.5717 L105.9286 192.4730 "/>
<path d="M105.9286 192.4730 L106.1261 192.3743 "/>
<path d="M106.1261 192.3743 L106.5210 192.2756 "/>
<path d="M106.5210 192.2756 L106.7184 192.1768 "/>
<path d="M106.7184 192.1768 L106.8172 192.0781 "/>
<path d="M106.8172 192.0781 L106.9159 191.8807 "/>
<path d="M106.9159 191.8807 L106.9159 191.6832 "/>
<path d="M106.9159 191.6832 L106.8172 191.4858 "/>
<path d="M106.8172 191.4858 L106.7184 191.3870 "/>
<path d="M106.7184 191.3870 L106.5210 191.2883 "/>
<path d="M106.5210 191.2883 L106.0274 191.2883 "/>
<path d="M106.0274 191.2883 L105.7312 191.3870 "/>
<path d="M103.7567 193.3615 L104.9414 193.3615 "/>
<path d="M104.3490 193.3615 L104.3490 191.2883 "/>
<path d="M104.3490 191.2883 L104.5465 191.5845 "/>
<path d="M104.5465 191.5845 L104.7439 191.7819 "/>
<path d="M104.7439 191.7819 L104.9414 191.8807 "/>
<path d="M102.4733 191.2883 L102.2758 191.2883 "/>
<path d="M102.2758 191.2883 L102.0784 191.3870 "/>
<path d="M102.0784 191.3870 L101.9797 191.4858 "/>
<path d="M101.9797 191.4858 L101.8809 191.6832 "/>
<path d="M101.8809 191.6832 L101.7822 192.0781 "/>
<path d="M101.7822 192.0781 L101.7822 192.5717 "/>
<path d="M101.7822 192.5717 L101.8809 192.9666 "/>
<path d="M101.8809 192.9666 L101.9797 193.1641 "/>
<path d="M101.9797 193.1641 L102.0784 193.2628 "/>
<path d="M102.0784 193.2628 L102.2758 193.3615 "/>
<path d="M102.2758 193.3615 L102.4733 193.3615 "/>
<path d="M102.4733 193.3615 L102.6707 193.2628 "/>
<path d="M102.6707 193.2628 L102.7695 193.1641 "/>
<path d="M102.7695 193.1641 L102.8682 192.9666 "/>
<path d="M102.8682 192.9666 L102.9669 192.5717 "/>
<path d="M102.9669 192.5717 L102.9669 192.0781 "/>
<path d="M102.9669 192.0781 L102.8682 191.6832 "/>
<path d="M102.8682 191.6832 L102.7695 191.4858 "/>
<path d="M102.7695 191.4858 L102.6707 191.3870 "/>
<path d="M102.6707 191.3870 L102.4733 191.2883 "/>
<path d="M100.9924 191.4858 L100.8937 191.3870 "/>
<path d="M100.8937 191.3870 L100.6962 191.2883 "/>
<path d="M100.6962 191.2883 L100.2026 191.2883 "/>
<path d="M100.2026 191.2883 L100.0052 191.3870 "/>
<path d="M100.0052 191.3870 L99.9064 191.4858 "/>
<path d="M99.9064 191.4858 L99.8077 191.6832 "/>
<path d="M99.8077 191.6832 L99.8077 191.8807 "/>
<path d="M99.8077 191.8807 L99.9064 192.1768 "/>
<path d="M99.9064 192.1768 L101.0911 193.3615 "/>
<path d="M101.0911 193.3615 L99.8077 193.3615 "/>
<path d="M99.0179 192.7692 L98.0307 192.7692 "/>
<path d="M99.2154 193.3615 L98.5243 191.2883 "/>
<path d="M98.5243 191.2883 L97.8332 193.3615 "/>
<path d="M97.1422 193.3615 L97.1422 191.2883 "/>
<path d="M97.1422 191.2883 L96.4511 192.7692 "/>
<path d="M96.4511 192.7692 L95.7600 191.2883 "/>
<path d="M95.7600 191.2883 L95.7600 193.3615 "/>
<path d="M93.8843 191.2883 L94.2791 191.2883 "/>
<path d="M94.2791 191.2883 L94.4766 191.3870 "/>
<path d="M94.4766 191.3870 L94.5753 191.4858 "/>
<path d="M94.5753 191.4858 L94.7728 191.7819 "/>
<path d="M94.7728 191.7819 L94.8715 192.1768 "/>
<path d="M94.8715 192.1768 L94.8715 192.9666 "/>
<path d="M94.8715 192.9666 L94.7728 193.1641 "/>
<path d="M94.7728 193.1641 L94.6740 193.2628 "/>
<path d="M94.6740 193.2628 L94.4766 193.3615 "/>
<path d="M94.4766 193.3615 L94.0817 193.3615 "/>
<path d="M94.0817 193.3615 L93.8843 193.2628 "/>
<path d="M93.8843 193.2628 L93.7855 193.1641 "/>
<path d="M93.7855 193.1641 L93.6868 192.9666 "/>
<path d="M93.6868 192.9666 L93.6868 192.4730 "/>
<path d="M93.6868 192.4730 L93.7855 192.2756 "/>
<path d="M93.7855 192.2756 L93.8843 192.1768 "/>
<path d="M93.8843 192.1768 L94.0817 192.0781 "/>
<path d="M94.0817 192.0781 L94.4766 192.0781 "/>
<path d="M94.4766 192.0781 L94.6740 192.1768 "/>
<path d="M94.6740 192.1768 L94.7728 192.2756 "/>
<path d="M94.7728 192.2756 L94.8715 192.4730 "/>
<path d="M91.4161 193.5590 L91.6136 193.4603 "/>
<path d="M91.6136 193.4603 L91.8110 193.2628 "/>
<path d="M91.8110 193.2628 L92.1072 192.9666 "/>
<path d="M92.1072 192.9666 L92.3047 192.8679 "/>
<path d="M92.3047 192.8679 L92.5021 192.8679 "/>
<path d="M92.4034 193.3615 L92.6008 193.2628 "/>
<path d="M92.6008 193.2628 L92.7983 193.0654 "/>
<path d="M92.7983 193.0654 L92.8970 192.6705 "/>
<path d="M92.8970 192.6705 L92.8970 191.9794 "/>
<path d="M92.8970 191.9794 L92.7983 191.5845 "/>
<path d="M92.7983 191.5845 L92.6008 191.3870 "/>
<path d="M92.6008 191.3870 L92.4034 191.2883 "/>
<path d="M92.4034 191.2883 L92.0085 191.2883 "/>
<path d="M92.0085 191.2883 L91.8110 191.3870 "/>
<path d="M91.8110 191.3870 L91.6136 191.5845 "/>
<path d="M91.6136 191.5845 L91.5149 191.9794 "/>
<path d="M91.5149 191.9794 L91.5149 192.6705 "/>
<path d="M91.5149 192.6705 L91.6136 193.0654 "/>
<path d="M91.6136 193.0654 L91.8110 193.2628 "/>
<path d="M91.8110 193.2628 L92.0085 193.3615 "/>
<path d="M92.0085 193.3615 L92.4034 193.3615 "/>
<path d="M90.6263 192.2756 L89.9353 192.2756 "/>
<path d="M89.6391 193.3615 L90.6263 193.3615 "/>
<path d="M90.6263 193.3615 L90.6263 191.2883 "/>
<path d="M90.6263 191.2883 L89.6391 191.2883 "/>
</g><path d="M102.4239 207.6567 L102.4239 217.4008 "/>
<path d="M108.6436 217.4008 L108.6436 207.6567 "/>
<path d="M108.6436 217.4008 L102.4239 217.4008 "/>
<g>
</g>
<g>
</g>
<g>
</g>
<g>
</g>
<g>
</g>
<g>
</g>
<g>
</g>
<g>
</g>
<g>
</g>
<g>
</g>
<g>
</g>
<g>
</g>
<g>
</g>
<g>
</g>
<g>
</g>
<g>
</g>
<g>
</g>
<g>
</g>
<g>
</g>
<g>
</g>
<g>
</g>
<g>
</g>
<g>
</g>
<g>
</g>
<g>
</g>
<g>
</g>
<g>
</g>
<g>
</g>
<g>
</g>
<g>
</g>
<g>
</g>
<g>
</g>
<g>
</g>
<g>
</g>
<g>
</g>
<g>
</g>
<g>
</g>
<g>
</g>
<g>
</g>
<g>
</g>
<g>
</g>
<g>
</g>
<g>
</g>
<g>
</g>
<g>
</g>
<g>
</g>
<g>
</g>
<g>
</g>
<g>
</g>
<g>
</g>
<g>
</g>
<g>
</g>
<g>
</g>
<g>
</g>
<g>
</g>
<g>
</g>
<g>
</g>
<g>
</g>
<g>
</g>
<g>
</g>
<g>
</g>
<g>
</g>
<g>
</g>
<g>
</g>
<g>
</g>
<g>
</g>
<g>
</g>
<g>
</g>
<g>
</g>
<g>
</g>
<g>
</g>
<g>
</g>
<g>
</g>
<g>
</g>
<g>
</g>
<g>
</g>
<g>
</g>
<g>
</g>
<g>
</g>
<g>
</g>
<g>
</g>
<g>
</g>
<g>
</g>
<g>
</g>
<g>
</g>
<g>
</g>
<g>
</g>
<g>
</g>
<g>
</g>
<g>
</g>
<g>
</g>
<g>
</g>
<g>
</g>
</g> 
<svg:g><svg:g><svg:title>SVG Image created as DATALOGGER01-Edge_Cuts.svg date 2023/07/05 15:04:14 </svg:title>
  <svg:desc>Image generated by PCBNEW </svg:desc>
<svg:g style="fill:#C2C200; fill-opacity:1.0000;stroke:#C2C200; stroke-opacity:1.0000; stroke-linecap:round; stroke-linejoin:round;" transform="translate(0 0) scale(1 1)">
</svg:g>
<svg:g style="fill:#C2C200; fill-opacity:0.0;  stroke:#C2C200; stroke-width:0.0000; stroke-opacity:1;  stroke-linecap:round; stroke-linejoin:round;">
</svg:g>
<svg:g style="fill:#C2C200; fill-opacity:0.0;  stroke:#C2C200; stroke-width:0.4146; stroke-opacity:1;  stroke-linecap:round; stroke-linejoin:round;">
<svg:path d="M64.7723 209.7963 L64.7723 0.2109 "/>
<svg:path d="M232.2299 209.7963 L232.2299 0.2109 "/>
<svg:path d="M232.2299 0.2109 L64.7723 0.2109 "/>
<svg:path d="M232.2299 209.7963 L64.7723 209.7963 "/>
<svg:g>
</svg:g>
<svg:g>
</svg:g>
<svg:g>
</svg:g>
<svg:g>
</svg:g>
<svg:g>
</svg:g>
<svg:g>
</svg:g>
<svg:g>
</svg:g>
<svg:g>
</svg:g>
<svg:g>
</svg:g>
<svg:g>
</svg:g>
<svg:g>
</svg:g>
<svg:g>
</svg:g>
<svg:g>
</svg:g>
<svg:g>
</svg:g>
<svg:g>
</svg:g>
<svg:g>
</svg:g>
<svg:g>
</svg:g>
<svg:g>
</svg:g>
<svg:g>
</svg:g>
<svg:g>
</svg:g>
<svg:g>
</svg:g>
<svg:g>
</svg:g>
<svg:g>
</svg:g>
<svg:g>
</svg:g>
<svg:g>
</svg:g>
<svg:g>
</svg:g>
<svg:g>
</svg:g>
<svg:g>
</svg:g>
<svg:g>
</svg:g>
<svg:g>
</svg:g>
<svg:g>
</svg:g>
<svg:g>
</svg:g>
<svg:g>
</svg:g>
<svg:g>
</svg:g>
<svg:g>
</svg:g>
<svg:g>
</svg:g>
<svg:g>
</svg:g>
<svg:g>
</svg:g>
<svg:g>
</svg:g>
<svg:g>
</svg:g>
<svg:g>
</svg:g>
<svg:g>
</svg:g>
<svg:g>
</svg:g>
<svg:g>
</svg:g>
<svg:g>
</svg:g>
<svg:g>
</svg:g>
<svg:g>
</svg:g>
<svg:g>
</svg:g>
<svg:g>
</svg:g>
<svg:g>
</svg:g>
<svg:g>
</svg:g>
<svg:g>
</svg:g>
<svg:g>
</svg:g>
<svg:g>
</svg:g>
<svg:g>
</svg:g>
<svg:g>
</svg:g>
<svg:g>
</svg:g>
<svg:g>
</svg:g>
<svg:g>
</svg:g>
<svg:g>
</svg:g>
<svg:g>
</svg:g>
<svg:g>
</svg:g>
<svg:g>
</svg:g>
<svg:g>
</svg:g>
<svg:g>
</svg:g>
<svg:g>
</svg:g>
<svg:g>
</svg:g>
<svg:g>
</svg:g>
<svg:g>
</svg:g>
<svg:g>
</svg:g>
<svg:g>
</svg:g>
<svg:g>
</svg:g>
<svg:g>
</svg:g>
<svg:g>
</svg:g>
<svg:g>
</svg:g>
<svg:g>
</svg:g>
<svg:g>
</svg:g>
<svg:g>
</svg:g>
<svg:g>
</svg:g>
<svg:g>
</svg:g>
<svg:g>
</svg:g>
<svg:g>
</svg:g>
<svg:g>
</svg:g>
<svg:g>
</svg:g>
<svg:g>
</svg:g>
<svg:g>
</svg:g>
<svg:g>
</svg:g>
<svg:g>
</svg:g>
<svg:g>
</svg:g>
<svg:g>
</svg:g>
<svg:g>
</svg:g>
<svg:g>
</svg:g>
<svg:g>
</svg:g>
</svg:g> 
</svg:g></svg:g></svg>
