%TF.GenerationSoftware,KiCad,Pcbnew,7.0.7-7.0.7~ubuntu23.04.1*%
%TF.CreationDate,2023-09-11T01:08:58+00:00*%
%TF.ProjectId,DATALOGGER01,44415441-4c4f-4474-9745-5230312e6b69,rev?*%
%TF.SameCoordinates,Original*%
%TF.FileFunction,Legend,Top*%
%TF.FilePolarity,Positive*%
%FSLAX46Y46*%
G04 Gerber Fmt 4.6, Leading zero omitted, Abs format (unit mm)*
G04 Created by KiCad (PCBNEW 7.0.7-7.0.7~ubuntu23.04.1) date 2023-09-11 01:08:58*
%MOMM*%
%LPD*%
G01*
G04 APERTURE LIST*
%ADD10C,0.250000*%
%ADD11C,0.300000*%
%ADD12C,0.150000*%
%ADD13C,0.050000*%
%ADD14R,1.524000X1.524000*%
%ADD15C,1.501140*%
G04 APERTURE END LIST*
D10*
X78536905Y44366739D02*
X78432143Y44419120D01*
X78432143Y44419120D02*
X78275000Y44419120D01*
X78275000Y44419120D02*
X78117857Y44366739D01*
X78117857Y44366739D02*
X78013095Y44261977D01*
X78013095Y44261977D02*
X77960714Y44157215D01*
X77960714Y44157215D02*
X77908333Y43947691D01*
X77908333Y43947691D02*
X77908333Y43790548D01*
X77908333Y43790548D02*
X77960714Y43581024D01*
X77960714Y43581024D02*
X78013095Y43476262D01*
X78013095Y43476262D02*
X78117857Y43371500D01*
X78117857Y43371500D02*
X78275000Y43319120D01*
X78275000Y43319120D02*
X78379762Y43319120D01*
X78379762Y43319120D02*
X78536905Y43371500D01*
X78536905Y43371500D02*
X78589286Y43423881D01*
X78589286Y43423881D02*
X78589286Y43790548D01*
X78589286Y43790548D02*
X78379762Y43790548D01*
X79060714Y43319120D02*
X79060714Y44419120D01*
X79060714Y44419120D02*
X79689286Y43319120D01*
X79689286Y43319120D02*
X79689286Y44419120D01*
X80213095Y43319120D02*
X80213095Y44419120D01*
X80213095Y44419120D02*
X80475000Y44419120D01*
X80475000Y44419120D02*
X80632143Y44366739D01*
X80632143Y44366739D02*
X80736905Y44261977D01*
X80736905Y44261977D02*
X80789286Y44157215D01*
X80789286Y44157215D02*
X80841667Y43947691D01*
X80841667Y43947691D02*
X80841667Y43790548D01*
X80841667Y43790548D02*
X80789286Y43581024D01*
X80789286Y43581024D02*
X80736905Y43476262D01*
X80736905Y43476262D02*
X80632143Y43371500D01*
X80632143Y43371500D02*
X80475000Y43319120D01*
X80475000Y43319120D02*
X80213095Y43319120D01*
X71615880Y5727381D02*
X70515880Y5727381D01*
X70515880Y5727381D02*
X70515880Y6146429D01*
X70515880Y6146429D02*
X70568261Y6251191D01*
X70568261Y6251191D02*
X70620642Y6303572D01*
X70620642Y6303572D02*
X70725404Y6355953D01*
X70725404Y6355953D02*
X70882547Y6355953D01*
X70882547Y6355953D02*
X70987309Y6303572D01*
X70987309Y6303572D02*
X71039690Y6251191D01*
X71039690Y6251191D02*
X71092071Y6146429D01*
X71092071Y6146429D02*
X71092071Y5727381D01*
X70515880Y7036905D02*
X70515880Y7246429D01*
X70515880Y7246429D02*
X70568261Y7351191D01*
X70568261Y7351191D02*
X70673023Y7455953D01*
X70673023Y7455953D02*
X70882547Y7508334D01*
X70882547Y7508334D02*
X71249214Y7508334D01*
X71249214Y7508334D02*
X71458738Y7455953D01*
X71458738Y7455953D02*
X71563500Y7351191D01*
X71563500Y7351191D02*
X71615880Y7246429D01*
X71615880Y7246429D02*
X71615880Y7036905D01*
X71615880Y7036905D02*
X71563500Y6932143D01*
X71563500Y6932143D02*
X71458738Y6827381D01*
X71458738Y6827381D02*
X71249214Y6775000D01*
X71249214Y6775000D02*
X70882547Y6775000D01*
X70882547Y6775000D02*
X70673023Y6827381D01*
X70673023Y6827381D02*
X70568261Y6932143D01*
X70568261Y6932143D02*
X70515880Y7036905D01*
X70515880Y7875000D02*
X71615880Y8136905D01*
X71615880Y8136905D02*
X70830166Y8346429D01*
X70830166Y8346429D02*
X71615880Y8555953D01*
X71615880Y8555953D02*
X70515880Y8817857D01*
X71039690Y9236905D02*
X71039690Y9603572D01*
X71615880Y9760715D02*
X71615880Y9236905D01*
X71615880Y9236905D02*
X70515880Y9236905D01*
X70515880Y9236905D02*
X70515880Y9760715D01*
X71615880Y10860715D02*
X71092071Y10494048D01*
X71615880Y10232143D02*
X70515880Y10232143D01*
X70515880Y10232143D02*
X70515880Y10651191D01*
X70515880Y10651191D02*
X70568261Y10755953D01*
X70568261Y10755953D02*
X70620642Y10808334D01*
X70620642Y10808334D02*
X70725404Y10860715D01*
X70725404Y10860715D02*
X70882547Y10860715D01*
X70882547Y10860715D02*
X70987309Y10808334D01*
X70987309Y10808334D02*
X71039690Y10755953D01*
X71039690Y10755953D02*
X71092071Y10651191D01*
X71092071Y10651191D02*
X71092071Y10232143D01*
X71615880Y12170238D02*
X70515880Y12170238D01*
X71615880Y12694048D02*
X70515880Y12694048D01*
X70515880Y12694048D02*
X71615880Y13322620D01*
X71615880Y13322620D02*
X70515880Y13322620D01*
X78039285Y45911500D02*
X78196428Y45859120D01*
X78196428Y45859120D02*
X78458333Y45859120D01*
X78458333Y45859120D02*
X78563095Y45911500D01*
X78563095Y45911500D02*
X78615476Y45963881D01*
X78615476Y45963881D02*
X78667857Y46068643D01*
X78667857Y46068643D02*
X78667857Y46173405D01*
X78667857Y46173405D02*
X78615476Y46278167D01*
X78615476Y46278167D02*
X78563095Y46330548D01*
X78563095Y46330548D02*
X78458333Y46382929D01*
X78458333Y46382929D02*
X78248809Y46435310D01*
X78248809Y46435310D02*
X78144047Y46487691D01*
X78144047Y46487691D02*
X78091666Y46540072D01*
X78091666Y46540072D02*
X78039285Y46644834D01*
X78039285Y46644834D02*
X78039285Y46749596D01*
X78039285Y46749596D02*
X78091666Y46854358D01*
X78091666Y46854358D02*
X78144047Y46906739D01*
X78144047Y46906739D02*
X78248809Y46959120D01*
X78248809Y46959120D02*
X78510714Y46959120D01*
X78510714Y46959120D02*
X78667857Y46906739D01*
X79139285Y45859120D02*
X79139285Y46959120D01*
X79139285Y46959120D02*
X79401190Y46959120D01*
X79401190Y46959120D02*
X79558333Y46906739D01*
X79558333Y46906739D02*
X79663095Y46801977D01*
X79663095Y46801977D02*
X79715476Y46697215D01*
X79715476Y46697215D02*
X79767857Y46487691D01*
X79767857Y46487691D02*
X79767857Y46330548D01*
X79767857Y46330548D02*
X79715476Y46121024D01*
X79715476Y46121024D02*
X79663095Y46016262D01*
X79663095Y46016262D02*
X79558333Y45911500D01*
X79558333Y45911500D02*
X79401190Y45859120D01*
X79401190Y45859120D02*
X79139285Y45859120D01*
X80186904Y46173405D02*
X80710714Y46173405D01*
X80082142Y45859120D02*
X80448809Y46959120D01*
X80448809Y46959120D02*
X80815476Y45859120D01*
X77908333Y49499120D02*
X78275000Y48399120D01*
X78275000Y48399120D02*
X78641667Y49499120D01*
X79008333Y48399120D02*
X79008333Y49499120D01*
X79008333Y49499120D02*
X79270238Y49499120D01*
X79270238Y49499120D02*
X79427381Y49446739D01*
X79427381Y49446739D02*
X79532143Y49341977D01*
X79532143Y49341977D02*
X79584524Y49237215D01*
X79584524Y49237215D02*
X79636905Y49027691D01*
X79636905Y49027691D02*
X79636905Y48870548D01*
X79636905Y48870548D02*
X79584524Y48661024D01*
X79584524Y48661024D02*
X79532143Y48556262D01*
X79532143Y48556262D02*
X79427381Y48451500D01*
X79427381Y48451500D02*
X79270238Y48399120D01*
X79270238Y48399120D02*
X79008333Y48399120D01*
X80108333Y48399120D02*
X80108333Y49499120D01*
X80108333Y49499120D02*
X80370238Y49499120D01*
X80370238Y49499120D02*
X80527381Y49446739D01*
X80527381Y49446739D02*
X80632143Y49341977D01*
X80632143Y49341977D02*
X80684524Y49237215D01*
X80684524Y49237215D02*
X80736905Y49027691D01*
X80736905Y49027691D02*
X80736905Y48870548D01*
X80736905Y48870548D02*
X80684524Y48661024D01*
X80684524Y48661024D02*
X80632143Y48556262D01*
X80632143Y48556262D02*
X80527381Y48451500D01*
X80527381Y48451500D02*
X80370238Y48399120D01*
X80370238Y48399120D02*
X80108333Y48399120D01*
X78065476Y50991500D02*
X78222619Y50939120D01*
X78222619Y50939120D02*
X78484524Y50939120D01*
X78484524Y50939120D02*
X78589286Y50991500D01*
X78589286Y50991500D02*
X78641667Y51043881D01*
X78641667Y51043881D02*
X78694048Y51148643D01*
X78694048Y51148643D02*
X78694048Y51253405D01*
X78694048Y51253405D02*
X78641667Y51358167D01*
X78641667Y51358167D02*
X78589286Y51410548D01*
X78589286Y51410548D02*
X78484524Y51462929D01*
X78484524Y51462929D02*
X78275000Y51515310D01*
X78275000Y51515310D02*
X78170238Y51567691D01*
X78170238Y51567691D02*
X78117857Y51620072D01*
X78117857Y51620072D02*
X78065476Y51724834D01*
X78065476Y51724834D02*
X78065476Y51829596D01*
X78065476Y51829596D02*
X78117857Y51934358D01*
X78117857Y51934358D02*
X78170238Y51986739D01*
X78170238Y51986739D02*
X78275000Y52039120D01*
X78275000Y52039120D02*
X78536905Y52039120D01*
X78536905Y52039120D02*
X78694048Y51986739D01*
X79794048Y51043881D02*
X79741667Y50991500D01*
X79741667Y50991500D02*
X79584524Y50939120D01*
X79584524Y50939120D02*
X79479762Y50939120D01*
X79479762Y50939120D02*
X79322619Y50991500D01*
X79322619Y50991500D02*
X79217857Y51096262D01*
X79217857Y51096262D02*
X79165476Y51201024D01*
X79165476Y51201024D02*
X79113095Y51410548D01*
X79113095Y51410548D02*
X79113095Y51567691D01*
X79113095Y51567691D02*
X79165476Y51777215D01*
X79165476Y51777215D02*
X79217857Y51881977D01*
X79217857Y51881977D02*
X79322619Y51986739D01*
X79322619Y51986739D02*
X79479762Y52039120D01*
X79479762Y52039120D02*
X79584524Y52039120D01*
X79584524Y52039120D02*
X79741667Y51986739D01*
X79741667Y51986739D02*
X79794048Y51934358D01*
X80789286Y50939120D02*
X80265476Y50939120D01*
X80265476Y50939120D02*
X80265476Y52039120D01*
X78536905Y54526739D02*
X78432143Y54579120D01*
X78432143Y54579120D02*
X78275000Y54579120D01*
X78275000Y54579120D02*
X78117857Y54526739D01*
X78117857Y54526739D02*
X78013095Y54421977D01*
X78013095Y54421977D02*
X77960714Y54317215D01*
X77960714Y54317215D02*
X77908333Y54107691D01*
X77908333Y54107691D02*
X77908333Y53950548D01*
X77908333Y53950548D02*
X77960714Y53741024D01*
X77960714Y53741024D02*
X78013095Y53636262D01*
X78013095Y53636262D02*
X78117857Y53531500D01*
X78117857Y53531500D02*
X78275000Y53479120D01*
X78275000Y53479120D02*
X78379762Y53479120D01*
X78379762Y53479120D02*
X78536905Y53531500D01*
X78536905Y53531500D02*
X78589286Y53583881D01*
X78589286Y53583881D02*
X78589286Y53950548D01*
X78589286Y53950548D02*
X78379762Y53950548D01*
X79060714Y53479120D02*
X79060714Y54579120D01*
X79060714Y54579120D02*
X79689286Y53479120D01*
X79689286Y53479120D02*
X79689286Y54579120D01*
X80213095Y53479120D02*
X80213095Y54579120D01*
X80213095Y54579120D02*
X80475000Y54579120D01*
X80475000Y54579120D02*
X80632143Y54526739D01*
X80632143Y54526739D02*
X80736905Y54421977D01*
X80736905Y54421977D02*
X80789286Y54317215D01*
X80789286Y54317215D02*
X80841667Y54107691D01*
X80841667Y54107691D02*
X80841667Y53950548D01*
X80841667Y53950548D02*
X80789286Y53741024D01*
X80789286Y53741024D02*
X80736905Y53636262D01*
X80736905Y53636262D02*
X80632143Y53531500D01*
X80632143Y53531500D02*
X80475000Y53479120D01*
X80475000Y53479120D02*
X80213095Y53479120D01*
X78013095Y58389120D02*
X78641667Y58389120D01*
X78327381Y57289120D02*
X78327381Y58389120D01*
X78903571Y58389120D02*
X79636905Y57289120D01*
X79636905Y58389120D02*
X78903571Y57289120D01*
X80632143Y57289120D02*
X80003571Y57289120D01*
X80317857Y57289120D02*
X80317857Y58389120D01*
X80317857Y58389120D02*
X80213095Y58231977D01*
X80213095Y58231977D02*
X80108333Y58127215D01*
X80108333Y58127215D02*
X80003571Y58074834D01*
X78667857Y59829120D02*
X78301190Y60352929D01*
X78039285Y59829120D02*
X78039285Y60929120D01*
X78039285Y60929120D02*
X78458333Y60929120D01*
X78458333Y60929120D02*
X78563095Y60876739D01*
X78563095Y60876739D02*
X78615476Y60824358D01*
X78615476Y60824358D02*
X78667857Y60719596D01*
X78667857Y60719596D02*
X78667857Y60562453D01*
X78667857Y60562453D02*
X78615476Y60457691D01*
X78615476Y60457691D02*
X78563095Y60405310D01*
X78563095Y60405310D02*
X78458333Y60352929D01*
X78458333Y60352929D02*
X78039285Y60352929D01*
X79034523Y60929120D02*
X79767857Y59829120D01*
X79767857Y60929120D02*
X79034523Y59829120D01*
X80763095Y59829120D02*
X80134523Y59829120D01*
X80448809Y59829120D02*
X80448809Y60929120D01*
X80448809Y60929120D02*
X80344047Y60771977D01*
X80344047Y60771977D02*
X80239285Y60667215D01*
X80239285Y60667215D02*
X80134523Y60614834D01*
X78013095Y63469120D02*
X78641667Y63469120D01*
X78327381Y62369120D02*
X78327381Y63469120D01*
X78903571Y63469120D02*
X79636905Y62369120D01*
X79636905Y63469120D02*
X78903571Y62369120D01*
X80265476Y63469120D02*
X80370238Y63469120D01*
X80370238Y63469120D02*
X80475000Y63416739D01*
X80475000Y63416739D02*
X80527381Y63364358D01*
X80527381Y63364358D02*
X80579762Y63259596D01*
X80579762Y63259596D02*
X80632143Y63050072D01*
X80632143Y63050072D02*
X80632143Y62788167D01*
X80632143Y62788167D02*
X80579762Y62578643D01*
X80579762Y62578643D02*
X80527381Y62473881D01*
X80527381Y62473881D02*
X80475000Y62421500D01*
X80475000Y62421500D02*
X80370238Y62369120D01*
X80370238Y62369120D02*
X80265476Y62369120D01*
X80265476Y62369120D02*
X80160714Y62421500D01*
X80160714Y62421500D02*
X80108333Y62473881D01*
X80108333Y62473881D02*
X80055952Y62578643D01*
X80055952Y62578643D02*
X80003571Y62788167D01*
X80003571Y62788167D02*
X80003571Y63050072D01*
X80003571Y63050072D02*
X80055952Y63259596D01*
X80055952Y63259596D02*
X80108333Y63364358D01*
X80108333Y63364358D02*
X80160714Y63416739D01*
X80160714Y63416739D02*
X80265476Y63469120D01*
X78667857Y64909120D02*
X78301190Y65432929D01*
X78039285Y64909120D02*
X78039285Y66009120D01*
X78039285Y66009120D02*
X78458333Y66009120D01*
X78458333Y66009120D02*
X78563095Y65956739D01*
X78563095Y65956739D02*
X78615476Y65904358D01*
X78615476Y65904358D02*
X78667857Y65799596D01*
X78667857Y65799596D02*
X78667857Y65642453D01*
X78667857Y65642453D02*
X78615476Y65537691D01*
X78615476Y65537691D02*
X78563095Y65485310D01*
X78563095Y65485310D02*
X78458333Y65432929D01*
X78458333Y65432929D02*
X78039285Y65432929D01*
X79034523Y66009120D02*
X79767857Y64909120D01*
X79767857Y66009120D02*
X79034523Y64909120D01*
X80396428Y66009120D02*
X80501190Y66009120D01*
X80501190Y66009120D02*
X80605952Y65956739D01*
X80605952Y65956739D02*
X80658333Y65904358D01*
X80658333Y65904358D02*
X80710714Y65799596D01*
X80710714Y65799596D02*
X80763095Y65590072D01*
X80763095Y65590072D02*
X80763095Y65328167D01*
X80763095Y65328167D02*
X80710714Y65118643D01*
X80710714Y65118643D02*
X80658333Y65013881D01*
X80658333Y65013881D02*
X80605952Y64961500D01*
X80605952Y64961500D02*
X80501190Y64909120D01*
X80501190Y64909120D02*
X80396428Y64909120D01*
X80396428Y64909120D02*
X80291666Y64961500D01*
X80291666Y64961500D02*
X80239285Y65013881D01*
X80239285Y65013881D02*
X80186904Y65118643D01*
X80186904Y65118643D02*
X80134523Y65328167D01*
X80134523Y65328167D02*
X80134523Y65590072D01*
X80134523Y65590072D02*
X80186904Y65799596D01*
X80186904Y65799596D02*
X80239285Y65904358D01*
X80239285Y65904358D02*
X80291666Y65956739D01*
X80291666Y65956739D02*
X80396428Y66009120D01*
X78244119Y81797381D02*
X78767928Y82164048D01*
X78244119Y82425953D02*
X79344119Y82425953D01*
X79344119Y82425953D02*
X79344119Y82006905D01*
X79344119Y82006905D02*
X79291738Y81902143D01*
X79291738Y81902143D02*
X79239357Y81849762D01*
X79239357Y81849762D02*
X79134595Y81797381D01*
X79134595Y81797381D02*
X78977452Y81797381D01*
X78977452Y81797381D02*
X78872690Y81849762D01*
X78872690Y81849762D02*
X78820309Y81902143D01*
X78820309Y81902143D02*
X78767928Y82006905D01*
X78767928Y82006905D02*
X78767928Y82425953D01*
X78296500Y81378334D02*
X78244119Y81221191D01*
X78244119Y81221191D02*
X78244119Y80959286D01*
X78244119Y80959286D02*
X78296500Y80854524D01*
X78296500Y80854524D02*
X78348880Y80802143D01*
X78348880Y80802143D02*
X78453642Y80749762D01*
X78453642Y80749762D02*
X78558404Y80749762D01*
X78558404Y80749762D02*
X78663166Y80802143D01*
X78663166Y80802143D02*
X78715547Y80854524D01*
X78715547Y80854524D02*
X78767928Y80959286D01*
X78767928Y80959286D02*
X78820309Y81168810D01*
X78820309Y81168810D02*
X78872690Y81273572D01*
X78872690Y81273572D02*
X78925071Y81325953D01*
X78925071Y81325953D02*
X79029833Y81378334D01*
X79029833Y81378334D02*
X79134595Y81378334D01*
X79134595Y81378334D02*
X79239357Y81325953D01*
X79239357Y81325953D02*
X79291738Y81273572D01*
X79291738Y81273572D02*
X79344119Y81168810D01*
X79344119Y81168810D02*
X79344119Y80906905D01*
X79344119Y80906905D02*
X79291738Y80749762D01*
X79344119Y80435477D02*
X79344119Y79806905D01*
X78244119Y80121191D02*
X79344119Y80121191D01*
X78977452Y79492620D02*
X78977452Y78706905D01*
X79448880Y79178334D02*
X78034595Y79492620D01*
X78506023Y78811667D02*
X78506023Y79597382D01*
X78034595Y79125953D02*
X79448880Y78811667D01*
X77908333Y39509120D02*
X77908333Y40609120D01*
X78432143Y39509120D02*
X78432143Y40609120D01*
X78432143Y40609120D02*
X79060715Y39509120D01*
X79060715Y39509120D02*
X79060715Y40609120D01*
X79427381Y40609120D02*
X80055953Y40609120D01*
X79741667Y39509120D02*
X79741667Y40609120D01*
X80370238Y39823405D02*
X80894048Y39823405D01*
X80265476Y39509120D02*
X80632143Y40609120D01*
X80632143Y40609120D02*
X80998810Y39509120D01*
X78931500Y35914286D02*
X78879119Y35757143D01*
X78879119Y35757143D02*
X78879119Y35495238D01*
X78879119Y35495238D02*
X78931500Y35390476D01*
X78931500Y35390476D02*
X78983880Y35338095D01*
X78983880Y35338095D02*
X79088642Y35285714D01*
X79088642Y35285714D02*
X79193404Y35285714D01*
X79193404Y35285714D02*
X79298166Y35338095D01*
X79298166Y35338095D02*
X79350547Y35390476D01*
X79350547Y35390476D02*
X79402928Y35495238D01*
X79402928Y35495238D02*
X79455309Y35704762D01*
X79455309Y35704762D02*
X79507690Y35809524D01*
X79507690Y35809524D02*
X79560071Y35861905D01*
X79560071Y35861905D02*
X79664833Y35914286D01*
X79664833Y35914286D02*
X79769595Y35914286D01*
X79769595Y35914286D02*
X79874357Y35861905D01*
X79874357Y35861905D02*
X79926738Y35809524D01*
X79926738Y35809524D02*
X79979119Y35704762D01*
X79979119Y35704762D02*
X79979119Y35442857D01*
X79979119Y35442857D02*
X79926738Y35285714D01*
X79979119Y34919048D02*
X78879119Y34657143D01*
X78879119Y34657143D02*
X79664833Y34447619D01*
X79664833Y34447619D02*
X78879119Y34238095D01*
X78879119Y34238095D02*
X79979119Y33976190D01*
X78879119Y32719048D02*
X79979119Y32719048D01*
X79979119Y32719048D02*
X79979119Y32300000D01*
X79979119Y32300000D02*
X79926738Y32195238D01*
X79926738Y32195238D02*
X79874357Y32142857D01*
X79874357Y32142857D02*
X79769595Y32090476D01*
X79769595Y32090476D02*
X79612452Y32090476D01*
X79612452Y32090476D02*
X79507690Y32142857D01*
X79507690Y32142857D02*
X79455309Y32195238D01*
X79455309Y32195238D02*
X79402928Y32300000D01*
X79402928Y32300000D02*
X79402928Y32719048D01*
X79979119Y31409524D02*
X79979119Y31200000D01*
X79979119Y31200000D02*
X79926738Y31095238D01*
X79926738Y31095238D02*
X79821976Y30990476D01*
X79821976Y30990476D02*
X79612452Y30938095D01*
X79612452Y30938095D02*
X79245785Y30938095D01*
X79245785Y30938095D02*
X79036261Y30990476D01*
X79036261Y30990476D02*
X78931500Y31095238D01*
X78931500Y31095238D02*
X78879119Y31200000D01*
X78879119Y31200000D02*
X78879119Y31409524D01*
X78879119Y31409524D02*
X78931500Y31514286D01*
X78931500Y31514286D02*
X79036261Y31619048D01*
X79036261Y31619048D02*
X79245785Y31671429D01*
X79245785Y31671429D02*
X79612452Y31671429D01*
X79612452Y31671429D02*
X79821976Y31619048D01*
X79821976Y31619048D02*
X79926738Y31514286D01*
X79926738Y31514286D02*
X79979119Y31409524D01*
X79979119Y30571429D02*
X78879119Y30309524D01*
X78879119Y30309524D02*
X79664833Y30100000D01*
X79664833Y30100000D02*
X78879119Y29890476D01*
X78879119Y29890476D02*
X79979119Y29628571D01*
X79455309Y29209524D02*
X79455309Y28842857D01*
X78879119Y28685714D02*
X78879119Y29209524D01*
X78879119Y29209524D02*
X79979119Y29209524D01*
X79979119Y29209524D02*
X79979119Y28685714D01*
X78879119Y27585714D02*
X79402928Y27952381D01*
X78879119Y28214286D02*
X79979119Y28214286D01*
X79979119Y28214286D02*
X79979119Y27795238D01*
X79979119Y27795238D02*
X79926738Y27690476D01*
X79926738Y27690476D02*
X79874357Y27638095D01*
X79874357Y27638095D02*
X79769595Y27585714D01*
X79769595Y27585714D02*
X79612452Y27585714D01*
X79612452Y27585714D02*
X79507690Y27638095D01*
X79507690Y27638095D02*
X79455309Y27690476D01*
X79455309Y27690476D02*
X79402928Y27795238D01*
X79402928Y27795238D02*
X79402928Y28214286D01*
X16614285Y3366500D02*
X16771428Y3314120D01*
X16771428Y3314120D02*
X17033333Y3314120D01*
X17033333Y3314120D02*
X17138095Y3366500D01*
X17138095Y3366500D02*
X17190476Y3418881D01*
X17190476Y3418881D02*
X17242857Y3523643D01*
X17242857Y3523643D02*
X17242857Y3628405D01*
X17242857Y3628405D02*
X17190476Y3733167D01*
X17190476Y3733167D02*
X17138095Y3785548D01*
X17138095Y3785548D02*
X17033333Y3837929D01*
X17033333Y3837929D02*
X16823809Y3890310D01*
X16823809Y3890310D02*
X16719047Y3942691D01*
X16719047Y3942691D02*
X16666666Y3995072D01*
X16666666Y3995072D02*
X16614285Y4099834D01*
X16614285Y4099834D02*
X16614285Y4204596D01*
X16614285Y4204596D02*
X16666666Y4309358D01*
X16666666Y4309358D02*
X16719047Y4361739D01*
X16719047Y4361739D02*
X16823809Y4414120D01*
X16823809Y4414120D02*
X17085714Y4414120D01*
X17085714Y4414120D02*
X17242857Y4361739D01*
X17714285Y3314120D02*
X17714285Y4414120D01*
X17714285Y4414120D02*
X17976190Y4414120D01*
X17976190Y4414120D02*
X18133333Y4361739D01*
X18133333Y4361739D02*
X18238095Y4256977D01*
X18238095Y4256977D02*
X18290476Y4152215D01*
X18290476Y4152215D02*
X18342857Y3942691D01*
X18342857Y3942691D02*
X18342857Y3785548D01*
X18342857Y3785548D02*
X18290476Y3576024D01*
X18290476Y3576024D02*
X18238095Y3471262D01*
X18238095Y3471262D02*
X18133333Y3366500D01*
X18133333Y3366500D02*
X17976190Y3314120D01*
X17976190Y3314120D02*
X17714285Y3314120D01*
X18657142Y4414120D02*
X19023809Y3314120D01*
X19023809Y3314120D02*
X19390476Y4414120D01*
X19757142Y3314120D02*
X19757142Y4414120D01*
X19757142Y4414120D02*
X20019047Y4414120D01*
X20019047Y4414120D02*
X20176190Y4361739D01*
X20176190Y4361739D02*
X20280952Y4256977D01*
X20280952Y4256977D02*
X20333333Y4152215D01*
X20333333Y4152215D02*
X20385714Y3942691D01*
X20385714Y3942691D02*
X20385714Y3785548D01*
X20385714Y3785548D02*
X20333333Y3576024D01*
X20333333Y3576024D02*
X20280952Y3471262D01*
X20280952Y3471262D02*
X20176190Y3366500D01*
X20176190Y3366500D02*
X20019047Y3314120D01*
X20019047Y3314120D02*
X19757142Y3314120D01*
X20857142Y3314120D02*
X20857142Y4414120D01*
X20857142Y4414120D02*
X21119047Y4414120D01*
X21119047Y4414120D02*
X21276190Y4361739D01*
X21276190Y4361739D02*
X21380952Y4256977D01*
X21380952Y4256977D02*
X21433333Y4152215D01*
X21433333Y4152215D02*
X21485714Y3942691D01*
X21485714Y3942691D02*
X21485714Y3785548D01*
X21485714Y3785548D02*
X21433333Y3576024D01*
X21433333Y3576024D02*
X21380952Y3471262D01*
X21380952Y3471262D02*
X21276190Y3366500D01*
X21276190Y3366500D02*
X21119047Y3314120D01*
X21119047Y3314120D02*
X20857142Y3314120D01*
X13195880Y97063096D02*
X12095880Y97063096D01*
X12095880Y97063096D02*
X12095880Y97482144D01*
X12095880Y97482144D02*
X12148261Y97586906D01*
X12148261Y97586906D02*
X12200642Y97639287D01*
X12200642Y97639287D02*
X12305404Y97691668D01*
X12305404Y97691668D02*
X12462547Y97691668D01*
X12462547Y97691668D02*
X12567309Y97639287D01*
X12567309Y97639287D02*
X12619690Y97586906D01*
X12619690Y97586906D02*
X12672071Y97482144D01*
X12672071Y97482144D02*
X12672071Y97063096D01*
X13091119Y98791668D02*
X13143500Y98739287D01*
X13143500Y98739287D02*
X13195880Y98582144D01*
X13195880Y98582144D02*
X13195880Y98477382D01*
X13195880Y98477382D02*
X13143500Y98320239D01*
X13143500Y98320239D02*
X13038738Y98215477D01*
X13038738Y98215477D02*
X12933976Y98163096D01*
X12933976Y98163096D02*
X12724452Y98110715D01*
X12724452Y98110715D02*
X12567309Y98110715D01*
X12567309Y98110715D02*
X12357785Y98163096D01*
X12357785Y98163096D02*
X12253023Y98215477D01*
X12253023Y98215477D02*
X12148261Y98320239D01*
X12148261Y98320239D02*
X12095880Y98477382D01*
X12095880Y98477382D02*
X12095880Y98582144D01*
X12095880Y98582144D02*
X12148261Y98739287D01*
X12148261Y98739287D02*
X12200642Y98791668D01*
X12200642Y99210715D02*
X12148261Y99263096D01*
X12148261Y99263096D02*
X12095880Y99367858D01*
X12095880Y99367858D02*
X12095880Y99629763D01*
X12095880Y99629763D02*
X12148261Y99734525D01*
X12148261Y99734525D02*
X12200642Y99786906D01*
X12200642Y99786906D02*
X12305404Y99839287D01*
X12305404Y99839287D02*
X12410166Y99839287D01*
X12410166Y99839287D02*
X12567309Y99786906D01*
X12567309Y99786906D02*
X13195880Y99158334D01*
X13195880Y99158334D02*
X13195880Y99839287D01*
X15735880Y97063096D02*
X14635880Y97063096D01*
X14635880Y97063096D02*
X14635880Y97482144D01*
X14635880Y97482144D02*
X14688261Y97586906D01*
X14688261Y97586906D02*
X14740642Y97639287D01*
X14740642Y97639287D02*
X14845404Y97691668D01*
X14845404Y97691668D02*
X15002547Y97691668D01*
X15002547Y97691668D02*
X15107309Y97639287D01*
X15107309Y97639287D02*
X15159690Y97586906D01*
X15159690Y97586906D02*
X15212071Y97482144D01*
X15212071Y97482144D02*
X15212071Y97063096D01*
X15631119Y98791668D02*
X15683500Y98739287D01*
X15683500Y98739287D02*
X15735880Y98582144D01*
X15735880Y98582144D02*
X15735880Y98477382D01*
X15735880Y98477382D02*
X15683500Y98320239D01*
X15683500Y98320239D02*
X15578738Y98215477D01*
X15578738Y98215477D02*
X15473976Y98163096D01*
X15473976Y98163096D02*
X15264452Y98110715D01*
X15264452Y98110715D02*
X15107309Y98110715D01*
X15107309Y98110715D02*
X14897785Y98163096D01*
X14897785Y98163096D02*
X14793023Y98215477D01*
X14793023Y98215477D02*
X14688261Y98320239D01*
X14688261Y98320239D02*
X14635880Y98477382D01*
X14635880Y98477382D02*
X14635880Y98582144D01*
X14635880Y98582144D02*
X14688261Y98739287D01*
X14688261Y98739287D02*
X14740642Y98791668D01*
X14635880Y99158334D02*
X14635880Y99839287D01*
X14635880Y99839287D02*
X15054928Y99472620D01*
X15054928Y99472620D02*
X15054928Y99629763D01*
X15054928Y99629763D02*
X15107309Y99734525D01*
X15107309Y99734525D02*
X15159690Y99786906D01*
X15159690Y99786906D02*
X15264452Y99839287D01*
X15264452Y99839287D02*
X15526357Y99839287D01*
X15526357Y99839287D02*
X15631119Y99786906D01*
X15631119Y99786906D02*
X15683500Y99734525D01*
X15683500Y99734525D02*
X15735880Y99629763D01*
X15735880Y99629763D02*
X15735880Y99315477D01*
X15735880Y99315477D02*
X15683500Y99210715D01*
X15683500Y99210715D02*
X15631119Y99158334D01*
X18275880Y97429762D02*
X17175880Y97429762D01*
X18275880Y97953572D02*
X17175880Y97953572D01*
X17175880Y97953572D02*
X18275880Y98582144D01*
X18275880Y98582144D02*
X17175880Y98582144D01*
X17175880Y98948810D02*
X17175880Y99577382D01*
X18275880Y99263096D02*
X17175880Y99263096D01*
X20815880Y97063096D02*
X19715880Y97063096D01*
X19715880Y97063096D02*
X19715880Y97482144D01*
X19715880Y97482144D02*
X19768261Y97586906D01*
X19768261Y97586906D02*
X19820642Y97639287D01*
X19820642Y97639287D02*
X19925404Y97691668D01*
X19925404Y97691668D02*
X20082547Y97691668D01*
X20082547Y97691668D02*
X20187309Y97639287D01*
X20187309Y97639287D02*
X20239690Y97586906D01*
X20239690Y97586906D02*
X20292071Y97482144D01*
X20292071Y97482144D02*
X20292071Y97063096D01*
X20711119Y98791668D02*
X20763500Y98739287D01*
X20763500Y98739287D02*
X20815880Y98582144D01*
X20815880Y98582144D02*
X20815880Y98477382D01*
X20815880Y98477382D02*
X20763500Y98320239D01*
X20763500Y98320239D02*
X20658738Y98215477D01*
X20658738Y98215477D02*
X20553976Y98163096D01*
X20553976Y98163096D02*
X20344452Y98110715D01*
X20344452Y98110715D02*
X20187309Y98110715D01*
X20187309Y98110715D02*
X19977785Y98163096D01*
X19977785Y98163096D02*
X19873023Y98215477D01*
X19873023Y98215477D02*
X19768261Y98320239D01*
X19768261Y98320239D02*
X19715880Y98477382D01*
X19715880Y98477382D02*
X19715880Y98582144D01*
X19715880Y98582144D02*
X19768261Y98739287D01*
X19768261Y98739287D02*
X19820642Y98791668D01*
X19715880Y99786906D02*
X19715880Y99263096D01*
X19715880Y99263096D02*
X20239690Y99210715D01*
X20239690Y99210715D02*
X20187309Y99263096D01*
X20187309Y99263096D02*
X20134928Y99367858D01*
X20134928Y99367858D02*
X20134928Y99629763D01*
X20134928Y99629763D02*
X20187309Y99734525D01*
X20187309Y99734525D02*
X20239690Y99786906D01*
X20239690Y99786906D02*
X20344452Y99839287D01*
X20344452Y99839287D02*
X20606357Y99839287D01*
X20606357Y99839287D02*
X20711119Y99786906D01*
X20711119Y99786906D02*
X20763500Y99734525D01*
X20763500Y99734525D02*
X20815880Y99629763D01*
X20815880Y99629763D02*
X20815880Y99367858D01*
X20815880Y99367858D02*
X20763500Y99263096D01*
X20763500Y99263096D02*
X20711119Y99210715D01*
X23355880Y97063096D02*
X22255880Y97063096D01*
X22255880Y97063096D02*
X22255880Y97482144D01*
X22255880Y97482144D02*
X22308261Y97586906D01*
X22308261Y97586906D02*
X22360642Y97639287D01*
X22360642Y97639287D02*
X22465404Y97691668D01*
X22465404Y97691668D02*
X22622547Y97691668D01*
X22622547Y97691668D02*
X22727309Y97639287D01*
X22727309Y97639287D02*
X22779690Y97586906D01*
X22779690Y97586906D02*
X22832071Y97482144D01*
X22832071Y97482144D02*
X22832071Y97063096D01*
X23251119Y98791668D02*
X23303500Y98739287D01*
X23303500Y98739287D02*
X23355880Y98582144D01*
X23355880Y98582144D02*
X23355880Y98477382D01*
X23355880Y98477382D02*
X23303500Y98320239D01*
X23303500Y98320239D02*
X23198738Y98215477D01*
X23198738Y98215477D02*
X23093976Y98163096D01*
X23093976Y98163096D02*
X22884452Y98110715D01*
X22884452Y98110715D02*
X22727309Y98110715D01*
X22727309Y98110715D02*
X22517785Y98163096D01*
X22517785Y98163096D02*
X22413023Y98215477D01*
X22413023Y98215477D02*
X22308261Y98320239D01*
X22308261Y98320239D02*
X22255880Y98477382D01*
X22255880Y98477382D02*
X22255880Y98582144D01*
X22255880Y98582144D02*
X22308261Y98739287D01*
X22308261Y98739287D02*
X22360642Y98791668D01*
X22255880Y99734525D02*
X22255880Y99525001D01*
X22255880Y99525001D02*
X22308261Y99420239D01*
X22308261Y99420239D02*
X22360642Y99367858D01*
X22360642Y99367858D02*
X22517785Y99263096D01*
X22517785Y99263096D02*
X22727309Y99210715D01*
X22727309Y99210715D02*
X23146357Y99210715D01*
X23146357Y99210715D02*
X23251119Y99263096D01*
X23251119Y99263096D02*
X23303500Y99315477D01*
X23303500Y99315477D02*
X23355880Y99420239D01*
X23355880Y99420239D02*
X23355880Y99629763D01*
X23355880Y99629763D02*
X23303500Y99734525D01*
X23303500Y99734525D02*
X23251119Y99786906D01*
X23251119Y99786906D02*
X23146357Y99839287D01*
X23146357Y99839287D02*
X22884452Y99839287D01*
X22884452Y99839287D02*
X22779690Y99786906D01*
X22779690Y99786906D02*
X22727309Y99734525D01*
X22727309Y99734525D02*
X22674928Y99629763D01*
X22674928Y99629763D02*
X22674928Y99420239D01*
X22674928Y99420239D02*
X22727309Y99315477D01*
X22727309Y99315477D02*
X22779690Y99263096D01*
X22779690Y99263096D02*
X22884452Y99210715D01*
X34414047Y92528405D02*
X34937857Y92528405D01*
X34309285Y92214120D02*
X34675952Y93314120D01*
X34675952Y93314120D02*
X35042619Y92214120D01*
X36037857Y92214120D02*
X35671190Y92737929D01*
X35409285Y92214120D02*
X35409285Y93314120D01*
X35409285Y93314120D02*
X35828333Y93314120D01*
X35828333Y93314120D02*
X35933095Y93261739D01*
X35933095Y93261739D02*
X35985476Y93209358D01*
X35985476Y93209358D02*
X36037857Y93104596D01*
X36037857Y93104596D02*
X36037857Y92947453D01*
X36037857Y92947453D02*
X35985476Y92842691D01*
X35985476Y92842691D02*
X35933095Y92790310D01*
X35933095Y92790310D02*
X35828333Y92737929D01*
X35828333Y92737929D02*
X35409285Y92737929D01*
X36509285Y92790310D02*
X36875952Y92790310D01*
X37033095Y92214120D02*
X36509285Y92214120D01*
X36509285Y92214120D02*
X36509285Y93314120D01*
X36509285Y93314120D02*
X37033095Y93314120D01*
X37871190Y92790310D02*
X37504523Y92790310D01*
X37504523Y92214120D02*
X37504523Y93314120D01*
X37504523Y93314120D02*
X38028333Y93314120D01*
X45580880Y97141667D02*
X44480880Y97141667D01*
X44480880Y97141667D02*
X44480880Y97560715D01*
X44480880Y97560715D02*
X44533261Y97665477D01*
X44533261Y97665477D02*
X44585642Y97717858D01*
X44585642Y97717858D02*
X44690404Y97770239D01*
X44690404Y97770239D02*
X44847547Y97770239D01*
X44847547Y97770239D02*
X44952309Y97717858D01*
X44952309Y97717858D02*
X45004690Y97665477D01*
X45004690Y97665477D02*
X45057071Y97560715D01*
X45057071Y97560715D02*
X45057071Y97141667D01*
X45266595Y98189286D02*
X45266595Y98713096D01*
X45580880Y98084524D02*
X44480880Y98451191D01*
X44480880Y98451191D02*
X45580880Y98817858D01*
X45580880Y99760715D02*
X45580880Y99132143D01*
X45580880Y99446429D02*
X44480880Y99446429D01*
X44480880Y99446429D02*
X44638023Y99341667D01*
X44638023Y99341667D02*
X44742785Y99236905D01*
X44742785Y99236905D02*
X44795166Y99132143D01*
X48120880Y97141667D02*
X47020880Y97141667D01*
X47020880Y97141667D02*
X47020880Y97560715D01*
X47020880Y97560715D02*
X47073261Y97665477D01*
X47073261Y97665477D02*
X47125642Y97717858D01*
X47125642Y97717858D02*
X47230404Y97770239D01*
X47230404Y97770239D02*
X47387547Y97770239D01*
X47387547Y97770239D02*
X47492309Y97717858D01*
X47492309Y97717858D02*
X47544690Y97665477D01*
X47544690Y97665477D02*
X47597071Y97560715D01*
X47597071Y97560715D02*
X47597071Y97141667D01*
X47806595Y98189286D02*
X47806595Y98713096D01*
X48120880Y98084524D02*
X47020880Y98451191D01*
X47020880Y98451191D02*
X48120880Y98817858D01*
X47020880Y99394048D02*
X47020880Y99498810D01*
X47020880Y99498810D02*
X47073261Y99603572D01*
X47073261Y99603572D02*
X47125642Y99655953D01*
X47125642Y99655953D02*
X47230404Y99708334D01*
X47230404Y99708334D02*
X47439928Y99760715D01*
X47439928Y99760715D02*
X47701833Y99760715D01*
X47701833Y99760715D02*
X47911357Y99708334D01*
X47911357Y99708334D02*
X48016119Y99655953D01*
X48016119Y99655953D02*
X48068500Y99603572D01*
X48068500Y99603572D02*
X48120880Y99498810D01*
X48120880Y99498810D02*
X48120880Y99394048D01*
X48120880Y99394048D02*
X48068500Y99289286D01*
X48068500Y99289286D02*
X48016119Y99236905D01*
X48016119Y99236905D02*
X47911357Y99184524D01*
X47911357Y99184524D02*
X47701833Y99132143D01*
X47701833Y99132143D02*
X47439928Y99132143D01*
X47439928Y99132143D02*
X47230404Y99184524D01*
X47230404Y99184524D02*
X47125642Y99236905D01*
X47125642Y99236905D02*
X47073261Y99289286D01*
X47073261Y99289286D02*
X47020880Y99394048D01*
X49560880Y96958334D02*
X50660880Y97325001D01*
X50660880Y97325001D02*
X49560880Y97691668D01*
X50660880Y98058334D02*
X49560880Y98058334D01*
X49560880Y98058334D02*
X49560880Y98320239D01*
X49560880Y98320239D02*
X49613261Y98477382D01*
X49613261Y98477382D02*
X49718023Y98582144D01*
X49718023Y98582144D02*
X49822785Y98634525D01*
X49822785Y98634525D02*
X50032309Y98686906D01*
X50032309Y98686906D02*
X50189452Y98686906D01*
X50189452Y98686906D02*
X50398976Y98634525D01*
X50398976Y98634525D02*
X50503738Y98582144D01*
X50503738Y98582144D02*
X50608500Y98477382D01*
X50608500Y98477382D02*
X50660880Y98320239D01*
X50660880Y98320239D02*
X50660880Y98058334D01*
X50660880Y99158334D02*
X49560880Y99158334D01*
X49560880Y99158334D02*
X49560880Y99420239D01*
X49560880Y99420239D02*
X49613261Y99577382D01*
X49613261Y99577382D02*
X49718023Y99682144D01*
X49718023Y99682144D02*
X49822785Y99734525D01*
X49822785Y99734525D02*
X50032309Y99786906D01*
X50032309Y99786906D02*
X50189452Y99786906D01*
X50189452Y99786906D02*
X50398976Y99734525D01*
X50398976Y99734525D02*
X50503738Y99682144D01*
X50503738Y99682144D02*
X50608500Y99577382D01*
X50608500Y99577382D02*
X50660880Y99420239D01*
X50660880Y99420239D02*
X50660880Y99158334D01*
X52153261Y97586906D02*
X52100880Y97482144D01*
X52100880Y97482144D02*
X52100880Y97325001D01*
X52100880Y97325001D02*
X52153261Y97167858D01*
X52153261Y97167858D02*
X52258023Y97063096D01*
X52258023Y97063096D02*
X52362785Y97010715D01*
X52362785Y97010715D02*
X52572309Y96958334D01*
X52572309Y96958334D02*
X52729452Y96958334D01*
X52729452Y96958334D02*
X52938976Y97010715D01*
X52938976Y97010715D02*
X53043738Y97063096D01*
X53043738Y97063096D02*
X53148500Y97167858D01*
X53148500Y97167858D02*
X53200880Y97325001D01*
X53200880Y97325001D02*
X53200880Y97429763D01*
X53200880Y97429763D02*
X53148500Y97586906D01*
X53148500Y97586906D02*
X53096119Y97639287D01*
X53096119Y97639287D02*
X52729452Y97639287D01*
X52729452Y97639287D02*
X52729452Y97429763D01*
X53200880Y98110715D02*
X52100880Y98110715D01*
X52100880Y98110715D02*
X53200880Y98739287D01*
X53200880Y98739287D02*
X52100880Y98739287D01*
X53200880Y99263096D02*
X52100880Y99263096D01*
X52100880Y99263096D02*
X52100880Y99525001D01*
X52100880Y99525001D02*
X52153261Y99682144D01*
X52153261Y99682144D02*
X52258023Y99786906D01*
X52258023Y99786906D02*
X52362785Y99839287D01*
X52362785Y99839287D02*
X52572309Y99891668D01*
X52572309Y99891668D02*
X52729452Y99891668D01*
X52729452Y99891668D02*
X52938976Y99839287D01*
X52938976Y99839287D02*
X53043738Y99786906D01*
X53043738Y99786906D02*
X53148500Y99682144D01*
X53148500Y99682144D02*
X53200880Y99525001D01*
X53200880Y99525001D02*
X53200880Y99263096D01*
X55740880Y97063096D02*
X54640880Y97063096D01*
X54640880Y97063096D02*
X54640880Y97482144D01*
X54640880Y97482144D02*
X54693261Y97586906D01*
X54693261Y97586906D02*
X54745642Y97639287D01*
X54745642Y97639287D02*
X54850404Y97691668D01*
X54850404Y97691668D02*
X55007547Y97691668D01*
X55007547Y97691668D02*
X55112309Y97639287D01*
X55112309Y97639287D02*
X55164690Y97586906D01*
X55164690Y97586906D02*
X55217071Y97482144D01*
X55217071Y97482144D02*
X55217071Y97063096D01*
X55164690Y98529763D02*
X55217071Y98686906D01*
X55217071Y98686906D02*
X55269452Y98739287D01*
X55269452Y98739287D02*
X55374214Y98791668D01*
X55374214Y98791668D02*
X55531357Y98791668D01*
X55531357Y98791668D02*
X55636119Y98739287D01*
X55636119Y98739287D02*
X55688500Y98686906D01*
X55688500Y98686906D02*
X55740880Y98582144D01*
X55740880Y98582144D02*
X55740880Y98163096D01*
X55740880Y98163096D02*
X54640880Y98163096D01*
X54640880Y98163096D02*
X54640880Y98529763D01*
X54640880Y98529763D02*
X54693261Y98634525D01*
X54693261Y98634525D02*
X54745642Y98686906D01*
X54745642Y98686906D02*
X54850404Y98739287D01*
X54850404Y98739287D02*
X54955166Y98739287D01*
X54955166Y98739287D02*
X55059928Y98686906D01*
X55059928Y98686906D02*
X55112309Y98634525D01*
X55112309Y98634525D02*
X55164690Y98529763D01*
X55164690Y98529763D02*
X55164690Y98163096D01*
X54640880Y99472620D02*
X54640880Y99577382D01*
X54640880Y99577382D02*
X54693261Y99682144D01*
X54693261Y99682144D02*
X54745642Y99734525D01*
X54745642Y99734525D02*
X54850404Y99786906D01*
X54850404Y99786906D02*
X55059928Y99839287D01*
X55059928Y99839287D02*
X55321833Y99839287D01*
X55321833Y99839287D02*
X55531357Y99786906D01*
X55531357Y99786906D02*
X55636119Y99734525D01*
X55636119Y99734525D02*
X55688500Y99682144D01*
X55688500Y99682144D02*
X55740880Y99577382D01*
X55740880Y99577382D02*
X55740880Y99472620D01*
X55740880Y99472620D02*
X55688500Y99367858D01*
X55688500Y99367858D02*
X55636119Y99315477D01*
X55636119Y99315477D02*
X55531357Y99263096D01*
X55531357Y99263096D02*
X55321833Y99210715D01*
X55321833Y99210715D02*
X55059928Y99210715D01*
X55059928Y99210715D02*
X54850404Y99263096D01*
X54850404Y99263096D02*
X54745642Y99315477D01*
X54745642Y99315477D02*
X54693261Y99367858D01*
X54693261Y99367858D02*
X54640880Y99472620D01*
X63360880Y97063096D02*
X62260880Y97063096D01*
X62260880Y97063096D02*
X62260880Y97482144D01*
X62260880Y97482144D02*
X62313261Y97586906D01*
X62313261Y97586906D02*
X62365642Y97639287D01*
X62365642Y97639287D02*
X62470404Y97691668D01*
X62470404Y97691668D02*
X62627547Y97691668D01*
X62627547Y97691668D02*
X62732309Y97639287D01*
X62732309Y97639287D02*
X62784690Y97586906D01*
X62784690Y97586906D02*
X62837071Y97482144D01*
X62837071Y97482144D02*
X62837071Y97063096D01*
X62784690Y98529763D02*
X62837071Y98686906D01*
X62837071Y98686906D02*
X62889452Y98739287D01*
X62889452Y98739287D02*
X62994214Y98791668D01*
X62994214Y98791668D02*
X63151357Y98791668D01*
X63151357Y98791668D02*
X63256119Y98739287D01*
X63256119Y98739287D02*
X63308500Y98686906D01*
X63308500Y98686906D02*
X63360880Y98582144D01*
X63360880Y98582144D02*
X63360880Y98163096D01*
X63360880Y98163096D02*
X62260880Y98163096D01*
X62260880Y98163096D02*
X62260880Y98529763D01*
X62260880Y98529763D02*
X62313261Y98634525D01*
X62313261Y98634525D02*
X62365642Y98686906D01*
X62365642Y98686906D02*
X62470404Y98739287D01*
X62470404Y98739287D02*
X62575166Y98739287D01*
X62575166Y98739287D02*
X62679928Y98686906D01*
X62679928Y98686906D02*
X62732309Y98634525D01*
X62732309Y98634525D02*
X62784690Y98529763D01*
X62784690Y98529763D02*
X62784690Y98163096D01*
X62260880Y99786906D02*
X62260880Y99263096D01*
X62260880Y99263096D02*
X62784690Y99210715D01*
X62784690Y99210715D02*
X62732309Y99263096D01*
X62732309Y99263096D02*
X62679928Y99367858D01*
X62679928Y99367858D02*
X62679928Y99629763D01*
X62679928Y99629763D02*
X62732309Y99734525D01*
X62732309Y99734525D02*
X62784690Y99786906D01*
X62784690Y99786906D02*
X62889452Y99839287D01*
X62889452Y99839287D02*
X63151357Y99839287D01*
X63151357Y99839287D02*
X63256119Y99786906D01*
X63256119Y99786906D02*
X63308500Y99734525D01*
X63308500Y99734525D02*
X63360880Y99629763D01*
X63360880Y99629763D02*
X63360880Y99367858D01*
X63360880Y99367858D02*
X63308500Y99263096D01*
X63308500Y99263096D02*
X63256119Y99210715D01*
X68440880Y97063096D02*
X67340880Y97063096D01*
X67340880Y97063096D02*
X67340880Y97482144D01*
X67340880Y97482144D02*
X67393261Y97586906D01*
X67393261Y97586906D02*
X67445642Y97639287D01*
X67445642Y97639287D02*
X67550404Y97691668D01*
X67550404Y97691668D02*
X67707547Y97691668D01*
X67707547Y97691668D02*
X67812309Y97639287D01*
X67812309Y97639287D02*
X67864690Y97586906D01*
X67864690Y97586906D02*
X67917071Y97482144D01*
X67917071Y97482144D02*
X67917071Y97063096D01*
X67864690Y98529763D02*
X67917071Y98686906D01*
X67917071Y98686906D02*
X67969452Y98739287D01*
X67969452Y98739287D02*
X68074214Y98791668D01*
X68074214Y98791668D02*
X68231357Y98791668D01*
X68231357Y98791668D02*
X68336119Y98739287D01*
X68336119Y98739287D02*
X68388500Y98686906D01*
X68388500Y98686906D02*
X68440880Y98582144D01*
X68440880Y98582144D02*
X68440880Y98163096D01*
X68440880Y98163096D02*
X67340880Y98163096D01*
X67340880Y98163096D02*
X67340880Y98529763D01*
X67340880Y98529763D02*
X67393261Y98634525D01*
X67393261Y98634525D02*
X67445642Y98686906D01*
X67445642Y98686906D02*
X67550404Y98739287D01*
X67550404Y98739287D02*
X67655166Y98739287D01*
X67655166Y98739287D02*
X67759928Y98686906D01*
X67759928Y98686906D02*
X67812309Y98634525D01*
X67812309Y98634525D02*
X67864690Y98529763D01*
X67864690Y98529763D02*
X67864690Y98163096D01*
X67340880Y99158334D02*
X67340880Y99891668D01*
X67340880Y99891668D02*
X68440880Y99420239D01*
X65900880Y97063096D02*
X64800880Y97063096D01*
X64800880Y97063096D02*
X64800880Y97482144D01*
X64800880Y97482144D02*
X64853261Y97586906D01*
X64853261Y97586906D02*
X64905642Y97639287D01*
X64905642Y97639287D02*
X65010404Y97691668D01*
X65010404Y97691668D02*
X65167547Y97691668D01*
X65167547Y97691668D02*
X65272309Y97639287D01*
X65272309Y97639287D02*
X65324690Y97586906D01*
X65324690Y97586906D02*
X65377071Y97482144D01*
X65377071Y97482144D02*
X65377071Y97063096D01*
X65324690Y98529763D02*
X65377071Y98686906D01*
X65377071Y98686906D02*
X65429452Y98739287D01*
X65429452Y98739287D02*
X65534214Y98791668D01*
X65534214Y98791668D02*
X65691357Y98791668D01*
X65691357Y98791668D02*
X65796119Y98739287D01*
X65796119Y98739287D02*
X65848500Y98686906D01*
X65848500Y98686906D02*
X65900880Y98582144D01*
X65900880Y98582144D02*
X65900880Y98163096D01*
X65900880Y98163096D02*
X64800880Y98163096D01*
X64800880Y98163096D02*
X64800880Y98529763D01*
X64800880Y98529763D02*
X64853261Y98634525D01*
X64853261Y98634525D02*
X64905642Y98686906D01*
X64905642Y98686906D02*
X65010404Y98739287D01*
X65010404Y98739287D02*
X65115166Y98739287D01*
X65115166Y98739287D02*
X65219928Y98686906D01*
X65219928Y98686906D02*
X65272309Y98634525D01*
X65272309Y98634525D02*
X65324690Y98529763D01*
X65324690Y98529763D02*
X65324690Y98163096D01*
X64800880Y99734525D02*
X64800880Y99525001D01*
X64800880Y99525001D02*
X64853261Y99420239D01*
X64853261Y99420239D02*
X64905642Y99367858D01*
X64905642Y99367858D02*
X65062785Y99263096D01*
X65062785Y99263096D02*
X65272309Y99210715D01*
X65272309Y99210715D02*
X65691357Y99210715D01*
X65691357Y99210715D02*
X65796119Y99263096D01*
X65796119Y99263096D02*
X65848500Y99315477D01*
X65848500Y99315477D02*
X65900880Y99420239D01*
X65900880Y99420239D02*
X65900880Y99629763D01*
X65900880Y99629763D02*
X65848500Y99734525D01*
X65848500Y99734525D02*
X65796119Y99786906D01*
X65796119Y99786906D02*
X65691357Y99839287D01*
X65691357Y99839287D02*
X65429452Y99839287D01*
X65429452Y99839287D02*
X65324690Y99786906D01*
X65324690Y99786906D02*
X65272309Y99734525D01*
X65272309Y99734525D02*
X65219928Y99629763D01*
X65219928Y99629763D02*
X65219928Y99420239D01*
X65219928Y99420239D02*
X65272309Y99315477D01*
X65272309Y99315477D02*
X65324690Y99263096D01*
X65324690Y99263096D02*
X65429452Y99210715D01*
X31886904Y95068405D02*
X32410714Y95068405D01*
X31782142Y94754120D02*
X32148809Y95854120D01*
X32148809Y95854120D02*
X32515476Y94754120D01*
X33510714Y94754120D02*
X33144047Y95277929D01*
X32882142Y94754120D02*
X32882142Y95854120D01*
X32882142Y95854120D02*
X33301190Y95854120D01*
X33301190Y95854120D02*
X33405952Y95801739D01*
X33405952Y95801739D02*
X33458333Y95749358D01*
X33458333Y95749358D02*
X33510714Y95644596D01*
X33510714Y95644596D02*
X33510714Y95487453D01*
X33510714Y95487453D02*
X33458333Y95382691D01*
X33458333Y95382691D02*
X33405952Y95330310D01*
X33405952Y95330310D02*
X33301190Y95277929D01*
X33301190Y95277929D02*
X32882142Y95277929D01*
X33982142Y95330310D02*
X34348809Y95330310D01*
X34505952Y94754120D02*
X33982142Y94754120D01*
X33982142Y94754120D02*
X33982142Y95854120D01*
X33982142Y95854120D02*
X34505952Y95854120D01*
X35344047Y95330310D02*
X34977380Y95330310D01*
X34977380Y94754120D02*
X34977380Y95854120D01*
X34977380Y95854120D02*
X35501190Y95854120D01*
X35658333Y94649358D02*
X36496428Y94649358D01*
X36758332Y94754120D02*
X36758332Y95854120D01*
X37282142Y94754120D02*
X37282142Y95854120D01*
X37282142Y95854120D02*
X37910714Y94754120D01*
X37910714Y94754120D02*
X37910714Y95854120D01*
X33143571Y8844072D02*
X33143571Y10344072D01*
X33143571Y10344072D02*
X33643571Y9272643D01*
X33643571Y9272643D02*
X34143571Y10344072D01*
X34143571Y10344072D02*
X34143571Y8844072D01*
X35572143Y8844072D02*
X34857857Y8844072D01*
X34857857Y8844072D02*
X34857857Y10344072D01*
X36000715Y9272643D02*
X36715001Y9272643D01*
X35857858Y8844072D02*
X36357858Y10344072D01*
X36357858Y10344072D02*
X36857858Y8844072D01*
X37857857Y9629786D02*
X38072143Y9558358D01*
X38072143Y9558358D02*
X38143572Y9486929D01*
X38143572Y9486929D02*
X38215000Y9344072D01*
X38215000Y9344072D02*
X38215000Y9129786D01*
X38215000Y9129786D02*
X38143572Y8986929D01*
X38143572Y8986929D02*
X38072143Y8915500D01*
X38072143Y8915500D02*
X37929286Y8844072D01*
X37929286Y8844072D02*
X37357857Y8844072D01*
X37357857Y8844072D02*
X37357857Y10344072D01*
X37357857Y10344072D02*
X37857857Y10344072D01*
X37857857Y10344072D02*
X38000715Y10272643D01*
X38000715Y10272643D02*
X38072143Y10201215D01*
X38072143Y10201215D02*
X38143572Y10058358D01*
X38143572Y10058358D02*
X38143572Y9915500D01*
X38143572Y9915500D02*
X38072143Y9772643D01*
X38072143Y9772643D02*
X38000715Y9701215D01*
X38000715Y9701215D02*
X37857857Y9629786D01*
X37857857Y9629786D02*
X37357857Y9629786D01*
X38857857Y8986929D02*
X38929286Y8915500D01*
X38929286Y8915500D02*
X38857857Y8844072D01*
X38857857Y8844072D02*
X38786429Y8915500D01*
X38786429Y8915500D02*
X38857857Y8986929D01*
X38857857Y8986929D02*
X38857857Y8844072D01*
X40429286Y8986929D02*
X40357858Y8915500D01*
X40357858Y8915500D02*
X40143572Y8844072D01*
X40143572Y8844072D02*
X40000715Y8844072D01*
X40000715Y8844072D02*
X39786429Y8915500D01*
X39786429Y8915500D02*
X39643572Y9058358D01*
X39643572Y9058358D02*
X39572143Y9201215D01*
X39572143Y9201215D02*
X39500715Y9486929D01*
X39500715Y9486929D02*
X39500715Y9701215D01*
X39500715Y9701215D02*
X39572143Y9986929D01*
X39572143Y9986929D02*
X39643572Y10129786D01*
X39643572Y10129786D02*
X39786429Y10272643D01*
X39786429Y10272643D02*
X40000715Y10344072D01*
X40000715Y10344072D02*
X40143572Y10344072D01*
X40143572Y10344072D02*
X40357858Y10272643D01*
X40357858Y10272643D02*
X40429286Y10201215D01*
X40929286Y10344072D02*
X41929286Y10344072D01*
X41929286Y10344072D02*
X40929286Y8844072D01*
X40929286Y8844072D02*
X41929286Y8844072D01*
X29457143Y6304072D02*
X29457143Y7804072D01*
X29457143Y7804072D02*
X29814286Y7804072D01*
X29814286Y7804072D02*
X30028572Y7732643D01*
X30028572Y7732643D02*
X30171429Y7589786D01*
X30171429Y7589786D02*
X30242858Y7446929D01*
X30242858Y7446929D02*
X30314286Y7161215D01*
X30314286Y7161215D02*
X30314286Y6946929D01*
X30314286Y6946929D02*
X30242858Y6661215D01*
X30242858Y6661215D02*
X30171429Y6518358D01*
X30171429Y6518358D02*
X30028572Y6375500D01*
X30028572Y6375500D02*
X29814286Y6304072D01*
X29814286Y6304072D02*
X29457143Y6304072D01*
X30885715Y6732643D02*
X31600001Y6732643D01*
X30742858Y6304072D02*
X31242858Y7804072D01*
X31242858Y7804072D02*
X31742858Y6304072D01*
X32028572Y7804072D02*
X32885715Y7804072D01*
X32457143Y6304072D02*
X32457143Y7804072D01*
X33314286Y6732643D02*
X34028572Y6732643D01*
X33171429Y6304072D02*
X33671429Y7804072D01*
X33671429Y7804072D02*
X34171429Y6304072D01*
X35385714Y6304072D02*
X34671428Y6304072D01*
X34671428Y6304072D02*
X34671428Y7804072D01*
X36171429Y7804072D02*
X36457143Y7804072D01*
X36457143Y7804072D02*
X36600000Y7732643D01*
X36600000Y7732643D02*
X36742857Y7589786D01*
X36742857Y7589786D02*
X36814286Y7304072D01*
X36814286Y7304072D02*
X36814286Y6804072D01*
X36814286Y6804072D02*
X36742857Y6518358D01*
X36742857Y6518358D02*
X36600000Y6375500D01*
X36600000Y6375500D02*
X36457143Y6304072D01*
X36457143Y6304072D02*
X36171429Y6304072D01*
X36171429Y6304072D02*
X36028572Y6375500D01*
X36028572Y6375500D02*
X35885714Y6518358D01*
X35885714Y6518358D02*
X35814286Y6804072D01*
X35814286Y6804072D02*
X35814286Y7304072D01*
X35814286Y7304072D02*
X35885714Y7589786D01*
X35885714Y7589786D02*
X36028572Y7732643D01*
X36028572Y7732643D02*
X36171429Y7804072D01*
X38242858Y7732643D02*
X38100001Y7804072D01*
X38100001Y7804072D02*
X37885715Y7804072D01*
X37885715Y7804072D02*
X37671429Y7732643D01*
X37671429Y7732643D02*
X37528572Y7589786D01*
X37528572Y7589786D02*
X37457143Y7446929D01*
X37457143Y7446929D02*
X37385715Y7161215D01*
X37385715Y7161215D02*
X37385715Y6946929D01*
X37385715Y6946929D02*
X37457143Y6661215D01*
X37457143Y6661215D02*
X37528572Y6518358D01*
X37528572Y6518358D02*
X37671429Y6375500D01*
X37671429Y6375500D02*
X37885715Y6304072D01*
X37885715Y6304072D02*
X38028572Y6304072D01*
X38028572Y6304072D02*
X38242858Y6375500D01*
X38242858Y6375500D02*
X38314286Y6446929D01*
X38314286Y6446929D02*
X38314286Y6946929D01*
X38314286Y6946929D02*
X38028572Y6946929D01*
X39742858Y7732643D02*
X39600001Y7804072D01*
X39600001Y7804072D02*
X39385715Y7804072D01*
X39385715Y7804072D02*
X39171429Y7732643D01*
X39171429Y7732643D02*
X39028572Y7589786D01*
X39028572Y7589786D02*
X38957143Y7446929D01*
X38957143Y7446929D02*
X38885715Y7161215D01*
X38885715Y7161215D02*
X38885715Y6946929D01*
X38885715Y6946929D02*
X38957143Y6661215D01*
X38957143Y6661215D02*
X39028572Y6518358D01*
X39028572Y6518358D02*
X39171429Y6375500D01*
X39171429Y6375500D02*
X39385715Y6304072D01*
X39385715Y6304072D02*
X39528572Y6304072D01*
X39528572Y6304072D02*
X39742858Y6375500D01*
X39742858Y6375500D02*
X39814286Y6446929D01*
X39814286Y6446929D02*
X39814286Y6946929D01*
X39814286Y6946929D02*
X39528572Y6946929D01*
X40457143Y7089786D02*
X40957143Y7089786D01*
X41171429Y6304072D02*
X40457143Y6304072D01*
X40457143Y6304072D02*
X40457143Y7804072D01*
X40457143Y7804072D02*
X41171429Y7804072D01*
X42671429Y6304072D02*
X42171429Y7018358D01*
X41814286Y6304072D02*
X41814286Y7804072D01*
X41814286Y7804072D02*
X42385715Y7804072D01*
X42385715Y7804072D02*
X42528572Y7732643D01*
X42528572Y7732643D02*
X42600001Y7661215D01*
X42600001Y7661215D02*
X42671429Y7518358D01*
X42671429Y7518358D02*
X42671429Y7304072D01*
X42671429Y7304072D02*
X42600001Y7161215D01*
X42600001Y7161215D02*
X42528572Y7089786D01*
X42528572Y7089786D02*
X42385715Y7018358D01*
X42385715Y7018358D02*
X41814286Y7018358D01*
X43600001Y7804072D02*
X43742858Y7804072D01*
X43742858Y7804072D02*
X43885715Y7732643D01*
X43885715Y7732643D02*
X43957144Y7661215D01*
X43957144Y7661215D02*
X44028572Y7518358D01*
X44028572Y7518358D02*
X44100001Y7232643D01*
X44100001Y7232643D02*
X44100001Y6875500D01*
X44100001Y6875500D02*
X44028572Y6589786D01*
X44028572Y6589786D02*
X43957144Y6446929D01*
X43957144Y6446929D02*
X43885715Y6375500D01*
X43885715Y6375500D02*
X43742858Y6304072D01*
X43742858Y6304072D02*
X43600001Y6304072D01*
X43600001Y6304072D02*
X43457144Y6375500D01*
X43457144Y6375500D02*
X43385715Y6446929D01*
X43385715Y6446929D02*
X43314286Y6589786D01*
X43314286Y6589786D02*
X43242858Y6875500D01*
X43242858Y6875500D02*
X43242858Y7232643D01*
X43242858Y7232643D02*
X43314286Y7518358D01*
X43314286Y7518358D02*
X43385715Y7661215D01*
X43385715Y7661215D02*
X43457144Y7732643D01*
X43457144Y7732643D02*
X43600001Y7804072D01*
X45528572Y6304072D02*
X44671429Y6304072D01*
X45100000Y6304072D02*
X45100000Y7804072D01*
X45100000Y7804072D02*
X44957143Y7589786D01*
X44957143Y7589786D02*
X44814286Y7446929D01*
X44814286Y7446929D02*
X44671429Y7375500D01*
X46100000Y6732643D02*
X46814286Y6732643D01*
X45957143Y6304072D02*
X46457143Y7804072D01*
X46457143Y7804072D02*
X46957143Y6304072D01*
X1873572Y11471215D02*
X1945000Y11542643D01*
X1945000Y11542643D02*
X2087858Y11614072D01*
X2087858Y11614072D02*
X2445000Y11614072D01*
X2445000Y11614072D02*
X2587858Y11542643D01*
X2587858Y11542643D02*
X2659286Y11471215D01*
X2659286Y11471215D02*
X2730715Y11328358D01*
X2730715Y11328358D02*
X2730715Y11185500D01*
X2730715Y11185500D02*
X2659286Y10971215D01*
X2659286Y10971215D02*
X1802143Y10114072D01*
X1802143Y10114072D02*
X2730715Y10114072D01*
X3659286Y11614072D02*
X3802143Y11614072D01*
X3802143Y11614072D02*
X3945000Y11542643D01*
X3945000Y11542643D02*
X4016429Y11471215D01*
X4016429Y11471215D02*
X4087857Y11328358D01*
X4087857Y11328358D02*
X4159286Y11042643D01*
X4159286Y11042643D02*
X4159286Y10685500D01*
X4159286Y10685500D02*
X4087857Y10399786D01*
X4087857Y10399786D02*
X4016429Y10256929D01*
X4016429Y10256929D02*
X3945000Y10185500D01*
X3945000Y10185500D02*
X3802143Y10114072D01*
X3802143Y10114072D02*
X3659286Y10114072D01*
X3659286Y10114072D02*
X3516429Y10185500D01*
X3516429Y10185500D02*
X3445000Y10256929D01*
X3445000Y10256929D02*
X3373571Y10399786D01*
X3373571Y10399786D02*
X3302143Y10685500D01*
X3302143Y10685500D02*
X3302143Y11042643D01*
X3302143Y11042643D02*
X3373571Y11328358D01*
X3373571Y11328358D02*
X3445000Y11471215D01*
X3445000Y11471215D02*
X3516429Y11542643D01*
X3516429Y11542643D02*
X3659286Y11614072D01*
X5587857Y10114072D02*
X4730714Y10114072D01*
X5159285Y10114072D02*
X5159285Y11614072D01*
X5159285Y11614072D02*
X5016428Y11399786D01*
X5016428Y11399786D02*
X4873571Y11256929D01*
X4873571Y11256929D02*
X4730714Y11185500D01*
X6444999Y10971215D02*
X6302142Y11042643D01*
X6302142Y11042643D02*
X6230713Y11114072D01*
X6230713Y11114072D02*
X6159285Y11256929D01*
X6159285Y11256929D02*
X6159285Y11328358D01*
X6159285Y11328358D02*
X6230713Y11471215D01*
X6230713Y11471215D02*
X6302142Y11542643D01*
X6302142Y11542643D02*
X6444999Y11614072D01*
X6444999Y11614072D02*
X6730713Y11614072D01*
X6730713Y11614072D02*
X6873571Y11542643D01*
X6873571Y11542643D02*
X6944999Y11471215D01*
X6944999Y11471215D02*
X7016428Y11328358D01*
X7016428Y11328358D02*
X7016428Y11256929D01*
X7016428Y11256929D02*
X6944999Y11114072D01*
X6944999Y11114072D02*
X6873571Y11042643D01*
X6873571Y11042643D02*
X6730713Y10971215D01*
X6730713Y10971215D02*
X6444999Y10971215D01*
X6444999Y10971215D02*
X6302142Y10899786D01*
X6302142Y10899786D02*
X6230713Y10828358D01*
X6230713Y10828358D02*
X6159285Y10685500D01*
X6159285Y10685500D02*
X6159285Y10399786D01*
X6159285Y10399786D02*
X6230713Y10256929D01*
X6230713Y10256929D02*
X6302142Y10185500D01*
X6302142Y10185500D02*
X6444999Y10114072D01*
X6444999Y10114072D02*
X6730713Y10114072D01*
X6730713Y10114072D02*
X6873571Y10185500D01*
X6873571Y10185500D02*
X6944999Y10256929D01*
X6944999Y10256929D02*
X7016428Y10399786D01*
X7016428Y10399786D02*
X7016428Y10685500D01*
X7016428Y10685500D02*
X6944999Y10828358D01*
X6944999Y10828358D02*
X6873571Y10899786D01*
X6873571Y10899786D02*
X6730713Y10971215D01*
X1695000Y13519072D02*
X1695000Y12447643D01*
X1695000Y12447643D02*
X1623571Y12233358D01*
X1623571Y12233358D02*
X1480714Y12090500D01*
X1480714Y12090500D02*
X1266428Y12019072D01*
X1266428Y12019072D02*
X1123571Y12019072D01*
X2337857Y12447643D02*
X3052143Y12447643D01*
X2195000Y12019072D02*
X2695000Y13519072D01*
X2695000Y13519072D02*
X3195000Y12019072D01*
X4552142Y12161929D02*
X4480714Y12090500D01*
X4480714Y12090500D02*
X4266428Y12019072D01*
X4266428Y12019072D02*
X4123571Y12019072D01*
X4123571Y12019072D02*
X3909285Y12090500D01*
X3909285Y12090500D02*
X3766428Y12233358D01*
X3766428Y12233358D02*
X3694999Y12376215D01*
X3694999Y12376215D02*
X3623571Y12661929D01*
X3623571Y12661929D02*
X3623571Y12876215D01*
X3623571Y12876215D02*
X3694999Y13161929D01*
X3694999Y13161929D02*
X3766428Y13304786D01*
X3766428Y13304786D02*
X3909285Y13447643D01*
X3909285Y13447643D02*
X4123571Y13519072D01*
X4123571Y13519072D02*
X4266428Y13519072D01*
X4266428Y13519072D02*
X4480714Y13447643D01*
X4480714Y13447643D02*
X4552142Y13376215D01*
X5194999Y12019072D02*
X5194999Y13519072D01*
X5194999Y12804786D02*
X6052142Y12804786D01*
X6052142Y12019072D02*
X6052142Y13519072D01*
X7052143Y13519072D02*
X7337857Y13519072D01*
X7337857Y13519072D02*
X7480714Y13447643D01*
X7480714Y13447643D02*
X7623571Y13304786D01*
X7623571Y13304786D02*
X7695000Y13019072D01*
X7695000Y13019072D02*
X7695000Y12519072D01*
X7695000Y12519072D02*
X7623571Y12233358D01*
X7623571Y12233358D02*
X7480714Y12090500D01*
X7480714Y12090500D02*
X7337857Y12019072D01*
X7337857Y12019072D02*
X7052143Y12019072D01*
X7052143Y12019072D02*
X6909286Y12090500D01*
X6909286Y12090500D02*
X6766428Y12233358D01*
X6766428Y12233358D02*
X6695000Y12519072D01*
X6695000Y12519072D02*
X6695000Y13019072D01*
X6695000Y13019072D02*
X6766428Y13304786D01*
X6766428Y13304786D02*
X6909286Y13447643D01*
X6909286Y13447643D02*
X7052143Y13519072D01*
X53790928Y7326429D02*
X53790928Y7612143D01*
X53790928Y7612143D02*
X53862357Y7755000D01*
X53862357Y7755000D02*
X54005214Y7897857D01*
X54005214Y7897857D02*
X54290928Y7969286D01*
X54290928Y7969286D02*
X54790928Y7969286D01*
X54790928Y7969286D02*
X55076642Y7897857D01*
X55076642Y7897857D02*
X55219500Y7755000D01*
X55219500Y7755000D02*
X55290928Y7612143D01*
X55290928Y7612143D02*
X55290928Y7326429D01*
X55290928Y7326429D02*
X55219500Y7183571D01*
X55219500Y7183571D02*
X55076642Y7040714D01*
X55076642Y7040714D02*
X54790928Y6969286D01*
X54790928Y6969286D02*
X54290928Y6969286D01*
X54290928Y6969286D02*
X54005214Y7040714D01*
X54005214Y7040714D02*
X53862357Y7183571D01*
X53862357Y7183571D02*
X53790928Y7326429D01*
X55290928Y8612143D02*
X53790928Y8612143D01*
X53790928Y8612143D02*
X55290928Y9469286D01*
X55290928Y9469286D02*
X53790928Y9469286D01*
X73869048Y26750310D02*
X74026191Y26697929D01*
X74026191Y26697929D02*
X74078572Y26645548D01*
X74078572Y26645548D02*
X74130953Y26540786D01*
X74130953Y26540786D02*
X74130953Y26383643D01*
X74130953Y26383643D02*
X74078572Y26278881D01*
X74078572Y26278881D02*
X74026191Y26226500D01*
X74026191Y26226500D02*
X73921429Y26174120D01*
X73921429Y26174120D02*
X73502381Y26174120D01*
X73502381Y26174120D02*
X73502381Y27274120D01*
X73502381Y27274120D02*
X73869048Y27274120D01*
X73869048Y27274120D02*
X73973810Y27221739D01*
X73973810Y27221739D02*
X74026191Y27169358D01*
X74026191Y27169358D02*
X74078572Y27064596D01*
X74078572Y27064596D02*
X74078572Y26959834D01*
X74078572Y26959834D02*
X74026191Y26855072D01*
X74026191Y26855072D02*
X73973810Y26802691D01*
X73973810Y26802691D02*
X73869048Y26750310D01*
X73869048Y26750310D02*
X73502381Y26750310D01*
X74550000Y26488405D02*
X75073810Y26488405D01*
X74445238Y26174120D02*
X74811905Y27274120D01*
X74811905Y27274120D02*
X75178572Y26174120D01*
X75388095Y27274120D02*
X76016667Y27274120D01*
X75702381Y26174120D02*
X75702381Y27274120D01*
X76383333Y26750310D02*
X76750000Y26750310D01*
X76907143Y26174120D02*
X76383333Y26174120D01*
X76383333Y26174120D02*
X76383333Y27274120D01*
X76383333Y27274120D02*
X76907143Y27274120D01*
X78007143Y26174120D02*
X77640476Y26697929D01*
X77378571Y26174120D02*
X77378571Y27274120D01*
X77378571Y27274120D02*
X77797619Y27274120D01*
X77797619Y27274120D02*
X77902381Y27221739D01*
X77902381Y27221739D02*
X77954762Y27169358D01*
X77954762Y27169358D02*
X78007143Y27064596D01*
X78007143Y27064596D02*
X78007143Y26907453D01*
X78007143Y26907453D02*
X77954762Y26802691D01*
X77954762Y26802691D02*
X77902381Y26750310D01*
X77902381Y26750310D02*
X77797619Y26697929D01*
X77797619Y26697929D02*
X77378571Y26697929D01*
X78688095Y26697929D02*
X78688095Y26174120D01*
X78321428Y27274120D02*
X78688095Y26697929D01*
X78688095Y26697929D02*
X79054762Y27274120D01*
D11*
X79165930Y92891429D02*
X79165930Y92286667D01*
X78803073Y93012381D02*
X80073073Y92589048D01*
X80073073Y92589048D02*
X78803073Y92165714D01*
X80073073Y91923810D02*
X80073073Y91198096D01*
X78803073Y91560953D02*
X80073073Y91560953D01*
X78803073Y90774763D02*
X80073073Y90774763D01*
X80073073Y90774763D02*
X79165930Y90351429D01*
X79165930Y90351429D02*
X80073073Y89928096D01*
X80073073Y89928096D02*
X78803073Y89928096D01*
X79468311Y89323334D02*
X79468311Y88900000D01*
X78803073Y88718572D02*
X78803073Y89323334D01*
X78803073Y89323334D02*
X80073073Y89323334D01*
X80073073Y89323334D02*
X80073073Y88718572D01*
X78803073Y87569524D02*
X78803073Y88174286D01*
X78803073Y88174286D02*
X80073073Y88174286D01*
X78803073Y86178572D02*
X80073073Y86178572D01*
X78863550Y85634286D02*
X78803073Y85452857D01*
X78803073Y85452857D02*
X78803073Y85150476D01*
X78803073Y85150476D02*
X78863550Y85029524D01*
X78863550Y85029524D02*
X78924026Y84969048D01*
X78924026Y84969048D02*
X79044978Y84908571D01*
X79044978Y84908571D02*
X79165930Y84908571D01*
X79165930Y84908571D02*
X79286883Y84969048D01*
X79286883Y84969048D02*
X79347359Y85029524D01*
X79347359Y85029524D02*
X79407835Y85150476D01*
X79407835Y85150476D02*
X79468311Y85392381D01*
X79468311Y85392381D02*
X79528788Y85513333D01*
X79528788Y85513333D02*
X79589264Y85573810D01*
X79589264Y85573810D02*
X79710216Y85634286D01*
X79710216Y85634286D02*
X79831169Y85634286D01*
X79831169Y85634286D02*
X79952121Y85573810D01*
X79952121Y85573810D02*
X80012597Y85513333D01*
X80012597Y85513333D02*
X80073073Y85392381D01*
X80073073Y85392381D02*
X80073073Y85090000D01*
X80073073Y85090000D02*
X80012597Y84908571D01*
X78803073Y84364286D02*
X80073073Y84364286D01*
X80073073Y84364286D02*
X80073073Y83880476D01*
X80073073Y83880476D02*
X80012597Y83759524D01*
X80012597Y83759524D02*
X79952121Y83699047D01*
X79952121Y83699047D02*
X79831169Y83638571D01*
X79831169Y83638571D02*
X79649740Y83638571D01*
X79649740Y83638571D02*
X79528788Y83699047D01*
X79528788Y83699047D02*
X79468311Y83759524D01*
X79468311Y83759524D02*
X79407835Y83880476D01*
X79407835Y83880476D02*
X79407835Y84364286D01*
D12*
X35409285Y71688991D02*
X35552142Y71641372D01*
X35552142Y71641372D02*
X35599761Y71593753D01*
X35599761Y71593753D02*
X35647380Y71498515D01*
X35647380Y71498515D02*
X35647380Y71355658D01*
X35647380Y71355658D02*
X35599761Y71260420D01*
X35599761Y71260420D02*
X35552142Y71212800D01*
X35552142Y71212800D02*
X35456904Y71165181D01*
X35456904Y71165181D02*
X35075952Y71165181D01*
X35075952Y71165181D02*
X35075952Y72165181D01*
X35075952Y72165181D02*
X35409285Y72165181D01*
X35409285Y72165181D02*
X35504523Y72117562D01*
X35504523Y72117562D02*
X35552142Y72069943D01*
X35552142Y72069943D02*
X35599761Y71974705D01*
X35599761Y71974705D02*
X35599761Y71879467D01*
X35599761Y71879467D02*
X35552142Y71784229D01*
X35552142Y71784229D02*
X35504523Y71736610D01*
X35504523Y71736610D02*
X35409285Y71688991D01*
X35409285Y71688991D02*
X35075952Y71688991D01*
X35933095Y72165181D02*
X36504523Y72165181D01*
X36218809Y71165181D02*
X36218809Y72165181D01*
X37361666Y71165181D02*
X36790238Y71165181D01*
X37075952Y71165181D02*
X37075952Y72165181D01*
X37075952Y72165181D02*
X36980714Y72022324D01*
X36980714Y72022324D02*
X36885476Y71927086D01*
X36885476Y71927086D02*
X36790238Y71879467D01*
X59055476Y69041134D02*
X66674524Y69041134D01*
X62865000Y65231610D02*
X62865000Y72850658D01*
D13*
X73888709Y20081858D02*
X73888709Y19796144D01*
X73888709Y19939001D02*
X73388709Y19939001D01*
X73388709Y19939001D02*
X73460138Y19891382D01*
X73460138Y19891382D02*
X73507757Y19843763D01*
X73507757Y19843763D02*
X73531566Y19796144D01*
X77993857Y28981291D02*
X77708143Y28981291D01*
X77851000Y28981291D02*
X77851000Y29481291D01*
X77851000Y29481291D02*
X77803381Y29409862D01*
X77803381Y29409862D02*
X77755762Y29362243D01*
X77755762Y29362243D02*
X77708143Y29338434D01*
X77993857Y84861291D02*
X77708143Y84861291D01*
X77851000Y84861291D02*
X77851000Y85361291D01*
X77851000Y85361291D02*
X77803381Y85289862D01*
X77803381Y85289862D02*
X77755762Y85242243D01*
X77755762Y85242243D02*
X77708143Y85218434D01*
X73888709Y9921858D02*
X73888709Y9636144D01*
X73888709Y9779001D02*
X73388709Y9779001D01*
X73388709Y9779001D02*
X73460138Y9731382D01*
X73460138Y9731382D02*
X73507757Y9683763D01*
X73507757Y9683763D02*
X73531566Y9636144D01*
D12*
X35409285Y33588991D02*
X35552142Y33541372D01*
X35552142Y33541372D02*
X35599761Y33493753D01*
X35599761Y33493753D02*
X35647380Y33398515D01*
X35647380Y33398515D02*
X35647380Y33255658D01*
X35647380Y33255658D02*
X35599761Y33160420D01*
X35599761Y33160420D02*
X35552142Y33112800D01*
X35552142Y33112800D02*
X35456904Y33065181D01*
X35456904Y33065181D02*
X35075952Y33065181D01*
X35075952Y33065181D02*
X35075952Y34065181D01*
X35075952Y34065181D02*
X35409285Y34065181D01*
X35409285Y34065181D02*
X35504523Y34017562D01*
X35504523Y34017562D02*
X35552142Y33969943D01*
X35552142Y33969943D02*
X35599761Y33874705D01*
X35599761Y33874705D02*
X35599761Y33779467D01*
X35599761Y33779467D02*
X35552142Y33684229D01*
X35552142Y33684229D02*
X35504523Y33636610D01*
X35504523Y33636610D02*
X35409285Y33588991D01*
X35409285Y33588991D02*
X35075952Y33588991D01*
X35933095Y34065181D02*
X36504523Y34065181D01*
X36218809Y33065181D02*
X36218809Y34065181D01*
X36790238Y33969943D02*
X36837857Y34017562D01*
X36837857Y34017562D02*
X36933095Y34065181D01*
X36933095Y34065181D02*
X37171190Y34065181D01*
X37171190Y34065181D02*
X37266428Y34017562D01*
X37266428Y34017562D02*
X37314047Y33969943D01*
X37314047Y33969943D02*
X37361666Y33874705D01*
X37361666Y33874705D02*
X37361666Y33779467D01*
X37361666Y33779467D02*
X37314047Y33636610D01*
X37314047Y33636610D02*
X36742619Y33065181D01*
X36742619Y33065181D02*
X37361666Y33065181D01*
X59055476Y30941134D02*
X66674524Y30941134D01*
X62865000Y27131610D02*
X62865000Y34750658D01*
X12596905Y2085181D02*
X12596905Y3085181D01*
X12596905Y3085181D02*
X12835000Y3085181D01*
X12835000Y3085181D02*
X12977857Y3037562D01*
X12977857Y3037562D02*
X13073095Y2942324D01*
X13073095Y2942324D02*
X13120714Y2847086D01*
X13120714Y2847086D02*
X13168333Y2656610D01*
X13168333Y2656610D02*
X13168333Y2513753D01*
X13168333Y2513753D02*
X13120714Y2323277D01*
X13120714Y2323277D02*
X13073095Y2228039D01*
X13073095Y2228039D02*
X12977857Y2132800D01*
X12977857Y2132800D02*
X12835000Y2085181D01*
X12835000Y2085181D02*
X12596905Y2085181D01*
X13501667Y3085181D02*
X14120714Y3085181D01*
X14120714Y3085181D02*
X13787381Y2704229D01*
X13787381Y2704229D02*
X13930238Y2704229D01*
X13930238Y2704229D02*
X14025476Y2656610D01*
X14025476Y2656610D02*
X14073095Y2608991D01*
X14073095Y2608991D02*
X14120714Y2513753D01*
X14120714Y2513753D02*
X14120714Y2275658D01*
X14120714Y2275658D02*
X14073095Y2180420D01*
X14073095Y2180420D02*
X14025476Y2132800D01*
X14025476Y2132800D02*
X13930238Y2085181D01*
X13930238Y2085181D02*
X13644524Y2085181D01*
X13644524Y2085181D02*
X13549286Y2132800D01*
X13549286Y2132800D02*
X13501667Y2180420D01*
X74908628Y73183810D02*
X75384819Y73183810D01*
X74384819Y72850477D02*
X74908628Y73183810D01*
X74908628Y73183810D02*
X74384819Y73517143D01*
X75384819Y74374286D02*
X75384819Y73802858D01*
X75384819Y74088572D02*
X74384819Y74088572D01*
X74384819Y74088572D02*
X74527676Y73993334D01*
X74527676Y73993334D02*
X74622914Y73898096D01*
X74622914Y73898096D02*
X74670533Y73802858D01*
X61531667Y4418800D02*
X61674524Y4371181D01*
X61674524Y4371181D02*
X61912619Y4371181D01*
X61912619Y4371181D02*
X62007857Y4418800D01*
X62007857Y4418800D02*
X62055476Y4466420D01*
X62055476Y4466420D02*
X62103095Y4561658D01*
X62103095Y4561658D02*
X62103095Y4656896D01*
X62103095Y4656896D02*
X62055476Y4752134D01*
X62055476Y4752134D02*
X62007857Y4799753D01*
X62007857Y4799753D02*
X61912619Y4847372D01*
X61912619Y4847372D02*
X61722143Y4894991D01*
X61722143Y4894991D02*
X61626905Y4942610D01*
X61626905Y4942610D02*
X61579286Y4990229D01*
X61579286Y4990229D02*
X61531667Y5085467D01*
X61531667Y5085467D02*
X61531667Y5180705D01*
X61531667Y5180705D02*
X61579286Y5275943D01*
X61579286Y5275943D02*
X61626905Y5323562D01*
X61626905Y5323562D02*
X61722143Y5371181D01*
X61722143Y5371181D02*
X61960238Y5371181D01*
X61960238Y5371181D02*
X62103095Y5323562D01*
X62436429Y5371181D02*
X62674524Y4371181D01*
X62674524Y4371181D02*
X62865000Y5085467D01*
X62865000Y5085467D02*
X63055476Y4371181D01*
X63055476Y4371181D02*
X63293572Y5371181D01*
X64198333Y4371181D02*
X63626905Y4371181D01*
X63912619Y4371181D02*
X63912619Y5371181D01*
X63912619Y5371181D02*
X63817381Y5228324D01*
X63817381Y5228324D02*
X63722143Y5133086D01*
X63722143Y5133086D02*
X63626905Y5085467D01*
%TO.C,J26*%
X53975000Y91440000D02*
X53975000Y96520000D01*
X56515000Y91440000D02*
X53975000Y91440000D01*
X56515000Y96520000D02*
X56515000Y91440000D01*
X53975000Y96520000D02*
X56515000Y96520000D01*
%TO.C,BT1*%
X71695000Y52070000D02*
X71695000Y90170000D01*
X695000Y52070000D02*
X695000Y90170000D01*
X71695000Y52070000D02*
X695000Y52070000D01*
X71695000Y90170000D02*
X695000Y90170000D01*
%TO.C,J24*%
X51435000Y96520000D02*
X51435000Y91440000D01*
X48895000Y96520000D02*
X51435000Y96520000D01*
X48895000Y91440000D02*
X48895000Y96520000D01*
X51435000Y91440000D02*
X48895000Y91440000D01*
%TO.C,J4*%
X72390000Y45085000D02*
X72390000Y47625000D01*
X77470000Y45085000D02*
X72390000Y45085000D01*
X72390000Y47625000D02*
X77470000Y47625000D01*
X77470000Y47625000D02*
X77470000Y45085000D01*
%TO.C,J22*%
X46355000Y91440000D02*
X46355000Y96520000D01*
X46355000Y96520000D02*
X48895000Y96520000D01*
X48895000Y96520000D02*
X48895000Y91440000D01*
X48895000Y91440000D02*
X46355000Y91440000D01*
%TO.C,J20*%
X72390000Y59055000D02*
X77470000Y59055000D01*
X77470000Y56515000D02*
X72390000Y56515000D01*
X72390000Y56515000D02*
X72390000Y59055000D01*
X77470000Y59055000D02*
X77470000Y56515000D01*
%TO.C,J17*%
X72390000Y66675000D02*
X77470000Y66675000D01*
X72390000Y64135000D02*
X72390000Y66675000D01*
X77470000Y66675000D02*
X77470000Y64135000D01*
X77470000Y64135000D02*
X72390000Y64135000D01*
%TO.C,J19*%
X77470000Y61595000D02*
X77470000Y59055000D01*
X77470000Y59055000D02*
X72390000Y59055000D01*
X72390000Y61595000D02*
X77470000Y61595000D01*
X72390000Y59055000D02*
X72390000Y61595000D01*
%TO.C,J18*%
X72390000Y61595000D02*
X72390000Y64135000D01*
X77470000Y64135000D02*
X77470000Y61595000D01*
X72390000Y64135000D02*
X77470000Y64135000D01*
X77470000Y61595000D02*
X72390000Y61595000D01*
%TO.C,J1*%
X72390000Y45085000D02*
X77470000Y45085000D01*
X77470000Y45085000D02*
X77470000Y42545000D01*
X77470000Y42545000D02*
X72390000Y42545000D01*
X72390000Y42545000D02*
X72390000Y45085000D01*
%TO.C,J2*%
X77470000Y52705000D02*
X77470000Y50165000D01*
X77470000Y50165000D02*
X72390000Y50165000D01*
X72390000Y52705000D02*
X77470000Y52705000D01*
X72390000Y50165000D02*
X72390000Y52705000D01*
%TO.C,J5*%
X77470000Y52705000D02*
X72390000Y52705000D01*
X72390000Y55245000D02*
X77470000Y55245000D01*
X72390000Y52705000D02*
X72390000Y55245000D01*
X77470000Y55245000D02*
X77470000Y52705000D01*
%TO.C,J6*%
X80010000Y25400000D02*
X80010000Y20320000D01*
X72390000Y20320000D02*
X72390000Y25400000D01*
X72390000Y25400000D02*
X80010000Y25400000D01*
X80010000Y20320000D02*
X72390000Y20320000D01*
%TO.C,J8*%
X77470000Y80010000D02*
X72390000Y80010000D01*
X77470000Y82550000D02*
X77470000Y80010000D01*
X72390000Y82550000D02*
X77470000Y82550000D01*
X72390000Y80010000D02*
X72390000Y82550000D01*
%TO.C,J9*%
X41275000Y96520000D02*
X41275000Y91440000D01*
X38735000Y91440000D02*
X38735000Y96520000D01*
X41275000Y91440000D02*
X38735000Y91440000D01*
X38735000Y96520000D02*
X41275000Y96520000D01*
%TO.C,J10*%
X77470000Y27940000D02*
X72390000Y27940000D01*
X77470000Y35560000D02*
X77470000Y27940000D01*
X72390000Y27940000D02*
X72390000Y35560000D01*
X72390000Y35560000D02*
X77470000Y35560000D01*
%TO.C,J11*%
X20955000Y10160000D02*
X20955000Y5080000D01*
X18415000Y10160000D02*
X20955000Y10160000D01*
X18415000Y5080000D02*
X18415000Y10160000D01*
X20955000Y5080000D02*
X18415000Y5080000D01*
%TO.C,J21*%
X77470000Y38735000D02*
X77470000Y36195000D01*
X72390000Y36195000D02*
X72390000Y38735000D01*
X72390000Y38735000D02*
X77470000Y38735000D01*
X77470000Y36195000D02*
X72390000Y36195000D01*
%TO.C,J23*%
X43815000Y96520000D02*
X46355000Y96520000D01*
X46355000Y96520000D02*
X46355000Y91440000D01*
X46355000Y91440000D02*
X43815000Y91440000D01*
X43815000Y91440000D02*
X43815000Y96520000D01*
%TO.C,J25*%
X53975000Y91440000D02*
X51435000Y91440000D01*
X51435000Y96520000D02*
X53975000Y96520000D01*
X51435000Y91440000D02*
X51435000Y96520000D01*
X53975000Y96520000D02*
X53975000Y91440000D01*
%TO.C,J27*%
X64135000Y96520000D02*
X66675000Y96520000D01*
X64135000Y91440000D02*
X64135000Y96520000D01*
X66675000Y96520000D02*
X66675000Y91440000D01*
X66675000Y91440000D02*
X64135000Y91440000D01*
%TO.C,J28*%
X66675000Y96520000D02*
X69215000Y96520000D01*
X66675000Y91440000D02*
X66675000Y96520000D01*
X69215000Y91440000D02*
X66675000Y91440000D01*
X69215000Y96520000D02*
X69215000Y91440000D01*
%TO.C,J29*%
X61595000Y91440000D02*
X61595000Y96520000D01*
X64135000Y91440000D02*
X61595000Y91440000D01*
X64135000Y96520000D02*
X64135000Y91440000D01*
X61595000Y96520000D02*
X64135000Y96520000D01*
%TO.C,J30*%
X77470000Y38735000D02*
X72390000Y38735000D01*
X72390000Y38735000D02*
X72390000Y41275000D01*
X72390000Y41275000D02*
X77470000Y41275000D01*
X77470000Y41275000D02*
X77470000Y38735000D01*
%TO.C,J31*%
X77470000Y83820000D02*
X72390000Y83820000D01*
X77470000Y91440000D02*
X77470000Y83820000D01*
X72390000Y83820000D02*
X72390000Y91440000D01*
X72390000Y91440000D02*
X77470000Y91440000D01*
%TO.C,J32*%
X74930000Y15240000D02*
X74930000Y20320000D01*
X77470000Y15240000D02*
X74930000Y15240000D01*
X77470000Y20320000D02*
X77470000Y15240000D01*
X74930000Y20320000D02*
X77470000Y20320000D01*
%TO.C,J33*%
X80010000Y15240000D02*
X80010000Y10160000D01*
X72390000Y15240000D02*
X80010000Y15240000D01*
X72390000Y10160000D02*
X72390000Y15240000D01*
X80010000Y10160000D02*
X72390000Y10160000D01*
%TO.C,BT2*%
X71695000Y13970000D02*
X695000Y13970000D01*
X695000Y13970000D02*
X695000Y52070000D01*
X71695000Y13970000D02*
X71695000Y52070000D01*
X71695000Y52070000D02*
X695000Y52070000D01*
%TO.C,D3*%
X11085000Y1180000D02*
X11085000Y7180000D01*
X11085000Y7180000D02*
X15585000Y7180000D01*
X15585000Y1180000D02*
X11085000Y1180000D01*
X15585000Y7180000D02*
X15585000Y1180000D01*
%TO.C,J3*%
X72390000Y50165000D02*
X77470000Y50165000D01*
X72390000Y47625000D02*
X72390000Y50165000D01*
X77470000Y50165000D02*
X77470000Y47625000D01*
X77470000Y47625000D02*
X72390000Y47625000D01*
%TO.C,Y1*%
X74190860Y68249800D02*
X74660760Y68140580D01*
X76730860Y70258940D02*
X76629260Y69860160D01*
X74729340Y78661260D02*
X75229720Y78661260D01*
X76819760Y69110860D02*
X77050900Y69499480D01*
X75161140Y79179420D02*
X74650600Y79179420D01*
X74129900Y78460600D02*
X74729340Y78661260D01*
X73329800Y77660500D02*
X73629520Y78059280D01*
X73731120Y69159120D02*
X73329800Y69761100D01*
X76649580Y78430120D02*
X76299060Y78760320D01*
X77259180Y76850240D02*
X77210920Y77309980D01*
X75529440Y68760340D02*
X74930000Y68658740D01*
X75580240Y68209160D02*
X76029820Y68399660D01*
X76499720Y68760340D02*
X76819760Y69110860D01*
X72600820Y76860400D02*
X72600820Y70408800D01*
X73129140Y70360540D02*
X73129140Y76959460D01*
X75930760Y68961000D02*
X75529440Y68760340D01*
X75229720Y78661260D02*
X75730100Y78460600D01*
X75730100Y78460600D02*
X76329540Y77960220D01*
X73329800Y69761100D02*
X73129140Y70360540D01*
X73129140Y76959460D02*
X73329800Y77660500D01*
X73309480Y68800980D02*
X73639680Y68549520D01*
X72809100Y69499480D02*
X73030080Y69121020D01*
X76730860Y76860400D02*
X76730860Y70258940D01*
X76329540Y69359780D02*
X75829160Y68859400D01*
X73639680Y68549520D02*
X74190860Y68249800D01*
X72989440Y78150720D02*
X72781160Y77729080D01*
X77050900Y69499480D02*
X77190600Y69928740D01*
X73360280Y78610460D02*
X72989440Y78150720D01*
X75760580Y79049880D02*
X75161140Y79179420D01*
X72600820Y70408800D02*
X72638920Y69989700D01*
X76029820Y68399660D02*
X76499720Y68760340D01*
X74650600Y79179420D02*
X73949560Y79009240D01*
X76329540Y77960220D02*
X76629260Y77459840D01*
X76629260Y77459840D02*
X76730860Y76959460D01*
X75120500Y68120260D02*
X75580240Y68209160D01*
X73949560Y79009240D02*
X73360280Y78610460D01*
X73030080Y69121020D02*
X73309480Y68800980D01*
X72621140Y77279500D02*
X72590660Y76840080D01*
X74660760Y68140580D02*
X75120500Y68120260D01*
X77190600Y69928740D02*
X77259180Y70370700D01*
X72638920Y69989700D02*
X72809100Y69499480D01*
X74930000Y68658740D02*
X74429620Y68760340D01*
X76629260Y69860160D02*
X76329540Y69359780D01*
X77099160Y77708760D02*
X76880720Y78140560D01*
X76880720Y78140560D02*
X76649580Y78430120D01*
X72781160Y77729080D02*
X72621140Y77279500D01*
X77259180Y76860400D02*
X77259180Y70408800D01*
X76299060Y78760320D02*
X75760580Y79049880D01*
X74429620Y68760340D02*
X73731120Y69159120D01*
X77210920Y77309980D02*
X77099160Y77708760D01*
X73629520Y78059280D02*
X74129900Y78460600D01*
%TO.C,J12*%
X11430000Y91440000D02*
X11430000Y96520000D01*
X13970000Y91440000D02*
X11430000Y91440000D01*
X13970000Y96520000D02*
X13970000Y91440000D01*
X11430000Y96520000D02*
X13970000Y96520000D01*
%TO.C,J16*%
X24130000Y96520000D02*
X24130000Y91440000D01*
X21590000Y91440000D02*
X21590000Y96520000D01*
X21590000Y96520000D02*
X24130000Y96520000D01*
X24130000Y91440000D02*
X21590000Y91440000D01*
%TO.C,J15*%
X19050000Y96520000D02*
X21590000Y96520000D01*
X21590000Y91440000D02*
X19050000Y91440000D01*
X21590000Y96520000D02*
X21590000Y91440000D01*
X19050000Y91440000D02*
X19050000Y96520000D01*
%TO.C,J14*%
X19050000Y96520000D02*
X19050000Y91440000D01*
X16510000Y96520000D02*
X19050000Y96520000D01*
X16510000Y91440000D02*
X16510000Y96520000D01*
X19050000Y91440000D02*
X16510000Y91440000D01*
%TO.C,J13*%
X13970000Y96520000D02*
X16510000Y96520000D01*
X16510000Y91440000D02*
X13970000Y91440000D01*
X13970000Y91440000D02*
X13970000Y96520000D01*
X16510000Y96520000D02*
X16510000Y91440000D01*
%TO.C,SW1*%
X69470000Y1286000D02*
X56260000Y1286000D01*
X56260000Y1286000D02*
X56260000Y11286000D01*
X69470000Y11286000D02*
X69470000Y1286000D01*
X56260000Y11286000D02*
X69470000Y11286000D01*
%TD*%
D14*
%TO.C,J26*%
X55245000Y92710000D03*
X55245000Y95250000D03*
%TD*%
%TO.C,J24*%
X50165000Y92710000D03*
X50165000Y95250000D03*
%TD*%
%TO.C,J4*%
X76200000Y46355000D03*
X73660000Y46355000D03*
%TD*%
%TO.C,J22*%
X47625000Y92710000D03*
X47625000Y95250000D03*
%TD*%
%TO.C,J20*%
X73660000Y57785000D03*
X76200000Y57785000D03*
%TD*%
%TO.C,J17*%
X73660000Y65405000D03*
X76200000Y65405000D03*
%TD*%
%TO.C,J19*%
X73660000Y60325000D03*
X76200000Y60325000D03*
%TD*%
%TO.C,J18*%
X73660000Y62865000D03*
X76200000Y62865000D03*
%TD*%
%TO.C,J1*%
X76200000Y43815000D03*
X73660000Y43815000D03*
%TD*%
%TO.C,J2*%
X76200000Y51435000D03*
X73660000Y51435000D03*
%TD*%
%TO.C,J5*%
X76200000Y53975000D03*
X73660000Y53975000D03*
%TD*%
%TO.C,J6*%
X73660000Y21590000D03*
X73660000Y24130000D03*
X76200000Y21590000D03*
X76200000Y24130000D03*
X78740000Y21590000D03*
X78740000Y24130000D03*
%TD*%
%TO.C,J8*%
X76200000Y81280000D03*
X73660000Y81280000D03*
%TD*%
%TO.C,J9*%
X40005000Y92710000D03*
X40005000Y95250000D03*
%TD*%
%TO.C,J10*%
X76200000Y29210000D03*
X73660000Y29210000D03*
X76200000Y31750000D03*
X73660000Y31750000D03*
X76200000Y34290000D03*
X73660000Y34290000D03*
%TD*%
%TO.C,J11*%
X19685000Y8890000D03*
X19685000Y6350000D03*
%TD*%
%TO.C,J21*%
X73660000Y37465000D03*
X76200000Y37465000D03*
%TD*%
%TO.C,J23*%
X45085000Y92710000D03*
X45085000Y95250000D03*
%TD*%
%TO.C,J25*%
X52705000Y92710000D03*
X52705000Y95250000D03*
%TD*%
%TO.C,J27*%
X65405000Y92710000D03*
X65405000Y95250000D03*
%TD*%
%TO.C,J28*%
X67945000Y92710000D03*
X67945000Y95250000D03*
%TD*%
%TO.C,J29*%
X62865000Y92710000D03*
X62865000Y95250000D03*
%TD*%
%TO.C,J30*%
X73660000Y40005000D03*
X76200000Y40005000D03*
%TD*%
%TO.C,J31*%
X76200000Y85090000D03*
X73660000Y85090000D03*
X76200000Y87630000D03*
X73660000Y87630000D03*
X76200000Y90170000D03*
X73660000Y90170000D03*
%TD*%
%TO.C,J32*%
X76200000Y16510000D03*
X76200000Y19050000D03*
%TD*%
%TO.C,J33*%
X73660000Y11430000D03*
X73660000Y13970000D03*
X76200000Y11430000D03*
X76200000Y13970000D03*
X78740000Y11430000D03*
X78740000Y13970000D03*
%TD*%
%TO.C,J3*%
X76200000Y48895000D03*
X73660000Y48895000D03*
%TD*%
D15*
%TO.C,Y1*%
X74930000Y76100940D03*
X74930000Y71219060D03*
%TD*%
D14*
%TO.C,J12*%
X12700000Y92710000D03*
X12700000Y95250000D03*
%TD*%
%TO.C,J16*%
X22860000Y92710000D03*
X22860000Y95250000D03*
%TD*%
%TO.C,J15*%
X20320000Y92710000D03*
X20320000Y95250000D03*
%TD*%
%TO.C,J14*%
X17780000Y92710000D03*
X17780000Y95250000D03*
%TD*%
%TO.C,J13*%
X15240000Y92710000D03*
X15240000Y95250000D03*
%TD*%
M02*
