%TF.GenerationSoftware,KiCad,Pcbnew,6.0.11+dfsg-1~bpo11+1*%
%TF.CreationDate,2023-07-05T12:35:42+00:00*%
%TF.ProjectId,DATALOGGER01,44415441-4c4f-4474-9745-5230312e6b69,rev?*%
%TF.SameCoordinates,Original*%
%TF.FileFunction,Copper,L1,Top*%
%TF.FilePolarity,Positive*%
%FSLAX46Y46*%
G04 Gerber Fmt 4.6, Leading zero omitted, Abs format (unit mm)*
G04 Created by KiCad (PCBNEW 6.0.11+dfsg-1~bpo11+1) date 2023-07-05 12:35:42*
%MOMM*%
%LPD*%
G01*
G04 APERTURE LIST*
%TA.AperFunction,ComponentPad*%
%ADD10R,1.524000X1.524000*%
%TD*%
%TA.AperFunction,WasherPad*%
%ADD11C,4.500000*%
%TD*%
%TA.AperFunction,ComponentPad*%
%ADD12C,2.500000*%
%TD*%
%TA.AperFunction,ComponentPad*%
%ADD13C,6.000000*%
%TD*%
%TA.AperFunction,ComponentPad*%
%ADD14R,1.800000X1.800000*%
%TD*%
%TA.AperFunction,ComponentPad*%
%ADD15C,1.800000*%
%TD*%
%TA.AperFunction,ComponentPad*%
%ADD16C,1.501140*%
%TD*%
%TA.AperFunction,ComponentPad*%
%ADD17C,3.000000*%
%TD*%
%TA.AperFunction,SMDPad,CuDef*%
%ADD18R,0.900000X1.600000*%
%TD*%
%TA.AperFunction,ComponentPad*%
%ADD19C,0.600000*%
%TD*%
%TA.AperFunction,ViaPad*%
%ADD20C,0.800000*%
%TD*%
%TA.AperFunction,Conductor*%
%ADD21C,0.300000*%
%TD*%
%TA.AperFunction,Conductor*%
%ADD22C,0.250000*%
%TD*%
%TA.AperFunction,Conductor*%
%ADD23C,0.400000*%
%TD*%
%TA.AperFunction,Conductor*%
%ADD24C,2.000000*%
%TD*%
%TA.AperFunction,Conductor*%
%ADD25C,0.600000*%
%TD*%
G04 APERTURE END LIST*
D10*
%TO.P,J26,1*%
%TO.N,/PB0*%
X55245000Y92710000D03*
%TO.P,J26,2*%
X55245000Y95250000D03*
%TD*%
D11*
%TO.P,BT1,*%
%TO.N,*%
X53995000Y71120000D03*
X18395000Y71120000D03*
D12*
%TO.P,BT1,1*%
%TO.N,Net-(BT1-Pad1)*%
X69945000Y71120000D03*
%TO.P,BT1,2*%
%TO.N,GND*%
X2445000Y71120000D03*
%TD*%
D10*
%TO.P,J24,1*%
%TO.N,VDD*%
X50165000Y92710000D03*
%TO.P,J24,2*%
X50165000Y95250000D03*
%TD*%
%TO.P,J4,1*%
%TO.N,/PC1*%
X76200000Y46355000D03*
%TO.P,J4,2*%
X73660000Y46355000D03*
%TD*%
%TO.P,J22,1*%
%TO.N,/PA0*%
X47625000Y92710000D03*
%TO.P,J22,2*%
X47625000Y95250000D03*
%TD*%
%TO.P,J20,1*%
%TO.N,/TX1*%
X73660000Y57785000D03*
%TO.P,J20,2*%
X76200000Y57785000D03*
%TD*%
%TO.P,J17,1*%
%TO.N,/RX0*%
X73660000Y65405000D03*
%TO.P,J17,2*%
X76200000Y65405000D03*
%TD*%
%TO.P,J19,1*%
%TO.N,/RX1*%
X73660000Y60325000D03*
%TO.P,J19,2*%
X76200000Y60325000D03*
%TD*%
%TO.P,J18,1*%
%TO.N,/TX0*%
X73660000Y62865000D03*
%TO.P,J18,2*%
X76200000Y62865000D03*
%TD*%
%TO.P,J1,1*%
%TO.N,GND*%
X76200000Y43815000D03*
%TO.P,J1,2*%
X73660000Y43815000D03*
%TD*%
%TO.P,J2,1*%
%TO.N,/PC0*%
X76200000Y51435000D03*
%TO.P,J2,2*%
X73660000Y51435000D03*
%TD*%
%TO.P,J5,1*%
%TO.N,GND*%
X76200000Y53975000D03*
%TO.P,J5,2*%
X73660000Y53975000D03*
%TD*%
%TO.P,J6,1*%
%TO.N,GND*%
X73660000Y21590000D03*
%TO.P,J6,2*%
X73660000Y24130000D03*
%TO.P,J6,3*%
%TO.N,Net-(F2-Pad1)*%
X76200000Y21590000D03*
%TO.P,J6,4*%
X76200000Y24130000D03*
%TO.P,J6,5*%
%TO.N,GND*%
X78740000Y21590000D03*
%TO.P,J6,6*%
X78740000Y24130000D03*
%TD*%
%TO.P,J8,1*%
%TO.N,/RST#*%
X76200000Y81280000D03*
%TO.P,J8,2*%
X73660000Y81280000D03*
%TD*%
%TO.P,J9,1*%
%TO.N,/AREF*%
X40005000Y92710000D03*
%TO.P,J9,2*%
%TO.N,Net-(C14-Pad1)*%
X40005000Y95250000D03*
%TD*%
%TO.P,J10,1*%
%TO.N,GND*%
X76200000Y29210000D03*
%TO.P,J10,2*%
X73660000Y29210000D03*
%TO.P,J10,3*%
%TO.N,Net-(J10-Pad3)*%
X76200000Y31750000D03*
%TO.P,J10,4*%
X73660000Y31750000D03*
%TO.P,J10,5*%
%TO.N,GND*%
X76200000Y34290000D03*
%TO.P,J10,6*%
X73660000Y34290000D03*
%TD*%
%TO.P,J11,1*%
%TO.N,Net-(J11-Pad1)*%
X19685000Y8890000D03*
%TO.P,J11,2*%
%TO.N,/SD_VDD*%
X19685000Y6350000D03*
%TD*%
%TO.P,J21,1*%
%TO.N,Net-(BT3-Pad1)*%
X73660000Y37465000D03*
%TO.P,J21,2*%
%TO.N,GND*%
X76200000Y37465000D03*
%TD*%
%TO.P,J23,1*%
%TO.N,/PA1*%
X45085000Y92710000D03*
%TO.P,J23,2*%
X45085000Y95250000D03*
%TD*%
%TO.P,J25,1*%
%TO.N,GND*%
X52705000Y92710000D03*
%TO.P,J25,2*%
X52705000Y95250000D03*
%TD*%
%TO.P,J27,1*%
%TO.N,/PB6*%
X65405000Y92710000D03*
%TO.P,J27,2*%
X65405000Y95250000D03*
%TD*%
%TO.P,J28,1*%
%TO.N,/PB7*%
X67945000Y92710000D03*
%TO.P,J28,2*%
X67945000Y95250000D03*
%TD*%
%TO.P,J29,1*%
%TO.N,/PB5*%
X62865000Y92710000D03*
%TO.P,J29,2*%
X62865000Y95250000D03*
%TD*%
%TO.P,J30,1*%
%TO.N,/INTA*%
X73660000Y40005000D03*
%TO.P,J30,2*%
X76200000Y40005000D03*
%TD*%
%TO.P,J31,1*%
%TO.N,/PB6*%
X76200000Y85090000D03*
%TO.P,J31,2*%
%TO.N,VDD*%
X73660000Y85090000D03*
%TO.P,J31,3*%
%TO.N,/PB7*%
X76200000Y87630000D03*
%TO.P,J31,4*%
%TO.N,/PB5*%
X73660000Y87630000D03*
%TO.P,J31,5*%
%TO.N,/RST#_P*%
X76200000Y90170000D03*
%TO.P,J31,6*%
%TO.N,GND*%
X73660000Y90170000D03*
%TD*%
D13*
%TO.P,M3,1*%
%TO.N,GND*%
X5080000Y96520000D03*
%TD*%
%TO.P,M2,1*%
%TO.N,GND*%
X5080000Y5080000D03*
%TD*%
%TO.P,M4,1*%
%TO.N,GND*%
X76200000Y96200000D03*
%TD*%
D10*
%TO.P,J32,1*%
%TO.N,Net-(F1-Pad2)*%
X76200000Y16510000D03*
%TO.P,J32,2*%
%TO.N,Net-(F2-Pad1)*%
X76200000Y19050000D03*
%TD*%
%TO.P,J33,1*%
%TO.N,GND*%
X73660000Y11430000D03*
%TO.P,J33,2*%
X73660000Y13970000D03*
%TO.P,J33,3*%
%TO.N,Net-(F1-Pad2)*%
X76200000Y11430000D03*
%TO.P,J33,4*%
X76200000Y13970000D03*
%TO.P,J33,5*%
%TO.N,GND*%
X78740000Y11430000D03*
%TO.P,J33,6*%
X78740000Y13970000D03*
%TD*%
D11*
%TO.P,BT2,*%
%TO.N,*%
X18395000Y33020000D03*
X53995000Y33020000D03*
D12*
%TO.P,BT2,1*%
%TO.N,Net-(BT1-Pad1)*%
X69945000Y33020000D03*
%TO.P,BT2,2*%
%TO.N,GND*%
X2445000Y33020000D03*
%TD*%
D14*
%TO.P,D3,1*%
%TO.N,GND*%
X12065000Y5080000D03*
D15*
%TO.P,D3,2*%
%TO.N,Net-(D3-Pad2)*%
X14605000Y5080000D03*
%TD*%
D10*
%TO.P,J3,1*%
%TO.N,VDD*%
X76200000Y48895000D03*
%TO.P,J3,2*%
X73660000Y48895000D03*
%TD*%
D16*
%TO.P,Y1,1*%
%TO.N,Net-(C5-Pad1)*%
X74930000Y76100940D03*
%TO.P,Y1,2*%
%TO.N,Net-(C8-Pad1)*%
X74930000Y71219060D03*
%TD*%
D10*
%TO.P,J12,1*%
%TO.N,/PC2*%
X12700000Y92710000D03*
%TO.P,J12,2*%
X12700000Y95250000D03*
%TD*%
%TO.P,J16,1*%
%TO.N,/PC6*%
X22860000Y92710000D03*
%TO.P,J16,2*%
X22860000Y95250000D03*
%TD*%
%TO.P,J15,1*%
%TO.N,/PC5*%
X20320000Y92710000D03*
%TO.P,J15,2*%
X20320000Y95250000D03*
%TD*%
%TO.P,J14,1*%
%TO.N,/INT*%
X17780000Y92710000D03*
%TO.P,J14,2*%
X17780000Y95250000D03*
%TD*%
%TO.P,J13,1*%
%TO.N,/PC3*%
X15240000Y92710000D03*
%TO.P,J13,2*%
X15240000Y95250000D03*
%TD*%
D17*
%TO.P,SW1,1*%
%TO.N,Net-(C10-Pad1)*%
X58165000Y11816000D03*
%TO.P,SW1,2*%
%TO.N,Net-(D2-Pad1)*%
X62865000Y11816000D03*
%TO.P,SW1,3*%
%TO.N,N/C*%
X67565000Y11816000D03*
%TO.P,SW1,4*%
X56260000Y2286000D03*
X69470000Y2286000D03*
%TD*%
D18*
%TO.P,U2,9*%
%TO.N,GND*%
X65405000Y34925000D03*
D19*
X65405000Y35425000D03*
X65405000Y34425000D03*
%TD*%
D20*
%TO.N,GND*%
X79375000Y74295000D03*
X50165000Y56515000D03*
X52515000Y82550000D03*
X5715000Y68580000D03*
X34925000Y34290000D03*
X6350000Y36195000D03*
X66675000Y77470000D03*
X41275000Y55880000D03*
X53975000Y27940000D03*
X62230000Y22860000D03*
X4445000Y36195000D03*
X30480000Y83185000D03*
X52705000Y90970000D03*
X73660000Y92075000D03*
X38735000Y58420000D03*
X57300686Y73810686D03*
X34925000Y35560000D03*
X66675000Y67310000D03*
X79375000Y71755000D03*
X42545000Y27940000D03*
X68580000Y77470000D03*
X57785000Y92075000D03*
X26670000Y57785000D03*
X52705000Y26670000D03*
X4445000Y33020000D03*
X59690000Y19050000D03*
X41275000Y52070000D03*
X8255000Y68580000D03*
X41910000Y3810000D03*
X71755000Y92075000D03*
X46355000Y57150000D03*
X52515000Y85725000D03*
X60325000Y78105000D03*
X24130000Y56515000D03*
X52070000Y62865000D03*
X40005000Y80010000D03*
X43815000Y86360000D03*
X43815000Y89535000D03*
X36830000Y3810000D03*
X40640000Y88900000D03*
X59055000Y92075000D03*
X34925000Y27940000D03*
X76200000Y67310000D03*
X50165000Y58420000D03*
X71120000Y75565000D03*
X52705000Y27940000D03*
X31750000Y80645000D03*
X65405000Y43815000D03*
X31115000Y50165000D03*
X33655000Y57785000D03*
X34925000Y46355000D03*
X42545000Y95885000D03*
X73660000Y67310000D03*
X63500000Y21590000D03*
X64770000Y21590000D03*
X27305000Y31115000D03*
X43815000Y50800000D03*
X66675000Y73660000D03*
X42545000Y34925000D03*
X60325000Y79375000D03*
X54610000Y85725000D03*
X53975000Y25400000D03*
X34290000Y80645000D03*
X38735000Y62865000D03*
X46355000Y59690000D03*
X46355000Y58420000D03*
X22225000Y57150000D03*
X63500000Y22860000D03*
X24765000Y31750000D03*
X38735000Y80010000D03*
X46355000Y55245000D03*
X4445000Y31115000D03*
X40640000Y87630000D03*
X46355000Y49530000D03*
X26035000Y33020000D03*
X60960000Y45085000D03*
X50165000Y26670000D03*
X33655000Y53975000D03*
X29210000Y83185000D03*
X48895000Y84455000D03*
X51435000Y26670000D03*
X38735000Y78740000D03*
X31115000Y56515000D03*
X1905000Y36195000D03*
X18415000Y57150000D03*
X53975000Y46990000D03*
X30480000Y80645000D03*
X42545000Y33020000D03*
X43815000Y53975000D03*
X63500000Y20320000D03*
X43815000Y52070000D03*
X64770000Y20320000D03*
X55245000Y27940000D03*
X42545000Y29845000D03*
X28575000Y59055000D03*
X58585000Y69850000D03*
X72390000Y74295000D03*
X61415000Y74295000D03*
X36830000Y46355000D03*
X59690000Y45085000D03*
X53975000Y60960000D03*
X38735000Y54610000D03*
X39370000Y86360000D03*
X52070000Y64770000D03*
X57935686Y73175686D03*
X40005000Y78740000D03*
X33655000Y50165000D03*
X34925000Y45085000D03*
X39370000Y3810000D03*
X79375000Y73025000D03*
X55245000Y25400000D03*
X42545000Y31115000D03*
X53975000Y49530000D03*
X39370000Y88900000D03*
X59055000Y90805000D03*
X29210000Y80645000D03*
X56515000Y86360000D03*
X41275000Y50800000D03*
X50165000Y59690000D03*
X46355000Y53340000D03*
X71755000Y89700000D03*
X20955000Y57150000D03*
X53975000Y44450000D03*
X78740000Y67310000D03*
X64135000Y81915000D03*
X59055000Y89535000D03*
X53975000Y26670000D03*
X58585000Y71120000D03*
X6350000Y34925000D03*
X54610000Y84455000D03*
X52705000Y25400000D03*
X71120000Y67310000D03*
X41275000Y57150000D03*
X33655000Y55880000D03*
X38100000Y46355000D03*
X33020000Y80645000D03*
X59055000Y78105000D03*
X43815000Y57150000D03*
X31115000Y53975000D03*
X51435000Y27940000D03*
X48895000Y85725000D03*
X38735000Y50800000D03*
X61595000Y41275000D03*
X39370000Y85090000D03*
X71755000Y90805000D03*
X49530000Y86995000D03*
X34925000Y31750000D03*
X46990000Y83820000D03*
X38100000Y45085000D03*
X5715000Y71120000D03*
X26035000Y31750000D03*
X52070000Y66675000D03*
X47625000Y87630000D03*
X31750000Y3810000D03*
X31115000Y52070000D03*
X4445000Y34925000D03*
X38735000Y52705000D03*
X8255000Y71120000D03*
X34925000Y29845000D03*
X50165000Y27940000D03*
X44450000Y84455000D03*
X66675000Y68580000D03*
X40640000Y85090000D03*
X27305000Y32385000D03*
X24765000Y33020000D03*
X41275000Y53340000D03*
X59525000Y70485000D03*
X25400000Y56515000D03*
X64770000Y22860000D03*
X43815000Y55880000D03*
X38735000Y56515000D03*
X36830000Y45085000D03*
X55245000Y26670000D03*
X40640000Y86360000D03*
X41275000Y54610000D03*
X11430000Y71120000D03*
X6350000Y31115000D03*
X11430000Y68580000D03*
X39370000Y87630000D03*
X79375000Y70485000D03*
X38735000Y59690000D03*
X42545000Y97155000D03*
X59690000Y20955000D03*
X50800000Y87630000D03*
X46355000Y51435000D03*
X66675000Y75565000D03*
X18415000Y55245000D03*
X18415000Y53340000D03*
X64135000Y39370000D03*
X6350000Y33020000D03*
X34290000Y3810000D03*
%TO.N,VDD*%
X60960000Y60960000D03*
X66040000Y61277500D03*
X34290000Y70485000D03*
X59164557Y40749557D03*
X65925000Y48260000D03*
X34290000Y75565000D03*
X50165000Y73495000D03*
X56515000Y79375000D03*
%TO.N,/PC0*%
X66510000Y50165000D03*
X68326000Y52070000D03*
%TO.N,Net-(J11-Pad1)*%
X57785000Y85725000D03*
%TO.N,/PB6*%
X64135000Y86360000D03*
X66675000Y86360000D03*
X45085000Y44450000D03*
%TO.N,/PB7*%
X40005000Y44450000D03*
X60573186Y83571814D03*
%TO.N,/PB5*%
X67945000Y87630000D03*
X62215000Y87630000D03*
X32385000Y44450000D03*
%TO.N,/PB4*%
X29845000Y44450000D03*
X59055000Y84455000D03*
%TO.N,/LED*%
X15875000Y13335000D03*
X45720000Y80010000D03*
%TO.N,/PA2*%
X55715000Y78105000D03*
X54610000Y58420000D03*
X58115000Y58420000D03*
X63361371Y35421371D03*
%TO.N,/RST#_P*%
X73660000Y83185000D03*
X69850000Y84772500D03*
%TD*%
D21*
%TO.N,GND*%
X38735000Y59690000D02*
X38735000Y62865000D01*
X38296998Y51435000D02*
X38735000Y52705000D01*
D22*
X31115000Y50165000D02*
X31115000Y52070000D01*
D21*
X39370000Y87630000D02*
X39370000Y88900000D01*
X59690000Y19050000D02*
X59690000Y20955000D01*
X33185000Y56350000D02*
X33655000Y55880000D01*
D23*
X73660000Y67310000D02*
X71120000Y67310000D01*
D21*
X73660000Y90170000D02*
X73660000Y92075000D01*
X33185000Y57785000D02*
X33185000Y56350000D01*
X46355000Y55245000D02*
X46355000Y53340000D01*
X40005000Y80010000D02*
X40005000Y78740000D01*
D22*
X43815000Y86360000D02*
X43815000Y89535000D01*
X36830000Y3810000D02*
X34290000Y3810000D01*
D21*
X41275000Y57150000D02*
X41275000Y55880000D01*
X31750000Y80645000D02*
X30480000Y80645000D01*
D22*
X34380001Y53430001D02*
X34834999Y53430001D01*
D21*
X38735000Y62395000D02*
X39205000Y62865000D01*
X11430000Y71120000D02*
X11430000Y68580000D01*
X55245000Y25400000D02*
X55245000Y26670000D01*
X18415000Y57150000D02*
X20955000Y57150000D01*
X53975000Y26670000D02*
X52705000Y26670000D01*
X38735000Y50800000D02*
X38296998Y51435000D01*
D22*
X34834999Y53430001D02*
X34925000Y53520002D01*
D21*
X42545000Y27940000D02*
X42545000Y29845000D01*
X8255000Y68580000D02*
X5715000Y68580000D01*
X34290000Y80645000D02*
X33020000Y80645000D01*
D23*
X66675000Y73660000D02*
X66675000Y75565000D01*
D21*
X50165000Y56515000D02*
X50165000Y58420000D01*
X52070000Y64770000D02*
X52070000Y62865000D01*
X58585000Y69850000D02*
X55410000Y66675000D01*
D22*
X50800000Y85725000D02*
X49530000Y86995000D01*
X38100000Y46355000D02*
X37465000Y46990000D01*
X50800000Y87630000D02*
X47625000Y87630000D01*
D21*
X52705000Y82550000D02*
X54610000Y84455000D01*
X58585000Y71120000D02*
X58585000Y69850000D01*
X2445000Y35655000D02*
X1905000Y36195000D01*
X52515000Y82550000D02*
X52705000Y82550000D01*
X57300686Y73810686D02*
X57935686Y73175686D01*
D22*
X64135000Y39370000D02*
X63500000Y39370000D01*
D21*
X6350000Y34925000D02*
X6350000Y33020000D01*
D22*
X37465000Y51435000D02*
X38296998Y51435000D01*
D21*
X4445000Y36195000D02*
X6350000Y36195000D01*
X52705000Y27940000D02*
X53975000Y27940000D01*
X40640000Y86360000D02*
X40640000Y85090000D01*
X64770000Y20320000D02*
X63500000Y20320000D01*
D22*
X46990000Y83820000D02*
X45085000Y83820000D01*
D21*
X43815000Y52070000D02*
X43815000Y53975000D01*
X50165000Y27940000D02*
X51435000Y27940000D01*
X79375000Y71755000D02*
X79375000Y70485000D01*
X79375000Y74295000D02*
X79375000Y73025000D01*
D22*
X28575000Y59055000D02*
X27940000Y59055000D01*
D21*
X71755000Y92075000D02*
X71755000Y90805000D01*
X38100000Y45085000D02*
X38100000Y46355000D01*
X46355000Y58420000D02*
X46355000Y57150000D01*
X27305000Y32385000D02*
X27305000Y31115000D01*
X34925000Y45085000D02*
X36830000Y45085000D01*
X33655000Y52705000D02*
X33655000Y50165000D01*
X38735000Y78740000D02*
X38735000Y80010000D01*
X60325000Y79375000D02*
X60325000Y78105000D01*
X42545000Y31115000D02*
X42545000Y33020000D01*
D22*
X48895000Y85725000D02*
X48895000Y84455000D01*
X34925000Y56515000D02*
X33660010Y57779990D01*
X33660010Y57779990D02*
X33660010Y57785000D01*
D21*
X41275000Y54610000D02*
X41275000Y53340000D01*
X43815000Y55880000D02*
X43815000Y57150000D01*
X18415000Y53340000D02*
X18415000Y55245000D01*
X52705000Y25400000D02*
X53975000Y25400000D01*
D22*
X42545000Y95885000D02*
X42545000Y97155000D01*
D21*
X6350000Y31115000D02*
X4445000Y31115000D01*
X57785000Y92075000D02*
X59055000Y92075000D01*
X62230000Y22860000D02*
X63500000Y22860000D01*
D22*
X52515000Y85725000D02*
X50800000Y85725000D01*
X37465000Y46990000D02*
X37465000Y51435000D01*
D21*
X50165000Y59690000D02*
X46355000Y59690000D01*
D22*
X53975000Y44450000D02*
X53975000Y46990000D01*
D21*
X38735000Y58420000D02*
X38735000Y62395000D01*
X26035000Y31750000D02*
X26035000Y33020000D01*
D22*
X31115000Y53975000D02*
X31115000Y56515000D01*
X25400000Y56515000D02*
X24130000Y56515000D01*
D21*
X40640000Y88900000D02*
X40640000Y87630000D01*
D23*
X78740000Y67310000D02*
X76200000Y67310000D01*
X66675000Y67310000D02*
X66675000Y68580000D01*
D21*
X39370000Y85090000D02*
X39370000Y86360000D01*
D22*
X45085000Y83820000D02*
X44450000Y84455000D01*
X60960000Y45085000D02*
X59690000Y45085000D01*
X41910000Y3810000D02*
X39370000Y3810000D01*
D23*
X66675000Y77470000D02*
X68580000Y77470000D01*
D21*
X33655000Y53975000D02*
X33655000Y52705000D01*
X5715000Y71120000D02*
X8255000Y71120000D01*
X64770000Y22860000D02*
X64770000Y21590000D01*
X41275000Y52070000D02*
X41275000Y50800000D01*
X34925000Y31750000D02*
X34925000Y34290000D01*
X4445000Y33020000D02*
X4445000Y34925000D01*
D22*
X34925000Y53520002D02*
X34925000Y56515000D01*
D21*
X36830000Y46355000D02*
X34925000Y46355000D01*
X24765000Y33020000D02*
X24765000Y31750000D01*
X34925000Y27940000D02*
X34925000Y29845000D01*
D22*
X33655000Y52705000D02*
X34380001Y53430001D01*
D21*
X34925000Y35560000D02*
X34925000Y37465000D01*
X51435000Y26670000D02*
X50165000Y26670000D01*
X59055000Y90805000D02*
X59055000Y89535000D01*
D22*
X63500000Y39370000D02*
X61595000Y41275000D01*
D21*
X38735000Y54610000D02*
X38735000Y56515000D01*
X46355000Y51435000D02*
X46355000Y49530000D01*
X2445000Y33020000D02*
X2445000Y35655000D01*
X55410000Y66675000D02*
X52070000Y66675000D01*
D23*
X71120000Y75565000D02*
X72390000Y74295000D01*
D21*
X30480000Y83185000D02*
X29210000Y83185000D01*
D22*
X43815000Y49530000D02*
X43815000Y50800000D01*
X27940000Y59055000D02*
X26670000Y57785000D01*
D24*
%TO.N,Net-(BT1-Pad1)*%
X69945000Y71120000D02*
X62865000Y71120000D01*
X56515000Y40005000D02*
X63500000Y33020000D01*
X56515000Y64770000D02*
X56515000Y40005000D01*
X62865000Y71120000D02*
X56515000Y64770000D01*
X63500000Y33020000D02*
X69945000Y33020000D01*
D25*
%TO.N,VDD*%
X51235512Y74565512D02*
X51235512Y74930000D01*
X67310000Y48895000D02*
X70485000Y48895000D01*
X65994315Y47625000D02*
X66040000Y47625000D01*
X55680512Y79375000D02*
X56515000Y79375000D01*
X70485000Y48895000D02*
X73660000Y48895000D01*
X70485000Y56832500D02*
X66040000Y61277500D01*
X66040000Y61277500D02*
X61277500Y61277500D01*
X66675000Y48260000D02*
X67310000Y48895000D01*
X66675000Y48260000D02*
X66040000Y47625000D01*
X50165000Y73495000D02*
X51235512Y74565512D01*
X61277500Y61277500D02*
X60960000Y60960000D01*
X65925000Y48260000D02*
X65925000Y47694315D01*
X70485000Y48895000D02*
X70485000Y56832500D01*
X34290000Y75565000D02*
X34290000Y70485000D01*
X65925000Y48260000D02*
X66675000Y48260000D01*
X65925000Y47694315D02*
X65994315Y47625000D01*
X66040000Y47625000D02*
X59164557Y40749557D01*
X51235512Y74930000D02*
X55680512Y79375000D01*
D21*
%TO.N,/PC0*%
X66510000Y50165000D02*
X66510000Y50254000D01*
X66510000Y50254000D02*
X68326000Y52070000D01*
D25*
%TO.N,Net-(J11-Pad1)*%
X57785000Y85725000D02*
X57504962Y85725000D01*
X19685000Y15875000D02*
X19685000Y8890000D01*
X22860000Y19050000D02*
X19685000Y15875000D01*
X57504962Y85725000D02*
X22860000Y51080038D01*
X22860000Y51080038D02*
X22860000Y19050000D01*
D23*
%TO.N,/PB6*%
X58985685Y80645000D02*
X55960550Y80645000D01*
X64135000Y85794315D02*
X58985685Y80645000D01*
X45085000Y57699002D02*
X45085000Y44450000D01*
X55960550Y80645000D02*
X45085000Y69769450D01*
X76200000Y85090000D02*
X75565000Y85725000D01*
X66675000Y86360000D02*
X64135000Y86360000D01*
X64135000Y86360000D02*
X64135000Y85794315D01*
X45085000Y69769450D02*
X45085000Y57699002D01*
%TO.N,/PB7*%
X58610747Y81609375D02*
X56076383Y81609375D01*
X40005000Y62865000D02*
X40005000Y44450000D01*
X56076383Y81609375D02*
X40005000Y65537992D01*
X60573186Y83571814D02*
X58610747Y81609375D01*
X40005000Y65537992D02*
X40005000Y62865000D01*
%TO.N,/PB5*%
X62215000Y86345000D02*
X58275767Y82405767D01*
X58275767Y82405767D02*
X56024233Y82405767D01*
X56024233Y82405767D02*
X32385000Y58766534D01*
X32385000Y58766534D02*
X32385000Y56515000D01*
X32385000Y56515000D02*
X32385000Y44450000D01*
X62215000Y87630000D02*
X62215000Y86345000D01*
X67945000Y87630000D02*
X62215000Y87630000D01*
%TO.N,/PB4*%
X59055000Y84455000D02*
X57224924Y84455000D01*
X29845000Y55245000D02*
X29845000Y44450000D01*
X57224924Y84455000D02*
X29845000Y57075076D01*
X29845000Y57075076D02*
X29845000Y55245000D01*
%TO.N,/LED*%
X22159990Y19619990D02*
X15875000Y13335000D01*
X22159990Y51369990D02*
X22159990Y19619990D01*
X45720000Y74930000D02*
X22159990Y51369990D01*
X45720000Y80010000D02*
X45720000Y74930000D01*
%TO.N,/PA2*%
X58115000Y58420000D02*
X57915010Y58420000D01*
X58115000Y40667742D02*
X58420000Y40362742D01*
X55315001Y77460999D02*
X50800000Y72945998D01*
X63361371Y35421371D02*
X58420000Y40362742D01*
X58115000Y58420000D02*
X58115000Y40667742D01*
X55715000Y78105000D02*
X55315001Y77705001D01*
X55315001Y77705001D02*
X55315001Y77460999D01*
X50800000Y72945998D02*
X50800000Y62230000D01*
X50800000Y62230000D02*
X54610000Y58420000D01*
%TO.N,/RST#_P*%
X69850000Y84772500D02*
X71437500Y83185000D01*
X71437500Y83185000D02*
X73660000Y83185000D01*
%TD*%
%TA.AperFunction,Conductor*%
%TO.N,GND*%
G36*
X80459621Y100817498D02*
G01*
X80506114Y100763842D01*
X80517500Y100711500D01*
X80517500Y888500D01*
X80497498Y820379D01*
X80443842Y773886D01*
X80391500Y762500D01*
X71088090Y762500D01*
X71019969Y782502D01*
X70973476Y836158D01*
X70963372Y906432D01*
X70997607Y976186D01*
X71004686Y983491D01*
X71007669Y986569D01*
X71010202Y990017D01*
X71010206Y990022D01*
X71167257Y1203822D01*
X71169795Y1207277D01*
X71197154Y1257666D01*
X71298418Y1444170D01*
X71298419Y1444172D01*
X71300468Y1447946D01*
X71397269Y1704123D01*
X71458407Y1971067D01*
X71482751Y2243839D01*
X71483193Y2286000D01*
X71464567Y2559222D01*
X71409032Y2827388D01*
X71317617Y3085535D01*
X71192013Y3328888D01*
X71182040Y3343079D01*
X71037008Y3549438D01*
X71034545Y3552943D01*
X70848125Y3753555D01*
X70844810Y3756269D01*
X70844806Y3756272D01*
X70639523Y3924294D01*
X70636205Y3927010D01*
X70471847Y4027728D01*
X70406366Y4067855D01*
X70406365Y4067855D01*
X70402704Y4070099D01*
X70398768Y4071827D01*
X70155873Y4178451D01*
X70155869Y4178452D01*
X70151945Y4180175D01*
X69888566Y4255200D01*
X69884324Y4255804D01*
X69884318Y4255805D01*
X69683834Y4284338D01*
X69617443Y4293787D01*
X69473589Y4294540D01*
X69347877Y4295198D01*
X69347871Y4295198D01*
X69343591Y4295220D01*
X69339347Y4294661D01*
X69339343Y4294661D01*
X69220302Y4278989D01*
X69072078Y4259475D01*
X69067938Y4258342D01*
X69067936Y4258342D01*
X69020193Y4245281D01*
X68807928Y4187212D01*
X68803980Y4185528D01*
X68559982Y4081454D01*
X68559978Y4081452D01*
X68556030Y4079768D01*
X68437414Y4008778D01*
X68324725Y3941336D01*
X68324721Y3941333D01*
X68321043Y3939132D01*
X68107318Y3767906D01*
X67918808Y3569258D01*
X67759002Y3346864D01*
X67630857Y3104839D01*
X67629385Y3100816D01*
X67629383Y3100812D01*
X67622314Y3081494D01*
X67536743Y2847663D01*
X67478404Y2580093D01*
X67456917Y2307082D01*
X67472682Y2033680D01*
X67473507Y2029475D01*
X67473508Y2029467D01*
X67484127Y1975343D01*
X67525405Y1764947D01*
X67526792Y1760897D01*
X67526793Y1760892D01*
X67547605Y1700105D01*
X67614112Y1505856D01*
X67737160Y1261201D01*
X67739586Y1257672D01*
X67739589Y1257666D01*
X67889843Y1039047D01*
X67892274Y1035510D01*
X67895161Y1032337D01*
X67895162Y1032336D01*
X67948881Y973299D01*
X67979933Y909453D01*
X67971537Y838955D01*
X67926360Y784186D01*
X67855687Y762500D01*
X57878090Y762500D01*
X57809969Y782502D01*
X57763476Y836158D01*
X57753372Y906432D01*
X57787607Y976186D01*
X57794686Y983491D01*
X57797669Y986569D01*
X57800202Y990017D01*
X57800206Y990022D01*
X57957257Y1203822D01*
X57959795Y1207277D01*
X57987154Y1257666D01*
X58088418Y1444170D01*
X58088419Y1444172D01*
X58090468Y1447946D01*
X58187269Y1704123D01*
X58248407Y1971067D01*
X58272751Y2243839D01*
X58273193Y2286000D01*
X58254567Y2559222D01*
X58199032Y2827388D01*
X58107617Y3085535D01*
X57982013Y3328888D01*
X57972040Y3343079D01*
X57827008Y3549438D01*
X57824545Y3552943D01*
X57638125Y3753555D01*
X57634810Y3756269D01*
X57634806Y3756272D01*
X57429523Y3924294D01*
X57426205Y3927010D01*
X57261847Y4027728D01*
X57196366Y4067855D01*
X57196365Y4067855D01*
X57192704Y4070099D01*
X57188768Y4071827D01*
X56945873Y4178451D01*
X56945869Y4178452D01*
X56941945Y4180175D01*
X56678566Y4255200D01*
X56674324Y4255804D01*
X56674318Y4255805D01*
X56473834Y4284338D01*
X56407443Y4293787D01*
X56263589Y4294540D01*
X56137877Y4295198D01*
X56137871Y4295198D01*
X56133591Y4295220D01*
X56129347Y4294661D01*
X56129343Y4294661D01*
X56010302Y4278989D01*
X55862078Y4259475D01*
X55857938Y4258342D01*
X55857936Y4258342D01*
X55810193Y4245281D01*
X55597928Y4187212D01*
X55593980Y4185528D01*
X55349982Y4081454D01*
X55349978Y4081452D01*
X55346030Y4079768D01*
X55227414Y4008778D01*
X55114725Y3941336D01*
X55114721Y3941333D01*
X55111043Y3939132D01*
X54897318Y3767906D01*
X54708808Y3569258D01*
X54549002Y3346864D01*
X54420857Y3104839D01*
X54419385Y3100816D01*
X54419383Y3100812D01*
X54412314Y3081494D01*
X54326743Y2847663D01*
X54268404Y2580093D01*
X54246917Y2307082D01*
X54262682Y2033680D01*
X54263507Y2029475D01*
X54263508Y2029467D01*
X54274127Y1975343D01*
X54315405Y1764947D01*
X54316792Y1760897D01*
X54316793Y1760892D01*
X54337605Y1700105D01*
X54404112Y1505856D01*
X54527160Y1261201D01*
X54529586Y1257672D01*
X54529589Y1257666D01*
X54679843Y1039047D01*
X54682274Y1035510D01*
X54685161Y1032337D01*
X54685162Y1032336D01*
X54738881Y973299D01*
X54769933Y909453D01*
X54761537Y838955D01*
X54716360Y784186D01*
X54645687Y762500D01*
X888500Y762500D01*
X820379Y782502D01*
X773886Y836158D01*
X762500Y888500D01*
X762500Y5114531D01*
X13192095Y5114531D01*
X13192392Y5109378D01*
X13192392Y5109375D01*
X13198067Y5010959D01*
X13205427Y4883303D01*
X13206564Y4878257D01*
X13206565Y4878251D01*
X13238741Y4735477D01*
X13256346Y4657358D01*
X13258288Y4652576D01*
X13258289Y4652572D01*
X13341540Y4447550D01*
X13343484Y4442763D01*
X13464501Y4245281D01*
X13616147Y4070216D01*
X13794349Y3922270D01*
X13994322Y3805416D01*
X14210694Y3722791D01*
X14215760Y3721760D01*
X14215761Y3721760D01*
X14268846Y3710960D01*
X14437656Y3676615D01*
X14568324Y3671824D01*
X14663949Y3668317D01*
X14663953Y3668317D01*
X14669113Y3668128D01*
X14674233Y3668784D01*
X14674235Y3668784D01*
X14747270Y3678140D01*
X14898847Y3697558D01*
X14903795Y3699043D01*
X14903802Y3699044D01*
X15115747Y3762631D01*
X15120690Y3764114D01*
X15125324Y3766384D01*
X15324049Y3863738D01*
X15324052Y3863740D01*
X15328684Y3866009D01*
X15517243Y4000506D01*
X15681303Y4163995D01*
X15816458Y4352083D01*
X15863641Y4447550D01*
X15916784Y4555078D01*
X15916785Y4555080D01*
X15919078Y4559720D01*
X15986408Y4781329D01*
X16016640Y5010959D01*
X16018327Y5080000D01*
X16005837Y5231919D01*
X15999773Y5305682D01*
X15999772Y5305688D01*
X15999349Y5310833D01*
X15942925Y5535467D01*
X15939527Y5543283D01*
X15852630Y5743132D01*
X15852628Y5743135D01*
X15850570Y5747869D01*
X15724764Y5942335D01*
X15568887Y6113642D01*
X15564836Y6116841D01*
X15564832Y6116845D01*
X15391177Y6253989D01*
X15391172Y6253992D01*
X15387123Y6257190D01*
X15382607Y6259683D01*
X15382604Y6259685D01*
X15188879Y6366627D01*
X15188875Y6366629D01*
X15184355Y6369124D01*
X15179486Y6370848D01*
X15179482Y6370850D01*
X14970903Y6444712D01*
X14970899Y6444713D01*
X14966028Y6446438D01*
X14960935Y6447345D01*
X14960932Y6447346D01*
X14743095Y6486149D01*
X14743089Y6486150D01*
X14738006Y6487055D01*
X14665096Y6487946D01*
X14511581Y6489821D01*
X14511579Y6489821D01*
X14506411Y6489884D01*
X14277464Y6454850D01*
X14057314Y6382894D01*
X14052726Y6380506D01*
X14052722Y6380504D01*
X14026065Y6366627D01*
X13851872Y6275948D01*
X13847739Y6272845D01*
X13847736Y6272843D01*
X13822625Y6253989D01*
X13666655Y6136883D01*
X13506639Y5969436D01*
X13503725Y5965164D01*
X13503724Y5965163D01*
X13488152Y5942335D01*
X13376119Y5778101D01*
X13278602Y5568019D01*
X13216707Y5344831D01*
X13192095Y5114531D01*
X762500Y5114531D01*
X762500Y13335000D01*
X14961496Y13335000D01*
X14981458Y13145072D01*
X15040473Y12963444D01*
X15043776Y12957722D01*
X15043777Y12957721D01*
X15077686Y12898990D01*
X15135960Y12798056D01*
X15140378Y12793149D01*
X15140379Y12793148D01*
X15259325Y12661045D01*
X15263747Y12656134D01*
X15362843Y12584136D01*
X15412469Y12548081D01*
X15418248Y12543882D01*
X15424276Y12541198D01*
X15424278Y12541197D01*
X15586681Y12468891D01*
X15592712Y12466206D01*
X15686112Y12446353D01*
X15773056Y12427872D01*
X15773061Y12427872D01*
X15779513Y12426500D01*
X15970487Y12426500D01*
X15976939Y12427872D01*
X15976944Y12427872D01*
X16063888Y12446353D01*
X16157288Y12466206D01*
X16163319Y12468891D01*
X16325722Y12541197D01*
X16325724Y12541198D01*
X16331752Y12543882D01*
X16337532Y12548081D01*
X16387157Y12584136D01*
X16486253Y12656134D01*
X16490675Y12661045D01*
X16609621Y12793148D01*
X16609622Y12793149D01*
X16614040Y12798056D01*
X16672314Y12898990D01*
X16706223Y12957721D01*
X16706224Y12957722D01*
X16709527Y12963444D01*
X16748355Y13082943D01*
X16766502Y13138793D01*
X16766502Y13138795D01*
X16768542Y13145072D01*
X16773450Y13191770D01*
X16800463Y13257427D01*
X16809665Y13267695D01*
X18661405Y15119435D01*
X18723717Y15153461D01*
X18794532Y15148396D01*
X18851368Y15105849D01*
X18876179Y15039329D01*
X18876500Y15030340D01*
X18876500Y10264996D01*
X18856498Y10196875D01*
X18802842Y10150382D01*
X18794729Y10147014D01*
X18684705Y10105768D01*
X18684704Y10105767D01*
X18676295Y10102615D01*
X18559739Y10015261D01*
X18472385Y9898705D01*
X18421255Y9762316D01*
X18414500Y9700134D01*
X18414500Y8079866D01*
X18421255Y8017684D01*
X18472385Y7881295D01*
X18559739Y7764739D01*
X18566919Y7759358D01*
X18618332Y7720826D01*
X18660847Y7663967D01*
X18665873Y7593148D01*
X18631813Y7530855D01*
X18618333Y7519175D01*
X18559739Y7475261D01*
X18472385Y7358705D01*
X18421255Y7222316D01*
X18414500Y7160134D01*
X18414500Y5539866D01*
X18421255Y5477684D01*
X18472385Y5341295D01*
X18559739Y5224739D01*
X18676295Y5137385D01*
X18812684Y5086255D01*
X18874866Y5079500D01*
X20495134Y5079500D01*
X20557316Y5086255D01*
X20693705Y5137385D01*
X20810261Y5224739D01*
X20897615Y5341295D01*
X20948745Y5477684D01*
X20955500Y5539866D01*
X20955500Y7160134D01*
X20948745Y7222316D01*
X20897615Y7358705D01*
X20810261Y7475261D01*
X20751668Y7519174D01*
X20709153Y7576033D01*
X20704127Y7646852D01*
X20738187Y7709145D01*
X20751668Y7720826D01*
X20803081Y7759358D01*
X20810261Y7764739D01*
X20897615Y7881295D01*
X20948745Y8017684D01*
X20955500Y8079866D01*
X20955500Y9700134D01*
X20948745Y9762316D01*
X20897615Y9898705D01*
X20810261Y10015261D01*
X20693705Y10102615D01*
X20685296Y10105767D01*
X20685295Y10105768D01*
X20575271Y10147014D01*
X20518506Y10189655D01*
X20493806Y10256217D01*
X20493500Y10264996D01*
X20493500Y11837082D01*
X56151917Y11837082D01*
X56167682Y11563680D01*
X56168507Y11559475D01*
X56168508Y11559467D01*
X56179127Y11505343D01*
X56220405Y11294947D01*
X56221792Y11290897D01*
X56221793Y11290892D01*
X56242605Y11230105D01*
X56309112Y11035856D01*
X56432160Y10791201D01*
X56434586Y10787672D01*
X56434589Y10787666D01*
X56584843Y10569047D01*
X56587274Y10565510D01*
X56590161Y10562337D01*
X56590162Y10562336D01*
X56768692Y10366133D01*
X56771582Y10362957D01*
X56981675Y10187293D01*
X56985316Y10185009D01*
X57210024Y10044049D01*
X57210028Y10044047D01*
X57213664Y10041766D01*
X57281544Y10011117D01*
X57459345Y9930836D01*
X57459349Y9930834D01*
X57463257Y9929070D01*
X57467377Y9927850D01*
X57467376Y9927850D01*
X57721723Y9852509D01*
X57721727Y9852508D01*
X57725836Y9851291D01*
X57730070Y9850643D01*
X57730075Y9850642D01*
X57992298Y9810517D01*
X57992300Y9810517D01*
X57996540Y9809868D01*
X58135912Y9807678D01*
X58266071Y9805633D01*
X58266077Y9805633D01*
X58270362Y9805566D01*
X58542235Y9838466D01*
X58807127Y9907959D01*
X58811087Y9909599D01*
X58811092Y9909601D01*
X59048842Y10008081D01*
X59060136Y10012759D01*
X59296582Y10150927D01*
X59512089Y10319906D01*
X59553809Y10362957D01*
X59699686Y10513491D01*
X59702669Y10516569D01*
X59705202Y10520017D01*
X59705206Y10520022D01*
X59862257Y10733822D01*
X59864795Y10737277D01*
X59892154Y10787666D01*
X59993418Y10974170D01*
X59993419Y10974172D01*
X59995468Y10977946D01*
X60092269Y11234123D01*
X60153407Y11501067D01*
X60177751Y11773839D01*
X60178193Y11816000D01*
X60176756Y11837082D01*
X60851917Y11837082D01*
X60867682Y11563680D01*
X60868507Y11559475D01*
X60868508Y11559467D01*
X60879127Y11505343D01*
X60920405Y11294947D01*
X60921792Y11290897D01*
X60921793Y11290892D01*
X60942605Y11230105D01*
X61009112Y11035856D01*
X61132160Y10791201D01*
X61134586Y10787672D01*
X61134589Y10787666D01*
X61284843Y10569047D01*
X61287274Y10565510D01*
X61290161Y10562337D01*
X61290162Y10562336D01*
X61468692Y10366133D01*
X61471582Y10362957D01*
X61681675Y10187293D01*
X61685316Y10185009D01*
X61910024Y10044049D01*
X61910028Y10044047D01*
X61913664Y10041766D01*
X61981544Y10011117D01*
X62159345Y9930836D01*
X62159349Y9930834D01*
X62163257Y9929070D01*
X62167377Y9927850D01*
X62167376Y9927850D01*
X62421723Y9852509D01*
X62421727Y9852508D01*
X62425836Y9851291D01*
X62430070Y9850643D01*
X62430075Y9850642D01*
X62692298Y9810517D01*
X62692300Y9810517D01*
X62696540Y9809868D01*
X62835912Y9807678D01*
X62966071Y9805633D01*
X62966077Y9805633D01*
X62970362Y9805566D01*
X63242235Y9838466D01*
X63507127Y9907959D01*
X63511087Y9909599D01*
X63511092Y9909601D01*
X63748842Y10008081D01*
X63760136Y10012759D01*
X63996582Y10150927D01*
X64212089Y10319906D01*
X64253809Y10362957D01*
X64399686Y10513491D01*
X64402669Y10516569D01*
X64405202Y10520017D01*
X64405206Y10520022D01*
X64562257Y10733822D01*
X64564795Y10737277D01*
X64592154Y10787666D01*
X64693418Y10974170D01*
X64693419Y10974172D01*
X64695468Y10977946D01*
X64792269Y11234123D01*
X64853407Y11501067D01*
X64877751Y11773839D01*
X64878193Y11816000D01*
X64876756Y11837082D01*
X65551917Y11837082D01*
X65567682Y11563680D01*
X65568507Y11559475D01*
X65568508Y11559467D01*
X65579127Y11505343D01*
X65620405Y11294947D01*
X65621792Y11290897D01*
X65621793Y11290892D01*
X65642605Y11230105D01*
X65709112Y11035856D01*
X65832160Y10791201D01*
X65834586Y10787672D01*
X65834589Y10787666D01*
X65984843Y10569047D01*
X65987274Y10565510D01*
X65990161Y10562337D01*
X65990162Y10562336D01*
X66168692Y10366133D01*
X66171582Y10362957D01*
X66381675Y10187293D01*
X66385316Y10185009D01*
X66610024Y10044049D01*
X66610028Y10044047D01*
X66613664Y10041766D01*
X66681544Y10011117D01*
X66859345Y9930836D01*
X66859349Y9930834D01*
X66863257Y9929070D01*
X66867377Y9927850D01*
X66867376Y9927850D01*
X67121723Y9852509D01*
X67121727Y9852508D01*
X67125836Y9851291D01*
X67130070Y9850643D01*
X67130075Y9850642D01*
X67392298Y9810517D01*
X67392300Y9810517D01*
X67396540Y9809868D01*
X67535912Y9807678D01*
X67666071Y9805633D01*
X67666077Y9805633D01*
X67670362Y9805566D01*
X67942235Y9838466D01*
X68207127Y9907959D01*
X68211087Y9909599D01*
X68211092Y9909601D01*
X68448842Y10008081D01*
X68460136Y10012759D01*
X68696582Y10150927D01*
X68912089Y10319906D01*
X68953809Y10362957D01*
X69099686Y10513491D01*
X69102669Y10516569D01*
X69105202Y10520017D01*
X69105206Y10520022D01*
X69178548Y10619866D01*
X74929500Y10619866D01*
X74936255Y10557684D01*
X74987385Y10421295D01*
X75074739Y10304739D01*
X75191295Y10217385D01*
X75327684Y10166255D01*
X75389866Y10159500D01*
X77010134Y10159500D01*
X77072316Y10166255D01*
X77208705Y10217385D01*
X77325261Y10304739D01*
X77412615Y10421295D01*
X77463745Y10557684D01*
X77470500Y10619866D01*
X77470500Y12240134D01*
X77463745Y12302316D01*
X77412615Y12438705D01*
X77325261Y12555261D01*
X77266668Y12599174D01*
X77224153Y12656033D01*
X77219127Y12726852D01*
X77253187Y12789145D01*
X77266668Y12800826D01*
X77325261Y12844739D01*
X77412615Y12961295D01*
X77463745Y13097684D01*
X77470500Y13159866D01*
X77470500Y14780134D01*
X77463745Y14842316D01*
X77412615Y14978705D01*
X77325261Y15095261D01*
X77266668Y15139174D01*
X77224153Y15196033D01*
X77219127Y15266852D01*
X77253187Y15329145D01*
X77266668Y15340826D01*
X77318081Y15379358D01*
X77325261Y15384739D01*
X77412615Y15501295D01*
X77463745Y15637684D01*
X77470500Y15699866D01*
X77470500Y17320134D01*
X77463745Y17382316D01*
X77412615Y17518705D01*
X77325261Y17635261D01*
X77266668Y17679174D01*
X77224153Y17736033D01*
X77219127Y17806852D01*
X77253187Y17869145D01*
X77266668Y17880826D01*
X77318081Y17919358D01*
X77325261Y17924739D01*
X77412615Y18041295D01*
X77463745Y18177684D01*
X77470500Y18239866D01*
X77470500Y19860134D01*
X77463745Y19922316D01*
X77412615Y20058705D01*
X77325261Y20175261D01*
X77266668Y20219174D01*
X77224153Y20276033D01*
X77219127Y20346852D01*
X77253187Y20409145D01*
X77266668Y20420826D01*
X77318081Y20459358D01*
X77325261Y20464739D01*
X77412615Y20581295D01*
X77463745Y20717684D01*
X77470500Y20779866D01*
X77470500Y22400134D01*
X77463745Y22462316D01*
X77412615Y22598705D01*
X77325261Y22715261D01*
X77266668Y22759174D01*
X77224153Y22816033D01*
X77219127Y22886852D01*
X77253187Y22949145D01*
X77266668Y22960826D01*
X77318081Y22999358D01*
X77325261Y23004739D01*
X77412615Y23121295D01*
X77463745Y23257684D01*
X77470500Y23319866D01*
X77470500Y24940134D01*
X77463745Y25002316D01*
X77412615Y25138705D01*
X77325261Y25255261D01*
X77208705Y25342615D01*
X77072316Y25393745D01*
X77010134Y25400500D01*
X75389866Y25400500D01*
X75327684Y25393745D01*
X75191295Y25342615D01*
X75074739Y25255261D01*
X74987385Y25138705D01*
X74936255Y25002316D01*
X74929500Y24940134D01*
X74929500Y23319866D01*
X74936255Y23257684D01*
X74987385Y23121295D01*
X75074739Y23004739D01*
X75081919Y22999358D01*
X75133332Y22960826D01*
X75175847Y22903967D01*
X75180873Y22833148D01*
X75146813Y22770855D01*
X75133333Y22759175D01*
X75074739Y22715261D01*
X74987385Y22598705D01*
X74936255Y22462316D01*
X74929500Y22400134D01*
X74929500Y20779866D01*
X74936255Y20717684D01*
X74987385Y20581295D01*
X75074739Y20464739D01*
X75081919Y20459358D01*
X75133332Y20420826D01*
X75175847Y20363967D01*
X75180873Y20293148D01*
X75146813Y20230855D01*
X75133333Y20219175D01*
X75074739Y20175261D01*
X74987385Y20058705D01*
X74936255Y19922316D01*
X74929500Y19860134D01*
X74929500Y18239866D01*
X74936255Y18177684D01*
X74987385Y18041295D01*
X75074739Y17924739D01*
X75081919Y17919358D01*
X75133332Y17880826D01*
X75175847Y17823967D01*
X75180873Y17753148D01*
X75146813Y17690855D01*
X75133333Y17679175D01*
X75074739Y17635261D01*
X74987385Y17518705D01*
X74936255Y17382316D01*
X74929500Y17320134D01*
X74929500Y15699866D01*
X74936255Y15637684D01*
X74987385Y15501295D01*
X75074739Y15384739D01*
X75081919Y15379358D01*
X75133332Y15340826D01*
X75175847Y15283967D01*
X75180873Y15213148D01*
X75146813Y15150855D01*
X75133333Y15139175D01*
X75074739Y15095261D01*
X74987385Y14978705D01*
X74936255Y14842316D01*
X74929500Y14780134D01*
X74929500Y13159866D01*
X74936255Y13097684D01*
X74987385Y12961295D01*
X75074739Y12844739D01*
X75133332Y12800826D01*
X75175847Y12743967D01*
X75180873Y12673148D01*
X75146813Y12610855D01*
X75133333Y12599175D01*
X75074739Y12555261D01*
X74987385Y12438705D01*
X74936255Y12302316D01*
X74929500Y12240134D01*
X74929500Y10619866D01*
X69178548Y10619866D01*
X69262257Y10733822D01*
X69264795Y10737277D01*
X69292154Y10787666D01*
X69393418Y10974170D01*
X69393419Y10974172D01*
X69395468Y10977946D01*
X69492269Y11234123D01*
X69553407Y11501067D01*
X69577751Y11773839D01*
X69578193Y11816000D01*
X69559567Y12089222D01*
X69504032Y12357388D01*
X69412617Y12615535D01*
X69316981Y12800826D01*
X69288978Y12855081D01*
X69288978Y12855082D01*
X69287013Y12858888D01*
X69277040Y12873079D01*
X69132008Y13079438D01*
X69129545Y13082943D01*
X68943125Y13283555D01*
X68939810Y13286269D01*
X68939806Y13286272D01*
X68734523Y13454294D01*
X68731205Y13457010D01*
X68497704Y13600099D01*
X68493768Y13601827D01*
X68250873Y13708451D01*
X68250869Y13708452D01*
X68246945Y13710175D01*
X67983566Y13785200D01*
X67979324Y13785804D01*
X67979318Y13785805D01*
X67778834Y13814338D01*
X67712443Y13823787D01*
X67568589Y13824540D01*
X67442877Y13825198D01*
X67442871Y13825198D01*
X67438591Y13825220D01*
X67434347Y13824661D01*
X67434343Y13824661D01*
X67315302Y13808989D01*
X67167078Y13789475D01*
X67162938Y13788342D01*
X67162936Y13788342D01*
X67090008Y13768391D01*
X66902928Y13717212D01*
X66898980Y13715528D01*
X66654982Y13611454D01*
X66654978Y13611452D01*
X66651030Y13609768D01*
X66631125Y13597855D01*
X66419725Y13471336D01*
X66419721Y13471333D01*
X66416043Y13469132D01*
X66202318Y13297906D01*
X66013808Y13099258D01*
X65854002Y12876864D01*
X65725857Y12634839D01*
X65724385Y12630816D01*
X65724383Y12630812D01*
X65650117Y12427872D01*
X65631743Y12377663D01*
X65573404Y12110093D01*
X65551917Y11837082D01*
X64876756Y11837082D01*
X64859567Y12089222D01*
X64804032Y12357388D01*
X64712617Y12615535D01*
X64616981Y12800826D01*
X64588978Y12855081D01*
X64588978Y12855082D01*
X64587013Y12858888D01*
X64577040Y12873079D01*
X64432008Y13079438D01*
X64429545Y13082943D01*
X64243125Y13283555D01*
X64239810Y13286269D01*
X64239806Y13286272D01*
X64034523Y13454294D01*
X64031205Y13457010D01*
X63797704Y13600099D01*
X63793768Y13601827D01*
X63550873Y13708451D01*
X63550869Y13708452D01*
X63546945Y13710175D01*
X63283566Y13785200D01*
X63279324Y13785804D01*
X63279318Y13785805D01*
X63078834Y13814338D01*
X63012443Y13823787D01*
X62868589Y13824540D01*
X62742877Y13825198D01*
X62742871Y13825198D01*
X62738591Y13825220D01*
X62734347Y13824661D01*
X62734343Y13824661D01*
X62615302Y13808989D01*
X62467078Y13789475D01*
X62462938Y13788342D01*
X62462936Y13788342D01*
X62390008Y13768391D01*
X62202928Y13717212D01*
X62198980Y13715528D01*
X61954982Y13611454D01*
X61954978Y13611452D01*
X61951030Y13609768D01*
X61931125Y13597855D01*
X61719725Y13471336D01*
X61719721Y13471333D01*
X61716043Y13469132D01*
X61502318Y13297906D01*
X61313808Y13099258D01*
X61154002Y12876864D01*
X61025857Y12634839D01*
X61024385Y12630816D01*
X61024383Y12630812D01*
X60950117Y12427872D01*
X60931743Y12377663D01*
X60873404Y12110093D01*
X60851917Y11837082D01*
X60176756Y11837082D01*
X60159567Y12089222D01*
X60104032Y12357388D01*
X60012617Y12615535D01*
X59916981Y12800826D01*
X59888978Y12855081D01*
X59888978Y12855082D01*
X59887013Y12858888D01*
X59877040Y12873079D01*
X59732008Y13079438D01*
X59729545Y13082943D01*
X59543125Y13283555D01*
X59539810Y13286269D01*
X59539806Y13286272D01*
X59334523Y13454294D01*
X59331205Y13457010D01*
X59097704Y13600099D01*
X59093768Y13601827D01*
X58850873Y13708451D01*
X58850869Y13708452D01*
X58846945Y13710175D01*
X58583566Y13785200D01*
X58579324Y13785804D01*
X58579318Y13785805D01*
X58378834Y13814338D01*
X58312443Y13823787D01*
X58168589Y13824540D01*
X58042877Y13825198D01*
X58042871Y13825198D01*
X58038591Y13825220D01*
X58034347Y13824661D01*
X58034343Y13824661D01*
X57915302Y13808989D01*
X57767078Y13789475D01*
X57762938Y13788342D01*
X57762936Y13788342D01*
X57690008Y13768391D01*
X57502928Y13717212D01*
X57498980Y13715528D01*
X57254982Y13611454D01*
X57254978Y13611452D01*
X57251030Y13609768D01*
X57231125Y13597855D01*
X57019725Y13471336D01*
X57019721Y13471333D01*
X57016043Y13469132D01*
X56802318Y13297906D01*
X56613808Y13099258D01*
X56454002Y12876864D01*
X56325857Y12634839D01*
X56324385Y12630816D01*
X56324383Y12630812D01*
X56250117Y12427872D01*
X56231743Y12377663D01*
X56173404Y12110093D01*
X56151917Y11837082D01*
X20493500Y11837082D01*
X20493500Y15487918D01*
X20513502Y15556039D01*
X20530405Y15577013D01*
X23425158Y18471766D01*
X23426095Y18472694D01*
X23485475Y18530843D01*
X23485476Y18530844D01*
X23490507Y18535771D01*
X23513998Y18572221D01*
X23521417Y18582546D01*
X23548476Y18616443D01*
X23563073Y18646638D01*
X23570602Y18660055D01*
X23584948Y18682316D01*
X23588765Y18688238D01*
X23591173Y18694855D01*
X23591176Y18694860D01*
X23603592Y18728973D01*
X23608553Y18740716D01*
X23624354Y18773403D01*
X23624356Y18773408D01*
X23627421Y18779749D01*
X23634965Y18812428D01*
X23639332Y18827169D01*
X23650803Y18858685D01*
X23651686Y18865675D01*
X23651688Y18865683D01*
X23656238Y18901701D01*
X23658474Y18914253D01*
X23666638Y18949614D01*
X23666638Y18949617D01*
X23668224Y18956485D01*
X23668366Y18997056D01*
X23668395Y18997938D01*
X23668500Y18998769D01*
X23668500Y19035572D01*
X23668857Y19137870D01*
X23668589Y19139070D01*
X23668500Y19140707D01*
X23668500Y23145000D01*
X26016502Y23145000D01*
X26036457Y22916913D01*
X26037881Y22911600D01*
X26037881Y22911598D01*
X26087235Y22727410D01*
X26095716Y22695757D01*
X26098039Y22690776D01*
X26098039Y22690775D01*
X26190151Y22493238D01*
X26190154Y22493233D01*
X26192477Y22488251D01*
X26323802Y22300700D01*
X26485700Y22138802D01*
X26490208Y22135645D01*
X26490211Y22135643D01*
X26559966Y22086800D01*
X26673251Y22007477D01*
X26678233Y22005154D01*
X26678238Y22005151D01*
X26875775Y21913039D01*
X26880757Y21910716D01*
X26886065Y21909294D01*
X26886067Y21909293D01*
X27096598Y21852881D01*
X27096600Y21852881D01*
X27101913Y21851457D01*
X27201480Y21842746D01*
X27270149Y21836738D01*
X27270156Y21836738D01*
X27272873Y21836500D01*
X27387127Y21836500D01*
X27389844Y21836738D01*
X27389851Y21836738D01*
X27458520Y21842746D01*
X27558087Y21851457D01*
X27563400Y21852881D01*
X27563402Y21852881D01*
X27773933Y21909293D01*
X27773935Y21909294D01*
X27779243Y21910716D01*
X27784225Y21913039D01*
X27981762Y22005151D01*
X27981767Y22005154D01*
X27986749Y22007477D01*
X28100034Y22086800D01*
X28169789Y22135643D01*
X28169792Y22135645D01*
X28174300Y22138802D01*
X28336198Y22300700D01*
X28467523Y22488251D01*
X28469846Y22493233D01*
X28469849Y22493238D01*
X28561961Y22690775D01*
X28561961Y22690776D01*
X28564284Y22695757D01*
X28572766Y22727410D01*
X28622119Y22911598D01*
X28622119Y22911600D01*
X28623543Y22916913D01*
X28643498Y23145000D01*
X28642848Y23152425D01*
X47266404Y23152425D01*
X47285218Y22945697D01*
X47286956Y22939791D01*
X47286957Y22939787D01*
X47302537Y22886852D01*
X47343827Y22746560D01*
X47439999Y22562600D01*
X47570071Y22400823D01*
X47574788Y22396865D01*
X47574790Y22396863D01*
X47678681Y22309688D01*
X47729089Y22267391D01*
X47734481Y22264427D01*
X47734485Y22264424D01*
X47905598Y22170354D01*
X47910995Y22167387D01*
X48108861Y22104621D01*
X48114978Y22103935D01*
X48114982Y22103934D01*
X48191598Y22095341D01*
X48270413Y22086500D01*
X48382237Y22086500D01*
X48385293Y22086800D01*
X48385300Y22086800D01*
X48530466Y22101034D01*
X48530469Y22101035D01*
X48536592Y22101635D01*
X48672605Y22142699D01*
X48729407Y22159848D01*
X48729410Y22159849D01*
X48735315Y22161632D01*
X48742635Y22165524D01*
X48913153Y22256191D01*
X48913155Y22256192D01*
X48918599Y22259087D01*
X48978471Y22307917D01*
X49074689Y22386390D01*
X49074692Y22386393D01*
X49079464Y22390285D01*
X49211783Y22550230D01*
X49215876Y22557799D01*
X49307584Y22727410D01*
X49307586Y22727415D01*
X49310514Y22732830D01*
X49371898Y22931129D01*
X49373792Y22949145D01*
X49392952Y23131446D01*
X49392952Y23131448D01*
X49393596Y23137575D01*
X49385777Y23223485D01*
X49375341Y23338164D01*
X49375340Y23338167D01*
X49374782Y23344303D01*
X49372298Y23352745D01*
X49317912Y23537531D01*
X49316173Y23543440D01*
X49220001Y23727400D01*
X49089929Y23889177D01*
X49077371Y23899715D01*
X48935629Y24018650D01*
X48930911Y24022609D01*
X48925519Y24025573D01*
X48925515Y24025576D01*
X48754402Y24119646D01*
X48749005Y24122613D01*
X48551139Y24185379D01*
X48545022Y24186065D01*
X48545018Y24186066D01*
X48468402Y24194659D01*
X48389587Y24203500D01*
X48277763Y24203500D01*
X48274707Y24203200D01*
X48274700Y24203200D01*
X48129534Y24188966D01*
X48129531Y24188965D01*
X48123408Y24188365D01*
X48010766Y24154357D01*
X47930593Y24130152D01*
X47930590Y24130151D01*
X47924685Y24128368D01*
X47919240Y24125473D01*
X47919238Y24125472D01*
X47746847Y24033809D01*
X47746845Y24033808D01*
X47741401Y24030913D01*
X47726365Y24018650D01*
X47585311Y23903610D01*
X47585308Y23903607D01*
X47580536Y23899715D01*
X47448217Y23739770D01*
X47445288Y23734353D01*
X47445286Y23734350D01*
X47352416Y23562590D01*
X47352414Y23562585D01*
X47349486Y23557170D01*
X47288102Y23358871D01*
X47287458Y23352746D01*
X47287458Y23352745D01*
X47284362Y23323283D01*
X47266404Y23152425D01*
X28642848Y23152425D01*
X28623543Y23373087D01*
X28574218Y23557170D01*
X28565707Y23588933D01*
X28565706Y23588935D01*
X28564284Y23594243D01*
X28561961Y23599225D01*
X28469849Y23796762D01*
X28469846Y23796767D01*
X28467523Y23801749D01*
X28336198Y23989300D01*
X28174300Y24151198D01*
X28169792Y24154355D01*
X28169789Y24154357D01*
X28091611Y24209098D01*
X27986749Y24282523D01*
X27981767Y24284846D01*
X27981762Y24284849D01*
X27784225Y24376961D01*
X27784224Y24376961D01*
X27779243Y24379284D01*
X27773935Y24380706D01*
X27773933Y24380707D01*
X27563402Y24437119D01*
X27563400Y24437119D01*
X27558087Y24438543D01*
X27458520Y24447254D01*
X27389851Y24453262D01*
X27389844Y24453262D01*
X27387127Y24453500D01*
X27272873Y24453500D01*
X27270156Y24453262D01*
X27270149Y24453262D01*
X27201480Y24447254D01*
X27101913Y24438543D01*
X27096600Y24437119D01*
X27096598Y24437119D01*
X26886067Y24380707D01*
X26886065Y24380706D01*
X26880757Y24379284D01*
X26875776Y24376961D01*
X26875775Y24376961D01*
X26678238Y24284849D01*
X26678233Y24284846D01*
X26673251Y24282523D01*
X26568389Y24209098D01*
X26490211Y24154357D01*
X26490208Y24154355D01*
X26485700Y24151198D01*
X26323802Y23989300D01*
X26192477Y23801749D01*
X26190154Y23796767D01*
X26190151Y23796762D01*
X26098039Y23599225D01*
X26095716Y23594243D01*
X26094294Y23588935D01*
X26094293Y23588933D01*
X26085782Y23557170D01*
X26036457Y23373087D01*
X26016502Y23145000D01*
X23668500Y23145000D01*
X23668500Y33048939D01*
X51231610Y33048939D01*
X51237488Y32930865D01*
X51246477Y32750297D01*
X51248147Y32716745D01*
X51248788Y32713014D01*
X51248789Y32713006D01*
X51300408Y32412607D01*
X51304474Y32388943D01*
X51305562Y32385304D01*
X51305563Y32385301D01*
X51366117Y32182824D01*
X51399774Y32070282D01*
X51401287Y32066811D01*
X51401289Y32066805D01*
X51443336Y31970334D01*
X51532666Y31765378D01*
X51534589Y31762107D01*
X51534591Y31762103D01*
X51601262Y31648692D01*
X51701226Y31478648D01*
X51703527Y31475633D01*
X51900712Y31217258D01*
X51900717Y31217252D01*
X51903012Y31214245D01*
X52135102Y30975998D01*
X52394132Y30767360D01*
X52476035Y30716281D01*
X52622818Y30624739D01*
X52676352Y30591352D01*
X52977672Y30450524D01*
X53293729Y30346915D01*
X53619944Y30282027D01*
X53623716Y30281740D01*
X53623724Y30281739D01*
X53947815Y30257086D01*
X53947820Y30257086D01*
X53951592Y30256799D01*
X54283869Y30271597D01*
X54288401Y30272351D01*
X54608220Y30325583D01*
X54608225Y30325584D01*
X54611961Y30326206D01*
X54931116Y30419836D01*
X54934583Y30421326D01*
X54934587Y30421327D01*
X55233228Y30549634D01*
X55233230Y30549635D01*
X55236712Y30551131D01*
X55524321Y30718187D01*
X55527343Y30720468D01*
X55527347Y30720471D01*
X55786753Y30916303D01*
X55786754Y30916304D01*
X55789777Y30918586D01*
X55811852Y30939866D01*
X72389500Y30939866D01*
X72396255Y30877684D01*
X72447385Y30741295D01*
X72534739Y30624739D01*
X72651295Y30537385D01*
X72787684Y30486255D01*
X72849866Y30479500D01*
X74470134Y30479500D01*
X74532316Y30486255D01*
X74668705Y30537385D01*
X74785261Y30624739D01*
X74829174Y30683332D01*
X74886033Y30725847D01*
X74956852Y30730873D01*
X75019145Y30696813D01*
X75030825Y30683333D01*
X75074739Y30624739D01*
X75191295Y30537385D01*
X75327684Y30486255D01*
X75389866Y30479500D01*
X77010134Y30479500D01*
X77072316Y30486255D01*
X77208705Y30537385D01*
X77325261Y30624739D01*
X77412615Y30741295D01*
X77463745Y30877684D01*
X77470500Y30939866D01*
X77470500Y32560134D01*
X77463745Y32622316D01*
X77412615Y32758705D01*
X77325261Y32875261D01*
X77208705Y32962615D01*
X77072316Y33013745D01*
X77010134Y33020500D01*
X75389866Y33020500D01*
X75327684Y33013745D01*
X75191295Y32962615D01*
X75074739Y32875261D01*
X75069358Y32868081D01*
X75030826Y32816668D01*
X74973967Y32774153D01*
X74903148Y32769127D01*
X74840855Y32803187D01*
X74829174Y32816668D01*
X74790642Y32868081D01*
X74785261Y32875261D01*
X74668705Y32962615D01*
X74532316Y33013745D01*
X74470134Y33020500D01*
X72849866Y33020500D01*
X72787684Y33013745D01*
X72651295Y32962615D01*
X72534739Y32875261D01*
X72447385Y32758705D01*
X72396255Y32622316D01*
X72389500Y32560134D01*
X72389500Y30939866D01*
X55811852Y30939866D01*
X56029235Y31149425D01*
X56239227Y31407359D01*
X56365562Y31607588D01*
X56414683Y31685440D01*
X56414685Y31685443D01*
X56416710Y31688653D01*
X56453233Y31765743D01*
X56546531Y31962674D01*
X56559114Y31989233D01*
X56664377Y32304743D01*
X56730972Y32630614D01*
X56757936Y32962125D01*
X56758317Y32998551D01*
X56758519Y33017779D01*
X56758519Y33017786D01*
X56758542Y33020000D01*
X56757026Y33045147D01*
X56738755Y33348228D01*
X56738754Y33348235D01*
X56738527Y33352003D01*
X56695088Y33589848D01*
X56679451Y33675470D01*
X56679450Y33675475D01*
X56678770Y33679197D01*
X56676599Y33686191D01*
X56581261Y33993229D01*
X56580139Y33996843D01*
X56444061Y34300338D01*
X56306696Y34528500D01*
X56274466Y34582034D01*
X56274462Y34582040D01*
X56272507Y34585287D01*
X56270180Y34588271D01*
X56270175Y34588278D01*
X56070294Y34844575D01*
X56070288Y34844582D01*
X56067963Y34847563D01*
X55833392Y35083366D01*
X55572191Y35289280D01*
X55288144Y35462323D01*
X55167046Y35517383D01*
X54988817Y35598420D01*
X54988809Y35598423D01*
X54985365Y35599989D01*
X54668240Y35700282D01*
X54445896Y35742094D01*
X54345087Y35761051D01*
X54345085Y35761051D01*
X54341364Y35761751D01*
X54009470Y35783504D01*
X54005690Y35783296D01*
X54005689Y35783296D01*
X53907918Y35777915D01*
X53677366Y35765227D01*
X53673639Y35764566D01*
X53673635Y35764566D01*
X53414510Y35718642D01*
X53349864Y35707185D01*
X53346239Y35706080D01*
X53346234Y35706079D01*
X53138683Y35642822D01*
X53031707Y35610218D01*
X53028243Y35608687D01*
X53028236Y35608684D01*
X52841051Y35525930D01*
X52727503Y35475731D01*
X52724249Y35473795D01*
X52724243Y35473792D01*
X52474089Y35324966D01*
X52441659Y35305672D01*
X52178316Y35102504D01*
X52175617Y35099848D01*
X52175618Y35099848D01*
X51956786Y34884427D01*
X51941288Y34869171D01*
X51734009Y34609051D01*
X51559481Y34325914D01*
X51420232Y34023860D01*
X51419073Y34020260D01*
X51419070Y34020253D01*
X51324572Y33726803D01*
X51318280Y33707265D01*
X51317561Y33703549D01*
X51317559Y33703541D01*
X51281447Y33516893D01*
X51255100Y33380715D01*
X51254833Y33376939D01*
X51254832Y33376934D01*
X51248015Y33280652D01*
X51231610Y33048939D01*
X23668500Y33048939D01*
X23668500Y34575000D01*
X26016502Y34575000D01*
X26036457Y34346913D01*
X26037881Y34341600D01*
X26037881Y34341598D01*
X26087235Y34157410D01*
X26095716Y34125757D01*
X26098039Y34120776D01*
X26098039Y34120775D01*
X26190151Y33923238D01*
X26190154Y33923233D01*
X26192477Y33918251D01*
X26323802Y33730700D01*
X26485700Y33568802D01*
X26490208Y33565645D01*
X26490211Y33565643D01*
X26559966Y33516800D01*
X26673251Y33437477D01*
X26678233Y33435154D01*
X26678238Y33435151D01*
X26864647Y33348228D01*
X26880757Y33340716D01*
X26886065Y33339294D01*
X26886067Y33339293D01*
X27096598Y33282881D01*
X27096600Y33282881D01*
X27101913Y33281457D01*
X27201480Y33272746D01*
X27270149Y33266738D01*
X27270156Y33266738D01*
X27272873Y33266500D01*
X27387127Y33266500D01*
X27389844Y33266738D01*
X27389851Y33266738D01*
X27458520Y33272746D01*
X27558087Y33281457D01*
X27563400Y33282881D01*
X27563402Y33282881D01*
X27773933Y33339293D01*
X27773935Y33339294D01*
X27779243Y33340716D01*
X27795353Y33348228D01*
X27981762Y33435151D01*
X27981767Y33435154D01*
X27986749Y33437477D01*
X28100034Y33516800D01*
X28169789Y33565643D01*
X28169792Y33565645D01*
X28174300Y33568802D01*
X28336198Y33730700D01*
X28467523Y33918251D01*
X28469846Y33923233D01*
X28469849Y33923238D01*
X28561961Y34120775D01*
X28561961Y34120776D01*
X28564284Y34125757D01*
X28572766Y34157410D01*
X28622119Y34341598D01*
X28622119Y34341600D01*
X28623543Y34346913D01*
X28643498Y34575000D01*
X28642848Y34582425D01*
X47266404Y34582425D01*
X47270560Y34536759D01*
X47284168Y34387237D01*
X47285218Y34375697D01*
X47286956Y34369791D01*
X47286957Y34369787D01*
X47299870Y34325914D01*
X47343827Y34176560D01*
X47439999Y33992600D01*
X47570071Y33830823D01*
X47574788Y33826865D01*
X47574790Y33826863D01*
X47631620Y33779177D01*
X47729089Y33697391D01*
X47734481Y33694427D01*
X47734485Y33694424D01*
X47905598Y33600354D01*
X47910995Y33597387D01*
X48108861Y33534621D01*
X48114978Y33533935D01*
X48114982Y33533934D01*
X48191598Y33525341D01*
X48270413Y33516500D01*
X48382237Y33516500D01*
X48385293Y33516800D01*
X48385300Y33516800D01*
X48530466Y33531034D01*
X48530469Y33531035D01*
X48536592Y33531635D01*
X48672605Y33572699D01*
X48729407Y33589848D01*
X48729410Y33589849D01*
X48735315Y33591632D01*
X48742635Y33595524D01*
X48913153Y33686191D01*
X48913155Y33686192D01*
X48918599Y33689087D01*
X48978471Y33737917D01*
X49074689Y33816390D01*
X49074692Y33816393D01*
X49079464Y33820285D01*
X49211783Y33980230D01*
X49215876Y33987799D01*
X49307584Y34157410D01*
X49307586Y34157415D01*
X49310514Y34162830D01*
X49371898Y34361129D01*
X49373429Y34375697D01*
X49392952Y34561446D01*
X49392952Y34561448D01*
X49393596Y34567575D01*
X49380042Y34716504D01*
X49375341Y34768164D01*
X49375340Y34768167D01*
X49374782Y34774303D01*
X49372298Y34782745D01*
X49317912Y34967531D01*
X49316173Y34973440D01*
X49220001Y35157400D01*
X49089929Y35319177D01*
X49077371Y35329715D01*
X48935629Y35448650D01*
X48930911Y35452609D01*
X48925519Y35455573D01*
X48925515Y35455576D01*
X48754402Y35549646D01*
X48749005Y35552613D01*
X48551139Y35615379D01*
X48545022Y35616065D01*
X48545018Y35616066D01*
X48468402Y35624659D01*
X48389587Y35633500D01*
X48277763Y35633500D01*
X48274707Y35633200D01*
X48274700Y35633200D01*
X48129534Y35618966D01*
X48129531Y35618965D01*
X48123408Y35618365D01*
X48010766Y35584357D01*
X47930593Y35560152D01*
X47930590Y35560151D01*
X47924685Y35558368D01*
X47919240Y35555473D01*
X47919238Y35555472D01*
X47746847Y35463809D01*
X47746845Y35463808D01*
X47741401Y35460913D01*
X47726365Y35448650D01*
X47585311Y35333610D01*
X47585308Y35333607D01*
X47580536Y35329715D01*
X47448217Y35169770D01*
X47445288Y35164353D01*
X47445286Y35164350D01*
X47352416Y34992590D01*
X47352414Y34992585D01*
X47349486Y34987170D01*
X47288102Y34788871D01*
X47287458Y34782746D01*
X47287458Y34782745D01*
X47277475Y34687756D01*
X47266404Y34582425D01*
X28642848Y34582425D01*
X28623543Y34803087D01*
X28574218Y34987170D01*
X28565707Y35018933D01*
X28565706Y35018935D01*
X28564284Y35024243D01*
X28526710Y35104821D01*
X28469849Y35226762D01*
X28469846Y35226767D01*
X28467523Y35231749D01*
X28336198Y35419300D01*
X28174300Y35581198D01*
X28169792Y35584355D01*
X28169789Y35584357D01*
X28091611Y35639098D01*
X27986749Y35712523D01*
X27981767Y35714846D01*
X27981762Y35714849D01*
X27784225Y35806961D01*
X27784224Y35806961D01*
X27779243Y35809284D01*
X27773935Y35810706D01*
X27773933Y35810707D01*
X27563402Y35867119D01*
X27563400Y35867119D01*
X27558087Y35868543D01*
X27458520Y35877254D01*
X27389851Y35883262D01*
X27389844Y35883262D01*
X27387127Y35883500D01*
X27272873Y35883500D01*
X27270156Y35883262D01*
X27270149Y35883262D01*
X27201480Y35877254D01*
X27101913Y35868543D01*
X27096600Y35867119D01*
X27096598Y35867119D01*
X26886067Y35810707D01*
X26886065Y35810706D01*
X26880757Y35809284D01*
X26875776Y35806961D01*
X26875775Y35806961D01*
X26678238Y35714849D01*
X26678233Y35714846D01*
X26673251Y35712523D01*
X26568389Y35639098D01*
X26490211Y35584357D01*
X26490208Y35584355D01*
X26485700Y35581198D01*
X26323802Y35419300D01*
X26192477Y35231749D01*
X26190154Y35226767D01*
X26190151Y35226762D01*
X26133290Y35104821D01*
X26095716Y35024243D01*
X26094294Y35018935D01*
X26094293Y35018933D01*
X26085782Y34987170D01*
X26036457Y34803087D01*
X26016502Y34575000D01*
X23668500Y34575000D01*
X23668500Y50692956D01*
X23688502Y50761077D01*
X23705405Y50782051D01*
X28921405Y55998051D01*
X28983717Y56032077D01*
X29054532Y56027012D01*
X29111368Y55984465D01*
X29136179Y55917945D01*
X29136500Y55908956D01*
X29136500Y45068744D01*
X29116498Y45000623D01*
X29112436Y44994683D01*
X29110379Y44991852D01*
X29105960Y44986944D01*
X29010473Y44821556D01*
X28951458Y44639928D01*
X28931496Y44450000D01*
X28951458Y44260072D01*
X29010473Y44078444D01*
X29105960Y43913056D01*
X29233747Y43771134D01*
X29388248Y43658882D01*
X29394276Y43656198D01*
X29394278Y43656197D01*
X29556681Y43583891D01*
X29562712Y43581206D01*
X29656113Y43561353D01*
X29743056Y43542872D01*
X29743061Y43542872D01*
X29749513Y43541500D01*
X29940487Y43541500D01*
X29946939Y43542872D01*
X29946944Y43542872D01*
X30033887Y43561353D01*
X30127288Y43581206D01*
X30133319Y43583891D01*
X30295722Y43656197D01*
X30295724Y43656198D01*
X30301752Y43658882D01*
X30456253Y43771134D01*
X30584040Y43913056D01*
X30679527Y44078444D01*
X30738542Y44260072D01*
X30758504Y44450000D01*
X30738542Y44639928D01*
X30679527Y44821556D01*
X30584040Y44986944D01*
X30579621Y44991852D01*
X30577564Y44994683D01*
X30553705Y45061551D01*
X30553500Y45068744D01*
X30553500Y56729416D01*
X30573502Y56797537D01*
X30590405Y56818511D01*
X31461405Y57689511D01*
X31523717Y57723537D01*
X31594532Y57718472D01*
X31651368Y57675925D01*
X31676179Y57609405D01*
X31676500Y57600416D01*
X31676500Y45068744D01*
X31656498Y45000623D01*
X31652436Y44994683D01*
X31650379Y44991852D01*
X31645960Y44986944D01*
X31550473Y44821556D01*
X31491458Y44639928D01*
X31471496Y44450000D01*
X31491458Y44260072D01*
X31550473Y44078444D01*
X31645960Y43913056D01*
X31773747Y43771134D01*
X31928248Y43658882D01*
X31934276Y43656198D01*
X31934278Y43656197D01*
X32096681Y43583891D01*
X32102712Y43581206D01*
X32196113Y43561353D01*
X32283056Y43542872D01*
X32283061Y43542872D01*
X32289513Y43541500D01*
X32480487Y43541500D01*
X32486939Y43542872D01*
X32486944Y43542872D01*
X32573887Y43561353D01*
X32667288Y43581206D01*
X32673319Y43583891D01*
X32835722Y43656197D01*
X32835724Y43656198D01*
X32841752Y43658882D01*
X32996253Y43771134D01*
X33124040Y43913056D01*
X33219527Y44078444D01*
X33278542Y44260072D01*
X33298504Y44450000D01*
X33278542Y44639928D01*
X33219527Y44821556D01*
X33124040Y44986944D01*
X33119621Y44991852D01*
X33117564Y44994683D01*
X33093705Y45061551D01*
X33093500Y45068744D01*
X33093500Y58420874D01*
X33113502Y58488995D01*
X33130405Y58509969D01*
X39081405Y64460969D01*
X39143717Y64494995D01*
X39214532Y64489930D01*
X39271368Y64447383D01*
X39296179Y64380863D01*
X39296500Y64371874D01*
X39296500Y45068744D01*
X39276498Y45000623D01*
X39272436Y44994683D01*
X39270379Y44991852D01*
X39265960Y44986944D01*
X39170473Y44821556D01*
X39111458Y44639928D01*
X39091496Y44450000D01*
X39111458Y44260072D01*
X39170473Y44078444D01*
X39265960Y43913056D01*
X39393747Y43771134D01*
X39548248Y43658882D01*
X39554276Y43656198D01*
X39554278Y43656197D01*
X39716681Y43583891D01*
X39722712Y43581206D01*
X39816113Y43561353D01*
X39903056Y43542872D01*
X39903061Y43542872D01*
X39909513Y43541500D01*
X40100487Y43541500D01*
X40106939Y43542872D01*
X40106944Y43542872D01*
X40193887Y43561353D01*
X40287288Y43581206D01*
X40293319Y43583891D01*
X40455722Y43656197D01*
X40455724Y43656198D01*
X40461752Y43658882D01*
X40616253Y43771134D01*
X40744040Y43913056D01*
X40839527Y44078444D01*
X40898542Y44260072D01*
X40918504Y44450000D01*
X40898542Y44639928D01*
X40839527Y44821556D01*
X40744040Y44986944D01*
X40739621Y44991852D01*
X40737564Y44994683D01*
X40713705Y45061551D01*
X40713500Y45068744D01*
X40713500Y65192332D01*
X40733502Y65260453D01*
X40750405Y65281427D01*
X44161405Y68692427D01*
X44223717Y68726453D01*
X44294532Y68721388D01*
X44351368Y68678841D01*
X44376179Y68612321D01*
X44376500Y68603332D01*
X44376500Y45068744D01*
X44356498Y45000623D01*
X44352436Y44994683D01*
X44350379Y44991852D01*
X44345960Y44986944D01*
X44250473Y44821556D01*
X44191458Y44639928D01*
X44171496Y44450000D01*
X44191458Y44260072D01*
X44250473Y44078444D01*
X44345960Y43913056D01*
X44473747Y43771134D01*
X44628248Y43658882D01*
X44634276Y43656198D01*
X44634278Y43656197D01*
X44796681Y43583891D01*
X44802712Y43581206D01*
X44896113Y43561353D01*
X44983056Y43542872D01*
X44983061Y43542872D01*
X44989513Y43541500D01*
X45180487Y43541500D01*
X45186939Y43542872D01*
X45186944Y43542872D01*
X45273887Y43561353D01*
X45367288Y43581206D01*
X45373319Y43583891D01*
X45535722Y43656197D01*
X45535724Y43656198D01*
X45541752Y43658882D01*
X45696253Y43771134D01*
X45824040Y43913056D01*
X45919527Y44078444D01*
X45978542Y44260072D01*
X45998504Y44450000D01*
X45978542Y44639928D01*
X45919527Y44821556D01*
X45824040Y44986944D01*
X45819621Y44991852D01*
X45817564Y44994683D01*
X45793705Y45061551D01*
X45793500Y45068744D01*
X45793500Y69423790D01*
X45813502Y69491911D01*
X45830405Y69512885D01*
X49260822Y72943301D01*
X49323134Y72977327D01*
X49393950Y72972262D01*
X49443553Y72938517D01*
X49553747Y72816134D01*
X49617526Y72769796D01*
X49701134Y72709051D01*
X49708248Y72703882D01*
X49714276Y72701198D01*
X49714278Y72701197D01*
X49859009Y72636759D01*
X49882712Y72626206D01*
X49889173Y72624833D01*
X49889178Y72624831D01*
X49991697Y72603039D01*
X50054171Y72569311D01*
X50088492Y72507161D01*
X50091500Y72479793D01*
X50091500Y62258912D01*
X50091208Y62250342D01*
X50087275Y62192648D01*
X50088580Y62185171D01*
X50088580Y62185170D01*
X50098261Y62129701D01*
X50099223Y62123179D01*
X50106898Y62059758D01*
X50109581Y62052657D01*
X50110222Y62050048D01*
X50114685Y62033738D01*
X50115450Y62031202D01*
X50116757Y62023716D01*
X50122232Y62011245D01*
X50142442Y61965205D01*
X50144933Y61959101D01*
X50147822Y61951455D01*
X50161550Y61915126D01*
X50167513Y61899344D01*
X50171817Y61893081D01*
X50173054Y61890715D01*
X50181299Y61875903D01*
X50182632Y61873649D01*
X50185685Y61866695D01*
X50222014Y61819352D01*
X50224579Y61816009D01*
X50228459Y61810668D01*
X50260339Y61764280D01*
X50260344Y61764275D01*
X50264643Y61758019D01*
X50270313Y61752968D01*
X50270314Y61752966D01*
X50311170Y61716565D01*
X50316446Y61711584D01*
X53675335Y58352695D01*
X53709361Y58290383D01*
X53711550Y58276772D01*
X53716458Y58230072D01*
X53775473Y58048444D01*
X53870960Y57883056D01*
X53875378Y57878149D01*
X53875379Y57878148D01*
X53901500Y57849138D01*
X53998747Y57741134D01*
X54153248Y57628882D01*
X54159276Y57626198D01*
X54159278Y57626197D01*
X54321681Y57553891D01*
X54327712Y57551206D01*
X54421113Y57531353D01*
X54508056Y57512872D01*
X54508061Y57512872D01*
X54514513Y57511500D01*
X54705487Y57511500D01*
X54711939Y57512872D01*
X54711944Y57512872D01*
X54854303Y57543132D01*
X54925094Y57537730D01*
X54981726Y57494913D01*
X55006220Y57428276D01*
X55006500Y57419885D01*
X55006500Y40029016D01*
X55006451Y40025498D01*
X55003666Y39925795D01*
X55004335Y39920781D01*
X55014058Y39847914D01*
X55014758Y39841361D01*
X55021060Y39763035D01*
X55028897Y39731130D01*
X55031426Y39717742D01*
X55035771Y39685180D01*
X55037232Y39680339D01*
X55037233Y39680337D01*
X55058478Y39609971D01*
X55060219Y39603610D01*
X55078963Y39527294D01*
X55080941Y39522634D01*
X55091801Y39497049D01*
X55096438Y39484239D01*
X55105933Y39452792D01*
X55108151Y39448244D01*
X55108154Y39448237D01*
X55140371Y39382182D01*
X55143107Y39376180D01*
X55173812Y39303844D01*
X55176504Y39299570D01*
X55191319Y39276044D01*
X55197945Y39264140D01*
X55212346Y39234612D01*
X55215265Y39230475D01*
X55215265Y39230474D01*
X55257641Y39170403D01*
X55261301Y39164914D01*
X55281598Y39132684D01*
X55303167Y39098433D01*
X55306508Y39094644D01*
X55306512Y39094638D01*
X55324898Y39073783D01*
X55333344Y39063088D01*
X55352274Y39036253D01*
X55371909Y39014750D01*
X55411625Y38975034D01*
X55417044Y38969264D01*
X55460350Y38920142D01*
X55460353Y38920139D01*
X55463698Y38916345D01*
X55467606Y38913135D01*
X55467607Y38913134D01*
X55495989Y38889821D01*
X55505108Y38881551D01*
X62416325Y31970334D01*
X62418779Y31967812D01*
X62487332Y31895319D01*
X62549757Y31847592D01*
X62554892Y31843448D01*
X62614720Y31792530D01*
X62619045Y31789911D01*
X62619050Y31789907D01*
X62642824Y31775509D01*
X62654071Y31767837D01*
X62680174Y31747880D01*
X62684632Y31745490D01*
X62684633Y31745489D01*
X62749401Y31710761D01*
X62755126Y31707496D01*
X62822358Y31666779D01*
X62852817Y31654473D01*
X62865158Y31648693D01*
X62894109Y31633169D01*
X62898890Y31631523D01*
X62898894Y31631521D01*
X62968401Y31607588D01*
X62974579Y31605278D01*
X63010176Y31590896D01*
X63047429Y31575845D01*
X63052369Y31574723D01*
X63052368Y31574723D01*
X63079460Y31568568D01*
X63092559Y31564837D01*
X63123631Y31554138D01*
X63128608Y31553278D01*
X63128621Y31553275D01*
X63201071Y31540761D01*
X63207540Y31539469D01*
X63279215Y31523185D01*
X63284145Y31522065D01*
X63316951Y31520001D01*
X63330455Y31518414D01*
X63352683Y31514575D01*
X63358933Y31513495D01*
X63358936Y31513495D01*
X63362836Y31512821D01*
X63366793Y31512641D01*
X63366796Y31512641D01*
X63390506Y31511564D01*
X63390525Y31511564D01*
X63391925Y31511500D01*
X63448108Y31511500D01*
X63456019Y31511251D01*
X63526413Y31506822D01*
X63567993Y31510899D01*
X63580289Y31511500D01*
X69004158Y31511500D01*
X69062825Y31497008D01*
X69237688Y31405008D01*
X69237702Y31405002D01*
X69241834Y31402828D01*
X69246242Y31401289D01*
X69246248Y31401286D01*
X69484174Y31318198D01*
X69488590Y31316656D01*
X69493183Y31315784D01*
X69740785Y31268776D01*
X69740788Y31268776D01*
X69745374Y31267905D01*
X69875958Y31262774D01*
X70001875Y31257826D01*
X70001881Y31257826D01*
X70006543Y31257643D01*
X70085977Y31266343D01*
X70261707Y31285588D01*
X70261712Y31285589D01*
X70266360Y31286098D01*
X70379116Y31315784D01*
X70514594Y31351452D01*
X70514596Y31351453D01*
X70519117Y31352643D01*
X70759262Y31455818D01*
X70848273Y31510899D01*
X70977547Y31590896D01*
X70977548Y31590896D01*
X70981519Y31593354D01*
X70985082Y31596371D01*
X70985087Y31596374D01*
X71177439Y31759213D01*
X71177440Y31759214D01*
X71181005Y31762232D01*
X71295030Y31892252D01*
X71350257Y31955226D01*
X71350261Y31955231D01*
X71353339Y31958741D01*
X71359979Y31969063D01*
X71492205Y32174633D01*
X71494733Y32178563D01*
X71602083Y32416871D01*
X71643786Y32564737D01*
X71671760Y32663924D01*
X71671761Y32663927D01*
X71673030Y32668428D01*
X71699342Y32875261D01*
X71705616Y32924579D01*
X71705616Y32924583D01*
X71706014Y32927709D01*
X71708431Y33020000D01*
X71689061Y33280652D01*
X71667275Y33376934D01*
X71632408Y33531020D01*
X71631377Y33535577D01*
X71616941Y33572699D01*
X71538340Y33774824D01*
X71538339Y33774827D01*
X71536647Y33779177D01*
X71504386Y33835623D01*
X71424449Y33975482D01*
X71406951Y34006098D01*
X71245138Y34211357D01*
X71054763Y34390443D01*
X70840009Y34539424D01*
X70821601Y34548502D01*
X70609781Y34652960D01*
X70609778Y34652961D01*
X70605593Y34655025D01*
X70559449Y34669796D01*
X70361123Y34733280D01*
X70356665Y34734707D01*
X70098693Y34776721D01*
X69984942Y34778210D01*
X69842022Y34780081D01*
X69842019Y34780081D01*
X69837345Y34780142D01*
X69578362Y34744896D01*
X69573876Y34743588D01*
X69573874Y34743588D01*
X69545988Y34735460D01*
X69327433Y34671757D01*
X69323180Y34669797D01*
X69323179Y34669796D01*
X69286659Y34652960D01*
X69090072Y34562332D01*
X69086160Y34559767D01*
X69069934Y34549129D01*
X69000848Y34528500D01*
X64177031Y34528500D01*
X64108910Y34548502D01*
X64087936Y34565405D01*
X64027897Y34625444D01*
X63993871Y34687756D01*
X63998936Y34758571D01*
X64023354Y34798846D01*
X64100411Y34884427D01*
X64195898Y35049815D01*
X64254913Y35231443D01*
X64261200Y35291255D01*
X64274185Y35414806D01*
X64274875Y35421371D01*
X64256102Y35599989D01*
X64255603Y35604736D01*
X64255603Y35604738D01*
X64254913Y35611299D01*
X64195898Y35792927D01*
X64187796Y35806961D01*
X64143743Y35883262D01*
X64100411Y35958315D01*
X63972624Y36100237D01*
X63818123Y36212489D01*
X63812095Y36215173D01*
X63812093Y36215174D01*
X63649690Y36287480D01*
X63649689Y36287480D01*
X63643659Y36290165D01*
X63490802Y36322656D01*
X63427904Y36356808D01*
X63129846Y36654866D01*
X72389500Y36654866D01*
X72396255Y36592684D01*
X72447385Y36456295D01*
X72534739Y36339739D01*
X72651295Y36252385D01*
X72787684Y36201255D01*
X72849866Y36194500D01*
X74470134Y36194500D01*
X74532316Y36201255D01*
X74668705Y36252385D01*
X74785261Y36339739D01*
X74872615Y36456295D01*
X74923745Y36592684D01*
X74930500Y36654866D01*
X74930500Y38275134D01*
X74923745Y38337316D01*
X74872615Y38473705D01*
X74785261Y38590261D01*
X74726668Y38634174D01*
X74684153Y38691033D01*
X74679127Y38761852D01*
X74713187Y38824145D01*
X74726668Y38835826D01*
X74778081Y38874358D01*
X74785261Y38879739D01*
X74829174Y38938332D01*
X74886033Y38980847D01*
X74956852Y38985873D01*
X75019145Y38951813D01*
X75030825Y38938333D01*
X75074739Y38879739D01*
X75191295Y38792385D01*
X75327684Y38741255D01*
X75389866Y38734500D01*
X77010134Y38734500D01*
X77072316Y38741255D01*
X77208705Y38792385D01*
X77325261Y38879739D01*
X77412615Y38996295D01*
X77463745Y39132684D01*
X77470500Y39194866D01*
X77470500Y40815134D01*
X77463745Y40877316D01*
X77412615Y41013705D01*
X77325261Y41130261D01*
X77208705Y41217615D01*
X77072316Y41268745D01*
X77010134Y41275500D01*
X75389866Y41275500D01*
X75327684Y41268745D01*
X75191295Y41217615D01*
X75074739Y41130261D01*
X75069358Y41123081D01*
X75030826Y41071668D01*
X74973967Y41029153D01*
X74903148Y41024127D01*
X74840855Y41058187D01*
X74829174Y41071668D01*
X74790642Y41123081D01*
X74785261Y41130261D01*
X74668705Y41217615D01*
X74532316Y41268745D01*
X74470134Y41275500D01*
X72849866Y41275500D01*
X72787684Y41268745D01*
X72651295Y41217615D01*
X72534739Y41130261D01*
X72447385Y41013705D01*
X72396255Y40877316D01*
X72389500Y40815134D01*
X72389500Y39194866D01*
X72396255Y39132684D01*
X72447385Y38996295D01*
X72534739Y38879739D01*
X72541919Y38874358D01*
X72593332Y38835826D01*
X72635847Y38778967D01*
X72640873Y38708148D01*
X72606813Y38645855D01*
X72593333Y38634175D01*
X72534739Y38590261D01*
X72447385Y38473705D01*
X72396255Y38337316D01*
X72389500Y38275134D01*
X72389500Y36654866D01*
X63129846Y36654866D01*
X59831083Y39953629D01*
X59797057Y40015941D01*
X59802122Y40086756D01*
X59826541Y40127034D01*
X59903597Y40212613D01*
X59999084Y40378001D01*
X60019911Y40442099D01*
X60050649Y40492257D01*
X66601460Y47043068D01*
X66671584Y47112704D01*
X66671587Y47112707D01*
X66674082Y47115185D01*
X66674740Y47116222D01*
X66675838Y47117446D01*
X67210466Y47652075D01*
X67210470Y47652078D01*
X67236455Y47678063D01*
X67272790Y47714145D01*
X67306584Y47747704D01*
X67306587Y47747707D01*
X67309082Y47750185D01*
X67309740Y47751222D01*
X67310838Y47752446D01*
X67453097Y47894705D01*
X67607986Y48049595D01*
X67670299Y48083620D01*
X67697082Y48086500D01*
X70429095Y48086500D01*
X70444014Y48085614D01*
X70479320Y48081404D01*
X70486323Y48082140D01*
X70486324Y48082140D01*
X70521240Y48085810D01*
X70534411Y48086500D01*
X72285004Y48086500D01*
X72353125Y48066498D01*
X72399618Y48012842D01*
X72402986Y48004729D01*
X72447385Y47886295D01*
X72534739Y47769739D01*
X72541919Y47764358D01*
X72593332Y47725826D01*
X72635847Y47668967D01*
X72640873Y47598148D01*
X72606813Y47535855D01*
X72593333Y47524175D01*
X72534739Y47480261D01*
X72447385Y47363705D01*
X72396255Y47227316D01*
X72389500Y47165134D01*
X72389500Y45544866D01*
X72396255Y45482684D01*
X72447385Y45346295D01*
X72534739Y45229739D01*
X72651295Y45142385D01*
X72787684Y45091255D01*
X72849866Y45084500D01*
X74470134Y45084500D01*
X74532316Y45091255D01*
X74668705Y45142385D01*
X74785261Y45229739D01*
X74829174Y45288332D01*
X74886033Y45330847D01*
X74956852Y45335873D01*
X75019145Y45301813D01*
X75030825Y45288333D01*
X75074739Y45229739D01*
X75191295Y45142385D01*
X75327684Y45091255D01*
X75389866Y45084500D01*
X77010134Y45084500D01*
X77072316Y45091255D01*
X77208705Y45142385D01*
X77325261Y45229739D01*
X77412615Y45346295D01*
X77463745Y45482684D01*
X77470500Y45544866D01*
X77470500Y47165134D01*
X77463745Y47227316D01*
X77412615Y47363705D01*
X77325261Y47480261D01*
X77266668Y47524174D01*
X77224153Y47581033D01*
X77219127Y47651852D01*
X77253187Y47714145D01*
X77266668Y47725826D01*
X77318081Y47764358D01*
X77325261Y47769739D01*
X77412615Y47886295D01*
X77463745Y48022684D01*
X77470500Y48084866D01*
X77470500Y49705134D01*
X77463745Y49767316D01*
X77412615Y49903705D01*
X77325261Y50020261D01*
X77266668Y50064174D01*
X77224153Y50121033D01*
X77219127Y50191852D01*
X77253187Y50254145D01*
X77266668Y50265826D01*
X77318081Y50304358D01*
X77325261Y50309739D01*
X77412615Y50426295D01*
X77463745Y50562684D01*
X77470500Y50624866D01*
X77470500Y52245134D01*
X77463745Y52307316D01*
X77412615Y52443705D01*
X77325261Y52560261D01*
X77208705Y52647615D01*
X77072316Y52698745D01*
X77010134Y52705500D01*
X75389866Y52705500D01*
X75327684Y52698745D01*
X75191295Y52647615D01*
X75074739Y52560261D01*
X75069358Y52553081D01*
X75030826Y52501668D01*
X74973967Y52459153D01*
X74903148Y52454127D01*
X74840855Y52488187D01*
X74829174Y52501668D01*
X74790642Y52553081D01*
X74785261Y52560261D01*
X74668705Y52647615D01*
X74532316Y52698745D01*
X74470134Y52705500D01*
X72849866Y52705500D01*
X72787684Y52698745D01*
X72651295Y52647615D01*
X72534739Y52560261D01*
X72447385Y52443705D01*
X72396255Y52307316D01*
X72389500Y52245134D01*
X72389500Y50624866D01*
X72396255Y50562684D01*
X72447385Y50426295D01*
X72534739Y50309739D01*
X72541919Y50304358D01*
X72593332Y50265826D01*
X72635847Y50208967D01*
X72640873Y50138148D01*
X72606813Y50075855D01*
X72593333Y50064175D01*
X72534739Y50020261D01*
X72447385Y49903705D01*
X72444233Y49895297D01*
X72444232Y49895295D01*
X72402986Y49785271D01*
X72360345Y49728506D01*
X72293783Y49703806D01*
X72285004Y49703500D01*
X71419500Y49703500D01*
X71351379Y49723502D01*
X71304886Y49777158D01*
X71293500Y49829500D01*
X71293500Y56823335D01*
X71293507Y56824654D01*
X71294376Y56907674D01*
X71294450Y56914721D01*
X71285290Y56957086D01*
X71283230Y56969665D01*
X71282647Y56974866D01*
X72389500Y56974866D01*
X72396255Y56912684D01*
X72447385Y56776295D01*
X72534739Y56659739D01*
X72651295Y56572385D01*
X72787684Y56521255D01*
X72849866Y56514500D01*
X74470134Y56514500D01*
X74532316Y56521255D01*
X74668705Y56572385D01*
X74785261Y56659739D01*
X74829174Y56718332D01*
X74886033Y56760847D01*
X74956852Y56765873D01*
X75019145Y56731813D01*
X75030825Y56718333D01*
X75074739Y56659739D01*
X75191295Y56572385D01*
X75327684Y56521255D01*
X75389866Y56514500D01*
X77010134Y56514500D01*
X77072316Y56521255D01*
X77208705Y56572385D01*
X77325261Y56659739D01*
X77412615Y56776295D01*
X77463745Y56912684D01*
X77470500Y56974866D01*
X77470500Y58595134D01*
X77463745Y58657316D01*
X77412615Y58793705D01*
X77325261Y58910261D01*
X77266668Y58954174D01*
X77224153Y59011033D01*
X77219127Y59081852D01*
X77253187Y59144145D01*
X77266668Y59155826D01*
X77318081Y59194358D01*
X77325261Y59199739D01*
X77412615Y59316295D01*
X77463745Y59452684D01*
X77470500Y59514866D01*
X77470500Y61135134D01*
X77463745Y61197316D01*
X77412615Y61333705D01*
X77325261Y61450261D01*
X77266668Y61494174D01*
X77224153Y61551033D01*
X77219127Y61621852D01*
X77253187Y61684145D01*
X77266668Y61695826D01*
X77318081Y61734358D01*
X77325261Y61739739D01*
X77412615Y61856295D01*
X77463745Y61992684D01*
X77470500Y62054866D01*
X77470500Y63675134D01*
X77463745Y63737316D01*
X77412615Y63873705D01*
X77325261Y63990261D01*
X77266668Y64034174D01*
X77224153Y64091033D01*
X77219127Y64161852D01*
X77253187Y64224145D01*
X77266668Y64235826D01*
X77318081Y64274358D01*
X77325261Y64279739D01*
X77412615Y64396295D01*
X77463745Y64532684D01*
X77470500Y64594866D01*
X77470500Y66215134D01*
X77463745Y66277316D01*
X77412615Y66413705D01*
X77325261Y66530261D01*
X77208705Y66617615D01*
X77072316Y66668745D01*
X77010134Y66675500D01*
X75389866Y66675500D01*
X75327684Y66668745D01*
X75191295Y66617615D01*
X75074739Y66530261D01*
X75069358Y66523081D01*
X75030826Y66471668D01*
X74973967Y66429153D01*
X74903148Y66424127D01*
X74840855Y66458187D01*
X74829174Y66471668D01*
X74790642Y66523081D01*
X74785261Y66530261D01*
X74668705Y66617615D01*
X74532316Y66668745D01*
X74470134Y66675500D01*
X72849866Y66675500D01*
X72787684Y66668745D01*
X72651295Y66617615D01*
X72534739Y66530261D01*
X72447385Y66413705D01*
X72396255Y66277316D01*
X72389500Y66215134D01*
X72389500Y64594866D01*
X72396255Y64532684D01*
X72447385Y64396295D01*
X72534739Y64279739D01*
X72541919Y64274358D01*
X72593332Y64235826D01*
X72635847Y64178967D01*
X72640873Y64108148D01*
X72606813Y64045855D01*
X72593333Y64034175D01*
X72534739Y63990261D01*
X72447385Y63873705D01*
X72396255Y63737316D01*
X72389500Y63675134D01*
X72389500Y62054866D01*
X72396255Y61992684D01*
X72447385Y61856295D01*
X72534739Y61739739D01*
X72541919Y61734358D01*
X72593332Y61695826D01*
X72635847Y61638967D01*
X72640873Y61568148D01*
X72606813Y61505855D01*
X72593333Y61494175D01*
X72534739Y61450261D01*
X72447385Y61333705D01*
X72396255Y61197316D01*
X72389500Y61135134D01*
X72389500Y59514866D01*
X72396255Y59452684D01*
X72447385Y59316295D01*
X72534739Y59199739D01*
X72541919Y59194358D01*
X72593332Y59155826D01*
X72635847Y59098967D01*
X72640873Y59028148D01*
X72606813Y58965855D01*
X72593333Y58954175D01*
X72534739Y58910261D01*
X72447385Y58793705D01*
X72396255Y58657316D01*
X72389500Y58595134D01*
X72389500Y56974866D01*
X71282647Y56974866D01*
X71279182Y57005759D01*
X71279181Y57005762D01*
X71278397Y57012755D01*
X71267366Y57044432D01*
X71263204Y57059242D01*
X71257609Y57085122D01*
X71257608Y57085126D01*
X71256119Y57092011D01*
X71253142Y57098395D01*
X71253140Y57098401D01*
X71237796Y57131307D01*
X71233000Y57143117D01*
X71221061Y57177400D01*
X71218745Y57184052D01*
X71215013Y57190024D01*
X71215010Y57190031D01*
X71200973Y57212495D01*
X71193634Y57226012D01*
X71182439Y57250019D01*
X71182437Y57250023D01*
X71179462Y57256402D01*
X71152892Y57290656D01*
X71145598Y57301112D01*
X71122626Y57337876D01*
X71094017Y57366685D01*
X71093434Y57367308D01*
X71092921Y57367970D01*
X71067074Y57393817D01*
X70994815Y57466582D01*
X70993777Y57467241D01*
X70992544Y57468347D01*
X66926092Y61534800D01*
X66895354Y61584958D01*
X66876568Y61642775D01*
X66876567Y61642776D01*
X66874527Y61649056D01*
X66779040Y61814444D01*
X66714551Y61886067D01*
X66655675Y61951455D01*
X66655674Y61951456D01*
X66651253Y61956366D01*
X66544760Y62033738D01*
X66502094Y62064737D01*
X66502093Y62064738D01*
X66496752Y62068618D01*
X66490724Y62071302D01*
X66490722Y62071303D01*
X66328319Y62143609D01*
X66328318Y62143609D01*
X66322288Y62146294D01*
X66228888Y62166147D01*
X66141944Y62184628D01*
X66141939Y62184628D01*
X66135487Y62186000D01*
X65944513Y62186000D01*
X65938061Y62184628D01*
X65938056Y62184628D01*
X65851112Y62166147D01*
X65757712Y62146294D01*
X65751682Y62143609D01*
X65751681Y62143609D01*
X65646755Y62096893D01*
X65595506Y62086000D01*
X61286714Y62086000D01*
X61285394Y62086007D01*
X61284319Y62086018D01*
X61195279Y62086951D01*
X61152903Y62077789D01*
X61140337Y62075731D01*
X61097245Y62070897D01*
X61090594Y62068581D01*
X61090590Y62068580D01*
X61065570Y62059867D01*
X61050758Y62055704D01*
X61025594Y62050263D01*
X61017990Y62048619D01*
X60978687Y62030292D01*
X60966911Y62025510D01*
X60925948Y62011245D01*
X60919973Y62007511D01*
X60919970Y62007510D01*
X60897505Y61993473D01*
X60883988Y61986134D01*
X60859986Y61974941D01*
X60853598Y61971962D01*
X60848033Y61967645D01*
X60848031Y61967644D01*
X60819347Y61945394D01*
X60808888Y61938098D01*
X60778096Y61918858D01*
X60778093Y61918856D01*
X60772124Y61915126D01*
X60767129Y61910166D01*
X60767128Y61910165D01*
X60743321Y61886524D01*
X60742696Y61885939D01*
X60742030Y61885422D01*
X60716042Y61859434D01*
X60707673Y61851123D01*
X60670136Y61825421D01*
X60509281Y61753805D01*
X60509274Y61753801D01*
X60503248Y61751118D01*
X60497907Y61747238D01*
X60497906Y61747237D01*
X60487586Y61739739D01*
X60348747Y61638866D01*
X60344326Y61633956D01*
X60344325Y61633955D01*
X60255046Y61534800D01*
X60220960Y61496944D01*
X60217659Y61491226D01*
X60130863Y61340891D01*
X60125473Y61331556D01*
X60066458Y61149928D01*
X60046496Y60960000D01*
X60066458Y60770072D01*
X60125473Y60588444D01*
X60220960Y60423056D01*
X60348747Y60281134D01*
X60503248Y60168882D01*
X60509276Y60166198D01*
X60509278Y60166197D01*
X60671681Y60093891D01*
X60677712Y60091206D01*
X60771112Y60071353D01*
X60858056Y60052872D01*
X60858061Y60052872D01*
X60864513Y60051500D01*
X61055487Y60051500D01*
X61061939Y60052872D01*
X61061944Y60052872D01*
X61148888Y60071353D01*
X61242288Y60091206D01*
X61248319Y60093891D01*
X61410722Y60166197D01*
X61410724Y60166198D01*
X61416752Y60168882D01*
X61571253Y60281134D01*
X61699040Y60423056D01*
X61700223Y60421991D01*
X61750058Y60460417D01*
X61795767Y60469000D01*
X65595506Y60469000D01*
X65646754Y60458107D01*
X65750241Y60412032D01*
X65788088Y60386020D01*
X69639595Y56534513D01*
X69673621Y56472201D01*
X69676500Y56445418D01*
X69676500Y49829500D01*
X69656498Y49761379D01*
X69602842Y49714886D01*
X69550500Y49703500D01*
X67488727Y49703500D01*
X67420606Y49723502D01*
X67374113Y49777158D01*
X67364009Y49847432D01*
X67368894Y49868436D01*
X67401502Y49968794D01*
X67403542Y49975072D01*
X67408292Y50020261D01*
X67422814Y50158435D01*
X67423504Y50165000D01*
X67422814Y50171565D01*
X67422814Y50178171D01*
X67424561Y50178171D01*
X67435781Y50239535D01*
X67459225Y50271965D01*
X68311855Y51124595D01*
X68374167Y51158621D01*
X68400950Y51161500D01*
X68421487Y51161500D01*
X68427939Y51162872D01*
X68427944Y51162872D01*
X68514888Y51181353D01*
X68608288Y51201206D01*
X68614319Y51203891D01*
X68776722Y51276197D01*
X68776724Y51276198D01*
X68782752Y51278882D01*
X68937253Y51391134D01*
X69065040Y51533056D01*
X69160527Y51698444D01*
X69219542Y51880072D01*
X69239504Y52070000D01*
X69219542Y52259928D01*
X69160527Y52441556D01*
X69155138Y52450891D01*
X69068341Y52601226D01*
X69065040Y52606944D01*
X68937253Y52748866D01*
X68782752Y52861118D01*
X68776724Y52863802D01*
X68776722Y52863803D01*
X68614319Y52936109D01*
X68614318Y52936109D01*
X68608288Y52938794D01*
X68514887Y52958647D01*
X68427944Y52977128D01*
X68427939Y52977128D01*
X68421487Y52978500D01*
X68230513Y52978500D01*
X68224061Y52977128D01*
X68224056Y52977128D01*
X68137113Y52958647D01*
X68043712Y52938794D01*
X68037682Y52936109D01*
X68037681Y52936109D01*
X67875278Y52863803D01*
X67875276Y52863802D01*
X67869248Y52861118D01*
X67714747Y52748866D01*
X67586960Y52606944D01*
X67583659Y52601226D01*
X67496863Y52450891D01*
X67491473Y52441556D01*
X67489431Y52435271D01*
X67450260Y52314715D01*
X67432458Y52259928D01*
X67431768Y52253365D01*
X67431768Y52253364D01*
X67419245Y52134214D01*
X67392232Y52068558D01*
X67383030Y52058290D01*
X66420240Y51095500D01*
X66357342Y51061348D01*
X66304307Y51050075D01*
X66227712Y51033794D01*
X66221682Y51031109D01*
X66221681Y51031109D01*
X66059278Y50958803D01*
X66059276Y50958802D01*
X66053248Y50956118D01*
X65898747Y50843866D01*
X65894326Y50838956D01*
X65894325Y50838955D01*
X65824204Y50761077D01*
X65770960Y50701944D01*
X65675473Y50536556D01*
X65616458Y50354928D01*
X65615768Y50348367D01*
X65615768Y50348365D01*
X65611143Y50304358D01*
X65596496Y50165000D01*
X65597186Y50158435D01*
X65611709Y50020261D01*
X65616458Y49975072D01*
X65675473Y49793444D01*
X65770960Y49628056D01*
X65898747Y49486134D01*
X65989009Y49420554D01*
X66022205Y49396436D01*
X66065559Y49340213D01*
X66071634Y49269477D01*
X66038502Y49206686D01*
X65976682Y49171774D01*
X65948144Y49168500D01*
X65829513Y49168500D01*
X65823061Y49167128D01*
X65823056Y49167128D01*
X65736113Y49148647D01*
X65642712Y49128794D01*
X65636682Y49126109D01*
X65636681Y49126109D01*
X65474278Y49053803D01*
X65474276Y49053802D01*
X65468248Y49051118D01*
X65313747Y48938866D01*
X65185960Y48796944D01*
X65090473Y48631556D01*
X65031458Y48449928D01*
X65011496Y48260000D01*
X65012186Y48253435D01*
X65030190Y48082140D01*
X65031458Y48070072D01*
X65042861Y48034977D01*
X65083676Y47909361D01*
X65085703Y47838393D01*
X65052938Y47781330D01*
X59038595Y41766987D01*
X58976283Y41732961D01*
X58905468Y41738026D01*
X58848632Y41780573D01*
X58823821Y41847093D01*
X58823500Y41856082D01*
X58823500Y57801256D01*
X58843502Y57869377D01*
X58847564Y57875317D01*
X58849621Y57878148D01*
X58854040Y57883056D01*
X58949527Y58048444D01*
X59008542Y58230072D01*
X59028504Y58420000D01*
X59008542Y58609928D01*
X58949527Y58791556D01*
X58944138Y58800891D01*
X58857341Y58951226D01*
X58854040Y58956944D01*
X58741573Y59081852D01*
X58730675Y59093955D01*
X58730674Y59093956D01*
X58726253Y59098866D01*
X58587414Y59199739D01*
X58577094Y59207237D01*
X58577093Y59207238D01*
X58571752Y59211118D01*
X58565724Y59213802D01*
X58565722Y59213803D01*
X58403319Y59286109D01*
X58403318Y59286109D01*
X58397288Y59288794D01*
X58301714Y59309109D01*
X58216944Y59327128D01*
X58216939Y59327128D01*
X58210487Y59328500D01*
X58149500Y59328500D01*
X58081379Y59348502D01*
X58034886Y59402158D01*
X58023500Y59454500D01*
X58023500Y64092969D01*
X58043502Y64161090D01*
X58060405Y64182064D01*
X63452936Y69574595D01*
X63515248Y69608621D01*
X63542031Y69611500D01*
X69004158Y69611500D01*
X69062825Y69597008D01*
X69237688Y69505008D01*
X69237702Y69505002D01*
X69241834Y69502828D01*
X69246242Y69501289D01*
X69246248Y69501286D01*
X69484174Y69418198D01*
X69488590Y69416656D01*
X69493183Y69415784D01*
X69740785Y69368776D01*
X69740788Y69368776D01*
X69745374Y69367905D01*
X69875959Y69362774D01*
X70001875Y69357826D01*
X70001881Y69357826D01*
X70006543Y69357643D01*
X70085977Y69366343D01*
X70261707Y69385588D01*
X70261712Y69385589D01*
X70266360Y69386098D01*
X70379116Y69415784D01*
X70514594Y69451452D01*
X70514596Y69451453D01*
X70519117Y69452643D01*
X70532501Y69458393D01*
X70754972Y69553975D01*
X70759262Y69555818D01*
X70789606Y69574595D01*
X70977547Y69690896D01*
X70977548Y69690896D01*
X70981519Y69693354D01*
X70985082Y69696371D01*
X70985087Y69696374D01*
X71177439Y69859213D01*
X71177440Y69859214D01*
X71181005Y69862232D01*
X71256271Y69948056D01*
X71350257Y70055226D01*
X71350261Y70055231D01*
X71353339Y70058741D01*
X71494733Y70278563D01*
X71602083Y70516871D01*
X71662365Y70730614D01*
X71671760Y70763924D01*
X71671761Y70763927D01*
X71673030Y70768428D01*
X71684241Y70856556D01*
X71705616Y71024579D01*
X71705616Y71024583D01*
X71706014Y71027709D01*
X71708431Y71120000D01*
X71701476Y71213585D01*
X71701069Y71219060D01*
X73666121Y71219060D01*
X73685322Y70999590D01*
X73686746Y70994277D01*
X73686746Y70994275D01*
X73733300Y70820535D01*
X73742342Y70786788D01*
X73744664Y70781808D01*
X73744665Y70781806D01*
X73794504Y70674928D01*
X73835449Y70587121D01*
X73961813Y70406654D01*
X74117594Y70250873D01*
X74122102Y70247716D01*
X74122105Y70247714D01*
X74197191Y70195139D01*
X74298060Y70124509D01*
X74303042Y70122186D01*
X74303047Y70122183D01*
X74446637Y70055226D01*
X74497728Y70031402D01*
X74503036Y70029980D01*
X74503038Y70029979D01*
X74705215Y69975806D01*
X74705217Y69975806D01*
X74710530Y69974382D01*
X74930000Y69955181D01*
X75149470Y69974382D01*
X75154783Y69975806D01*
X75154785Y69975806D01*
X75356962Y70029979D01*
X75356964Y70029980D01*
X75362272Y70031402D01*
X75413363Y70055226D01*
X75556953Y70122183D01*
X75556958Y70122186D01*
X75561940Y70124509D01*
X75662809Y70195139D01*
X75737895Y70247714D01*
X75737898Y70247716D01*
X75742406Y70250873D01*
X75898187Y70406654D01*
X76024551Y70587121D01*
X76065497Y70674928D01*
X76115335Y70781806D01*
X76115336Y70781808D01*
X76117658Y70786788D01*
X76126701Y70820535D01*
X76173254Y70994275D01*
X76173254Y70994277D01*
X76174678Y70999590D01*
X76193879Y71219060D01*
X76174678Y71438530D01*
X76173254Y71443845D01*
X76119081Y71646022D01*
X76119080Y71646024D01*
X76117658Y71651332D01*
X76024551Y71850999D01*
X75898187Y72031466D01*
X75742406Y72187247D01*
X75737898Y72190404D01*
X75737895Y72190406D01*
X75606048Y72282726D01*
X75561940Y72313611D01*
X75556958Y72315934D01*
X75556953Y72315937D01*
X75367254Y72404395D01*
X75367253Y72404396D01*
X75362272Y72406718D01*
X75356964Y72408140D01*
X75356962Y72408141D01*
X75154785Y72462314D01*
X75154783Y72462314D01*
X75149470Y72463738D01*
X74930000Y72482939D01*
X74710530Y72463738D01*
X74705217Y72462314D01*
X74705215Y72462314D01*
X74503038Y72408141D01*
X74503036Y72408140D01*
X74497728Y72406718D01*
X74492748Y72404396D01*
X74492746Y72404395D01*
X74303042Y72315934D01*
X74303039Y72315932D01*
X74298061Y72313611D01*
X74117594Y72187247D01*
X73961813Y72031466D01*
X73835449Y71850999D01*
X73742342Y71651332D01*
X73740920Y71646024D01*
X73740919Y71646022D01*
X73686746Y71443845D01*
X73685322Y71438530D01*
X73666121Y71219060D01*
X71701069Y71219060D01*
X71689407Y71376000D01*
X71689406Y71376004D01*
X71689061Y71380652D01*
X71677205Y71433050D01*
X71632408Y71631020D01*
X71631377Y71635577D01*
X71564612Y71807265D01*
X71538340Y71874824D01*
X71538339Y71874827D01*
X71536647Y71879177D01*
X71406951Y72106098D01*
X71245138Y72311357D01*
X71054763Y72490443D01*
X70896985Y72599898D01*
X70843851Y72636759D01*
X70843848Y72636761D01*
X70840009Y72639424D01*
X70835816Y72641492D01*
X70609781Y72752960D01*
X70609778Y72752961D01*
X70605593Y72755025D01*
X70559449Y72769796D01*
X70361123Y72833280D01*
X70356665Y72834707D01*
X70098693Y72876721D01*
X69984942Y72878210D01*
X69842022Y72880081D01*
X69842019Y72880081D01*
X69837345Y72880142D01*
X69578362Y72844896D01*
X69327433Y72771757D01*
X69323180Y72769797D01*
X69323179Y72769796D01*
X69286659Y72752960D01*
X69090072Y72662332D01*
X69086160Y72659767D01*
X69069934Y72649129D01*
X69000848Y72628500D01*
X62889016Y72628500D01*
X62885498Y72628549D01*
X62790850Y72631193D01*
X62790847Y72631193D01*
X62785795Y72631334D01*
X62707902Y72620941D01*
X62701361Y72620242D01*
X62672668Y72617933D01*
X62628077Y72614346D01*
X62628073Y72614345D01*
X62623035Y72613940D01*
X62591122Y72606101D01*
X62577742Y72603574D01*
X62545180Y72599229D01*
X62540339Y72597768D01*
X62540337Y72597767D01*
X62469971Y72576522D01*
X62463610Y72574781D01*
X62387294Y72556037D01*
X62382634Y72554059D01*
X62357049Y72543199D01*
X62344239Y72538562D01*
X62312792Y72529067D01*
X62308244Y72526849D01*
X62308237Y72526846D01*
X62242182Y72494629D01*
X62236180Y72491893D01*
X62213958Y72482460D01*
X62163844Y72461188D01*
X62139532Y72445877D01*
X62136044Y72443681D01*
X62124140Y72437055D01*
X62094612Y72422654D01*
X62090475Y72419735D01*
X62090474Y72419735D01*
X62030403Y72377359D01*
X62024914Y72373699D01*
X61962714Y72334529D01*
X61958433Y72331833D01*
X61954644Y72328492D01*
X61954638Y72328488D01*
X61933783Y72310102D01*
X61923088Y72301656D01*
X61896253Y72282726D01*
X61874750Y72263091D01*
X61835034Y72223375D01*
X61829264Y72217956D01*
X61780142Y72174650D01*
X61780139Y72174647D01*
X61776345Y72171302D01*
X61773135Y72167394D01*
X61773134Y72167393D01*
X61749821Y72139011D01*
X61741551Y72129892D01*
X55465334Y65853675D01*
X55462812Y65851221D01*
X55390319Y65782668D01*
X55387252Y65778656D01*
X55342592Y65720243D01*
X55338448Y65715108D01*
X55287530Y65655280D01*
X55284911Y65650955D01*
X55284907Y65650950D01*
X55270509Y65627176D01*
X55262837Y65615929D01*
X55242880Y65589826D01*
X55240490Y65585368D01*
X55240489Y65585367D01*
X55205761Y65520599D01*
X55202496Y65514874D01*
X55161779Y65447642D01*
X55159884Y65442951D01*
X55149473Y65417183D01*
X55143693Y65404842D01*
X55128169Y65375891D01*
X55126523Y65371110D01*
X55126521Y65371106D01*
X55102588Y65301599D01*
X55100278Y65295421D01*
X55070845Y65222571D01*
X55069723Y65217632D01*
X55063568Y65190540D01*
X55059837Y65177441D01*
X55049138Y65146369D01*
X55035757Y65068900D01*
X55034477Y65062496D01*
X55017065Y64985856D01*
X55015001Y64953047D01*
X55013415Y64939547D01*
X55007821Y64907164D01*
X55006500Y64878075D01*
X55006500Y64821892D01*
X55006251Y64813981D01*
X55001822Y64743587D01*
X55002316Y64738552D01*
X55005899Y64702008D01*
X55006500Y64689712D01*
X55006500Y59420115D01*
X54986498Y59351994D01*
X54932842Y59305501D01*
X54862568Y59295397D01*
X54854303Y59296868D01*
X54739432Y59321285D01*
X54676534Y59355437D01*
X51545405Y62486565D01*
X51511379Y62548877D01*
X51508500Y62575660D01*
X51508500Y69458393D01*
X51528502Y69526514D01*
X51582158Y69573007D01*
X51652432Y69583111D01*
X51717012Y69553617D01*
X51734663Y69534835D01*
X51900712Y69317258D01*
X51900717Y69317252D01*
X51903012Y69314245D01*
X52135102Y69075998D01*
X52394132Y68867360D01*
X52676352Y68691352D01*
X52977672Y68550524D01*
X53293729Y68446915D01*
X53619944Y68382027D01*
X53623716Y68381740D01*
X53623724Y68381739D01*
X53947815Y68357086D01*
X53947820Y68357086D01*
X53951592Y68356799D01*
X54283869Y68371597D01*
X54288401Y68372351D01*
X54608220Y68425583D01*
X54608225Y68425584D01*
X54611961Y68426206D01*
X54931116Y68519836D01*
X54934583Y68521326D01*
X54934587Y68521327D01*
X55233228Y68649634D01*
X55233230Y68649635D01*
X55236712Y68651131D01*
X55524321Y68818187D01*
X55527343Y68820468D01*
X55527347Y68820471D01*
X55786753Y69016303D01*
X55786754Y69016304D01*
X55789777Y69018586D01*
X56029235Y69249425D01*
X56239227Y69507359D01*
X56416710Y69788653D01*
X56453233Y69865743D01*
X56505376Y69975806D01*
X56559114Y70089233D01*
X56567192Y70113444D01*
X56663180Y70401156D01*
X56664377Y70404743D01*
X56730972Y70730614D01*
X56757936Y71062125D01*
X56758542Y71120000D01*
X56757026Y71145147D01*
X56738755Y71448228D01*
X56738754Y71448235D01*
X56738527Y71452003D01*
X56678770Y71779197D01*
X56580139Y72096843D01*
X56444061Y72400338D01*
X56350322Y72556037D01*
X56274466Y72682034D01*
X56274462Y72682040D01*
X56272507Y72685287D01*
X56270180Y72688271D01*
X56270175Y72688278D01*
X56070294Y72944575D01*
X56070288Y72944582D01*
X56067963Y72947563D01*
X55833392Y73183366D01*
X55572191Y73389280D01*
X55288144Y73562323D01*
X55167046Y73617383D01*
X54988817Y73698420D01*
X54988809Y73698423D01*
X54985365Y73699989D01*
X54668240Y73800282D01*
X54445896Y73842094D01*
X54345087Y73861051D01*
X54345085Y73861051D01*
X54341364Y73861751D01*
X54009470Y73883504D01*
X54005690Y73883296D01*
X54005689Y73883296D01*
X53907918Y73877915D01*
X53677366Y73865227D01*
X53673639Y73864566D01*
X53673635Y73864566D01*
X53414510Y73818642D01*
X53349864Y73807185D01*
X53346239Y73806080D01*
X53346234Y73806079D01*
X53216140Y73766429D01*
X53031707Y73710218D01*
X53028243Y73708687D01*
X53028236Y73708684D01*
X52814575Y73614225D01*
X52744184Y73604975D01*
X52679966Y73635250D01*
X52642310Y73695438D01*
X52643172Y73766429D01*
X52674533Y73818561D01*
X54956912Y76100940D01*
X73666121Y76100940D01*
X73685322Y75881470D01*
X73686746Y75876157D01*
X73686746Y75876155D01*
X73717547Y75761206D01*
X73742342Y75668668D01*
X73744664Y75663688D01*
X73744665Y75663686D01*
X73790684Y75565000D01*
X73835449Y75469001D01*
X73961813Y75288534D01*
X74117594Y75132753D01*
X74122102Y75129596D01*
X74122105Y75129594D01*
X74197191Y75077019D01*
X74298060Y75006389D01*
X74303042Y75004066D01*
X74303047Y75004063D01*
X74492746Y74915605D01*
X74497728Y74913282D01*
X74503036Y74911860D01*
X74503038Y74911859D01*
X74705215Y74857686D01*
X74705217Y74857686D01*
X74710530Y74856262D01*
X74930000Y74837061D01*
X75149470Y74856262D01*
X75154783Y74857686D01*
X75154785Y74857686D01*
X75356962Y74911859D01*
X75356964Y74911860D01*
X75362272Y74913282D01*
X75367254Y74915605D01*
X75556953Y75004063D01*
X75556958Y75004066D01*
X75561940Y75006389D01*
X75662809Y75077019D01*
X75737895Y75129594D01*
X75737898Y75129596D01*
X75742406Y75132753D01*
X75898187Y75288534D01*
X76024551Y75469001D01*
X76069317Y75565000D01*
X76115335Y75663686D01*
X76115336Y75663688D01*
X76117658Y75668668D01*
X76142454Y75761206D01*
X76173254Y75876155D01*
X76173254Y75876157D01*
X76174678Y75881470D01*
X76193879Y76100940D01*
X76174678Y76320410D01*
X76164391Y76358803D01*
X76119081Y76527902D01*
X76119080Y76527904D01*
X76117658Y76533212D01*
X76024551Y76732879D01*
X75898187Y76913346D01*
X75742406Y77069127D01*
X75737898Y77072284D01*
X75737895Y77072286D01*
X75579993Y77182850D01*
X75561940Y77195491D01*
X75556958Y77197814D01*
X75556953Y77197817D01*
X75367254Y77286275D01*
X75367253Y77286276D01*
X75362272Y77288598D01*
X75356964Y77290020D01*
X75356962Y77290021D01*
X75154785Y77344194D01*
X75154783Y77344194D01*
X75149470Y77345618D01*
X74930000Y77364819D01*
X74710530Y77345618D01*
X74705217Y77344194D01*
X74705215Y77344194D01*
X74503038Y77290021D01*
X74503036Y77290020D01*
X74497728Y77288598D01*
X74492748Y77286276D01*
X74492746Y77286275D01*
X74303042Y77197814D01*
X74303039Y77197812D01*
X74298061Y77195491D01*
X74117594Y77069127D01*
X73961813Y76913346D01*
X73835449Y76732879D01*
X73742342Y76533212D01*
X73740920Y76527904D01*
X73740919Y76527902D01*
X73695609Y76358803D01*
X73685322Y76320410D01*
X73666121Y76100940D01*
X54956912Y76100940D01*
X55795521Y76939549D01*
X55801786Y76945403D01*
X55839661Y76978444D01*
X55845386Y76983438D01*
X55882115Y77035699D01*
X55886047Y77040994D01*
X55905051Y77065230D01*
X55925478Y77091281D01*
X55928603Y77098203D01*
X55929965Y77100451D01*
X55938369Y77115184D01*
X55939623Y77117523D01*
X55943991Y77123738D01*
X55946750Y77130814D01*
X55946752Y77130818D01*
X55967038Y77182850D01*
X56010419Y77239052D01*
X56033182Y77252187D01*
X56165722Y77311197D01*
X56165724Y77311198D01*
X56171752Y77313882D01*
X56326253Y77426134D01*
X56454040Y77568056D01*
X56549527Y77733444D01*
X56608542Y77915072D01*
X56628504Y78105000D01*
X56608542Y78294928D01*
X56606502Y78301207D01*
X56606501Y78301211D01*
X56599765Y78321940D01*
X56597737Y78392907D01*
X56634399Y78453706D01*
X56693401Y78484124D01*
X56695975Y78484671D01*
X56797288Y78506206D01*
X56803319Y78508891D01*
X56965722Y78581197D01*
X56965724Y78581198D01*
X56971752Y78583882D01*
X57126253Y78696134D01*
X57254040Y78838056D01*
X57349527Y79003444D01*
X57408542Y79185072D01*
X57428504Y79375000D01*
X57419636Y79459377D01*
X57409232Y79558365D01*
X57409232Y79558367D01*
X57408542Y79564928D01*
X57349527Y79746556D01*
X57346223Y79752279D01*
X57343539Y79758307D01*
X57346085Y79759441D01*
X57332244Y79816497D01*
X57355466Y79883589D01*
X57411273Y79927475D01*
X57458101Y79936500D01*
X58956773Y79936500D01*
X58965343Y79936208D01*
X59015461Y79932791D01*
X59015465Y79932791D01*
X59023037Y79932275D01*
X59030514Y79933580D01*
X59030515Y79933580D01*
X59056993Y79938201D01*
X59085988Y79943262D01*
X59092506Y79944223D01*
X59155927Y79951898D01*
X59163028Y79954581D01*
X59165637Y79955222D01*
X59181947Y79959685D01*
X59184483Y79960450D01*
X59191969Y79961757D01*
X59250485Y79987444D01*
X59256589Y79989935D01*
X59309233Y80009827D01*
X59309234Y80009828D01*
X59316341Y80012513D01*
X59322604Y80016817D01*
X59324970Y80018054D01*
X59339782Y80026299D01*
X59342036Y80027632D01*
X59348990Y80030685D01*
X59399687Y80069587D01*
X59405017Y80073459D01*
X59451405Y80105339D01*
X59451410Y80105344D01*
X59457666Y80109643D01*
X59499121Y80156171D01*
X59504101Y80161446D01*
X64115156Y84772500D01*
X68936496Y84772500D01*
X68956458Y84582572D01*
X69015473Y84400944D01*
X69110960Y84235556D01*
X69115378Y84230649D01*
X69115379Y84230648D01*
X69234325Y84098545D01*
X69238747Y84093634D01*
X69393248Y83981382D01*
X69399276Y83978698D01*
X69399278Y83978697D01*
X69561681Y83906391D01*
X69567712Y83903706D01*
X69691542Y83877385D01*
X69720569Y83871215D01*
X69783467Y83837063D01*
X70916050Y82704480D01*
X70921904Y82698215D01*
X70959939Y82654615D01*
X70966153Y82650248D01*
X71012219Y82617872D01*
X71017514Y82613939D01*
X71067782Y82574524D01*
X71074698Y82571401D01*
X71076984Y82570017D01*
X71091665Y82561643D01*
X71094025Y82560378D01*
X71100239Y82556010D01*
X71107318Y82553250D01*
X71107320Y82553249D01*
X71159775Y82532798D01*
X71165844Y82530247D01*
X71224073Y82503955D01*
X71231540Y82502571D01*
X71234095Y82501770D01*
X71250348Y82497141D01*
X71252928Y82496478D01*
X71260009Y82493718D01*
X71267540Y82492727D01*
X71267542Y82492726D01*
X71297161Y82488827D01*
X71323361Y82485378D01*
X71329859Y82484348D01*
X71392686Y82472704D01*
X71400266Y82473141D01*
X71400267Y82473141D01*
X71454892Y82476291D01*
X71462146Y82476500D01*
X72339020Y82476500D01*
X72407141Y82456498D01*
X72453634Y82402842D01*
X72463738Y82332568D01*
X72450494Y82292853D01*
X72447385Y82288705D01*
X72396255Y82152316D01*
X72389500Y82090134D01*
X72389500Y80469866D01*
X72396255Y80407684D01*
X72447385Y80271295D01*
X72534739Y80154739D01*
X72651295Y80067385D01*
X72787684Y80016255D01*
X72849866Y80009500D01*
X74470134Y80009500D01*
X74532316Y80016255D01*
X74668705Y80067385D01*
X74785261Y80154739D01*
X74829174Y80213332D01*
X74886033Y80255847D01*
X74956852Y80260873D01*
X75019145Y80226813D01*
X75030825Y80213333D01*
X75074739Y80154739D01*
X75191295Y80067385D01*
X75327684Y80016255D01*
X75389866Y80009500D01*
X77010134Y80009500D01*
X77072316Y80016255D01*
X77208705Y80067385D01*
X77325261Y80154739D01*
X77412615Y80271295D01*
X77463745Y80407684D01*
X77470500Y80469866D01*
X77470500Y82090134D01*
X77463745Y82152316D01*
X77412615Y82288705D01*
X77325261Y82405261D01*
X77208705Y82492615D01*
X77072316Y82543745D01*
X77010134Y82550500D01*
X75389866Y82550500D01*
X75327684Y82543745D01*
X75191295Y82492615D01*
X75074739Y82405261D01*
X75069358Y82398081D01*
X75030826Y82346668D01*
X74973967Y82304153D01*
X74903148Y82299127D01*
X74840855Y82333187D01*
X74829174Y82346668D01*
X74790642Y82398081D01*
X74785261Y82405261D01*
X74668705Y82492615D01*
X74655492Y82497568D01*
X74539709Y82540974D01*
X74539705Y82540975D01*
X74532316Y82543745D01*
X74525709Y82544463D01*
X74464544Y82579405D01*
X74431724Y82642361D01*
X74438150Y82713066D01*
X74446218Y82729770D01*
X74491223Y82807721D01*
X74491224Y82807722D01*
X74494527Y82813444D01*
X74553542Y82995072D01*
X74573504Y83185000D01*
X74553542Y83374928D01*
X74494527Y83556556D01*
X74446218Y83640230D01*
X74429480Y83709226D01*
X74452701Y83776317D01*
X74508508Y83820204D01*
X74525123Y83825474D01*
X74532316Y83826255D01*
X74539705Y83829025D01*
X74539709Y83829026D01*
X74660297Y83874233D01*
X74668705Y83877385D01*
X74785261Y83964739D01*
X74829174Y84023332D01*
X74886033Y84065847D01*
X74956852Y84070873D01*
X75019145Y84036813D01*
X75030825Y84023333D01*
X75074739Y83964739D01*
X75191295Y83877385D01*
X75327684Y83826255D01*
X75389866Y83819500D01*
X77010134Y83819500D01*
X77072316Y83826255D01*
X77208705Y83877385D01*
X77325261Y83964739D01*
X77412615Y84081295D01*
X77463745Y84217684D01*
X77470500Y84279866D01*
X77470500Y85900134D01*
X77463745Y85962316D01*
X77412615Y86098705D01*
X77325261Y86215261D01*
X77266668Y86259174D01*
X77224153Y86316033D01*
X77219127Y86386852D01*
X77253187Y86449145D01*
X77266668Y86460826D01*
X77282914Y86473002D01*
X77325261Y86504739D01*
X77412615Y86621295D01*
X77463745Y86757684D01*
X77470500Y86819866D01*
X77470500Y88440134D01*
X77463745Y88502316D01*
X77412615Y88638705D01*
X77325261Y88755261D01*
X77266668Y88799174D01*
X77224153Y88856033D01*
X77219127Y88926852D01*
X77253187Y88989145D01*
X77266668Y89000826D01*
X77318081Y89039358D01*
X77325261Y89044739D01*
X77412615Y89161295D01*
X77463745Y89297684D01*
X77470500Y89359866D01*
X77470500Y90980134D01*
X77463745Y91042316D01*
X77412615Y91178705D01*
X77325261Y91295261D01*
X77208705Y91382615D01*
X77072316Y91433745D01*
X77010134Y91440500D01*
X75389866Y91440500D01*
X75327684Y91433745D01*
X75191295Y91382615D01*
X75074739Y91295261D01*
X74987385Y91178705D01*
X74936255Y91042316D01*
X74929500Y90980134D01*
X74929500Y89359866D01*
X74936255Y89297684D01*
X74987385Y89161295D01*
X75074739Y89044739D01*
X75081919Y89039358D01*
X75133332Y89000826D01*
X75175847Y88943967D01*
X75180873Y88873148D01*
X75146813Y88810855D01*
X75133333Y88799175D01*
X75074739Y88755261D01*
X75069358Y88748081D01*
X75030826Y88696668D01*
X74973967Y88654153D01*
X74903148Y88649127D01*
X74840855Y88683187D01*
X74829174Y88696668D01*
X74790642Y88748081D01*
X74785261Y88755261D01*
X74668705Y88842615D01*
X74532316Y88893745D01*
X74470134Y88900500D01*
X72849866Y88900500D01*
X72787684Y88893745D01*
X72651295Y88842615D01*
X72534739Y88755261D01*
X72447385Y88638705D01*
X72396255Y88502316D01*
X72389500Y88440134D01*
X72389500Y86819866D01*
X72396255Y86757684D01*
X72447385Y86621295D01*
X72534739Y86504739D01*
X72577086Y86473002D01*
X72593332Y86460826D01*
X72635847Y86403967D01*
X72640873Y86333148D01*
X72606813Y86270855D01*
X72593333Y86259175D01*
X72534739Y86215261D01*
X72447385Y86098705D01*
X72396255Y85962316D01*
X72389500Y85900134D01*
X72389500Y84279866D01*
X72396255Y84217684D01*
X72422034Y84148919D01*
X72439430Y84102516D01*
X72447385Y84081295D01*
X72450030Y84077766D01*
X72464709Y84010653D01*
X72439973Y83944105D01*
X72383186Y83901494D01*
X72339020Y83893500D01*
X71783160Y83893500D01*
X71715039Y83913502D01*
X71694065Y83930405D01*
X70784665Y84839805D01*
X70750639Y84902117D01*
X70748450Y84915730D01*
X70744232Y84955863D01*
X70744232Y84955865D01*
X70743542Y84962428D01*
X70684527Y85144056D01*
X70589040Y85309444D01*
X70576868Y85322963D01*
X70465675Y85446455D01*
X70465674Y85446456D01*
X70461253Y85451366D01*
X70306752Y85563618D01*
X70300724Y85566302D01*
X70300722Y85566303D01*
X70138319Y85638609D01*
X70138318Y85638609D01*
X70132288Y85641294D01*
X70038888Y85661147D01*
X69951944Y85679628D01*
X69951939Y85679628D01*
X69945487Y85681000D01*
X69754513Y85681000D01*
X69748061Y85679628D01*
X69748056Y85679628D01*
X69661112Y85661147D01*
X69567712Y85641294D01*
X69561682Y85638609D01*
X69561681Y85638609D01*
X69399278Y85566303D01*
X69399276Y85566302D01*
X69393248Y85563618D01*
X69238747Y85451366D01*
X69234326Y85446456D01*
X69234325Y85446455D01*
X69123133Y85322963D01*
X69110960Y85309444D01*
X69015473Y85144056D01*
X68956458Y84962428D01*
X68936496Y84772500D01*
X64115156Y84772500D01*
X64615528Y85272872D01*
X64621793Y85278726D01*
X64659664Y85311763D01*
X64659665Y85311764D01*
X64665385Y85316754D01*
X64702136Y85369044D01*
X64706028Y85374286D01*
X64745476Y85424597D01*
X64748600Y85431516D01*
X64749988Y85433808D01*
X64758357Y85448480D01*
X64759622Y85450840D01*
X64763990Y85457054D01*
X64787203Y85516592D01*
X64789759Y85522673D01*
X64795358Y85535072D01*
X64814449Y85577353D01*
X64860711Y85631206D01*
X64929284Y85651500D01*
X66063595Y85651500D01*
X66131716Y85631498D01*
X66137656Y85627436D01*
X66218248Y85568882D01*
X66224276Y85566198D01*
X66224278Y85566197D01*
X66335698Y85516590D01*
X66392712Y85491206D01*
X66486113Y85471353D01*
X66573056Y85452872D01*
X66573061Y85452872D01*
X66579513Y85451500D01*
X66770487Y85451500D01*
X66776939Y85452872D01*
X66776944Y85452872D01*
X66863887Y85471353D01*
X66957288Y85491206D01*
X67014302Y85516590D01*
X67125722Y85566197D01*
X67125724Y85566198D01*
X67131752Y85568882D01*
X67286253Y85681134D01*
X67414040Y85823056D01*
X67499321Y85970767D01*
X67506223Y85982721D01*
X67506224Y85982722D01*
X67509527Y85988444D01*
X67568542Y86170072D01*
X67569402Y86178249D01*
X67587814Y86353435D01*
X67588504Y86360000D01*
X67586717Y86377001D01*
X67569232Y86543365D01*
X67569232Y86543367D01*
X67568542Y86549928D01*
X67555254Y86590824D01*
X67553226Y86661791D01*
X67589889Y86722589D01*
X67653601Y86753915D01*
X67701284Y86753007D01*
X67843056Y86722872D01*
X67843061Y86722872D01*
X67849513Y86721500D01*
X68040487Y86721500D01*
X68046939Y86722872D01*
X68046944Y86722872D01*
X68146171Y86743964D01*
X68227288Y86761206D01*
X68233319Y86763891D01*
X68395722Y86836197D01*
X68395724Y86836198D01*
X68401752Y86838882D01*
X68414085Y86847842D01*
X68515465Y86921500D01*
X68556253Y86951134D01*
X68684040Y87093056D01*
X68779527Y87258444D01*
X68838542Y87440072D01*
X68858504Y87630000D01*
X68838542Y87819928D01*
X68779527Y88001556D01*
X68684040Y88166944D01*
X68556253Y88308866D01*
X68401752Y88421118D01*
X68395724Y88423802D01*
X68395722Y88423803D01*
X68233319Y88496109D01*
X68233318Y88496109D01*
X68227288Y88498794D01*
X68133887Y88518647D01*
X68046944Y88537128D01*
X68046939Y88537128D01*
X68040487Y88538500D01*
X67849513Y88538500D01*
X67843061Y88537128D01*
X67843056Y88537128D01*
X67756113Y88518647D01*
X67662712Y88498794D01*
X67656682Y88496109D01*
X67656681Y88496109D01*
X67494278Y88423803D01*
X67494276Y88423802D01*
X67488248Y88421118D01*
X67482907Y88417238D01*
X67482906Y88417237D01*
X67407656Y88362564D01*
X67340789Y88338706D01*
X67333595Y88338500D01*
X62826405Y88338500D01*
X62758284Y88358502D01*
X62752344Y88362564D01*
X62677094Y88417237D01*
X62677093Y88417238D01*
X62671752Y88421118D01*
X62665724Y88423802D01*
X62665722Y88423803D01*
X62503319Y88496109D01*
X62503318Y88496109D01*
X62497288Y88498794D01*
X62403887Y88518647D01*
X62316944Y88537128D01*
X62316939Y88537128D01*
X62310487Y88538500D01*
X62119513Y88538500D01*
X62113061Y88537128D01*
X62113056Y88537128D01*
X62026113Y88518647D01*
X61932712Y88498794D01*
X61926682Y88496109D01*
X61926681Y88496109D01*
X61764278Y88423803D01*
X61764276Y88423802D01*
X61758248Y88421118D01*
X61603747Y88308866D01*
X61475960Y88166944D01*
X61380473Y88001556D01*
X61321458Y87819928D01*
X61301496Y87630000D01*
X61321458Y87440072D01*
X61380473Y87258444D01*
X61475960Y87093056D01*
X61480379Y87088148D01*
X61482436Y87085317D01*
X61506295Y87018449D01*
X61506500Y87011256D01*
X61506500Y86690660D01*
X61486498Y86622539D01*
X61469595Y86601565D01*
X59919166Y85051136D01*
X59856854Y85017110D01*
X59786039Y85022175D01*
X59736435Y85055921D01*
X59670675Y85128955D01*
X59670674Y85128956D01*
X59666253Y85133866D01*
X59511752Y85246118D01*
X59505724Y85248802D01*
X59505722Y85248803D01*
X59343319Y85321109D01*
X59343318Y85321109D01*
X59337288Y85323794D01*
X59243887Y85343647D01*
X59156944Y85362128D01*
X59156939Y85362128D01*
X59150487Y85363500D01*
X58959513Y85363500D01*
X58953061Y85362128D01*
X58953056Y85362128D01*
X58811284Y85331993D01*
X58740493Y85337395D01*
X58683861Y85380212D01*
X58659367Y85446850D01*
X58665254Y85494176D01*
X58676502Y85528794D01*
X58678542Y85535072D01*
X58681135Y85559737D01*
X58697814Y85718435D01*
X58698504Y85725000D01*
X58678542Y85914928D01*
X58619527Y86096556D01*
X58614138Y86105891D01*
X58527341Y86256226D01*
X58524040Y86261944D01*
X58499736Y86288937D01*
X58400675Y86398955D01*
X58400674Y86398956D01*
X58396253Y86403866D01*
X58294493Y86477799D01*
X58247094Y86512237D01*
X58247093Y86512238D01*
X58241752Y86516118D01*
X58235724Y86518802D01*
X58235722Y86518803D01*
X58073319Y86591109D01*
X58073318Y86591109D01*
X58067288Y86593794D01*
X57971714Y86614109D01*
X57886944Y86632128D01*
X57886939Y86632128D01*
X57880487Y86633500D01*
X57689513Y86633500D01*
X57683061Y86632128D01*
X57683056Y86632128D01*
X57598286Y86614109D01*
X57502712Y86593794D01*
X57496682Y86591109D01*
X57496681Y86591109D01*
X57349981Y86525794D01*
X57329287Y86518911D01*
X57324707Y86518397D01*
X57318055Y86516080D01*
X57318053Y86516080D01*
X57307018Y86512237D01*
X57293036Y86507368D01*
X57278227Y86503205D01*
X57252333Y86497607D01*
X57252330Y86497606D01*
X57245452Y86496119D01*
X57206149Y86477792D01*
X57194373Y86473010D01*
X57153410Y86458745D01*
X57147435Y86455011D01*
X57147432Y86455010D01*
X57124967Y86440973D01*
X57111450Y86433634D01*
X57087448Y86422441D01*
X57081060Y86419462D01*
X57075495Y86415145D01*
X57075493Y86415144D01*
X57046809Y86392894D01*
X57036350Y86385598D01*
X57005558Y86366358D01*
X57005555Y86366356D01*
X56999586Y86362626D01*
X56994591Y86357666D01*
X56994590Y86357665D01*
X56970783Y86334024D01*
X56970158Y86333439D01*
X56969492Y86332922D01*
X56943502Y86306932D01*
X56870880Y86234815D01*
X56870222Y86233778D01*
X56869119Y86232549D01*
X46643595Y76007025D01*
X46581283Y75972999D01*
X46510468Y75978064D01*
X46453632Y76020611D01*
X46428821Y76087131D01*
X46428500Y76096120D01*
X46428500Y79391256D01*
X46448502Y79459377D01*
X46452564Y79465317D01*
X46454621Y79468148D01*
X46459040Y79473056D01*
X46508293Y79558365D01*
X46551223Y79632721D01*
X46551224Y79632722D01*
X46554527Y79638444D01*
X46613542Y79820072D01*
X46627302Y79950986D01*
X46632814Y80003435D01*
X46633504Y80010000D01*
X46618857Y80149358D01*
X46614232Y80193365D01*
X46614232Y80193367D01*
X46613542Y80199928D01*
X46554527Y80381556D01*
X46459040Y80546944D01*
X46331253Y80688866D01*
X46176752Y80801118D01*
X46170724Y80803802D01*
X46170722Y80803803D01*
X46008319Y80876109D01*
X46008318Y80876109D01*
X46002288Y80878794D01*
X45908887Y80898647D01*
X45821944Y80917128D01*
X45821939Y80917128D01*
X45815487Y80918500D01*
X45624513Y80918500D01*
X45618061Y80917128D01*
X45618056Y80917128D01*
X45531113Y80898647D01*
X45437712Y80878794D01*
X45431682Y80876109D01*
X45431681Y80876109D01*
X45269278Y80803803D01*
X45269276Y80803802D01*
X45263248Y80801118D01*
X45108747Y80688866D01*
X44980960Y80546944D01*
X44885473Y80381556D01*
X44826458Y80199928D01*
X44825768Y80193367D01*
X44825768Y80193365D01*
X44821143Y80149358D01*
X44806496Y80010000D01*
X44807186Y80003435D01*
X44812699Y79950986D01*
X44826458Y79820072D01*
X44885473Y79638444D01*
X44888776Y79632722D01*
X44888777Y79632721D01*
X44931707Y79558365D01*
X44980960Y79473056D01*
X44985379Y79468148D01*
X44987436Y79465317D01*
X45011295Y79398449D01*
X45011500Y79391256D01*
X45011500Y75275661D01*
X44991498Y75207540D01*
X44974595Y75186566D01*
X21679470Y51891440D01*
X21673205Y51885586D01*
X21629605Y51847551D01*
X21625238Y51841337D01*
X21592862Y51795271D01*
X21588929Y51789976D01*
X21549514Y51739708D01*
X21546391Y51732792D01*
X21545007Y51730506D01*
X21536633Y51715825D01*
X21535368Y51713465D01*
X21531000Y51707251D01*
X21528240Y51700172D01*
X21528239Y51700170D01*
X21507788Y51647715D01*
X21505237Y51641646D01*
X21478945Y51583417D01*
X21477561Y51575950D01*
X21476760Y51573395D01*
X21472131Y51557142D01*
X21471468Y51554562D01*
X21468708Y51547481D01*
X21467717Y51539950D01*
X21467716Y51539948D01*
X21460369Y51484138D01*
X21459338Y51477631D01*
X21447694Y51414804D01*
X21448131Y51407224D01*
X21448131Y51407223D01*
X21451281Y51352598D01*
X21451490Y51345344D01*
X21451490Y19965650D01*
X21431488Y19897529D01*
X21414585Y19876555D01*
X15808467Y14270437D01*
X15745569Y14236285D01*
X15592712Y14203794D01*
X15586682Y14201109D01*
X15586681Y14201109D01*
X15424278Y14128803D01*
X15424276Y14128802D01*
X15418248Y14126118D01*
X15263747Y14013866D01*
X15135960Y13871944D01*
X15040473Y13706556D01*
X14981458Y13524928D01*
X14980768Y13518367D01*
X14980768Y13518365D01*
X14974034Y13454294D01*
X14961496Y13335000D01*
X762500Y13335000D01*
X762500Y33048939D01*
X15631610Y33048939D01*
X15637488Y32930865D01*
X15646477Y32750297D01*
X15648147Y32716745D01*
X15648788Y32713014D01*
X15648789Y32713006D01*
X15700408Y32412607D01*
X15704474Y32388943D01*
X15705562Y32385304D01*
X15705563Y32385301D01*
X15766117Y32182824D01*
X15799774Y32070282D01*
X15801287Y32066811D01*
X15801289Y32066805D01*
X15843336Y31970334D01*
X15932666Y31765378D01*
X15934589Y31762107D01*
X15934591Y31762103D01*
X16001262Y31648692D01*
X16101226Y31478648D01*
X16103527Y31475633D01*
X16300712Y31217258D01*
X16300717Y31217252D01*
X16303012Y31214245D01*
X16535102Y30975998D01*
X16794132Y30767360D01*
X16876035Y30716281D01*
X17022818Y30624739D01*
X17076352Y30591352D01*
X17377672Y30450524D01*
X17693729Y30346915D01*
X18019944Y30282027D01*
X18023716Y30281740D01*
X18023724Y30281739D01*
X18347815Y30257086D01*
X18347820Y30257086D01*
X18351592Y30256799D01*
X18683869Y30271597D01*
X18688401Y30272351D01*
X19008220Y30325583D01*
X19008225Y30325584D01*
X19011961Y30326206D01*
X19331116Y30419836D01*
X19334583Y30421326D01*
X19334587Y30421327D01*
X19633228Y30549634D01*
X19633230Y30549635D01*
X19636712Y30551131D01*
X19924321Y30718187D01*
X19927343Y30720468D01*
X19927347Y30720471D01*
X20186753Y30916303D01*
X20186754Y30916304D01*
X20189777Y30918586D01*
X20429235Y31149425D01*
X20639227Y31407359D01*
X20765562Y31607588D01*
X20814683Y31685440D01*
X20814685Y31685443D01*
X20816710Y31688653D01*
X20853233Y31765743D01*
X20946531Y31962674D01*
X20959114Y31989233D01*
X21064377Y32304743D01*
X21130972Y32630614D01*
X21157936Y32962125D01*
X21158317Y32998551D01*
X21158519Y33017779D01*
X21158519Y33017786D01*
X21158542Y33020000D01*
X21157026Y33045147D01*
X21138755Y33348228D01*
X21138754Y33348235D01*
X21138527Y33352003D01*
X21095088Y33589848D01*
X21079451Y33675470D01*
X21079450Y33675475D01*
X21078770Y33679197D01*
X21076599Y33686191D01*
X20981261Y33993229D01*
X20980139Y33996843D01*
X20844061Y34300338D01*
X20706696Y34528500D01*
X20674466Y34582034D01*
X20674462Y34582040D01*
X20672507Y34585287D01*
X20670180Y34588271D01*
X20670175Y34588278D01*
X20470294Y34844575D01*
X20470288Y34844582D01*
X20467963Y34847563D01*
X20233392Y35083366D01*
X19972191Y35289280D01*
X19688144Y35462323D01*
X19567046Y35517383D01*
X19388817Y35598420D01*
X19388809Y35598423D01*
X19385365Y35599989D01*
X19068240Y35700282D01*
X18845896Y35742094D01*
X18745087Y35761051D01*
X18745085Y35761051D01*
X18741364Y35761751D01*
X18409470Y35783504D01*
X18405690Y35783296D01*
X18405689Y35783296D01*
X18307918Y35777915D01*
X18077366Y35765227D01*
X18073639Y35764566D01*
X18073635Y35764566D01*
X17814510Y35718642D01*
X17749864Y35707185D01*
X17746239Y35706080D01*
X17746234Y35706079D01*
X17538683Y35642822D01*
X17431707Y35610218D01*
X17428243Y35608687D01*
X17428236Y35608684D01*
X17241051Y35525930D01*
X17127503Y35475731D01*
X17124249Y35473795D01*
X17124243Y35473792D01*
X16874089Y35324966D01*
X16841659Y35305672D01*
X16578316Y35102504D01*
X16575617Y35099848D01*
X16575618Y35099848D01*
X16356786Y34884427D01*
X16341288Y34869171D01*
X16134009Y34609051D01*
X15959481Y34325914D01*
X15820232Y34023860D01*
X15819073Y34020260D01*
X15819070Y34020253D01*
X15724572Y33726803D01*
X15718280Y33707265D01*
X15717561Y33703549D01*
X15717559Y33703541D01*
X15681447Y33516893D01*
X15655100Y33380715D01*
X15654833Y33376939D01*
X15654832Y33376934D01*
X15648015Y33280652D01*
X15631610Y33048939D01*
X762500Y33048939D01*
X762500Y71148939D01*
X15631610Y71148939D01*
X15631799Y71145147D01*
X15645881Y70862274D01*
X15648147Y70816745D01*
X15648788Y70813014D01*
X15648789Y70813006D01*
X15700408Y70512607D01*
X15704474Y70488943D01*
X15705562Y70485304D01*
X15705563Y70485301D01*
X15774507Y70254770D01*
X15799774Y70170282D01*
X15801287Y70166811D01*
X15801289Y70166805D01*
X15892458Y69957630D01*
X15932666Y69865378D01*
X16101226Y69578648D01*
X16103527Y69575633D01*
X16300712Y69317258D01*
X16300717Y69317252D01*
X16303012Y69314245D01*
X16535102Y69075998D01*
X16794132Y68867360D01*
X17076352Y68691352D01*
X17377672Y68550524D01*
X17693729Y68446915D01*
X18019944Y68382027D01*
X18023716Y68381740D01*
X18023724Y68381739D01*
X18347815Y68357086D01*
X18347820Y68357086D01*
X18351592Y68356799D01*
X18683869Y68371597D01*
X18688401Y68372351D01*
X19008220Y68425583D01*
X19008225Y68425584D01*
X19011961Y68426206D01*
X19331116Y68519836D01*
X19334583Y68521326D01*
X19334587Y68521327D01*
X19633228Y68649634D01*
X19633230Y68649635D01*
X19636712Y68651131D01*
X19924321Y68818187D01*
X19927343Y68820468D01*
X19927347Y68820471D01*
X20186753Y69016303D01*
X20186754Y69016304D01*
X20189777Y69018586D01*
X20429235Y69249425D01*
X20639227Y69507359D01*
X20816710Y69788653D01*
X20853233Y69865743D01*
X20905376Y69975806D01*
X20959114Y70089233D01*
X20967192Y70113444D01*
X21063180Y70401156D01*
X21064377Y70404743D01*
X21080778Y70485000D01*
X33376496Y70485000D01*
X33396458Y70295072D01*
X33455473Y70113444D01*
X33458776Y70107722D01*
X33458777Y70107721D01*
X33469451Y70089233D01*
X33550960Y69948056D01*
X33555378Y69943149D01*
X33555379Y69943148D01*
X33674325Y69811045D01*
X33678747Y69806134D01*
X33833248Y69693882D01*
X33839276Y69691198D01*
X33839278Y69691197D01*
X34001681Y69618891D01*
X34007712Y69616206D01*
X34098031Y69597008D01*
X34188056Y69577872D01*
X34188061Y69577872D01*
X34194513Y69576500D01*
X34385487Y69576500D01*
X34391939Y69577872D01*
X34391944Y69577872D01*
X34481969Y69597008D01*
X34572288Y69616206D01*
X34578319Y69618891D01*
X34740722Y69691197D01*
X34740724Y69691198D01*
X34746752Y69693882D01*
X34901253Y69806134D01*
X34905675Y69811045D01*
X35024621Y69943148D01*
X35024622Y69943149D01*
X35029040Y69948056D01*
X35110549Y70089233D01*
X35121223Y70107721D01*
X35121224Y70107722D01*
X35124527Y70113444D01*
X35183542Y70295072D01*
X35203504Y70485000D01*
X35183542Y70674928D01*
X35124527Y70856556D01*
X35115380Y70872398D01*
X35098500Y70935397D01*
X35098500Y75114603D01*
X35115380Y75177602D01*
X35124527Y75193444D01*
X35183542Y75375072D01*
X35203504Y75565000D01*
X35183542Y75754928D01*
X35124527Y75936556D01*
X35029040Y76101944D01*
X34901253Y76243866D01*
X34746752Y76356118D01*
X34740724Y76358802D01*
X34740722Y76358803D01*
X34578319Y76431109D01*
X34578318Y76431109D01*
X34572288Y76433794D01*
X34478887Y76453647D01*
X34391944Y76472128D01*
X34391939Y76472128D01*
X34385487Y76473500D01*
X34194513Y76473500D01*
X34188061Y76472128D01*
X34188056Y76472128D01*
X34101113Y76453647D01*
X34007712Y76433794D01*
X34001682Y76431109D01*
X34001681Y76431109D01*
X33839278Y76358803D01*
X33839276Y76358802D01*
X33833248Y76356118D01*
X33678747Y76243866D01*
X33550960Y76101944D01*
X33455473Y75936556D01*
X33396458Y75754928D01*
X33376496Y75565000D01*
X33396458Y75375072D01*
X33455473Y75193444D01*
X33464620Y75177602D01*
X33481500Y75114603D01*
X33481500Y70935397D01*
X33464620Y70872398D01*
X33455473Y70856556D01*
X33396458Y70674928D01*
X33376496Y70485000D01*
X21080778Y70485000D01*
X21130972Y70730614D01*
X21157936Y71062125D01*
X21158542Y71120000D01*
X21157026Y71145147D01*
X21138755Y71448228D01*
X21138754Y71448235D01*
X21138527Y71452003D01*
X21078770Y71779197D01*
X20980139Y72096843D01*
X20844061Y72400338D01*
X20750322Y72556037D01*
X20674466Y72682034D01*
X20674462Y72682040D01*
X20672507Y72685287D01*
X20670180Y72688271D01*
X20670175Y72688278D01*
X20470294Y72944575D01*
X20470288Y72944582D01*
X20467963Y72947563D01*
X20233392Y73183366D01*
X19972191Y73389280D01*
X19688144Y73562323D01*
X19567046Y73617383D01*
X19388817Y73698420D01*
X19388809Y73698423D01*
X19385365Y73699989D01*
X19068240Y73800282D01*
X18845896Y73842094D01*
X18745087Y73861051D01*
X18745085Y73861051D01*
X18741364Y73861751D01*
X18409470Y73883504D01*
X18405690Y73883296D01*
X18405689Y73883296D01*
X18307918Y73877915D01*
X18077366Y73865227D01*
X18073639Y73864566D01*
X18073635Y73864566D01*
X17814510Y73818642D01*
X17749864Y73807185D01*
X17746239Y73806080D01*
X17746234Y73806079D01*
X17616140Y73766429D01*
X17431707Y73710218D01*
X17428243Y73708687D01*
X17428236Y73708684D01*
X17241051Y73625930D01*
X17127503Y73575731D01*
X17124249Y73573795D01*
X17124243Y73573792D01*
X16844918Y73407611D01*
X16841659Y73405672D01*
X16578316Y73202504D01*
X16341288Y72969171D01*
X16134009Y72709051D01*
X15959481Y72425914D01*
X15820232Y72123860D01*
X15819073Y72120260D01*
X15819070Y72120253D01*
X15730759Y71846018D01*
X15718280Y71807265D01*
X15717561Y71803549D01*
X15717559Y71803541D01*
X15655819Y71484433D01*
X15655100Y71480715D01*
X15654833Y71476939D01*
X15654832Y71476934D01*
X15636187Y71213585D01*
X15631610Y71148939D01*
X762500Y71148939D01*
X762500Y91899866D01*
X11429500Y91899866D01*
X11436255Y91837684D01*
X11487385Y91701295D01*
X11574739Y91584739D01*
X11691295Y91497385D01*
X11827684Y91446255D01*
X11889866Y91439500D01*
X13510134Y91439500D01*
X13572316Y91446255D01*
X13708705Y91497385D01*
X13825261Y91584739D01*
X13869174Y91643332D01*
X13926033Y91685847D01*
X13996852Y91690873D01*
X14059145Y91656813D01*
X14070825Y91643333D01*
X14114739Y91584739D01*
X14231295Y91497385D01*
X14367684Y91446255D01*
X14429866Y91439500D01*
X16050134Y91439500D01*
X16112316Y91446255D01*
X16248705Y91497385D01*
X16365261Y91584739D01*
X16409174Y91643332D01*
X16466033Y91685847D01*
X16536852Y91690873D01*
X16599145Y91656813D01*
X16610825Y91643333D01*
X16654739Y91584739D01*
X16771295Y91497385D01*
X16907684Y91446255D01*
X16969866Y91439500D01*
X18590134Y91439500D01*
X18652316Y91446255D01*
X18788705Y91497385D01*
X18905261Y91584739D01*
X18949174Y91643332D01*
X19006033Y91685847D01*
X19076852Y91690873D01*
X19139145Y91656813D01*
X19150825Y91643333D01*
X19194739Y91584739D01*
X19311295Y91497385D01*
X19447684Y91446255D01*
X19509866Y91439500D01*
X21130134Y91439500D01*
X21192316Y91446255D01*
X21328705Y91497385D01*
X21445261Y91584739D01*
X21489174Y91643332D01*
X21546033Y91685847D01*
X21616852Y91690873D01*
X21679145Y91656813D01*
X21690825Y91643333D01*
X21734739Y91584739D01*
X21851295Y91497385D01*
X21987684Y91446255D01*
X22049866Y91439500D01*
X23670134Y91439500D01*
X23732316Y91446255D01*
X23868705Y91497385D01*
X23985261Y91584739D01*
X24072615Y91701295D01*
X24123745Y91837684D01*
X24130500Y91899866D01*
X38734500Y91899866D01*
X38741255Y91837684D01*
X38792385Y91701295D01*
X38879739Y91584739D01*
X38996295Y91497385D01*
X39132684Y91446255D01*
X39194866Y91439500D01*
X40815134Y91439500D01*
X40877316Y91446255D01*
X41013705Y91497385D01*
X41130261Y91584739D01*
X41217615Y91701295D01*
X41268745Y91837684D01*
X41275500Y91899866D01*
X43814500Y91899866D01*
X43821255Y91837684D01*
X43872385Y91701295D01*
X43959739Y91584739D01*
X44076295Y91497385D01*
X44212684Y91446255D01*
X44274866Y91439500D01*
X45895134Y91439500D01*
X45957316Y91446255D01*
X46093705Y91497385D01*
X46210261Y91584739D01*
X46254174Y91643332D01*
X46311033Y91685847D01*
X46381852Y91690873D01*
X46444145Y91656813D01*
X46455825Y91643333D01*
X46499739Y91584739D01*
X46616295Y91497385D01*
X46752684Y91446255D01*
X46814866Y91439500D01*
X48435134Y91439500D01*
X48497316Y91446255D01*
X48633705Y91497385D01*
X48750261Y91584739D01*
X48794174Y91643332D01*
X48851033Y91685847D01*
X48921852Y91690873D01*
X48984145Y91656813D01*
X48995825Y91643333D01*
X49039739Y91584739D01*
X49156295Y91497385D01*
X49292684Y91446255D01*
X49354866Y91439500D01*
X50975134Y91439500D01*
X51037316Y91446255D01*
X51173705Y91497385D01*
X51290261Y91584739D01*
X51377615Y91701295D01*
X51428745Y91837684D01*
X51435500Y91899866D01*
X53974500Y91899866D01*
X53981255Y91837684D01*
X54032385Y91701295D01*
X54119739Y91584739D01*
X54236295Y91497385D01*
X54372684Y91446255D01*
X54434866Y91439500D01*
X56055134Y91439500D01*
X56117316Y91446255D01*
X56253705Y91497385D01*
X56370261Y91584739D01*
X56457615Y91701295D01*
X56508745Y91837684D01*
X56515500Y91899866D01*
X61594500Y91899866D01*
X61601255Y91837684D01*
X61652385Y91701295D01*
X61739739Y91584739D01*
X61856295Y91497385D01*
X61992684Y91446255D01*
X62054866Y91439500D01*
X63675134Y91439500D01*
X63737316Y91446255D01*
X63873705Y91497385D01*
X63990261Y91584739D01*
X64034174Y91643332D01*
X64091033Y91685847D01*
X64161852Y91690873D01*
X64224145Y91656813D01*
X64235825Y91643333D01*
X64279739Y91584739D01*
X64396295Y91497385D01*
X64532684Y91446255D01*
X64594866Y91439500D01*
X66215134Y91439500D01*
X66277316Y91446255D01*
X66413705Y91497385D01*
X66530261Y91584739D01*
X66574174Y91643332D01*
X66631033Y91685847D01*
X66701852Y91690873D01*
X66764145Y91656813D01*
X66775825Y91643333D01*
X66819739Y91584739D01*
X66936295Y91497385D01*
X67072684Y91446255D01*
X67134866Y91439500D01*
X68755134Y91439500D01*
X68817316Y91446255D01*
X68953705Y91497385D01*
X69070261Y91584739D01*
X69157615Y91701295D01*
X69208745Y91837684D01*
X69215500Y91899866D01*
X69215500Y93520134D01*
X69208745Y93582316D01*
X69157615Y93718705D01*
X69070261Y93835261D01*
X69011668Y93879174D01*
X68969153Y93936033D01*
X68964127Y94006852D01*
X68998187Y94069145D01*
X69011668Y94080826D01*
X69063081Y94119358D01*
X69070261Y94124739D01*
X69157615Y94241295D01*
X69208745Y94377684D01*
X69215500Y94439866D01*
X69215500Y96060134D01*
X69208745Y96122316D01*
X69157615Y96258705D01*
X69070261Y96375261D01*
X68953705Y96462615D01*
X68817316Y96513745D01*
X68755134Y96520500D01*
X67134866Y96520500D01*
X67072684Y96513745D01*
X66936295Y96462615D01*
X66819739Y96375261D01*
X66814358Y96368081D01*
X66775826Y96316668D01*
X66718967Y96274153D01*
X66648148Y96269127D01*
X66585855Y96303187D01*
X66574174Y96316668D01*
X66535642Y96368081D01*
X66530261Y96375261D01*
X66413705Y96462615D01*
X66277316Y96513745D01*
X66215134Y96520500D01*
X64594866Y96520500D01*
X64532684Y96513745D01*
X64396295Y96462615D01*
X64279739Y96375261D01*
X64274358Y96368081D01*
X64235826Y96316668D01*
X64178967Y96274153D01*
X64108148Y96269127D01*
X64045855Y96303187D01*
X64034174Y96316668D01*
X63995642Y96368081D01*
X63990261Y96375261D01*
X63873705Y96462615D01*
X63737316Y96513745D01*
X63675134Y96520500D01*
X62054866Y96520500D01*
X61992684Y96513745D01*
X61856295Y96462615D01*
X61739739Y96375261D01*
X61652385Y96258705D01*
X61601255Y96122316D01*
X61594500Y96060134D01*
X61594500Y94439866D01*
X61601255Y94377684D01*
X61652385Y94241295D01*
X61739739Y94124739D01*
X61746919Y94119358D01*
X61798332Y94080826D01*
X61840847Y94023967D01*
X61845873Y93953148D01*
X61811813Y93890855D01*
X61798333Y93879175D01*
X61739739Y93835261D01*
X61652385Y93718705D01*
X61601255Y93582316D01*
X61594500Y93520134D01*
X61594500Y91899866D01*
X56515500Y91899866D01*
X56515500Y93520134D01*
X56508745Y93582316D01*
X56457615Y93718705D01*
X56370261Y93835261D01*
X56311668Y93879174D01*
X56269153Y93936033D01*
X56264127Y94006852D01*
X56298187Y94069145D01*
X56311668Y94080826D01*
X56363081Y94119358D01*
X56370261Y94124739D01*
X56457615Y94241295D01*
X56508745Y94377684D01*
X56515500Y94439866D01*
X56515500Y96060134D01*
X56508745Y96122316D01*
X56457615Y96258705D01*
X56370261Y96375261D01*
X56253705Y96462615D01*
X56117316Y96513745D01*
X56055134Y96520500D01*
X54434866Y96520500D01*
X54372684Y96513745D01*
X54236295Y96462615D01*
X54119739Y96375261D01*
X54032385Y96258705D01*
X53981255Y96122316D01*
X53974500Y96060134D01*
X53974500Y94439866D01*
X53981255Y94377684D01*
X54032385Y94241295D01*
X54119739Y94124739D01*
X54126919Y94119358D01*
X54178332Y94080826D01*
X54220847Y94023967D01*
X54225873Y93953148D01*
X54191813Y93890855D01*
X54178333Y93879175D01*
X54119739Y93835261D01*
X54032385Y93718705D01*
X53981255Y93582316D01*
X53974500Y93520134D01*
X53974500Y91899866D01*
X51435500Y91899866D01*
X51435500Y93520134D01*
X51428745Y93582316D01*
X51377615Y93718705D01*
X51290261Y93835261D01*
X51231668Y93879174D01*
X51189153Y93936033D01*
X51184127Y94006852D01*
X51218187Y94069145D01*
X51231668Y94080826D01*
X51283081Y94119358D01*
X51290261Y94124739D01*
X51377615Y94241295D01*
X51428745Y94377684D01*
X51435500Y94439866D01*
X51435500Y96060134D01*
X51428745Y96122316D01*
X51377615Y96258705D01*
X51290261Y96375261D01*
X51173705Y96462615D01*
X51037316Y96513745D01*
X50975134Y96520500D01*
X49354866Y96520500D01*
X49292684Y96513745D01*
X49156295Y96462615D01*
X49039739Y96375261D01*
X49034358Y96368081D01*
X48995826Y96316668D01*
X48938967Y96274153D01*
X48868148Y96269127D01*
X48805855Y96303187D01*
X48794174Y96316668D01*
X48755642Y96368081D01*
X48750261Y96375261D01*
X48633705Y96462615D01*
X48497316Y96513745D01*
X48435134Y96520500D01*
X46814866Y96520500D01*
X46752684Y96513745D01*
X46616295Y96462615D01*
X46499739Y96375261D01*
X46494358Y96368081D01*
X46455826Y96316668D01*
X46398967Y96274153D01*
X46328148Y96269127D01*
X46265855Y96303187D01*
X46254174Y96316668D01*
X46215642Y96368081D01*
X46210261Y96375261D01*
X46093705Y96462615D01*
X45957316Y96513745D01*
X45895134Y96520500D01*
X44274866Y96520500D01*
X44212684Y96513745D01*
X44076295Y96462615D01*
X43959739Y96375261D01*
X43872385Y96258705D01*
X43821255Y96122316D01*
X43814500Y96060134D01*
X43814500Y94439866D01*
X43821255Y94377684D01*
X43872385Y94241295D01*
X43959739Y94124739D01*
X43966919Y94119358D01*
X44018332Y94080826D01*
X44060847Y94023967D01*
X44065873Y93953148D01*
X44031813Y93890855D01*
X44018333Y93879175D01*
X43959739Y93835261D01*
X43872385Y93718705D01*
X43821255Y93582316D01*
X43814500Y93520134D01*
X43814500Y91899866D01*
X41275500Y91899866D01*
X41275500Y93520134D01*
X41268745Y93582316D01*
X41217615Y93718705D01*
X41130261Y93835261D01*
X41071668Y93879174D01*
X41029153Y93936033D01*
X41024127Y94006852D01*
X41058187Y94069145D01*
X41071668Y94080826D01*
X41123081Y94119358D01*
X41130261Y94124739D01*
X41217615Y94241295D01*
X41268745Y94377684D01*
X41275500Y94439866D01*
X41275500Y96060134D01*
X41268745Y96122316D01*
X41217615Y96258705D01*
X41130261Y96375261D01*
X41013705Y96462615D01*
X40877316Y96513745D01*
X40815134Y96520500D01*
X39194866Y96520500D01*
X39132684Y96513745D01*
X38996295Y96462615D01*
X38879739Y96375261D01*
X38792385Y96258705D01*
X38741255Y96122316D01*
X38734500Y96060134D01*
X38734500Y94439866D01*
X38741255Y94377684D01*
X38792385Y94241295D01*
X38879739Y94124739D01*
X38886919Y94119358D01*
X38938332Y94080826D01*
X38980847Y94023967D01*
X38985873Y93953148D01*
X38951813Y93890855D01*
X38938333Y93879175D01*
X38879739Y93835261D01*
X38792385Y93718705D01*
X38741255Y93582316D01*
X38734500Y93520134D01*
X38734500Y91899866D01*
X24130500Y91899866D01*
X24130500Y93520134D01*
X24123745Y93582316D01*
X24072615Y93718705D01*
X23985261Y93835261D01*
X23926668Y93879174D01*
X23884153Y93936033D01*
X23879127Y94006852D01*
X23913187Y94069145D01*
X23926668Y94080826D01*
X23978081Y94119358D01*
X23985261Y94124739D01*
X24072615Y94241295D01*
X24123745Y94377684D01*
X24130500Y94439866D01*
X24130500Y96060134D01*
X24123745Y96122316D01*
X24072615Y96258705D01*
X23985261Y96375261D01*
X23868705Y96462615D01*
X23732316Y96513745D01*
X23670134Y96520500D01*
X22049866Y96520500D01*
X21987684Y96513745D01*
X21851295Y96462615D01*
X21734739Y96375261D01*
X21729358Y96368081D01*
X21690826Y96316668D01*
X21633967Y96274153D01*
X21563148Y96269127D01*
X21500855Y96303187D01*
X21489174Y96316668D01*
X21450642Y96368081D01*
X21445261Y96375261D01*
X21328705Y96462615D01*
X21192316Y96513745D01*
X21130134Y96520500D01*
X19509866Y96520500D01*
X19447684Y96513745D01*
X19311295Y96462615D01*
X19194739Y96375261D01*
X19189358Y96368081D01*
X19150826Y96316668D01*
X19093967Y96274153D01*
X19023148Y96269127D01*
X18960855Y96303187D01*
X18949174Y96316668D01*
X18910642Y96368081D01*
X18905261Y96375261D01*
X18788705Y96462615D01*
X18652316Y96513745D01*
X18590134Y96520500D01*
X16969866Y96520500D01*
X16907684Y96513745D01*
X16771295Y96462615D01*
X16654739Y96375261D01*
X16649358Y96368081D01*
X16610826Y96316668D01*
X16553967Y96274153D01*
X16483148Y96269127D01*
X16420855Y96303187D01*
X16409174Y96316668D01*
X16370642Y96368081D01*
X16365261Y96375261D01*
X16248705Y96462615D01*
X16112316Y96513745D01*
X16050134Y96520500D01*
X14429866Y96520500D01*
X14367684Y96513745D01*
X14231295Y96462615D01*
X14114739Y96375261D01*
X14109358Y96368081D01*
X14070826Y96316668D01*
X14013967Y96274153D01*
X13943148Y96269127D01*
X13880855Y96303187D01*
X13869174Y96316668D01*
X13830642Y96368081D01*
X13825261Y96375261D01*
X13708705Y96462615D01*
X13572316Y96513745D01*
X13510134Y96520500D01*
X11889866Y96520500D01*
X11827684Y96513745D01*
X11691295Y96462615D01*
X11574739Y96375261D01*
X11487385Y96258705D01*
X11436255Y96122316D01*
X11429500Y96060134D01*
X11429500Y94439866D01*
X11436255Y94377684D01*
X11487385Y94241295D01*
X11574739Y94124739D01*
X11581919Y94119358D01*
X11633332Y94080826D01*
X11675847Y94023967D01*
X11680873Y93953148D01*
X11646813Y93890855D01*
X11633333Y93879175D01*
X11574739Y93835261D01*
X11487385Y93718705D01*
X11436255Y93582316D01*
X11429500Y93520134D01*
X11429500Y91899866D01*
X762500Y91899866D01*
X762500Y100711500D01*
X782502Y100779621D01*
X836158Y100826114D01*
X888500Y100837500D01*
X80391500Y100837500D01*
X80459621Y100817498D01*
G37*
%TD.AperFunction*%
%TD*%
M02*
