%TF.GenerationSoftware,KiCad,Pcbnew,7.0.5.1-1-g8f565ef7f0-dirty-deb11*%
%TF.CreationDate,2023-07-20T11:15:21+00:00*%
%TF.ProjectId,DATALOGGER01,44415441-4c4f-4474-9745-5230312e6b69,rev?*%
%TF.SameCoordinates,Original*%
%TF.FileFunction,Copper,L1,Top*%
%TF.FilePolarity,Positive*%
%FSLAX46Y46*%
G04 Gerber Fmt 4.6, Leading zero omitted, Abs format (unit mm)*
G04 Created by KiCad (PCBNEW 7.0.5.1-1-g8f565ef7f0-dirty-deb11) date 2023-07-20 11:15:21*
%MOMM*%
%LPD*%
G01*
G04 APERTURE LIST*
%TA.AperFunction,ComponentPad*%
%ADD10R,1.524000X1.524000*%
%TD*%
%TA.AperFunction,WasherPad*%
%ADD11C,4.500000*%
%TD*%
%TA.AperFunction,ComponentPad*%
%ADD12C,2.500000*%
%TD*%
%TA.AperFunction,ComponentPad*%
%ADD13C,6.000000*%
%TD*%
%TA.AperFunction,ComponentPad*%
%ADD14R,1.800000X1.800000*%
%TD*%
%TA.AperFunction,ComponentPad*%
%ADD15C,1.800000*%
%TD*%
%TA.AperFunction,ComponentPad*%
%ADD16C,1.501140*%
%TD*%
%TA.AperFunction,ComponentPad*%
%ADD17C,3.000000*%
%TD*%
%TA.AperFunction,SMDPad,CuDef*%
%ADD18R,0.900000X1.600000*%
%TD*%
%TA.AperFunction,ComponentPad*%
%ADD19C,0.600000*%
%TD*%
%TA.AperFunction,ViaPad*%
%ADD20C,0.800000*%
%TD*%
%TA.AperFunction,Conductor*%
%ADD21C,0.300000*%
%TD*%
%TA.AperFunction,Conductor*%
%ADD22C,0.250000*%
%TD*%
%TA.AperFunction,Conductor*%
%ADD23C,0.400000*%
%TD*%
%TA.AperFunction,Conductor*%
%ADD24C,2.000000*%
%TD*%
%TA.AperFunction,Conductor*%
%ADD25C,0.600000*%
%TD*%
G04 APERTURE END LIST*
D10*
%TO.P,J26,1*%
%TO.N,/PB0*%
X55245000Y92710000D03*
%TO.P,J26,2*%
X55245000Y95250000D03*
%TD*%
D11*
%TO.P,BT1,*%
%TO.N,*%
X53995000Y71120000D03*
X18395000Y71120000D03*
D12*
%TO.P,BT1,1*%
%TO.N,Net-(BT1-Pad1)*%
X69945000Y71120000D03*
%TO.P,BT1,2*%
%TO.N,GND*%
X2445000Y71120000D03*
%TD*%
D10*
%TO.P,J24,1*%
%TO.N,VDD*%
X50165000Y92710000D03*
%TO.P,J24,2*%
X50165000Y95250000D03*
%TD*%
%TO.P,J4,1*%
%TO.N,/PC1*%
X76200000Y46355000D03*
%TO.P,J4,2*%
X73660000Y46355000D03*
%TD*%
%TO.P,J22,1*%
%TO.N,/PA0*%
X47625000Y92710000D03*
%TO.P,J22,2*%
X47625000Y95250000D03*
%TD*%
%TO.P,J20,1*%
%TO.N,/TX1*%
X73660000Y57785000D03*
%TO.P,J20,2*%
X76200000Y57785000D03*
%TD*%
%TO.P,J17,1*%
%TO.N,/RX0*%
X73660000Y65405000D03*
%TO.P,J17,2*%
X76200000Y65405000D03*
%TD*%
%TO.P,J19,1*%
%TO.N,/RX1*%
X73660000Y60325000D03*
%TO.P,J19,2*%
X76200000Y60325000D03*
%TD*%
%TO.P,J18,1*%
%TO.N,/TX0*%
X73660000Y62865000D03*
%TO.P,J18,2*%
X76200000Y62865000D03*
%TD*%
%TO.P,J1,1*%
%TO.N,GND*%
X76200000Y43815000D03*
%TO.P,J1,2*%
X73660000Y43815000D03*
%TD*%
%TO.P,J2,1*%
%TO.N,/PC0*%
X76200000Y51435000D03*
%TO.P,J2,2*%
X73660000Y51435000D03*
%TD*%
%TO.P,J5,1*%
%TO.N,GND*%
X76200000Y53975000D03*
%TO.P,J5,2*%
X73660000Y53975000D03*
%TD*%
%TO.P,J6,1*%
%TO.N,GND*%
X73660000Y21590000D03*
%TO.P,J6,2*%
X73660000Y24130000D03*
%TO.P,J6,3*%
%TO.N,Net-(F2-Pad1)*%
X76200000Y21590000D03*
%TO.P,J6,4*%
X76200000Y24130000D03*
%TO.P,J6,5*%
%TO.N,GND*%
X78740000Y21590000D03*
%TO.P,J6,6*%
X78740000Y24130000D03*
%TD*%
%TO.P,J8,1*%
%TO.N,/RST#*%
X76200000Y81280000D03*
%TO.P,J8,2*%
X73660000Y81280000D03*
%TD*%
%TO.P,J9,1*%
%TO.N,/AREF*%
X40005000Y92710000D03*
%TO.P,J9,2*%
%TO.N,Net-(C14-Pad1)*%
X40005000Y95250000D03*
%TD*%
%TO.P,J10,1*%
%TO.N,GND*%
X76200000Y29210000D03*
%TO.P,J10,2*%
X73660000Y29210000D03*
%TO.P,J10,3*%
%TO.N,Net-(J10-Pad3)*%
X76200000Y31750000D03*
%TO.P,J10,4*%
X73660000Y31750000D03*
%TO.P,J10,5*%
%TO.N,GND*%
X76200000Y34290000D03*
%TO.P,J10,6*%
X73660000Y34290000D03*
%TD*%
%TO.P,J11,1*%
%TO.N,Net-(J11-Pad1)*%
X19685000Y8890000D03*
%TO.P,J11,2*%
%TO.N,/SD_VDD*%
X19685000Y6350000D03*
%TD*%
%TO.P,J21,1*%
%TO.N,Net-(BT3-Pad1)*%
X73660000Y37465000D03*
%TO.P,J21,2*%
%TO.N,GND*%
X76200000Y37465000D03*
%TD*%
%TO.P,J23,1*%
%TO.N,/PA1*%
X45085000Y92710000D03*
%TO.P,J23,2*%
X45085000Y95250000D03*
%TD*%
%TO.P,J25,1*%
%TO.N,GND*%
X52705000Y92710000D03*
%TO.P,J25,2*%
X52705000Y95250000D03*
%TD*%
%TO.P,J27,1*%
%TO.N,/PB6*%
X65405000Y92710000D03*
%TO.P,J27,2*%
X65405000Y95250000D03*
%TD*%
%TO.P,J28,1*%
%TO.N,/PB7*%
X67945000Y92710000D03*
%TO.P,J28,2*%
X67945000Y95250000D03*
%TD*%
%TO.P,J29,1*%
%TO.N,/PB5*%
X62865000Y92710000D03*
%TO.P,J29,2*%
X62865000Y95250000D03*
%TD*%
%TO.P,J30,1*%
%TO.N,/INTA*%
X73660000Y40005000D03*
%TO.P,J30,2*%
X76200000Y40005000D03*
%TD*%
%TO.P,J31,1*%
%TO.N,/PB6*%
X76200000Y85090000D03*
%TO.P,J31,2*%
%TO.N,VDD*%
X73660000Y85090000D03*
%TO.P,J31,3*%
%TO.N,/PB7*%
X76200000Y87630000D03*
%TO.P,J31,4*%
%TO.N,/PB5*%
X73660000Y87630000D03*
%TO.P,J31,5*%
%TO.N,/RST#_P*%
X76200000Y90170000D03*
%TO.P,J31,6*%
%TO.N,GND*%
X73660000Y90170000D03*
%TD*%
D13*
%TO.P,M3,1*%
%TO.N,GND*%
X5080000Y96520000D03*
%TD*%
%TO.P,M2,1*%
%TO.N,GND*%
X5080000Y5080000D03*
%TD*%
%TO.P,M4,1*%
%TO.N,GND*%
X76200000Y96200000D03*
%TD*%
D10*
%TO.P,J32,1*%
%TO.N,Net-(F1-Pad2)*%
X76200000Y16510000D03*
%TO.P,J32,2*%
%TO.N,Net-(F2-Pad1)*%
X76200000Y19050000D03*
%TD*%
%TO.P,J33,1*%
%TO.N,GND*%
X73660000Y11430000D03*
%TO.P,J33,2*%
X73660000Y13970000D03*
%TO.P,J33,3*%
%TO.N,Net-(F1-Pad2)*%
X76200000Y11430000D03*
%TO.P,J33,4*%
X76200000Y13970000D03*
%TO.P,J33,5*%
%TO.N,GND*%
X78740000Y11430000D03*
%TO.P,J33,6*%
X78740000Y13970000D03*
%TD*%
D11*
%TO.P,BT2,*%
%TO.N,*%
X18395000Y33020000D03*
X53995000Y33020000D03*
D12*
%TO.P,BT2,1*%
%TO.N,Net-(BT1-Pad1)*%
X69945000Y33020000D03*
%TO.P,BT2,2*%
%TO.N,GND*%
X2445000Y33020000D03*
%TD*%
D14*
%TO.P,D3,1*%
%TO.N,GND*%
X12065000Y5080000D03*
D15*
%TO.P,D3,2*%
%TO.N,Net-(D3-Pad2)*%
X14605000Y5080000D03*
%TD*%
D10*
%TO.P,J3,1*%
%TO.N,VDD*%
X76200000Y48895000D03*
%TO.P,J3,2*%
X73660000Y48895000D03*
%TD*%
D16*
%TO.P,Y1,1*%
%TO.N,Net-(C5-Pad1)*%
X74930000Y76100940D03*
%TO.P,Y1,2*%
%TO.N,Net-(C8-Pad1)*%
X74930000Y71219060D03*
%TD*%
D10*
%TO.P,J12,1*%
%TO.N,/PC2*%
X12700000Y92710000D03*
%TO.P,J12,2*%
X12700000Y95250000D03*
%TD*%
%TO.P,J16,1*%
%TO.N,/PC6*%
X22860000Y92710000D03*
%TO.P,J16,2*%
X22860000Y95250000D03*
%TD*%
%TO.P,J15,1*%
%TO.N,/PC5*%
X20320000Y92710000D03*
%TO.P,J15,2*%
X20320000Y95250000D03*
%TD*%
%TO.P,J14,1*%
%TO.N,/INT*%
X17780000Y92710000D03*
%TO.P,J14,2*%
X17780000Y95250000D03*
%TD*%
%TO.P,J13,1*%
%TO.N,/PC3*%
X15240000Y92710000D03*
%TO.P,J13,2*%
X15240000Y95250000D03*
%TD*%
D17*
%TO.P,SW1,1*%
%TO.N,Net-(C10-Pad1)*%
X58165000Y11816000D03*
%TO.P,SW1,2*%
%TO.N,Net-(D2-Pad1)*%
X62865000Y11816000D03*
%TO.P,SW1,3*%
%TO.N,N/C*%
X67565000Y11816000D03*
%TO.P,SW1,4*%
X56260000Y2286000D03*
X69470000Y2286000D03*
%TD*%
D18*
%TO.P,U2,9*%
%TO.N,GND*%
X65405000Y34925000D03*
D19*
X65405000Y35425000D03*
X65405000Y34425000D03*
%TD*%
D20*
%TO.N,GND*%
X79375000Y74295000D03*
X50165000Y56515000D03*
X52515000Y82550000D03*
X5715000Y68580000D03*
X34925000Y34290000D03*
X6350000Y36195000D03*
X66675000Y77470000D03*
X41275000Y55880000D03*
X53975000Y27940000D03*
X62230000Y22860000D03*
X4445000Y36195000D03*
X30480000Y83185000D03*
X52705000Y90970000D03*
X73660000Y92075000D03*
X38735000Y58420000D03*
X57300686Y73810686D03*
X34925000Y35560000D03*
X66675000Y67310000D03*
X79375000Y71755000D03*
X42545000Y27940000D03*
X68580000Y77470000D03*
X57785000Y92075000D03*
X26670000Y57785000D03*
X52705000Y26670000D03*
X4445000Y33020000D03*
X59690000Y19050000D03*
X41275000Y52070000D03*
X8255000Y68580000D03*
X41910000Y3810000D03*
X71755000Y92075000D03*
X46355000Y57150000D03*
X52515000Y85725000D03*
X60325000Y78105000D03*
X24130000Y56515000D03*
X52070000Y62865000D03*
X40005000Y80010000D03*
X43815000Y86360000D03*
X43815000Y89535000D03*
X36830000Y3810000D03*
X40640000Y88900000D03*
X59055000Y92075000D03*
X34925000Y27940000D03*
X76200000Y67310000D03*
X50165000Y58420000D03*
X71120000Y75565000D03*
X52705000Y27940000D03*
X31750000Y80645000D03*
X65405000Y43815000D03*
X31115000Y50165000D03*
X33655000Y57785000D03*
X34925000Y46355000D03*
X42545000Y95885000D03*
X73660000Y67310000D03*
X63500000Y21590000D03*
X64770000Y21590000D03*
X27305000Y31115000D03*
X43815000Y50800000D03*
X66675000Y73660000D03*
X42545000Y34925000D03*
X60325000Y79375000D03*
X54610000Y85725000D03*
X53975000Y25400000D03*
X34290000Y80645000D03*
X38735000Y62865000D03*
X46355000Y59690000D03*
X46355000Y58420000D03*
X22225000Y57150000D03*
X63500000Y22860000D03*
X24765000Y31750000D03*
X38735000Y80010000D03*
X46355000Y55245000D03*
X4445000Y31115000D03*
X40640000Y87630000D03*
X46355000Y49530000D03*
X26035000Y33020000D03*
X60960000Y45085000D03*
X50165000Y26670000D03*
X33655000Y53975000D03*
X29210000Y83185000D03*
X48895000Y84455000D03*
X51435000Y26670000D03*
X38735000Y78740000D03*
X31115000Y56515000D03*
X1905000Y36195000D03*
X18415000Y57150000D03*
X53975000Y46990000D03*
X30480000Y80645000D03*
X42545000Y33020000D03*
X43815000Y53975000D03*
X63500000Y20320000D03*
X43815000Y52070000D03*
X64770000Y20320000D03*
X55245000Y27940000D03*
X42545000Y29845000D03*
X28575000Y59055000D03*
X58585000Y69850000D03*
X72390000Y74295000D03*
X61415000Y74295000D03*
X36830000Y46355000D03*
X59690000Y45085000D03*
X53975000Y60960000D03*
X38735000Y54610000D03*
X39370000Y86360000D03*
X52070000Y64770000D03*
X57935686Y73175686D03*
X40005000Y78740000D03*
X33655000Y50165000D03*
X34925000Y45085000D03*
X39370000Y3810000D03*
X79375000Y73025000D03*
X55245000Y25400000D03*
X42545000Y31115000D03*
X53975000Y49530000D03*
X39370000Y88900000D03*
X59055000Y90805000D03*
X29210000Y80645000D03*
X56515000Y86360000D03*
X41275000Y50800000D03*
X50165000Y59690000D03*
X46355000Y53340000D03*
X71755000Y89700000D03*
X20955000Y57150000D03*
X53975000Y44450000D03*
X78740000Y67310000D03*
X64135000Y81915000D03*
X59055000Y89535000D03*
X53975000Y26670000D03*
X58585000Y71120000D03*
X6350000Y34925000D03*
X54610000Y84455000D03*
X52705000Y25400000D03*
X71120000Y67310000D03*
X41275000Y57150000D03*
X33655000Y55880000D03*
X38100000Y46355000D03*
X33020000Y80645000D03*
X59055000Y78105000D03*
X43815000Y57150000D03*
X31115000Y53975000D03*
X51435000Y27940000D03*
X48895000Y85725000D03*
X38735000Y50800000D03*
X61595000Y41275000D03*
X39370000Y85090000D03*
X71755000Y90805000D03*
X49530000Y86995000D03*
X34925000Y31750000D03*
X46990000Y83820000D03*
X38100000Y45085000D03*
X5715000Y71120000D03*
X26035000Y31750000D03*
X52070000Y66675000D03*
X47625000Y87630000D03*
X31750000Y3810000D03*
X31115000Y52070000D03*
X4445000Y34925000D03*
X38735000Y52705000D03*
X8255000Y71120000D03*
X34925000Y29845000D03*
X50165000Y27940000D03*
X44450000Y84455000D03*
X66675000Y68580000D03*
X40640000Y85090000D03*
X27305000Y32385000D03*
X24765000Y33020000D03*
X41275000Y53340000D03*
X59525000Y70485000D03*
X25400000Y56515000D03*
X64770000Y22860000D03*
X43815000Y55880000D03*
X38735000Y56515000D03*
X36830000Y45085000D03*
X55245000Y26670000D03*
X40640000Y86360000D03*
X41275000Y54610000D03*
X11430000Y71120000D03*
X6350000Y31115000D03*
X11430000Y68580000D03*
X39370000Y87630000D03*
X79375000Y70485000D03*
X38735000Y59690000D03*
X42545000Y97155000D03*
X59690000Y20955000D03*
X50800000Y87630000D03*
X46355000Y51435000D03*
X66675000Y75565000D03*
X18415000Y55245000D03*
X18415000Y53340000D03*
X64135000Y39370000D03*
X6350000Y33020000D03*
X34290000Y3810000D03*
%TO.N,VDD*%
X60960000Y60960000D03*
X66040000Y61277500D03*
X34290000Y70485000D03*
X59164557Y40749557D03*
X65925000Y48260000D03*
X34290000Y75565000D03*
X50165000Y73495000D03*
X56515000Y79375000D03*
%TO.N,/PC0*%
X66510000Y50165000D03*
X68326000Y52070000D03*
%TO.N,Net-(J11-Pad1)*%
X57785000Y85725000D03*
%TO.N,/PB6*%
X64135000Y86360000D03*
X66675000Y86360000D03*
X45085000Y44450000D03*
%TO.N,/PB7*%
X40005000Y44450000D03*
X60573186Y83571814D03*
%TO.N,/PB5*%
X67945000Y87630000D03*
X62215000Y87630000D03*
X32385000Y44450000D03*
%TO.N,/PB4*%
X29845000Y44450000D03*
X59055000Y84455000D03*
%TO.N,/LED*%
X15875000Y13335000D03*
X45720000Y80010000D03*
%TO.N,/PA2*%
X55715000Y78105000D03*
X54610000Y58420000D03*
X58115000Y58420000D03*
X63361371Y35421371D03*
%TO.N,/RST#_P*%
X73660000Y83185000D03*
X69850000Y84772500D03*
%TD*%
D21*
%TO.N,GND*%
X38735000Y59690000D02*
X38735000Y62865000D01*
X38296998Y51435000D02*
X38735000Y52705000D01*
D22*
X31115000Y50165000D02*
X31115000Y52070000D01*
D21*
X39370000Y87630000D02*
X39370000Y88900000D01*
X59690000Y19050000D02*
X59690000Y20955000D01*
X33185000Y56350000D02*
X33655000Y55880000D01*
D23*
X73660000Y67310000D02*
X71120000Y67310000D01*
D21*
X73660000Y90170000D02*
X73660000Y92075000D01*
X33185000Y57785000D02*
X33185000Y56350000D01*
X46355000Y55245000D02*
X46355000Y53340000D01*
X40005000Y80010000D02*
X40005000Y78740000D01*
D22*
X43815000Y86360000D02*
X43815000Y89535000D01*
X36830000Y3810000D02*
X34290000Y3810000D01*
D21*
X41275000Y57150000D02*
X41275000Y55880000D01*
X31750000Y80645000D02*
X30480000Y80645000D01*
D22*
X34380001Y53430001D02*
X34834999Y53430001D01*
D21*
X38735000Y62395000D02*
X39205000Y62865000D01*
X11430000Y71120000D02*
X11430000Y68580000D01*
X55245000Y25400000D02*
X55245000Y26670000D01*
X18415000Y57150000D02*
X20955000Y57150000D01*
X53975000Y26670000D02*
X52705000Y26670000D01*
X38735000Y50800000D02*
X38296998Y51435000D01*
D22*
X34834999Y53430001D02*
X34925000Y53520002D01*
D21*
X42545000Y27940000D02*
X42545000Y29845000D01*
X8255000Y68580000D02*
X5715000Y68580000D01*
X34290000Y80645000D02*
X33020000Y80645000D01*
D23*
X66675000Y73660000D02*
X66675000Y75565000D01*
D21*
X50165000Y56515000D02*
X50165000Y58420000D01*
X52070000Y64770000D02*
X52070000Y62865000D01*
X58585000Y69850000D02*
X55410000Y66675000D01*
D22*
X50800000Y85725000D02*
X49530000Y86995000D01*
X38100000Y46355000D02*
X37465000Y46990000D01*
X50800000Y87630000D02*
X47625000Y87630000D01*
D21*
X52705000Y82550000D02*
X54610000Y84455000D01*
X58585000Y71120000D02*
X58585000Y69850000D01*
X2445000Y35655000D02*
X1905000Y36195000D01*
X52515000Y82550000D02*
X52705000Y82550000D01*
X57300686Y73810686D02*
X57935686Y73175686D01*
D22*
X64135000Y39370000D02*
X63500000Y39370000D01*
D21*
X6350000Y34925000D02*
X6350000Y33020000D01*
D22*
X37465000Y51435000D02*
X38296998Y51435000D01*
D21*
X4445000Y36195000D02*
X6350000Y36195000D01*
X52705000Y27940000D02*
X53975000Y27940000D01*
X40640000Y86360000D02*
X40640000Y85090000D01*
X64770000Y20320000D02*
X63500000Y20320000D01*
D22*
X46990000Y83820000D02*
X45085000Y83820000D01*
D21*
X43815000Y52070000D02*
X43815000Y53975000D01*
X50165000Y27940000D02*
X51435000Y27940000D01*
X79375000Y71755000D02*
X79375000Y70485000D01*
X79375000Y74295000D02*
X79375000Y73025000D01*
D22*
X28575000Y59055000D02*
X27940000Y59055000D01*
D21*
X71755000Y92075000D02*
X71755000Y90805000D01*
X38100000Y45085000D02*
X38100000Y46355000D01*
X46355000Y58420000D02*
X46355000Y57150000D01*
X27305000Y32385000D02*
X27305000Y31115000D01*
X34925000Y45085000D02*
X36830000Y45085000D01*
X33655000Y52705000D02*
X33655000Y50165000D01*
X38735000Y78740000D02*
X38735000Y80010000D01*
X60325000Y79375000D02*
X60325000Y78105000D01*
X42545000Y31115000D02*
X42545000Y33020000D01*
D22*
X48895000Y85725000D02*
X48895000Y84455000D01*
X34925000Y56515000D02*
X33660010Y57779990D01*
X33660010Y57779990D02*
X33660010Y57785000D01*
D21*
X41275000Y54610000D02*
X41275000Y53340000D01*
X43815000Y55880000D02*
X43815000Y57150000D01*
X18415000Y53340000D02*
X18415000Y55245000D01*
X52705000Y25400000D02*
X53975000Y25400000D01*
D22*
X42545000Y95885000D02*
X42545000Y97155000D01*
D21*
X6350000Y31115000D02*
X4445000Y31115000D01*
X57785000Y92075000D02*
X59055000Y92075000D01*
X62230000Y22860000D02*
X63500000Y22860000D01*
D22*
X52515000Y85725000D02*
X50800000Y85725000D01*
X37465000Y46990000D02*
X37465000Y51435000D01*
D21*
X50165000Y59690000D02*
X46355000Y59690000D01*
D22*
X53975000Y44450000D02*
X53975000Y46990000D01*
D21*
X38735000Y58420000D02*
X38735000Y62395000D01*
X26035000Y31750000D02*
X26035000Y33020000D01*
D22*
X31115000Y53975000D02*
X31115000Y56515000D01*
X25400000Y56515000D02*
X24130000Y56515000D01*
D21*
X40640000Y88900000D02*
X40640000Y87630000D01*
D23*
X78740000Y67310000D02*
X76200000Y67310000D01*
X66675000Y67310000D02*
X66675000Y68580000D01*
D21*
X39370000Y85090000D02*
X39370000Y86360000D01*
D22*
X45085000Y83820000D02*
X44450000Y84455000D01*
X60960000Y45085000D02*
X59690000Y45085000D01*
X41910000Y3810000D02*
X39370000Y3810000D01*
D23*
X66675000Y77470000D02*
X68580000Y77470000D01*
D21*
X33655000Y53975000D02*
X33655000Y52705000D01*
X5715000Y71120000D02*
X8255000Y71120000D01*
X64770000Y22860000D02*
X64770000Y21590000D01*
X41275000Y52070000D02*
X41275000Y50800000D01*
X34925000Y31750000D02*
X34925000Y34290000D01*
X4445000Y33020000D02*
X4445000Y34925000D01*
D22*
X34925000Y53520002D02*
X34925000Y56515000D01*
D21*
X36830000Y46355000D02*
X34925000Y46355000D01*
X24765000Y33020000D02*
X24765000Y31750000D01*
X34925000Y27940000D02*
X34925000Y29845000D01*
D22*
X33655000Y52705000D02*
X34380001Y53430001D01*
D21*
X34925000Y35560000D02*
X34925000Y37465000D01*
X51435000Y26670000D02*
X50165000Y26670000D01*
X59055000Y90805000D02*
X59055000Y89535000D01*
D22*
X63500000Y39370000D02*
X61595000Y41275000D01*
D21*
X38735000Y54610000D02*
X38735000Y56515000D01*
X46355000Y51435000D02*
X46355000Y49530000D01*
X2445000Y33020000D02*
X2445000Y35655000D01*
X55410000Y66675000D02*
X52070000Y66675000D01*
D23*
X71120000Y75565000D02*
X72390000Y74295000D01*
D21*
X30480000Y83185000D02*
X29210000Y83185000D01*
D22*
X43815000Y49530000D02*
X43815000Y50800000D01*
X27940000Y59055000D02*
X26670000Y57785000D01*
D24*
%TO.N,Net-(BT1-Pad1)*%
X69945000Y71120000D02*
X62865000Y71120000D01*
X56515000Y40005000D02*
X63500000Y33020000D01*
X56515000Y64770000D02*
X56515000Y40005000D01*
X62865000Y71120000D02*
X56515000Y64770000D01*
X63500000Y33020000D02*
X69945000Y33020000D01*
D25*
%TO.N,VDD*%
X51235512Y74565512D02*
X51235512Y74930000D01*
X67310000Y48895000D02*
X70485000Y48895000D01*
X65994315Y47625000D02*
X66040000Y47625000D01*
X55680512Y79375000D02*
X56515000Y79375000D01*
X70485000Y48895000D02*
X73660000Y48895000D01*
X70485000Y56832500D02*
X66040000Y61277500D01*
X66040000Y61277500D02*
X61277500Y61277500D01*
X66675000Y48260000D02*
X67310000Y48895000D01*
X66675000Y48260000D02*
X66040000Y47625000D01*
X50165000Y73495000D02*
X51235512Y74565512D01*
X61277500Y61277500D02*
X60960000Y60960000D01*
X65925000Y48260000D02*
X65925000Y47694315D01*
X70485000Y48895000D02*
X70485000Y56832500D01*
X34290000Y75565000D02*
X34290000Y70485000D01*
X65925000Y48260000D02*
X66675000Y48260000D01*
X65925000Y47694315D02*
X65994315Y47625000D01*
X66040000Y47625000D02*
X59164557Y40749557D01*
X51235512Y74930000D02*
X55680512Y79375000D01*
D21*
%TO.N,/PC0*%
X66510000Y50165000D02*
X66510000Y50254000D01*
X66510000Y50254000D02*
X68326000Y52070000D01*
D25*
%TO.N,Net-(J11-Pad1)*%
X57785000Y85725000D02*
X57504962Y85725000D01*
X19685000Y15875000D02*
X19685000Y8890000D01*
X22860000Y19050000D02*
X19685000Y15875000D01*
X57504962Y85725000D02*
X22860000Y51080038D01*
X22860000Y51080038D02*
X22860000Y19050000D01*
D23*
%TO.N,/PB6*%
X58985685Y80645000D02*
X55960550Y80645000D01*
X64135000Y85794315D02*
X58985685Y80645000D01*
X45085000Y57699002D02*
X45085000Y44450000D01*
X55960550Y80645000D02*
X45085000Y69769450D01*
X76200000Y85090000D02*
X75565000Y85725000D01*
X66675000Y86360000D02*
X64135000Y86360000D01*
X64135000Y86360000D02*
X64135000Y85794315D01*
X45085000Y69769450D02*
X45085000Y57699002D01*
%TO.N,/PB7*%
X58610747Y81609375D02*
X56076383Y81609375D01*
X40005000Y62865000D02*
X40005000Y44450000D01*
X56076383Y81609375D02*
X40005000Y65537992D01*
X60573186Y83571814D02*
X58610747Y81609375D01*
X40005000Y65537992D02*
X40005000Y62865000D01*
%TO.N,/PB5*%
X62215000Y86345000D02*
X58275767Y82405767D01*
X58275767Y82405767D02*
X56024233Y82405767D01*
X56024233Y82405767D02*
X32385000Y58766534D01*
X32385000Y58766534D02*
X32385000Y56515000D01*
X32385000Y56515000D02*
X32385000Y44450000D01*
X62215000Y87630000D02*
X62215000Y86345000D01*
X67945000Y87630000D02*
X62215000Y87630000D01*
%TO.N,/PB4*%
X59055000Y84455000D02*
X57224924Y84455000D01*
X29845000Y55245000D02*
X29845000Y44450000D01*
X57224924Y84455000D02*
X29845000Y57075076D01*
X29845000Y57075076D02*
X29845000Y55245000D01*
%TO.N,/LED*%
X22159990Y19619990D02*
X15875000Y13335000D01*
X22159990Y51369990D02*
X22159990Y19619990D01*
X45720000Y74930000D02*
X22159990Y51369990D01*
X45720000Y80010000D02*
X45720000Y74930000D01*
%TO.N,/PA2*%
X58115000Y58420000D02*
X57915010Y58420000D01*
X58115000Y40667742D02*
X58420000Y40362742D01*
X55315001Y77460999D02*
X50800000Y72945998D01*
X63361371Y35421371D02*
X58420000Y40362742D01*
X58115000Y58420000D02*
X58115000Y40667742D01*
X55715000Y78105000D02*
X55315001Y77705001D01*
X55315001Y77705001D02*
X55315001Y77460999D01*
X50800000Y72945998D02*
X50800000Y62230000D01*
X50800000Y62230000D02*
X54610000Y58420000D01*
%TO.N,/RST#_P*%
X69850000Y84772500D02*
X71437500Y83185000D01*
X71437500Y83185000D02*
X73660000Y83185000D01*
%TD*%
%TA.AperFunction,Conductor*%
%TO.N,GND*%
G36*
X80957621Y101315498D02*
G01*
X81004114Y101261842D01*
X81015500Y101209500D01*
X81015500Y390500D01*
X80995498Y322379D01*
X80941842Y275886D01*
X80889500Y264500D01*
X70461077Y264500D01*
X70392956Y284502D01*
X70346463Y338158D01*
X70336359Y408432D01*
X70365853Y473012D01*
X70395609Y498157D01*
X70396197Y498516D01*
X70396200Y498516D01*
X70630969Y641282D01*
X70844111Y814686D01*
X71031657Y1015498D01*
X71190111Y1239977D01*
X71316523Y1483942D01*
X71408538Y1742847D01*
X71464442Y2011870D01*
X71483193Y2286000D01*
X71464442Y2560130D01*
X71408538Y2829153D01*
X71316523Y3088058D01*
X71190111Y3332023D01*
X71031657Y3556502D01*
X70844111Y3757314D01*
X70630969Y3930718D01*
X70396200Y4073484D01*
X70396201Y4073484D01*
X70396197Y4073486D01*
X70144180Y4182952D01*
X70144178Y4182953D01*
X70144177Y4182953D01*
X70011886Y4220020D01*
X69879593Y4257086D01*
X69607395Y4294500D01*
X69607385Y4294500D01*
X69332615Y4294500D01*
X69332604Y4294500D01*
X69060406Y4257086D01*
X68795819Y4182952D01*
X68543802Y4073486D01*
X68309028Y3930716D01*
X68095886Y3757312D01*
X67908343Y3556502D01*
X67749892Y3332029D01*
X67623477Y3088059D01*
X67531462Y2829155D01*
X67531460Y2829147D01*
X67475557Y2560123D01*
X67475556Y2560117D01*
X67456807Y2286005D01*
X67456807Y2285996D01*
X67475556Y2011884D01*
X67475557Y2011878D01*
X67475558Y2011870D01*
X67506217Y1864330D01*
X67531460Y1742854D01*
X67531462Y1742846D01*
X67623477Y1483942D01*
X67749892Y1239972D01*
X67817797Y1143773D01*
X67908343Y1015498D01*
X68095889Y814686D01*
X68309031Y641282D01*
X68543800Y498516D01*
X68543802Y498516D01*
X68544391Y498157D01*
X68592202Y445672D01*
X68604047Y375671D01*
X68576167Y310378D01*
X68517412Y270523D01*
X68478923Y264500D01*
X57251077Y264500D01*
X57182956Y284502D01*
X57136463Y338158D01*
X57126359Y408432D01*
X57155853Y473012D01*
X57185609Y498157D01*
X57186197Y498516D01*
X57186200Y498516D01*
X57420969Y641282D01*
X57634111Y814686D01*
X57821657Y1015498D01*
X57980111Y1239977D01*
X58106523Y1483942D01*
X58198538Y1742847D01*
X58254442Y2011870D01*
X58273193Y2286000D01*
X58254442Y2560130D01*
X58198538Y2829153D01*
X58106523Y3088058D01*
X57980111Y3332023D01*
X57821657Y3556502D01*
X57634111Y3757314D01*
X57420969Y3930718D01*
X57186200Y4073484D01*
X57186201Y4073484D01*
X57186197Y4073486D01*
X56934180Y4182952D01*
X56934178Y4182953D01*
X56934177Y4182953D01*
X56801886Y4220019D01*
X56669593Y4257086D01*
X56397395Y4294500D01*
X56397385Y4294500D01*
X56122615Y4294500D01*
X56122604Y4294500D01*
X55850406Y4257086D01*
X55585819Y4182952D01*
X55333802Y4073486D01*
X55099028Y3930716D01*
X54885886Y3757312D01*
X54698343Y3556502D01*
X54539892Y3332029D01*
X54413477Y3088059D01*
X54321462Y2829155D01*
X54321460Y2829147D01*
X54265557Y2560123D01*
X54265556Y2560117D01*
X54246807Y2286005D01*
X54246807Y2285996D01*
X54265556Y2011884D01*
X54265557Y2011878D01*
X54265558Y2011870D01*
X54296217Y1864330D01*
X54321460Y1742854D01*
X54321462Y1742846D01*
X54413477Y1483942D01*
X54539892Y1239972D01*
X54607797Y1143773D01*
X54698343Y1015498D01*
X54885889Y814686D01*
X55099031Y641282D01*
X55333800Y498516D01*
X55333802Y498516D01*
X55334391Y498157D01*
X55382202Y445672D01*
X55394047Y375671D01*
X55366167Y310378D01*
X55307412Y270523D01*
X55268923Y264500D01*
X390500Y264500D01*
X322379Y284502D01*
X275886Y338158D01*
X264500Y390500D01*
X264500Y5080000D01*
X13191673Y5080000D01*
X13191714Y5079500D01*
X13210950Y4847367D01*
X13268249Y4621097D01*
X13268252Y4621090D01*
X13362015Y4407332D01*
X13489685Y4211917D01*
X13647774Y4040187D01*
X13647778Y4040183D01*
X13713650Y3988913D01*
X13831983Y3896810D01*
X14037273Y3785713D01*
X14258049Y3709920D01*
X14488288Y3671500D01*
X14488292Y3671500D01*
X14721708Y3671500D01*
X14721712Y3671500D01*
X14951951Y3709920D01*
X15172727Y3785713D01*
X15378017Y3896810D01*
X15562220Y4040182D01*
X15720314Y4211917D01*
X15847984Y4407331D01*
X15941749Y4621093D01*
X15999051Y4847374D01*
X16018327Y5080000D01*
X15999051Y5312626D01*
X15956971Y5478796D01*
X15941750Y5538904D01*
X15941747Y5538911D01*
X15847984Y5752669D01*
X15720314Y5948084D01*
X15562225Y6119814D01*
X15562221Y6119818D01*
X15470118Y6191504D01*
X15378017Y6263190D01*
X15172727Y6374287D01*
X15172724Y6374288D01*
X15172723Y6374289D01*
X14951955Y6450079D01*
X14951948Y6450081D01*
X14853411Y6466524D01*
X14721712Y6488500D01*
X14488288Y6488500D01*
X14373066Y6469273D01*
X14258051Y6450081D01*
X14258044Y6450079D01*
X14037276Y6374289D01*
X14037273Y6374287D01*
X13831985Y6263191D01*
X13831983Y6263190D01*
X13647778Y6119818D01*
X13647774Y6119814D01*
X13489685Y5948084D01*
X13362015Y5752669D01*
X13268252Y5538911D01*
X13268249Y5538904D01*
X13210950Y5312634D01*
X13210949Y5312628D01*
X13210949Y5312626D01*
X13191673Y5080000D01*
X264500Y5080000D01*
X264500Y13335001D01*
X14961496Y13335001D01*
X14981457Y13145073D01*
X15011526Y13052530D01*
X15040473Y12963444D01*
X15041426Y12961793D01*
X15135958Y12798059D01*
X15135965Y12798049D01*
X15263744Y12656136D01*
X15316154Y12618058D01*
X15418248Y12543882D01*
X15592712Y12466206D01*
X15779513Y12426500D01*
X15970487Y12426500D01*
X16157288Y12466206D01*
X16331752Y12543882D01*
X16486253Y12656134D01*
X16525750Y12700000D01*
X16614034Y12798049D01*
X16614035Y12798051D01*
X16614040Y12798056D01*
X16709527Y12963444D01*
X16768542Y13145072D01*
X16773449Y13191770D01*
X16800460Y13257426D01*
X16809655Y13267687D01*
X18661406Y15119438D01*
X18723717Y15153462D01*
X18794533Y15148397D01*
X18851368Y15105850D01*
X18876179Y15039330D01*
X18876500Y15030341D01*
X18876500Y10264859D01*
X18856498Y10196738D01*
X18802842Y10150245D01*
X18794534Y10146804D01*
X18676795Y10102889D01*
X18676792Y10102888D01*
X18559738Y10015262D01*
X18472112Y9898208D01*
X18472110Y9898203D01*
X18421011Y9761205D01*
X18421009Y9761197D01*
X18414500Y9700650D01*
X18414500Y8079351D01*
X18421009Y8018804D01*
X18421011Y8018796D01*
X18472110Y7881798D01*
X18472112Y7881793D01*
X18559739Y7764739D01*
X18618343Y7720867D01*
X18660889Y7664031D01*
X18665953Y7593216D01*
X18631928Y7530904D01*
X18618343Y7519133D01*
X18559739Y7475262D01*
X18472112Y7358208D01*
X18472110Y7358203D01*
X18421011Y7221205D01*
X18421009Y7221197D01*
X18414500Y7160650D01*
X18414500Y5539351D01*
X18421009Y5478804D01*
X18421011Y5478796D01*
X18472110Y5341798D01*
X18472112Y5341793D01*
X18559738Y5224739D01*
X18676792Y5137113D01*
X18676794Y5137112D01*
X18676796Y5137111D01*
X18735875Y5115076D01*
X18813795Y5086012D01*
X18813803Y5086010D01*
X18874350Y5079501D01*
X18874355Y5079501D01*
X18874362Y5079500D01*
X18874368Y5079500D01*
X20495632Y5079500D01*
X20495638Y5079500D01*
X20495645Y5079501D01*
X20495649Y5079501D01*
X20556196Y5086010D01*
X20556199Y5086011D01*
X20556201Y5086011D01*
X20693204Y5137111D01*
X20810261Y5224739D01*
X20897889Y5341796D01*
X20948989Y5478799D01*
X20955500Y5539362D01*
X20955500Y7160638D01*
X20955499Y7160650D01*
X20948990Y7221197D01*
X20948988Y7221205D01*
X20897889Y7358203D01*
X20897887Y7358208D01*
X20810261Y7475262D01*
X20751657Y7519132D01*
X20709110Y7575968D01*
X20704046Y7646784D01*
X20738071Y7709096D01*
X20751657Y7720868D01*
X20810261Y7764739D01*
X20897887Y7881793D01*
X20897887Y7881794D01*
X20897889Y7881796D01*
X20948989Y8018799D01*
X20955500Y8079362D01*
X20955500Y9700638D01*
X20955499Y9700650D01*
X20948990Y9761197D01*
X20948988Y9761205D01*
X20897889Y9898203D01*
X20897887Y9898208D01*
X20810261Y10015262D01*
X20693207Y10102888D01*
X20693204Y10102889D01*
X20575466Y10146804D01*
X20518631Y10189351D01*
X20493821Y10255871D01*
X20493500Y10264859D01*
X20493500Y11815996D01*
X56151807Y11815996D01*
X56170556Y11541884D01*
X56170557Y11541878D01*
X56170558Y11541870D01*
X56201217Y11394330D01*
X56226460Y11272854D01*
X56226462Y11272846D01*
X56318477Y11013942D01*
X56444892Y10769972D01*
X56512797Y10673773D01*
X56603343Y10545498D01*
X56790889Y10344686D01*
X57004031Y10171282D01*
X57238800Y10028516D01*
X57490823Y9919047D01*
X57755404Y9844915D01*
X57850504Y9831844D01*
X58027604Y9807501D01*
X58027615Y9807500D01*
X58302385Y9807500D01*
X58302395Y9807501D01*
X58431945Y9825308D01*
X58574596Y9844915D01*
X58839177Y9919047D01*
X59091200Y10028516D01*
X59325969Y10171282D01*
X59539111Y10344686D01*
X59726657Y10545498D01*
X59885111Y10769977D01*
X60011523Y11013942D01*
X60103538Y11272847D01*
X60159442Y11541870D01*
X60178193Y11815996D01*
X60851807Y11815996D01*
X60870556Y11541884D01*
X60870557Y11541878D01*
X60870558Y11541870D01*
X60901217Y11394330D01*
X60926460Y11272854D01*
X60926462Y11272846D01*
X61018477Y11013942D01*
X61144892Y10769972D01*
X61212797Y10673773D01*
X61303343Y10545498D01*
X61490889Y10344686D01*
X61704031Y10171282D01*
X61938800Y10028516D01*
X62190823Y9919047D01*
X62455404Y9844915D01*
X62550504Y9831844D01*
X62727604Y9807501D01*
X62727615Y9807500D01*
X63002385Y9807500D01*
X63002395Y9807501D01*
X63131945Y9825308D01*
X63274596Y9844915D01*
X63539177Y9919047D01*
X63791200Y10028516D01*
X64025969Y10171282D01*
X64239111Y10344686D01*
X64426657Y10545498D01*
X64585111Y10769977D01*
X64711523Y11013942D01*
X64803538Y11272847D01*
X64859442Y11541870D01*
X64878193Y11815996D01*
X65551807Y11815996D01*
X65570556Y11541884D01*
X65570557Y11541878D01*
X65570558Y11541870D01*
X65601217Y11394330D01*
X65626460Y11272854D01*
X65626462Y11272846D01*
X65718477Y11013942D01*
X65844892Y10769972D01*
X65912797Y10673773D01*
X66003343Y10545498D01*
X66190889Y10344686D01*
X66404031Y10171282D01*
X66638800Y10028516D01*
X66890823Y9919047D01*
X67155404Y9844915D01*
X67250504Y9831844D01*
X67427604Y9807501D01*
X67427615Y9807500D01*
X67702385Y9807500D01*
X67702395Y9807501D01*
X67831945Y9825308D01*
X67974596Y9844915D01*
X68239177Y9919047D01*
X68491200Y10028516D01*
X68725969Y10171282D01*
X68939111Y10344686D01*
X69126657Y10545498D01*
X69178788Y10619351D01*
X74929500Y10619351D01*
X74936009Y10558804D01*
X74936011Y10558796D01*
X74987110Y10421798D01*
X74987112Y10421793D01*
X75074738Y10304739D01*
X75191792Y10217113D01*
X75191794Y10217112D01*
X75191796Y10217111D01*
X75246418Y10196738D01*
X75328795Y10166012D01*
X75328803Y10166010D01*
X75389350Y10159501D01*
X75389355Y10159501D01*
X75389362Y10159500D01*
X75389368Y10159500D01*
X77010632Y10159500D01*
X77010638Y10159500D01*
X77010645Y10159501D01*
X77010649Y10159501D01*
X77071196Y10166010D01*
X77071199Y10166011D01*
X77071201Y10166011D01*
X77208204Y10217111D01*
X77325261Y10304739D01*
X77412889Y10421796D01*
X77463989Y10558799D01*
X77470500Y10619362D01*
X77470500Y12240638D01*
X77470499Y12240650D01*
X77463990Y12301197D01*
X77463988Y12301205D01*
X77412889Y12438203D01*
X77412887Y12438208D01*
X77325261Y12555262D01*
X77266657Y12599132D01*
X77224110Y12655968D01*
X77219046Y12726784D01*
X77253071Y12789096D01*
X77266657Y12800868D01*
X77325261Y12844739D01*
X77412887Y12961793D01*
X77412887Y12961794D01*
X77412889Y12961796D01*
X77463989Y13098799D01*
X77468964Y13145070D01*
X77470499Y13159351D01*
X77470500Y13159368D01*
X77470500Y14780633D01*
X77470499Y14780650D01*
X77463990Y14841197D01*
X77463988Y14841205D01*
X77412889Y14978203D01*
X77412887Y14978208D01*
X77325260Y15095263D01*
X77266656Y15139134D01*
X77224110Y15195970D01*
X77219046Y15266786D01*
X77253072Y15329098D01*
X77266655Y15340867D01*
X77325261Y15384739D01*
X77412889Y15501796D01*
X77463989Y15638799D01*
X77470500Y15699362D01*
X77470500Y17320638D01*
X77470499Y17320650D01*
X77463990Y17381197D01*
X77463988Y17381205D01*
X77412889Y17518203D01*
X77412887Y17518208D01*
X77325261Y17635262D01*
X77266657Y17679132D01*
X77224110Y17735968D01*
X77219046Y17806784D01*
X77253071Y17869096D01*
X77266657Y17880868D01*
X77325261Y17924739D01*
X77412887Y18041793D01*
X77412887Y18041794D01*
X77412889Y18041796D01*
X77463989Y18178799D01*
X77470500Y18239362D01*
X77470500Y19860638D01*
X77466534Y19897529D01*
X77463990Y19921197D01*
X77463988Y19921205D01*
X77412889Y20058203D01*
X77412887Y20058208D01*
X77325260Y20175263D01*
X77266656Y20219134D01*
X77224110Y20275970D01*
X77219046Y20346786D01*
X77253072Y20409098D01*
X77266655Y20420867D01*
X77325261Y20464739D01*
X77412889Y20581796D01*
X77463989Y20718799D01*
X77470500Y20779362D01*
X77470500Y22400638D01*
X77470499Y22400650D01*
X77463990Y22461197D01*
X77463988Y22461205D01*
X77412889Y22598203D01*
X77412887Y22598208D01*
X77325261Y22715262D01*
X77266657Y22759132D01*
X77224110Y22815968D01*
X77219046Y22886784D01*
X77253071Y22949096D01*
X77266657Y22960868D01*
X77325261Y23004739D01*
X77412887Y23121793D01*
X77412887Y23121794D01*
X77412889Y23121796D01*
X77463989Y23258799D01*
X77470500Y23319362D01*
X77470500Y24940638D01*
X77470499Y24940650D01*
X77463990Y25001197D01*
X77463988Y25001205D01*
X77412889Y25138203D01*
X77412887Y25138208D01*
X77325261Y25255262D01*
X77208207Y25342888D01*
X77208202Y25342890D01*
X77071204Y25393989D01*
X77071196Y25393991D01*
X77010649Y25400500D01*
X77010638Y25400500D01*
X75389362Y25400500D01*
X75389350Y25400500D01*
X75328803Y25393991D01*
X75328795Y25393989D01*
X75191797Y25342890D01*
X75191792Y25342888D01*
X75074738Y25255262D01*
X74987112Y25138208D01*
X74987110Y25138203D01*
X74936011Y25001205D01*
X74936009Y25001197D01*
X74929500Y24940650D01*
X74929500Y23319351D01*
X74936009Y23258804D01*
X74936011Y23258796D01*
X74987110Y23121798D01*
X74987112Y23121793D01*
X75074739Y23004739D01*
X75133343Y22960867D01*
X75175889Y22904031D01*
X75180953Y22833216D01*
X75146928Y22770904D01*
X75133343Y22759133D01*
X75074739Y22715262D01*
X74987112Y22598208D01*
X74987110Y22598203D01*
X74936011Y22461205D01*
X74936009Y22461197D01*
X74929500Y22400650D01*
X74929500Y20779351D01*
X74936009Y20718804D01*
X74936011Y20718796D01*
X74987110Y20581798D01*
X74987112Y20581793D01*
X75074739Y20464739D01*
X75133343Y20420867D01*
X75175889Y20364031D01*
X75180953Y20293216D01*
X75146928Y20230904D01*
X75133343Y20219133D01*
X75074739Y20175262D01*
X74987112Y20058208D01*
X74987110Y20058203D01*
X74936011Y19921205D01*
X74936009Y19921197D01*
X74929500Y19860650D01*
X74929500Y18239351D01*
X74936009Y18178804D01*
X74936011Y18178796D01*
X74987110Y18041798D01*
X74987112Y18041793D01*
X75074739Y17924739D01*
X75133343Y17880867D01*
X75175889Y17824031D01*
X75180953Y17753216D01*
X75146928Y17690904D01*
X75133343Y17679133D01*
X75074739Y17635262D01*
X74987112Y17518208D01*
X74987110Y17518203D01*
X74936011Y17381205D01*
X74936009Y17381197D01*
X74929500Y17320650D01*
X74929500Y15699351D01*
X74936009Y15638804D01*
X74936011Y15638796D01*
X74987110Y15501798D01*
X74987112Y15501793D01*
X75074739Y15384739D01*
X75133343Y15340867D01*
X75175889Y15284031D01*
X75180953Y15213216D01*
X75146928Y15150904D01*
X75133343Y15139133D01*
X75074739Y15095262D01*
X74987112Y14978208D01*
X74987110Y14978203D01*
X74936011Y14841205D01*
X74936009Y14841197D01*
X74929500Y14780650D01*
X74929500Y13159351D01*
X74936009Y13098804D01*
X74936011Y13098796D01*
X74987110Y12961798D01*
X74987112Y12961793D01*
X75074739Y12844739D01*
X75133343Y12800867D01*
X75175889Y12744031D01*
X75180953Y12673216D01*
X75146928Y12610904D01*
X75133343Y12599133D01*
X75074739Y12555262D01*
X74987112Y12438208D01*
X74987110Y12438203D01*
X74936011Y12301205D01*
X74936009Y12301197D01*
X74929500Y12240650D01*
X74929500Y10619351D01*
X69178788Y10619351D01*
X69285111Y10769977D01*
X69411523Y11013942D01*
X69503538Y11272847D01*
X69559442Y11541870D01*
X69578193Y11816000D01*
X69559442Y12090130D01*
X69503538Y12359153D01*
X69411523Y12618058D01*
X69285111Y12862023D01*
X69126657Y13086502D01*
X68939111Y13287314D01*
X68725969Y13460718D01*
X68491200Y13603484D01*
X68491201Y13603484D01*
X68491197Y13603486D01*
X68239180Y13712952D01*
X68239178Y13712953D01*
X68239177Y13712953D01*
X68106886Y13750020D01*
X67974593Y13787086D01*
X67702395Y13824500D01*
X67702385Y13824500D01*
X67427615Y13824500D01*
X67427604Y13824500D01*
X67155406Y13787086D01*
X66890819Y13712952D01*
X66638802Y13603486D01*
X66404028Y13460716D01*
X66190886Y13287312D01*
X66003343Y13086502D01*
X65844892Y12862029D01*
X65718477Y12618059D01*
X65626462Y12359155D01*
X65626460Y12359147D01*
X65570557Y12090123D01*
X65570556Y12090117D01*
X65551807Y11816005D01*
X65551807Y11815996D01*
X64878193Y11815996D01*
X64878193Y11816000D01*
X64859442Y12090130D01*
X64803538Y12359153D01*
X64711523Y12618058D01*
X64585111Y12862023D01*
X64426657Y13086502D01*
X64239111Y13287314D01*
X64025969Y13460718D01*
X63791200Y13603484D01*
X63791201Y13603484D01*
X63791197Y13603486D01*
X63539180Y13712952D01*
X63539178Y13712953D01*
X63539177Y13712953D01*
X63406886Y13750020D01*
X63274593Y13787086D01*
X63002395Y13824500D01*
X63002385Y13824500D01*
X62727615Y13824500D01*
X62727604Y13824500D01*
X62455406Y13787086D01*
X62190819Y13712952D01*
X61938802Y13603486D01*
X61704028Y13460716D01*
X61490886Y13287312D01*
X61303343Y13086502D01*
X61144892Y12862029D01*
X61018477Y12618059D01*
X60926462Y12359155D01*
X60926460Y12359147D01*
X60870557Y12090123D01*
X60870556Y12090117D01*
X60851807Y11816005D01*
X60851807Y11815996D01*
X60178193Y11815996D01*
X60178193Y11816000D01*
X60159442Y12090130D01*
X60103538Y12359153D01*
X60011523Y12618058D01*
X59885111Y12862023D01*
X59726657Y13086502D01*
X59539111Y13287314D01*
X59325969Y13460718D01*
X59091200Y13603484D01*
X59091201Y13603484D01*
X59091197Y13603486D01*
X58839180Y13712952D01*
X58839178Y13712953D01*
X58839177Y13712953D01*
X58706886Y13750020D01*
X58574593Y13787086D01*
X58302395Y13824500D01*
X58302385Y13824500D01*
X58027615Y13824500D01*
X58027604Y13824500D01*
X57755406Y13787086D01*
X57490819Y13712952D01*
X57238802Y13603486D01*
X57004028Y13460716D01*
X56790886Y13287312D01*
X56603343Y13086502D01*
X56444892Y12862029D01*
X56318477Y12618059D01*
X56226462Y12359155D01*
X56226460Y12359147D01*
X56170557Y12090123D01*
X56170556Y12090117D01*
X56151807Y11816005D01*
X56151807Y11815996D01*
X20493500Y11815996D01*
X20493500Y15487918D01*
X20513502Y15556039D01*
X20530405Y15577013D01*
X23500546Y18547154D01*
X23503201Y18554004D01*
X23518542Y18578420D01*
X23522615Y18584162D01*
X23548909Y18617130D01*
X23567202Y18655120D01*
X23570618Y18661297D01*
X23573981Y18666651D01*
X23593043Y18696985D01*
X23606967Y18736783D01*
X23609668Y18743301D01*
X23627959Y18781280D01*
X23637338Y18822377D01*
X23639291Y18829157D01*
X23653217Y18868953D01*
X23657937Y18910855D01*
X23659115Y18917791D01*
X23668500Y18958903D01*
X23668500Y19141097D01*
X23668500Y23144997D01*
X26274417Y23144997D01*
X26294698Y22939073D01*
X26294699Y22939067D01*
X26294700Y22939066D01*
X26354768Y22741046D01*
X26452315Y22558550D01*
X26583590Y22398590D01*
X26743550Y22267315D01*
X26926046Y22169768D01*
X27124066Y22109700D01*
X27124070Y22109700D01*
X27124072Y22109699D01*
X27211789Y22101060D01*
X27278392Y22094500D01*
X27278401Y22094500D01*
X27381599Y22094500D01*
X27381608Y22094500D01*
X27469331Y22103141D01*
X27535927Y22109699D01*
X27535928Y22109700D01*
X27535934Y22109700D01*
X27733954Y22169768D01*
X27916450Y22267315D01*
X28076410Y22398590D01*
X28207685Y22558550D01*
X28305232Y22741046D01*
X28365300Y22939066D01*
X28367448Y22960867D01*
X28385583Y23144997D01*
X28385583Y23145000D01*
X47524435Y23145000D01*
X47544632Y22965745D01*
X47581634Y22860000D01*
X47604211Y22795478D01*
X47604212Y22795475D01*
X47700182Y22642740D01*
X47700183Y22642738D01*
X47827737Y22515184D01*
X47827739Y22515183D01*
X47980474Y22419213D01*
X47980475Y22419213D01*
X47980478Y22419211D01*
X48150745Y22359632D01*
X48285046Y22344500D01*
X48374954Y22344500D01*
X48509255Y22359632D01*
X48679522Y22419211D01*
X48832262Y22515184D01*
X48959816Y22642738D01*
X49055789Y22795478D01*
X49115368Y22965745D01*
X49135565Y23145000D01*
X49115368Y23324255D01*
X49055789Y23494522D01*
X49055787Y23494525D01*
X49055787Y23494526D01*
X48959817Y23647261D01*
X48959816Y23647263D01*
X48832262Y23774817D01*
X48832260Y23774818D01*
X48679525Y23870788D01*
X48679522Y23870789D01*
X48679522Y23870790D01*
X48509255Y23930368D01*
X48374954Y23945500D01*
X48285046Y23945500D01*
X48150745Y23930368D01*
X48150742Y23930368D01*
X48150742Y23930367D01*
X47980477Y23870789D01*
X47980474Y23870788D01*
X47827739Y23774818D01*
X47827737Y23774817D01*
X47700183Y23647263D01*
X47700182Y23647261D01*
X47604212Y23494526D01*
X47604211Y23494523D01*
X47604211Y23494522D01*
X47544632Y23324255D01*
X47524435Y23145000D01*
X28385583Y23145000D01*
X28385583Y23145004D01*
X28365301Y23350928D01*
X28365300Y23350930D01*
X28365300Y23350934D01*
X28305232Y23548954D01*
X28207685Y23731450D01*
X28076410Y23891410D01*
X27916450Y24022685D01*
X27916448Y24022686D01*
X27916447Y24022687D01*
X27733954Y24120232D01*
X27535927Y24180302D01*
X27381614Y24195500D01*
X27381608Y24195500D01*
X27278392Y24195500D01*
X27278385Y24195500D01*
X27124072Y24180302D01*
X26926045Y24120232D01*
X26743552Y24022687D01*
X26583590Y23891410D01*
X26452313Y23731448D01*
X26354768Y23548955D01*
X26294698Y23350928D01*
X26274417Y23145004D01*
X26274417Y23144997D01*
X23668500Y23144997D01*
X23668500Y33019999D01*
X51231458Y33019999D01*
X51251606Y32686895D01*
X51251607Y32686892D01*
X51311761Y32358642D01*
X51411044Y32040031D01*
X51547999Y31735729D01*
X51548005Y31735718D01*
X51720647Y31450132D01*
X51926460Y31187432D01*
X51926465Y31187426D01*
X52162425Y30951466D01*
X52162431Y30951461D01*
X52162433Y30951459D01*
X52177874Y30939362D01*
X52425131Y30745648D01*
X52615521Y30630554D01*
X52710718Y30573005D01*
X52710722Y30573003D01*
X52710728Y30573000D01*
X53015030Y30436045D01*
X53015031Y30436045D01*
X53015035Y30436043D01*
X53333641Y30336762D01*
X53661892Y30276607D01*
X53883964Y30263175D01*
X53994999Y30256458D01*
X53995000Y30256458D01*
X53995001Y30256458D01*
X54078277Y30261496D01*
X54328108Y30276607D01*
X54656359Y30336762D01*
X54974965Y30436043D01*
X55279282Y30573005D01*
X55564871Y30745650D01*
X55812112Y30939351D01*
X72389500Y30939351D01*
X72396009Y30878804D01*
X72396011Y30878796D01*
X72447110Y30741798D01*
X72447112Y30741793D01*
X72534738Y30624739D01*
X72651792Y30537113D01*
X72651794Y30537112D01*
X72651796Y30537111D01*
X72710875Y30515076D01*
X72788795Y30486012D01*
X72788803Y30486010D01*
X72849350Y30479501D01*
X72849355Y30479501D01*
X72849362Y30479500D01*
X72849368Y30479500D01*
X74470632Y30479500D01*
X74470638Y30479500D01*
X74470645Y30479501D01*
X74470649Y30479501D01*
X74531196Y30486010D01*
X74531199Y30486011D01*
X74531201Y30486011D01*
X74668204Y30537111D01*
X74785261Y30624739D01*
X74829131Y30683344D01*
X74885966Y30725889D01*
X74956781Y30730955D01*
X75019094Y30696930D01*
X75030866Y30683344D01*
X75074737Y30624740D01*
X75191792Y30537113D01*
X75191794Y30537112D01*
X75191796Y30537111D01*
X75250875Y30515076D01*
X75328795Y30486012D01*
X75328803Y30486010D01*
X75389350Y30479501D01*
X75389355Y30479501D01*
X75389362Y30479500D01*
X75389368Y30479500D01*
X77010632Y30479500D01*
X77010638Y30479500D01*
X77010645Y30479501D01*
X77010649Y30479501D01*
X77071196Y30486010D01*
X77071199Y30486011D01*
X77071201Y30486011D01*
X77208204Y30537111D01*
X77325261Y30624739D01*
X77412889Y30741796D01*
X77463989Y30878799D01*
X77470500Y30939362D01*
X77470500Y32560638D01*
X77470000Y32565289D01*
X77463990Y32621197D01*
X77463988Y32621205D01*
X77434924Y32699125D01*
X77412889Y32758204D01*
X77412888Y32758206D01*
X77412887Y32758208D01*
X77325261Y32875262D01*
X77208207Y32962888D01*
X77208202Y32962890D01*
X77071204Y33013989D01*
X77071196Y33013991D01*
X77010649Y33020500D01*
X77010638Y33020500D01*
X75389362Y33020500D01*
X75389350Y33020500D01*
X75328803Y33013991D01*
X75328795Y33013989D01*
X75191797Y32962890D01*
X75191792Y32962888D01*
X75074739Y32875262D01*
X75030866Y32816656D01*
X74974029Y32774110D01*
X74903213Y32769047D01*
X74840902Y32803073D01*
X74829131Y32816658D01*
X74785261Y32875262D01*
X74668207Y32962888D01*
X74668202Y32962890D01*
X74531204Y33013989D01*
X74531196Y33013991D01*
X74470649Y33020500D01*
X74470638Y33020500D01*
X72849362Y33020500D01*
X72849350Y33020500D01*
X72788803Y33013991D01*
X72788795Y33013989D01*
X72651797Y32962890D01*
X72651792Y32962888D01*
X72534738Y32875262D01*
X72447112Y32758208D01*
X72447110Y32758203D01*
X72396011Y32621205D01*
X72396009Y32621197D01*
X72389500Y32560650D01*
X72389500Y30939351D01*
X55812112Y30939351D01*
X55827567Y30951459D01*
X56063541Y31187433D01*
X56269350Y31450129D01*
X56441995Y31735718D01*
X56578957Y32040035D01*
X56678238Y32358641D01*
X56738393Y32686892D01*
X56758542Y33020000D01*
X56738393Y33353108D01*
X56678238Y33681359D01*
X56578957Y33999965D01*
X56501960Y34171046D01*
X56442000Y34304272D01*
X56441994Y34304283D01*
X56402831Y34369066D01*
X56384446Y34399479D01*
X56269352Y34589869D01*
X56121569Y34778500D01*
X56063541Y34852567D01*
X56063539Y34852569D01*
X56063534Y34852575D01*
X55827574Y35088535D01*
X55827568Y35088540D01*
X55564868Y35294353D01*
X55279282Y35466995D01*
X55279271Y35467001D01*
X54974969Y35603956D01*
X54656358Y35703239D01*
X54328108Y35763393D01*
X54328105Y35763394D01*
X53995001Y35783542D01*
X53994999Y35783542D01*
X53661894Y35763394D01*
X53661891Y35763393D01*
X53333641Y35703239D01*
X53015030Y35603956D01*
X52710728Y35467001D01*
X52710717Y35466995D01*
X52425131Y35294353D01*
X52162431Y35088540D01*
X52162425Y35088535D01*
X51926465Y34852575D01*
X51926460Y34852569D01*
X51720647Y34589869D01*
X51548005Y34304283D01*
X51547999Y34304272D01*
X51411044Y33999970D01*
X51311761Y33681359D01*
X51251607Y33353109D01*
X51251606Y33353106D01*
X51231458Y33020002D01*
X51231458Y33019999D01*
X23668500Y33019999D01*
X23668500Y34574997D01*
X26274417Y34574997D01*
X26294698Y34369073D01*
X26294699Y34369067D01*
X26294700Y34369066D01*
X26314352Y34304282D01*
X26354768Y34171046D01*
X26446213Y33999965D01*
X26452315Y33988550D01*
X26583590Y33828590D01*
X26743550Y33697315D01*
X26926046Y33599768D01*
X27124066Y33539700D01*
X27124070Y33539700D01*
X27124072Y33539699D01*
X27211789Y33531060D01*
X27278392Y33524500D01*
X27278401Y33524500D01*
X27381599Y33524500D01*
X27381608Y33524500D01*
X27469331Y33533141D01*
X27535927Y33539699D01*
X27535928Y33539700D01*
X27535934Y33539700D01*
X27733954Y33599768D01*
X27916450Y33697315D01*
X28076410Y33828590D01*
X28207685Y33988550D01*
X28305232Y34171046D01*
X28365300Y34369066D01*
X28367928Y34395743D01*
X28385583Y34574997D01*
X28385583Y34575000D01*
X47524435Y34575000D01*
X47544632Y34395745D01*
X47576636Y34304283D01*
X47604211Y34225478D01*
X47604212Y34225475D01*
X47700182Y34072740D01*
X47700183Y34072738D01*
X47827737Y33945184D01*
X47827739Y33945183D01*
X47980474Y33849213D01*
X47980475Y33849213D01*
X47980478Y33849211D01*
X48150745Y33789632D01*
X48285046Y33774500D01*
X48374954Y33774500D01*
X48509255Y33789632D01*
X48679522Y33849211D01*
X48832262Y33945184D01*
X48959816Y34072738D01*
X49055789Y34225478D01*
X49115368Y34395745D01*
X49135565Y34575000D01*
X49115368Y34754255D01*
X49055789Y34924522D01*
X49055787Y34924525D01*
X49055787Y34924526D01*
X48959817Y35077261D01*
X48959816Y35077263D01*
X48832262Y35204817D01*
X48832260Y35204818D01*
X48679525Y35300788D01*
X48679522Y35300789D01*
X48509255Y35360368D01*
X48374954Y35375500D01*
X48285046Y35375500D01*
X48150745Y35360368D01*
X48150742Y35360368D01*
X48150742Y35360367D01*
X47980477Y35300789D01*
X47980474Y35300788D01*
X47827739Y35204818D01*
X47827737Y35204817D01*
X47700183Y35077263D01*
X47700182Y35077261D01*
X47604212Y34924526D01*
X47604211Y34924523D01*
X47579033Y34852567D01*
X47544632Y34754255D01*
X47542938Y34739218D01*
X47526111Y34589871D01*
X47524435Y34575000D01*
X28385583Y34575000D01*
X28385583Y34575004D01*
X28365301Y34780928D01*
X28365300Y34780930D01*
X28365300Y34780934D01*
X28305232Y34978954D01*
X28207685Y35161450D01*
X28076410Y35321410D01*
X27916450Y35452685D01*
X27916448Y35452686D01*
X27916447Y35452687D01*
X27733954Y35550232D01*
X27733953Y35550232D01*
X27535934Y35610300D01*
X27535933Y35610301D01*
X27535927Y35610302D01*
X27381614Y35625500D01*
X27381608Y35625500D01*
X27278392Y35625500D01*
X27278385Y35625500D01*
X27124072Y35610302D01*
X26926045Y35550232D01*
X26743552Y35452687D01*
X26583590Y35321410D01*
X26452313Y35161448D01*
X26354768Y34978955D01*
X26294698Y34780928D01*
X26274417Y34575004D01*
X26274417Y34574997D01*
X23668500Y34574997D01*
X23668500Y50692961D01*
X23688501Y50761078D01*
X23705395Y50782042D01*
X28921405Y55998053D01*
X28983717Y56032078D01*
X29054532Y56027013D01*
X29111368Y55984466D01*
X29136179Y55917946D01*
X29136500Y55908957D01*
X29136500Y45069230D01*
X29116498Y45001109D01*
X29109791Y44992324D01*
X29109842Y44992287D01*
X29105957Y44986941D01*
X29010476Y44821562D01*
X29010473Y44821555D01*
X28951457Y44639928D01*
X28931496Y44450001D01*
X28951457Y44260073D01*
X28981526Y44167530D01*
X29010473Y44078444D01*
X29010476Y44078439D01*
X29105958Y43913059D01*
X29105965Y43913049D01*
X29233744Y43771136D01*
X29233747Y43771134D01*
X29388248Y43658882D01*
X29562712Y43581206D01*
X29749513Y43541500D01*
X29940487Y43541500D01*
X30127288Y43581206D01*
X30301752Y43658882D01*
X30456253Y43771134D01*
X30584040Y43913056D01*
X30679527Y44078444D01*
X30738542Y44260072D01*
X30758504Y44450000D01*
X30738542Y44639928D01*
X30679527Y44821556D01*
X30584040Y44986944D01*
X30584039Y44986946D01*
X30580158Y44992287D01*
X30581763Y44993454D01*
X30555144Y45048945D01*
X30553500Y45069230D01*
X30553500Y56729417D01*
X30573502Y56797538D01*
X30590405Y56818512D01*
X31461405Y57689512D01*
X31523717Y57723538D01*
X31594532Y57718473D01*
X31651368Y57675926D01*
X31676179Y57609406D01*
X31676500Y57600417D01*
X31676500Y45069230D01*
X31656498Y45001109D01*
X31649791Y44992324D01*
X31649842Y44992287D01*
X31645957Y44986941D01*
X31550476Y44821562D01*
X31550473Y44821555D01*
X31491457Y44639928D01*
X31471496Y44450001D01*
X31491457Y44260073D01*
X31521526Y44167530D01*
X31550473Y44078444D01*
X31550476Y44078439D01*
X31645958Y43913059D01*
X31645965Y43913049D01*
X31773744Y43771136D01*
X31773747Y43771134D01*
X31928248Y43658882D01*
X32102712Y43581206D01*
X32289513Y43541500D01*
X32480487Y43541500D01*
X32667288Y43581206D01*
X32841752Y43658882D01*
X32996253Y43771134D01*
X33124040Y43913056D01*
X33219527Y44078444D01*
X33278542Y44260072D01*
X33298504Y44450000D01*
X33278542Y44639928D01*
X33219527Y44821556D01*
X33124040Y44986944D01*
X33124039Y44986946D01*
X33120158Y44992287D01*
X33121763Y44993454D01*
X33095144Y45048945D01*
X33093500Y45069230D01*
X33093500Y58420875D01*
X33113502Y58488996D01*
X33130400Y58509965D01*
X39081405Y64460971D01*
X39143717Y64494996D01*
X39214532Y64489931D01*
X39271368Y64447384D01*
X39296179Y64380864D01*
X39296500Y64371875D01*
X39296500Y45069230D01*
X39276498Y45001109D01*
X39269791Y44992324D01*
X39269842Y44992287D01*
X39265957Y44986941D01*
X39170476Y44821562D01*
X39170473Y44821555D01*
X39111457Y44639928D01*
X39091496Y44450001D01*
X39111457Y44260073D01*
X39141526Y44167530D01*
X39170473Y44078444D01*
X39170476Y44078439D01*
X39265958Y43913059D01*
X39265965Y43913049D01*
X39393744Y43771136D01*
X39393747Y43771134D01*
X39548248Y43658882D01*
X39722712Y43581206D01*
X39909513Y43541500D01*
X40100487Y43541500D01*
X40287288Y43581206D01*
X40461752Y43658882D01*
X40616253Y43771134D01*
X40744040Y43913056D01*
X40839527Y44078444D01*
X40898542Y44260072D01*
X40918504Y44450000D01*
X40898542Y44639928D01*
X40839527Y44821556D01*
X40744040Y44986944D01*
X40744039Y44986946D01*
X40740158Y44992287D01*
X40741763Y44993454D01*
X40715144Y45048945D01*
X40713500Y45069230D01*
X40713500Y65192333D01*
X40733502Y65260454D01*
X40750400Y65281423D01*
X44161405Y68692427D01*
X44223717Y68726453D01*
X44294533Y68721388D01*
X44351368Y68678841D01*
X44376179Y68612321D01*
X44376500Y68603332D01*
X44376500Y45069230D01*
X44356498Y45001109D01*
X44349791Y44992324D01*
X44349842Y44992287D01*
X44345957Y44986941D01*
X44250476Y44821562D01*
X44250473Y44821555D01*
X44191457Y44639928D01*
X44171496Y44450001D01*
X44191457Y44260073D01*
X44221526Y44167530D01*
X44250473Y44078444D01*
X44250476Y44078439D01*
X44345958Y43913059D01*
X44345965Y43913049D01*
X44473744Y43771136D01*
X44473747Y43771134D01*
X44628248Y43658882D01*
X44802712Y43581206D01*
X44989513Y43541500D01*
X45180487Y43541500D01*
X45367288Y43581206D01*
X45541752Y43658882D01*
X45696253Y43771134D01*
X45824040Y43913056D01*
X45919527Y44078444D01*
X45978542Y44260072D01*
X45998504Y44450000D01*
X45978542Y44639928D01*
X45919527Y44821556D01*
X45824040Y44986944D01*
X45824039Y44986946D01*
X45820158Y44992287D01*
X45821763Y44993454D01*
X45795144Y45048945D01*
X45793500Y45069230D01*
X45793500Y69423791D01*
X45813502Y69491912D01*
X45830400Y69512881D01*
X49260823Y72943305D01*
X49323133Y72977329D01*
X49393948Y72972264D01*
X49443550Y72938520D01*
X49553747Y72816134D01*
X49708248Y72703882D01*
X49882712Y72626206D01*
X49991697Y72603041D01*
X50054170Y72569313D01*
X50088492Y72507163D01*
X50091500Y72479794D01*
X50091500Y62253315D01*
X50091385Y62249510D01*
X50087598Y62186908D01*
X50098902Y62125218D01*
X50099475Y62121456D01*
X50107033Y62059206D01*
X50107034Y62059202D01*
X50107034Y62059200D01*
X50107035Y62059199D01*
X50108873Y62054351D01*
X50110650Y62049667D01*
X50116770Y62027714D01*
X50117151Y62025635D01*
X50118612Y62017668D01*
X50144353Y61960472D01*
X50145809Y61956957D01*
X50146034Y61956365D01*
X50168046Y61898325D01*
X50173840Y61889931D01*
X50185035Y61870081D01*
X50189223Y61860778D01*
X50189225Y61860774D01*
X50196513Y61851472D01*
X50227899Y61811410D01*
X50230154Y61808345D01*
X50265783Y61756729D01*
X50265784Y61756728D01*
X50265785Y61756727D01*
X50312750Y61715120D01*
X50315494Y61712536D01*
X52513662Y59514368D01*
X53675334Y58352696D01*
X53709360Y58290384D01*
X53711549Y58276773D01*
X53716457Y58230073D01*
X53746526Y58137530D01*
X53775473Y58048444D01*
X53775476Y58048439D01*
X53870958Y57883059D01*
X53870965Y57883049D01*
X53998744Y57741136D01*
X53998747Y57741134D01*
X54153248Y57628882D01*
X54327712Y57551206D01*
X54514513Y57511500D01*
X54705491Y57511500D01*
X54804226Y57532488D01*
X54854302Y57543132D01*
X54925092Y57537731D01*
X54981725Y57494915D01*
X55006219Y57428278D01*
X55006499Y57419886D01*
X55006499Y40020823D01*
X55006486Y40019554D01*
X55004352Y39913625D01*
X55004352Y39913624D01*
X55014791Y39840069D01*
X55015211Y39836286D01*
X55021189Y39762236D01*
X55021189Y39762234D01*
X55031384Y39720871D01*
X55032590Y39714644D01*
X55038574Y39672482D01*
X55038575Y39672479D01*
X55038575Y39672476D01*
X55060669Y39601573D01*
X55061691Y39597908D01*
X55079478Y39525749D01*
X55096172Y39486567D01*
X55098362Y39480612D01*
X55111032Y39439952D01*
X55144221Y39373498D01*
X55145817Y39370044D01*
X55174943Y39301686D01*
X55197710Y39265681D01*
X55200826Y39260156D01*
X55212758Y39236266D01*
X55219854Y39222057D01*
X55219857Y39222053D01*
X55219858Y39222051D01*
X55263276Y39161784D01*
X55265407Y39158629D01*
X55305117Y39095832D01*
X55333363Y39063948D01*
X55337324Y39058995D01*
X55362218Y39024440D01*
X55362219Y39024440D01*
X55414746Y38971913D01*
X55417339Y38969159D01*
X55466625Y38913526D01*
X55466627Y38913524D01*
X55499627Y38886581D01*
X55504323Y38882336D01*
X62422171Y31964488D01*
X62422965Y31963678D01*
X62496425Y31887198D01*
X62545557Y31850278D01*
X62555820Y31842565D01*
X62558791Y31840188D01*
X62615381Y31792053D01*
X62631478Y31782322D01*
X62651835Y31770017D01*
X62657088Y31766468D01*
X62691137Y31740881D01*
X62733168Y31718822D01*
X62756917Y31706358D01*
X62760206Y31704503D01*
X62823812Y31666052D01*
X62849036Y31655900D01*
X62863336Y31650145D01*
X62869086Y31647487D01*
X62880894Y31641290D01*
X62906792Y31627697D01*
X62906795Y31627696D01*
X62977263Y31604171D01*
X62980825Y31602861D01*
X63049757Y31575118D01*
X63091322Y31565758D01*
X63097404Y31564062D01*
X63137818Y31550569D01*
X63137823Y31550569D01*
X63137824Y31550568D01*
X63211147Y31538652D01*
X63214884Y31537928D01*
X63241740Y31531880D01*
X63287363Y31521604D01*
X63329897Y31519032D01*
X63336181Y31518333D01*
X63378221Y31511500D01*
X63452495Y31511500D01*
X63456297Y31511386D01*
X63476541Y31510161D01*
X63530471Y31506898D01*
X63530472Y31506899D01*
X63530476Y31506898D01*
X63572866Y31511182D01*
X63579202Y31511500D01*
X68997176Y31511500D01*
X69060173Y31494621D01*
X69063276Y31492830D01*
X69063285Y31492824D01*
X69300746Y31378468D01*
X69300749Y31378468D01*
X69300754Y31378465D01*
X69552589Y31300785D01*
X69552591Y31300785D01*
X69552600Y31300782D01*
X69813219Y31261500D01*
X69813223Y31261500D01*
X70076777Y31261500D01*
X70076781Y31261500D01*
X70337400Y31300782D01*
X70337410Y31300785D01*
X70589245Y31378465D01*
X70589247Y31378466D01*
X70589254Y31378468D01*
X70826716Y31492824D01*
X71044481Y31641294D01*
X71237686Y31820562D01*
X71402015Y32026624D01*
X71533796Y32254876D01*
X71630087Y32500220D01*
X71688735Y32757174D01*
X71708431Y33020000D01*
X71688735Y33282826D01*
X71633574Y33524501D01*
X71630088Y33539776D01*
X71630087Y33539777D01*
X71630087Y33539780D01*
X71533796Y33785124D01*
X71533795Y33785125D01*
X71533794Y33785129D01*
X71402017Y34013373D01*
X71354675Y34072738D01*
X71237686Y34219438D01*
X71044481Y34398706D01*
X71044474Y34398711D01*
X70826725Y34547171D01*
X70826718Y34547175D01*
X70823962Y34548502D01*
X70768931Y34575004D01*
X70589257Y34661531D01*
X70589245Y34661536D01*
X70337410Y34739216D01*
X70337402Y34739218D01*
X70337400Y34739218D01*
X70076781Y34778500D01*
X69813219Y34778500D01*
X69552600Y34739218D01*
X69552598Y34739218D01*
X69552589Y34739216D01*
X69300754Y34661536D01*
X69300742Y34661531D01*
X69080779Y34555601D01*
X69066039Y34548502D01*
X69063281Y34547174D01*
X69060173Y34545379D01*
X68997176Y34528500D01*
X64177032Y34528500D01*
X64108911Y34548502D01*
X64087937Y34565405D01*
X64027897Y34625445D01*
X63993871Y34687757D01*
X63998936Y34758572D01*
X64023352Y34798846D01*
X64100411Y34884427D01*
X64195898Y35049815D01*
X64254913Y35231443D01*
X64274875Y35421371D01*
X64254913Y35611299D01*
X64195898Y35792927D01*
X64100411Y35958315D01*
X64100409Y35958317D01*
X64100405Y35958323D01*
X63972626Y36100236D01*
X63818123Y36212489D01*
X63643659Y36290165D01*
X63490802Y36322656D01*
X63428328Y36356385D01*
X63427904Y36356808D01*
X63130361Y36654351D01*
X72389500Y36654351D01*
X72396009Y36593804D01*
X72396011Y36593796D01*
X72447110Y36456798D01*
X72447112Y36456793D01*
X72534738Y36339739D01*
X72651792Y36252113D01*
X72651794Y36252112D01*
X72651796Y36252111D01*
X72710875Y36230076D01*
X72788795Y36201012D01*
X72788803Y36201010D01*
X72849350Y36194501D01*
X72849355Y36194501D01*
X72849362Y36194500D01*
X72849368Y36194500D01*
X74470632Y36194500D01*
X74470638Y36194500D01*
X74470645Y36194501D01*
X74470649Y36194501D01*
X74531196Y36201010D01*
X74531199Y36201011D01*
X74531201Y36201011D01*
X74668204Y36252111D01*
X74785261Y36339739D01*
X74872889Y36456796D01*
X74923989Y36593799D01*
X74930500Y36654362D01*
X74930500Y38275638D01*
X74930499Y38275650D01*
X74923990Y38336197D01*
X74923988Y38336205D01*
X74872889Y38473203D01*
X74872887Y38473208D01*
X74785260Y38590263D01*
X74726656Y38634134D01*
X74684110Y38690970D01*
X74679046Y38761786D01*
X74713072Y38824098D01*
X74726655Y38835867D01*
X74785261Y38879739D01*
X74829131Y38938344D01*
X74885966Y38980889D01*
X74956781Y38985955D01*
X75019094Y38951930D01*
X75030866Y38938344D01*
X75074737Y38879740D01*
X75191792Y38792113D01*
X75191794Y38792112D01*
X75191796Y38792111D01*
X75250875Y38770076D01*
X75328795Y38741012D01*
X75328803Y38741010D01*
X75389350Y38734501D01*
X75389355Y38734501D01*
X75389362Y38734500D01*
X75389368Y38734500D01*
X77010632Y38734500D01*
X77010638Y38734500D01*
X77010645Y38734501D01*
X77010649Y38734501D01*
X77071196Y38741010D01*
X77071199Y38741011D01*
X77071201Y38741011D01*
X77208204Y38792111D01*
X77325261Y38879739D01*
X77393259Y38970573D01*
X77412887Y38996793D01*
X77412887Y38996794D01*
X77412889Y38996796D01*
X77463989Y39133799D01*
X77466659Y39158629D01*
X77470499Y39194351D01*
X77470500Y39194368D01*
X77470500Y40815633D01*
X77470499Y40815650D01*
X77463990Y40876197D01*
X77463988Y40876205D01*
X77412889Y41013203D01*
X77412887Y41013208D01*
X77325261Y41130262D01*
X77208207Y41217888D01*
X77208202Y41217890D01*
X77071204Y41268989D01*
X77071196Y41268991D01*
X77010649Y41275500D01*
X77010638Y41275500D01*
X75389362Y41275500D01*
X75389350Y41275500D01*
X75328803Y41268991D01*
X75328795Y41268989D01*
X75191797Y41217890D01*
X75191792Y41217888D01*
X75074739Y41130262D01*
X75030866Y41071656D01*
X74974029Y41029110D01*
X74903213Y41024047D01*
X74840902Y41058073D01*
X74829131Y41071658D01*
X74785261Y41130262D01*
X74668207Y41217888D01*
X74668202Y41217890D01*
X74531204Y41268989D01*
X74531196Y41268991D01*
X74470649Y41275500D01*
X74470638Y41275500D01*
X72849362Y41275500D01*
X72849350Y41275500D01*
X72788803Y41268991D01*
X72788795Y41268989D01*
X72651797Y41217890D01*
X72651792Y41217888D01*
X72534738Y41130262D01*
X72447112Y41013208D01*
X72447110Y41013203D01*
X72396011Y40876205D01*
X72396009Y40876197D01*
X72389500Y40815650D01*
X72389500Y39194351D01*
X72396009Y39133804D01*
X72396011Y39133796D01*
X72447110Y38996798D01*
X72447112Y38996793D01*
X72534739Y38879739D01*
X72593343Y38835867D01*
X72635889Y38779031D01*
X72640953Y38708216D01*
X72606928Y38645904D01*
X72593343Y38634133D01*
X72534739Y38590262D01*
X72447112Y38473208D01*
X72447110Y38473203D01*
X72396011Y38336205D01*
X72396009Y38336197D01*
X72389500Y38275650D01*
X72389500Y36654351D01*
X63130361Y36654351D01*
X59831083Y39953629D01*
X59797057Y40015941D01*
X59802122Y40086756D01*
X59826542Y40127034D01*
X59903591Y40212606D01*
X59903592Y40212608D01*
X59903597Y40212613D01*
X59999084Y40378001D01*
X60019910Y40442099D01*
X60050645Y40492255D01*
X66643803Y47085411D01*
X66643803Y47085412D01*
X66661519Y47103127D01*
X66661523Y47103132D01*
X66676111Y47117719D01*
X66676111Y47117720D01*
X66693830Y47135438D01*
X66693831Y47135441D01*
X67278803Y47720411D01*
X67311111Y47752719D01*
X67607987Y48049596D01*
X67670299Y48083621D01*
X67697082Y48086500D01*
X70436051Y48086500D01*
X70443107Y48086105D01*
X70485000Y48081384D01*
X70526892Y48086105D01*
X70533949Y48086500D01*
X72285141Y48086500D01*
X72353262Y48066498D01*
X72399755Y48012842D01*
X72403196Y48004534D01*
X72447111Y47886796D01*
X72447112Y47886793D01*
X72534738Y47769739D01*
X72593342Y47725869D01*
X72635889Y47669033D01*
X72640954Y47598218D01*
X72606928Y47535906D01*
X72593344Y47524134D01*
X72534738Y47480261D01*
X72447112Y47363208D01*
X72447110Y47363203D01*
X72396011Y47226205D01*
X72396009Y47226197D01*
X72389500Y47165650D01*
X72389500Y45544351D01*
X72396009Y45483804D01*
X72396011Y45483796D01*
X72447110Y45346798D01*
X72447112Y45346793D01*
X72534738Y45229739D01*
X72651792Y45142113D01*
X72651794Y45142112D01*
X72651796Y45142111D01*
X72710875Y45120076D01*
X72788795Y45091012D01*
X72788803Y45091010D01*
X72849350Y45084501D01*
X72849355Y45084501D01*
X72849362Y45084500D01*
X72849368Y45084500D01*
X74470632Y45084500D01*
X74470638Y45084500D01*
X74470645Y45084501D01*
X74470649Y45084501D01*
X74531196Y45091010D01*
X74531199Y45091011D01*
X74531201Y45091011D01*
X74668204Y45142111D01*
X74785261Y45229739D01*
X74829131Y45288344D01*
X74885966Y45330889D01*
X74956781Y45335955D01*
X75019094Y45301930D01*
X75030866Y45288344D01*
X75074737Y45229740D01*
X75191792Y45142113D01*
X75191794Y45142112D01*
X75191796Y45142111D01*
X75250875Y45120076D01*
X75328795Y45091012D01*
X75328803Y45091010D01*
X75389350Y45084501D01*
X75389355Y45084501D01*
X75389362Y45084500D01*
X75389368Y45084500D01*
X77010632Y45084500D01*
X77010638Y45084500D01*
X77010645Y45084501D01*
X77010649Y45084501D01*
X77071196Y45091010D01*
X77071199Y45091011D01*
X77071201Y45091011D01*
X77208204Y45142111D01*
X77325261Y45229739D01*
X77412889Y45346796D01*
X77463989Y45483799D01*
X77470500Y45544362D01*
X77470500Y47165638D01*
X77470000Y47170289D01*
X77463990Y47226197D01*
X77463988Y47226205D01*
X77412889Y47363203D01*
X77412887Y47363208D01*
X77325260Y47480263D01*
X77266656Y47524134D01*
X77224110Y47580970D01*
X77219046Y47651786D01*
X77253072Y47714098D01*
X77266656Y47725868D01*
X77325261Y47769739D01*
X77412889Y47886796D01*
X77463989Y48023799D01*
X77466763Y48049595D01*
X77470499Y48084351D01*
X77470500Y48084368D01*
X77470500Y49705633D01*
X77470499Y49705650D01*
X77463990Y49766197D01*
X77463988Y49766205D01*
X77412889Y49903203D01*
X77412887Y49903208D01*
X77325261Y50020262D01*
X77266657Y50064132D01*
X77224110Y50120968D01*
X77219046Y50191784D01*
X77253071Y50254096D01*
X77266657Y50265868D01*
X77325261Y50309739D01*
X77412887Y50426793D01*
X77412887Y50426794D01*
X77412889Y50426796D01*
X77463989Y50563799D01*
X77470500Y50624362D01*
X77470500Y52245638D01*
X77468964Y52259928D01*
X77463990Y52306197D01*
X77463988Y52306205D01*
X77413504Y52441555D01*
X77412889Y52443204D01*
X77412888Y52443206D01*
X77412887Y52443208D01*
X77325261Y52560262D01*
X77208207Y52647888D01*
X77208202Y52647890D01*
X77071204Y52698989D01*
X77071196Y52698991D01*
X77010649Y52705500D01*
X77010638Y52705500D01*
X75389362Y52705500D01*
X75389350Y52705500D01*
X75328803Y52698991D01*
X75328795Y52698989D01*
X75191797Y52647890D01*
X75191792Y52647888D01*
X75074739Y52560262D01*
X75030866Y52501656D01*
X74974029Y52459110D01*
X74903213Y52454047D01*
X74840902Y52488073D01*
X74829131Y52501658D01*
X74785261Y52560262D01*
X74668207Y52647888D01*
X74668202Y52647890D01*
X74531204Y52698989D01*
X74531196Y52698991D01*
X74470649Y52705500D01*
X74470638Y52705500D01*
X72849362Y52705500D01*
X72849350Y52705500D01*
X72788803Y52698991D01*
X72788795Y52698989D01*
X72651797Y52647890D01*
X72651792Y52647888D01*
X72534738Y52560262D01*
X72447112Y52443208D01*
X72447110Y52443203D01*
X72396011Y52306205D01*
X72396009Y52306197D01*
X72389500Y52245650D01*
X72389500Y50624351D01*
X72396009Y50563804D01*
X72396011Y50563796D01*
X72447110Y50426798D01*
X72447112Y50426793D01*
X72534739Y50309739D01*
X72593343Y50265867D01*
X72635889Y50209031D01*
X72640953Y50138216D01*
X72606928Y50075904D01*
X72593343Y50064133D01*
X72534739Y50020262D01*
X72447112Y49903208D01*
X72447111Y49903205D01*
X72403196Y49785466D01*
X72360649Y49728631D01*
X72294129Y49703821D01*
X72285141Y49703500D01*
X71419500Y49703500D01*
X71351379Y49723502D01*
X71304886Y49777158D01*
X71293500Y49829500D01*
X71293500Y56923595D01*
X71284119Y56964694D01*
X71282935Y56971667D01*
X71282633Y56974351D01*
X72389500Y56974351D01*
X72396009Y56913804D01*
X72396011Y56913796D01*
X72447110Y56776798D01*
X72447112Y56776793D01*
X72534738Y56659739D01*
X72651792Y56572113D01*
X72651794Y56572112D01*
X72651796Y56572111D01*
X72690004Y56557860D01*
X72788795Y56521012D01*
X72788803Y56521010D01*
X72849350Y56514501D01*
X72849355Y56514501D01*
X72849362Y56514500D01*
X72849368Y56514500D01*
X74470632Y56514500D01*
X74470638Y56514500D01*
X74470645Y56514501D01*
X74470649Y56514501D01*
X74531196Y56521010D01*
X74531199Y56521011D01*
X74531201Y56521011D01*
X74668204Y56572111D01*
X74785261Y56659739D01*
X74829131Y56718344D01*
X74885966Y56760889D01*
X74956781Y56765955D01*
X75019094Y56731930D01*
X75030866Y56718344D01*
X75074737Y56659740D01*
X75191792Y56572113D01*
X75191794Y56572112D01*
X75191796Y56572111D01*
X75230004Y56557860D01*
X75328795Y56521012D01*
X75328803Y56521010D01*
X75389350Y56514501D01*
X75389355Y56514501D01*
X75389362Y56514500D01*
X75389368Y56514500D01*
X77010632Y56514500D01*
X77010638Y56514500D01*
X77010645Y56514501D01*
X77010649Y56514501D01*
X77071196Y56521010D01*
X77071199Y56521011D01*
X77071201Y56521011D01*
X77208204Y56572111D01*
X77325261Y56659739D01*
X77369132Y56718344D01*
X77412887Y56776793D01*
X77412887Y56776794D01*
X77412889Y56776796D01*
X77463989Y56913799D01*
X77465043Y56923595D01*
X77470499Y56974351D01*
X77470500Y56974368D01*
X77470500Y58595633D01*
X77470499Y58595650D01*
X77463990Y58656197D01*
X77463988Y58656205D01*
X77413504Y58791555D01*
X77412889Y58793204D01*
X77412888Y58793206D01*
X77412887Y58793208D01*
X77325260Y58910263D01*
X77266656Y58954134D01*
X77224110Y59010970D01*
X77219046Y59081786D01*
X77253072Y59144098D01*
X77266656Y59155868D01*
X77325261Y59199739D01*
X77412889Y59316796D01*
X77463989Y59453799D01*
X77464065Y59454500D01*
X77470499Y59514351D01*
X77470500Y59514368D01*
X77470500Y61135633D01*
X77470499Y61135650D01*
X77463990Y61196197D01*
X77463988Y61196205D01*
X77413504Y61331555D01*
X77412889Y61333204D01*
X77412888Y61333206D01*
X77412887Y61333208D01*
X77325261Y61450262D01*
X77266657Y61494132D01*
X77224110Y61550968D01*
X77219046Y61621784D01*
X77253071Y61684096D01*
X77266657Y61695868D01*
X77325261Y61739739D01*
X77412887Y61856793D01*
X77412887Y61856794D01*
X77412889Y61856796D01*
X77456960Y61974955D01*
X77463988Y61993796D01*
X77463990Y61993804D01*
X77470499Y62054351D01*
X77470500Y62054368D01*
X77470500Y63675633D01*
X77470499Y63675650D01*
X77463990Y63736197D01*
X77463988Y63736205D01*
X77412889Y63873203D01*
X77412887Y63873208D01*
X77325261Y63990262D01*
X77266657Y64034132D01*
X77224110Y64090968D01*
X77219046Y64161784D01*
X77253071Y64224096D01*
X77266657Y64235868D01*
X77325261Y64279739D01*
X77412887Y64396793D01*
X77412887Y64396794D01*
X77412889Y64396796D01*
X77463989Y64533799D01*
X77470500Y64594362D01*
X77470500Y66215638D01*
X77470000Y66220289D01*
X77463990Y66276197D01*
X77463988Y66276205D01*
X77412889Y66413203D01*
X77412887Y66413208D01*
X77325261Y66530262D01*
X77208207Y66617888D01*
X77208202Y66617890D01*
X77071204Y66668989D01*
X77071196Y66668991D01*
X77010649Y66675500D01*
X77010638Y66675500D01*
X75389362Y66675500D01*
X75389350Y66675500D01*
X75328803Y66668991D01*
X75328795Y66668989D01*
X75191797Y66617890D01*
X75191792Y66617888D01*
X75074739Y66530262D01*
X75030866Y66471656D01*
X74974029Y66429110D01*
X74903213Y66424047D01*
X74840902Y66458073D01*
X74829131Y66471658D01*
X74785261Y66530262D01*
X74668207Y66617888D01*
X74668202Y66617890D01*
X74531204Y66668989D01*
X74531196Y66668991D01*
X74470649Y66675500D01*
X74470638Y66675500D01*
X72849362Y66675500D01*
X72849350Y66675500D01*
X72788803Y66668991D01*
X72788795Y66668989D01*
X72651797Y66617890D01*
X72651792Y66617888D01*
X72534738Y66530262D01*
X72447112Y66413208D01*
X72447110Y66413203D01*
X72396011Y66276205D01*
X72396009Y66276197D01*
X72389500Y66215650D01*
X72389500Y64594351D01*
X72396009Y64533804D01*
X72396011Y64533796D01*
X72447110Y64396798D01*
X72447112Y64396793D01*
X72534739Y64279739D01*
X72593343Y64235867D01*
X72635889Y64179031D01*
X72640953Y64108216D01*
X72606928Y64045904D01*
X72593343Y64034133D01*
X72534739Y63990262D01*
X72447112Y63873208D01*
X72447110Y63873203D01*
X72396011Y63736205D01*
X72396009Y63736197D01*
X72389500Y63675650D01*
X72389500Y62054351D01*
X72396009Y61993804D01*
X72396011Y61993796D01*
X72447110Y61856798D01*
X72447112Y61856793D01*
X72534739Y61739739D01*
X72593343Y61695867D01*
X72635889Y61639031D01*
X72640953Y61568216D01*
X72606928Y61505904D01*
X72593343Y61494133D01*
X72534739Y61450262D01*
X72447112Y61333208D01*
X72447110Y61333203D01*
X72396011Y61196205D01*
X72396009Y61196197D01*
X72389500Y61135650D01*
X72389500Y59514351D01*
X72396009Y59453804D01*
X72396011Y59453796D01*
X72447110Y59316798D01*
X72447112Y59316793D01*
X72534739Y59199739D01*
X72593343Y59155867D01*
X72635889Y59099031D01*
X72640953Y59028216D01*
X72606928Y58965904D01*
X72593343Y58954133D01*
X72534739Y58910262D01*
X72447112Y58793208D01*
X72447110Y58793203D01*
X72396011Y58656205D01*
X72396009Y58656197D01*
X72389500Y58595650D01*
X72389500Y56974351D01*
X71282633Y56974351D01*
X71278217Y57013544D01*
X71278217Y57013546D01*
X71264294Y57053335D01*
X71262338Y57060123D01*
X71252959Y57101221D01*
X71234666Y57139204D01*
X71231968Y57145718D01*
X71218043Y57185515D01*
X71195615Y57221208D01*
X71192195Y57227396D01*
X71187692Y57236746D01*
X71173908Y57265370D01*
X71147624Y57298329D01*
X71143537Y57304091D01*
X71121111Y57339781D01*
X71010003Y57450889D01*
X71010000Y57450894D01*
X66926090Y61534802D01*
X66895352Y61584961D01*
X66874527Y61649056D01*
X66854295Y61684098D01*
X66812362Y61756729D01*
X66779040Y61814444D01*
X66779038Y61814446D01*
X66779034Y61814452D01*
X66651255Y61956365D01*
X66496752Y62068618D01*
X66322288Y62146294D01*
X66135487Y62186000D01*
X65944513Y62186000D01*
X65757711Y62146294D01*
X65646755Y62096893D01*
X65595506Y62086000D01*
X61186399Y62086000D01*
X61145312Y62076622D01*
X61138344Y62075438D01*
X61096462Y62070719D01*
X61096450Y62070717D01*
X61056666Y62056796D01*
X61049878Y62054841D01*
X61038486Y62052240D01*
X61008777Y62045459D01*
X61008774Y62045457D01*
X60970805Y62027173D01*
X60964276Y62024468D01*
X60924488Y62010545D01*
X60924483Y62010542D01*
X60888792Y61988117D01*
X60882606Y61984698D01*
X60844633Y61966411D01*
X60811670Y61940125D01*
X60805907Y61936036D01*
X60770219Y61913611D01*
X60770216Y61913610D01*
X60708075Y61851472D01*
X60670232Y61825464D01*
X60503247Y61751118D01*
X60348744Y61638865D01*
X60220965Y61496952D01*
X60220958Y61496942D01*
X60125476Y61331562D01*
X60125473Y61331555D01*
X60066457Y61149928D01*
X60046496Y60960000D01*
X60066457Y60770073D01*
X60096526Y60677530D01*
X60125473Y60588444D01*
X60125476Y60588439D01*
X60220958Y60423059D01*
X60220965Y60423049D01*
X60348744Y60281136D01*
X60348747Y60281134D01*
X60503248Y60168882D01*
X60677712Y60091206D01*
X60864513Y60051500D01*
X61055487Y60051500D01*
X61242288Y60091206D01*
X61416752Y60168882D01*
X61571253Y60281134D01*
X61571255Y60281136D01*
X61702871Y60427310D01*
X61763317Y60464550D01*
X61796507Y60469000D01*
X65595507Y60469000D01*
X65646755Y60458107D01*
X65750242Y60412032D01*
X65788086Y60386022D01*
X69639595Y56534513D01*
X69673621Y56472201D01*
X69676500Y56445418D01*
X69676500Y49829500D01*
X69656498Y49761379D01*
X69602842Y49714886D01*
X69550500Y49703500D01*
X67488727Y49703500D01*
X67420606Y49723502D01*
X67374113Y49777158D01*
X67364009Y49847432D01*
X67368894Y49868436D01*
X67403542Y49975072D01*
X67408291Y50020261D01*
X67423504Y50165000D01*
X67423010Y50169695D01*
X67435777Y50239530D01*
X67459221Y50271963D01*
X68311855Y51124596D01*
X68374168Y51158621D01*
X68400951Y51161500D01*
X68421487Y51161500D01*
X68608288Y51201206D01*
X68782752Y51278882D01*
X68937253Y51391134D01*
X69065040Y51533056D01*
X69160527Y51698444D01*
X69219542Y51880072D01*
X69239504Y52070000D01*
X69219542Y52259928D01*
X69160527Y52441556D01*
X69065040Y52606944D01*
X69065038Y52606946D01*
X69065034Y52606952D01*
X68937255Y52748865D01*
X68782752Y52861118D01*
X68608288Y52938794D01*
X68421487Y52978500D01*
X68230513Y52978500D01*
X68043711Y52938794D01*
X67869247Y52861118D01*
X67714744Y52748865D01*
X67586965Y52606952D01*
X67586958Y52606942D01*
X67491476Y52441562D01*
X67491473Y52441556D01*
X67432458Y52259928D01*
X67430956Y52245633D01*
X67419245Y52134216D01*
X67392231Y52068559D01*
X67383030Y52058292D01*
X66420238Y51095500D01*
X66357926Y51061474D01*
X66357341Y51061349D01*
X66227715Y51033796D01*
X66053247Y50956118D01*
X65898744Y50843865D01*
X65770965Y50701952D01*
X65770958Y50701942D01*
X65675476Y50536562D01*
X65675473Y50536555D01*
X65616457Y50354928D01*
X65596496Y50165000D01*
X65616457Y49975073D01*
X65639810Y49903203D01*
X65675473Y49793444D01*
X65691202Y49766201D01*
X65770958Y49628059D01*
X65770965Y49628049D01*
X65898744Y49486136D01*
X66022205Y49396436D01*
X66065559Y49340214D01*
X66071634Y49269477D01*
X66038502Y49206686D01*
X65976682Y49171774D01*
X65948144Y49168500D01*
X65829513Y49168500D01*
X65642711Y49128794D01*
X65468247Y49051118D01*
X65313744Y48938865D01*
X65185965Y48796952D01*
X65185958Y48796942D01*
X65090476Y48631562D01*
X65090473Y48631555D01*
X65031457Y48449928D01*
X65011496Y48260000D01*
X65031457Y48070072D01*
X65083675Y47909362D01*
X65085702Y47838394D01*
X65052937Y47781331D01*
X59038595Y41766988D01*
X58976283Y41732962D01*
X58905468Y41738027D01*
X58848632Y41780574D01*
X58823821Y41847094D01*
X58823500Y41856083D01*
X58823500Y57800771D01*
X58843502Y57868892D01*
X58850208Y57877675D01*
X58850157Y57877712D01*
X58854033Y57883050D01*
X58854040Y57883056D01*
X58949527Y58048444D01*
X59008542Y58230072D01*
X59028504Y58420000D01*
X59008542Y58609928D01*
X58949527Y58791556D01*
X58854040Y58956944D01*
X58854038Y58956946D01*
X58854034Y58956952D01*
X58726255Y59098865D01*
X58571752Y59211118D01*
X58397288Y59288794D01*
X58210487Y59328500D01*
X58149500Y59328500D01*
X58081379Y59348502D01*
X58034886Y59402158D01*
X58023500Y59454500D01*
X58023500Y64092970D01*
X58043502Y64161091D01*
X58060405Y64182065D01*
X63452936Y69574595D01*
X63515248Y69608621D01*
X63542031Y69611500D01*
X68997176Y69611500D01*
X69060173Y69594621D01*
X69063276Y69592830D01*
X69063285Y69592824D01*
X69300746Y69478468D01*
X69300749Y69478468D01*
X69300754Y69478465D01*
X69552589Y69400785D01*
X69552591Y69400785D01*
X69552600Y69400782D01*
X69813219Y69361500D01*
X69813223Y69361500D01*
X70076777Y69361500D01*
X70076781Y69361500D01*
X70337400Y69400782D01*
X70515717Y69455785D01*
X70589245Y69478465D01*
X70589247Y69478466D01*
X70589254Y69478468D01*
X70826716Y69592824D01*
X71044481Y69741294D01*
X71237686Y69920562D01*
X71402015Y70126624D01*
X71533796Y70354876D01*
X71630087Y70600220D01*
X71688735Y70857174D01*
X71708431Y71120000D01*
X71701008Y71219060D01*
X73666121Y71219060D01*
X73685322Y70999587D01*
X73742341Y70786791D01*
X73742343Y70786786D01*
X73835448Y70587122D01*
X73835449Y70587120D01*
X73961806Y70406663D01*
X73961810Y70406658D01*
X73961813Y70406654D01*
X74117594Y70250873D01*
X74117598Y70250870D01*
X74117602Y70250867D01*
X74220565Y70178772D01*
X74298060Y70124509D01*
X74497728Y70031402D01*
X74710530Y69974382D01*
X74930000Y69955181D01*
X75149470Y69974382D01*
X75362272Y70031402D01*
X75561940Y70124509D01*
X75742406Y70250873D01*
X75898187Y70406654D01*
X76024551Y70587120D01*
X76117658Y70786788D01*
X76174678Y70999590D01*
X76193879Y71219060D01*
X76174678Y71438530D01*
X76117658Y71651332D01*
X76024551Y71850999D01*
X75898187Y72031466D01*
X75742406Y72187247D01*
X75742402Y72187250D01*
X75742397Y72187254D01*
X75561940Y72313611D01*
X75561938Y72313612D01*
X75362274Y72406717D01*
X75362269Y72406719D01*
X75149473Y72463738D01*
X74930000Y72482939D01*
X74710526Y72463738D01*
X74497730Y72406719D01*
X74497725Y72406717D01*
X74298060Y72313611D01*
X74117597Y72187250D01*
X74117591Y72187245D01*
X73961815Y72031469D01*
X73961810Y72031463D01*
X73835449Y71851000D01*
X73742343Y71651335D01*
X73742341Y71651330D01*
X73685322Y71438534D01*
X73666121Y71219060D01*
X71701008Y71219060D01*
X71688735Y71382826D01*
X71630087Y71639780D01*
X71533796Y71885124D01*
X71533795Y71885125D01*
X71533794Y71885129D01*
X71402017Y72113373D01*
X71384472Y72135374D01*
X71237686Y72319438D01*
X71044481Y72498706D01*
X71032077Y72507163D01*
X70826725Y72647171D01*
X70826718Y72647175D01*
X70589257Y72761531D01*
X70589245Y72761536D01*
X70337410Y72839216D01*
X70337402Y72839218D01*
X70337400Y72839218D01*
X70076781Y72878500D01*
X69813219Y72878500D01*
X69552600Y72839218D01*
X69552598Y72839218D01*
X69552589Y72839216D01*
X69300754Y72761536D01*
X69300742Y72761531D01*
X69181037Y72703883D01*
X69074399Y72652528D01*
X69063281Y72647174D01*
X69060173Y72645379D01*
X68997176Y72628500D01*
X62880823Y72628500D01*
X62879575Y72628513D01*
X62861191Y72628884D01*
X62773624Y72630648D01*
X62773622Y72630648D01*
X62700067Y72620209D01*
X62696284Y72619789D01*
X62622240Y72613812D01*
X62622235Y72613811D01*
X62580871Y72603617D01*
X62574646Y72602411D01*
X62532485Y72596427D01*
X62532482Y72596426D01*
X62461570Y72574331D01*
X62457907Y72573309D01*
X62400412Y72559137D01*
X62385752Y72555523D01*
X62385750Y72555523D01*
X62385749Y72555522D01*
X62346561Y72538827D01*
X62340609Y72536638D01*
X62299949Y72523966D01*
X62233490Y72490776D01*
X62230037Y72489180D01*
X62161685Y72460057D01*
X62161679Y72460054D01*
X62125688Y72437294D01*
X62120163Y72434178D01*
X62082057Y72415147D01*
X62021785Y72371726D01*
X62018631Y72369596D01*
X61955830Y72329882D01*
X61955828Y72329881D01*
X61923949Y72301639D01*
X61918998Y72297679D01*
X61884437Y72272779D01*
X61831917Y72220260D01*
X61829147Y72217653D01*
X61773526Y72168376D01*
X61746580Y72135374D01*
X61742326Y72130668D01*
X55459535Y65847878D01*
X55458629Y65846991D01*
X55382201Y65773579D01*
X55337575Y65714194D01*
X55335199Y65711224D01*
X55287054Y65654621D01*
X55265018Y65618171D01*
X55261469Y65612917D01*
X55235883Y65578866D01*
X55235882Y65578864D01*
X55201365Y65513100D01*
X55199496Y65509787D01*
X55161052Y65446192D01*
X55161051Y65446191D01*
X55145146Y65406669D01*
X55142485Y65400911D01*
X55122697Y65363208D01*
X55122696Y65363205D01*
X55099168Y65292735D01*
X55097855Y65289164D01*
X55070121Y65220254D01*
X55070117Y65220239D01*
X55060757Y65178687D01*
X55059054Y65172579D01*
X55045568Y65132181D01*
X55045567Y65132177D01*
X55033652Y65058855D01*
X55032928Y65055118D01*
X55016605Y64982644D01*
X55014032Y64940118D01*
X55013331Y64933814D01*
X55006501Y64891790D01*
X55006500Y64891774D01*
X55006500Y64817501D01*
X55006385Y64813696D01*
X55001897Y64739529D01*
X55006181Y64697135D01*
X55006500Y64690798D01*
X55006500Y59420115D01*
X54986498Y59351994D01*
X54932842Y59305501D01*
X54862568Y59295397D01*
X54854303Y59296868D01*
X54739431Y59321285D01*
X54676957Y59355014D01*
X54676533Y59355437D01*
X51545405Y62486565D01*
X51511379Y62548877D01*
X51508500Y62575660D01*
X51508500Y69455785D01*
X51528502Y69523906D01*
X51582158Y69570399D01*
X51652432Y69580503D01*
X51717012Y69551009D01*
X51733685Y69533491D01*
X51926453Y69287439D01*
X51926465Y69287426D01*
X52162425Y69051466D01*
X52162431Y69051461D01*
X52162433Y69051459D01*
X52293781Y68948555D01*
X52425131Y68845648D01*
X52615521Y68730554D01*
X52710718Y68673005D01*
X52710722Y68673003D01*
X52710728Y68673000D01*
X53015030Y68536045D01*
X53015031Y68536045D01*
X53015035Y68536043D01*
X53333641Y68436762D01*
X53661892Y68376607D01*
X53883964Y68363175D01*
X53994999Y68356458D01*
X53995000Y68356458D01*
X53995001Y68356458D01*
X54078277Y68361496D01*
X54328108Y68376607D01*
X54656359Y68436762D01*
X54974965Y68536043D01*
X55279282Y68673005D01*
X55564871Y68845650D01*
X55827567Y69051459D01*
X56063541Y69287433D01*
X56269350Y69550129D01*
X56441995Y69835718D01*
X56578957Y70140035D01*
X56678238Y70458641D01*
X56738393Y70786892D01*
X56758542Y71120000D01*
X56738393Y71453108D01*
X56678238Y71781359D01*
X56578957Y72099965D01*
X56548168Y72168376D01*
X56442000Y72404272D01*
X56441994Y72404283D01*
X56440521Y72406719D01*
X56350567Y72555522D01*
X56269352Y72689869D01*
X56121569Y72878500D01*
X56063541Y72952567D01*
X56063539Y72952569D01*
X56063534Y72952575D01*
X55827574Y73188535D01*
X55827568Y73188540D01*
X55564868Y73394353D01*
X55279282Y73566995D01*
X55279271Y73567001D01*
X54974969Y73703956D01*
X54656358Y73803239D01*
X54328108Y73863393D01*
X54328105Y73863394D01*
X53995001Y73883542D01*
X53994999Y73883542D01*
X53661894Y73863394D01*
X53661891Y73863393D01*
X53333641Y73803239D01*
X53015033Y73703957D01*
X52814456Y73613685D01*
X52744128Y73603968D01*
X52679710Y73633816D01*
X52641656Y73693752D01*
X52642046Y73764747D01*
X52673647Y73817676D01*
X54956910Y76100940D01*
X73666121Y76100940D01*
X73685322Y75881467D01*
X73742341Y75668671D01*
X73742343Y75668666D01*
X73835448Y75469002D01*
X73835449Y75469000D01*
X73961806Y75288543D01*
X73961810Y75288538D01*
X73961813Y75288534D01*
X74117594Y75132753D01*
X74117598Y75132750D01*
X74117602Y75132747D01*
X74220565Y75060652D01*
X74298060Y75006389D01*
X74497728Y74913282D01*
X74710530Y74856262D01*
X74930000Y74837061D01*
X75149470Y74856262D01*
X75362272Y74913282D01*
X75561940Y75006389D01*
X75742406Y75132753D01*
X75898187Y75288534D01*
X76024551Y75469000D01*
X76117658Y75668668D01*
X76174678Y75881470D01*
X76193879Y76100940D01*
X76174678Y76320410D01*
X76117658Y76533212D01*
X76024551Y76732879D01*
X75898187Y76913346D01*
X75742406Y77069127D01*
X75742402Y77069130D01*
X75742397Y77069134D01*
X75561940Y77195491D01*
X75561938Y77195492D01*
X75362274Y77288597D01*
X75362269Y77288599D01*
X75149473Y77345618D01*
X74930000Y77364819D01*
X74710526Y77345618D01*
X74497730Y77288599D01*
X74497725Y77288597D01*
X74298060Y77195491D01*
X74117597Y77069130D01*
X74117591Y77069125D01*
X73961815Y76913349D01*
X73961810Y76913343D01*
X73835449Y76732880D01*
X73742343Y76533215D01*
X73742341Y76533210D01*
X73685322Y76320414D01*
X73666121Y76100940D01*
X54956910Y76100940D01*
X55799520Y76943550D01*
X55802232Y76946103D01*
X55849216Y76987726D01*
X55884847Y77039347D01*
X55887085Y77042390D01*
X55925776Y77091774D01*
X55929956Y77101064D01*
X55941160Y77120930D01*
X55946955Y77129324D01*
X55966885Y77181879D01*
X56009742Y77238480D01*
X56033444Y77252304D01*
X56171752Y77313882D01*
X56326253Y77426134D01*
X56454040Y77568056D01*
X56549527Y77733444D01*
X56608542Y77915072D01*
X56628504Y78105000D01*
X56608542Y78294928D01*
X56599765Y78321941D01*
X56597737Y78392909D01*
X56634400Y78453707D01*
X56693399Y78484124D01*
X56797288Y78506206D01*
X56971752Y78583882D01*
X57126253Y78696134D01*
X57254040Y78838056D01*
X57349527Y79003444D01*
X57408542Y79185072D01*
X57428504Y79375000D01*
X57408542Y79564928D01*
X57349527Y79746556D01*
X57348983Y79747499D01*
X57348835Y79748109D01*
X57346840Y79752590D01*
X57347659Y79752955D01*
X57332244Y79816494D01*
X57355463Y79883586D01*
X57411270Y79927474D01*
X57458101Y79936500D01*
X58962370Y79936500D01*
X58966173Y79936386D01*
X59028778Y79932598D01*
X59090497Y79943909D01*
X59094210Y79944474D01*
X59156486Y79952035D01*
X59166015Y79955650D01*
X59187989Y79961774D01*
X59198014Y79963611D01*
X59255237Y79989366D01*
X59258694Y79990798D01*
X59317360Y80013046D01*
X59325751Y80018839D01*
X59345607Y80030039D01*
X59354911Y80034225D01*
X59404321Y80072937D01*
X59407306Y80075133D01*
X59458958Y80110785D01*
X59500581Y80157769D01*
X59503134Y80160481D01*
X64115153Y84772500D01*
X68936496Y84772500D01*
X68956457Y84582573D01*
X68986526Y84490030D01*
X69015473Y84400944D01*
X69015476Y84400939D01*
X69110958Y84235559D01*
X69110965Y84235549D01*
X69238744Y84093636D01*
X69257672Y84079884D01*
X69393248Y83981382D01*
X69567712Y83903706D01*
X69720570Y83871215D01*
X69783041Y83837488D01*
X69783465Y83837064D01*
X70920033Y82700497D01*
X70922619Y82697751D01*
X70964227Y82650785D01*
X71015848Y82615154D01*
X71018895Y82612912D01*
X71068274Y82574225D01*
X71077570Y82570042D01*
X71097435Y82558837D01*
X71105820Y82553049D01*
X71105822Y82553048D01*
X71105825Y82553046D01*
X71105829Y82553045D01*
X71105832Y82553043D01*
X71112538Y82550500D01*
X71164468Y82530806D01*
X71167973Y82529354D01*
X71225171Y82503611D01*
X71235204Y82501773D01*
X71257168Y82495649D01*
X71266696Y82492036D01*
X71266699Y82492035D01*
X71328978Y82484473D01*
X71332682Y82483910D01*
X71394407Y82472598D01*
X71457011Y82476386D01*
X71460815Y82476500D01*
X72337567Y82476500D01*
X72405688Y82456498D01*
X72452181Y82402842D01*
X72462285Y82332568D01*
X72448155Y82290116D01*
X72447110Y82288204D01*
X72396011Y82151205D01*
X72396009Y82151197D01*
X72389500Y82090650D01*
X72389500Y80469351D01*
X72396009Y80408804D01*
X72396011Y80408796D01*
X72447110Y80271798D01*
X72447112Y80271793D01*
X72534738Y80154739D01*
X72651792Y80067113D01*
X72651794Y80067112D01*
X72651796Y80067111D01*
X72710875Y80045076D01*
X72788795Y80016012D01*
X72788803Y80016010D01*
X72849350Y80009501D01*
X72849355Y80009501D01*
X72849362Y80009500D01*
X72849368Y80009500D01*
X74470632Y80009500D01*
X74470638Y80009500D01*
X74470645Y80009501D01*
X74470649Y80009501D01*
X74531196Y80016010D01*
X74531199Y80016011D01*
X74531201Y80016011D01*
X74538765Y80018832D01*
X74580039Y80034227D01*
X74668204Y80067111D01*
X74785261Y80154739D01*
X74829131Y80213344D01*
X74885966Y80255889D01*
X74956781Y80260955D01*
X75019094Y80226930D01*
X75030866Y80213344D01*
X75074737Y80154740D01*
X75191792Y80067113D01*
X75191794Y80067112D01*
X75191796Y80067111D01*
X75250875Y80045076D01*
X75328795Y80016012D01*
X75328803Y80016010D01*
X75389350Y80009501D01*
X75389355Y80009501D01*
X75389362Y80009500D01*
X75389368Y80009500D01*
X77010632Y80009500D01*
X77010638Y80009500D01*
X77010645Y80009501D01*
X77010649Y80009501D01*
X77071196Y80016010D01*
X77071199Y80016011D01*
X77071201Y80016011D01*
X77078765Y80018832D01*
X77120039Y80034227D01*
X77208204Y80067111D01*
X77266546Y80110785D01*
X77325261Y80154739D01*
X77412887Y80271793D01*
X77412887Y80271794D01*
X77412889Y80271796D01*
X77463989Y80408799D01*
X77470500Y80469362D01*
X77470500Y82090638D01*
X77470000Y82095289D01*
X77463990Y82151197D01*
X77463988Y82151205D01*
X77412889Y82288203D01*
X77412887Y82288208D01*
X77325261Y82405262D01*
X77208207Y82492888D01*
X77208202Y82492890D01*
X77071204Y82543989D01*
X77071196Y82543991D01*
X77010649Y82550500D01*
X77010638Y82550500D01*
X75389362Y82550500D01*
X75389350Y82550500D01*
X75328803Y82543991D01*
X75328795Y82543989D01*
X75191797Y82492890D01*
X75191792Y82492888D01*
X75074738Y82405261D01*
X75030867Y82346657D01*
X74974031Y82304111D01*
X74903216Y82299047D01*
X74840904Y82333072D01*
X74829133Y82346657D01*
X74785261Y82405261D01*
X74668207Y82492888D01*
X74668202Y82492890D01*
X74531204Y82543989D01*
X74526856Y82545016D01*
X74523832Y82546738D01*
X74523816Y82546744D01*
X74523817Y82546747D01*
X74465162Y82580151D01*
X74432257Y82643061D01*
X74438588Y82713775D01*
X74446710Y82730625D01*
X74494527Y82813444D01*
X74553542Y82995072D01*
X74573504Y83185000D01*
X74553542Y83374928D01*
X74494527Y83556556D01*
X74446717Y83639364D01*
X74429980Y83708358D01*
X74453200Y83775450D01*
X74509007Y83819337D01*
X74526865Y83824987D01*
X74531188Y83826010D01*
X74531201Y83826011D01*
X74668204Y83877111D01*
X74785261Y83964739D01*
X74829130Y84023343D01*
X74885968Y84065890D01*
X74956784Y84070954D01*
X75019096Y84036929D01*
X75030868Y84023343D01*
X75074738Y83964739D01*
X75191792Y83877113D01*
X75191794Y83877112D01*
X75191796Y83877111D01*
X75226948Y83864000D01*
X75328795Y83826012D01*
X75328803Y83826010D01*
X75389350Y83819501D01*
X75389355Y83819501D01*
X75389362Y83819500D01*
X75389368Y83819500D01*
X77010632Y83819500D01*
X77010638Y83819500D01*
X77010645Y83819501D01*
X77010649Y83819501D01*
X77071196Y83826010D01*
X77071199Y83826011D01*
X77071201Y83826011D01*
X77208204Y83877111D01*
X77325261Y83964739D01*
X77412889Y84081796D01*
X77463989Y84218799D01*
X77467417Y84250680D01*
X77470499Y84279351D01*
X77470500Y84279368D01*
X77470500Y85900633D01*
X77470499Y85900650D01*
X77463990Y85961197D01*
X77463988Y85961205D01*
X77413504Y86096555D01*
X77412889Y86098204D01*
X77412888Y86098206D01*
X77412887Y86098208D01*
X77325260Y86215263D01*
X77266656Y86259134D01*
X77224110Y86315970D01*
X77219046Y86386786D01*
X77253072Y86449098D01*
X77266656Y86460868D01*
X77325261Y86504739D01*
X77412889Y86621796D01*
X77463989Y86758799D01*
X77470500Y86819362D01*
X77470500Y88440638D01*
X77464248Y88498794D01*
X77463990Y88501197D01*
X77463988Y88501205D01*
X77412889Y88638203D01*
X77412887Y88638208D01*
X77325261Y88755262D01*
X77266657Y88799132D01*
X77224110Y88855968D01*
X77219046Y88926784D01*
X77253071Y88989096D01*
X77266657Y89000868D01*
X77325261Y89044739D01*
X77412887Y89161793D01*
X77412887Y89161794D01*
X77412889Y89161796D01*
X77463989Y89298799D01*
X77470500Y89359362D01*
X77470500Y90980638D01*
X77470499Y90980650D01*
X77463990Y91041197D01*
X77463988Y91041205D01*
X77412889Y91178203D01*
X77412887Y91178208D01*
X77325261Y91295262D01*
X77208207Y91382888D01*
X77208202Y91382890D01*
X77071204Y91433989D01*
X77071196Y91433991D01*
X77010649Y91440500D01*
X77010638Y91440500D01*
X75389362Y91440500D01*
X75389350Y91440500D01*
X75328803Y91433991D01*
X75328795Y91433989D01*
X75191797Y91382890D01*
X75191792Y91382888D01*
X75074738Y91295262D01*
X74987112Y91178208D01*
X74987110Y91178203D01*
X74936011Y91041205D01*
X74936009Y91041197D01*
X74929500Y90980650D01*
X74929500Y89359351D01*
X74936009Y89298804D01*
X74936011Y89298796D01*
X74987110Y89161798D01*
X74987112Y89161793D01*
X75074738Y89044739D01*
X75133342Y89000869D01*
X75175889Y88944033D01*
X75180954Y88873218D01*
X75146928Y88810906D01*
X75133344Y88799134D01*
X75074737Y88755260D01*
X75030867Y88696657D01*
X74974031Y88654111D01*
X74903216Y88649047D01*
X74840904Y88683072D01*
X74829133Y88696657D01*
X74785261Y88755261D01*
X74668207Y88842888D01*
X74668202Y88842890D01*
X74531204Y88893989D01*
X74531196Y88893991D01*
X74470649Y88900500D01*
X74470638Y88900500D01*
X72849362Y88900500D01*
X72849350Y88900500D01*
X72788803Y88893991D01*
X72788795Y88893989D01*
X72651797Y88842890D01*
X72651792Y88842888D01*
X72534738Y88755262D01*
X72447112Y88638208D01*
X72447110Y88638203D01*
X72396011Y88501205D01*
X72396009Y88501197D01*
X72389500Y88440650D01*
X72389500Y86819351D01*
X72396009Y86758804D01*
X72396011Y86758796D01*
X72447110Y86621798D01*
X72447112Y86621793D01*
X72534738Y86504739D01*
X72593342Y86460869D01*
X72635889Y86404033D01*
X72640954Y86333218D01*
X72606928Y86270906D01*
X72593344Y86259134D01*
X72534738Y86215261D01*
X72447112Y86098208D01*
X72447110Y86098203D01*
X72396011Y85961205D01*
X72396009Y85961197D01*
X72389500Y85900650D01*
X72389500Y84279351D01*
X72396009Y84218804D01*
X72396011Y84218796D01*
X72447110Y84081797D01*
X72448155Y84079884D01*
X72448618Y84077755D01*
X72450260Y84073353D01*
X72449627Y84073117D01*
X72463246Y84010510D01*
X72438434Y83943990D01*
X72381598Y83901444D01*
X72337567Y83893500D01*
X71783160Y83893500D01*
X71715039Y83913502D01*
X71694065Y83930405D01*
X70784664Y84839806D01*
X70750638Y84902118D01*
X70748449Y84915733D01*
X70743542Y84962425D01*
X70743541Y84962431D01*
X70684527Y85144056D01*
X70589040Y85309444D01*
X70589038Y85309446D01*
X70589034Y85309452D01*
X70461255Y85451365D01*
X70306752Y85563618D01*
X70132288Y85641294D01*
X69945487Y85681000D01*
X69754513Y85681000D01*
X69567711Y85641294D01*
X69393247Y85563618D01*
X69238744Y85451365D01*
X69110965Y85309452D01*
X69110958Y85309442D01*
X69045000Y85195199D01*
X69015473Y85144056D01*
X69012162Y85133866D01*
X68956457Y84962428D01*
X68936496Y84772500D01*
X64115153Y84772500D01*
X64619519Y85276866D01*
X64622231Y85279419D01*
X64669215Y85321042D01*
X64704867Y85372694D01*
X64707063Y85375679D01*
X64745775Y85425089D01*
X64749961Y85434393D01*
X64761161Y85454249D01*
X64766954Y85462640D01*
X64789202Y85521306D01*
X64790639Y85524774D01*
X64814241Y85577215D01*
X64860439Y85631123D01*
X64928449Y85651498D01*
X64929139Y85651500D01*
X66063595Y85651500D01*
X66131716Y85631498D01*
X66137655Y85627437D01*
X66218248Y85568882D01*
X66392712Y85491206D01*
X66579513Y85451500D01*
X66770487Y85451500D01*
X66957288Y85491206D01*
X67131752Y85568882D01*
X67286253Y85681134D01*
X67414040Y85823056D01*
X67509527Y85988444D01*
X67568542Y86170072D01*
X67588504Y86360000D01*
X67568542Y86549928D01*
X67555254Y86590824D01*
X67553226Y86661792D01*
X67589888Y86722590D01*
X67653601Y86753915D01*
X67701285Y86753007D01*
X67849509Y86721500D01*
X67849513Y86721500D01*
X68040487Y86721500D01*
X68227288Y86761206D01*
X68401752Y86838882D01*
X68556253Y86951134D01*
X68556255Y86951136D01*
X68684034Y87093049D01*
X68684035Y87093051D01*
X68684040Y87093056D01*
X68779527Y87258444D01*
X68838542Y87440072D01*
X68858504Y87630000D01*
X68838542Y87819928D01*
X68779527Y88001556D01*
X68684040Y88166944D01*
X68684038Y88166946D01*
X68684034Y88166952D01*
X68556255Y88308865D01*
X68401752Y88421118D01*
X68227288Y88498794D01*
X68040487Y88538500D01*
X67849513Y88538500D01*
X67662711Y88498794D01*
X67488247Y88421118D01*
X67407656Y88362564D01*
X67340788Y88338706D01*
X67333595Y88338500D01*
X62826405Y88338500D01*
X62758284Y88358502D01*
X62752344Y88362564D01*
X62671752Y88421118D01*
X62497288Y88498794D01*
X62310487Y88538500D01*
X62119513Y88538500D01*
X61932711Y88498794D01*
X61758247Y88421118D01*
X61603744Y88308865D01*
X61475965Y88166952D01*
X61475958Y88166942D01*
X61380476Y88001562D01*
X61380473Y88001555D01*
X61321457Y87819928D01*
X61301496Y87630001D01*
X61321457Y87440073D01*
X61351526Y87347530D01*
X61380473Y87258444D01*
X61380476Y87258439D01*
X61475958Y87093059D01*
X61479843Y87087712D01*
X61478233Y87086543D01*
X61504853Y87031075D01*
X61506500Y87010771D01*
X61506500Y86690662D01*
X61486498Y86622541D01*
X61469595Y86601567D01*
X59919165Y85051137D01*
X59856853Y85017111D01*
X59786038Y85022176D01*
X59736435Y85055921D01*
X59666253Y85133866D01*
X59652219Y85144062D01*
X59511752Y85246118D01*
X59337288Y85323794D01*
X59150487Y85363500D01*
X58959513Y85363500D01*
X58811284Y85331993D01*
X58740493Y85337395D01*
X58683861Y85380212D01*
X58659367Y85446850D01*
X58665254Y85494177D01*
X58674061Y85521281D01*
X58678542Y85535072D01*
X58698504Y85725000D01*
X58678542Y85914928D01*
X58619527Y86096556D01*
X58524040Y86261944D01*
X58524038Y86261946D01*
X58524034Y86261952D01*
X58396255Y86403865D01*
X58241752Y86516118D01*
X58067288Y86593794D01*
X57880487Y86633500D01*
X57689513Y86633500D01*
X57502709Y86593794D01*
X57353704Y86527453D01*
X57330495Y86519719D01*
X57323915Y86518218D01*
X57293956Y86507735D01*
X57284123Y86504295D01*
X57277340Y86502341D01*
X57236242Y86492959D01*
X57198260Y86474669D01*
X57191731Y86471965D01*
X57151945Y86458043D01*
X57116254Y86435617D01*
X57110067Y86432198D01*
X57072091Y86413910D01*
X57039131Y86387624D01*
X57033366Y86383534D01*
X56997680Y86361111D01*
X56947650Y86311082D01*
X56947648Y86311079D01*
X46643595Y76007026D01*
X46581283Y75973000D01*
X46510468Y75978065D01*
X46453632Y76020612D01*
X46428821Y76087132D01*
X46428500Y76096121D01*
X46428500Y79390771D01*
X46448502Y79458892D01*
X46455208Y79467675D01*
X46455157Y79467712D01*
X46459033Y79473050D01*
X46459040Y79473056D01*
X46554527Y79638444D01*
X46613542Y79820072D01*
X46633504Y80010000D01*
X46613542Y80199928D01*
X46554527Y80381556D01*
X46459040Y80546944D01*
X46459038Y80546946D01*
X46459034Y80546952D01*
X46331255Y80688865D01*
X46176752Y80801118D01*
X46002288Y80878794D01*
X45815487Y80918500D01*
X45624513Y80918500D01*
X45437711Y80878794D01*
X45263247Y80801118D01*
X45108744Y80688865D01*
X44980965Y80546952D01*
X44980958Y80546942D01*
X44885476Y80381562D01*
X44885473Y80381555D01*
X44826457Y80199928D01*
X44806496Y80010000D01*
X44826457Y79820073D01*
X44850342Y79746565D01*
X44885473Y79638444D01*
X44885476Y79638439D01*
X44980958Y79473059D01*
X44984843Y79467712D01*
X44983233Y79466543D01*
X45009853Y79411075D01*
X45011500Y79390771D01*
X45011500Y75275661D01*
X44991498Y75207540D01*
X44974595Y75186566D01*
X21675501Y51887472D01*
X21672730Y51884864D01*
X21625774Y51843264D01*
X21590147Y51791651D01*
X21587894Y51788589D01*
X21549217Y51739221D01*
X21549212Y51739211D01*
X21545025Y51729910D01*
X21533836Y51710069D01*
X21528035Y51701664D01*
X21505797Y51643029D01*
X21504341Y51639514D01*
X21478603Y51582325D01*
X21478599Y51582312D01*
X21476760Y51572279D01*
X21470641Y51550329D01*
X21467024Y51540791D01*
X21459466Y51478549D01*
X21458894Y51474789D01*
X21447588Y51413084D01*
X21451375Y51350482D01*
X21451490Y51346677D01*
X21451490Y19965650D01*
X21431488Y19897529D01*
X21414585Y19876555D01*
X15808466Y14270437D01*
X15746154Y14236411D01*
X15745568Y14236285D01*
X15592711Y14203794D01*
X15418247Y14126118D01*
X15263744Y14013865D01*
X15135965Y13871952D01*
X15135958Y13871942D01*
X15040476Y13706562D01*
X15040473Y13706555D01*
X14981457Y13524928D01*
X14961496Y13335001D01*
X264500Y13335001D01*
X264500Y33019999D01*
X15631458Y33019999D01*
X15651606Y32686895D01*
X15651607Y32686892D01*
X15711761Y32358642D01*
X15811044Y32040031D01*
X15947999Y31735729D01*
X15948005Y31735718D01*
X16120647Y31450132D01*
X16326460Y31187432D01*
X16326465Y31187426D01*
X16562425Y30951466D01*
X16562431Y30951461D01*
X16562433Y30951459D01*
X16577874Y30939362D01*
X16825131Y30745648D01*
X17015521Y30630554D01*
X17110718Y30573005D01*
X17110722Y30573003D01*
X17110728Y30573000D01*
X17415030Y30436045D01*
X17415031Y30436045D01*
X17415035Y30436043D01*
X17733641Y30336762D01*
X18061892Y30276607D01*
X18283964Y30263175D01*
X18394999Y30256458D01*
X18395000Y30256458D01*
X18395001Y30256458D01*
X18478277Y30261496D01*
X18728108Y30276607D01*
X19056359Y30336762D01*
X19374965Y30436043D01*
X19679282Y30573005D01*
X19964871Y30745650D01*
X20227567Y30951459D01*
X20463541Y31187433D01*
X20669350Y31450129D01*
X20841995Y31735718D01*
X20978957Y32040035D01*
X21078238Y32358641D01*
X21138393Y32686892D01*
X21158542Y33020000D01*
X21138393Y33353108D01*
X21078238Y33681359D01*
X20978957Y33999965D01*
X20901960Y34171046D01*
X20842000Y34304272D01*
X20841994Y34304283D01*
X20802831Y34369066D01*
X20784446Y34399479D01*
X20669352Y34589869D01*
X20521569Y34778500D01*
X20463541Y34852567D01*
X20463539Y34852569D01*
X20463534Y34852575D01*
X20227574Y35088535D01*
X20227568Y35088540D01*
X19964868Y35294353D01*
X19679282Y35466995D01*
X19679271Y35467001D01*
X19374969Y35603956D01*
X19056358Y35703239D01*
X18728108Y35763393D01*
X18728105Y35763394D01*
X18395001Y35783542D01*
X18394999Y35783542D01*
X18061894Y35763394D01*
X18061891Y35763393D01*
X17733641Y35703239D01*
X17415030Y35603956D01*
X17110728Y35467001D01*
X17110717Y35466995D01*
X16825131Y35294353D01*
X16562431Y35088540D01*
X16562425Y35088535D01*
X16326465Y34852575D01*
X16326460Y34852569D01*
X16120647Y34589869D01*
X15948005Y34304283D01*
X15947999Y34304272D01*
X15811044Y33999970D01*
X15711761Y33681359D01*
X15651607Y33353109D01*
X15651606Y33353106D01*
X15631458Y33020002D01*
X15631458Y33019999D01*
X264500Y33019999D01*
X264500Y71119999D01*
X15631458Y71119999D01*
X15651606Y70786895D01*
X15651607Y70786892D01*
X15711761Y70458642D01*
X15811044Y70140031D01*
X15947999Y69835729D01*
X15948005Y69835718D01*
X16120647Y69550132D01*
X16219629Y69423791D01*
X16326454Y69287439D01*
X16326460Y69287432D01*
X16326465Y69287426D01*
X16562425Y69051466D01*
X16562431Y69051461D01*
X16562433Y69051459D01*
X16693781Y68948555D01*
X16825131Y68845648D01*
X17015521Y68730554D01*
X17110718Y68673005D01*
X17110722Y68673003D01*
X17110728Y68673000D01*
X17415030Y68536045D01*
X17415031Y68536045D01*
X17415035Y68536043D01*
X17733641Y68436762D01*
X18061892Y68376607D01*
X18283963Y68363175D01*
X18394999Y68356458D01*
X18395000Y68356458D01*
X18395001Y68356458D01*
X18478277Y68361496D01*
X18728108Y68376607D01*
X19056359Y68436762D01*
X19374965Y68536043D01*
X19679282Y68673005D01*
X19964871Y68845650D01*
X20227567Y69051459D01*
X20463541Y69287433D01*
X20669350Y69550129D01*
X20841995Y69835718D01*
X20978957Y70140035D01*
X21078238Y70458641D01*
X21083069Y70485001D01*
X33376496Y70485001D01*
X33396457Y70295073D01*
X33410818Y70250876D01*
X33455473Y70113444D01*
X33455476Y70113439D01*
X33550958Y69948059D01*
X33550965Y69948049D01*
X33678744Y69806136D01*
X33678747Y69806134D01*
X33833248Y69693882D01*
X34007712Y69616206D01*
X34194513Y69576500D01*
X34385487Y69576500D01*
X34572288Y69616206D01*
X34746752Y69693882D01*
X34901253Y69806134D01*
X34927891Y69835718D01*
X35029034Y69948049D01*
X35029035Y69948051D01*
X35029040Y69948056D01*
X35124527Y70113444D01*
X35183542Y70295072D01*
X35203504Y70485000D01*
X35183542Y70674928D01*
X35124527Y70856556D01*
X35115379Y70872400D01*
X35098500Y70935398D01*
X35098500Y75114603D01*
X35115381Y75177603D01*
X35115564Y75177922D01*
X35124527Y75193444D01*
X35183542Y75375072D01*
X35203504Y75565000D01*
X35183542Y75754928D01*
X35124527Y75936556D01*
X35029040Y76101944D01*
X35029038Y76101946D01*
X35029034Y76101952D01*
X34901255Y76243865D01*
X34746752Y76356118D01*
X34572288Y76433794D01*
X34385487Y76473500D01*
X34194513Y76473500D01*
X34007711Y76433794D01*
X33833247Y76356118D01*
X33678744Y76243865D01*
X33550965Y76101952D01*
X33550958Y76101942D01*
X33455476Y75936562D01*
X33455473Y75936555D01*
X33396457Y75754928D01*
X33376496Y75565000D01*
X33396457Y75375073D01*
X33455472Y75193446D01*
X33455475Y75193441D01*
X33464619Y75177603D01*
X33481500Y75114603D01*
X33481500Y70935398D01*
X33464620Y70872399D01*
X33455474Y70856559D01*
X33455473Y70856555D01*
X33396457Y70674928D01*
X33376496Y70485001D01*
X21083069Y70485001D01*
X21138393Y70786892D01*
X21158542Y71120000D01*
X21138393Y71453108D01*
X21078238Y71781359D01*
X20978957Y72099965D01*
X20948168Y72168376D01*
X20842000Y72404272D01*
X20841994Y72404283D01*
X20840521Y72406719D01*
X20750567Y72555522D01*
X20669352Y72689869D01*
X20521569Y72878500D01*
X20463541Y72952567D01*
X20463539Y72952569D01*
X20463534Y72952575D01*
X20227574Y73188535D01*
X20227568Y73188540D01*
X19964868Y73394353D01*
X19679282Y73566995D01*
X19679271Y73567001D01*
X19374969Y73703956D01*
X19056358Y73803239D01*
X18728108Y73863393D01*
X18728105Y73863394D01*
X18395001Y73883542D01*
X18394999Y73883542D01*
X18061894Y73863394D01*
X18061891Y73863393D01*
X17733641Y73803239D01*
X17415030Y73703956D01*
X17110728Y73567001D01*
X17110717Y73566995D01*
X16825131Y73394353D01*
X16562431Y73188540D01*
X16562425Y73188535D01*
X16326465Y72952575D01*
X16326460Y72952569D01*
X16120647Y72689869D01*
X15948005Y72404283D01*
X15947999Y72404272D01*
X15811044Y72099970D01*
X15711761Y71781359D01*
X15651607Y71453109D01*
X15651606Y71453106D01*
X15631458Y71120002D01*
X15631458Y71119999D01*
X264500Y71119999D01*
X264500Y91899351D01*
X11429500Y91899351D01*
X11436009Y91838804D01*
X11436011Y91838796D01*
X11487110Y91701798D01*
X11487112Y91701793D01*
X11574738Y91584739D01*
X11691792Y91497113D01*
X11691794Y91497112D01*
X11691796Y91497111D01*
X11750875Y91475076D01*
X11828795Y91446012D01*
X11828803Y91446010D01*
X11889350Y91439501D01*
X11889355Y91439501D01*
X11889362Y91439500D01*
X11889368Y91439500D01*
X13510632Y91439500D01*
X13510638Y91439500D01*
X13510645Y91439501D01*
X13510649Y91439501D01*
X13571196Y91446010D01*
X13571199Y91446011D01*
X13571201Y91446011D01*
X13708204Y91497111D01*
X13825261Y91584739D01*
X13869130Y91643343D01*
X13925968Y91685890D01*
X13996784Y91690954D01*
X14059096Y91656929D01*
X14070868Y91643343D01*
X14114738Y91584739D01*
X14231792Y91497113D01*
X14231794Y91497112D01*
X14231796Y91497111D01*
X14290875Y91475076D01*
X14368795Y91446012D01*
X14368803Y91446010D01*
X14429350Y91439501D01*
X14429355Y91439501D01*
X14429362Y91439500D01*
X14429368Y91439500D01*
X16050632Y91439500D01*
X16050638Y91439500D01*
X16050645Y91439501D01*
X16050649Y91439501D01*
X16111196Y91446010D01*
X16111199Y91446011D01*
X16111201Y91446011D01*
X16248204Y91497111D01*
X16365261Y91584739D01*
X16409131Y91643344D01*
X16465966Y91685889D01*
X16536781Y91690955D01*
X16599094Y91656930D01*
X16610866Y91643344D01*
X16654737Y91584740D01*
X16771792Y91497113D01*
X16771794Y91497112D01*
X16771796Y91497111D01*
X16830875Y91475076D01*
X16908795Y91446012D01*
X16908803Y91446010D01*
X16969350Y91439501D01*
X16969355Y91439501D01*
X16969362Y91439500D01*
X16969368Y91439500D01*
X18590632Y91439500D01*
X18590638Y91439500D01*
X18590645Y91439501D01*
X18590649Y91439501D01*
X18651196Y91446010D01*
X18651199Y91446011D01*
X18651201Y91446011D01*
X18788204Y91497111D01*
X18905261Y91584739D01*
X18949130Y91643343D01*
X19005968Y91685890D01*
X19076784Y91690954D01*
X19139096Y91656929D01*
X19150868Y91643343D01*
X19194738Y91584739D01*
X19311792Y91497113D01*
X19311794Y91497112D01*
X19311796Y91497111D01*
X19370875Y91475076D01*
X19448795Y91446012D01*
X19448803Y91446010D01*
X19509350Y91439501D01*
X19509355Y91439501D01*
X19509362Y91439500D01*
X19509368Y91439500D01*
X21130632Y91439500D01*
X21130638Y91439500D01*
X21130645Y91439501D01*
X21130649Y91439501D01*
X21191196Y91446010D01*
X21191199Y91446011D01*
X21191201Y91446011D01*
X21328204Y91497111D01*
X21445261Y91584739D01*
X21489131Y91643344D01*
X21545966Y91685889D01*
X21616781Y91690955D01*
X21679094Y91656930D01*
X21690866Y91643344D01*
X21734737Y91584740D01*
X21851792Y91497113D01*
X21851794Y91497112D01*
X21851796Y91497111D01*
X21910875Y91475076D01*
X21988795Y91446012D01*
X21988803Y91446010D01*
X22049350Y91439501D01*
X22049355Y91439501D01*
X22049362Y91439500D01*
X22049368Y91439500D01*
X23670632Y91439500D01*
X23670638Y91439500D01*
X23670645Y91439501D01*
X23670649Y91439501D01*
X23731196Y91446010D01*
X23731199Y91446011D01*
X23731201Y91446011D01*
X23868204Y91497111D01*
X23985261Y91584739D01*
X24072889Y91701796D01*
X24123989Y91838799D01*
X24130499Y91899351D01*
X38734500Y91899351D01*
X38741009Y91838804D01*
X38741011Y91838796D01*
X38792110Y91701798D01*
X38792112Y91701793D01*
X38879738Y91584739D01*
X38996792Y91497113D01*
X38996794Y91497112D01*
X38996796Y91497111D01*
X39055875Y91475076D01*
X39133795Y91446012D01*
X39133803Y91446010D01*
X39194350Y91439501D01*
X39194355Y91439501D01*
X39194362Y91439500D01*
X39194368Y91439500D01*
X40815632Y91439500D01*
X40815638Y91439500D01*
X40815645Y91439501D01*
X40815649Y91439501D01*
X40876196Y91446010D01*
X40876199Y91446011D01*
X40876201Y91446011D01*
X41013204Y91497111D01*
X41130261Y91584739D01*
X41217889Y91701796D01*
X41268989Y91838799D01*
X41275499Y91899351D01*
X43814500Y91899351D01*
X43821009Y91838804D01*
X43821011Y91838796D01*
X43872110Y91701798D01*
X43872112Y91701793D01*
X43959738Y91584739D01*
X44076792Y91497113D01*
X44076794Y91497112D01*
X44076796Y91497111D01*
X44135875Y91475076D01*
X44213795Y91446012D01*
X44213803Y91446010D01*
X44274350Y91439501D01*
X44274355Y91439501D01*
X44274362Y91439500D01*
X44274368Y91439500D01*
X45895632Y91439500D01*
X45895638Y91439500D01*
X45895645Y91439501D01*
X45895649Y91439501D01*
X45956196Y91446010D01*
X45956199Y91446011D01*
X45956201Y91446011D01*
X46093204Y91497111D01*
X46210261Y91584739D01*
X46254130Y91643343D01*
X46310968Y91685890D01*
X46381784Y91690954D01*
X46444096Y91656929D01*
X46455868Y91643343D01*
X46499738Y91584739D01*
X46616792Y91497113D01*
X46616794Y91497112D01*
X46616796Y91497111D01*
X46675875Y91475076D01*
X46753795Y91446012D01*
X46753803Y91446010D01*
X46814350Y91439501D01*
X46814355Y91439501D01*
X46814362Y91439500D01*
X46814368Y91439500D01*
X48435632Y91439500D01*
X48435638Y91439500D01*
X48435645Y91439501D01*
X48435649Y91439501D01*
X48496196Y91446010D01*
X48496199Y91446011D01*
X48496201Y91446011D01*
X48633204Y91497111D01*
X48750261Y91584739D01*
X48794131Y91643344D01*
X48850966Y91685889D01*
X48921781Y91690955D01*
X48984094Y91656930D01*
X48995866Y91643344D01*
X49039737Y91584740D01*
X49156792Y91497113D01*
X49156794Y91497112D01*
X49156796Y91497111D01*
X49215875Y91475076D01*
X49293795Y91446012D01*
X49293803Y91446010D01*
X49354350Y91439501D01*
X49354355Y91439501D01*
X49354362Y91439500D01*
X49354368Y91439500D01*
X50975632Y91439500D01*
X50975638Y91439500D01*
X50975645Y91439501D01*
X50975649Y91439501D01*
X51036196Y91446010D01*
X51036199Y91446011D01*
X51036201Y91446011D01*
X51173204Y91497111D01*
X51290261Y91584739D01*
X51377889Y91701796D01*
X51428989Y91838799D01*
X51435499Y91899351D01*
X53974500Y91899351D01*
X53981009Y91838804D01*
X53981011Y91838796D01*
X54032110Y91701798D01*
X54032112Y91701793D01*
X54119738Y91584739D01*
X54236792Y91497113D01*
X54236794Y91497112D01*
X54236796Y91497111D01*
X54295875Y91475076D01*
X54373795Y91446012D01*
X54373803Y91446010D01*
X54434350Y91439501D01*
X54434355Y91439501D01*
X54434362Y91439500D01*
X54434368Y91439500D01*
X56055632Y91439500D01*
X56055638Y91439500D01*
X56055645Y91439501D01*
X56055649Y91439501D01*
X56116196Y91446010D01*
X56116199Y91446011D01*
X56116201Y91446011D01*
X56253204Y91497111D01*
X56370261Y91584739D01*
X56457889Y91701796D01*
X56508989Y91838799D01*
X56515499Y91899351D01*
X61594500Y91899351D01*
X61601009Y91838804D01*
X61601011Y91838796D01*
X61652110Y91701798D01*
X61652112Y91701793D01*
X61739738Y91584739D01*
X61856792Y91497113D01*
X61856794Y91497112D01*
X61856796Y91497111D01*
X61915875Y91475076D01*
X61993795Y91446012D01*
X61993803Y91446010D01*
X62054350Y91439501D01*
X62054355Y91439501D01*
X62054362Y91439500D01*
X62054368Y91439500D01*
X63675632Y91439500D01*
X63675638Y91439500D01*
X63675645Y91439501D01*
X63675649Y91439501D01*
X63736196Y91446010D01*
X63736199Y91446011D01*
X63736201Y91446011D01*
X63873204Y91497111D01*
X63990261Y91584739D01*
X64034130Y91643343D01*
X64090968Y91685890D01*
X64161784Y91690954D01*
X64224096Y91656929D01*
X64235868Y91643343D01*
X64279738Y91584739D01*
X64396792Y91497113D01*
X64396794Y91497112D01*
X64396796Y91497111D01*
X64455875Y91475076D01*
X64533795Y91446012D01*
X64533803Y91446010D01*
X64594350Y91439501D01*
X64594355Y91439501D01*
X64594362Y91439500D01*
X64594368Y91439500D01*
X66215632Y91439500D01*
X66215638Y91439500D01*
X66215645Y91439501D01*
X66215649Y91439501D01*
X66276196Y91446010D01*
X66276199Y91446011D01*
X66276201Y91446011D01*
X66413204Y91497111D01*
X66530261Y91584739D01*
X66574131Y91643344D01*
X66630966Y91685889D01*
X66701781Y91690955D01*
X66764094Y91656930D01*
X66775866Y91643344D01*
X66819737Y91584740D01*
X66936792Y91497113D01*
X66936794Y91497112D01*
X66936796Y91497111D01*
X66995875Y91475076D01*
X67073795Y91446012D01*
X67073803Y91446010D01*
X67134350Y91439501D01*
X67134355Y91439501D01*
X67134362Y91439500D01*
X67134368Y91439500D01*
X68755632Y91439500D01*
X68755638Y91439500D01*
X68755645Y91439501D01*
X68755649Y91439501D01*
X68816196Y91446010D01*
X68816199Y91446011D01*
X68816201Y91446011D01*
X68953204Y91497111D01*
X69070261Y91584739D01*
X69157889Y91701796D01*
X69208989Y91838799D01*
X69215500Y91899362D01*
X69215500Y93520638D01*
X69215000Y93525289D01*
X69208990Y93581197D01*
X69208988Y93581205D01*
X69157889Y93718203D01*
X69157887Y93718208D01*
X69070260Y93835263D01*
X69011656Y93879134D01*
X68969110Y93935970D01*
X68964046Y94006786D01*
X68998072Y94069098D01*
X69011656Y94080868D01*
X69070261Y94124739D01*
X69157889Y94241796D01*
X69208989Y94378799D01*
X69215500Y94439362D01*
X69215500Y96060638D01*
X69215000Y96065289D01*
X69208990Y96121197D01*
X69208988Y96121205D01*
X69157889Y96258203D01*
X69157887Y96258208D01*
X69070261Y96375262D01*
X68953207Y96462888D01*
X68953202Y96462890D01*
X68816204Y96513989D01*
X68816196Y96513991D01*
X68755649Y96520500D01*
X68755638Y96520500D01*
X67134362Y96520500D01*
X67134350Y96520500D01*
X67073803Y96513991D01*
X67073795Y96513989D01*
X66936797Y96462890D01*
X66936792Y96462888D01*
X66819738Y96375261D01*
X66775867Y96316657D01*
X66719031Y96274111D01*
X66648216Y96269047D01*
X66585904Y96303072D01*
X66574133Y96316657D01*
X66530261Y96375261D01*
X66413207Y96462888D01*
X66413202Y96462890D01*
X66276204Y96513989D01*
X66276196Y96513991D01*
X66215649Y96520500D01*
X66215638Y96520500D01*
X64594362Y96520500D01*
X64594350Y96520500D01*
X64533803Y96513991D01*
X64533795Y96513989D01*
X64396797Y96462890D01*
X64396792Y96462888D01*
X64279738Y96375261D01*
X64235867Y96316657D01*
X64179031Y96274111D01*
X64108216Y96269047D01*
X64045904Y96303072D01*
X64034133Y96316657D01*
X63990261Y96375261D01*
X63873207Y96462888D01*
X63873202Y96462890D01*
X63736204Y96513989D01*
X63736196Y96513991D01*
X63675649Y96520500D01*
X63675638Y96520500D01*
X62054362Y96520500D01*
X62054350Y96520500D01*
X61993803Y96513991D01*
X61993795Y96513989D01*
X61856797Y96462890D01*
X61856792Y96462888D01*
X61739738Y96375262D01*
X61652112Y96258208D01*
X61652110Y96258203D01*
X61601011Y96121205D01*
X61601009Y96121197D01*
X61594500Y96060650D01*
X61594500Y94439351D01*
X61601009Y94378804D01*
X61601011Y94378796D01*
X61652110Y94241798D01*
X61652112Y94241793D01*
X61739739Y94124739D01*
X61798343Y94080867D01*
X61840889Y94024031D01*
X61845953Y93953216D01*
X61811928Y93890904D01*
X61798343Y93879133D01*
X61739739Y93835262D01*
X61652112Y93718208D01*
X61652110Y93718203D01*
X61601011Y93581205D01*
X61601009Y93581197D01*
X61594500Y93520650D01*
X61594500Y91899351D01*
X56515499Y91899351D01*
X56515500Y91899362D01*
X56515500Y93520638D01*
X56515000Y93525289D01*
X56508990Y93581197D01*
X56508988Y93581205D01*
X56457889Y93718203D01*
X56457887Y93718208D01*
X56370261Y93835262D01*
X56311657Y93879132D01*
X56269110Y93935968D01*
X56264046Y94006784D01*
X56298071Y94069096D01*
X56311657Y94080868D01*
X56370261Y94124739D01*
X56457887Y94241793D01*
X56457887Y94241794D01*
X56457889Y94241796D01*
X56508989Y94378799D01*
X56515500Y94439362D01*
X56515500Y96060638D01*
X56515000Y96065289D01*
X56508990Y96121197D01*
X56508988Y96121205D01*
X56457889Y96258203D01*
X56457887Y96258208D01*
X56370261Y96375262D01*
X56253207Y96462888D01*
X56253202Y96462890D01*
X56116204Y96513989D01*
X56116196Y96513991D01*
X56055649Y96520500D01*
X56055638Y96520500D01*
X54434362Y96520500D01*
X54434350Y96520500D01*
X54373803Y96513991D01*
X54373795Y96513989D01*
X54236797Y96462890D01*
X54236792Y96462888D01*
X54119738Y96375262D01*
X54032112Y96258208D01*
X54032110Y96258203D01*
X53981011Y96121205D01*
X53981009Y96121197D01*
X53974500Y96060650D01*
X53974500Y94439351D01*
X53981009Y94378804D01*
X53981011Y94378796D01*
X54032110Y94241798D01*
X54032112Y94241793D01*
X54119739Y94124739D01*
X54178343Y94080867D01*
X54220889Y94024031D01*
X54225953Y93953216D01*
X54191928Y93890904D01*
X54178343Y93879133D01*
X54119739Y93835262D01*
X54032112Y93718208D01*
X54032110Y93718203D01*
X53981011Y93581205D01*
X53981009Y93581197D01*
X53974500Y93520650D01*
X53974500Y91899351D01*
X51435499Y91899351D01*
X51435500Y91899362D01*
X51435500Y93520638D01*
X51435000Y93525289D01*
X51428990Y93581197D01*
X51428988Y93581205D01*
X51377889Y93718203D01*
X51377887Y93718208D01*
X51290261Y93835262D01*
X51231657Y93879132D01*
X51189110Y93935968D01*
X51184046Y94006784D01*
X51218071Y94069096D01*
X51231657Y94080868D01*
X51290261Y94124739D01*
X51377887Y94241793D01*
X51377887Y94241794D01*
X51377889Y94241796D01*
X51428989Y94378799D01*
X51435500Y94439362D01*
X51435500Y96060638D01*
X51435000Y96065289D01*
X51428990Y96121197D01*
X51428988Y96121205D01*
X51377889Y96258203D01*
X51377887Y96258208D01*
X51290261Y96375262D01*
X51173207Y96462888D01*
X51173202Y96462890D01*
X51036204Y96513989D01*
X51036196Y96513991D01*
X50975649Y96520500D01*
X50975638Y96520500D01*
X49354362Y96520500D01*
X49354350Y96520500D01*
X49293803Y96513991D01*
X49293795Y96513989D01*
X49156797Y96462890D01*
X49156792Y96462888D01*
X49039739Y96375262D01*
X48995866Y96316656D01*
X48939029Y96274110D01*
X48868213Y96269047D01*
X48805902Y96303073D01*
X48794131Y96316658D01*
X48750261Y96375262D01*
X48633207Y96462888D01*
X48633202Y96462890D01*
X48496204Y96513989D01*
X48496196Y96513991D01*
X48435649Y96520500D01*
X48435638Y96520500D01*
X46814362Y96520500D01*
X46814350Y96520500D01*
X46753803Y96513991D01*
X46753795Y96513989D01*
X46616797Y96462890D01*
X46616792Y96462888D01*
X46499738Y96375261D01*
X46455867Y96316657D01*
X46399031Y96274111D01*
X46328216Y96269047D01*
X46265904Y96303072D01*
X46254133Y96316657D01*
X46210261Y96375261D01*
X46093207Y96462888D01*
X46093202Y96462890D01*
X45956204Y96513989D01*
X45956196Y96513991D01*
X45895649Y96520500D01*
X45895638Y96520500D01*
X44274362Y96520500D01*
X44274350Y96520500D01*
X44213803Y96513991D01*
X44213795Y96513989D01*
X44076797Y96462890D01*
X44076792Y96462888D01*
X43959738Y96375262D01*
X43872112Y96258208D01*
X43872110Y96258203D01*
X43821011Y96121205D01*
X43821009Y96121197D01*
X43814500Y96060650D01*
X43814500Y94439351D01*
X43821009Y94378804D01*
X43821011Y94378796D01*
X43872110Y94241798D01*
X43872112Y94241793D01*
X43959739Y94124739D01*
X44018343Y94080867D01*
X44060889Y94024031D01*
X44065953Y93953216D01*
X44031928Y93890904D01*
X44018343Y93879133D01*
X43959739Y93835262D01*
X43872112Y93718208D01*
X43872110Y93718203D01*
X43821011Y93581205D01*
X43821009Y93581197D01*
X43814500Y93520650D01*
X43814500Y91899351D01*
X41275499Y91899351D01*
X41275500Y91899362D01*
X41275500Y93520638D01*
X41275000Y93525289D01*
X41268990Y93581197D01*
X41268988Y93581205D01*
X41217889Y93718203D01*
X41217887Y93718208D01*
X41130261Y93835262D01*
X41071657Y93879132D01*
X41029110Y93935968D01*
X41024046Y94006784D01*
X41058071Y94069096D01*
X41071657Y94080868D01*
X41130261Y94124739D01*
X41217887Y94241793D01*
X41217887Y94241794D01*
X41217889Y94241796D01*
X41268989Y94378799D01*
X41275500Y94439362D01*
X41275500Y96060638D01*
X41275000Y96065289D01*
X41268990Y96121197D01*
X41268988Y96121205D01*
X41217889Y96258203D01*
X41217887Y96258208D01*
X41130261Y96375262D01*
X41013207Y96462888D01*
X41013202Y96462890D01*
X40876204Y96513989D01*
X40876196Y96513991D01*
X40815649Y96520500D01*
X40815638Y96520500D01*
X39194362Y96520500D01*
X39194350Y96520500D01*
X39133803Y96513991D01*
X39133795Y96513989D01*
X38996797Y96462890D01*
X38996792Y96462888D01*
X38879738Y96375262D01*
X38792112Y96258208D01*
X38792110Y96258203D01*
X38741011Y96121205D01*
X38741009Y96121197D01*
X38734500Y96060650D01*
X38734500Y94439351D01*
X38741009Y94378804D01*
X38741011Y94378796D01*
X38792110Y94241798D01*
X38792112Y94241793D01*
X38879739Y94124739D01*
X38938343Y94080867D01*
X38980889Y94024031D01*
X38985953Y93953216D01*
X38951928Y93890904D01*
X38938343Y93879133D01*
X38879739Y93835262D01*
X38792112Y93718208D01*
X38792110Y93718203D01*
X38741011Y93581205D01*
X38741009Y93581197D01*
X38734500Y93520650D01*
X38734500Y91899351D01*
X24130499Y91899351D01*
X24130500Y91899362D01*
X24130500Y93520638D01*
X24130000Y93525289D01*
X24123990Y93581197D01*
X24123988Y93581205D01*
X24072889Y93718203D01*
X24072887Y93718208D01*
X23985261Y93835262D01*
X23926657Y93879132D01*
X23884110Y93935968D01*
X23879046Y94006784D01*
X23913071Y94069096D01*
X23926657Y94080868D01*
X23985261Y94124739D01*
X24072887Y94241793D01*
X24072887Y94241794D01*
X24072889Y94241796D01*
X24123989Y94378799D01*
X24130500Y94439362D01*
X24130500Y96060638D01*
X24130000Y96065289D01*
X24123990Y96121197D01*
X24123988Y96121205D01*
X24072889Y96258203D01*
X24072887Y96258208D01*
X23985261Y96375262D01*
X23868207Y96462888D01*
X23868202Y96462890D01*
X23731204Y96513989D01*
X23731196Y96513991D01*
X23670649Y96520500D01*
X23670638Y96520500D01*
X22049362Y96520500D01*
X22049350Y96520500D01*
X21988803Y96513991D01*
X21988795Y96513989D01*
X21851797Y96462890D01*
X21851792Y96462888D01*
X21734739Y96375262D01*
X21690866Y96316656D01*
X21634029Y96274110D01*
X21563213Y96269047D01*
X21500902Y96303073D01*
X21489131Y96316658D01*
X21445261Y96375262D01*
X21328207Y96462888D01*
X21328202Y96462890D01*
X21191204Y96513989D01*
X21191196Y96513991D01*
X21130649Y96520500D01*
X21130638Y96520500D01*
X19509362Y96520500D01*
X19509350Y96520500D01*
X19448803Y96513991D01*
X19448795Y96513989D01*
X19311797Y96462890D01*
X19311792Y96462888D01*
X19194738Y96375261D01*
X19150867Y96316657D01*
X19094031Y96274111D01*
X19023216Y96269047D01*
X18960904Y96303072D01*
X18949133Y96316657D01*
X18905261Y96375261D01*
X18788207Y96462888D01*
X18788202Y96462890D01*
X18651204Y96513989D01*
X18651196Y96513991D01*
X18590649Y96520500D01*
X18590638Y96520500D01*
X16969362Y96520500D01*
X16969350Y96520500D01*
X16908803Y96513991D01*
X16908795Y96513989D01*
X16771797Y96462890D01*
X16771792Y96462888D01*
X16654739Y96375262D01*
X16610866Y96316656D01*
X16554029Y96274110D01*
X16483213Y96269047D01*
X16420902Y96303073D01*
X16409131Y96316658D01*
X16365261Y96375262D01*
X16248207Y96462888D01*
X16248202Y96462890D01*
X16111204Y96513989D01*
X16111196Y96513991D01*
X16050649Y96520500D01*
X16050638Y96520500D01*
X14429362Y96520500D01*
X14429350Y96520500D01*
X14368803Y96513991D01*
X14368795Y96513989D01*
X14231797Y96462890D01*
X14231792Y96462888D01*
X14114738Y96375261D01*
X14070867Y96316657D01*
X14014031Y96274111D01*
X13943216Y96269047D01*
X13880904Y96303072D01*
X13869133Y96316657D01*
X13825261Y96375261D01*
X13708207Y96462888D01*
X13708202Y96462890D01*
X13571204Y96513989D01*
X13571196Y96513991D01*
X13510649Y96520500D01*
X13510638Y96520500D01*
X11889362Y96520500D01*
X11889350Y96520500D01*
X11828803Y96513991D01*
X11828795Y96513989D01*
X11691797Y96462890D01*
X11691792Y96462888D01*
X11574738Y96375262D01*
X11487112Y96258208D01*
X11487110Y96258203D01*
X11436011Y96121205D01*
X11436009Y96121197D01*
X11429500Y96060650D01*
X11429500Y94439351D01*
X11436009Y94378804D01*
X11436011Y94378796D01*
X11487110Y94241798D01*
X11487112Y94241793D01*
X11574739Y94124739D01*
X11633343Y94080867D01*
X11675889Y94024031D01*
X11680953Y93953216D01*
X11646928Y93890904D01*
X11633343Y93879133D01*
X11574739Y93835262D01*
X11487112Y93718208D01*
X11487110Y93718203D01*
X11436011Y93581205D01*
X11436009Y93581197D01*
X11429500Y93520650D01*
X11429500Y91899351D01*
X264500Y91899351D01*
X264500Y101209500D01*
X284502Y101277621D01*
X338158Y101324114D01*
X390500Y101335500D01*
X80889500Y101335500D01*
X80957621Y101315498D01*
G37*
%TD.AperFunction*%
%TD*%
M02*
